<?xml version="1.0" encoding="UTF-8"?>
<svg id="Calque_2" data-name="Calque 2" xmlns="http://www.w3.org/2000/svg" viewBox="0 0 1175.29 744.41">
  <defs>
    <style>
      .cls-1 {
        fill: #fff;
        stroke: #111827;
        stroke-miterlimit: 10;
      }
    </style>
  </defs>
  <g id="_ÎÓÈ_1" data-name="—ÎÓÈ_1">
    <g>
      <path class="cls-1" d="M121.52.5h932.26c66.79,0,121.02,54.23,121.02,121.02v501.37c0,66.79-54.23,121.02-121.02,121.02H121.52c-66.79,0-121.02-54.23-121.02-121.02V121.52C.5,54.73,54.73.5,121.52.5Z"/>
      <g>
        <g>
          <path d="M311.07,240.44c-15.58,18.76-42.71,21.94-42.71,21.94,0,0-1.86-27.25,13.72-46.01,15.58-18.76,42.71-21.94,42.71-21.94,0,0,1.86,27.25-13.72,46.01Z"/>
          <path d="M346.53,351.18c0-23.6,12.29-43.68,29.44-51.14-6.18-9.89-14.06-17.78-23.4-23.04-35.85-20.16-51.75,3.98-79.41,3.98s-43.56-24.14-79.41-3.98c-24.75,13.92-39.19,46.27-39.19,85.5,0,46.61,26.81,97.43,62.99,115.57,15.78,7.89,36.47-6.56,55.61-8.07,19.14,1.51,39.83,15.97,55.61,8.07,25.23-12.65,45.89-41.19,56.1-73.12-21.64-3.54-38.33-26.25-38.33-53.77Z"/>
        </g>
        <g>
          <path d="M501.27,380.01v98.6h-33.96V217.74h79.64c30.99,0,55.01,6.79,72.06,20.38,17.05,13.58,25.57,32.75,25.57,57.49s-9.47,45-28.4,60.76c-18.93,15.77-44.5,23.65-76.71,23.65h-38.2ZM501.27,245.39v106.97h35.58c23.45,0,41.34-4.82,53.67-14.46,12.33-9.64,18.49-23.26,18.49-40.84,0-34.44-22.64-51.66-67.92-51.66h-39.82Z"/>
          <path d="M1020.74,289.65l-90.46,205.36c-16.13,36.65-38.8,54.97-67.99,54.97-8.2,0-15.05-.75-20.55-2.25v-25.41c6.79,2.07,12.99,3.11,18.63,3.11,15.88,0,27.78-8.53,35.73-25.58l15.75-33.53-76.83-176.66h34.96l53.2,136.21c.64,1.73,1.98,6.22,4.03,13.48h1.15c.64-2.77,1.92-7.14,3.84-13.14l55.89-136.56h32.65Z"/>
        </g>
        <path d="M745.57,288.48c-16.08,0-46.24-2.01-68.99,25.39-5.84,7.03-10.29,16.4-11.42,28.89h36.18s3.86-20.97,31.08-27.56c.02,0,.04-.02.06-.02,3.12-.26,6.25-.38,9.43-.38,27.52,0,41.29,21.35,41.29,51.98l-50.84,1.31c-9.54.25-19.06,1.4-28.28,3.85-31.39,8.37-47.09,26.78-47.09,55.2,0,15.72,5.65,28.34,16.93,37.85,11.28,9.51,26.9,14.27,46.86,14.27,27.14,0,47.68-10.81,61.63-32.4h.78v28.16h32.08v-117.28c0-44.83-17.45-69.27-69.72-69.27ZM783.2,401.78c0,15.38-5.19,28.1-15.56,38.13-10.35,10.03-23.5,15.06-39.42,15.06-11.62,0-20.91-2.79-27.88-8.36-6.98-5.59-10.47-12.76-10.47-21.57,0-12.1,3.78-20.52,11.36-25.27,4.32-2.72,9.83-4.97,16.54-6.75,8.47-2.24,17.22-3.2,25.98-3.19l39.46.03v11.92Z"/>
      </g>
    </g>
  </g>
</svg>