<?xml version="1.0" encoding="UTF-8"?>
<svg id="Calque_2" data-name="Calque 2" xmlns="http://www.w3.org/2000/svg" viewBox="0 0 1175.29 744.41">
  <defs>
    <style>
      .cls-1 {
        fill: #fbd500;
      }

      .cls-2 {
        fill: #fff;
        stroke: #111827;
        stroke-miterlimit: 10;
      }

      .cls-3 {
        fill-rule: evenodd;
      }

      .cls-3, .cls-4 {
        fill: #005697;
      }
    </style>
  </defs>
  <g id="_ÎÓÈ_1" data-name="—ÎÓÈ_1">
    <g>
      <path class="cls-2" d="M121.52.5h932.26c66.79,0,121.02,54.23,121.02,121.02v501.37c0,66.79-54.23,121.02-121.02,121.02H121.52c-66.79,0-121.02-54.23-121.02-121.02V121.52C.5,54.73,54.73.5,121.52.5Z"/>
      <g>
        <path class="cls-4" d="M881.95,220.34h-232.99l-23.69,26.68-76.89,86.57h0s-23.69,26.68-23.69,26.68h-229.91l23.33-27.02,11.04-12.79,23.33-27.02h-105.93c-19.35,0-35.19,16.24-35.19,36.08v76.14c0,19.85,15.84,36.09,35.19,36.09h405.57c19.35,0,45.79-12.06,58.75-26.8l61.35-69.78,109.75-124.83Z"/>
        <path class="cls-1" d="M928.76,138.95c19.35,0,35.19,16.24,35.19,36.09v76.13c0,19.84-15.84,36.08-35.19,36.08h-105.59l23.55-26.81h0l11.68-13.29,23.55-26.81h-232.98l-124.28,140.03h-231.33l165.9-187.59,6.28-7.1c13.01-14.7,39.48-26.73,58.83-26.73h404.4Z"/>
        <path class="cls-3" d="M290.65,571.18c0-4.97-1.17-9.27-3.51-12.91-2.34-3.63-5.43-6.4-9.25-8.32,3.82-1.91,6.79-4.74,8.89-8.46,2.1-3.73,3.15-7.93,3.15-12.62v-2.58c0-5.74-1.1-10.52-3.3-14.34-2.2-3.82-5.29-6.89-9.25-9.18-3.97-2.3-8.73-3.94-14.27-4.95-5.55-1-11.71-1.5-18.5-1.5-2.29,0-4.68.05-7.17.14-2.49.09-4.9.21-7.24.36-2.34.14-4.5.31-6.45.5-1.96.19-3.56.39-4.81.57-2.77.48-4.73,1.34-5.88,2.58-1.15,1.25-1.72,3.49-1.72,6.74v87.19c0,3.25.6,5.5,1.79,6.74,1.19,1.24,3.23,2.1,6.1,2.58,1.43.29,3.15.52,5.16.72,2.01.19,4.18.36,6.52.5,2.34.14,4.76.26,7.24.36,2.49.09,4.92.14,7.31.14,6.21,0,12.07-.48,17.57-1.44,5.49-.95,10.27-2.65,14.34-5.09,4.06-2.44,7.29-5.74,9.68-9.89,2.39-4.16,3.58-9.39,3.58-15.71v-2.15ZM266.27,530.02c0,1.53-.24,2.99-.72,4.38s-1.27,2.58-2.37,3.59c-1.1,1-2.58,1.81-4.45,2.43-1.86.62-4.23.93-7.1.93h-16.06v-24.81c.48,0,1.22-.02,2.22-.07,1-.05,2.05-.07,3.15-.07h5.52c7.36,0,12.5.93,15.42,2.8,2.92,1.86,4.37,4.76,4.37,8.68v2.15ZM262.61,582.08c2.82-2.2,4.23-5.31,4.23-9.32v-1.58c0-3.44-1.1-6.43-3.3-8.96-2.2-2.53-6.17-3.8-11.9-3.8h-16.06v26.82h2.51c1.1,0,2.25.03,3.44.08,1.19.05,2.34.07,3.44.07h2.36c7.36,0,12.45-1.1,15.27-3.3ZM369.24,550.1c0-5.26-.79-9.73-2.37-13.41-1.57-3.68-3.8-6.69-6.67-9.04-2.87-2.34-6.38-4.06-10.54-5.16-4.16-1.1-8.82-1.65-13.98-1.65-4.78,0-9.44.34-13.98,1.01-4.55.67-8.15,1.34-10.83,2-1.82.48-2.73,1.53-2.73,3.15v11.62c0,.96.24,1.63.72,2.01.48.39,1.1.58,1.86.58h.72c1.15-.1,2.58-.22,4.3-.36,1.72-.14,3.66-.26,5.81-.36,2.15-.09,4.4-.16,6.74-.21,2.34-.05,4.66-.07,6.96-.07,3.35,0,5.97.62,7.89,1.86,1.91,1.24,2.87,3.92,2.87,8.03v5.16h-7.74c-12.33,0-21.3,1.93-26.89,5.81-5.59,3.87-8.39,10.01-8.39,18.43v1.3c0,4.68.69,8.6,2.08,11.75,1.38,3.16,3.23,5.69,5.52,7.6,2.3,1.91,4.9,3.27,7.82,4.08,2.92.81,5.95,1.22,9.11,1.22,4.3,0,8.01-.58,11.11-1.72,3.11-1.15,6.04-2.73,8.82-4.73v2.29c0,.77.29,1.44.86,2.01.58.58,1.24.86,2.01.86h16.06c.76,0,1.43-.29,2.01-.86.58-.57.86-1.24.86-2.01v-51.2ZM340.91,587.02c1.96-.62,3.8-1.36,5.52-2.22v-15.77h-8.17c-2.49,0-4.54.21-6.17.64-1.63.43-2.92,1.08-3.87,1.94-.96.86-1.63,1.96-2.01,3.3-.39,1.34-.58,2.87-.58,4.59v1.3c0,3.06.74,5.01,2.22,5.88,1.48.86,3.75,1.29,6.81,1.29,2.2,0,4.28-.31,6.24-.93ZM457,601.15v-47.76c0-4.49-.36-8.72-1.08-12.69-.72-3.96-2.01-7.41-3.87-10.33-1.86-2.92-4.45-5.23-7.75-6.95-3.3-1.72-7.53-2.58-12.69-2.58-4.59,0-8.66.55-12.19,1.66-3.54,1.11-7.27,3.06-11.19,5.85v-3.48c0-.77-.29-1.44-.86-2.02-.57-.58-1.24-.87-2.01-.87h-16.06c-.77,0-1.44.29-2.01.86-.57.57-.86,1.24-.86,2.01v76.29c0,.77.31,1.46.93,2.08.62.62,1.31.93,2.08.93h17.35c.77,0,1.43-.31,2.01-.93.58-.62.86-1.31.86-2.08v-56.38c2.49-1.34,4.83-2.43,7.03-3.29,2.2-.86,4.35-1.29,6.45-1.29s3.99.21,5.38.65c1.38.43,2.46,1.17,3.23,2.22.77,1.05,1.29,2.43,1.58,4.14.29,1.72.43,3.82.43,6.3v47.65c0,.77.29,1.46.86,2.08.57.62,1.24.93,2.01.93h17.35c.76,0,1.46-.31,2.08-.93.62-.62.93-1.31.93-2.08ZM527.56,587.24v12.76c0,1.05-.24,1.79-.72,2.22-.48.43-1.24.79-2.3,1.08-2.01.48-4.61.96-7.81,1.44-3.2.47-6.96.72-11.26.72-10.13,0-18.24-3.11-24.31-9.32-6.07-6.21-9.11-15.2-9.11-26.96v-12.04c0-11.76,3.04-20.75,9.11-26.96,6.07-6.22,14.17-9.32,24.31-9.32,4.3,0,8.05.24,11.26.72,3.2.48,5.81.96,7.81,1.43,1.05.29,1.82.65,2.3,1.08.48.43.72,1.17.72,2.23v12.76c0,.77-.27,1.36-.79,1.79-.53.43-1.17.64-1.94.64h-.29c-2.68-.28-5.23-.52-7.67-.71-2.44-.19-5.71-.29-9.82-.29-1.63,0-3.15.27-4.59.79-1.43.53-2.68,1.43-3.73,2.73-1.05,1.29-1.89,3.01-2.51,5.16-.62,2.15-.93,4.8-.93,7.96v12.04c0,3.15.31,5.81.93,7.96.62,2.15,1.46,3.87,2.51,5.16,1.05,1.29,2.29,2.2,3.73,2.73,1.44.53,2.96.79,4.59.79,4.11,0,7.39-.1,9.82-.29,2.44-.19,5-.43,7.67-.72h.29c.76,0,1.41.21,1.94.65.52.43.79,1.03.79,1.8ZM607.15,558.13c0-5.74-.79-10.9-2.37-15.49-1.58-4.59-3.88-8.48-6.9-11.69-3.02-3.2-6.75-5.69-11.21-7.46-4.45-1.76-9.61-2.65-15.45-2.65s-10.99.89-15.45,2.65c-4.45,1.77-8.22,4.26-11.28,7.46-3.07,3.2-5.39,7.1-6.97,11.69-1.59,4.59-2.37,9.75-2.37,15.49v10.04c0,5.73.79,10.9,2.37,15.49,1.58,4.59,3.9,8.48,6.97,11.69,3.06,3.2,6.83,5.69,11.28,7.46,4.46,1.76,9.6,2.65,15.45,2.65s11-.89,15.45-2.65c4.45-1.77,8.19-4.25,11.21-7.46,3.02-3.2,5.32-7.1,6.9-11.69,1.58-4.59,2.37-9.75,2.37-15.49v-10.04ZM571.23,585.8c8.46,0,12.69-5.88,12.69-17.64v-10.04c0-11.66-4.23-17.5-12.69-17.5-4.18,0-7.37,1.46-9.55,4.38-2.19,2.92-3.28,7.29-3.28,13.12v10.04c0,5.83,1.09,10.23,3.28,13.19,2.19,2.97,5.37,4.45,9.55,4.45ZM692.48,601.15v-47.76c0-4.49-.36-8.72-1.08-12.69-.72-3.96-2.01-7.41-3.88-10.33-1.86-2.92-4.44-5.23-7.74-6.95-3.3-1.72-7.53-2.58-12.69-2.58-4.59,0-8.65.55-12.19,1.66-3.54,1.11-7.27,3.06-11.19,5.85v-3.48c0-.77-.29-1.44-.86-2.02-.57-.58-1.24-.87-2-.87h-16.06c-.77,0-1.43.29-2.01.86-.57.57-.86,1.24-.86,2.01v76.29c0,.77.31,1.46.93,2.08.62.62,1.31.93,2.08.93h17.35c.76,0,1.43-.31,2.01-.93.57-.62.86-1.31.86-2.08v-56.38c2.48-1.34,4.83-2.43,7.03-3.29,2.2-.86,4.35-1.29,6.46-1.29s3.99.21,5.38.65c1.38.43,2.46,1.17,3.23,2.22.77,1.05,1.29,2.43,1.58,4.14.29,1.72.43,3.82.43,6.3v47.65c0,.77.29,1.46.86,2.08.58.62,1.24.93,2.01.93h17.35c.77,0,1.46-.31,2.08-.93.62-.62.93-1.31.93-2.08ZM755,590.37v11.1c0,1.61-.91,2.56-2.73,2.84-2.2.38-4.11.66-5.73.86-1.63.19-3.49.29-5.59.29-3.9,0-7.35-.31-10.34-.93-2.99-.62-5.49-1.84-7.49-3.66-1.99-1.82-3.51-4.33-4.56-7.53-1.04-3.2-1.57-7.33-1.57-12.4v-41.59l-11.47-1.87c-.77-.19-1.46-.55-2.08-1.08-.62-.52-.93-1.17-.93-1.93v-9.47c0-.76.31-1.46.93-2.08.62-.62,1.31-.93,2.08-.93h11.47v-11.76c0-.77.29-1.38.85-1.86.57-.48,1.24-.81,2-1l17.39-3.01h.43c.76,0,1.38.21,1.85.64.47.43.71,1.03.71,1.79v15.2h11.76c.76,0,1.43.29,2.01.87.58.58.86,1.26.86,2.03v11.71c0,.77-.29,1.45-.86,2.02-.58.58-1.24.87-2.01.87h-11.76v41.73c0,2.87.24,4.71.72,5.52.48.81,1.81,1.22,4.01,1.22h7.03c2.01,0,3.01.81,3.01,2.42ZM831.58,550.1c0-5.26-.79-9.73-2.37-13.41-1.57-3.68-3.8-6.69-6.66-9.04-2.87-2.34-6.38-4.06-10.54-5.16-4.16-1.1-8.82-1.65-13.98-1.65-4.78,0-9.44.34-13.98,1.01-4.54.67-8.15,1.34-10.83,2-1.82.48-2.73,1.53-2.73,3.15v11.62c0,.96.24,1.63.72,2.01.48.39,1.1.58,1.86.58h.72c1.15-.1,2.58-.22,4.3-.36,1.72-.14,3.66-.26,5.81-.36,2.15-.09,4.4-.16,6.74-.21,2.34-.05,4.66-.07,6.95-.07,3.35,0,5.98.62,7.89,1.86,1.91,1.24,2.87,3.92,2.87,8.03v5.16h-7.74c-12.34,0-21.3,1.93-26.89,5.81-5.59,3.87-8.39,10.01-8.39,18.43v1.3c0,4.68.69,8.6,2.08,11.75,1.38,3.16,3.23,5.69,5.52,7.6,2.3,1.91,4.9,3.27,7.82,4.08,2.92.81,5.95,1.22,9.11,1.22,4.3,0,8-.58,11.11-1.72,3.11-1.15,6.04-2.73,8.82-4.73v2.29c0,.77.29,1.44.86,2.01.57.58,1.24.86,2.01.86h16.06c.76,0,1.43-.29,2.01-.86.57-.57.86-1.24.86-2.01v-51.2ZM803.26,587.02c1.96-.62,3.8-1.36,5.52-2.22v-15.77h-8.17c-2.49,0-4.54.21-6.17.64-1.63.43-2.92,1.08-3.87,1.94-.96.86-1.63,1.96-2.01,3.3-.38,1.34-.58,2.87-.58,4.59v1.3c0,3.06.74,5.01,2.22,5.88,1.48.86,3.75,1.29,6.81,1.29,2.2,0,4.27-.31,6.24-.93ZM902.14,600v-12.76c0-.77-.27-1.36-.79-1.8-.53-.43-1.17-.65-1.94-.65h-.29c-2.68.29-5.23.53-7.67.72-2.44.19-5.71.29-9.82.29-1.63,0-3.16-.26-4.59-.79-1.44-.52-2.68-1.43-3.73-2.73-1.05-1.29-1.89-3.01-2.51-5.16-.62-2.15-.93-4.81-.93-7.96v-12.04c0-3.16.31-5.81.93-7.96.62-2.15,1.46-3.87,2.51-5.16,1.05-1.29,2.3-2.2,3.73-2.73,1.43-.52,2.96-.79,4.59-.79,4.11,0,7.39.1,9.82.29,2.44.19,5,.43,7.67.71h.29c.77,0,1.41-.21,1.94-.64.52-.43.79-1.03.79-1.79v-12.76c0-1.05-.24-1.79-.72-2.23-.48-.43-1.24-.79-2.29-1.08-2.01-.48-4.62-.95-7.82-1.43-3.2-.48-6.95-.72-11.26-.72-10.14,0-18.24,3.11-24.31,9.32-6.07,6.21-9.11,15.2-9.11,26.96v12.04c0,11.76,3.04,20.75,9.11,26.96,6.07,6.22,14.17,9.32,24.31,9.32,4.3,0,8.05-.24,11.26-.72,3.2-.48,5.81-.96,7.82-1.44,1.05-.29,1.81-.64,2.29-1.08.48-.43.72-1.17.72-2.22ZM963.95,590.37v11.1c0,1.61-.91,2.56-2.73,2.84-2.2.38-4.11.66-5.73.86-1.63.19-3.49.29-5.59.29-3.9,0-7.35-.31-10.34-.93-3-.62-5.49-1.84-7.48-3.66-2-1.82-3.52-4.33-4.56-7.53-1.04-3.2-1.57-7.33-1.57-12.4v-41.59l-11.47-1.87c-.77-.19-1.46-.55-2.08-1.08-.62-.52-.93-1.17-.93-1.93v-9.47c0-.76.31-1.46.93-2.08.62-.62,1.31-.93,2.08-.93h11.47v-11.76c0-.77.29-1.38.85-1.86.56-.48,1.23-.81,1.99-1l17.39-3.01h.43c.76,0,1.38.21,1.85.64.48.43.72,1.03.72,1.79v15.2h11.76c.76,0,1.43.29,2.01.87.57.58.86,1.26.86,2.03v11.71c0,.77-.29,1.45-.86,2.02-.57.58-1.24.87-2.01.87h-11.76v41.73c0,2.87.24,4.71.72,5.52.48.81,1.81,1.22,4.01,1.22h7.03c2.01,0,3.01.81,3.01,2.42Z"/>
      </g>
    </g>
  </g>
</svg>