<?xml version="1.0" encoding="UTF-8"?>
<svg id="Calque_2" data-name="Calque 2" xmlns="http://www.w3.org/2000/svg" viewBox="0 0 1175.29 744.41">
  <defs>
    <style>
      .cls-1 {
        fill: #ff4785;
      }

      .cls-2 {
        fill: #fff;
        stroke: #111827;
        stroke-miterlimit: 10;
      }
    </style>
  </defs>
  <g id="_ÎÓÈ_1" data-name="—ÎÓÈ_1">
    <g>
      <path class="cls-2" d="M121.52.5h932.26c66.79,0,121.02,54.23,121.02,121.02v501.37c0,66.79-54.23,121.02-121.02,121.02H121.52c-66.79,0-121.02-54.23-121.02-121.02V121.52C.5,54.73,54.73.5,121.52.5Z"/>
      <path class="cls-1" d="M724.86,330.87c-28.88,0-52.28-23.41-52.28-52.28s23.41-52.28,52.28-52.28,52.28,23.41,52.28,52.28-23.41,52.28-52.28,52.28M437.94,330.87c-28.88,0-52.28-23.41-52.28-52.28s23.41-52.28,52.28-52.28,52.28,23.41,52.28,52.28-23.41,52.28-52.28,52.28M724.86,162.05c-25.31,0-48.71,8.09-67.82,21.79l-104.12,75.76c-9.07-55.33-57.08-97.56-114.98-97.56-64.37,0-116.54,52.18-116.54,116.54s52.17,116.54,116.54,116.54c25.45,0,48.97-8.18,68.13-22.01l103.81-75.52c9.07,55.32,57.08,97.53,114.97,97.53,64.36,0,116.54-52.18,116.54-116.54s-52.18-116.54-116.54-116.54"/>
      <path class="cls-1" d="M675.47,513.02c0-11.22-9.02-20.35-20.11-20.35s-20.12,9.13-20.12,20.35,9.03,20.36,20.12,20.36,20.11-9.14,20.11-20.36M702.47,513.02c0,26.29-21.14,47.68-47.11,47.68s-47.12-21.39-47.12-47.68,21.13-47.68,47.12-47.68,47.11,21.39,47.11,47.68M514.01,466.22h-27.41l-19.47,49.88-20.95-49.88h-29.23l37.18,83.22-12.85,32.92h27.4l45.33-116.14ZM758.44,466.13c-5.79,0-11.66,1.18-17.18,3.42v-3.55h-27v94.37h27v-49.64c0-16.8,15.42-17.28,17.18-17.28,4.52,0,8.61,1.49,11.51,4.19,3.32,3.08,4.99,7.69,4.99,13.68v48.43h27.01v-48.43c0-29.67-21.89-45.2-43.51-45.2M380.15,510.66c-1.16-10.11-9.67-17.99-19.97-17.99-11.09,0-20.11,9.13-20.11,20.35s9.02,20.36,20.11,20.36c10.29,0,18.8-7.88,19.97-17.99v-4.72ZM407.15,560.38h-27v-4.24c-6.07,2.89-12.83,4.56-19.97,4.56-25.98,0-47.12-21.39-47.12-47.68s21.13-47.68,47.12-47.68c7.14,0,13.9,1.67,19.97,4.56v-3.89h27v94.37ZM277.81,513.02c0-11.22-9.02-20.35-20.11-20.35s-20.11,9.13-20.11,20.35,9.02,20.36,20.11,20.36,20.11-9.14,20.11-20.36M304.82,513.02c0,26.29-21.14,47.68-47.12,47.68-7.37,0-14.32-1.77-20.53-4.83v26.18h-27v-116.04h27v4.17c6.21-3.06,13.16-4.83,20.53-4.83,25.98,0,47.12,21.39,47.12,47.68M561.18,492.67c6.77,0,13.05,3.44,16.8,9.19l22.55-15.03c-8.76-13.45-23.47-21.48-39.35-21.48-25.98,0-47.12,21.39-47.12,47.68s21.13,47.68,47.12,47.68c15.74,0,30.37-7.91,39.15-21.15l-22.43-15.22c-3.75,5.67-10,9.05-16.72,9.05-11.09,0-20.11-9.14-20.11-20.36s9.02-20.35,20.11-20.35M925.42,513.02c0-11.22-9.02-20.35-20.11-20.35s-20.11,9.13-20.11,20.35,9.03,20.36,20.11,20.36,20.11-9.14,20.11-20.36M952.62,466.01v116.04h-27v-26.08c-6.17,3-13.04,4.73-20.32,4.73-25.98,0-47.11-21.39-47.11-47.68s21.13-47.68,47.11-47.68c7.28,0,14.15,1.73,20.32,4.73v-4.06h27ZM832.75,423.82c-8.69,0-15.75,7.11-15.76,15.91,0,8.8,7.03,15.94,15.73,15.95,8.69,0,15.75-7.12,15.76-15.92,0-8.79-7.03-15.93-15.73-15.94M819.27,465.83h27v94.55h-27v-94.55Z"/>
    </g>
  </g>
</svg>