<?xml version="1.0" encoding="UTF-8"?>
<svg id="Calque_2" data-name="Calque 2" xmlns="http://www.w3.org/2000/svg" viewBox="0 0 1175.29 744.41">
  <defs>
    <style>
      .cls-1 {
        fill: #003086;
      }

      .cls-2 {
        fill: #fff;
        stroke: #111827;
        stroke-miterlimit: 10;
      }

      .cls-3 {
        fill: #009bdc;
      }
    </style>
  </defs>
  <g id="_ÎÓÈ_1" data-name="—ÎÓÈ_1">
    <g>
      <path class="cls-2" d="M121.52.5h932.26c66.79,0,121.02,54.23,121.02,121.02v501.37c0,66.79-54.23,121.02-121.02,121.02H121.52c-66.79,0-121.02-54.23-121.02-121.02V121.52C.5,54.73,54.73.5,121.52.5Z"/>
      <g>
        <path class="cls-3" d="M700.85,264.72c11.27,0,22.55-.2,33.82.07,8.67.21,17.14,1.86,25.19,5.33,13.53,5.83,21.79,15.98,23.21,30.57,2.06,21.22-2.64,41-16.07,57.99-9.44,11.94-22.56,17.75-37.22,20.49-9.56,1.79-19.23,1.65-28.89,1.61-2.97-.01-5.93-.04-8.9,0-5.45.08-8.63,2.92-9.48,8.3-2.32,14.63-4.63,29.27-7,43.89-.69,4.27-2.95,6.12-7.32,6.13-9.83.03-19.67.02-29.5,0-5.19,0-7.29-2.33-6.49-7.53,2.05-13.39,22.39-142.33,25.01-158.8.88-5.51,4-8.14,9.56-8.16,11.36-.03,22.72,0,34.08,0v.12ZM700.97,345.83c4.58.04,9.15-.04,13.68-.76,6.34-1.01,12.17-3.07,16.22-8.46,4.61-6.13,5.76-13.24,5.62-20.65-.15-7.95-4.62-13.38-12.41-15.17-7.59-1.74-15.31-1.51-23.01-1.35-3.1.06-4.79,1.99-5.28,5.18-.42,2.76-.86,5.52-1.29,8.27-1.6,10.11-3.16,20.23-4.85,30.32-.37,2.21.3,2.78,2.43,2.66,2.96-.17,5.93-.04,8.89-.04Z"/>
        <path class="cls-1" d="M252.67,264.72c11.28,0,22.56-.28,33.83.08,11.12.35,21.87,2.62,31.51,8.64,9.97,6.21,15.59,15.38,16.84,26.83,2.14,19.53-2.03,37.84-12.92,54.27-9.52,14.37-23.72,21.58-40.3,24.61-6.6,1.21-13.28,1.68-19.99,1.62-5.94-.04-11.87-.05-17.81,0-5.32.05-8.67,2.89-9.5,8.05-1.57,9.79-3.09,19.58-4.64,29.37-.67,4.27-1.31,8.54-2.04,12.8-.89,5.22-4.17,8.07-9.45,8.1-9.33.05-18.66.04-27.98,0-4.81-.02-7-2.59-6.26-7.34,1.72-11.05,22.72-144.28,25.05-158.67.97-6.02,3.98-8.47,10.06-8.48,11.19-.02,22.39,0,33.58,0,0,.04,0,.07,0,.11ZM250.86,345.88c5.17.09,10.33-.11,15.46-.78,11.68-1.53,18.48-7.7,21.1-19.18.74-3.24,1-6.53.89-9.84-.26-8.21-4.54-13.49-12.57-15.32-7.5-1.71-15.15-1.5-22.77-1.32-2.97.07-4.77,1.73-5.24,4.63-2.15,13.2-4.2,26.42-6.32,39.63-.28,1.75.45,2.26,2.07,2.21,2.46-.07,4.91-.02,7.37-.02Z"/>
        <path class="cls-3" d="M880.14,334.67c.38-2.31.71-4.63,1.16-6.94.74-3.73,2.35-5.12,6.05-5.13,9.33-.03,18.66-.04,27.98,0,5.05.02,7.08,2.41,6.28,7.46-3.1,19.74-13.65,85.98-15.69,99.38-1.06,6.94-4.01,9.65-10.94,9.65-7.72,0-15.43,0-23.15,0-5.84,0-7.85-2.4-6.84-8.08.32-1.8.53-3.62.79-5.4-.86-.22-1.14.3-1.49.62-15.25,13.62-33.05,18.04-52.9,14.24-19.43-3.72-32.85-18-36.13-38.43-4.83-30.08,10.4-62.83,40.07-76.39,15.68-7.17,31.92-7.71,48.38-2.92,6.39,1.86,11.62,5.45,15.29,11.11.18.28.44.5.67.74.04.04.14.03.45.08ZM843.09,409.91c17.09.05,32.02-14.81,31.97-34.18-.03-11.04-6.33-19.82-16.38-22.82-19.38-5.79-40.24,7.83-42.87,27.87-.91,6.93-.54,13.57,3.59,19.47,5.16,7.36,12.77,9.59,23.68,9.67Z"/>
        <path class="cls-1" d="M417.17,425.36c-4.08,3.7-8.03,6.87-12.59,9.18-17.78,9.01-35.95,10.22-54.07,1.52-12.44-5.97-19.36-16.83-22.48-29.91-8.73-36.58,14.98-80.02,57.82-85.85,10.01-1.36,19.96-.63,29.68,2.41,6.28,1.96,11.46,5.4,15.17,10.92.23.34.54.61,1,1.11.98-2.41.95-4.79,1.43-7.05.77-3.63,2.38-5.07,6.12-5.08,9.33-.03,18.66-.05,27.99,0,4.94.03,6.96,2.4,6.2,7.27-4.14,26.45-14.72,93.23-15.78,100.18-.95,6.24-4.11,9.02-10.47,9.03-7.72.01-15.43.01-23.15,0-6.28,0-8.09-2.15-7.22-8.27.23-1.64.93-3.26.35-5.48ZM392.55,409.97c2.19-.2,4.41-.23,6.57-.64,16.09-3.03,27.23-16.04,27.84-32.41.45-12.27-6.9-21.99-18.54-24.53-19.48-4.25-38.48,9.33-40.87,29.1-.83,6.88-.24,13.42,3.98,19.15,5.2,7.06,12.65,9.25,21.03,9.33Z"/>
        <path class="cls-1" d="M549.68,387.11c1-.37,1.31-1.32,1.81-2.05,12.97-19.07,25.98-38.11,38.83-57.25,2.44-3.63,5.49-5.21,9.77-5.16,9.16.11,18.32.06,27.48.01,2.46-.01,4.54.5,5.76,2.87,1.22,2.37.38,4.34-1.02,6.36-33.06,47.65-66.1,95.3-99.09,143-2.35,3.4-5.4,4.95-9.43,4.94-9.16-.02-18.32-.02-27.48,0-2.41,0-4.54-.38-5.81-2.79-1.31-2.49-.45-4.52,1.01-6.59,9.62-13.55,19.16-27.16,28.84-40.66,1.36-1.9,1.48-3.48.75-5.6-10.58-30.86-21.09-61.75-31.61-92.63-.3-.88-.66-1.76-.8-2.67-.54-3.35,1.65-6.2,5.04-6.22,10.18-.08,20.35-.08,30.53.04,3.68.04,6.48,2.56,7.73,6.66,4.25,14.03,8.43,28.08,12.64,42.12,1.34,4.46,2.67,8.93,4.02,13.39.24.78.27,1.66,1.02,2.24Z"/>
        <path class="cls-3" d="M944.7,439.1c-4.07,0-8.14.03-12.21,0-4.58-.05-6.72-2.76-6-7.3,4.03-25.51,25.05-159.43,25.69-162.85.53-2.83,2.22-4.29,5.11-4.31,9.67-.06,19.33-.09,29,0,3.89.04,5.7,2.68,5.04,7.08-1.03,6.78-21.38,135.67-25.03,158.58-.99,6.21-4.14,8.79-10.4,8.8-3.73,0-7.46,0-11.19,0Z"/>
      </g>
    </g>
  </g>
</svg>