<?xml version="1.0" encoding="UTF-8"?>
<svg id="Calque_2" data-name="Calque 2" xmlns="http://www.w3.org/2000/svg" viewBox="0 0 1175.29 744.41">
  <defs>
    <style>
      .cls-1 {
        fill: #f79e1b;
      }

      .cls-2 {
        fill: #fff;
        stroke: #111827;
        stroke-miterlimit: 10;
      }

      .cls-3 {
        fill: #eb001b;
      }

      .cls-4 {
        fill: #ff5d0e;
      }
    </style>
  </defs>
  <g id="_ÎÓÈ_1" data-name="—ÎÓÈ_1">
    <g>
      <path class="cls-2" d="M121.52.5h932.26c66.79,0,121.02,54.23,121.02,121.02v501.37c0,66.79-54.23,121.02-121.02,121.02H121.52c-66.79,0-121.02-54.23-121.02-121.02V121.52C.5,54.73,54.73.5,121.52.5Z"/>
      <g>
        <path d="M436.53,593.98v-24.49c0-9.39-5.71-15.51-15.51-15.51-4.9,0-10.2,1.63-13.88,6.94-2.86-4.49-6.94-6.94-13.06-6.94-4.08,0-8.16,1.22-11.43,5.71v-4.9h-8.57v39.18h8.57v-21.63c0-6.94,3.67-10.2,9.39-10.2s8.57,3.67,8.57,10.2v21.63h8.57v-21.63c0-6.94,4.08-10.2,9.39-10.2,5.71,0,8.57,3.67,8.57,10.2v21.63h9.39ZM563.46,554.8h-13.88v-11.84h-8.57v11.84h-7.75v7.75h7.75v17.96c0,8.98,3.67,14.28,13.47,14.28,3.67,0,7.75-1.22,10.61-2.86l-2.45-7.35c-2.45,1.63-5.31,2.04-7.35,2.04-4.08,0-5.71-2.45-5.71-6.53v-17.55h13.88v-7.75ZM636.11,553.98c-4.9,0-8.16,2.45-10.2,5.71v-4.9h-8.57v39.18h8.57v-22.04c0-6.53,2.86-10.2,8.16-10.2,1.63,0,3.67.41,5.31.82l2.45-8.16c-1.63-.41-4.08-.41-5.71-.41ZM526.32,558.06c-4.08-2.86-9.8-4.08-15.92-4.08-9.8,0-16.33,4.9-16.33,12.65,0,6.53,4.9,10.2,13.47,11.43l4.08.41c4.49.82,6.94,2.04,6.94,4.08,0,2.86-3.27,4.9-8.98,4.9s-10.2-2.04-13.06-4.08l-4.08,6.53c4.49,3.26,10.61,4.9,16.73,4.9,11.43,0,17.96-5.31,17.96-12.65,0-6.94-5.31-10.61-13.47-11.84l-4.08-.41c-3.67-.41-6.53-1.22-6.53-3.67,0-2.86,2.86-4.49,7.35-4.49,4.9,0,9.8,2.04,12.24,3.27l3.67-6.94h0ZM754.06,553.98c-4.9,0-8.16,2.45-10.2,5.71v-4.9h-8.57v39.18h8.57v-22.04c0-6.53,2.86-10.2,8.16-10.2,1.63,0,3.67.41,5.31.82l2.45-8.16c-1.63-.41-4.08-.41-5.71-.41ZM644.68,574.39c0,11.84,8.16,20.41,20.82,20.41,5.71,0,9.8-1.22,13.88-4.49l-4.08-6.94c-3.27,2.45-6.53,3.67-10.2,3.67-6.94,0-11.84-4.9-11.84-12.65,0-7.35,4.9-12.24,11.84-12.65,3.67,0,6.94,1.22,10.2,3.67l4.08-6.94c-4.08-3.27-8.16-4.49-13.88-4.49-12.65,0-20.82,8.57-20.82,20.41h0ZM723.85,574.39v-19.59h-8.57v4.9c-2.86-3.67-6.94-5.71-12.24-5.71-11.02,0-19.59,8.57-19.59,20.41s8.57,20.41,19.59,20.41c5.71,0,9.8-2.04,12.24-5.71v4.9h8.57v-19.59h0ZM692.43,574.39c0-6.94,4.49-12.65,11.84-12.65,6.94,0,11.84,5.31,11.84,12.65,0,6.94-4.9,12.65-11.84,12.65-7.35-.41-11.84-5.71-11.84-12.65ZM589.99,553.98c-11.43,0-19.59,8.16-19.59,20.41s8.16,20.41,20,20.41c5.71,0,11.43-1.63,15.92-5.31l-4.08-6.12c-3.27,2.45-7.35,4.08-11.43,4.08-5.31,0-10.61-2.45-11.84-9.39h28.98v-3.26c.41-12.65-6.94-20.82-17.96-20.82h0ZM589.99,561.33c5.31,0,8.98,3.27,9.8,9.39h-20.41c.82-5.31,4.49-9.39,10.61-9.39ZM802.63,574.39v-35.1h-8.57v20.41c-2.86-3.67-6.94-5.71-12.24-5.71-11.02,0-19.59,8.57-19.59,20.41s8.57,20.41,19.59,20.41c5.71,0,9.8-2.04,12.24-5.71v4.9h8.57v-19.59h0ZM771.2,574.39c0-6.94,4.49-12.65,11.84-12.65,6.94,0,11.84,5.31,11.84,12.65,0,6.94-4.9,12.65-11.84,12.65-7.35-.41-11.84-5.71-11.84-12.65ZM484.69,574.39v-19.59h-8.57v4.9c-2.86-3.67-6.94-5.71-12.24-5.71-11.02,0-19.59,8.57-19.59,20.41s8.57,20.41,19.59,20.41c5.71,0,9.8-2.04,12.24-5.71v4.9h8.57v-19.59h0ZM452.85,574.39c0-6.94,4.49-12.65,11.84-12.65,6.94,0,11.84,5.31,11.84,12.65,0,6.94-4.9,12.65-11.84,12.65-7.35-.41-11.84-5.71-11.84-12.65Z"/>
        <g>
          <path class="cls-3" d="M587.65,473.17c-31.02,24.74-70.33,39.52-113.1,39.52-100.25,0-181.53-81.29-181.53-181.54s81.27-181.54,181.53-181.54c42.77,0,82.07,14.79,113.1,39.52-41.72,33.26-68.46,84.52-68.46,142.02s26.73,108.75,68.46,142.02Z"/>
          <path class="cls-4" d="M656.09,331.15c0,57.5-26.73,108.75-68.44,142.02-41.72-33.26-68.46-84.52-68.46-142.02s26.73-108.75,68.46-142.02c41.71,33.26,68.44,84.52,68.44,142.02Z"/>
          <path class="cls-1" d="M882.27,331.15c0,100.25-81.29,181.54-181.54,181.54-42.75,0-82.06-14.79-113.08-39.52,41.71-33.26,68.44-84.52,68.44-142.02s-26.73-108.75-68.44-142.02c31.02-24.74,70.33-39.52,113.08-39.52,100.25,0,181.54,81.29,181.54,181.54Z"/>
        </g>
      </g>
    </g>
  </g>
</svg>