<?xml version="1.0" encoding="UTF-8"?>
<svg id="Calque_2" data-name="Calque 2" xmlns="http://www.w3.org/2000/svg" viewBox="0 0 1175.29 744.41">
  <defs>
    <style>
      .cls-1 {
        fill: #1a1f71;
      }

      .cls-2 {
        fill: #fff;
        stroke: #111827;
        stroke-miterlimit: 10;
      }
    </style>
  </defs>
  <g id="_ÎÓÈ_1" data-name="—ÎÓÈ_1">
    <g>
      <path class="cls-2" d="M121.52.5h932.26c66.79,0,121.02,54.23,121.02,121.02v501.37c0,66.79-54.23,121.02-121.02,121.02H121.52c-66.79,0-121.02-54.23-121.02-121.02V121.52C.5,54.73,54.73.5,121.52.5Z"/>
      <g>
        <path class="cls-1" d="M221.86,256.49v9.8s51.66,3.56,67.69,26.72c15.09,21.8,47.54,176.14,51.3,194.22.21,1.01,1.1,1.73,2.14,1.73h59.11c.89,0,1.68-.53,2.02-1.35l92.62-225.42c.59-1.44-.47-3.01-2.02-3.01h-55.83c-.89,0-1.69.54-2.03,1.37l-60.9,150.94-26.67-125.5c-2.97-14-14.22-24.73-28.34-27.06-8.64-1.43-20.25-2.42-35.84-2.42h-63.24Z"/>
        <path class="cls-1" d="M531.84,488.95h-54.31c-1.39,0-2.43-1.29-2.13-2.65l48.93-225.42c.22-1,1.11-1.72,2.13-1.72h54.31c1.39,0,2.43,1.29,2.13,2.65l-48.93,225.42c-.22,1-1.11,1.72-2.13,1.72Z"/>
        <path class="cls-1" d="M742.51,308.44l8.08-38.79c.2-.96-.25-1.93-1.12-2.38-7.22-3.75-41.07-19.12-92.96-8.11-59.17,12.55-67.69,89.07-33.85,114.01,31.48,23.2,64.13,32.06,57,53.44-6.85,20.55-68.01,19.7-90.15,8.53-1.28-.65-2.82.04-3.14,1.44l-9.55,41.36c-.27,1.17.45,2.34,1.62,2.61,8.96,2.1,44.75,9.95,72.71,8.4,32.06-1.78,81.41-6.04,89.07-73.03,7.13-62.35-77.49-61.46-81.05-91.74-3.49-29.66,43.44-26,80.53-14.11,1.24.4,2.54-.36,2.8-1.63Z"/>
        <path class="cls-1" d="M897.58,259.16h-39.59c-14.14,0-26.9,8.49-32.35,21.53l-85.91,205.23c-.6,1.44.45,3.03,2.01,3.03h55.76c.92,0,1.74-.57,2.05-1.44l12.46-34.19h75.08l6.03,33.83c.19,1.04,1.09,1.8,2.15,1.8h55.99c1.41,0,2.45-1.31,2.13-2.68l-52.14-224.21c-.39-1.7-1.91-2.9-3.65-2.9ZM828.22,408.79l34.18-93.83,16.73,93.83h-50.91Z"/>
      </g>
    </g>
  </g>
</svg>