<?xml version="1.0" encoding="UTF-8"?>
<svg id="Calque_2" xmlns="http://www.w3.org/2000/svg" viewBox="0 0 956.39 305.95">
  <g id="Ata_Mg">
    <g>
      <path d="M749.72,0c.03.93.08,1.86.09,2.79,0,72.12,0,144.24,0,216.36,0,.31.01.62,0,.93-.08,2.12-.31,2.38-2.5,2.38-10.73,0-21.46,0-32.19-.02-2.08,0-2.22-.17-2.28-2.27-.03-.93,0-1.86,0-2.8,0-38.7,0-77.4,0-116.1,0-1.86.05-3.73.04-5.59,0-.65-.13-1.29-.2-1.94-.18-.03-.36-.06-.55-.08-.85,2.11-1.74,4.21-2.55,6.34-1.74,4.56-3.44,9.14-5.14,13.72-1.48,3.98-2.92,7.98-4.44,11.95-1.27,3.33-2.65,6.61-3.93,9.93-2.15,5.57-4.27,11.15-6.4,16.72-2.18,5.72-4.36,11.44-6.54,17.17-2.12,5.58-4.23,11.16-6.35,16.74-.99,2.61-2.11,5.18-2.97,7.83-.56,1.71-1.51,2.21-3.25,2.19-8.71-.08-17.42-.04-26.12-.04-1.71,0-3.43-.1-5.13.03-1.6.13-2.48-.57-3.02-1.96-1.25-3.17-2.51-6.34-3.79-9.5-2.55-6.32-5.13-12.64-7.68-18.96-2.52-6.25-5.03-12.52-7.55-18.77-2.49-6.18-5-12.36-7.5-18.54-2.58-6.4-5.15-12.8-7.72-19.2-2.34-5.83-4.67-11.66-7.02-17.48-.1-.25-.39-.42-.92-.99-.19.99-.39,1.61-.41,2.23-.04,1.55,0,3.11,0,4.66,0,40.41,0,80.82,0,121.23q0,3.51-3.43,3.5c-10.19,0-20.37-.01-30.56-.02-.85,0-1.69,0-2.78,0-.11-1.06-.28-1.94-.29-2.83-.03-4.27,0-8.55,0-12.82,0-67.77,0-135.53,0-203.3,0-1.16-.06-2.33-.09-3.49,11.97,0,23.95,0,35.92,0,.66,1.73,1.29,3.48,1.99,5.2,2.57,6.32,5.16,12.62,7.74,18.94,2.49,6.1,4.97,12.2,7.46,18.3,2.55,6.24,5.1,12.48,7.66,18.72,2.55,6.24,5.11,12.48,7.66,18.72,2.52,6.17,5.02,12.35,7.54,18.52,2.52,6.17,5.04,12.34,7.56,18.51,2.55,6.24,5.09,12.49,7.63,18.73,1.99,4.88,3.95,9.77,5.97,14.64.2.48.73.84,1.13,1.28.39-.35.63-.47.71-.66,1.26-3.17,2.49-6.35,3.73-9.52,2.17-5.56,4.34-11.12,6.52-16.68,2.51-6.42,5.03-12.84,7.55-19.27,2.15-5.48,4.31-10.96,6.46-16.45,2.12-5.41,4.25-10.82,6.36-16.24,2.51-6.42,5-12.86,7.53-19.28,2.51-6.4,5.06-12.79,7.58-19.2,2.18-5.55,4.33-11.12,6.51-16.67,2.07-5.27,4.17-10.52,6.22-15.79.22-.56.18-1.21.27-1.82,11.82,0,23.64,0,35.46,0Z"/>
      <path d="M114.3,0c1.47,4.25,2.94,8.5,4.4,12.75,1.76,5.13,3.51,10.27,5.26,15.4,1.8,5.28,3.61,10.56,5.41,15.84,1.72,5.06,3.42,10.13,5.14,15.2,1.72,5.07,3.44,10.13,5.17,15.19,1.77,5.21,3.55,10.42,5.33,15.63,1.78,5.21,3.57,10.41,5.34,15.61,1.72,5.06,3.43,10.13,5.14,15.2,1.72,5.07,3.44,10.13,5.16,15.19,1.79,5.28,3.58,10.57,5.38,15.85,1.72,5.06,3.46,10.12,5.19,15.18,1.75,5.13,3.5,10.27,5.25,15.41,1.75,5.14,3.5,10.27,5.24,15.41,1.77,5.21,3.54,10.42,5.31,15.63.57,1.69,1.18,3.36,1.73,5.06.36,1.09.64,2.19,1.01,3.46-.73.2-1.22.44-1.71.44-11.12.02-22.23.02-33.35,0-1.75,0-2.09-.35-2.67-2.01-2.63-7.54-5.29-15.06-7.9-22.6-2.51-7.25-4.98-14.51-7.48-21.77-2.35-6.81-4.73-13.62-7.12-20.42-.67-1.9-1.14-2.19-3.29-2.2-20.99,0-41.97,0-62.96,0-2.24,0-2.67.37-3.35,2.42-2.22,6.69-4.48,13.37-6.71,20.06-1.74,5.22-3.42,10.46-5.17,15.68-1.75,5.22-3.55,10.42-5.31,15.63-1.33,3.97-2.63,7.95-3.94,11.92-.12.37-.21.75-.35,1.11-.8,2.06-.98,2.18-3.25,2.18-11.74-.01-23.47-.03-35.21-.04v-1.4c.97-.25,1.24-1.01,1.51-1.87.88-2.81,1.81-5.6,2.75-8.39,1.76-5.21,3.58-10.4,5.33-15.62,2.12-6.31,4.17-12.65,6.29-18.96,2.13-6.31,4.34-12.59,6.46-18.91,2.52-7.49,4.95-15.01,7.47-22.5,2.91-8.67,5.91-17.3,8.82-25.97,2.91-8.67,5.74-17.36,8.66-26.03,2.91-8.66,5.91-17.3,8.83-25.96,2.91-8.66,5.74-17.35,8.65-26.02,2.91-8.66,5.89-17.3,8.83-25.96C74.14,3.24,74.61,1.62,75.11,0c13.06,0,26.13,0,39.19,0ZM94.58,53.41c-.28.29-.51.43-.58.63-1.3,3.89-2.57,7.79-3.87,11.68-1.35,4.04-2.73,8.06-4.09,12.1-1.34,3.96-2.67,7.92-4,11.89-1.38,4.11-2.75,8.22-4.14,12.33-1.71,5.06-3.46,10.11-5.13,15.19-.72,2.21-.37,2.64,1.93,2.64,13.75.01,27.49.01,41.24,0,.59,0,1.17-.14,1.8-.22,0-.57.1-.98-.01-1.31-7.46-21.5-14.93-43-22.42-64.49-.06-.16-.37-.23-.72-.44Z"/>
      <path d="M422.68,0c1.12,3.05,2.28,6.09,3.35,9.16,1.78,5.13,3.49,10.27,5.23,15.41,1.79,5.29,3.58,10.57,5.38,15.86,1.76,5.13,3.54,10.26,5.3,15.39,1.7,4.99,3.38,9.98,5.08,14.97,1.77,5.21,3.54,10.42,5.31,15.63,1.75,5.14,3.49,10.28,5.23,15.42,1.72,5.06,3.43,10.13,5.16,15.19.95,2.79,1.94,5.56,2.89,8.35,1.42,4.16,2.82,8.33,4.23,12.5,1.74,5.14,3.47,10.28,5.22,15.42,1.72,5.07,3.44,10.13,5.17,15.19,1.75,5.13,3.52,10.26,5.27,15.39,1.78,5.21,3.54,10.42,5.31,15.63,1.74,5.14,3.48,10.28,5.23,15.42.57,1.69,1.17,3.37,1.73,5.06.21.64.34,1.3.57,2.19-.82.12-1.39.27-1.97.28-10.96,0-21.92-.04-32.88.03-1.6,0-2.38-.51-2.87-2.01-1.34-4.05-2.82-8.05-4.22-12.07-1.77-5.05-3.52-10.1-5.27-15.15-1.76-5.05-3.5-10.11-5.26-15.16-1.73-4.98-3.47-9.96-5.21-14.93-.92-2.63-1.95-5.24-2.77-7.9-.43-1.38-1.23-1.88-2.55-1.82-.39.02-.78,0-1.17,0-20.6,0-41.2,0-61.8,0-.54,0-1.09.01-1.63.03-.97.02-1.56.48-1.87,1.43-1.13,3.46-2.31,6.91-3.48,10.37-1.75,5.22-3.5,10.44-5.26,15.65-1.73,5.14-3.45,10.29-5.18,15.44-1.8,5.36-3.6,10.73-5.41,16.09-.87,2.57-1.88,5.1-2.57,7.72-.61,2.32-1.34,2.3-3.34,2.29-9.41-.01-18.81,0-28.22-.01-1.92,0-3.84,0-6.09,0,.16-1.11.15-1.87.38-2.55,2.9-8.59,5.86-17.17,8.76-25.77,2.52-7.5,4.95-15.02,7.47-22.52,2.52-7.5,5.12-14.96,7.65-22.46,2.13-6.32,4.17-12.66,6.29-18.98,1.75-5.22,3.59-10.4,5.34-15.62,2.12-6.32,4.18-12.66,6.3-18.98,1.75-5.22,3.57-10.41,5.32-15.63,2.12-6.32,4.2-12.66,6.32-18.98,1.73-5.15,3.5-10.28,5.23-15.42,1.76-5.22,3.48-10.45,5.24-15.66,1.76-5.22,3.54-10.42,5.3-15.64,1.29-3.82,2.57-7.64,3.88-11.46.33-.95.76-1.86,1.14-2.79,12.91,0,25.81,0,38.72,0ZM380.96,119.48c2.08.59,43.38.53,45.15-.08.03-.26.18-.6.1-.86-7.41-21.62-14.83-43.23-22.26-64.84-.09-.27-.33-.48-.52-.76-.27.2-.55.29-.61.46-7.32,21.73-14.63,43.47-21.93,65.21-.09.26.05.59.07.86Z"/>
      <path d="M326.57,0c.03,10.02.05,20.03.08,30.05,0,.54,0,1.09,0,1.63-.01,1.12-.54,1.74-1.7,1.75-.54,0-1.09.02-1.63.02-17.33,0-34.67,0-52,0-3.26,0-3.32.06-3.32,3.44,0,18.72,0,37.45,0,56.17,0,41.95,0,83.91,0,125.86,0,.39,0,.78,0,1.17-.08,2.15-.29,2.4-2.47,2.4-10.73,0-21.45-.01-32.18-.03-.53,0-1.05-.11-1.8-.18-.06-.97-.15-1.88-.15-2.78,0-60.83,0-121.67,0-182.5q0-3.55-3.56-3.55c-17.26,0-34.51,0-51.77,0-.47,0-.93,0-1.4,0-2.46-.04-2.63-.2-2.63-2.69,0-9.25,0-18.49,0-27.74,0-1.01.07-2.01.11-3.02,51.47,0,102.95,0,154.42,0Z"/>
      <path d="M956.39,83.47c-.58,1.33-1.11,2.69-1.74,4-5.42,11.13-22.09,13.02-29.93,2.2-6.37-8.8-3.57-22.31,7.67-26.82,8.34-3.34,18.64-.09,22.85,9.21.44.98.77,2,1.14,3.01v8.39ZM954.53,79.62c.21-8.1-6.29-15.54-15.05-15.84-8.47-.29-15.63,6.52-15.89,15.22-.25,8.31,6.68,15.49,15.17,15.73,8.37.23,15.51-6.6,15.77-15.11Z"/>
      <path d="M788.92,280.7c7.16-7.55,14.14-14.91,21.29-22.45.79.61,1.46,1.08,2.07,1.63,3.25,2.88,6.43,5.85,9.75,8.66,4.2,3.56,9.13,5.57,14.57,6.24,8.54,1.05,16.78.03,24.35-4.3,6.14-3.51,10.06-8.81,12.03-15.64.94-3.26,1.23-6.56,1.26-9.9.07-6.84.04-13.68.03-20.51,0-.74-.14-1.47-.24-2.5-1.3.41-2.33.67-3.3,1.05-12.48,4.85-25.4,5.7-38.54,4.08-6.26-.77-12.28-2.5-18.13-4.97-9.88-4.17-18.19-10.3-24.67-18.85-3.25-4.29-5.74-8.99-7.68-14.03-2.92-7.59-3.86-15.49-3.9-23.53-.06-12.82-.04-25.64,0-38.46.02-7.18.71-14.29,2.97-21.15,2.65-8.06,6.82-15.27,12.67-21.47,5.74-6.07,12.48-10.7,20.13-13.98,6.45-2.76,13.16-4.52,20.16-5.38,7.4-.91,14.76-.81,22.07.33,8.64,1.34,16.9,3.98,24.45,8.56,1.79,1.09,3.58,2.19,5.24,3.46,1.22.94,2.3,1.05,3.63.34,6.16-3.28,12.33-6.53,18.5-9.78.26-.14.57-.18,1.07-.32.17.54.43,1.01.45,1.49.06,1.24.01,2.49.01,3.73,0,56.26,0,112.51,0,168.77,0,5.76-.14,11.5-1.41,17.15-1.14,5.09-2.82,9.98-5.24,14.62-5.21,10-12.82,17.66-22.56,23.22-6.65,3.8-13.8,6.27-21.34,7.73-8.33,1.61-16.7,1.79-25.07.88-6.89-.75-13.53-2.56-19.94-5.33-8.42-3.63-15.71-8.72-21.77-15.59-1.01-1.15-1.87-2.42-2.93-3.79ZM874.26,146.38h0c0-6.53.03-13.06-.01-19.58-.02-3.89-.25-7.75-1.37-11.53-1.91-6.47-5.55-11.55-11.46-14.93-4.41-2.52-9.22-3.62-14.22-4.03-6.76-.56-13.37.1-19.6,2.96-6.63,3.06-10.96,8.18-13.22,15.14-1.27,3.91-1.61,7.92-1.63,11.96-.05,13.44-.04,26.89,0,40.33.01,4.36.36,8.7,1.75,12.88,1.57,4.75,4.08,8.86,8.17,11.88,3.57,2.64,7.6,4.08,11.96,4.85,8.27,1.45,16.28.7,23.94-2.74,6.11-2.75,10.52-7.28,13.2-13.49,1.93-4.45,2.46-9.12,2.47-13.88.02-6.61,0-13.21,0-19.82Z"/>
      <path d="M934.54,90.6c-2.43.51-2.72.34-2.73-1.71-.02-6.37-.02-12.74,0-19.12,0-2.03.29-2.34,2.25-2.35,2.25-.02,4.51.03,6.76.05,3.36.02,5.52,2.18,5.9,5.41.24,2.07.04,4.03-1.35,5.72-.24.29-.36.67-.64,1.2,2.79,2.64,2.39,6.13,2.37,9.53,0,1.31-.49,1.72-1.65,1.7-1.2-.02-1.34-.8-1.33-1.75.01-1.32.04-2.64-.02-3.96-.13-2.61-1.02-3.61-3.65-3.97-1.3-.18-2.64-.19-3.95-.16-1.48.04-1.78.33-1.82,1.81-.06,1.94,0,3.88-.02,5.83,0,.6-.08,1.2-.12,1.76ZM934.66,74.03c0,.85-.03,1.7,0,2.55.07,1.46.3,1.75,1.8,1.8,1.39.05,2.79.03,4.17-.14,2.1-.25,3.23-1.76,3.24-4.09,0-2.39-1.07-3.73-3.31-3.97-1.07-.12-2.16-.08-3.24-.08-2.6,0-2.63.04-2.65,2.54,0,.46,0,.93,0,1.39Z"/>
    </g>
  </g>
</svg>