<?xml version="1.0" encoding="UTF-8"?>
<svg xmlns="http://www.w3.org/2000/svg" viewBox="0 0 977.95 979.65">
  <defs>
    <style>
      .cls-1 {
        stroke: #000;
        stroke-miterlimit: 10;
      }

      .cls-2 {
        fill: #e6e6e6;
      }

      .cls-2, .cls-3 {
        stroke-width: 0px;
      }
    </style>
  </defs>
  <g id="Cercle">
    <path class="cls-3" d="m970,490.85c-.07,50.32-7.77,100.64-23.43,148.49-15.1,46.14-37.2,89.86-65.42,129.37-27.94,39.12-61.74,73.93-99.93,103.12-38.54,29.45-81.72,53.03-127.34,69.52-46.93,16.97-96.45,26.56-146.32,28.34-50.63,1.8-101.56-4.17-150.28-18.11-46.78-13.39-91.48-33.91-132.15-60.62-40.22-26.42-76.42-59.03-107.1-96.09-30.86-37.28-56.02-79.3-74.4-124.07s-30.52-95.25-34.28-144.92.24-101.88,12.3-151.27c11.52-47.18,30.35-92.6,55.61-134.07,25.03-41.09,56.17-78.33,92.18-110.24,36.15-32.03,77.12-58.52,121.14-78.41,45.15-20.39,93.53-33.57,142.74-39.19,50.64-5.79,102.31-3.43,152.24,6.76,48.08,9.82,94.61,27.24,137.45,51.15,42.1,23.5,80.56,53.39,113.86,88.25,33.36,34.91,61.38,74.79,82.94,118,22.02,44.15,37.07,91.65,44.61,140.4,3.77,24.35,5.55,48.96,5.59,73.59,0,6.54,7.96,3.11,7.95-2.05-.07-51.36-7.98-102.68-23.9-151.53-15.29-46.92-37.65-91.46-66.28-131.66-28.45-39.95-62.78-75.63-101.76-105.42-39.09-29.87-82.65-53.88-128.88-70.74S558.53,2.13,507.56.31c-51.52-1.84-103.38,4.38-152.93,18.64-47.51,13.67-92.94,34.64-134.16,61.94-40.76,27-77.35,60.01-108.48,97.71-31.45,38.1-57.11,81.04-75.76,126.78S5.36,402.4,1.45,453.08c-3.96,51.44.19,103.57,12.35,153.71,11.74,48.42,31.01,95.04,56.87,137.63,25.35,41.74,56.97,79.7,93.48,112.13,36.79,32.68,78.56,59.84,123.41,80.1,45.78,20.68,94.82,34.13,144.73,39.84,51.56,5.89,104.11,3.56,154.95-6.9s96.35-27.83,139.93-52.3c42.64-23.95,81.71-54.36,115.4-89.81,33.95-35.73,62.48-76.44,84.42-120.58,22.3-44.87,37.62-93.25,45.21-142.78,3.82-24.92,5.71-50.11,5.75-75.32,0-6.54-7.94-3.11-7.95,2.05Z"/>
  </g>
  <g id="Carbone_neutre" data-name="Carbone neutre">
    <path class="cls-2" d="m896.37,554.16c1.15,57.65-46.12,104.66-103.78,104.66H230.2c-38.01,0-69.39-30.9-68.62-68.9.74-36.65,30.67-66.13,67.5-66.13,11.35,0,22.06,2.8,31.45,7.75,1.3.69,2.85-.25,2.85-1.72,0-.01,0-.02,0-.03,0-71.27,57.77-129.04,129.03-129.04,14.25,0,27.97,2.31,40.78,6.59.91.3,1.9-.1,2.33-.95,28.73-56.12,87.14-94.52,154.51-94.52,86.03,0,157.44,62.62,171.11,144.78.19,1.17,1.36,1.88,2.49,1.54,9.54-2.93,19.67-4.51,30.17-4.51,55.96,0,101.46,44.81,102.56,100.5Z"/>
    <path class="cls-3" d="m851.41,526.85c-.34,51.02-39.61,95.17-91,98.96-10.06.74-20.3.25-30.37.25h-270.8c-35.65,0-71.29,0-106.94,0h-148.64c-4.27,0-8.53,0-12.8,0-14.08-.02-27.66-3.82-38.97-12.45-20.03-15.28-29.31-41.33-23.68-65.88s25.36-43.67,49.65-48.14c14.84-2.73,29.77.09,42.81,7.6,2.19,1.26,7.81.88,7.74-2.68-.61-30.58,9.37-60.56,29.02-84.12s45.16-38.14,74.04-43.09c20.72-3.55,41.83-1.71,61.72,5.06,2.18.74,5.24-.01,6.33-2.16,26.16-51.81,77.72-87.66,135.67-92.94,54.91-4.99,109.93,18.25,144.8,60.92,19.36,23.68,31.89,52.1,36.64,82.29.47,2.98,5.01,3.46,7.16,2.77,47.71-15.35,100.38,8.68,119.8,54.99,5.14,12.25,7.74,25.34,7.83,38.61.03,5.01,10.01,5.68,9.97.73-.35-52.11-38.76-96.71-90.12-105.25-17.41-2.89-35.27-1.31-52.04,4.09l7.16,2.77c-8.88-56.47-45.55-106.17-96.8-131.52-54.3-26.85-120.39-24.24-172.3,7.04-28.78,17.34-52.12,42.82-67.25,72.79l6.33-2.16c-34.29-11.68-72.3-9.25-104.7,6.93-28,13.98-50.68,38.08-62.88,66.92-7.29,17.24-10.72,35.9-10.35,54.59,2.58-.89,5.16-1.79,7.74-2.68-24.51-14.12-55.99-13.34-79.25,3.03-20.71,14.58-32.42,39.42-30,64.68,2.4,25.03,18.44,47.45,41.31,57.92,10.5,4.81,21.66,6.8,33.14,6.8,14.25,0,28.49,0,42.74,0,27.7,0,55.4,0,83.1,0,35.4,0,70.81,0,106.21,0,37.71,0,75.43,0,113.14,0h181.48c11.65,0,23.31.05,34.96,0,44.5-.17,85.87-26.85,101.65-69.04,4.42-11.81,6.64-24.32,6.72-36.92.03-5.01-9.94-5.69-9.97-.73Z"/>
    <g>
      <path class="cls-3" d="m419.93,566.03c-4.46-3.16-7.62-6.75-9.48-10.77-1.72-3.73-3.48-15.59-5.28-35.56-1.8-19.97-2.69-34.84-2.69-44.61v-11.42c-.15-3.3-.22-6.97-.22-10.99,0-7.47.43-14.87,1.29-22.2.57-3.59,1.33-6.68,2.26-9.27.93-2.59,2.26-5.1,3.99-7.54,3.16-4.88,7.9-8.11,14.22-9.7,3.3-.86,6.97-1.29,10.99-1.29,2.73,0,5.5.79,8.3,2.37,2.8,1.58,4.2,3.45,4.2,5.6,0,1.58-1.15,2.37-3.45,2.37-.86,0-2.52-.5-4.96-1.51-2.15-1-4.09-1.51-5.82-1.51-4.02,0-7.65.83-10.88,2.48-3.23,1.65-5.78,3.85-7.65,6.57-1.58,2.3-2.95,5.46-4.09,9.48-1.15,4.02-1.87,8.05-2.15,12.07-.43,3.59-.65,7.9-.65,12.93l.22,12.07c.14,3.45.22,7.19.22,11.21,0,9.91,1,24.5,3.02,43.75,2.01,19.25,3.95,30.38,5.82,33.4,1.72,2.73,4.27,4.81,7.65,6.25,3.37,1.44,6.93,2.16,10.67,2.16,6.61,0,11.64-2.08,15.08-6.25,1.29-1.72,2.66-2.59,4.09-2.59,1.29,0,1.94,1.01,1.94,3.02,0,2.59-.79,4.85-2.37,6.79-1.58,1.94-3.74,3.41-6.46,4.42-4.6,2.01-9.63,3.02-15.08,3.02-4.02,0-8.26-1.58-12.71-4.74Z"/>
      <path class="cls-3" d="m473.37,468.2v-8.62c0-12.07.72-22.55,2.16-31.46.86-5.6,2.05-10.2,3.56-13.79,1.51-3.59,3.56-6.46,6.14-8.62,2.44-2.44,5.6-3.66,9.48-3.66,3.45,0,6.61.68,9.48,2.05,2.87,1.37,5.24,3.12,7.11,5.28,1.58,2.01,3.02,4.67,4.31,7.97,1.29,3.31,2.3,6.46,3.02,9.48l1.72,10.13c3.45,24.57,5.17,46.33,5.17,65.29v.65c0,7.19-.14,13.79-.43,19.83-.29,7.19-1.08,14.73-2.37,22.63-.58,3.88-1.4,7.26-2.48,10.13-1.08,2.88-2.48,5.75-4.2,8.62-3.02,5.17-7.26,7.76-12.71,7.76-19.97,0-29.95-34.55-29.95-103.65Zm36.63,93.63c1.87-2.66,3.3-6.36,4.31-11.1,2.3-10.05,3.73-19.9,4.31-29.52.29-7.76.43-15.3.43-22.63v-.86l-.22-21.55c-.29-7.76-1.15-17.81-2.59-30.17-1.15-8.76-3.52-17.74-7.11-26.94-1.44-3.59-3.34-6.39-5.71-8.4-2.37-2.01-4.92-3.02-7.65-3.02-2.44,0-4.6,1.15-6.46,3.45-1.87,2.3-3.38,5.53-4.53,9.7-2.59,9.63-4.02,18.53-4.31,26.72-.43,7.04-.65,14.3-.65,21.76v10.56c0,9.63.93,21.84,2.8,36.63,1.15,9.34,2.59,17.46,4.31,24.35,1.72,6.9,4.02,12.71,6.9,17.46,2.87,5.03,6.17,7.54,9.91,7.54,2.3,0,4.38-1.33,6.25-3.99Z"/>
      <path class="cls-1" d="m547.47,567.63c-.56-.44-.84-1.02-.84-1.74l6.38-14.67c4.73-10.26,8.22-19.95,10.46-29.05,2.24-9.1,3.37-18.5,3.37-28.21,0-11.55-2.49-17.32-7.46-17.32-1.04.48-1.91,1.3-2.59,2.47-.68,1.16-1.1,2.39-1.26,3.67-.32,2.89-1,4.33-2.04,4.33-.8,0-1.32-.4-1.56-1.2v-1.2c0-3.29.92-6.13,2.77-8.54.96-1.28,2.12-1.92,3.49-1.92,3.29,0,5.99,1.24,8.12,3.73,2.12,2.49,3.23,5.53,3.31,9.14l-.12.24c0,1.6.04,3.09.12,4.45.08,1.28.12,2.73.12,4.33,0,6.66-.9,14.7-2.71,24.12-1.8,9.42-3.95,16.9-6.43,22.43l-3.49,7.82-2.65,6.01c-1.37,3.13-2.29,5.33-2.77,6.62-.24.56-.36,1-.36,1.32,0,.4.24.6.72.6,4.33-.8,9.14-1.24,14.43-1.32,1.12,0,1.68.64,1.68,1.92,0,1.04-.36,1.56-1.08,1.56l-8.54.48c-4.41.4-7.42.6-9.02.6-.8,0-1.48-.22-2.04-.66Z"/>
    </g>
  </g>
</svg>