<?xml version="1.0" encoding="UTF-8"?>
<svg id="Calque_2" xmlns="http://www.w3.org/2000/svg" viewBox="0 0 876.57 607.3">
  <defs>
    <style>
      .cls-1 {
        fill: #008349;
      }
    </style>
  </defs>
  <g id="Cosmetique_bio">
    <g>
      <path class="cls-1" d="M659.52,57.25c-2.3-.42-4.67-.59-6.88-1.29-35.53-11.22-71.65-19.9-108.46-25.87-47.06-7.63-94.32-10.06-141.9-6.95-64.01,4.19-125.42,18.77-183.57,46.09-61.58,28.93-112.25,70.97-149.97,127.75-25.38,38.22-37.31,80.53-33.51,126.6,3,36.42,15.6,69.76,34.35,100.88,11.88,19.73,25.78,37.94,41.96,54.41,3.73,3.8,6.66,8.37,9.96,12.59-.4.45-.8.91-1.2,1.36-1.84-.87-3.88-1.47-5.48-2.66-48.94-36.64-86.88-81.74-104.83-141.1-21.76-71.93-7.4-137.55,38.04-196.66,33.71-43.86,77.57-75.08,126.85-99.15,47.73-23.32,98.15-37.91,150.56-46.1C363.54,1.19,401.88-.89,440.38.34c76.29,2.45,148.82,20.31,217.33,54.13.79.39,1.45,1.02,2.18,1.53-.12.42-.25.83-.37,1.25Z"/>
      <path class="cls-1" d="M756.51,114.24c1.83.97,3.83,1.72,5.46,2.95,43.54,32.63,78.68,72.21,98.45,123.51,29.68,77.02,18.1,148.56-31.75,213.85-33.82,44.3-78.12,75.64-127.81,99.78-51.02,24.79-104.97,39.77-161.11,47.3-40.19,5.39-80.51,7.09-120.96,4.44-70.06-4.57-136.7-22.12-199.7-53.24-.84-.42-1.61-.98-2.06-2.85,2.97.63,6.01,1.02,8.89,1.92,35.59,11.06,71.71,19.78,108.55,25.53,44.14,6.88,88.45,9.62,133.12,7.09,63.03-3.57,123.66-17.04,181.51-42.51,61.53-27.09,112.41-67.58,152.03-121.84,22.11-30.29,36.23-64.1,39.92-101.66,3.65-37.13-3.5-72.57-18.78-106.44-13.92-30.87-32.82-58.36-56.33-82.75-4.01-4.16-7.35-8.96-11-13.46l1.57-1.61Z"/>
      <path class="cls-1" d="M354.76,303.03c4.81,2.85,9.46,5.33,13.83,8.22,27.59,18.25,21.01,64.1-4.79,76.34-14.85,7.04-30.47,10.83-46.55,11.03-21.14.26-42.31-1.3-63.46-2.16-3.48-.14-6.16-.75-6.14-5.69.18-54.36.12-108.72.13-163.09,0-.96.12-1.92.24-3.72,8.19-.77,16.31-2.01,24.44-2.19,16.29-.35,32.61-.65,48.88.03,16.55.7,32.09,5.34,45.09,16.27,19.41,16.32,19.36,40.57-.13,56.74-3.58,2.97-7.58,5.41-11.55,8.21ZM293.38,321.42c0,15.63-.09,31.04.19,46.45.02,1.13,2.66,3.08,4.17,3.17,6.24.36,12.53.39,18.79.09,12.04-.58,21.11-9.21,22.83-21.35,1.72-12.18-4.07-22.41-15.43-26.58-9.78-3.59-19.84-3.78-30.55-1.78ZM293.8,271.81c.1,0,.2,0,.3,0,0,5.67.13,11.35-.05,17.01-.11,3.32,1.24,4.55,4.46,4.5,5.67-.08,11.36.31,17.02.03,11.2-.55,19.23-9.16,20.26-21.3.83-9.71-5.53-18.55-16.22-20.5-7.19-1.31-14.74-.95-22.11-.76-1.26.03-3.35,2.91-3.49,4.6-.45,5.44-.17,10.94-.17,16.41Z"/>
      <path class="cls-1" d="M490.76,313.05c.23-17.3,3.28-33.96,11.63-49.29,18.17-33.38,51.97-44.56,83.88-41.67,49.97,4.52,73.69,43.77,75.63,85.05.83,17.67-.95,34.95-8.83,51.01-14.84,30.28-40.24,44.83-73.1,46.25-35.21,1.51-67.82-14.24-81.81-51.19-4.78-12.62-6.22-26.5-9.19-39.8.59-.12,1.18-.24,1.77-.36ZM539.31,311.38c1.18,10.1,1.96,20.26,3.7,30.26.89,5.09,3,10.15,5.44,14.76,6.26,11.8,15.89,18.92,29.76,18.22,13.34-.67,22.23-8.39,27.43-20.06,8.65-19.42,8.76-40.13,6.37-60.63-1.17-10.06-4.53-20.28-8.92-29.46-5.33-11.15-15.53-16-28.16-15.39-14.65.71-23.15,9.3-28.5,21.88-5.48,12.88-6.3,26.57-7.13,40.4Z"/>
      <path class="cls-1" d="M415.18,398.95v-176.78h45.54c.13,1.75.37,3.45.37,5.16.01,54.51,0,109.01-.01,163.52,0,8.13-.03,8.11-7.89,8.11-12.51-.01-25.01,0-38.01,0Z"/>
      <path class="cls-1" d="M370.61,122.72c-2.28-10.75-4.5-21.2-6.72-31.65-.44-.03-.88-.06-1.32-.09-.76,7.36-1.93,14.71-2.13,22.09-.12,4.25-1.56,6.04-5.56,6.36-2.14.17-4.32,1.04-6.38.77-1.87-.25-4.42-1.12-5.25-2.55-3.59-6.17-6.66-12.65-9.92-19.01-.48.14-.97.28-1.45.42,1.41,10.48,2.83,20.97,4.31,31.96-4.05.56-7.63,1.05-11.65,1.61-3.09-18.96-6.13-37.61-9.24-56.75,4.98-.92,9.33-2.18,13.73-2.34,1.9-.07,4.64,1.63,5.72,3.33,5.12,8.06,9.79,16.39,15.97,24.5.94-5.79,1.99-11.57,2.8-17.38q2.11-15.15,17.14-17.52c.36-.06.75.1,1.9.27,2.08,9.58,4.26,19.43,6.36,29.28,1.43,6.69,2.46,13.49,4.23,20.09,1.12,4.17.13,5.92-4.12,6.05-2.7.08-5.39.36-8.39.57Z"/>
      <path class="cls-1" d="M593.57,148.44c2.19,6.71,4.16,12.77,6.58,20.17-5.45-1.12-9.64-1.71-13.63-2.96-1.17-.37-2.34-2.52-2.52-3.97-1.14-8.94-4.91-15.67-12.42-21.41-9.66-7.37-11.29-20.22-6.04-32.07,6.05-13.66,15.39-19.77,28.67-18.77,12.3.93,21.57,8.47,24.64,20.02,4.1,15.44-5.85,33.05-21.21,37.58-1.28.38-2.53.87-4.05,1.4ZM607.01,112.39c-1.38-5.72-2.69-10.27-8.06-12.42-5.24-2.1-10.43-.84-13.09,3.58-3.84,6.39-6.95,13.44-9.02,20.59-1.54,5.33.79,10.54,6.34,13.19,4.77,2.27,12.01.48,15.02-4.8,3.61-6.33,5.93-13.4,8.81-20.15Z"/>
      <path class="cls-1" d="M566.17,481.99q14.42-5.85,23.54,4.53c3.35,3.8,6.74,7.56,11.2,12.56,0-8.1.12-14.78-.03-21.45-.21-9.6,1.78-12.16,11.35-13.25,1.24-.14,3.39,1.07,3.91,2.21,6.44,14.03,12.66,28.17,19.27,43.05-3.7,1.25-6.88,2.77-10.2,3.21-1.28.17-3.53-1.85-4.22-3.37-3.4-7.45-6.42-15.07-10.9-22.49.57,6.57,1.07,13.14,1.73,19.7.25,2.53,1.36,5.51-2.44,5.95-4.13.48-8.18,6.2-12.55.3-3.71-5.01-7.6-9.88-12.66-14.18,3.06,9.13,6.13,18.26,9.31,27.74-3.4,1.13-6.32,2.1-10.03,3.33-5.79-16.04-11.5-31.89-17.26-47.86Z"/>
      <path class="cls-1" d="M683.32,134.13c4.11,2.77,7.81,5.26,12.21,8.22-10.44,15.88-20.7,31.49-31.87,48.49-4.15-4.31-7.63-8.05-11.27-11.61-.73-.71-2.09-.82-3.19-1.12-2.63-.72-5.41-1.08-7.9-2.13-14.04-5.89-17.11-17.01-8.67-28.59,7.27-9.97,13.63-20.6,20.41-30.92.19-.28.63-.4,1.36-.85,3.56,2.33,7.27,4.76,11.35,7.43-5.87,8.86-11.55,17.29-17.04,25.84-1.68,2.61-3.29,5.41-4.15,8.36-1.47,5.05,1.22,9.68,6.27,11.82,4.74,2.01,8.21.56,11.05-3.65,6.98-10.38,14.13-20.64,21.45-31.28Z"/>
      <path class="cls-1" d="M219.92,176.5c-15.5-.09-29.19-14.92-29.22-31.65-.03-14.78,12.06-26.83,26.93-26.84,15.52-.01,30.03,15.37,30.02,31.83-.01,14.94-12.3,26.76-27.72,26.67ZM235.18,156.9c-1.99-12.79-6.79-21.84-16.42-27.22-2.84-1.59-8.15-1.52-10.83.17-2.67,1.68-5.04,6.48-4.78,9.69.86,10.39,5.88,19.21,14.89,24.64,2.9,1.75,8.16,1.71,11.34.28,2.89-1.3,4.41-5.62,5.8-7.56Z"/>
      <path class="cls-1" d="M137.02,381.72c2.72,4.22,5.02,7.85,7.38,11.44.63.95,1.43,1.79,2.37,2.94,5.4-3.02,10.65-5.95,16.23-9.07,2.37,3.67,4.46,6.93,7.07,10.98-14.65,9.04-29.03,17.93-43.87,27.09-2.42-3.95-4.61-7.54-7-11.43,5.94-3.83,11.48-7.39,17.5-11.27-3.21-5.15-6.17-9.88-9.4-15.08-6.45,3.96-12.38,7.6-18.71,11.49-2.29-3.84-4.36-7.33-6.88-11.56,14.48-8.89,28.73-17.65,43.48-26.71,2.39,3.9,4.58,7.48,7.09,11.59-5.1,3.2-9.84,6.17-15.26,9.57Z"/>
      <path class="cls-1" d="M239.44,481.85c1.83,8.82,3.06,17.6-.93,26.47-1.29-.69-2.27-1.33-3.33-1.76-6.33-2.61-9.41-6.26-6.98-13.83,1.84-5.73-.7-10.68-5.18-14.06-3.11,5.4-6.19,10.76-9.54,16.59-4.08-2.21-7.8-4.23-12.03-6.53,8.16-13.99,16.06-27.67,24.18-41.22.62-1.04,3.2-2.05,4.14-1.59,6.82,3.34,13.83,6.53,20.05,10.82,6.22,4.29,7.61,10.09,5.75,15.84-2.26,6.98-7.32,9.18-14.12,8.78-.54-.03-1.09.26-2.01.5ZM235.89,455.74c-3.32,5.96-5.45,9.79-8.52,15.28,4.79.67,8.69,2.06,12.17,1.37,1.87-.37,4.72-4.96,4.13-6.55-1.22-3.35-4.42-5.98-7.79-10.1Z"/>
      <path class="cls-1" d="M674.88,425.22c6.02-5.35,11.3-10.61,17.2-15.04,2.8-2.1,6.71-3.33,10.25-3.69,7.93-.81,11.53,2.98,11.47,11,0,1.16,0,2.33,0,4.04,1.93,0,3.81-.04,5.69,0,9.38.21,15.49,9.78,11.35,18.31-4.69,9.66-13.11,15.78-22.15,22.18-11.16-12.15-22.11-24.06-33.8-36.79ZM714.55,449.66c2.41-4.47,5.13-7.82,5.84-11.56.32-1.71-2.92-5.28-5.21-6.06-4.96-1.7-8.36,1.62-11.48,5.95,3.21,3.46,6.35,6.83,10.85,11.67ZM699.33,432.71c2.14-4.11,4.56-7.16,5.12-10.52.25-1.52-3.4-5.36-4.89-5.16-3.4.44-6.56,2.73-10.67,4.67,3.91,4.13,6.54,6.9,10.44,11.01Z"/>
      <path class="cls-1" d="M453.58,522.73c.02-15.48,10.51-26.53,25.24-26.57,14.35-.04,25.14,12.1,25.14,28.29,0,15.13-11.09,26.39-25.74,26.12-14.7-.27-24.66-11.53-24.65-27.83ZM491.35,524.61c-1.6-5.09-2.48-10.85-5.13-15.63-3.94-7.11-12.61-6.71-16.64.11-4.27,7.22-3.59,22.04,1.3,28.66,4.49,6.08,13.06,5.85,16.52-.8,1.84-3.53,2.51-7.67,3.95-12.34Z"/>
      <path class="cls-1" d="M730.5,348.03c-.03-14.28,10.47-24.88,24.76-24.99,16.25-.13,29.28,11.28,29.37,25.71.09,14.31-10.41,25.23-24.4,25.39-16.35.19-29.7-11.53-29.73-26.1ZM762.7,363.11c.22-.48.45-.96.67-1.44,5.12.25,9.48-1.23,11.65-6.2,2.23-5.12-.09-9.15-3.99-12.42-6.28-5.25-13.71-7.59-21.76-7.52-4.82.04-8.84,2.28-10.42,7.2-1.46,4.54.48,8.59,4.15,10.74,6.29,3.68,13.1,6.48,19.7,9.64Z"/>
      <path class="cls-1" d="M719.77,210.52c-4.35-4.56-8.25-8.64-12.5-13.09-1.8,1.56-3.33,3-4.98,4.3-3.75,2.95-3.85,5.96-.54,9.38,3.24,3.35,6.3,6.89,9.67,10.59-2.69,2.4-4.99,4.46-7.98,7.12-6.92-7.64-14.01-14.87-20.33-22.72-2.73-3.4-.22-7.17,2.65-9.82,11.22-10.37,22.53-20.63,34.44-31.51,7.75,8.16,15.37,16.18,23.43,24.67-2.17,2.61-4.23,5.08-6.66,8-4.74-4.96-9.16-9.58-13.93-14.56-2.97,2.61-5.56,4.88-8.59,7.54,4.08,4.64,7.92,9.01,12.17,13.83-2.16,1.98-4.24,3.89-6.84,6.27Z"/>
      <path class="cls-1" d="M440.14,72.95c-6.8.39-13.18.75-19.91,1.14v10.91h17.19c2.05,9.23,1.62,9.85-6.29,9.94-3.31.03-6.62,0-10.82,0,0,2.76.11,5.02-.02,7.27-.25,4.28,1.92,6.12,5.96,6.18,2.55.04,5.1.02,7.65.03,2.3,0,4.59,0,7.21,0v10.26c-10.23,0-20.56.31-30.82-.3-1.75-.1-4.61-4.08-4.67-6.33-.41-15.82-.22-31.65-.22-48.29h33.47c.35,2.48.76,5.47,1.28,9.2Z"/>
      <path class="cls-1" d="M181.93,476.91c-2.57-2.2-4.34-4.03-6.41-5.43-3.38-2.29-4.2-5-1.96-8.43,2.77-4.25,1.79-7.47-2.28-10.26-2.09-1.43-3.63-3.72-5.79-4.95-1.53-.87-4.05-1.39-5.53-.72-8.71,3.93-8.65,4.06-16.01-4.19,3.91-2.27,7.69-4.54,11.53-6.7,10.43-5.84,20.96-11.52,31.3-17.52,3.27-1.9,5.64-1.87,8.19.98,1.69,1.89,4.06,3.23,5.54,5.24.94,1.28,1.6,3.66,1.06,5.01-6.26,15.41-12.78,30.71-19.63,46.98ZM187.38,431.91c-.35-.36-.7-.73-1.05-1.09-5.12,2.76-10.24,5.51-16.12,8.68,3.84,3.22,6.69,5.61,10.05,8.43,2.61-5.88,4.87-10.95,7.12-16.02Z"/>
      <path class="cls-1" d="M267.82,140.55c4.58-.94,9.12-1.12,12.88-2.91,2.74-1.31,4.47-4.74,6.66-7.23-2.4-1.98-4.51-4.74-7.27-5.75-3.98-1.44-8.56-1.15-12.63-2.4-12.72-3.92-15.79-17.01-6.3-26.3,5.72-5.6,12.92-7.8,20.71-8.75,4.46-.54,4.95,2.67,5.06,5.39.05,1.16-2.29,2.82-3.86,3.55-3.16,1.46-6.9,1.87-9.74,3.72-4.45,2.9-3.64,8.19,1.41,9.87,2.89.96,6.14,1.05,9.24,1.16,9.4.34,16.41,4.84,18.35,12,2.08,7.66-1.78,16.21-9.99,20.68-3.89,2.12-8.27,3.55-12.59,4.66-9.3,2.4-9.35,2.24-11.91-7.71Z"/>
      <path class="cls-1" d="M191.27,187.51c.19,0,.42-.07.56.01,8.88,5.32,9.08,6.5,2.41,14.29-17.04,19.9-41.46,17.34-52.76-5.54-6.7-13.57.76-34.03,14.79-38.55,2.51-.81,6.47,2.84,10.47,4.78-7.05,5.99-14.8,10.55-13.81,19.8.48,4.49,2.82,9.53,5.9,12.85,9.37,10.07,17.63,7.89,32.44-7.63Z"/>
      <path class="cls-1" d="M460.66,74.62c1.06-4.02,1.84-6.98,2.75-10.44,15.78,1.36,31.32,2.7,46.69,4.02,2.15,9.72,1.22,10.81-7.77,10.58-9.67-.24-9.5-1.83-10.38,8.92-.8,9.74-2.59,19.4-3.33,29.15-.58,7.56-5.73,5.04-9.79,5.25-4.65.24-5.5-2.33-5.04-6.35,1.18-10.3,2-20.65,3.22-30.94,1.08-9.17,1.09-9.32-7.93-9.68-2.5-.1-5-.3-8.42-.5Z"/>
      <path class="cls-1" d="M350.37,519.98c-5.84-1.02-11.37-1.99-16.82-2.95-4.78,9.45-3.53,12.12,6.41,14.12,2.85.58,5.71,1.15,9.12,1.84-.25,2.2.01,4.51-.88,6.2-.7,1.33-2.97,2.84-4.31,2.65-6.37-.92-12.67-2.35-18.98-3.67-7.29-1.52-8.94-4.03-7.42-11.53,2.01-9.95,4.13-19.89,6.21-29.83.68-3.23,1.36-6.46,2.26-10.78,10.41,1.88,20.66,3.72,31.5,5.67-.36,3.05-.68,5.84-1.09,9.34-4.61-.76-9.13-.95-13.24-2.32-6.13-2.04-7.76.68-7.85,5.99-.02.94-.17,1.89-.31,3.38,5.64,1.21,11.11,2.37,17.09,3.65-.57,2.8-1.1,5.38-1.68,8.22Z"/>
      <path class="cls-1" d="M632.2,454.42c9.08-5.77,17.32-10.99,25.94-16.46,1.88,2.31,3.56,4.39,5.7,7.02-5.15,3.46-9.94,6.68-15.04,10.11,1.89,2.95,3.54,5.54,5.49,8.57,4.85-2.83,9.34-5.45,14.18-8.27,1.51,2.34,2.76,4.27,4.38,6.77-4.51,2.99-8.82,5.86-13.07,8.68,3.86,9.99,5.32,10.54,13.76,5.49,2.51-1.5,5.04-2.96,8.01-4.7,1.66,2.63,3.18,5.04,5.04,7.99-7.8,4.74-15.24,9.34-22.78,13.8-3.82,2.26-6.63-.18-8.46-2.95-7.75-11.73-15.22-23.65-23.13-36.05Z"/>
      <path class="cls-1" d="M437.48,508.96c-18.86-2.28-25.7,1.38-27.21,14.57-1.35,11.76,5.47,16.92,24.53,18.56,2.59,8.77,1.74,10.03-7.11,10.03-3.12,0-6.33.05-9.36-.57-16.48-3.38-24.37-16.04-21.01-33.41,2.9-15.02,16.06-23.47,32.31-20.76,8.83,1.48,9.22,2.04,7.85,11.58Z"/>
      <path class="cls-1" d="M99.53,356.29c-2.92.84-5.87,1.69-8.73,2.52-7.06-10.77-6.36-27.19,1.33-35.83,7.99-8.97,24.6-11.69,35.83-5.86,9.61,4.99,16.42,19.28,13.2,29.56-.71,2.25-5.02,3.36-8.48,5.5-1.66-9.18-.62-18.22-8.91-22.16-4.07-1.93-9.57-2.4-14.06-1.57-11.51,2.15-14.24,10.16-10.19,27.84Z"/>
      <path class="cls-1" d="M525.95,532.33c3.69,0,7.58.71,11.01-.23,2.58-.71,4.58-3.53,6.84-5.42-1.86-2.19-3.34-5-5.68-6.4-2.58-1.54-5.96-1.69-8.95-2.6-5.21-1.59-9.1-4.75-10.31-10.23-1.26-5.7.99-10.37,5.25-14.12,6.57-5.79,14.43-6.34,23.35-5.4.46,2.63.93,5.34,1.4,8.06-4.41.26-8.19.02-11.7.89-1.86.46-4.33,2.71-4.53,4.39-.2,1.7,1.65,4.43,3.34,5.37,2.45,1.37,5.55,1.7,8.42,2.18,7.48,1.26,12.5,5.53,13.64,11.84,1.11,6.17-1.76,13.62-8.09,16.17-6.35,2.55-13.44,3.67-20.31,4.26-1.61.14-3.62-4.35-5.45-6.71.59-.69,1.18-1.38,1.77-2.07Z"/>
      <path class="cls-1" d="M282.02,481.5c-5.05-1.92-9.55-3.64-14.03-5.35,1.61-8.62,3.06-9.52,10.53-6.73,11.33,4.22,22.66,8.44,34.45,12.83-1.15,3.03-2.16,5.67-3.34,8.75-3.6-1.02-6.86-1.62-9.85-2.87-3.8-1.6-5.55-.57-6.89,3.27-3.28,9.4-6.95,18.67-10.49,27.98-.68,1.79-1.49,3.53-2.46,5.81-4.26-1.56-8.18-3-12.59-4.62,4.92-13.11,9.64-25.68,14.67-39.08Z"/>
      <path class="cls-1" d="M536.12,130.83c-14.46-1.34-14.51-1.35-11.68-14.23,3.13-14.26,6.35-28.51,9.6-43.05,5.02.82,9.41,1.54,14.6,2.39-4.19,18.39-8.32,36.51-12.51,54.89Z"/>
      <path class="cls-1" d="M765.56,82.45c-15.18-.06-26.82-11.81-26.65-26.89.16-14.6,12.05-26.03,27.02-26,15.06.03,26.87,11.96,26.68,26.95-.18,14.6-12.06,26-27.04,25.94ZM787.75,55.87c-.09-12.05-10.36-22.07-22.32-21.78-11.79.28-21.78,10.26-21.85,21.83-.07,11.85,10.17,22,22.19,22,12.15,0,22.08-9.96,21.99-22.04Z"/>
      <path class="cls-1" d="M760.01,405.92c-2.52,3.9-4.62,7.17-7.24,11.23-14.19-9.57-28.17-19-42.49-28.66,2.58-3.87,4.83-7.23,7.52-11.26,14.06,9.55,27.89,18.95,42.21,28.69Z"/>
      <path class="cls-1" d="M703.71,437.99c3.12-4.33,6.52-7.65,11.48-5.95,2.29.79,5.53,4.35,5.21,6.06"/>
      <path class="cls-1" d="M771.06,57.67c2.19,3.38,4.83,7.46,7.54,11.64q-5.36,1.38-8.63-3.92c-1.79-2.89-3.6-5.76-5.4-8.64-.66.16-1.33.33-1.99.49-.29,4.07-.58,8.14-.9,12.56-3.16.92-5.16.73-5.08-3.42.15-7.45.07-14.9.15-22.35.01-1.14.28-3.26.53-3.28,4.94-.29,10.07-1.14,14.77-.09,2.19.49,5.11,4.9,4.87,7.26-.31,3.1-3.39,5.92-5.86,9.75ZM762.09,42.77c0,2.56.1,5.07-.02,7.56-.26,5.2,3.36,5.33,5.98,3.42,1.97-1.44,3.61-5.31,3.16-7.67-.81-4.21-4.64-4.51-9.12-3.32Z"/>
    </g>
  </g>
</svg>