<?xml version="1.0" encoding="UTF-8"?>
<svg id="Calque_2" xmlns="http://www.w3.org/2000/svg" viewBox="0 0 566.89 812.62">
  <defs>
    <style>
      .cls-1 {
        fill: #7cc043;
      }

      .cls-2 {
        fill: #fbfbf8;
      }
    </style>
  </defs>
  <g id="CurQfen">
    <g>
      <path class="cls-1" d="M403.13,28.09c55.07,27.23,93.22,69.61,119.09,124.99,50.13,107.32,47.93,217.04,18.41,328.54-16.29,61.53-53.51,108.2-103.33,146.19-24.83,18.93-25.36,35.19-3.4,57.55,9.29,9.47,15.26,7.49,23.01-2.96,12.64-17.06,24.51-37.08,41.73-47.76,21.92-13.59,54.13,8.02,63.63,37.71,15.29,47.76-8.15,98.03-59.52,126.62-6.56,3.65-13.73,6.21-20.81,8.93-11.06,4.73-56.62,4.67-72.78,4.73-14.27.05-28.44-2.44-41.85-7.35-13.18-4.83-26.22-9.76-33.04-19.18-18.4-25.41-31.6-55.76-41.25-85.87-6.04-18.87-15.36-24.01-32.08-25.22-69.43-5.02-133.03-25.02-180.75-78.52-42.92-48.11-65.02-106.88-73.83-169.73-10.2-72.78-9.23-145.61,10.9-217.26C40.11,128.18,85.6,62.9,158.71,20.28c47.08-27.45,169.81-29.08,244.41,7.81ZM222.34,422.58l.81-.1.07-.77c44.17-43.42,101.38-32.89,127.38,23.81,5.45,11.88,8.75,24.72,13.48,36.95.96,2.49,3.9,4.22,5.93,6.3,1.55-1.63,3.8-2.99,4.53-4.92,3.63-9.63,8.02-19.18,10.05-29.18,14.17-69.73,16.66-139.83,2.94-209.87-7.24-36.95-17.81-74.07-53.16-94.13-56.32-31.97-133.84-15.49-155.72,72.02-16.21,64.81-16.54,131.45-8.57,197.25,3.49,28.84,18.55,56.27,28.07,84.38l1.16,2.06c2.26,2.68,4.52,5.36,6.77,8.04,10.83,7.34,21.4,15.15,32.7,21.7,2.77,1.6,9.55.42,11.5-1.94,1.73-2.1.58-8.47-1.48-11.46-10.7-15.55-22.09-30.63-33.24-45.87-.31-1.44-.63-2.87-.94-4.31l-.03-.04-2.56-8.91.06-18.88c3.42-7.37,6.84-14.74,10.25-22.11Z"/>
      <path class="cls-2" d="M212.03,461.01c.02-5.44.03-10.88.05-16.33-.02,5.44-.03,10.88-.05,16.33Z"/>
      <path class="cls-2" d="M197.67,502.91c.55,1.15,1.09,2.31,1.64,3.46-.55-1.15-1.09-2.31-1.64-3.46Z"/>
      <path class="cls-2" d="M222.34,422.58c.27-.31.57-.6.88-.87,0,0-.08.77-.08.77l-.81.1Z"/>
      <path class="cls-2" d="M214.61,472.52c-.51-.8-1.01-1.6-1.52-2.4.51.8,1.01,1.6,1.52,2.4Z"/>
    </g>
  </g>
</svg>