<?xml version="1.0" encoding="UTF-8"?>
<svg xmlns="http://www.w3.org/2000/svg" viewBox="0 0 977.95 979.65">
  <defs>
    <style>
      .cls-1 {
        stroke-width: 0px;
      }
    </style>
  </defs>
  <g id="Cercle">
    <path class="cls-1" d="m970,490.85c-.07,50.32-7.77,100.64-23.43,148.49-15.1,46.14-37.2,89.86-65.42,129.37-27.94,39.12-61.74,73.93-99.93,103.12-38.54,29.45-81.72,53.03-127.34,69.52-46.93,16.97-96.45,26.56-146.32,28.34-50.63,1.8-101.56-4.17-150.28-18.11-46.78-13.39-91.48-33.91-132.15-60.62-40.22-26.42-76.42-59.03-107.1-96.09-30.86-37.28-56.02-79.3-74.4-124.07s-30.52-95.25-34.28-144.92.24-101.88,12.3-151.27c11.52-47.18,30.35-92.6,55.61-134.07,25.03-41.09,56.17-78.33,92.18-110.24,36.15-32.03,77.12-58.52,121.14-78.41,45.15-20.39,93.53-33.57,142.74-39.19,50.64-5.79,102.31-3.43,152.24,6.76,48.08,9.82,94.61,27.24,137.45,51.15,42.1,23.5,80.56,53.39,113.86,88.25,33.36,34.91,61.38,74.79,82.94,118,22.02,44.15,37.07,91.65,44.61,140.4,3.77,24.35,5.55,48.96,5.59,73.59,0,6.54,7.96,3.11,7.95-2.05-.07-51.36-7.98-102.68-23.9-151.53-15.29-46.92-37.65-91.46-66.28-131.66-28.45-39.95-62.78-75.63-101.76-105.42-39.09-29.87-82.65-53.88-128.88-70.74S558.53,2.13,507.56.31c-51.52-1.84-103.38,4.38-152.93,18.64-47.51,13.67-92.94,34.64-134.16,61.94-40.76,27-77.35,60.01-108.48,97.71-31.45,38.1-57.11,81.04-75.76,126.78S5.36,402.4,1.45,453.08c-3.96,51.44.19,103.57,12.35,153.71,11.74,48.42,31.01,95.04,56.87,137.63,25.35,41.74,56.97,79.7,93.48,112.13,36.79,32.68,78.56,59.84,123.41,80.1,45.78,20.68,94.82,34.13,144.73,39.84,51.56,5.89,104.11,3.56,154.95-6.9s96.35-27.83,139.93-52.3c42.64-23.95,81.71-54.36,115.4-89.81,33.95-35.73,62.48-76.44,84.42-120.58,22.3-44.87,37.62-93.25,45.21-142.78,3.82-24.92,5.71-50.11,5.75-75.32,0-6.54-7.94-3.11-7.95,2.05Z"/>
  </g>
  <g id="Calque_29" data-name="Calque 29">
    <g>
      <path class="cls-1" d="m482.83,784.56c-67.48,1.01-132.96-9.8-195.8-34.89-48.33-19.3-92.14-45.8-128.71-83.25-33.49-34.29-57.35-74.06-65.5-121.89-9.4-55.12,2.46-106.13,32.14-153.11,24.98-39.54,59.06-69.75,98.64-93.98,54.87-33.59,114.37-54.69,177.82-64.7,44.15-6.97,88.52-7.51,133.01-3.94,44.93,3.61,88.97,11.67,131.8,25.88,45.27,15.02,87.37,36.09,124.57,66.27,41.98,34.07,72.6,76.2,90.36,127.52,10.39,30.01,9.5,60.24,2.73,90.65-13.93,62.62-47.98,112.66-96.67,153.34-46.61,38.95-100.57,62.84-159.31,76.69-38.33,9.04-77.21,14.08-116.56,15.37-9.5.31-19.02.05-28.53.05ZM224.09,481.44c-1.41,4.58-2.99,8.61-3.84,12.78-.8,3.96-2.65,5.09-6.65,5.07-34.23-.16-68.46.01-102.68-.22-4.65-.03-5.75,1.48-5.92,5.74-.78,19.35,1.27,38.33,6.76,56.9,12.87,43.5,39.36,77.65,73.79,106.1,41.27,34.11,88.84,56.07,139.94,70.79,66.04,19.02,133.51,24.28,201.87,19.77,55.53-3.66,109.69-13.91,161.55-34.64,47.25-18.89,89.77-45.1,124.98-82.28,26.44-27.92,45.87-59.91,55.01-97.61,1.66-6.84,2.69-13.83,4.13-21.39h-37.72c1.43-5.43,2.96-10.25,3.93-15.19.73-3.73,2.36-5.01,6.25-4.88,9.32.31,18.65.1,28.43.1,0-2.55.08-4.59-.01-6.63-.87-18.57-4.52-36.57-11.19-53.93-13.72-35.74-36.73-64.76-65.51-89.42-39.38-33.74-84.91-56.17-134.05-71.61-70.3-22.1-142.36-28.18-215.61-22.94-48.87,3.5-96.59,12.81-143.43,27.13-55.72,17.03-104.29,45.33-142.76,89.67-25.68,29.6-43.98,63.1-52.33,101.67-.33,1.5-.44,3.05-.72,5.02h115.79Z"/>
      <path class="cls-1" d="m876.59,736c-.09,22.58-18.39,40.73-41.04,40.71-22.48-.02-40.85-18.39-40.94-40.93-.08-22.35,18.46-40.91,40.95-40.99,22.7-.08,41.13,18.42,41.04,41.2Zm-40.72,37.12c20.67-.1,37.31-16.89,37.25-37.59-.06-20.53-17.07-37.31-37.7-37.18-20.58.13-37.58,17.25-37.37,37.63.21,20.52,17.23,37.24,37.82,37.14Z"/>
      <path class="cls-1" d="m720.43,365.94c-.96,40.38-14.92,75.62-43.32,104.35-17.51,17.71-39.53,26.83-64.67,26.64-9.55-.07-19.37-.81-28.56-3.19-24.05-6.24-35.79-23.92-40.85-47.07-4.51-20.63-1.94-40.83,3.79-60.8,1.96-6.84,4.19-13.63,6.59-20.33,9.61-26.8,28.29-46.11,52.57-59.55,20.16-11.16,42.49-14.75,65.21-9.44,23.11,5.4,49.65,26.19,49.24,64.03-.02,1.78,0,3.57,0,5.36Zm-22.45-3.87c0-2.53.07-5.06-.01-7.59-.69-22.71-13.91-38.12-36.33-41.74-5.52-.89-11.27-.79-16.88-.52-16.99.81-31.76,6.68-43.78,19.2-12.82,13.36-21.69,28.92-27.63,46.35-7.8,22.91-12.9,46.15-9.27,70.51,2.5,16.77,12.55,28,29.21,31.39,29.24,5.96,53.81-3.55,72.66-25.85,22.2-26.26,30.29-58.05,32.02-91.76Z"/>
      <path class="cls-1" d="m647.4,701.5h-22.47c.46-6.7.83-13.17,1.35-19.63,1.44-18.07,2.97-36.13,4.41-54.2.93-11.65-5.9-19.25-17.57-19.33-16.34-.11-32.69.08-49.03-.11-3.42-.04-4.79.92-5.76,4.31-8.31,28.84-16.93,57.59-25.25,86.43-.97,3.35-2.33,4.52-5.79,4.29-4.85-.32-9.74-.08-15.12-.08,4.03-13.32,7.86-26.11,11.75-38.88,15.49-50.89,31.05-101.77,46.39-152.71,1.23-4.09,3.03-5.12,7.1-5.08,20.97.22,41.95-.06,62.92.15,14.87.15,27.2,5.93,34.34,19.35,7.43,13.96,8.32,28.51-.47,42.47-7.96,12.65-20,20.54-33.05,27.08-1.96.98-3.99,1.85-6.48,2.99,12.89,6.99,14.96,19.1,14.93,31.4-.03,15.59-1.55,31.17-2.15,46.76-.32,8.14-.06,16.29-.06,24.79Zm-82.35-110.85c2.05,0,3.51,0,4.97,0,12.65,0,25.32-.5,37.94.13,15.5.77,28.01-5.41,39.41-14.92,8.94-7.45,13.5-17.22,14.6-28.65,1.24-12.91-9.69-23.31-24.65-23.41-16.07-.11-32.14.05-48.21-.09-2.97-.03-4.06,1.04-4.85,3.79-3.13,10.86-6.56,21.63-9.86,32.44-3.07,10.06-6.12,20.12-9.35,30.72Z"/>
      <path class="cls-1" d="m433.94,590.96h88.07c-1.61,5.48-2.79,10.38-4.6,15.02-.43,1.11-3,1.95-4.59,1.96-26.48.12-52.96.2-79.44-.03-4.44-.04-6,1.45-7.16,5.54-6.06,21.45-12.46,42.8-18.73,64.19-.41,1.4-.77,2.83-1.29,4.78h101.55c-2.13,6.65-3.88,12.76-6.15,18.67-.43,1.12-2.95,2.02-4.52,2.02-23.06.13-46.12.09-69.18.09-16.2,0-32.39,0-49.03,0,.27-1.45.37-2.57.69-3.62,19.27-62.96,38.56-125.91,57.82-188.86.72-2.34,1.2-4.19,4.55-4.18,35.26.14,70.52.09,105.78.11.58,0,1.17.13,2.56.29-1.88,5.33-3.49,10.52-5.66,15.47-.42.96-3.03,1.32-4.64,1.33-26.48.07-52.96.14-79.44-.06-3.84-.03-5.34,1.26-6.47,4.79-6.24,19.54-12.75,38.99-19.14,58.48-.36,1.1-.54,2.25-.96,4.03Z"/>
      <path class="cls-1" d="m267.26,478.91h99.55c-1.2,6.15-2.17,11.93-3.59,17.6-.22.89-2.43,1.8-3.74,1.83-8.92.16-17.85.08-26.78.08-28.56,0-57.12,0-85.69,0-1.6,0-3.2,0-5.38,0,2.92-9.6,5.65-18.66,8.42-27.7,16.71-54.56,33.49-109.1,50.06-163.71,1.21-4,2.87-5.16,7.03-5.14,33.77.2,67.54.11,101.31.11,1.62,0,3.24,0,5.54,0-1.96,5.45-3.56,10.49-5.7,15.29-.46,1.02-2.91,1.62-4.44,1.63-26.93.1-53.85.17-80.78-.03-4.11-.03-5.85,1.04-7.01,5.12-5.89,20.73-12.16,41.34-18.28,62-.37,1.24-.6,2.52-1.04,4.35h87.69c-1.07,4.3-1.72,8.11-3.08,11.66-.38.99-2.81,1.7-4.3,1.7-26.33.1-52.66.2-78.99-.05-4.78-.04-6.88,1.29-8.36,5.97-6.8,21.54-14.06,42.94-21.14,64.39-.45,1.38-.77,2.8-1.33,4.87Z"/>
      <path class="cls-1" d="m386.62,561.39c0-3.96.03-7.49,0-11.02-.16-14.97-8.23-25.72-22.78-29.08-23.35-5.38-44.11-.32-60.87,17.35-22.38,23.62-37.15,51.18-40.6,83.92-1.16,11.03-1.33,22.26-.85,33.35.72,16.66,10.02,27.37,26.28,31.13,15.29,3.54,30.41,3.23,44.83-3.84,9.83-4.82,17.18-12.26,21.76-22.17,1.38-2.98,3.05-3.78,6.08-3.68,6.38.2,12.77.06,19.86.06-.64,2.06-.97,3.73-1.66,5.24-11.58,25.28-31.7,38.98-58.79,43.01-14.81,2.21-29.32.75-43.51-4.14-20.2-6.95-32.09-20.46-34.53-42.11-5.53-49.1,9.61-91.25,42.87-127.07,14.59-15.72,34.06-22.35,54.73-25.58,13.46-2.11,26.71-.44,39.48,4.23,22.38,8.19,30.17,26.09,28.71,47.51-.07,1.01-1.55,2.71-2.43,2.74-6.2.24-12.41.13-18.56.13Z"/>
      <path class="cls-1" d="m528.49,449.85c-7.37,19.63-19.69,33.64-38.05,41.55-24.42,10.52-49.13,10.31-73.47-.6-15.96-7.15-24.74-19.71-27.03-37.08-6.51-49.44,8.88-91.82,41.78-128.27,14.06-15.57,32.95-22.67,53.14-25.94,18.01-2.91,35.62-1.05,51.69,8.61,15.74,9.47,21.35,28.77,18.26,45.29h-20.38c0-4.85.5-9.74-.09-14.48-2.04-16.35-13.96-25.33-32-27.06-25.77-2.47-44.55,8.93-59.72,27.99-14.11,17.73-25.04,37.31-29.94,59.68-3.74,17.07-5.45,34.38-3.05,51.82,1.87,13.6,9.21,23.15,22.63,27.02,16.2,4.68,32.31,4.57,47.86-2.81,10.05-4.77,17.41-12.35,22.16-22.35,1.18-2.49,2.47-3.55,5.3-3.47,6.66.21,13.33.07,20.91.07Z"/>
      <path class="cls-1" d="m740.41,522.08h-60.46c2.21-6.45,4.09-12.44,6.41-18.26.34-.86,2.73-1.27,4.18-1.28,17.11-.09,34.22-.05,51.32-.05,23.36,0,46.71,0,70.07,0,1.77,0,3.55,0,6.16,0-2.08,6.48-3.89,12.52-6.07,18.42-.28.76-2.51,1.12-3.84,1.13-14.43.08-28.86.17-43.29-.04-3.46-.05-4.84,1.08-5.81,4.37-16.81,57.18-33.79,114.31-50.59,171.49-1.01,3.45-2.34,4.83-6.06,4.57-5.28-.37-10.6-.09-16.29-.09,18.06-60.02,36.03-119.73,54.25-180.25Z"/>
      <path class="cls-1" d="m834.69,738.19c5.75,8.35,11.28,16.39,16.81,24.42-.26.39-.52.77-.79,1.16-1.4-.88-3.23-1.44-4.12-2.68-4.86-6.75-9.46-13.67-14.21-20.51-.75-1.08-1.75-1.99-2.63-2.97l-1.24.49c0,4.67,0,9.35,0,14.02,0,2.97.1,5.95-.05,8.91-.04.81-.86,1.57-1.33,2.36-.59-.81-1.62-1.59-1.68-2.43-.21-3.11-.1-6.23-.1-9.35,0-13.94,0-27.89,0-42.93,5.61.52,10.97.42,16.01,1.65,5.78,1.41,8.55,6.92,8.33,14.15-.19,6.18-3.45,10.67-9.06,12.34-1.81.54-3.68.87-5.94,1.39Zm-5.87-4.06c6.29.52,12.28,1.2,16.1-5.04,2.28-3.73,1.94-9.19-.66-12.63-2.97-3.93-9-5.21-15.44-3.31v20.99Z"/>
    </g>
  </g>
</svg>