<?xml version="1.0" encoding="UTF-8"?>
<svg id="Calque_2" xmlns="http://www.w3.org/2000/svg" viewBox="0 0 742.11 518.1">
  <g id="Ecocert">
    <g>
      <path d="M365.03,518c-62.65.93-123.45-9.1-181.78-32.4-44.87-17.92-85.55-42.52-119.5-77.29-31.09-31.84-53.24-68.76-60.82-113.17-8.73-51.18,2.28-98.53,29.84-142.16,23.19-36.71,54.84-64.76,91.58-87.25,50.94-31.18,106.18-50.77,165.09-60.07,40.99-6.47,82.19-6.97,123.49-3.65,41.71,3.35,82.61,10.83,122.37,24.03,42.03,13.95,81.12,33.5,115.66,61.53,38.98,31.63,67.4,70.74,83.89,118.39,9.64,27.86,8.82,55.92,2.54,84.17-12.93,58.14-44.55,104.6-89.75,142.36-43.28,36.16-93.37,58.35-147.9,71.2-35.59,8.39-71.68,13.07-108.21,14.27-8.82.29-17.66.04-26.49.04ZM124.8,236.58c-1.31,4.25-2.78,7.99-3.56,11.87-.75,3.68-2.46,4.73-6.18,4.71-31.78-.15-63.56.01-95.33-.2-4.32-.03-5.34,1.38-5.5,5.33-.72,17.96,1.18,35.59,6.28,52.83,11.95,40.39,36.55,72.09,68.5,98.5,38.32,31.67,82.49,52.06,129.92,65.72,61.32,17.66,123.95,22.54,187.43,18.36,51.55-3.4,101.84-12.91,149.99-32.17,43.86-17.54,83.35-41.87,116.03-76.39,24.54-25.92,42.59-55.62,51.07-90.62,1.54-6.35,2.5-12.84,3.84-19.86h-35.02c1.33-5.04,2.75-9.52,3.65-14.1.68-3.46,2.19-4.65,5.8-4.53,8.65.29,17.32.09,26.4.09,0-2.36.08-4.26-.01-6.15-.81-17.24-4.2-33.95-10.39-50.07-12.74-33.19-34.1-60.13-60.82-83.02-36.56-31.32-78.84-52.15-124.46-66.48-65.27-20.51-132.17-26.17-200.18-21.3-45.37,3.25-89.68,11.9-133.16,25.19-51.73,15.81-96.82,42.09-132.54,83.25-23.84,27.48-40.84,58.58-48.58,94.39-.3,1.4-.41,2.84-.67,4.66h107.5Z"/>
      <path d="M730.61,472.92c-.08,20.96-17.07,37.81-38.11,37.8-20.87-.02-37.93-17.07-38.01-38-.08-20.75,17.14-37.98,38.02-38.05,21.07-.07,38.18,17.1,38.1,38.25ZM692.8,507.38c19.19-.09,34.64-15.69,34.58-34.9-.06-19.06-15.85-34.64-35-34.52-19.1.12-34.89,16.02-34.7,34.94.2,19.06,16,34.57,35.11,34.48Z"/>
      <path d="M585.62,129.34c-.89,37.49-13.85,70.21-40.22,96.88-16.25,16.44-36.7,24.91-60.04,24.73-8.86-.07-17.99-.75-26.52-2.96-22.33-5.79-33.23-22.21-37.93-43.7-4.19-19.16-1.8-37.91,3.52-56.45,1.82-6.35,3.89-12.65,6.12-18.87,8.93-24.88,26.26-42.81,48.81-55.29,18.72-10.36,39.45-13.7,60.54-8.77,21.46,5.01,46.1,24.32,45.72,59.45-.02,1.66,0,3.31,0,4.97ZM564.78,125.75c0-2.35.06-4.7,0-7.05-.64-21.09-12.92-35.39-33.73-38.75-5.12-.83-10.46-.73-15.67-.49-15.77.75-29.49,6.2-40.65,17.83-11.91,12.4-20.14,26.85-25.65,43.04-7.24,21.27-11.97,42.85-8.61,65.46,2.32,15.57,11.65,25.99,27.12,29.15,27.15,5.54,49.96-3.3,67.46-24,20.61-24.38,28.12-53.9,29.73-85.19Z"/>
      <path d="M517.82,440.89h-20.86c.42-6.22.77-12.23,1.25-18.22,1.34-16.78,2.76-33.55,4.1-50.32.86-10.82-5.48-17.87-16.31-17.94-15.17-.1-30.35.07-45.52-.1-3.17-.04-4.44.86-5.35,4-7.72,26.78-15.72,53.47-23.45,80.24-.9,3.11-2.16,4.2-5.37,3.98-4.5-.3-9.04-.08-14.03-.08,3.74-12.37,7.3-24.24,10.91-36.1,14.38-47.25,28.83-94.48,43.07-141.78,1.14-3.79,2.81-4.75,6.59-4.71,19.47.2,38.95-.05,58.42.14,13.81.14,25.26,5.51,31.89,17.97,6.9,12.96,7.72,26.47-.43,39.43-7.39,11.74-18.57,19.07-30.68,25.14-1.82.91-3.71,1.71-6.02,2.78,11.97,6.49,13.89,17.73,13.87,29.15-.03,14.47-1.44,28.94-2,43.41-.29,7.55-.05,15.13-.05,23.01ZM441.37,337.97c1.9,0,3.26,0,4.61,0,11.74,0,23.51-.46,35.22.12,14.39.71,26.01-5.03,36.59-13.85,8.3-6.92,12.54-15.99,13.56-26.6,1.15-11.98-9-21.64-22.88-21.74-14.92-.11-29.84.05-44.76-.09-2.76-.02-3.77.97-4.51,3.52-2.91,10.08-6.09,20.08-9.16,30.12-2.85,9.34-5.68,18.68-8.68,28.52Z"/>
      <path d="M319.63,338.25h81.77c-1.5,5.09-2.59,9.63-4.27,13.94-.4,1.03-2.78,1.81-4.26,1.82-24.59.11-49.17.19-73.76-.03-4.12-.04-5.58,1.34-6.65,5.14-5.62,19.91-11.57,39.74-17.39,59.6-.38,1.3-.71,2.62-1.2,4.44h94.28c-1.98,6.18-3.6,11.85-5.71,17.33-.4,1.04-2.74,1.87-4.19,1.88-21.41.12-42.82.08-64.23.08-15.04,0-30.08,0-45.53,0,.25-1.35.34-2.39.64-3.36,17.89-58.45,35.8-116.9,53.68-175.35.66-2.17,1.12-3.89,4.22-3.88,32.73.13,65.47.09,98.21.1.54,0,1.09.12,2.37.27-1.75,4.95-3.24,9.77-5.26,14.36-.39.89-2.82,1.23-4.31,1.23-24.59.07-49.17.13-73.76-.05-3.57-.03-4.96,1.17-6.01,4.44-5.79,18.14-11.83,36.2-17.77,54.3-.33,1.02-.5,2.09-.89,3.74Z"/>
      <path d="M164.88,234.23h92.42c-1.11,5.71-2.02,11.08-3.33,16.34-.21.83-2.26,1.68-3.47,1.7-8.28.15-16.57.08-24.86.08-26.52,0-53.04,0-79.55,0-1.49,0-2.97,0-4.99,0,2.71-8.91,5.24-17.32,7.82-25.72,15.52-50.66,31.09-101.3,46.47-151.99,1.13-3.71,2.67-4.79,6.53-4.77,31.35.18,62.7.1,94.06.1,1.5,0,3.01,0,5.15,0-1.82,5.06-3.3,9.74-5.29,14.2-.42.95-2.7,1.51-4.12,1.51-25,.09-50,.16-75-.03-3.81-.03-5.43.97-6.5,4.76-5.47,19.24-11.29,38.38-16.97,57.57-.34,1.15-.56,2.34-.96,4.04h81.41c-.99,3.99-1.6,7.53-2.86,10.83-.35.92-2.61,1.58-3.99,1.58-24.45.09-48.89.18-73.34-.05-4.44-.04-6.39,1.2-7.76,5.54-6.31,20-13.05,39.87-19.63,59.79-.42,1.28-.71,2.6-1.23,4.52Z"/>
      <path d="M275.7,310.81c0-3.68.03-6.96,0-10.23-.14-13.89-7.64-23.88-21.15-27-21.68-5-40.96-.3-56.51,16.11-20.78,21.93-34.49,47.51-37.7,77.91-1.08,10.24-1.24,20.67-.79,30.97.67,15.47,9.3,25.41,24.4,28.9,14.19,3.29,28.23,2.99,41.62-3.57,9.12-4.47,15.95-11.38,20.2-20.59,1.28-2.77,2.83-3.51,5.64-3.42,5.92.19,11.85.06,18.44.06-.6,1.91-.9,3.46-1.54,4.87-10.75,23.47-29.43,36.19-54.58,39.94-13.75,2.05-27.22.69-40.4-3.84-18.76-6.45-29.79-18.99-32.06-39.09-5.14-45.58,8.93-84.72,39.8-117.97,13.55-14.59,31.62-20.75,50.81-23.75,12.5-1.95,24.8-.41,36.65,3.93,20.77,7.6,28.01,24.23,26.66,44.11-.06.94-1.44,2.52-2.26,2.55-5.76.22-11.52.12-17.23.12Z"/>
      <path d="M407.42,207.25c-6.84,18.22-18.28,31.24-35.32,38.58-22.67,9.77-45.62,9.57-68.21-.55-14.81-6.64-22.97-18.3-25.09-34.43-6.04-45.91,8.24-85.25,38.79-119.09,13.05-14.45,30.6-21.05,49.34-24.08,16.72-2.7,33.07-.97,47.99,8,14.62,8.79,19.82,26.71,16.95,42.05h-18.92c0-4.51.46-9.04-.08-13.45-1.89-15.18-12.96-23.52-29.71-25.12-23.93-2.29-41.36,8.29-55.44,25.99-13.1,16.46-23.25,34.64-27.79,55.41-3.47,15.84-5.06,31.92-2.83,48.11,1.74,12.62,8.55,21.49,21.01,25.09,15.04,4.34,30,4.25,44.43-2.6,9.33-4.43,16.17-11.47,20.58-20.75,1.1-2.32,2.3-3.3,4.92-3.22,6.18.19,12.38.06,19.41.06Z"/>
      <path d="M604.17,274.31h-56.13c2.05-5.99,3.8-11.55,5.96-16.95.32-.8,2.54-1.18,3.88-1.18,15.88-.08,31.77-.05,47.65-.05,21.68,0,43.37,0,65.05,0,1.65,0,3.29,0,5.72,0-1.93,6.02-3.61,11.62-5.63,17.1-.26.71-2.33,1.04-3.56,1.04-13.4.07-26.8.15-40.19-.03-3.22-.05-4.5,1-5.39,4.06-15.61,53.09-31.37,106.13-46.97,159.22-.94,3.2-2.17,4.49-5.62,4.24-4.9-.34-9.84-.09-15.12-.09,16.77-55.73,33.45-111.16,50.36-167.35Z"/>
      <path d="M691.71,474.95c5.34,7.76,10.48,15.22,15.61,22.68-.24.36-.49.72-.73,1.07-1.3-.81-3-1.34-3.82-2.49-4.51-6.26-8.79-12.7-13.19-19.04-.7-1-1.62-1.84-2.45-2.76l-1.15.45c0,4.34,0,8.68,0,13.01,0,2.76.1,5.52-.05,8.27-.04.75-.8,1.46-1.23,2.19-.54-.75-1.51-1.47-1.56-2.26-.19-2.88-.09-5.79-.09-8.68,0-12.95,0-25.89,0-39.86,5.21.48,10.19.39,14.86,1.53,5.37,1.31,7.94,6.42,7.73,13.13-.18,5.73-3.2,9.9-8.41,11.46-1.68.5-3.42.81-5.52,1.29ZM686.26,471.19c5.84.48,11.4,1.11,14.95-4.68,2.12-3.46,1.8-8.53-.62-11.73-2.76-3.65-8.35-4.84-14.33-3.07v19.48Z"/>
    </g>
  </g>
</svg>