<?xml version="1.0" encoding="UTF-8"?>
<svg id="Calque_2" xmlns="http://www.w3.org/2000/svg" viewBox="0 0 760 505.08">
  <defs>
    <style>
      .cls-1, .cls-2 {
        fill: #f7a400;
      }

      .cls-3, .cls-4 {
        fill: #fff;
      }

      .cls-4, .cls-2 {
        fill-rule: evenodd;
      }
    </style>
  </defs>
  <g id="EPAX">
    <g>
      <path class="cls-1" d="M756.99,118.68c16.68-53.85-40.2-67.5-69.77-41.71-20.48,18.2-56.88,52.33-86.46,59.16-19.72,4.55-33.37,2.28-45.5-3.03-12.89-6.07-29.58-13.65-54.61-25.03-24.27-11.38-51.57-15.17-62.19-31.85-11.38-17.44-17.44-71.29-56.12-75.84-28.82-3.03-50.05,12.89-80.39,38.68-31.09,27.3-61.43,37.92-76.6,41.71C174.54,92.14,5.41,153.57.11,233.96c-5.31,87.22,190.36,141.06,287.44,143.34,169.12,3.79,239.66-65.98,288.95-65.22,59.91,1.52,81.15,40.2,94.04,51.57,27.3,24.27,81.91,7.58,63.71-43.23-15.93-46.26-29.58-47.02-28.06-91.77.76-36.4,43.99-87.22,50.81-109.97ZM171.51,253.68c-24.27-1.52-43.99-21.99-42.47-46.26,1.52-24.27,21.99-43.23,47.02-41.71,24.27,1.52,43.99,21.99,42.47,46.26s-22.75,43.23-47.02,41.71Z"/>
      <path class="cls-2" d="M411.22,459.14c0-45.94-48.9-50.39-62.24-50.39-27.42-.74-65.21,14.82-66.69,45.2v2.96c-.74,20.01,17.78,48.16,63.72,48.16,51.87,0,65.21-28.16,65.21-42.24v-.74c0-.74,0-2.22,0-2.96Z"/>
      <path class="cls-3" d="M545.4,146.74c-23.51-7.58-70.53-28.06-87.22-32.61-25.79-6.83-38.68-18.2-44.75-30.34-9.86-19.72-12.89-43.23-21.99-53.09-8.34-9.1-21.99-4.55-21.24-9.86,0-1.52,6.83-2.28,12.13-1.52,18.2,3.79,21.24,16.68,30.34,40.95,3.79,9.1,6.07,17.44,10.62,23.51,10.62,15.93,26.54,19.72,44.75,25.79,14.41,4.55,59.16,24.27,78.87,34.13,7.58,3.03,5.31,5.31-1.52,3.03Z"/>
      <path class="cls-3" d="M706.18,81.52c10.62-5.31,23.51-4.55,30.34,4.55,6.07,8.34,6.07,24.27-3.03,38.68-2.28,3.03-3.03,2.28-2.28-1.52,5.31-20.48,6.07-28.06-2.28-34.89-5.31-4.55-16.68-3.79-20.48-4.55,0,0-3.03,0-3.03.76-3.03,1.52-2.28-1.52.76-3.03Z"/>
      <path class="cls-3" d="M716.8,321.17c3.03,7.58,4.55,18.2-.76,25.79-3.79,5.31-4.55-1.52-4.55-3.79.76-12.13-1.52-19.72-9.86-38.68-11.38-24.27-31.85-52.33-18.2-88.73,3.03-9.1,6.07-14.41,11.38-23.51,9.1-16.68,10.62-15.93,3.79,0-4.55,10.62-8.34,21.24-9.86,31.85-4.55,32.61,6.07,46.26,14.41,62.95,3.03,9.1,7.58,18.96,13.65,34.13Z"/>
      <path class="cls-4" d="M343.66,497.12c-31.85,0-50.05-15.93-49.3-28.06,0-2.28.76-3.79,1.52-5.31,1.52,8.34,18.96,25.79,47.78,25.79,30.34,0,47.02-16.68,49.3-22.75,0,1.52.76,3.03.76,4.55,0,8.34-14.41,25.79-50.05,25.79Z"/>
      <path class="cls-4" d="M356.56,418.25c12.89,1.52,23.51,6.83,22.75,12.13-.76,5.31-11.38,5.31-25.03,3.79-13.65-1.52-23.51-4.55-22.75-9.1.76-5.31,12.13-8.34,25.03-6.83Z"/>
    </g>
  </g>
</svg>