<?xml version="1.0" encoding="UTF-8"?>
<svg xmlns="http://www.w3.org/2000/svg" viewBox="0 0 977.95 979.65">
  <defs>
    <style>
      .cls-1 {
        fill: #4d4d4d;
      }

      .cls-1, .cls-2, .cls-3, .cls-4 {
        stroke-width: 0px;
      }

      .cls-3 {
        fill: #fff9c1;
      }

      .cls-4 {
        fill: #a86968;
      }
    </style>
  </defs>
  <g id="Cercle">
    <path class="cls-2" d="m970,490.85c-.07,50.32-7.77,100.64-23.43,148.49-15.1,46.14-37.2,89.86-65.42,129.37-27.94,39.12-61.74,73.93-99.93,103.12-38.54,29.45-81.72,53.03-127.34,69.52-46.93,16.97-96.45,26.56-146.32,28.34-50.63,1.8-101.56-4.17-150.28-18.11-46.78-13.39-91.48-33.91-132.15-60.62-40.22-26.42-76.42-59.03-107.1-96.09-30.86-37.28-56.02-79.3-74.4-124.07-18.93-46.08-30.52-95.25-34.28-144.92-3.83-50.69.24-101.88,12.3-151.27,11.52-47.18,30.35-92.6,55.61-134.07,25.03-41.09,56.17-78.33,92.18-110.24,36.15-32.03,77.12-58.52,121.14-78.41,45.15-20.39,93.53-33.57,142.74-39.19,50.64-5.79,102.31-3.43,152.24,6.76,48.08,9.82,94.61,27.24,137.45,51.15,42.1,23.5,80.56,53.39,113.86,88.25,33.36,34.91,61.38,74.79,82.94,118,22.02,44.15,37.07,91.65,44.61,140.4,3.77,24.35,5.55,48.96,5.59,73.59,0,6.54,7.96,3.11,7.95-2.05-.07-51.36-7.98-102.68-23.9-151.53-15.29-46.92-37.65-91.46-66.28-131.66-28.45-39.95-62.78-75.63-101.76-105.42-39.09-29.87-82.65-53.88-128.88-70.74S558.53,2.13,507.56.31c-51.52-1.84-103.38,4.38-152.93,18.64s-92.94,34.64-134.16,61.94c-40.76,27-77.35,60.01-108.48,97.71-31.45,38.1-57.11,81.04-75.76,126.78S5.36,402.4,1.45,453.08c-3.96,51.44.19,103.57,12.35,153.71,11.74,48.42,31.01,95.04,56.87,137.63,25.35,41.74,56.97,79.7,93.48,112.13,36.79,32.68,78.56,59.84,123.41,80.1s94.82,34.13,144.73,39.84c51.56,5.89,104.11,3.56,154.95-6.9,48.96-10.07,96.35-27.83,139.93-52.3,42.64-23.95,81.71-54.36,115.4-89.81,33.95-35.73,62.48-76.44,84.42-120.58,22.3-44.87,37.62-93.25,45.21-142.78,3.82-24.92,5.71-50.11,5.75-75.32,0-6.54-7.94-3.11-7.95,2.05Z"/>
  </g>
  <g id="Fait_en_Belgique" data-name="Fait en Belgique">
    <g>
      <path class="cls-1" d="m386.87,316.9v266.26c-2.28.44-4.54.95-6.81,1.5-2.63.64-4.93,2.71-7.32,4.22-2.38,1.5-4.69,3.11-7.63,5.08-1.75-7.1-3.47-13.78-5.04-20.49-1.18-5.05-1.65-10.32-3.36-15.16-1.82-5.13-4.08-9.91-9.61-13-5.81-3.24-11.61-4.71-18.05-4.79-3.77-.04-7.55-.62-11.29-.43-6.93.33-13.13-2.13-19.41-4.41-.7-.25-1.34-.96-1.79-1.61-3.38-4.87-7.08-9.58-9.92-14.76-2.12-3.9-3.22-8.38-4.57-12.66-3.47-10.99-6.75-22.05-10.32-33-.55-1.68-2.13-3.14-3.49-4.43-3.95-3.73-8.01-7.36-12.08-10.95-.56-.49-1.46-.81-2.22-.83-7.19-.21-14.4-.59-21.59-.36-2.51.08-5.01,1.63-7.43,2.7-3.43,1.52-6.66,3.58-10.2,4.75-3.75,1.23-7.74,1.82-11.67,2.45-3.14.5-6.32.71-9.5.89-.8.05-1.85-.28-2.43-.81-7.46-6.96-15.04-13.81-22.17-21.1-2.44-2.49-3.7-6.12-5.5-9.23-7.81-13.49-13-28.01-16.46-43.14-2.27-9.93-4.02-19.98-6.04-29.97-.31-1.54.12-2.35,1.55-3.15,16.13-8.98,32.22-18.06,48.32-27.1,21.64-12.15,43.22-24.42,64.98-36.33,4.86-2.66,10.37-4.16,15.64-6.02,8.75-3.09,17.54-6.03,26.32-9.02.7-.24,1.42-.42,2.34-.68,1.38,5.49,2.69,10.9,4.1,16.28.87,3.31,1.84,6.6,2.89,9.86.19.58.91,1.15,1.52,1.43,5.1,2.31,10.22,4.58,15.37,6.77.89.37,1.96.44,2.94.42,14.14-.38,28.29-1.14,42.43-1.06,5.84.03,11.67,1.06,17.5,1.88Z"/>
      <path class="cls-4" d="m877.74,567.24c-.33,6.44-.31,12.89-.55,19.33-.04,1.06-.5,2.29-1.17,3.11-9.09,11.08-19.39,20.96-29.91,30.67-2.34,2.16-3.33,5.86-4.67,8.97-2.52,5.82-4.84,11.72-7.33,17.81-6.82-2.7-13.48-5.35-20.14-7.99-.08-.03-.16-.06-.23-.1-2.9-1.65-5.21-1.51-7.88,1.05-5.97,5.72-12.63,10.75-18.46,16.6-2.72,2.74-4.35,6.65-6.2,10.17-3.77,7.17-7.44,14.4-10.99,21.68-1.19,2.45-2.15,5.07-2.77,7.72-1.96,8.3-3.71,16.65-5.5,24.99-.17.77-.17,1.65.03,2.41,1.73,6.54,3.25,13.16,5.38,19.57,1.39,4.17,3.32,8.25,5.63,11.99,5.71,9.24,8,19.52,10.33,29.91.87,3.84.13,6.63-1.82,9.73-3.21,5.09-6.11,10.37-9.13,15.58-.76,1.33-1.45,2.37-3.39,2.36-13.89-.06-27.79.04-41.69.02-1.46-.01-2.93-.49-4.38-.81-10.99-2.47-19.32-9.58-28.03-16.05-12.68-9.42-25.21-19.06-38.19-28.05-7.72-5.35-15.75-10.27-23.81-15.11v-476.07c.87,2.38,2.3,4.49,4.08,6.48,3.84,4.3,7.71,8.58,11.3,13.08,5.54,6.94,12.11,12.72,20.54,15.42,5.4,1.73,11.29,1.47,17.06-.1,7.31-2,14.59-4.57,22.38-3.84,1.59.15,3.35.5,4.68,1.32,7.96,4.89,15.78,10,23.72,14.92,9.02,5.58,18.09,11.06,27.17,16.52,1.54.93,2.39,2.06,2.79,3.86,1.71,7.75,3.56,15.47,5.42,23.19.45,1.86.32,3.47-.52,5.26-3.42,7.35-6.43,14.9-10.03,22.15-4.34,8.75-9.14,17.27-13.7,25.92-.45.84-.81,1.87-.78,2.81.21,7.44.02,14.95,1.02,22.3.5,3.72,2.44,7.94,5.11,10.47,2.58,2.45,6.85,3.3,10.52,4.36,8.72,2.52,17.77,1.74,26.7,2.18,6.19.3,12.39.34,18.58.61.88.04,1.94.49,2.57,1.1,13.07,12.59,26.09,25.24,39.12,37.87,2.16,2.08,4.33,4.14,6.6,6.31-3.14,4.71-6.11,9.34-9.27,13.84-1.08,1.52-1.22,2.71-.21,4.26,1.38,2.1,2.72,4.24,3.82,6.48,1.63,3.32,4.48,5.43,7.33,7.4,6.83,4.71,11.63,11.13,16.33,17.78,1.91,2.69,2.71,5.31,2.54,8.56Z"/>
      <path class="cls-3" d="m632.87,276.73v476.07c-2.4-1.44-4.81-2.88-7.21-4.32-7.47-4.48-15.96-6.24-24.29-8.45-5.48-1.45-10.13-4.47-11.77-10.36-2.27-8.21-4.3-16.48-6.38-24.74-.95-3.8-1.53-7.72-2.7-11.45-1.8-5.71-.52-11.32.14-16.92.99-8.47,2.32-16.9,3.55-25.33.28-1.89.73-3.75,1.12-5.7-3.36-1.37-5.64-.71-8.2,1.51-15.26,13.29-30.71,26.36-46.1,39.5-.76.65-1.59,1.25-2.25,1.99-5.15,5.73-12.51,7.09-19.19,9.79-1.01.41-2.1.63-3.06,1.12-4.21,2.19-8.41,2.22-12.95.85-6.39-1.93-12.97-3.26-19.38-5.13-2.33-.68-4.47-2.1-6.61-3.35-1.58-.92-2.93-2.24-4.52-3.15-3.4-1.93-5.51-4.61-6.98-8.36-1.38-3.5-.53-6.62.02-9.8,2.15-12.57,4.09-25.2,2.72-37.93-1-9.26-3.08-18.19-8.42-26.42-4.19-6.47-10.24-10.15-16.04-14.35-8.33-6.04-17.97-8.32-28.05-9.65-6.66-.88-13.09-.22-19.45,1.01v-266.26c1.37.2,2.75.38,4.12.54,5.81.66,11.61,1.39,17.44,1.8s11.68.51,17.53.6c1.53.02,3.2-.2,4.6-.81,7.26-3.15,14.48-6.41,21.66-9.76,1.02-.48,1.98-1.52,2.52-2.53,4.82-9.26,9.53-18.57,14.36-28.02,6.66,2.94,13.23,5.75,19.71,8.75,1.55.71,2.38.56,3.69-.55,4.02-3.39,6.73-7.37,6.93-12.76.19-5.1,3.2-8.59,6.71-11.79.13-.11.27-.21.39-.32,2.03-1.97,3.48-4.59,7.1-4.29,2.91.24,5.78.04,8.47,1.63,2.86,1.69,5.79,3.29,8.84,4.6,4.52,1.94,9.1.64,13.56-.41,7.3-1.7,14.54-3.65,22-5.55-.42-1.46-.69-2.39-1.22-4.27,4.5,1.92,8.63,3.19,12.26,5.31,7.28,4.24,14.12,9.21,22.03,12.39,4.64,1.87,8.63,1.22,11.79-2.58,2.3-2.77,4.49-5.62,6.85-8.34.95-1.09,2.07-2.3,3.36-2.78,1.9-.7,4.05-2.49,6,.25,1.22,1.72,3.25,2.79,3.35,5.35.13,2.99.84,5.96,1.03,8.96.09,1.58.41,3.04.92,4.41Z"/>
      <path class="cls-2" d="m545.54,623.94c-10.49-3.54-18.32,7.09-25.42,13.19-9.41,8.08-18.86,16.12-28.3,24.16-4.06,3.47-8.07,8.01-12.76,10.61s-9.73,3.7-14.51,5.59c-2.35.93-4.51,2.01-7.11,1.94-2.98-.09-6.05-1.44-8.92-2.2-5.58-1.46-11.83-2.22-16.89-5.05-3.51-1.96-8.17-4.59-10.35-8.03-3.31-5.23-.62-12.32.25-17.97,1.76-11.47,2.76-23.1,1.14-34.65-1.41-10.04-4.59-20.45-11.29-28.28-6.04-7.06-15.06-13.41-23.52-17.16-10.82-4.8-23.56-6.88-35.33-5.79-5.96.55-13.08,1.31-18.49,4.05-4.67,2.36-9.01,5.89-13.35,8.81l8.67,3.02c-2.25-9.07-4.63-18.1-6.36-27.29-1.31-6.9-3.18-14.27-7.97-19.66-5.08-5.72-13.24-8.76-20.63-9.91-8.69-1.36-17.87.2-26.38-2.04-1.97-.52-3.96-1.12-5.85-1.88-2.23-.9-2.93-2.04-4.28-3.92-2.85-4-5.94-7.96-8.03-12.42-3.79-8.08-5.75-17.34-8.38-25.85-2.43-7.87-3.74-17.77-9.84-23.67-5.05-4.89-11.41-13.1-18.8-13.86-4.51-.46-9.22-.34-13.75-.41s-9.02-.41-13.22,1.14c-3.53,1.31-6.83,3.26-10.21,4.89-4.26,2.05-8.64,2.99-13.28,3.73-2.08.33-4.31.86-6.42.83-3.09-.05-4.31-1.19-6.49-3.21-3.69-3.42-7.39-6.83-11.01-10.33-3.29-3.17-6.7-6.14-8.87-10.21-2-3.74-4.07-7.46-5.97-11.25-8.37-16.71-12.5-34.6-16.02-52.84-.42-2.19-.84-4.38-1.27-6.57-.18-.92-.78-2.72-.74-3.75.09-2.07-.9-1.01.8-2.74,1.38-1.41,4.36-2.43,6.05-3.38,2.3-1.29,4.6-2.58,6.91-3.87,8.63-4.84,17.25-9.69,25.88-14.53,19.1-10.73,38.16-21.53,57.31-32.18,9.15-5.09,17.94-10.11,27.89-13.46s20.34-7.54,30.72-10.45l-6.61-3.9c1.21,4.83,2.38,9.67,3.63,14.49,1.04,4,1.76,8.95,3.64,12.64,1.77,3.47,5.81,4.63,9.13,6.1,3.75,1.67,7.58,3.78,11.53,4.92,4.4,1.26,9.39.46,13.9.3,5.14-.18,10.29-.37,15.43-.51,9.91-.28,19.71-.53,29.55.88s19.17,2.64,28.81,3.22c5.16.31,10.41.59,15.58.48,4.14-.09,7.41-1.41,11.16-3.06,4.18-1.84,8.35-3.72,12.5-5.63,3.53-1.62,6.91-2.81,9.13-6.15,2.84-4.26,4.85-9.38,7.18-13.93s4.79-9.39,7.18-14.08l-6.59,1.1c5.69,2.5,11.4,4.96,17.05,7.53,4.2,1.91,8.2,3.44,12.24.32,3.32-2.56,6.1-6.31,7.34-10.33,1.49-4.82.92-8.65,4.66-12.62,1.13-1.2,2.36-2.44,3.58-3.55,2.36-2.15,5.17-2,8.13-.69,4.79,2.13,8.79,5.36,14.16,6.04s10.6-.93,15.72-2.18c6.13-1.49,12.23-3.12,18.35-4.68,2.36-.6,3.65-2.11,2.95-4.57-.41-1.42-.81-2.84-1.22-4.27l-6.78,4.03c7.56,3.12,14.26,6.56,21.25,10.82,5.98,3.64,12.99,8.37,20.24,8.5s10.96-5.04,15.15-10.18c1.38-1.69,2.72-3.76,4.6-4.93.24-.15,1.37-.39,1.47-.63.51-1.2-2.51-.38-2.34-.77.1-.23,2.47,3.96,2.56,4.33.53,2.26.61,4.84.87,7.16.94,8.38,5.68,13.31,11.05,19.44,5.08,5.79,9.59,12.11,15.63,16.97,5.53,4.46,12.17,7.77,19.25,8.72,8.12,1.09,15.36-1.44,23.11-3.38,3.93-.98,8.93-2.31,12.98-1.37s8.27,4.7,11.8,6.95c7.84,4.98,15.72,9.9,23.65,14.73,3.47,2.11,6.94,4.21,10.42,6.31,1.82,1.1,4.4,2.17,5.91,3.71,1.76,1.8,1.86,5.15,2.44,7.65,1.04,4.51,2.11,9.02,3.19,13.52,1.19,4.93-.02,7.61-2.05,12.19-3.72,8.41-7.5,16.73-11.8,24.87-1.98,3.74-4.01,7.46-6.01,11.2-1.83,3.4-4.28,6.83-4.47,10.78-.65,13.4-1.32,33.15,13.76,38.84,8.37,3.16,17.13,4.12,26,4.27,4.84.08,9.68.26,14.52.42,4.54.14,10.32-.92,13.88,2.11,7.59,6.47,14.5,14.01,21.66,20.96s14.69,14.26,22.1,21.33l-1.24-4.66c-2.06,3.1-4.08,6.22-6.16,9.3-1.74,2.59-4.54,5.45-4.39,8.78.13,3.06,2.85,6.04,4.27,8.6s2.86,4.74,5.08,6.76c5.09,4.65,10.44,8.15,14.79,13.66,1.97,2.49,4.55,5.33,5.76,8.29,1.34,3.26.59,7.25.5,10.67-.11,3.86-.03,7.75-.27,11.6s-3.26,6.12-5.61,8.78c-5.13,5.79-10.61,11.25-16.2,16.59-4.63,4.42-9.74,8.12-12.28,14.14-3.08,7.29-6.01,14.64-8.99,21.97l7-2.03c-7.27-2.88-14.49-5.97-21.78-8.76-8.07-3.09-12.66,2.52-18.29,7.42s-12.44,9.62-16.29,16.14c-4.14,7.01-7.62,14.55-11.25,21.84-3.95,7.94-6.35,15.45-8.26,24.11-.92,4.16-1.81,8.33-2.7,12.5-.96,4.5-.41,7.21.74,11.67,1.99,7.74,3.85,15.68,7.48,22.85,3.87,7.66,7.81,14.54,10.04,22.94,1,3.75,2.46,8.02,2.72,11.9.28,4.2-2.41,7.4-4.45,10.83-1.07,1.81-2.12,3.64-3.17,5.47-.82,1.43-1.85,4.37-3.14,5.49-1.12.97-.02.21-1.36.63-.78.24-2.16,0-2.98,0-2.65,0-5.29,0-7.94,0-9.21,0-18.6.56-27.8.03-7.88-.45-15.02-4.76-21.27-9.26-14.15-10.17-27.79-21.04-42.02-31.12-7.31-5.18-14.81-10.06-22.46-14.74-7.12-4.35-14.22-9.31-22.05-12.29-4.17-1.59-8.46-2.78-12.78-3.91-3.51-.91-7.8-1.45-10.49-4.16-3.14-3.16-3.71-9.06-4.77-13.18-1.31-5.07-2.62-10.15-3.85-15.24-1.06-4.42-2.31-8.9-3.2-13.36-.99-4.97.07-10.04.69-14.99,1.25-10.04,2.51-20.15,4.56-30.05,1.01-4.9-8.71-7.23-9.72-2.35-1.78,8.63-2.92,17.42-4.06,26.15-.58,4.41-1.29,8.86-1.59,13.3s.59,8.41,1.66,12.75c2.24,9.08,4.27,18.21,6.67,27.26,1.81,6.84,3.41,12.7,9.72,16.65,6.21,3.9,14.04,4.59,20.91,6.84,8.74,2.87,16.57,8.39,24.35,13.19,15.7,9.69,30.43,20.73,45.18,31.78,12.68,9.5,25.48,21.27,41.64,24.04,8.8,1.51,18.69.31,27.6.29,4.63,0,9.27,0,13.9,0,3.37.01,6.62.19,9.12-2.39s3.99-6.47,5.75-9.52c2.04-3.54,4.7-7.02,6.21-10.82,2.68-6.76-.58-14.98-2.46-21.6-2.38-8.39-6.45-15.24-10.22-22.98-1.83-3.76-3.15-7.69-4.31-11.7-1.25-4.34-3.2-9.29-3.63-13.78-.47-4.9,1.96-11.02,3.01-15.83s1.88-9.85,3.57-14.49c3.44-9.41,8.98-18.33,13.54-27.24,4.29-8.37,11.77-13.59,18.67-19.73,1.43-1.27,3.75-4.35,5.9-4.3,1.71.05,4.52,1.8,6.06,2.42,4.77,1.89,9.54,3.78,14.31,5.67,2.61,1.03,5.82.88,7-2.03,2.8-6.86,5.5-13.77,8.43-20.57s9.59-11.11,14.65-16.07,10.1-10.2,14.81-15.61c1.84-2.12,4.3-4.38,5.02-7.22.85-3.37.39-7.38.46-10.8.13-6.46,1.5-13.46-1.92-19.3-3.15-5.39-7.39-10.56-11.84-14.92-4.88-4.78-10.27-7.56-13.73-13.62-.78-1.37-2.06-2.73-2.25-4.34-.22-1.86,1.33-3.22,2.39-4.78,2.25-3.33,4.45-6.71,6.67-10.06,1.16-1.75.03-3.44-1.24-4.66-13.17-12.57-26.17-25.32-39.27-37.97-2.58-2.49-5.35-6.13-8.71-7.62s-7.69-1.1-11.4-1.2c-8.48-.23-17-.29-25.46-.72-6.84-.34-17.79-1.05-21.19-7.98s-2.56-17.47-2.44-25.13c.08-4.5,3.7-9.16,5.81-13.07,2.32-4.3,4.63-8.61,6.85-12.96,3.97-7.82,7.41-15.9,10.95-23.91,3.25-7.35-.33-15.08-2.06-22.54-.82-3.55-1.17-7.58-2.64-10.93s-4.56-4.8-7.45-6.54c-15.61-9.4-30.94-19.24-46.47-28.77-6.58-4.04-14.41-3.66-21.75-2.09-8.08,1.73-16.32,5.79-24.69,3.36-7.26-2.11-12.98-7.45-17.68-13.14-2.82-3.41-5.65-6.79-8.59-10.1-2.71-3.05-5.85-5.95-6.91-10.01-2.04-7.76-.17-15.94-8.04-20.92-6.19-3.92-12.76,1.08-16.67,5.7-2.2,2.59-5.55,8.96-9.47,8.81s-8.73-3.82-11.94-5.73c-3.62-2.15-7.14-4.48-10.78-6.6-4.12-2.4-8.6-3.92-12.99-5.73-3.16-1.3-8-.21-6.78,4.03.41,1.42.81,2.84,1.22,4.27l2.95-4.57c-5.51,1.41-11.01,2.87-16.53,4.23-5.2,1.29-11.56,3.92-16.71,1.59-7.56-3.42-17.74-10.2-25.82-3.89-2.65,2.07-5.35,4.96-7.45,7.58-2.85,3.57-3.21,7-3.96,11.31-.37,2.11-1.19,4.02-2.48,5.74-.61.81-1.29,1.6-2.04,2.28-1.93,1.73.11.46-1.51-.08-5.79-1.91-11.47-5.08-17.05-7.53-1.84-.81-5.46-1.13-6.59,1.1-3.88,7.6-7.75,15.22-11.66,22.8-1,1.94-1.91,4.84-3.53,6.35-1.2,1.12-3.58,1.73-5.03,2.39-3.32,1.53-6.65,3.03-9.99,4.52-4.58,2.03-7.79,3.36-12.82,3.26-3.9-.08-7.79-.18-11.68-.41-8.75-.52-17.5-1.6-26.17-2.85-16.14-2.34-32.35-1.25-48.59-.7-4.47.15-8.26.63-12.46-1-3.06-1.19-8.77-2.84-10.86-5.26-2.27-2.63-2.77-8.17-3.64-11.55-1.08-4.23-2.12-8.46-3.17-12.69-.67-2.66-3.83-4.68-6.61-3.9-9.11,2.55-18.04,5.93-26.97,9.05s-17.06,6.23-25.32,10.78c-17.73,9.78-35.34,19.76-52.99,29.68s-35.99,19.45-53.45,29.98c-6.76,4.08-2.31,13.24-1.09,19.52,1.83,9.47,3.74,18.93,6.44,28.2,2.49,8.54,5.62,16.9,9.56,24.88s7.53,15.36,13.67,21.43c3.23,3.19,6.52,6.31,9.83,9.4s6.89,7.41,10.89,9.76c3.37,1.98,7.3,1.36,11.02,1.03,4.67-.42,9.42-1.13,13.96-2.31,3.87-1.01,7.31-2.61,10.87-4.38,4.77-2.38,8.41-3.78,13.84-3.75,4.26.02,10.78-.85,14.69.77s8.06,6.67,11.1,9.63c3.37,3.29,4.17,7.98,5.54,12.37,1.53,4.89,3.03,9.79,4.54,14.68,2.6,8.42,4.58,17.32,9.23,24.89,2.62,4.27,5.5,8.77,8.71,12.63,2.68,3.22,6.61,4.18,10.46,5.47,9.88,3.31,19.78,2.17,29.98,3.24,4.8.51,10.46,2.21,14.04,5.57,3.08,2.89,4.72,7.32,5.78,11.33,2.83,10.65,4.76,21.64,7.42,32.36.91,3.67,5.64,5.06,8.67,3.02,3.69-2.48,7.33-5.33,11.2-7.51,4.88-2.76,12.25-3.34,17.78-3.64,10.57-.58,22.94,1.87,31.91,7.72s16.25,11.82,20.24,21.79,4.92,22.29,4.09,33.35c-.4,5.39-1.18,10.75-2.05,16.08-.78,4.81-2.36,9.96-1.11,14.8,2.2,8.5,10.46,13.61,17.75,17.48,4.41,2.34,9.53,3.26,14.34,4.46,5.22,1.3,10.58,3.45,15.99,3.68,4.85.21,8.95-1.65,13.39-3.3s8.86-2.92,12.96-5.06c4.99-2.61,8.89-6.82,13.14-10.45,5.22-4.45,10.44-8.89,15.65-13.34s9.93-8.48,14.88-12.73c2.47-2.13,4.95-4.26,7.41-6.4,2.19-1.9,4.9-5.62,8-4.58,5.94,2.01,7.59-5.32,1.76-7.29Z"/>
    </g>
  </g>
</svg>