<?xml version="1.0" encoding="UTF-8"?>
<svg xmlns="http://www.w3.org/2000/svg" viewBox="0 0 977.95 979.65">
  <defs>
    <style>
      .cls-1, .cls-2, .cls-3 {
        stroke-width: 0px;
      }

      .cls-2 {
        fill: #6f9974;
      }

      .cls-3 {
        fill: #a86968;
      }
    </style>
  </defs>
  <g id="Cercle">
    <path class="cls-1" d="m970,490.85c-.07,50.32-7.77,100.64-23.43,148.49-15.1,46.14-37.2,89.86-65.42,129.37-27.94,39.12-61.74,73.93-99.93,103.12-38.54,29.45-81.72,53.03-127.34,69.52-46.93,16.97-96.45,26.56-146.32,28.34-50.63,1.8-101.56-4.17-150.28-18.11-46.78-13.39-91.48-33.91-132.15-60.62-40.22-26.42-76.42-59.03-107.1-96.09-30.86-37.28-56.02-79.3-74.4-124.07-18.93-46.08-30.52-95.25-34.28-144.92-3.83-50.69.24-101.88,12.3-151.27,11.52-47.18,30.35-92.6,55.61-134.07,25.03-41.09,56.17-78.33,92.18-110.24,36.15-32.03,77.12-58.52,121.14-78.41,45.15-20.39,93.53-33.57,142.74-39.19,50.64-5.79,102.31-3.43,152.24,6.76,48.08,9.82,94.61,27.24,137.45,51.15,42.1,23.5,80.56,53.39,113.86,88.25,33.36,34.91,61.38,74.79,82.94,118,22.02,44.15,37.07,91.65,44.61,140.4,3.77,24.35,5.55,48.96,5.59,73.59,0,6.54,7.96,3.11,7.95-2.05-.07-51.36-7.98-102.68-23.9-151.53-15.29-46.92-37.65-91.46-66.28-131.66-28.45-39.95-62.78-75.63-101.76-105.42-39.09-29.87-82.65-53.88-128.88-70.74S558.53,2.13,507.56.31c-51.52-1.84-103.38,4.38-152.93,18.64s-92.94,34.64-134.16,61.94c-40.76,27-77.35,60.01-108.48,97.71-31.45,38.1-57.11,81.04-75.76,126.78S5.36,402.4,1.45,453.08c-3.96,51.44.19,103.57,12.35,153.71,11.74,48.42,31.01,95.04,56.87,137.63,25.35,41.74,56.97,79.7,93.48,112.13,36.79,32.68,78.56,59.84,123.41,80.1s94.82,34.13,144.73,39.84c51.56,5.89,104.11,3.56,154.95-6.9,48.96-10.07,96.35-27.83,139.93-52.3,42.64-23.95,81.71-54.36,115.4-89.81,33.95-35.73,62.48-76.44,84.42-120.58,22.3-44.87,37.62-93.25,45.21-142.78,3.82-24.92,5.71-50.11,5.75-75.32,0-6.54-7.94-3.11-7.95,2.05Z"/>
  </g>
  <g id="Fait_au_Maroc" data-name="Fait au Maroc">
    <path class="cls-3" d="m203.84,783.36c-7.7-.26-12.78-8.08-9.91-15.23.05-.13.1-.26.16-.39,5.19-13.17,59.1-6.16,78.14-31.16s16.25-24.61,35.65-35.81c19.4-11.2,32.83-49.63,47.11-61.91,14.29-12.28,13.43-34.76,4.36-51.02s-11.52-53.19,5.36-78.12c32.57-48.14,6.95-42.5,31.57-71.14,22.24-25.85,11.7-37.44,93.22-74.43,60.78-27.57,37.92-136.82,85.26-145.79,30.52-5.78-3.4,50.04,68.06,47.63s63.45-15.05,106.95,15.77,8.2,92.57,32.35,133.7,34.81,58.41,12.48,69.27c-22.33,10.86-46.14-19.11-84.74,6.87s-49.11,48.16-30.85,64.57-29.76,21.48-49.75,42.94c-19.99,21.47-47.34,25.28-46.67,47.87s-28.15,5.69-68.24,13.64c-40.09,7.95-98.89,30.03-98.99,73.49s-5.06,41.62-30.08,48.54c-19.8,5.48-134.46,2.29-181.45.72Z"/>
    <g>
      <path class="cls-2" d="m443.47,469.18c5.8.06,11.59.16,17.39.17,14.03.02,28.06-.07,42.09.07,3.01.03,4.42-.9,5.31-3.87,5.54-18.45,11.28-36.84,16.99-55.23.37-1.18.39-2.59,1.6-3.49,1.17.93,1.22,2.32,1.59,3.52,5.82,18.66,11.62,37.32,17.35,56,.63,2.05,1.46,3.14,3.83,3.13,19.64-.08,39.28-.06,58.93-.08.83,0,1.66-.18,2.5-.27v1.12c-1.41-.2-2.2.88-3.13,1.59-15.31,11.7-30.57,23.47-45.93,35.09-2.23,1.68-2.76,3.2-1.91,5.87,5.42,17.12,10.69,34.28,15.97,51.44.9,2.94,2.09,5.81,2.5,8.89-.98-.71-1.98-1.41-2.94-2.14-15.37-11.72-30.77-23.41-46.08-35.2-1.97-1.51-3.34-1.69-5.33-.07-4.41,3.6-9.01,6.97-13.54,10.42-11.81,8.99-23.64,17.96-35.46,26.95.29-1.18.53-2.37.89-3.53,5.88-19.12,11.75-38.25,17.72-57.35.7-2.25.25-3.57-1.6-4.98-15.65-11.87-31.22-23.83-46.83-35.74-.79-.6-1.5-1.47-2.69-1.24,0-.19,0-.37,0-.56.27-.17.54-.33.82-.5Zm110.35,67.84l-.04.04c-1.27-6.02-3.47-11.77-5.21-17.65-.34-1.16-1.04-1.48-2.07-.68-2.43,1.88-4.88,3.73-7.31,5.62-.85.66-.9,1.38.01,2.03,4.91,3.5,9.32,7.7,14.63,10.64Zm-26.98-53.94c-2.71,0-5.42.05-8.13-.02-1.65-.05-2.57.57-3.05,2.19-1.65,5.55-3.34,11.09-5.13,16.6-.52,1.61-.13,2.58,1.18,3.56,4.49,3.35,8.95,6.75,13.34,10.23,1.36,1.07,2.37.99,3.68-.04,4.34-3.4,8.72-6.74,13.15-10.02,1.39-1.03,1.86-2.05,1.29-3.78-1.78-5.41-3.47-10.85-5.04-16.33-.55-1.91-1.6-2.49-3.45-2.42-2.61.1-5.23.02-7.85.03Zm-26.65,53.41c.38.03.62.13.73.05,4.56-3.39,9.12-6.79,13.66-10.22,1.19-.9.37-1.6-.4-2.2-2.21-1.71-4.47-3.38-6.66-5.12-1.44-1.14-2.1-.57-2.55.94-.82,2.77-1.76,5.51-2.54,8.3-.76,2.73-2,5.35-2.24,8.26Zm69.82-52.53c-.1-.28-.2-.56-.3-.83-5.65,0-11.3-.01-16.95.01-1.36,0-1.48.93-1.17,1.95.86,2.85,1.76,5.69,2.65,8.53.35,1.11,1.02,1.61,2.07.82,4.58-3.47,9.13-6.98,13.69-10.47Zm-86.05-.89c-.05.31-.11.62-.16.93,3.47,2.67,6.92,5.36,10.41,8,4.92,3.72,4.49,4.36,6.45-2.11q2.08-6.83-5.08-6.82c-3.88,0-7.75,0-11.63,0Zm43.34-32.37c-.31,0-.62-.02-.94-.03-1.71,5.6-3.43,11.19-5.12,16.79-.35,1.16.21,1.82,1.4,1.83,2.8.03,5.6.03,8.4,0,1.42-.01,1.77-.85,1.39-2.07-1.7-5.51-3.42-11.02-5.14-16.53Zm8.4,18.57c-.08.07-.17.13-.25.2h8.62c0-.07,0-.13,0-.2h-8.37Z"/>
      <path class="cls-2" d="m569.34,564.26s.07-.06.07-.06c0,0-.07.06-.07.06Z"/>
    </g>
    <path class="cls-1" d="m183.39,754.22c-5.22-.48-9.06-5.65-7.06-10.77.3-.77.98-1.3,2.84-2.1,6.18-2.68,13.34-3.39,19.91-4.53,16.24-2.81,33.96-5.73,47.31-16.15,12.52-9.77,17.91-26.42,31.12-35.43,7.17-4.89,14.77-8.46,20.79-14.91,6.64-7.13,11.89-15.44,16.91-23.74s9.43-16.45,15.08-24.03,12.88-12.47,16.05-21.74,2.88-19.91,0-29.37c-2.7-8.88-7.8-16.42-9.7-25.63-4.56-22.07-.22-44.21,12.06-62.94,8.58-13.09,16.05-26.82,17.49-42.61.37-4.09.77-7.94,2.47-11.73,2.78-6.2,7.61-11.19,11.82-16.42,5.62-6.99,9.95-14.83,15.22-22.06,6.4-8.78,14.92-15.72,24.06-21.69,8.28-5.41,16.99-10.17,25.81-14.64,10.29-5.22,21.5-9.21,31.25-15.39,27.13-17.2,35.85-50.5,42.99-79.77,3.4-13.93,6.38-28.29,12.25-41.45,4.19-9.39,11.08-19.06,22.22-19.99,3.03-.25,5.07.36,6.58,2.37,2.09,2.78,2.72,6.16,3.6,9.6,2.38,9.29,5.14,18.33,12.42,25.03,12.29,11.31,31.24,11.45,46.84,10.8,17.7-.73,35.19-3.07,52.84-4.26,10.13-.68,18.88,1.34,27.73,6.36,15.05,8.54,31.23,18.77,37.58,35.65,6.74,17.89,4.55,37.87,4.2,56.55-.37,19.41.83,38.47,10.83,55.59,5.97,10.21,12.18,20.34,17.38,30.98,2.96,6.06,6.94,13.96,5.71,20.98-.98,5.6-6.73,9.18-11.86,10.57-6.74,1.83-14.08-.18-20.65-1.79-8.53-2.09-17.12-4.19-25.97-4.04-11.06.18-21.5,3.5-31.05,9.01-10.72,6.18-21.08,14.26-29.86,22.97-6.33,6.29-12.53,13.69-15.39,22.29-2.16,6.5-2.12,13.29.91,19.5,1.45,2.97,3.54,5.54,5.86,7.87,1.48,1.49,4.57,3.6,4.41,6.02-.23,3.54-9.16,7.02-12.16,8.47-7.75,3.74-15.65,7.18-23.14,11.43-8.79,4.99-15.14,11.63-22.62,18.22-8.11,7.14-17.68,12.2-26.33,18.59-6.58,4.85-12.89,10.74-15.2,18.86-1.27,4.48.75,13.48-4.05,14.86-6.86,1.98-15.49.2-22.47-.15-10.87-.54-21.82-.47-32.6,1.17-18.74,2.85-37.65,8.59-54.92,16.37-16.89,7.61-33.76,17.93-44.53,33.4-4.68,6.72-7.91,14.4-9.15,22.51-1.5,9.83-.32,19.98-1.49,29.89-.57,4.85-1.46,10.82-5.03,14.02-2.55,2.29-7.98,3.72-12.18,4.87-10.37,2.85-20.46,3.86-31.21,4.29-36.49,1.46-73.13.47-109.62-.42-15.44-.38-30.88-.83-46.31-1.34-4.78-.16-9.3,8.07-3.1,8.28,36.39,1.21,72.79,2.17,109.2,2.34,28.03.13,57.08,1.68,84.28-6.05,11.88-3.38,19.81-9.36,22.41-21.9,1.94-9.34,1.68-19.03,1.85-28.51.16-8.77,2.58-16.99,7.47-24.31,10.49-15.72,28.55-25.43,45.63-32.33,19.08-7.71,40.08-13.66,60.73-14.25,9.82-.28,19.57.74,29.38.97,6.45.15,13.82.03,18.97-4.43,6.38-5.52,3.63-12.55,5.86-19.64,2.66-8.43,11.69-13.43,18.62-17.95,9.54-6.22,18.35-12.73,26.4-20.81,6.35-6.37,14.45-10.72,22.47-14.62,7.35-3.56,15.07-6.64,22.04-10.94,4.76-2.94,10.68-7.57,10.07-13.88s-7.6-9.8-10.51-15.11c-3.38-6.15-2.39-13.1.78-19.13,4.96-9.43,13.56-16.97,21.81-23.46,10.51-8.26,21.91-16.36,35.46-18.25,17.2-2.4,32.87,7.29,49.84,5.95,13.33-1.05,27.4-11.17,26.35-25.63-.61-8.34-4.7-16.4-8.48-23.69-5.71-11.02-12.82-21.33-18.37-32.41-8.84-17.65-7.39-38.58-6.87-57.71.52-18.79,1.06-39.07-8.44-55.99-4.88-8.69-12.16-14.86-20.23-20.46-6.27-4.36-12.64-8.65-19.43-12.17-9.95-5.15-19.92-6.37-30.99-5.56-18.62,1.36-37.07,3.93-55.77,4.32-14.03.29-31.57-1.03-40.36-13.67-5.12-7.36-5.68-16.19-8.79-24.35-3.4-8.93-10.99-11.4-20.02-9.29-12.73,2.99-21.36,12.53-26.98,23.88-6.42,12.97-9.53,27.44-12.93,41.42-3.88,15.95-7.74,32.1-14.59,47.09-6.29,13.75-15.71,26.17-29.53,32.96-19.6,9.64-39.79,18.21-57.61,31.04-9.04,6.51-16.99,14.04-23.36,23.2-5.39,7.76-10.15,15.79-16.27,23.03-4.57,5.41-9.14,11.25-11.47,18.04-1.44,4.19-1.73,8.51-2.16,12.88-1.79,18.01-13.57,31.14-21.69,46.58-9.92,18.84-12.13,42.58-6.81,63.15,2.37,9.17,7.94,16.95,9.96,26.23,2.26,10.36,1.34,22.48-6.27,30.54-6.06,6.41-11.29,12.52-15.98,20.09-5.59,9.04-10.7,18.4-16.81,27.12-5.56,7.94-11.46,13.45-19.72,18.37-5.71,3.4-11.2,7.1-15.62,12.12-6.35,7.21-11.35,15.5-17.46,22.9-5.36,6.48-12.86,10.1-20.71,12.7-15.21,5.03-31.77,4.95-46.79,10.42-4.77,1.74-9.42,4.54-11.33,9.48-3.7,9.56,2.92,18.8,12.77,19.7,4.81.44,9.31-7.71,3.1-8.28Z"/>
  </g>
</svg>