<?xml version="1.0" encoding="UTF-8"?>
<svg xmlns="http://www.w3.org/2000/svg" viewBox="0 0 977.95 979.65">
  <defs>
    <style>
      .cls-1 {
        fill: #e6e6e6;
      }

      .cls-1, .cls-2, .cls-3, .cls-4 {
        stroke-width: 0px;
      }

      .cls-3 {
        fill: #7eb5d0;
      }

      .cls-4 {
        fill: #a86968;
      }
    </style>
  </defs>
  <g id="Cercle">
    <path class="cls-2" d="m970,490.85c-.07,50.32-7.77,100.64-23.43,148.49-15.1,46.14-37.2,89.86-65.42,129.37-27.94,39.12-61.74,73.93-99.93,103.12-38.54,29.45-81.72,53.03-127.34,69.52-46.93,16.97-96.45,26.56-146.32,28.34-50.63,1.8-101.56-4.17-150.28-18.11-46.78-13.39-91.48-33.91-132.15-60.62-40.22-26.42-76.42-59.03-107.1-96.09-30.86-37.28-56.02-79.3-74.4-124.07-18.93-46.08-30.52-95.25-34.28-144.92-3.83-50.69.24-101.88,12.3-151.27,11.52-47.18,30.35-92.6,55.61-134.07,25.03-41.09,56.17-78.33,92.18-110.24,36.15-32.03,77.12-58.52,121.14-78.41,45.15-20.39,93.53-33.57,142.74-39.19,50.64-5.79,102.31-3.43,152.24,6.76,48.08,9.82,94.61,27.24,137.45,51.15,42.1,23.5,80.56,53.39,113.86,88.25,33.36,34.91,61.38,74.79,82.94,118,22.02,44.15,37.07,91.65,44.61,140.4,3.77,24.35,5.55,48.96,5.59,73.59,0,6.54,7.96,3.11,7.95-2.05-.07-51.36-7.98-102.68-23.9-151.53-15.29-46.92-37.65-91.46-66.28-131.66-28.45-39.95-62.78-75.63-101.76-105.42-39.09-29.87-82.65-53.88-128.88-70.74S558.53,2.13,507.56.31c-51.52-1.84-103.38,4.38-152.93,18.64s-92.94,34.64-134.16,61.94c-40.76,27-77.35,60.01-108.48,97.71-31.45,38.1-57.11,81.04-75.76,126.78S5.36,402.4,1.45,453.08c-3.96,51.44.19,103.57,12.35,153.71,11.74,48.42,31.01,95.04,56.87,137.63,25.35,41.74,56.97,79.7,93.48,112.13,36.79,32.68,78.56,59.84,123.41,80.1s94.82,34.13,144.73,39.84c51.56,5.89,104.11,3.56,154.95-6.9,48.96-10.07,96.35-27.83,139.93-52.3,42.64-23.95,81.71-54.36,115.4-89.81,33.95-35.73,62.48-76.44,84.42-120.58,22.3-44.87,37.62-93.25,45.21-142.78,3.82-24.92,5.71-50.11,5.75-75.32,0-6.54-7.94-3.11-7.95,2.05Z"/>
  </g>
  <g id="Fait_in_France" data-name="Fait in France">
    <g>
      <path class="cls-3" d="m389.05,832.63c-18.58-7.43-36.77-16.03-55.1-24.14-8.24-3.64-9.85-9.03-4.12-17.39,5.63-8.21,11.98-17.49,13.18-26.92,5.83-46.19,11.77-92.49,14.17-138.93,1.38-26.63-9.68-49.59-34.15-65.73-8.81-5.81-12.38-19.85-17.83-30.4-6.02-11.65-8.68-26.89-17.82-34.65-13.69-11.62-31.19-19.48-48.14-26.32-15.5-6.26-32.61-8.45-48.61-13.64-6.5-2.11-11.95-7.42-17.88-11.27,4.59-4.92,9.22-9.8,13.71-14.79.68-.75.75-2.05,1.21-3.41-8.46-3.84-16.92-7.68-25.38-11.52v-10.14c7.73-3.71,15.15-8.53,23.27-10.9,15.3-4.45,30.9-8.26,46.62-10.79,7.12-1.14,15.02.68,22.26,2.44,14.5,3.5,28.85,11.22,43.14,10.95,14-.26,31.59-4.58,40.81-13.86,11.85-11.94-2.33-25.54-9.1-37.45-6.11-10.74-11.15-23.2.09-32,11.57-9.06,19.05,3.14,26.41,10.31,10,9.74,21.08,15.53,33.03,17.33l.23,493.22Z"/>
      <path class="cls-4" d="m841.67,379.72c-16.11,25.09-27.44,51.38-23.45,82.36,1.62,12.58-3.69,19.54-18,20.55-6.62.47-14.88,6.15-18.77,11.91-15.69,23.29-30.27,47.36-44.53,71.58-3.15,5.34-3.3,12.45-4.83,18.74,2.53,1.63,5.07,3.26,7.61,4.89,5.9-9.94,11.81-19.87,17.19-28.92,22.19,16.16,28.24,33.87,23.15,51.88-1.18,4.17,1.21,10.79,4.2,14.43,12.84,15.6,13.15,17.45-3.91,29.78-7.81,5.64-8.63,10.99-5.4,20.01,3.58,9.97,5.38,21.03,5.55,31.65.25,15.86,8.1,24.86,24.01,26.24,6.47.56,12.7,4.06,19.03,6.22-2.85,7-3.87,15.99-8.9,20.61-17.36,15.94-35.52,31.18-54.53,45.1-15.72,11.5-32.24,10.67-50.77,2.21-21.7-9.89-45.01-17.77-68.44-22.01-8.99-1.63-17.62-.84-25.39,1.85l-.26-544.76c9.53,7.26,17.71,16.4,24.77,26.92,3.31,4.94,13.7,10.08,18.28,8.35,16.99-6.41,23.82,1.6,32.23,14.56,6.48,9.99,16.91,19.85,27.8,24.11,38.7,15.16,78.36,27.88,117.63,41.6,2.04.72,3.83,2.15,5.73,3.24v16.9Z"/>
      <path class="cls-1" d="m615.49,788.8c-19.24,6.69-33.15,25.1-33.89,47.53-.53,15.85-6.39,26.75-20.47,33.49h-27.04c-14.72-7.83-31.24-13.52-43.7-24.03-15.28-12.88-29.56-15.7-47.97-9.49-10.26,3.46-23.04,7.22-32.42,4.08-7.06-2.36-14.03-4.97-20.95-7.75l-.23-493.22c8.72,1.32,17.9.52,27.45-2.41,4.71-1.45,10.72-9.92,10.3-14.63-1.06-11.63,3.48-18.47,12.9-22.96,8.09-3.86,16.58-6.93,24.96-10.14,30.58-11.73,39.49-21.45,36.89-53.89-1.81-22.74,6.05-34.75,26.01-41.56h16.9c9.08,20.75,26.61,29.94,46.99,37.17,8.84,3.13,16.81,7.55,24.01,13.05l.26,544.76Z"/>
    </g>
    <path class="cls-2" d="m811.61,331.41c0,4.67,1,10.5,0,15.02-.81,3.67-4.25,7.56-6.13,10.88-4.24,7.5-8.01,15.31-11.02,23.39-6,16.09-8.3,33.18-6.39,50.26.62,5.55.72,10.85-5.08,13.3-3.09,1.3-6.3,1.26-9.54,1.82-3.54.61-6.86,2.07-9.92,3.92-7.55,4.57-11.89,11.43-16.64,18.64-5.62,8.53-11.1,17.16-16.49,25.84-6.06,9.77-11.99,19.62-17.86,29.51-2.5,4.22-5.37,8.37-7.02,13.02-1.74,4.9-2.1,10.15-3.23,15.2-.41,1.83-.43,3.85,1.33,4.98,2.54,1.63,5.07,3.26,7.61,4.89,2.11,1.36,4.72-.79,5.73-2.49,5.73-9.64,11.46-19.28,17.19-28.92l-5.73,2.49c13.21,9.8,25.05,23.73,22.95,41.23-.4,3.35-1.68,6.57-1.69,9.96-.02,3.94,1.31,7.93,3.23,11.34,1.86,3.29,4.55,6.03,6.81,9.04,1.16,1.55,3.96,4.6,3.75,6.76-.15,1.58-2.3,3.1-3.44,4.07-3.23,2.77-6.93,4.97-10.08,7.84-5.1,4.66-7.72,10.83-6.6,17.76.65,4,2.31,7.76,3.44,11.64,1.49,5.12,2.43,10.41,3.01,15.71.85,7.74.1,15.7,3.1,23.07,2.64,6.49,7.77,11.32,14.31,13.76,3.75,1.4,7.47,1.7,11.37,2.35,5.76.95,11.02,3.74,16.47,5.69l-1.33-4.98c-1.42,3.67-2.37,7.47-3.64,11.19-1.49,4.39-3.76,6.94-7.16,10.02-7.37,6.67-14.87,13.19-22.52,19.54s-14.96,12.13-22.66,17.91c-7.29,5.47-14.42,10.27-23.71,11.33s-18.27-1.47-26.58-5.03c-9.07-3.89-18.05-7.85-27.35-11.18-8.75-3.13-17.63-5.91-26.65-8.2-8.47-2.15-17.25-4.46-26.03-4.57-28.27-.35-51.34,21.83-55.35,49.27-1.03,7.02-.46,14.1-3.29,20.79-2.41,5.68-8.56,13.1-15.12,13.65-4.75.4-9.71,0-14.49,0-2.52,0-5.22.25-7.73,0s-4.6-1.57-6.88-2.69c-7.8-3.82-15.79-7.26-23.4-11.44-14.23-7.8-25.16-20.91-42.25-22.4-7.93-.69-15.55.89-23.07,3.3-8.62,2.77-18.26,6.24-27.44,4.52s-19.05-6.52-27.93-10.19c-9.17-3.78-18.24-7.81-27.29-11.88-4.67-2.1-9.34-4.22-14.02-6.32-3.95-1.77-8.9-3.19-12.33-5.89-2.71-2.14-2.63-4.3-1.03-7.19,2.3-4.17,5.37-7.93,7.81-12.03,9.8-16.48,9.68-36.88,11.95-55.48,2.5-20.51,4.84-41.05,6.69-61.63.94-10.44,1.76-20.9,2.41-31.36.51-8.14,1.09-16.3.14-24.43-1.65-14.13-7.38-27.59-16.57-38.47-5.04-5.97-11.03-11.04-17.43-15.5s-9.59-11.18-12.66-18.25-6.78-14.39-9.64-21.81c-2.67-6.93-5.13-14.08-9.42-20.22-4.64-6.63-12.27-11.39-19.07-15.53-7.9-4.82-16.27-8.82-24.76-12.47-8.18-3.52-16.41-6.73-25-9.08-9.31-2.55-18.79-4.44-28.08-7.05-9.09-2.55-15.27-7.58-22.97-12.75l.02,7.29c5.66-6.06,13.97-12.31,16.23-20.51.43-1.55.48-4.16-1.33-4.98-8.46-3.84-16.92-7.68-25.38-11.52l1.59,3.75c0-3.38,0-6.76,0-10.14l-3.5,4.98c5.16-2.53,10.13-5.44,15.35-7.84,5.75-2.65,11.85-4.21,17.95-5.84,12.04-3.21,24.75-6.84,37.21-7.91,11.77-1.01,24.23,3.75,35.18,7.5s21.31,6.76,32.86,5.9c15.77-1.17,41.91-7.65,45.32-26.28,1.68-9.16-3.8-17.4-8.64-24.65s-12.12-16.8-11.23-25.99c.43-4.39,4.39-8.81,8.89-9.32s8.01,3.24,10.77,6.07c6.79,6.96,13.37,13.69,22.04,18.36s17.44,6.83,26.81,6.94c8.25.1,19.54-.63,26.15-6.15,3.3-2.75,5.93-6.44,7.62-10.37,1.77-4.13,1.1-7.73,1.47-12.06.88-10.42,11.7-13.59,20.03-16.94,15.36-6.18,33.84-10.84,45.27-23.75s9.59-29.92,9.27-46.14c-.16-8.15,1.34-16.66,7.38-22.58,2.96-2.9,6.65-4.98,10.43-6.62,6.33-2.76,13.98-1.59,20.79-1.59l-3.29-1.87c9.11,20.13,26.85,30.87,46.91,38.2,10.9,3.98,20.99,9.43,29.75,17.11,4.01,3.52,7.73,7.37,11.17,11.45,3.66,4.33,6.52,9.86,10.65,13.72,3.3,3.08,7.45,5.36,11.79,6.58,4.82,1.36,8.18-.43,12.82-1.41,10.07-2.13,16.16,4.18,21.45,11.88,6.63,9.63,13.71,18.46,23.84,24.64,5.56,3.39,11.85,5.42,17.91,7.72,6.68,2.53,13.39,5,20.11,7.43,14.99,5.41,30.06,10.6,45.14,15.75,8,2.73,16,5.45,24,8.19s16.08,4.89,23.2,9.27c4.24,2.6,9.22-6.07,4.94-8.69-11.31-6.95-25.5-10.09-38.03-14.36-13.54-4.62-27.08-9.22-40.57-13.96-13.78-4.84-27.51-9.83-41.13-15.1-11.86-4.59-21.41-11.91-28.88-22.27-5.02-6.96-9.35-15.47-17.75-18.91-3.8-1.56-7.91-1.83-11.95-1.2-4.93.77-8.53,3.09-13.5,1.15s-7.91-4.96-10.88-9.17c-3.28-4.65-6.85-9.1-10.75-13.24-7.45-7.93-16.13-14.82-25.78-19.87-10.78-5.65-22.7-8.5-33.25-14.7s-18.63-14.71-23.66-25.83c-.67-1.47-1.78-1.87-3.29-1.87-5.6,0-12.54-1.09-17.95.3-3.95,1.02-7.89,3.13-11.35,5.23-6.25,3.78-11.4,9.13-14.48,15.79-7.17,15.5-.65,31.96-4.44,47.93-3.3,13.89-16.48,20.01-28.65,24.93-16.65,6.74-42.28,11.34-45.25,32.72-.5,3.61.59,7.51-1.13,10.8-2.74,5.24-7.04,6.38-12.53,7.41-10.07,1.89-20.55,1.25-30.09-2.63-9.29-3.78-16.88-10.03-23.68-17.28-5.21-5.57-11.3-11.87-19.66-10.17s-15.73,10.5-16.74,19.04,3.09,17.25,7.42,24.57c4.13,6.97,13.95,16.65,12.59,25.45s-17.04,13.53-24.47,15.2c-12.72,2.85-24.36,1.91-36.72-2.09s-25.43-9.43-38.87-9.68c-6.45-.12-12.95,1.48-19.24,2.76-6.89,1.4-13.73,3.03-20.52,4.8-6.27,1.64-12.74,3.14-18.76,5.57-6.38,2.58-12.3,6.19-18.47,9.21-1.73.85-3.5,2.92-3.5,4.98,0,3.38,0,6.76,0,10.14,0,1.33.15,3.1,1.59,3.75,8.46,3.84,16.92,7.68,25.38,11.52l-1.33-4.98c-.88,3.19-3.88,5.48-6.09,7.85-2.5,2.69-5.01,5.36-7.51,8.04-1.79,1.92-2.45,5.63.02,7.29,7.39,4.96,13.6,10.1,22.27,12.68,9.54,2.84,19.32,4.78,28.94,7.33,17.98,4.77,36.07,12.7,51.78,22.71,7.32,4.66,14.04,9.56,17.99,17.47,3.69,7.39,5.9,15.41,9.5,22.85,3.44,7.11,6.18,14.62,9.98,21.54s8.76,10.63,14.95,15.33c12.23,9.28,21.7,22.29,25.46,37.29,4.39,17.5,1.17,36.69-.31,54.4-1.78,21.24-4.12,42.44-6.66,63.6-1.25,10.42-2.56,20.84-3.87,31.26-.63,4.95-.83,10.21-2.34,14.98s-4.02,9.01-6.66,13.15c-3.82,5.99-9.83,12.48-8.88,20.18s8.31,10.14,14.31,12.82c18.69,8.36,37.25,17.06,56.38,24.37,8.24,3.15,16.61,7,25.59,6.68s17.38-3.48,25.88-6.07c8.11-2.47,16.67-3.18,24.88-.75,8.45,2.5,14.75,8.11,21.65,13.25s15.12,9.26,23.11,13.05c3.81,1.8,7.64,3.57,11.42,5.42,1.91.93,3.96,2.41,5.97,3.03,2.42.75,5.25.34,7.78.34,4.83,0,9.66,0,14.49,0,2.06,0,4.72.42,6.76,0s4.04-1.82,5.8-2.9c5.73-3.51,10.65-8.38,13.86-14.32,7.01-12.94,3.64-28.05,10-41.2,6.02-12.44,17.63-21.7,31.25-24.38,8.21-1.62,16.01-.55,24.11,1.14,9.65,2.02,19.19,4.6,28.56,7.66,9.65,3.14,19.13,6.82,28.42,10.91,8.22,3.61,16.39,7.23,25.41,8.28,8.16.95,16.4-.15,23.93-3.5,8.47-3.77,15.78-10.12,23.04-15.77,7.84-6.11,15.52-12.43,23.07-18.9,6.84-5.87,15.14-11.76,20.73-18.86,4.74-6.02,5.81-14.02,8.51-21,.53-1.36.42-4.35-1.33-4.98-4.04-1.44-7.95-3.24-12-4.64-4.38-1.51-8.8-1.71-13.27-2.72-6.17-1.4-11.47-4.96-14.04-10.87-3.25-7.45-2.02-16.25-3.1-24.15-.62-4.53-1.55-9.01-2.75-13.41-1.17-4.3-3.85-9.11-3.6-13.66.2-3.65,3.41-5.59,6.08-7.57,3.08-2.28,6.19-4.57,8.92-7.29,3.56-3.56,6.13-8.17,5.15-13.34-1.22-6.36-6.7-11.1-10.29-16.14-2.5-3.5-3.6-7.26-2.77-11.45.71-3.54,1.4-6.97,1.46-10.6.35-19.02-11.89-33.59-26.43-44.38-2.02-1.49-4.79.91-5.73,2.49-5.73,9.64-11.46,19.28-17.19,28.92l5.73-2.49c-2.54-1.63-5.07-3.26-7.61-4.89l1.33,4.98c.96-4.27,1.41-8.68,2.52-12.91,1.24-4.68,4.2-8.74,6.65-12.86,5.22-8.79,10.48-17.55,15.85-26.25s10.81-17.34,16.4-25.9c4.93-7.55,9.35-15.97,18.29-19.31,6.32-2.36,12.88-1.38,18.7-5.54,4.65-3.32,7.35-8.56,8.08-14.16,1.05-7.93-1.17-16.13-.79-24.14.42-8.82,2.12-17.49,4.87-25.88,3-9.17,7.18-17.87,11.95-26.25,2.18-3.83,6.22-8.26,7.19-12.57,1.19-5.27.13-12.1.13-17.51,0-6.5-8.12-4.05-8.12,1.19Z"/>
  </g>
</svg>