<?xml version="1.0" encoding="UTF-8"?>
<svg xmlns="http://www.w3.org/2000/svg" viewBox="0 0 977.95 979.65">
  <defs>
    <style>
      .cls-1 {
        fill: #e6e6e6;
      }

      .cls-1, .cls-2, .cls-3, .cls-4 {
        stroke-width: 0px;
      }

      .cls-3 {
        fill: #fff9c1;
      }

      .cls-4 {
        fill: #7eb5d0;
      }
    </style>
  </defs>
  <g id="Cercle">
    <path class="cls-2" d="m970,490.85c-.07,50.32-7.77,100.64-23.43,148.49-15.1,46.14-37.2,89.86-65.42,129.37-27.94,39.12-61.74,73.93-99.93,103.12-38.54,29.45-81.72,53.03-127.34,69.52-46.93,16.97-96.45,26.56-146.32,28.34-50.63,1.8-101.56-4.17-150.28-18.11-46.78-13.39-91.48-33.91-132.15-60.62-40.22-26.42-76.42-59.03-107.1-96.09-30.86-37.28-56.02-79.3-74.4-124.07-18.93-46.08-30.52-95.25-34.28-144.92-3.83-50.69.24-101.88,12.3-151.27,11.52-47.18,30.35-92.6,55.61-134.07,25.03-41.09,56.17-78.33,92.18-110.24,36.15-32.03,77.12-58.52,121.14-78.41,45.15-20.39,93.53-33.57,142.74-39.19,50.64-5.79,102.31-3.43,152.24,6.76,48.08,9.82,94.61,27.24,137.45,51.15,42.1,23.5,80.56,53.39,113.86,88.25,33.36,34.91,61.38,74.79,82.94,118,22.02,44.15,37.07,91.65,44.61,140.4,3.77,24.35,5.55,48.96,5.59,73.59,0,6.54,7.96,3.11,7.95-2.05-.07-51.36-7.98-102.68-23.9-151.53-15.29-46.92-37.65-91.46-66.28-131.66-28.45-39.95-62.78-75.63-101.76-105.42-39.09-29.87-82.65-53.88-128.88-70.74S558.53,2.13,507.56.31c-51.52-1.84-103.38,4.38-152.93,18.64s-92.94,34.64-134.16,61.94c-40.76,27-77.35,60.01-108.48,97.71-31.45,38.1-57.11,81.04-75.76,126.78S5.36,402.4,1.45,453.08c-3.96,51.44.19,103.57,12.35,153.71,11.74,48.42,31.01,95.04,56.87,137.63,25.35,41.74,56.97,79.7,93.48,112.13,36.79,32.68,78.56,59.84,123.41,80.1s94.82,34.13,144.73,39.84c51.56,5.89,104.11,3.56,154.95-6.9,48.96-10.07,96.35-27.83,139.93-52.3,42.64-23.95,81.71-54.36,115.4-89.81,33.95-35.73,62.48-76.44,84.42-120.58,22.3-44.87,37.62-93.25,45.21-142.78,3.82-24.92,5.71-50.11,5.75-75.32,0-6.54-7.94-3.11-7.95,2.05Z"/>
  </g>
  <g id="Fait_en_Europe" data-name="Fait en Europe">
    <path class="cls-1" d="m325.47,503.16c1.79,0,3.28-.39,3.14-2.74-.49-7.95-.82-15.92-1.43-23.86-.36-4.73-.55-4.72,3.86-6.56.36-.15.68-.45,1.04-.52,1.89-.36,3.79-.68,5.79-1.03q-.3,11.63,7.99,14.49c-.82,2.36-1.52,4.79-2.49,7.09-2.52,5.95-3.67,11.82.41,17.57.95,1.33,2.13,2.5,3.05,3.85,2.23,3.26,4.04,6.89,6.64,9.81,2.98,3.34,6.64,6.07,10.03,9.04.4.35.94.59,1.46.71,3.25.76,4.42,3.12,4.77,6.11.09.78.13,1.56.23,2.33.43,3.46-.75,4.81-4.06,5.93-4.62,1.57-9.23,3.31-13.63,5.41-4.18,1.99-8.1,4.53-12.13,6.83,1.13-2.62,2.37-5.03,3.99-7.15,2.61-3.41.31-5.81-1.39-8.37-1.39-2.09-3.58-1.56-5.52-1.35-1.11.12-2.18.78-3.22,1.28l-9.1-2.96c3.77-5.55,7.6-11.06,11.42-16.58.81-1.17.9-2.18-.13-3.36-1.01-1.17-1.87-2.5-2.62-3.85-.68-1.21-2.01-2.38-.82-4.01l-7.28-8.14Z"/>
    <path class="cls-1" d="m319.52,508.74c1.09.27,2.3,1.55,2.74,2.66,2.31,5.93,3,11.89-.14,17.86-3.25,6.18-6.77,12.17-12.43,16.45-4.33,3.28-9.27,4.78-14.76,3.45-3.74-.91-5.38-3.54-4.66-7.31.53-2.79,1.88-5.07,4.03-6.93,3.7-3.21,3.76-4.04,1.77-8.13-2.42-5,0-8.63,3.46-11.53,3.27-2.75,6.4-5.67,9.57-8.54.46-.41.85-.91,1.24-1.4,1.24-1.53,2.56-2.58,4.53-1.03l4.66,4.45Z"/>
    <path class="cls-4" d="m466.8,685.79c-.79,1.11-2.11,2.69-3.14,2.64-4.49-.19-8.99-.73-13.42-1.48-2.56-.43-5.12-1.56-5.4-4.67-.29-3.24,2.55-3.86,4.73-4.63,2.48-.88,5.12-1.57,7.72-1.72,1.02-.06,2.14,1.59,3.38,2.6l6.13,7.25Zm181.21-313.45l10.67-2.1c1.37-.06,1.65.69,1.72,1.9.16,2.96.37,5.93.74,8.87,1.06,8.44,6.03,13.5,13.9,16.2,9.73,3.35,19.79,3.51,29.88,3.49,7.28-.01,14.54-.13,21.62,1.99,9.2,2.77,15.79,7.88,18.01,17.95,1.24,5.62,1.9,11.21,2.15,16.91.35,8.11.84,16.21,1.25,24.32.46,9.1-3.16,16.35-9.99,22.19-4.34,3.7-8.88,7.23-12.81,11.33-7.16,7.47-11.97,16.35-13.71,26.67-1.75,10.39-6.15,19.42-13.5,26.94-6.95,7.11-7.99,15.56-6.6,24.94.64,4.29,2.78,7.28,5.61,10.15,1.53,1.55,2.95,3.24,4.23,5,2.68,3.72,2.55,7.22-.54,10.65-1.56,1.73-3.45,3.15-5.23,4.68-2.5,2.16-5.06,4.33-5.63,7.79-.18,1.08.23,2.43.78,3.42,2.16,3.86,4.73,7.5,6.7,11.45,2.12,4.24.29,7.83-4.32,9.29-6.26,1.97-12.59,1.44-19.01.81-12.11-1.2-23.76-4.43-35.45-7.46-5.77-1.49-11.13-3.89-14.09-9.55-.81-1.55-1.42-3.36-1.56-5.09-.47-5.89-.68-11.79-1.01-17.98-2.04-.31-2.8.11-2.72,2.56.1,2.92.46,5.87,1.01,8.74.43,2.21-.31,3.84-1.73,5.29-5.86,6.01-13.14,8.17-21.32,7.65-2.85-.18-5.04-1.63-6.15-4.36-1.2-2.94-1.61-5.86.54-8.64,1.47-1.89,2.85-3.84,4.24-5.78.16-.22.16-.56.32-1.18-4.99-1.1-9.72-3.31-14.86-1.53-1.24.43-2.43,1.42-3.31,2.44-4.14,4.75-5.18,10.45-5.07,16.56.06,3.35-.37,6.7-.49,10.06-.13,3.43-1.97,5.61-4.88,7.14-3.17,1.67-6.35,3.33-9.43,5.15-.81.48-1.29,1.52-1.92,2.31-.66.83-6.38,7.02-6.89,6.94l-.69.48c-3.71.38-7.42.75-11.14.94-4.52.23-9.06.13-13.57.46-3.29.23-4.63,2.96-3.22,5.65,2.54,4.83,5.03,9.68,7.39,14.59.62,1.28,1.41,3.36.83,4.18-1.86,2.65-1.71,5.61-2.24,8.49-.37,2.02-2.38,3.39-4.14,2.44-5.21-2.82-10.47-5.69-12.86-11.67-1.13-2.82-2.37-5.61-3.33-8.49-.38-1.13-.28-2.48-.12-3.7.47-3.53,1.3-7.03,1.53-10.58.09-1.38-.69-3.21-1.7-4.19-4.17-4.08-8.37-8.19-12.96-11.77-6.38-4.98-13.65-8.83-18.97-15.11-3.61-4.26-7.77-8.18-9.25-13.85-.74-2.85-2.14-5.13-5.19-5.65-4.35-.74-5.96.16-8.17,3.78l-.43,11.69.36.91c7.06,7.5,14.14,14.97,21.23,22.43,3.45,3.63,7.37,6.41,12.53,7.14,3.99.57,7.42,2.27,9.9,5.62,1.79,2.42,1.64,4.38-.9,5.92-1.82,1.1-3.88,1.96-5.95,2.47-3.45.85-3.81,1.2-4.23,5.42-.08.75-.06,1.5-.02,2.26.21,4.55-4.37,6.35-8.89,7.39-2.76.63-5.17-1.95-4.37-4.66l1.15-5.3c-.91-6.67-8.72-9.46-12.22-15.02-2.79-4.43-7.42-6.26-12.26-6.97-7.33-1.07-11.79-5.6-15.3-11.5-1.03-1.73-1.8-3.63-2.49-5.52-.43-1.18-.98-1.81-2.29-1.82-3.27-.03-6.54-.17-9.81-.22-.45,0-1.01.05-1.34.31-2.99,2.34-6.54,2.24-10.04,2.4-2.5.12-5,.21-7.49.42-3.08.26-4.9,1.65-5.16,4.72-.6,7.21-5.16,11.93-10.11,16.23-3.54,3.07-6.17,6.52-7.9,10.81-1.58,3.9-3.38,7.72-5.01,11.6-2.21,5.28-6.02,9.16-10.36,12.76-11.71,9.73-25.31,13.72-40.28,13.82-2.74.02-5.48.06-8.21-.02-4.19-.12-7.43-2.02-9.83-5.46-3.74-5.37-5.16-11.45-5.62-17.85-.7-9.83-1.74-19.73.23-29.45,1.97-9.73,6.39-18.04,16.47-22.03,6.47-2.56,13.13-3.99,20.02-4.45,3.98-.27,7.97-.34,11.95-.41,1.3-.02,2.04-.39,2.2-1.78.6-5.1,1.33-10.19,1.83-15.3.3-2.99-1.32-5.2-3.58-6.98-2.92-2.29-5.83-4.6-8.79-6.83-.5-.38-1.29-.35-1.86-.67-1.73-.98-3.7-1.79-4.99-3.21-.5-.55.84-3.77.84-3.77l-4.89-1.46c-.52-1.53-.53-2.93,1.4-3.6,4.41-1.54,8.86-3.01,13.21-4.72,3.69-1.45,7.3-3.11,10.87-4.82,5.33-2.56,10.62-5.21,15.87-7.93,0,0,14.48-4.53,18.6-15.24,1.14-4.84,1.88-9.87,3.78-14.4,2.77-6.62,7.56-11.19,15.47-11.22,4.12-.02,8.25-.43,12.86-.69-.97-3.6-1.71-7.09-2.84-10.44-3.2-9.45-2.01-18.23,4.04-26.11,1.58-2.06,4.06-3.74,6.47-4.78,4.5-1.93,8.26.36,8.88,5.52.75,6.27.98,12.61,1.31,18.92.15,2.84.43,5.51,2.02,8.04,1.41,2.24,3.35,3.19,5.77,3.42,2.26.21,4.55.08,6.79.41,5.5.82,10.15-1.34,14.46-4.22,8.19-5.47,17.35-7.16,26.92-7.44,2.41-.07,4.5,2.08,4.8,4.58.1.83.3,1.64.75,2.45,2.32-4.24,3.3-8.7,3.48-13.4.32-8.04,7.84-17.27,15.68-19,1.89-.42,3.99.06,5.99.21,1.08.08,2.15.34,3.26.52.85-1.42.22-2.04-1.04-2.41-3.63-1.06-6.43-2.88-7.38-6.95-1.08-4.62-.6-8.9,2.32-12.65,2.14-2.75,5.49-3.25,8.67-3.47,4.75-.32,9.53-.35,14.3-.35,3.14,0,5.65,1.5,7.71,3.84,4.9,5.58,11.31,4.74,14.57-2,1.21-2.51,2.05-5.21,2.95-7.87.53-1.57-1.73-4.17-4.14-4.97-4.65-1.53-9.42-1.01-14.17-.85-6.71.23-13.43.83-20.13.72-10.47-.17-16.83-4.21-18.88-15.02-1.71-9.02-2.59-17.98,1.56-26.62,2.26-4.71,4.68-9.35,7.03-14.01,3.5-6.95,7.86-13.54,9.09-21.43.2-1.26.31-3.09-.4-3.8-1.29-1.3-3.23-1.83-5.17-.75-4.57,2.54-7.79,6.19-9.14,11.3-.94,3.54-1.81,7.11-2.55,10.7-1.92,9.36-7,17.14-12.47,24.66-3.2,4.4-5.95,8.98-5.77,14.5.13,4.32,1.08,8.63,1.83,12.92,1.05,6.07,2.41,12.1,3.34,18.19.66,4.34-.44,8.48-2.14,12.53-3.77,8.95-8.56,17.35-13.85,25.43-4.84,7.39-11.91,7.33-19.57,11.55-2.38,1.31-4.03-.52-5.6-1.63l-5.95-11.83s-8.91-16.53-11.91-24.15c-.29-.73-.56-1.46-.9-2.16-1-2.08-2.17-2.23-3.64-.48-2.81,3.33-5.47,6.8-8.49,9.93-1.34,1.39-3.23.74-5.1,1.34-4.6,1.48-7.48,1.22-10.46-4.28-.74-1.36-1.03-2.95-1.65-4.37-1.37-3.12-2.69-6.28-4.29-9.29-2.13-3.98-2.33-8.38-3.18-12.64-1.08-5.42-2.16-10.85-3.12-16.3-1.2-6.82,2.64-11.4,6.84-16.09,4.75-5.3,11.02-8.4,16.55-12.54,8.64-6.46,15.15-14.65,19.88-24.2,2.16-4.36,3.02-9.37,5.09-13.79,4.83-10.33,7.28-21.36,10.37-32.23,1.58-5.57,1.36-11.06,1.34-16.62,0-2.99,1.23-4.92,3.29-7.06,5.6-5.81,12.67-9.62,18.79-14.66,3.99-3.29,7.24-7.49,10.87-11.22,5.45-5.59,10.55-11.61,16.53-16.57,7.79-6.45,17.17-9.86,27.32-10.5,7.64-.48,15.32-.84,22.95-.51,7.05.3,13.82,2.38,20.02,5.94,6.43,3.7,7.94,11.94,5.25,18.35-.69,1.64-1.58,3.18-2.56,5.11,2.41,0,4.62.05,6.83,0,8.59-.22,16.11,2.29,22.33,8.43,6.38,6.3,13.75,11.16,21.73,15.3,5.95,3.09,11.27,7.3,14.75,13.23,4.24,7.23,4.18,16.95-2.69,25-6.73,7.89-15.07,9.79-24.88,8.16-6.05-1.01-11.86-2.33-17-6.01.49.63.91,1.35,1.5,1.88,3.93,3.54,4.94,8.2,5.02,13.17.06,4.14-.02,8.29-.14,12.43-.06,2.07-.12,4.06,1.54,5.65,3,2.87,6.22,5.37,10.59,6.68.23-3.09.44-6.01.67-8.92.24-3.14,1.41-4.56,4.47-5.07,4.64-.77,9.33-.17,13.02,2.5,3.54,2.57,7.14,3.14,11.17,2.98"/>
    <path class="cls-2" d="m307.71,494.12c9.77-.56,7.82-11.19,7.46-17.94-.14-2.65-.29-5.3-.45-7.96-.14-2.26.22-5.46-.52-7.6-.42-1.21.74-2.18-1.01-.25-2.01,2.23-.27.73.62.49,2.12-.56,4.13-1.08,6.31-1.46l-3.87-3.63c-.1,3.89-.84,9,1.1,12.61,1.71,3.17,5.52,4.23,8.67,5.32l-1.52-4.57c-2.65,7.89-7.24,16.34-3.75,24.73,1.71,4.11,5.14,7.57,7.52,11.32s4.86,6.92,8.11,9.85c1.67,1.51,3.4,2.98,5.16,4.39,1.47,1.18,3.51,1.71,4.86,2.79,1.86,1.49,1,2.68,1.85,4.52-.24,1.25.06,1.5.9.76-.95.38-1.91.72-2.88,1.04-8.95,3.23-16.91,7.5-25.12,12.25l5.81,3.82c2.76-6.17,7.68-10.27,3.65-17.09-3.38-5.72-8.95-5.68-14.52-2.93l3.21-.14c-3.03-.99-6.07-1.97-9.1-2.96l.97,5.7c3.81-5.6,8.55-11.15,11.69-17.14.99-1.89,1.52-3.92.74-6-.45-1.19-4.29-5.22-4.06-5.79.57-1.39.33-2.91-.67-4.02-2.43-2.71-4.85-5.43-7.28-8.14-3.28-3.67-10.2,3.54-6.84,7.29l7.28,8.14-.67-4.02c-.85,2.1-.9,3.77.04,5.84.42.93,1.08,1.86,1.64,2.72-.57-.87,3.29,3.86,2.44,1.53.32.87-4.56,6.59-5.2,7.53-2.08,3.01-4.15,6.03-6.21,9.05-1.09,1.6-1.36,4.95.97,5.7,2.97.96,6.04,2.35,9.1,2.96s6.81-3.24,8.77.89c1.21,2.55-2.93,7.44-4.14,10.13-1.89,4.22,2.91,5.5,5.81,3.82,4.46-2.58,8.81-5.28,13.54-7.36,4.42-1.95,9.64-3.01,13.77-5.49,5.82-3.48,6.71-11.61,3.59-17.36-1.88-3.46-6.18-4.52-9.06-6.95-3.92-3.3-7.36-6.63-10.11-10.98-2.54-4.01-7.43-8.75-8.04-13.51-.69-5.35,2.74-11.18,4.4-16.12.52-1.55.33-3.94-1.52-4.57-1.62-.56-4.68-1.06-5.76-2.59-1.38-1.95-.5-6.3-.45-8.47.06-2.29-1.39-4.06-3.87-3.63-5.83,1.01-14.65,2.5-15.65,9.77-.55,4.02.43,8.52.66,12.53.16,2.65.3,5.3.44,7.96.04.78-.22,4.2.28,4.97-.22,1.36.27,1.43,1.47.21,1.78-.72,1.91-.96.39-.73-4.86.28-7.2,9.14-.97,8.79Z"/>
    <path class="cls-2" d="m632.53,354.02c-5.08.08-7.79-1.8-12.12-3.94-3.81-1.88-8.45-2.26-12.59-1.47-9.24,1.75-8.73,11.17-9.29,18.7l5.66-4.59c-3.33-1.15-8.85-3.51-10.02-7.31-.57-1.85.11-4.91.14-6.86.03-2.07.06-4.14.02-6.21-.05-3.33-.34-6.67-1.51-9.82-1.26-3.39-3.56-5.45-5.62-8.27l-6,7.48c10.7,7.14,27.21,10.32,38.9,3.73s18.33-21.43,13.6-34.21c-5.32-14.37-20.27-18.51-31.48-26.95-5.83-4.39-10.48-10.18-17.33-13.1-6.83-2.91-14.02-2.54-21.27-2.57l2.08,7.4c2.96-5.72,5.54-11.14,4.65-17.77s-4.44-10.83-9.99-13.76c-7.27-3.84-15.12-5.26-23.27-5.38s-16.77-.03-24.9,1.28c-15.56,2.5-26.23,12.05-36.66,23.16-5.66,6.03-11.01,12.72-17.67,17.67-6.03,4.47-12.92,8.43-17.7,14.34-5.1,6.3-3.13,13.48-4.09,20.96-1.06,8.25-4.09,16.87-6.71,24.75-2.41,7.26-5.33,14.47-8.05,21.61s-7.33,13.47-12.56,18.75c-9.94,10.04-24.81,15.14-30.89,28.82-3.07,6.9-1.03,13.93.34,21,1.49,7.7,2.37,15.29,5.81,22.39,2.67,5.51,4.19,14.33,9.98,17.55,2.01,1.12,4.06,1.28,6.32.93,2.85-.44,6.56-.73,8.95-2.48,2.99-2.19,5.28-5.68,7.61-8.5.57-.69,1.31-1.4,1.79-2.16-1.16,1.82-1.66-1.74-1.32,1.46.1.99.93,2.25,1.33,3.16,2.2,5.03,4.7,9.93,7.23,14.81,3,5.81,5.89,11.7,8.96,17.47,2.08,3.91,6.07,6.1,10.4,4.31,5.82-2.41,12.63-4.48,17.49-8.62,5.57-4.75,9.22-12.48,12.63-18.84,3.77-7.03,8.06-14.71,8.76-22.79s-2.2-16.5-3.6-24.26c-.78-4.3-2.26-9.32-1.5-13.72.67-3.84,3.35-7.06,5.55-10.15,4.34-6.09,8.45-12.56,10.82-19.7,2.21-6.64,1.89-16.34,7.18-21.42.52-.5,3.22-2.91,4.03-2.26.57.45-1.38,5.21-1.68,5.97-1.56,4-3.71,7.7-5.69,11.49-3.75,7.2-8.39,14.68-10.5,22.55s-1.35,15.76.12,23.55c1.01,5.37,3.07,10.74,7.53,14.19,4.38,3.38,9.98,4.2,15.37,4.25,8.49.09,16.96-.96,25.45-.93,2.43,0,4.57.27,6.94.86,2.08.52,1.69.52,1.38,2.14-.7,3.65-3.13,8.26-7.38,6.24-2.77-1.32-4.35-4.31-7.2-5.67-3.31-1.59-7.05-1.26-10.62-1.22-6.32.08-14.54-.61-19.54,4.07s-6.43,11.72-5.25,18.03c.52,2.8,1.54,5.54,3.66,7.55,1.12,1.06,5.59,2.62,5.88,3.17l-.17-4.7-.39,1.17,4.31-3.5c-4.53-.83-8.88-1.4-13.22.43-3.99,1.68-7.35,4.54-10.06,7.87s-4.61,6.89-5.65,10.89c-1.44,5.51-1.13,10.7-3.79,15.98l7.25-.98c-1.09-2.61-1.21-5.45-3.44-7.5-2.44-2.25-5.32-2.1-8.41-1.88-7.33.51-14.54,2.01-21.14,5.32-3.25,1.63-6.11,4.02-9.51,5.33-3.6,1.38-7.03.82-10.75.59-2.48-.15-4.99.23-6.66-2.07-1.2-1.66-1.24-3.95-1.41-5.88-.39-4.41-.41-8.85-.76-13.26-.43-5.39-.57-12.7-6.58-14.98-5.55-2.11-11.89,2.22-15.36,6.23-4.6,5.32-7.29,12.5-7.55,19.5-.3,7.83,2.76,15.44,4.71,22.92l4.56-7.19c-6.84.42-15.07-.43-21.4,2.58-4.95,2.35-8.43,6.72-10.69,11.62-1.41,3.06-2.3,6.32-3.07,9.59s-.96,6.42-2.97,9.05c-2.72,3.55-6.89,6.09-10.94,7.85-11.53,5.01-22.43,11.33-34.31,15.6-5.49,1.97-13.31,3.03-13.62,10.26-.23,5.27,3.05,5.81,7.23,7.06l-1.69-6.02c-.85,2.1-1.79,4.72-1.21,7,.86,3.35,4.76,4.73,7.52,6.15,3.21,1.66,9.01,5.21,10.89,8.4,1.28,2.17.36,5.43.06,7.89-.32,2.62-.24,5.89-1.07,8.39l2.3-2.9c-1.68,1.24-7.95.29-10.09.41-2.63.15-5.24.39-7.85.78-6.31.94-12.83,2.55-18.5,5.57-8.63,4.59-13.59,13.18-15.91,22.41-3.11,12.33-2.37,26.75-.18,39.2,1.72,9.8,6.82,20.29,17.83,21.09,22.08,1.6,49.28-5.73,61.19-26.13,3.12-5.35,4.76-11.45,7.59-16.94,2.78-5.39,8.01-8.55,11.77-13.16,1.42-1.75,2.65-3.57,3.64-5.61,1.06-2.19,1.1-5.46,2.26-7.4,1.47-2.46,12.63-.87,16.44-2.18,3.22-1.1,8.46-3.01,11.78-1.06,2.16,1.27,3.22,5.54,4.77,7.77,2.86,4.11,6.54,7.69,11.29,9.5,3.14,1.19,6.59,1.16,9.68,2.52s4.51,3.52,6.5,5.97c3.37,4.16,9.6,7,10.75,12.53,1.26,6.04,8.47-.01,7.5-4.68-1.11-5.32-4.96-8.58-8.85-12.03-4.28-3.8-6.78-8.79-12.29-11.12s-11.13-1.89-15.7-6.63c-2.01-2.08-3.62-4.63-4.82-7.25-1.04-2.26-1.58-5.11-4.09-6.24-2.7-1.21-7.04-.58-9.93-.59-3.67-.02-5.92,1.89-9.38,2.41-5.61.84-12.93-.95-17.61,3.01-4.44,3.75-3.16,10.06-6.58,14.49-3.69,4.78-8.87,7.98-12.1,13.21-3.67,5.95-5.23,13.02-8.8,19.01-3.37,5.67-9.38,10.07-14.99,13.32-6.08,3.53-12.9,5.75-19.85,6.82-6.17.94-14.56,1.97-20.67.42-6.53-1.66-9.06-10.31-9.89-16.15-1.04-7.33-1.46-15.15-1.18-22.55.24-6.25,1.23-13.03,4.56-18.46s8.99-7.96,14.99-9.7c8.09-2.35,16.08-2.24,24.39-2.75s7.97-8.56,8.79-15.18c.94-7.58,1.66-13.27-4.73-18.45-2.94-2.38-6-5.26-9.38-6.96-.5-.25-4.5-2.17-4.45-2.21-.18.15-.38,3.17.59.76.73-1.82.68-5.31-1.69-6.02l-4.89-1.46,1.94,2.32-.04-.97-1.04,3.73c.39-.65,5.96-1.75,7.21-2.2,2.98-1.07,5.94-2.21,8.85-3.47,5.68-2.46,11.25-5.22,16.78-8s11.87-5.03,17.02-8.64c3.19-2.23,6.13-4.91,8.31-8.16,2.96-4.41,3.45-9.3,4.74-14.33,1.12-4.35,2.85-9.33,7.15-11.49,5.04-2.52,12.98-1.57,18.49-1.91,3.38-.21,5.36-4.13,4.56-7.19-1.59-6.1-4.44-12.69-4.39-19.03.04-5.74,3-13.33,8.89-15.34,6.31-2.15,5.08,9.69,5.29,13.43.33,5.82-.23,12.63,3.01,17.78,2.93,4.67,7.55,4.84,12.54,5.14,5.52.33,9.95.28,15.02-2.27,5.67-2.86,10.41-6.24,16.73-7.74,2.89-.69,5.84-1.07,8.8-1.27,1.42-.1,3.66-.61,4.8.59.69.72.79,2.85,1.17,3.76,1.76,4.2,5.65,2.18,7.25-.98,1.78-3.53,3-7.29,3.54-11.21.5-3.64.37-6.66,2.28-9.94,1.67-2.87,4.33-5.62,7.38-7.01,3.43-1.56,7.34-.67,10.9-.02,1.83.34,3.81-2,4.31-3.5.78-2.36,1.4-4.98-.52-7.03-1.73-1.85-4.73-1.66-6.45-3.6-2.1-2.37-2.24-7.36.02-9.63,2.4-2.41,7.39-1.87,10.57-1.97,3.57-.11,8.42-.94,11.73.59,2.8,1.3,4.4,4.28,7.24,5.67,5.17,2.52,10.49.43,13.98-3.81,3.15-3.83,7.18-12.11,5.65-17.1-1.91-6.2-9.37-7.2-14.89-7.21-7.88-.02-15.74.87-23.62.93-5.2.04-11.21-.09-15.03-4.18-4.29-4.59-4.79-12.92-4.89-18.84-.14-9.18,4.64-16.75,8.68-24.68,3.22-6.32,18.86-30.74,5.54-34.26-5.26-1.39-10.89,3.96-13.71,7.83-4.05,5.58-4.92,12.73-6.46,19.27-1.7,7.23-5.38,13.48-9.6,19.51-3.9,5.56-7.9,11.04-8.61,18.02-.78,7.6,1.65,15.91,3.08,23.32.72,3.72,1.66,7.48,2,11.26.44,4.91-1.56,9.19-3.59,13.56-3.26,7.04-7.08,14.76-11.97,20.82-1.95,2.41-4.54,3.72-7.39,4.84-2.51.99-6.9,3.75-9.59,3.5-2.93-.27-4.18-5.47-5.47-8.03-.9-1.8-1.81-3.59-2.75-5.37-2.1-3.96-4.17-7.94-6.16-11.95-1.15-2.31-2.28-4.63-3.34-6.98-1-2.23-1.66-5.06-3.22-6.95-4.8-5.81-10.24,2.97-13.05,6.29-2.41,2.84-4.49,4.06-8.13,4.68-3.83.66-5.16-1.84-6.4-5.17-2.55-6.86-6.22-12.89-7.46-20.18-.64-3.8-1.43-7.57-2.16-11.35-.68-3.51-2.3-7.96-1.18-11.47,1.94-6.12,8.89-10.86,13.92-14.22,5.66-3.77,11.11-7.66,15.8-12.63s8.79-10.86,12-17.06,5.19-13.27,7.84-19.8c5.61-13.81,10.37-29.55,10.38-44.5,0-4.3,1.93-5.89,5.23-8.62,2.98-2.46,6.23-4.58,9.37-6.84,6.05-4.37,10.82-9.53,15.92-14.92,10.57-11.18,20.35-22.82,36.24-25.73,7.89-1.45,16.43-1.37,24.42-1.25s16.62,1.32,23.12,6.07c5.84,4.27,4.14,10.59,1.33,16.03-1.15,2.24-1.88,7.39,2.08,7.4,5.76.02,11.65-.48,17.19,1.39s9.37,5.9,13.81,9.71c4.04,3.47,8.46,6.47,13.04,9.18,4.98,2.94,10.19,5.28,14.43,9.31,8.86,8.43,9.27,21.15-1.54,28.28-9.02,5.96-23.91,2.88-32.37-2.76-4.03-2.69-8.52,4.02-6,7.48s5.13,5.63,5.73,9.95c.65,4.71.16,9.74.06,14.48-.08,4.02.42,7.09,3.34,10.02s6.86,5.29,10.88,6.68c2.71.93,5.47-2.05,5.66-4.59.13-1.8.27-3.61.4-5.41-.02.22.21-4.12-.11-3.65,1.07-1.57,7.79,0,8.92.43,2.6,1,4.68,2.93,7.33,3.86s5.4,1.11,8.14,1.06c4.78-.07,6.93-9.79,1.63-9.71h0Z"/>
    <path class="cls-2" d="m531.71,641.37c3.39-1.34,6.94-5.51,9.28-8.16,4.26-4.83,11.41-5.82,15.42-11,4.25-5.47,3.19-13.48,3.43-19.98.13-3.41.61-7.58,3.03-10.23,3.34-3.64,9.41-.75,13.46.23l-1.68-4.51c-.83,3.03-4.24,5.34-5.44,8.36s-1.05,6.01-.01,8.97c2.48,7.13,8.77,7.88,15.51,7.19s12.74-3.47,17.64-7.99c2.42-2.23,4.38-4.73,4.82-8.09.49-3.7-2.11-8.23-.9-11.77l-2.24,3.15-.87.61-2.91-3.57c.42,8.21-.89,19.18,3.7,26.38,4.21,6.61,11.4,8.71,18.56,10.57,9.25,2.4,18.54,4.79,28.01,6.13,8.48,1.2,18.47,2.51,26.61-.95,6.2-2.63,9.73-8.97,7.06-15.42-1.57-3.81-4.34-6.96-6.13-10.64-1.23-2.51-1.11-3.42.88-5.36,1.6-1.55,3.44-2.85,5.07-4.36,6.09-5.65,8.09-12.6,2.84-19.56-2.28-3.02-5.47-5.47-7.21-8.87-1.99-3.88-2.11-9.15-1.56-13.41,1.07-8.33,8.12-13.26,12.43-19.96,4.48-6.96,6.49-14.48,8.2-22.46,1.88-8.8,6.29-16.48,12.6-22.86,5.81-5.87,13.12-10.24,17.94-17.05,4.5-6.36,6.01-13.43,5.66-21.12-.45-9.71-.68-19.53-1.61-29.21-.75-7.82-1.9-16.25-7.07-22.49-4.32-5.21-10.71-8.16-17.2-9.66-10.26-2.38-20.86-1.16-31.28-1.73-8.83-.49-21.45-1.52-27-9.59-2.56-3.73-2.79-8.35-3.12-12.72-.27-3.52-.2-7.78-4.8-7.94-3.78-.14-8.07,1.47-11.76,2.2-4.74.93-6.76,10.02-.64,8.82,3.14-.62,7.86-2.34,10.63-1.82l-2.51-1.52c1.61,2.1.74,7.64,1.18,10.3.46,2.83,1.37,5.68,2.88,8.14,2.89,4.74,7.61,7.83,12.77,9.65,15.85,5.59,32.39,1.46,48.44,4.74,5.97,1.22,12.25,3.78,15.95,8.87,4.36,6,4.81,14.89,5.27,22.02.55,8.53,1.11,17.13,1.34,25.67.17,6.51-1.65,12.17-6.34,16.8-5.34,5.28-11.61,9.45-16.61,15.13-4.62,5.24-8.3,11.24-10.79,17.77-2.56,6.69-2.92,13.94-5.7,20.57s-7.89,11.28-12.07,17.15c-6.82,9.59-8.38,25.5-.74,35.07,2.15,2.69,5.29,5.01,6.76,8.19,1.87,4.02-4.09,7.05-6.68,9.47-4.18,3.91-7.59,9.39-5.04,15.14,1.64,3.71,4.34,6.91,6.18,10.53,1.05,2.07,1.66,2.4-.07,3.54s-5.52,1.06-7.6,1.1c-9.45.2-19.15-1.69-28.3-3.84-7.54-1.77-17.56-2.84-24.03-7.41-7.78-5.48-6-17.45-6.43-25.83-.1-1.86-.87-3.41-2.91-3.57-4.06-.33-7.46,2.08-8.28,6.17-.47,2.31-.04,4.96.23,7.29.43,3.71,1.17,4.92-2.09,7.23-3.74,2.66-10,4.61-14.62,3.54-9.12-2.1.43-10.79,1.65-15.24.4-1.48.23-4.05-1.68-4.51-7.77-1.88-15.91-4.57-22.44,1.76-5.23,5.08-7.34,12.31-7.55,19.42-.06,2.19-.04,4.36-.17,6.55-.09,1.56.32,5.1-.6,6.41-1.95,2.79-7.71,4.07-10.48,5.96-2.3,1.57-3.77,3.75-5.72,5.69-.9.9-1.82,1.8-2.77,2.65-.38.34-2.6,1.75-1.29,1.23-4.84,1.92-4.5,10.46,1.57,8.06h0Z"/>
    <path class="cls-2" d="m437.6,603.51c.14-3.9.28-7.79.43-11.69l-1.03,3.73c2.16-3.33,5.48-1.39,6.72,1.68,1.54,3.82,3.03,7,5.68,10.24,5.04,6.18,10.52,11.21,17.06,15.78,3.66,2.56,7.24,5.14,10.6,8.09,1.32,1.16,2.61,2.34,3.88,3.55s4.38,3.28,5.09,4.96c1.51,3.56-1.28,9.17-1.27,12.99s1.92,7.64,3.42,11.25c2.75,6.63,8.26,12.29,15.15,14.83,2.51.93,5.01.22,6.94-1.59,2.94-2.77,2.48-6.26,3.47-9.79,1.04-3.73,2.49-5.69,1.15-9.67-1.2-3.53-3.25-6.92-4.94-10.22-.55-1.08-1.11-2.16-1.67-3.23-.83-1.92-1.05-2.18-.64-.78,1.18-.89,6.23-.16,7.76-.21,5.02-.14,10.01-.57,15.01-1.07,4.73-.48,6.78-10.24,1.59-9.72-4.35.44-8.7.86-13.07,1.02s-9.68-.59-13.93.77c-6.94,2.22-6.85,9.74-4.17,15.08,1.88,3.74,3.61,7.76,5.76,11.35,1.43,2.39,1.14.87.15,3.86-.6,1.83-.58,3.77-1.08,5.59.48-1.73,2.68.9-.02-1.44-.56-.48-1.5-.84-2.12-1.22-1.51-.92-3.01-1.92-4.3-3.14-2.97-2.8-6.01-8.67-6.52-12.77-.88-7.22,4.35-13.9-1.37-20.26-5.69-6.32-12.6-11.65-19.53-16.51s-12.85-9.88-17.62-16.59c-3.69-5.2-3.57-12.74-11.09-14-6.32-1.06-12.36,3.44-12.89,9.94-.32,3.84-.28,7.74-.42,11.59-.08,2.27,1.94,4.09,4.15,3.51,2.54-.67,3.62-3.59,3.71-5.91h0Z"/>
    <path class="cls-2" d="m299.19,499.17c4.7,2.41,3.47,12.04,1.64,15.8-2.02,4.15-4.52,8.32-7.72,11.67s-9.23,7.29-14.08,4.54,1.74-7.62,3.58-10.02,2.41-4.97,1.53-7.84c-.63-2.05-2.29-3.95-1.51-6.18.72-2.04,3.27-3.49,4.81-4.85,2.06-1.81,4.13-3.64,6.12-5.53.79-.75,4.24-3.42,1.59-2.77-1.96.48-.23,1.17.94,2.3l2.33,2.23c3.63,3.46,11.22-3.03,7.66-6.43-2.76-2.64-5.73-6.76-10.02-6.18-3.17.43-4.86,2.67-6.93,4.78-3.22,3.26-6.97,5.99-10.29,9.15-4.61,4.37-6.75,9.75-4.38,15.85.38.75.71,1.52,1,2.31.55-.76.27-.56-.85.61-1.05,1.46-2.54,2.52-3.55,4.07-1.6,2.45-2.76,5.45-2.75,8.41.03,7.17,6.85,9.72,13.13,9.39,7.05-.36,13.23-4.49,17.91-9.51,4.95-5.31,10.15-13.06,11.66-20.27,1.27-6.06.41-16.12-5.71-19.26-4.25-2.18-10.82,5.31-6.11,7.72Z"/>
    <g>
      <path class="cls-2" d="m445.14,670.11c-1.25,1.64-3.05.8-4.96.6-1.18-.12-6.85-.19-7.3-1.05-.71-1.33.47-1.37,1.71-1.82.96-.34,1.92-.65,2.9-.9.58-.18,1.16-.31,1.76-.39,1.36-.1,1.06-.34-.91-.72-.09.13,6.5,7.43,7.08,8.12,1.58,1.87,4.48,2.84,6.82,1.88,2.08-.86,2.95-3.29,1.41-5.11-2.29-2.7-4.46-5.57-6.95-8.09-2.88-2.91-5.63-4.35-9.81-3.79-3.6.48-8.08,1.5-11.15,3.56-6.7,4.5-1.34,12.51,4.63,14.32,4.35,1.32,9.31,1.64,13.83,1.96s6.99-.52,9.73-4.09c3.21-4.2-5.85-8.29-8.77-4.49Z"/>
      <path class="cls-2" d="m429.92,607.24c7.19,7.63,14.33,15.33,21.64,22.84,2.81,2.89,5.94,5.45,9.66,7.06,3.09,1.34,10.05,1.27,11.75,4.59s-5.56,3.71-7.85,5.07c-2.45,1.45-3.07,3.78-3.34,6.48-.14,1.41.24,3.52-.56,4.75-.38.59-5.06,2.73-5.11,2.43.11.73,1.95.18,2.16-.03.25-.25.35-1.19.45-1.54l.87-2.95c1.41-4.78-8.23-7.47-9.64-2.66-.89,3.01-2.47,6.43-1.14,9.54,2.12,4.96,7.73,5.85,12.36,4.73,4.27-1.03,9.1-3.39,10.15-8.08.36-1.63-.58-5.3.62-6.63-.74.83,1.35-.11,1.6-.16,1.57-.36,3.1-.99,4.54-1.69,12.31-5.99.85-16.98-7.83-19.16-3.19-.8-5.76-1.17-8.45-3.24-2.89-2.22-5.25-5.13-7.75-7.77-5.32-5.6-10.62-11.21-15.92-16.83-1.67-1.78-4.42-2.92-6.82-1.88-1.96.85-3.09,3.33-1.41,5.11h0Z"/>
    </g>
    <g>
      <path class="cls-3" d="m453.16,854.76c11.69,0,23.39-.2,35.07.1,4.66.12,6.85-1.52,8.18-5.97,3.29-11.04,7.05-21.93,11.25-34.81,1.58,4.43,2.65,7.22,3.58,10.05,2.73,8.32,5.58,16.61,8.02,25.02,1.21,4.17,3.28,5.83,7.73,5.7,10.04-.3,20.1-.11,30.15-.08,1.82,0,3.63.17,7.15.34-10.75,7.86-20.01,14.97-29.65,21.52-4.16,2.82-4.83,5.44-3.17,10.07,3.87,10.78,7.14,21.78,9.62,33.63-8.19-5.94-16.33-11.96-24.59-17.78-10.45-7.37-6.86-7.39-17.13-.14-8.34,5.88-16.54,11.97-25.95,17.18,3.5-10.86,6.76-21.81,10.6-32.55,1.7-4.76,1.23-7.62-3.23-10.6-9.55-6.4-18.68-13.44-27.98-20.21.12-.48.24-.97.37-1.45Z"/>
      <path class="cls-3" d="m358.67,871.53c-8.91-6.45-18.12-12.54-26.62-19.5-5.17-4.23-8.77-3.88-13.76.15-8.44,6.8-17.46,12.87-27.43,18.49,3.31-10.26,6.22-20.67,10.09-30.72,2.42-6.27,1.51-9.95-4.32-13.66-9.13-5.81-17.64-12.58-26.05-20.44,10.54,0,21.12-.56,31.61.19,7.64.55,10.99-2.09,12.85-9.4,2.6-10.24,6.4-20.17,10.2-31.8,4.13,12.61,8.01,23.63,11.28,34.83,1.38,4.73,3.59,6.44,8.54,6.29,11.67-.34,23.36-.11,35.54,1.15-9.38,6.84-18.6,13.92-28.22,20.4-4.35,2.93-5.2,5.69-3.44,10.56,3.9,10.76,7.19,21.74,10.73,32.63l-1.01.83Z"/>
      <path class="cls-3" d="m723.88,871.63c-10.05-7.29-19.64-14.04-28.97-21.13-3.28-2.49-5.7-2.54-8.99-.05-9.51,7.19-19.24,14.07-29.99,20.38,3.41-10.62,6.49-21.37,10.37-31.82,2.04-5.52,1.39-8.72-3.77-12.09-9.43-6.15-18.31-13.15-27.16-21.07,11.18,0,22.38-.39,33.54.15,6.27.31,9.07-1.9,10.72-7.82,2.97-10.66,6.7-21.1,10.69-33.44,4.05,12.42,7.88,23.1,10.95,33.99,1.55,5.48,4.08,7.47,9.84,7.24,11.23-.46,22.5-.14,34.37,1.28-7.13,5.19-14.25,10.4-21.39,15.58q-11.95,8.67-7.4,22.77c2.56,7.92,5.12,15.85,7.64,23.78.11.34-.14.8-.44,2.23Z"/>
      <path class="cls-3" d="m191.63,631.39c4.12,12.56,8.01,23.59,11.29,34.8,1.39,4.76,3.65,6.38,8.57,6.23,11.67-.34,23.35-.11,35.46,1.1-8.54,6.23-17.08,12.46-25.62,18.69-9.93,7.26-8.09,4.63-4.86,15.36,2.99,9.95,6.38,19.78,8.6,30.42-9.28-6.73-18.69-13.3-27.77-20.27-3.96-3.04-6.85-3.56-11.1-.19-9.02,7.15-18.57,13.64-29.13,19.87,1.78-5.47,3.58-10.93,5.35-16.41,1.91-5.9,3.57-11.88,5.77-17.67,1.47-3.87.68-6.27-2.71-8.65-9.79-6.86-19.37-14.02-28.92-22.38,6.59,0,13.17.12,19.76-.03,7.2-.17,16.13,1.88,21.08-1.61,4.69-3.3,5.25-12.51,7.54-19.15,2.13-6.19,4.15-12.43,6.71-20.13Z"/>
      <path class="cls-3" d="m789.53,737.14c3.68-11.33,7.2-22.72,11.13-33.96,1.38-3.95.49-6.22-2.83-8.55-9.78-6.85-19.37-13.98-28.82-22.32,10.31,0,20.62.09,30.93-.02,12.55-.13,9.91,1.69,13.89-10.11,3.27-9.68,6.38-19.42,10.13-30.85,3.99,12.16,7.83,22.62,10.77,33.34,1.66,6.05,4.52,8.08,10.74,7.79,11.09-.52,22.22-.15,35.33-.15-6.51,4.81-11.71,8.52-16.77,12.42-5.88,4.53-14.56,8.21-16.59,14.13-1.91,5.58,3.18,13.6,5.28,20.52,1.84,6.06,3.81,12.08,6.23,19.7-10.88-7.88-20.53-14.52-29.77-21.71-4-3.11-6.75-2.77-10.57.17-9.11,7.02-18.56,13.6-27.88,20.36-.4-.25-.8-.5-1.2-.76Z"/>
      <path class="cls-3" d="m142.68,448.8c4.19,12.79,8.07,23.83,11.37,35.04,1.39,4.73,3.65,6.41,8.58,6.27,11.63-.33,23.28-.11,36.92-.11-11.08,8.06-20.39,15.11-30.02,21.69-4.11,2.81-4.78,5.6-3.16,10.14,3.85,10.84,7.23,21.85,9.93,33.8-3.29-2.38-6.57-4.77-9.86-7.15-6.4-4.64-12.92-9.12-19.15-13.97-3.23-2.52-5.72-2.57-9.01-.06-7.8,5.97-15.85,11.61-23.83,17.36-1.5,1.08-3.1,2.01-6.42,4.14,2.85-9.04,5.11-16.26,7.41-23.46q5.48-17.16-9.15-27.67c-6.14-4.42-12.23-8.9-17.84-14.8,11.22,0,22.46-.28,33.67.12,5.42.2,8-1.56,9.5-6.83,3.16-11.04,6.98-21.89,11.07-34.5Z"/>
      <path class="cls-3" d="m818.34,490c11.76,0,23.52-.19,35.27.1,4.44.11,6.43-1.5,7.7-5.67,3.46-11.38,7.35-22.64,11.61-35.6,4.17,12.82,8.02,23.9,11.32,35.13,1.4,4.78,3.83,6.28,8.69,6.14,11.53-.33,23.08-.11,36.81-.11-4.09,2.97-6.69,4.84-9.28,6.73-6.57,4.79-12.94,9.88-19.77,14.26-4.76,3.05-6.05,6.16-3.93,11.58,3.18,8.15,5.59,16.6,8.29,24.93.69,2.15,1.24,4.34.6,7.48-7.52-5.43-14.97-10.95-22.56-16.27-12.39-8.68-7.85-8.78-20.31-.02-7.84,5.51-15.53,11.23-24.94,18.05,3.92-12.19,6.77-22.79,10.79-32.93,2.56-6.47,1.16-9.96-4.45-13.61-9.08-5.9-17.64-12.61-26.41-18.98.2-.41.39-.82.59-1.22Z"/>
      <path class="cls-3" d="m137.38,307.62c11.23,0,22.47-.29,33.68.12,5.5.2,7.97-1.79,9.47-6.96,3.17-10.97,6.94-21.77,11.07-34.48,4.17,12.76,8.02,23.57,11.18,34.58,1.52,5.27,4.12,7.03,9.52,6.85,11.29-.39,22.6-.12,35.95-.12-10.17,7.43-18.6,14.15-27.6,19.97-5.8,3.75-7.32,7.39-4.7,14.02,3.97,10.05,6.83,20.53,10.77,32.66-10.51-7.63-19.73-13.99-28.55-20.87-4.54-3.54-7.92-4.16-12.78-.21-8.53,6.93-17.73,13.03-26.66,19.48-.47-.32-.93-.63-1.4-.95,2.94-9.03,6.02-18.01,8.8-27.09,4.29-14.03,5.38-10.1-6.24-18.86-7.57-5.71-15.32-11.19-22.98-16.77.16-.46.32-.93.48-1.39Z"/>
      <path class="cls-3" d="m769.93,307.62c10.79,0,21.59-.35,32.36.13,6.14.27,9.2-1.65,10.87-7.73,2.92-10.67,6.7-21.11,10.77-33.66,3.61,10.95,6.53,20.1,9.63,29.2,4.79,14.03,1.42,11.86,16.44,12.04,9.37.11,18.75.02,28.79,1.34-5.71,4.18-11.47,8.3-17.11,12.57-5.08,3.85-12.64,7.01-14.29,12.05-1.65,5.04,2.55,12.06,4.39,18.16,2.02,6.66,4.27,13.25,6.43,19.87-.44.35-.88.7-1.32,1.05-7.33-5.3-14.57-10.72-22-15.86-13.44-9.31-8.13-9.62-21.82.03-7.64,5.38-15.16,10.94-24.18,17.46,4.14-12.77,7.47-23.95,11.45-34.9,1.82-4.99.63-7.64-3.61-10.51-9.28-6.28-18.18-13.11-27.24-19.71l.44-1.53Z"/>
      <path class="cls-3" d="m291.06,237.98c3.52-10.93,6.8-21.95,10.67-32.76,1.62-4.52.49-6.96-3.24-9.54-9.43-6.52-18.6-13.41-27.53-21.6,10.97,0,21.96-.33,32.91.13,5.92.25,8.81-1.6,10.43-7.46,3-10.82,6.84-21.41,10.93-33.94,4.16,12.66,7.99,23.45,11.17,34.43,1.51,5.2,3.98,7.15,9.46,6.96,11.28-.4,22.58-.12,34.4,1.05-8.86,6.46-17.48,13.3-26.68,19.25-5.53,3.58-6.46,7.03-4.13,13.08,3.96,10.27,6.93,20.91,10.85,33.07-9.81-7.1-18.2-13.21-26.62-19.27q-8.49-6.12-17.18.22c-8.06,5.87-16.14,11.73-24.21,17.6-.42-.4-.83-.81-1.25-1.21Z"/>
      <path class="cls-3" d="m655.22,240.73c4.17-12.86,7.46-23.89,11.38-34.69,1.74-4.81,1.17-7.62-3.26-10.58-9.34-6.25-18.25-13.13-27-21.38,8.6,0,17.2.12,25.8-.03,17.94-.31,13.47,2.81,19.31-14.23,2.83-8.26,5.47-16.58,8.83-26.82,1.47,4.19,2.42,6.77,3.27,9.39,2.77,8.52,5.74,16.99,8.16,25.61,1.35,4.8,3.92,6.33,8.74,6.17,9.39-.32,18.79-.11,28.19-.08,2.03,0,4.05.19,7.8.38-10.43,7.59-19.33,14.45-28.64,20.7-4.51,3.03-5.55,5.92-3.66,11.08,3.85,10.52,7.01,21.3,9.21,32.9-8.73-6.32-17.74-12.29-26.09-19.08-5.04-4.09-8.6-4.23-13.72-.06-8.57,6.98-17.83,13.11-28.33,20.71Z"/>
      <path class="cls-3" d="m508.52,86.32c2.98,9.01,5.94,18.02,8.94,27.02,4.58,13.74,1.65,11.73,16.59,11.89,9.34.1,18.69.02,28.57,1.31-8.7,6.33-17.14,13.08-26.21,18.84-5.85,3.71-6.7,7.43-4.33,13.63,3.8,9.92,6.71,20.18,8.99,31.42-2.59-1.86-5.19-3.72-7.78-5.59-7.1-5.13-14.3-10.13-21.24-15.47-3.06-2.35-5.32-2.4-8.44-.04-9.5,7.18-19.24,14.05-30.13,20.32,2.48-7.75,4.97-15.51,7.45-23.26q5.08-15.88-8.44-25.7c-6.48-4.71-12.97-9.41-18.99-15.44,11.24,0,22.48-.27,33.7.12,5.5.19,7.95-1.85,9.45-7.02,3.12-10.76,6.87-21.34,10.36-32,.5,0,1-.01,1.5-.02Z"/>
    </g>
    <g>
      <path class="cls-2" d="m432.84,845.1c9.09,0,18.19-.13,27.28-.03,5.91.06,12.71,1.17,17.44-3.26,4.29-4.02,5.15-11.58,6.88-16.93,2.55-7.93,5.21-15.82,7.8-23.74l-9.46.9c2.68,7.47,5.23,14.98,7.69,22.53,1.35,4.16,2.47,8.41,3.9,12.54.81,2.33,1.8,4.57,3.85,6.07,5.2,3.81,13.76,1.87,19.74,1.85,8.25-.02,16.5-.02,24.75.41l-1.89-6.2c-6.54,4.79-13.02,9.67-19.59,14.43-4.77,3.46-12.68,6.96-14.97,12.79s1.85,12.44,3.51,17.62c2.55,7.95,4.67,16.02,6.41,24.19l8.36-4.52c-7.68-5.57-15.32-11.19-23.05-16.69-3.88-2.76-8.37-7.71-13.54-7.43s-9.63,5.15-13.55,7.93c-7.64,5.43-15.27,10.83-23.45,15.43l7.01,3.63c2.42-7.55,4.74-15.13,7.22-22.66,1.68-5.12,5.8-12.27,4.18-17.87s-8.72-8.65-13-11.71c-6.77-4.83-13.39-9.85-20.1-14.75l1.1,3.62.37-1.45c1.42-5.63-8.21-5.69-9.36-1.11l-.37,1.45c-.36,1.44-.17,2.69,1.1,3.62,5.42,3.96,10.79,8,16.21,11.95,2.58,1.88,5.18,3.74,7.8,5.56,2.03,1.41,5.94,3.11,6.68,5.73.65,2.31-1.13,5.45-1.86,7.54-1.04,3-2.03,6-3.01,9.02-2.15,6.64-4.2,13.3-6.33,19.94-1.35,4.2,4.23,5.19,7.01,3.63,6.27-3.54,12.25-7.51,18.15-11.64,1.21-.85,14.9-10.08,14.69-10.48l-2.28.25c.33.22.65.45.98.67.67.84,2.06,1.54,2.9,2.16,2.94,2.18,5.95,4.26,8.92,6.39,6.16,4.43,12.27,8.93,18.42,13.38,3.07,2.22,9.25-.37,8.36-4.52-1.42-6.68-3.09-13.3-5.06-19.84-1.05-3.48-2.17-6.94-3.35-10.37-.7-2.02-2.62-5.41-1.69-7.55s4.72-3.81,6.55-5.09c2.66-1.87,5.29-3.77,7.91-5.68,5.83-4.26,11.6-8.59,17.42-12.85,2.73-2,1.45-6.02-1.89-6.2-6.26-.33-12.5-.37-18.77-.41-4.08-.02-8.17-.04-12.25,0-2.42.02-7.14,1.13-9.25-.31s-2.39-6.07-3.07-8.24c-1.11-3.59-2.28-7.15-3.45-10.72-2.1-6.35-4.26-12.67-6.52-18.96-1.42-3.97-8.31-2.64-9.46.9-2.06,6.31-4.17,12.6-6.23,18.91-.96,2.93-1.91,5.86-2.84,8.8-.81,2.56-1.24,6.04-2.6,8.35-1.26,2.14-2.96,1.39-5.5,1.36-3.66-.05-7.33-.09-10.99-.09-7.15-.01-14.29.06-21.44.06-5.75,0-6.94,7.7-.44,7.69Z"/>
      <path class="cls-2" d="m342.1,854.91c-6.45-4.65-13.02-9.12-19.39-13.88-5.25-3.92-10.43-9.77-17.54-9.34-6.55.39-11.5,5.72-16.46,9.39-6.47,4.8-13.31,9.07-20.31,13.05l7.06,3.51c2.52-7.85,4.83-15.77,7.5-23.57,1.83-5.34,5.49-11.65,3.42-17.44s-8.88-8.53-13.4-11.76c-6.39-4.57-12.45-9.61-18.21-14.95-1.9,2.09-3.8,4.19-5.69,6.28,9.22-.03,18.46-.44,27.67-.04,6.18.27,12.64.99,17.7-3.38,4.76-4.11,5.5-10.75,7.22-16.42,2.5-8.25,5.47-16.36,8.16-24.55-3.15.35-6.3.7-9.45,1.05,2.71,8.25,5.53,16.47,8.18,24.75,1.63,5.09,2.44,12.77,6.91,16.35s11.86,2.21,17.31,2.19c8.79-.02,17.57.42,26.31,1.29l-1.98-6.16c-6.51,4.76-12.94,9.62-19.5,14.32-4.61,3.3-12.04,6.63-14.03,12.47-1.85,5.45,1.96,12.03,3.63,17.03,2.62,7.84,5.06,15.75,7.6,23.62l1.37-3.84-1.01.83c-5.03,4.16,2.83,7.89,6.79,4.62l1.01-.83c1.08-.89,1.82-2.44,1.37-3.84-2.06-6.36-4.04-12.74-6.11-19.09-.98-3.02-1.99-6.04-3.03-9.05-.75-2.15-3.02-6.11-2.24-8.5s4.6-3.97,6.47-5.28c2.45-1.72,4.89-3.46,7.32-5.22,5.74-4.17,11.42-8.43,17.14-12.62,2.88-2.1,1.2-5.85-1.98-6.16-7.21-.71-14.44-1.14-21.68-1.25-3.19-.05-6.39-.05-9.58,0-2.35.03-6.14.98-8.01-.73-1.66-1.51-2.09-5.28-2.71-7.32-.95-3.1-1.93-6.19-2.94-9.27-2.33-7.13-4.74-14.23-7.09-21.36-1.35-4.11-8.33-2.34-9.45,1.05-2.08,6.31-4.29,12.57-6.36,18.88-1.05,3.21-2.07,6.44-2.97,9.69-.63,2.28-.96,5.35-2.35,7.32-2.71,3.88-10.04,1.63-14.13,1.57-7.58-.12-15.16.15-22.74.17-2.27,0-9.11,3.12-5.69,6.28,4.8,4.44,9.7,8.75,14.88,12.75,2.5,1.93,5.04,3.79,7.65,5.56,2.44,1.67,5.88,3.11,7.56,5.62,2.88,4.31-1.91,12.02-3.31,16.21-2.42,7.22-4.57,14.52-6.89,21.77-1.36,4.25,4.36,5.05,7.06,3.51,5.62-3.19,11.12-6.58,16.43-10.26,2.23-1.54,4.44-3.12,6.61-4.75s5-4.93,7.53-5.54,5.03,2.29,6.85,3.73c2.63,2.09,5.32,4.1,8.04,6.07,5.44,3.96,10.98,7.77,16.44,11.7,3.82,2.75,11.75-2.87,7.06-6.25Z"/>
      <path class="cls-2" d="m707.12,855.23c-6.68-4.84-13.39-9.62-20.05-14.49-5-3.66-10.39-9.53-17.03-9.34s-11.74,6.05-16.59,9.53c-6.6,4.74-13.39,9.2-20.38,13.35,2.54,1.23,5.09,2.47,7.63,3.7,2.45-7.68,4.75-15.4,7.3-23.05,1.75-5.25,5.71-11.93,3.75-17.61s-8.83-8.59-13.33-11.83c-6.62-4.76-12.9-9.93-18.99-15.34l-3.91,5.94c9.21-.02,18.42-.29,27.63-.06,5.93.15,12.45,1.06,17.19-3.36,4.43-4.13,5.19-11.42,6.93-16.93,2.51-7.98,5.24-15.89,7.82-23.84-3.21.23-6.41.46-9.62.69,2.65,8.07,5.43,16.1,8,24.19,1.69,5.31,2.45,12.54,6.86,16.42s11,2.95,16.56,2.86c9.17-.16,18.3.36,27.41,1.4l-2.65-6.09c-7.54,5.49-15.09,10.97-22.62,16.48-3.61,2.64-8.42,5.62-9.82,10.19s.8,9.68,2.16,13.95,2.68,8.29,4.01,12.43c1.14,3.55,4.38,9.4,3.52,13.06-1.22,5.21,8.67,5.96,9.76,1.3.72-3.09.09-4.87-.87-7.89-1.36-4.27-2.74-8.54-4.11-12.81-1.22-3.79-2.5-7.58-3.66-11.39-.56-1.84-1.58-4.42-1.26-6.41.59-3.76,6.22-6.57,8.94-8.55,7.13-5.19,14.26-10.38,21.39-15.58,3.07-2.24.18-5.77-2.65-6.09-7.18-.82-14.37-1.3-21.6-1.46-3.45-.07-6.9-.07-10.35.02-2.48.06-5.44.86-7.2-1.24-1.52-1.81-1.91-5.35-2.57-7.56-.9-3.02-1.85-6.02-2.83-9.02-2.27-6.98-4.65-13.92-6.94-20.9-1.29-3.95-8.5-2.74-9.62.69-2.06,6.34-4.2,12.65-6.26,18.99-1.05,3.21-2.07,6.43-3.04,9.66-.72,2.42-1.12,5.75-2.58,7.84s-3.15,1.71-5.55,1.63c-3.4-.12-6.8-.21-10.21-.23-7.57-.05-15.13.11-22.7.12-2.53,0-6.77,3.39-3.91,5.94,5.06,4.51,10.24,8.88,15.62,13.01,2.6,1.99,5.25,3.93,7.94,5.79,2.25,1.56,6.1,3.1,7.27,5.72.96,2.15-.2,4.63-.93,6.67-1.14,3.21-2.27,6.42-3.33,9.66-2.32,7.07-4.45,14.2-6.72,21.29-1.29,4.05,5.13,5.18,7.63,3.7,5.34-3.16,10.56-6.51,15.68-10.01,2.48-1.69,4.93-3.42,7.37-5.18,1.21-.87,2.42-1.75,3.62-2.64.81-.6,3.81-3.37,4.69-3.47,1.2-.13,4.64,3.14,5.99,4.14,2.49,1.85,4.99,3.68,7.5,5.5,5.66,4.11,11.36,8.18,17.03,12.29,3.93,2.85,11.73-2.13,6.68-5.79Z"/>
      <path class="cls-2" d="m168.09,620.66c2.53,7.68,5.15,15.33,7.64,23.02,1.75,5.42,2.63,13.8,7.17,17.75s11.35,2.28,16.57,2.26c8.74-.04,17.45.33,26.15,1.16l-.46-8.93c-8.01,5.84-16.01,11.68-24.02,17.52-3.83,2.8-9.64,5.66-10.9,10.7-1.17,4.69,1.9,10.11,3.23,14.44,2.81,9.12,5.74,18.2,7.75,27.54l5.92-6.07c-6.45-4.67-12.95-9.27-19.37-13.98-4.47-3.28-10.25-9.72-16.37-9.29-5.74.41-10.89,6.24-15.27,9.42-6.44,4.66-13.1,8.98-19.93,13.04l4.4,5.58c2.55-7.83,5.12-15.65,7.57-23.51,1.79-5.73,6.09-13.03,3.82-19.15-2.15-5.8-9.99-9.29-14.67-12.77-6.43-4.77-12.67-9.77-18.71-15.02l-2.38,9.34c9.1.01,18.23-.22,27.32.25,6.19.32,13.03.44,17.46-4.66s4.99-11.78,6.66-17.79c2.14-7.66,4.99-15.18,7.49-22.72,1.97-5.95-5.32-7.71-7.27-1.85-2.07,6.23-4.13,12.47-6.22,18.7-.9,2.69-1.63,5.39-2.31,8.15-.61,2.5-1.03,6.14-2.73,8.17-3.39,4.05-11.88,2.14-16.5,1.95-7.79-.34-15.67-.02-23.47-.04-4.37,0-5,7.07-2.38,9.34,4.9,4.26,9.93,8.36,15.1,12.3,2.39,1.83,4.81,3.62,7.25,5.39,1.9,1.38,6.89,3.66,7.89,5.79.84,1.77-1.33,5.62-1.94,7.45-.98,2.94-1.87,5.91-2.79,8.87-2.09,6.67-4.3,13.31-6.47,19.95-.77,2.37,1.09,7.55,4.4,5.58,5.45-3.24,10.83-6.59,16.07-10.16,2.64-1.8,5.24-3.65,7.81-5.55,2.36-1.75,5.14-4.83,7.91-5.85s4.97,1.26,7.04,2.81c3.06,2.29,6.11,4.58,9.2,6.83,5.66,4.12,11.38,8.18,17.05,12.29,3.44,2.49,6.53-3.23,5.92-6.07-.7-3.26-10.14-38.21-11.07-37.95-.32.09-.33,2.18-.44,2.1,0,0,2.26-1.72,2.28-1.73,2.74-2,5.49-3.98,8.23-5.99,6.94-5.07,13.88-10.12,20.82-15.19,2.2-1.6,3.55-8.54-.46-8.93-7.21-.69-14.45-1.13-21.69-1.27-3.39-.06-6.78-.06-10.17,0-2.27.04-6.21.87-8.23-.67-1.81-1.38-2.12-4.64-2.74-6.67-1.03-3.38-2.1-6.75-3.2-10.12-2.33-7.12-4.74-14.21-7.08-21.33-.75-2.28-3.4-2.62-5.14-1.31-2.07,1.55-2.5,4.55-1.75,6.85Z"/>
      <path class="cls-2" d="m773.84,723.78c2.51-7.75,4.96-15.53,7.51-23.27,1.73-5.25,5.98-12.54,3.85-18.12s-9.88-8.89-14.31-12.17c-6.4-4.75-12.62-9.73-18.62-14.98-1.58,2.59-3.17,5.19-4.75,7.78,10.54,0,21.08,0,31.62-.03,4.79-.01,10.41.9,14.16-2.81,3.49-3.45,4.38-9.99,5.86-14.41,3.09-9.25,6.07-18.53,9.1-27.79l-8.94,1.81c2.78,8.45,5.76,16.83,8.41,25.32,1.63,5.25,2.33,12.46,7.16,15.93s11.89,1.97,17.44,1.89c8.99-.13,17.98.08,26.97.1l-.78-7.27c-6.35,4.68-12.59,9.61-19.09,14.08-5.67,3.9-12.71,7.27-15.83,13.78-3.09,6.46.18,13.16,2.64,19.25,3.23,7.99,5.46,16.47,8.06,24.67l7.9-5.53c-6.32-4.56-12.69-9.05-18.99-13.63-4.84-3.52-10.71-10.07-16.88-10.78-6.85-.79-12.63,5.44-17.66,9.15-6.69,4.93-13.48,9.73-20.22,14.6l5.53-.51-1.2-.76c-4.04-2.55-11.23,4.35-6.75,7.17l1.2.76c1.69,1.06,3.98.61,5.53-.51,5.44-3.94,10.91-7.83,16.34-11.77,2.59-1.88,5.16-3.77,7.72-5.69,1.22-.91,2.46-2.21,3.82-2.9,2.41-1.23,2.67-1.1,5.04.35,4.72,2.87,9.07,6.85,13.57,10.09,5.39,3.89,10.82,7.73,16.2,11.62,3.11,2.25,9.09-1.77,7.9-5.53-2.23-7.02-4.26-14.14-6.68-21.09-1.64-4.71-6.92-12.55-4.65-17.55,2.15-4.74,10.01-7.68,14.04-10.67,5.58-4.15,11.17-8.29,16.77-12.42,2.55-1.88,3.84-7.27-.78-7.27-7.58-.01-15.16-.15-22.73-.13-3.65,0-7.29.08-10.93.2-2.19.07-4.83.52-6.75-.83s-2.36-4.16-2.96-6.25c-.93-3.23-1.91-6.44-2.94-9.64-2.38-7.39-4.95-14.72-7.38-22.1-1.5-4.55-7.88-1.43-8.94,1.81-2.53,7.72-5.02,15.45-7.57,23.17-1.12,3.39-2.29,6.77-3.38,10.17-.2.64-1.82,4.72-1.61,4.94-.37-.38,2.72-.62,1.63-1.37-.16-.11-1.57,0-1.6.01-3.18.08-6.39-.02-9.58,0-9.02.06-18.04,0-27.06,0-3.54,0-8.34,4.64-4.75,7.78,5.09,4.46,10.34,8.73,15.73,12.82,2.39,1.81,4.81,3.59,7.25,5.35,2.2,1.59,5.93,3.28,7.41,5.57s-.53,5.56-1.31,7.85c-1.11,3.26-2.19,6.54-3.26,9.82-2.14,6.56-4.22,13.14-6.34,19.7-1.92,5.92,7.35,4.88,8.83.28Z"/>
      <path class="cls-2" d="m118.35,437.39c2.61,7.94,5.32,15.86,7.88,23.81,1.73,5.37,2.68,14.2,7.47,17.91s12.93,1.88,18.36,1.85c8.69-.05,17.37.06,26.06.06l-.59-7.87c-6.82,4.96-13.58,10.01-20.42,14.93-5,3.6-12.28,6.94-14.9,12.84s.88,12.31,2.77,18.09c2.71,8.29,5.03,16.69,6.99,25.19l7.44-5.92c-6.73-4.89-13.49-9.72-20.24-14.59-4.64-3.35-10.52-10.03-16.85-9-3.2.52-5.76,2.67-8.27,4.56-3.19,2.4-6.41,4.76-9.65,7.09-6.06,4.37-12.1,8.72-18.4,12.73l6.02,3.49c2.7-8.54,5.4-17.09,8.1-25.63,1.54-4.86,3.79-10.6,2.58-15.78-1.08-4.62-5.14-7.69-8.73-10.38-7.74-5.79-15.63-11.17-22.41-18.12l-4.54,8.35c9.24-.01,18.49-.2,27.73-.03,5.87.1,11.99.99,16.59-3.45s5.45-11.73,7.29-17.53c2.6-8.22,5.39-16.37,8.06-24.56,2.02-6.21-6.61-5.18-8.21-.3-2.12,6.52-4.32,13.02-6.44,19.53-.91,2.78-1.8,5.56-2.66,8.35-.65,2.1-1.06,6.75-2.61,8.32-.96.97-2.77.76-4.42.72-3.63-.08-7.26-.17-10.89-.18-7.26-.03-14.53.08-21.79.09-3.75,0-7.59,5.23-4.54,8.35,6.15,6.31,13.17,11.39,20.27,16.55,2.88,2.09,7.88,4.73,8.85,8.47,1.07,4.11-1.8,9.63-3.02,13.47-2.49,7.82-4.94,15.64-7.41,23.46-1.38,4.36,3.06,5.37,6.02,3.49,4.75-3.03,9.33-6.22,13.91-9.5,2.75-1.97,5.49-3.94,8.22-5.93,2.51-1.83,5.3-4.78,8.12-6.06,3.02-1.36,5.95,2.16,8.24,3.85,2.93,2.18,5.9,4.29,8.87,6.41,5.28,3.77,10.53,7.59,15.79,11.41,3.46,2.51,8.28-2.28,7.44-5.92-1.54-6.71-3.31-13.37-5.33-19.96-1.07-3.49-2.21-6.96-3.4-10.41-.61-1.76-2.57-5.31-1.68-7.1s5.16-3.67,6.82-4.85c2.54-1.8,5.07-3.62,7.58-5.45,5.66-4.12,11.29-8.3,16.95-12.42,2.38-1.74,3.89-7.86-.59-7.87-7.27,0-14.53-.07-21.8-.07-3.38,0-6.75.02-10.13.07-2.4.04-6.62.88-8.73-.56s-2.48-5-3.14-7.17c-.99-3.23-2.02-6.45-3.07-9.66-2.33-7.14-4.75-14.25-7.09-21.38-1.81-5.51-9.93-.31-8.45,4.18Z"/>
      <path class="cls-2" d="m797.27,481.11c9.14,0,18.29-.12,27.43-.03,5.71.05,12.2,1.24,16.69-3.15s5.31-11.83,7.12-17.4c2.62-8.08,5.35-16.12,8-24.19l-7.76,1.4c2.6,7.96,5.29,15.9,7.85,23.88,1.72,5.37,2.66,14.3,7.68,17.81,4.81,3.36,12.92,1.64,18.34,1.61,8.68-.05,17.36.06,26.03.06l-.21-8.55c-6.13,4.45-12.23,8.94-18.31,13.45-5.39,4-13.2,7.46-16.76,13.34s-.92,11.48,1.17,17.41c1.45,4.13,2.76,8.32,4.07,12.49,1.23,3.93,3.39,8.23,2.82,12.4l7-4.25c-7.51-5.44-15.01-10.89-22.56-16.27-3.51-2.5-8.05-7.59-12.85-6.98-2.09.26-3.8,1.46-5.47,2.65-3.35,2.38-6.64,4.85-9.98,7.24-7.05,5.04-14.02,10.19-21.03,15.27l5.28,3.76c2.55-8,4.85-16.09,7.57-24.03,1.86-5.43,5.42-11.52,4.35-17.46s-6.89-8.93-11.55-12.14c-7.36-5.07-14.43-10.53-21.65-15.79l.82,5.09.59-1.22c2.84-5.92-4.99-7.14-7.43-2.03l-.59,1.22c-.76,1.59-.74,3.96.82,5.09,5.93,4.32,11.77,8.77,17.74,13.04,3.51,2.51,12.97,6.53,13.05,11.61.04,2.61-1.88,5.78-2.75,8.23-.98,2.74-1.89,5.51-2.78,8.28-2.18,6.81-4.21,13.66-6.38,20.47-1.02,3.21,2.6,5.7,5.28,3.76,6.14-4.46,12.25-8.95,18.4-13.39,2.91-2.1,5.86-4.13,8.75-6.25,1.33-.97,4.25-4.15,6.05-4.35-1.21.14,1.45,1.29,1.95,1.65,3.03,2.18,6.02,4.42,9.06,6.58,6.55,4.65,13.02,9.42,19.53,14.13,2.79,2.02,6.62-1.49,7-4.25.92-6.65-1.51-12.41-3.49-18.68-1.04-3.28-2.08-6.56-3.21-9.82-.68-1.95-3.71-7.33-3.03-9.47s4.63-3.74,6.49-5.05c3.07-2.15,6.07-4.4,9.08-6.65,5.06-3.79,10.18-7.49,15.3-11.2,2.56-1.86,5.17-8.54-.21-8.55-7.27,0-14.54-.07-21.81-.07-3.35,0-6.7.02-10.06.07-2.39.04-6.53.86-8.64-.59s-2.46-5.1-3.12-7.26c-.99-3.24-2.02-6.46-3.06-9.68-2.32-7.16-4.73-14.29-7.06-21.44-1.32-4.05-6.76-1.65-7.76,1.4-2.11,6.41-4.26,12.81-6.38,19.22-.95,2.87-1.88,5.74-2.81,8.61-.77,2.4-1.27,6.97-2.83,8.93-1.04,1.32-2.66.87-4.57.85-3.92-.05-7.83-.11-11.75-.11-7.18-.01-14.37.05-21.55.06-4.71,0-7.72,9.23-1.93,9.23Z"/>
      <path class="cls-2" d="m115.98,298.87c9.25-.01,18.5-.2,27.74-.03,5.96.11,12.4,1.1,16.8-3.85s5.22-12.37,7.09-18.24c2.51-7.85,5.16-15.65,7.7-23.49l-7.47,2.54c2.58,7.86,5.27,15.68,7.8,23.56,1.74,5.42,2.64,14.03,7.65,17.65s12.59,1.81,18.14,1.78c8.47-.05,16.93.07,25.4.08l-.45-8.47c-7.33,5.38-14.51,10.97-21.97,16.18-5.26,3.67-11.52,6.79-13.36,13.47s1.9,12.78,3.93,18.69c2.85,8.28,5.28,16.69,7.96,25.03l5.91-7.45c-6.36-4.6-12.77-9.13-19.11-13.76-4.81-3.52-10.43-9.79-16.69-10.32s-12.06,5.83-16.79,9.35c-6.38,4.75-12.96,9.23-19.41,13.88l4.01-.74-1.4-.95,1.56,4.91c3.11-9.5,6.21-19,9.25-28.52,1.24-3.88,3.77-8.74,2.38-12.89s-6.27-6.23-9.43-8.55c-8.05-5.9-16.11-11.79-24.18-17.66l1.56,4.91.48-1.39c2.14-6.21-5.82-6.22-7.65-.91l-.48,1.39c-.65,1.89.02,3.79,1.56,4.91,6.65,4.83,13.35,9.6,19.95,14.5,2.69,2,5.39,3.96,8.1,5.93.6.43,2.46,1.84,2.45,1.82-.33-.66-.6,1.56-.9,2.5-.94,2.89-1.87,5.79-2.78,8.69-2.55,8.15-5.3,16.25-7.96,24.37-.61,1.85-.03,3.83,1.56,4.91l1.4.95c1.26.86,2.97,0,4.01-.74,5.46-3.93,11.01-7.75,16.45-11.71,4.18-3.03,11.01-11.13,16.37-8.59s10.16,7.51,14.84,10.9c5.43,3.93,10.89,7.8,16.32,11.73,3.95,2.86,6.77-4.77,5.91-7.45-2.18-6.76-4.2-13.57-6.4-20.32-.93-2.87-1.9-5.72-2.93-8.55-.7-1.9-2.96-5.75-2.21-7.9.66-1.89,3.44-3.09,4.99-4.13,2.84-1.9,5.65-3.85,8.42-5.86,5.97-4.33,11.82-8.82,17.77-13.18,2.15-1.58,3.87-8.46-.45-8.47-7.64,0-15.28-.11-22.93-.09-3.26,0-6.53.04-9.79.11-2.36.06-5.94.71-8.03-.75-2.29-1.59-2.7-5.49-3.44-7.92-.91-2.99-1.85-5.97-2.82-8.94-2.38-7.34-4.88-14.64-7.29-21.97-1.5-4.56-6.69.14-7.47,2.54-2.03,6.24-4.12,12.46-6.15,18.7-.95,2.9-1.89,5.81-2.79,8.73-.73,2.36-1.1,6.07-2.48,8.13-1.03,1.54-2.09,1.52-3.99,1.58-3.93.13-7.94-.2-11.88-.22-7.27-.03-14.53.08-21.8.09-4.75,0-7.8,9.51-2.59,9.5Z"/>
      <path class="cls-2" d="m750.69,297.87c8.88-.02,17.77-.26,26.65-.05,5.51.13,11.87,1.05,16.39-2.92s5.01-10.54,6.62-15.75c2.57-8.28,5.44-16.46,8.12-24.69l-9.57-1.21c3.12,9.48,6.18,18.98,9.37,28.44,1.4,4.14,2.15,10.52,5.55,13.65s8.74,2.55,13.05,2.51c10.45-.08,20.94.03,31.32,1.31l-2.7-6.8c-6.45,4.72-12.78,9.73-19.41,14.19-4.67,3.14-10.82,5.95-13.25,11.39s.67,11.85,2.65,17.06c2.92,7.67,5.15,15.67,7.7,23.47l.86-2.8-1.32,1.05,6.96-.47c-8.24-5.97-16.58-11.83-24.78-17.85-3.64-2.67-7.35-6.47-12.28-5.93-5.21.56-10.17,5.87-14.19,8.73-7.65,5.44-15.23,11-22.83,16.51l7.83,4.67c2.56-7.93,5.02-15.91,7.63-23.82,1.72-5.22,5.92-12.41,4.8-18.08-1.17-5.98-8-9.08-12.48-12.25-7.11-5.04-14.07-10.31-21.1-15.46l2.05,3.52.44-1.53c1.35-4.66-8.52-6.08-9.92-1.26l-.44,1.53c-.43,1.48,1.04,2.79,2.05,3.52,5.53,4.04,11.01,8.16,16.55,12.19,2.77,2.01,5.56,4,8.37,5.95,2.34,1.61,4.76,2.72,4.6,5.83-.14,2.61-1.8,5.59-2.64,8.05-1.1,3.21-2.15,6.43-3.19,9.65-2.03,6.31-4.01,12.64-6.05,18.96-1.33,4.11,4.64,6.98,7.83,4.67,6.27-4.54,12.5-9.11,18.79-13.62,2.94-2.11,5.92-4.18,8.83-6.34.3-.22,5.58-3.71,5.52-3.99,0,0-1.96-.19-2-.12.03-.04,1.76,1.22,2.01,1.4,2.79,2.04,5.53,4.11,8.36,6.1,6.87,4.83,13.61,9.83,20.41,14.76,2.05,1.49,5.11.99,6.96-.47l1.32-1.05c.7-.55,1.14-1.95.86-2.8-2.16-6.62-4.25-13.26-6.43-19.87-1.49-4.54-6.07-11.74-4.41-16.59,1.57-4.59,8.34-7.13,12.01-9.75,5.94-4.24,11.77-8.67,17.67-12.98,3.46-2.53.96-6.34-2.7-6.8-8.84-1.09-17.71-1.25-26.61-1.34-3.45-.03-6.92.1-10.36,0-.17,0-1.38-.13-1.5-.05-1.21.73,1.02-.88.97.88.02-.91-1.19-2.94-1.5-3.92-1.06-3.4-2.2-6.78-3.33-10.16-2.74-8.2-5.39-16.43-8.09-24.64-1.05-3.2-8.22-5.35-9.57-1.21-2.18,6.68-4.45,13.32-6.62,20-.89,2.74-1.76,5.48-2.6,8.23s-1.26,6.49-2.95,9c-2.61,3.89-11.2,1.8-15.19,1.76-7.62-.07-15.23.09-22.85.11-2.16,0-4.51,1.83-4.04,4.14.51,2.56,3.59,3.38,5.77,3.37Z"/>
      <path class="cls-2" d="m275.64,224.95c2.44-7.6,4.77-15.23,7.26-22.8,1.71-5.19,5.91-12.38,3.65-17.96-2.08-5.14-9.33-8.37-13.51-11.46-6.48-4.79-12.71-9.87-18.67-15.28l-4.93,6.99c9.04-.01,18.07-.23,27.11-.04,6,.12,12.85,1.15,17.81-3.1s5.63-11.61,7.43-17.31c2.57-8.1,5.37-16.13,8.02-24.2-3.15.36-6.3.71-9.45,1.07,2.7,8.19,5.51,16.34,8.14,24.55,1.66,5.17,2.47,12.58,6.8,16.36s10.62,2.72,15.94,2.64c9.18-.13,18.36.33,27.5,1.2l-1.99-6.16c-7.04,5.15-13.92,10.53-21.1,15.48-4.7,3.23-10.74,6.14-12.11,12.2s2.57,12.41,4.4,17.87c2.63,7.86,4.97,15.81,7.51,23.7l8.28-4.67c-6.65-4.82-13.3-9.64-19.95-14.46-4.71-3.4-10.5-9.26-16.55-10.02s-10.68,3.69-15.03,6.85c-7.8,5.67-15.6,11.34-23.4,17.01l7.68-.13-1.25-1.21c-3.41-3.3-12.28,1.26-8.56,4.87l1.25,1.21c2.27,2.2,5.31,1.59,7.68-.13,5.92-4.3,11.84-8.6,17.76-12.9,3.09-2.24,6.11-4.65,9.31-6.73,2.07-1.35,1.27-1.13,3.09-.35,5.05,2.18,9.91,7.02,14.35,10.24,5.52,4,11.05,8.01,16.57,12.01,2.89,2.09,9.61-.55,8.28-4.67-2.19-6.82-4.25-13.68-6.46-20.49-.94-2.91-1.92-5.82-2.96-8.7-.86-2.39-2.74-5.69-2.48-8.33s2.27-3.65,4.32-5.06c2.86-1.96,5.72-3.9,8.53-5.93,5.94-4.27,11.74-8.73,17.64-13.05,2.87-2.11,1.19-5.86-1.99-6.16-7.37-.7-14.75-1.13-22.15-1.21-3.25-.03-6.5-.01-9.74.06-2.44.05-5.39.74-7.18-1.27-1.58-1.77-1.98-5.18-2.65-7.38-.93-3.05-1.9-6.08-2.89-9.1-2.32-7.08-4.73-14.14-7.06-21.22-1.35-4.11-8.33-2.33-9.45,1.07-2.11,6.43-4.31,12.84-6.42,19.27-.98,2.99-1.94,5.98-2.86,9-.75,2.48-1.11,5.88-2.5,8.1-.99,1.59-1.59,1.61-3.49,1.65-3.85.08-7.75-.22-11.61-.24-7.1-.03-14.2.1-21.3.11-3.52,0-8.8,3.47-4.93,6.99,4.83,4.39,9.84,8.57,15.03,12.54,2.41,1.84,4.85,3.64,7.32,5.41,2.12,1.52,5.97,3.23,7.29,5.57s-.53,5.4-1.3,7.63c-1.04,3.01-2.05,6.04-3.03,9.08-2.16,6.68-4.23,13.39-6.37,20.07-1.76,5.5,7.94,5.44,9.38.94Z"/>
      <path class="cls-2" d="m638.95,227.63c2.56-7.91,5.01-15.86,7.61-23.76,1.81-5.5,5.66-12.32,4.75-18.29s-7.16-8.89-11.72-12.15c-7.16-5.11-13.91-10.74-20.34-16.74l-4.25,8.65c10.75.01,21.52-.16,32.27-.01,4.33.06,8.75.44,11.89-3.07s3.81-8.82,5.17-13.01c3.17-9.8,6.46-19.56,9.67-29.35l-7.43,2.64c2.58,7.36,5.07,14.74,7.49,22.15,1.84,5.66,2.69,15.28,8.04,18.96s14.26,1.6,20.18,1.61c7.63.02,15.23.07,22.84.48l-.56-8.46c-6.78,4.95-13.49,10.01-20.32,14.91-4.98,3.57-11.81,6.69-14.17,12.73s.83,11.85,2.72,17.56c2.73,8.24,4.88,16.66,6.54,25.18l6.15-6.49c-6.93-4.99-14.02-9.77-20.8-14.96-4.76-3.64-9.54-8.75-16.08-7.18-6.06,1.45-11.28,7.32-16.2,10.91-6.3,4.61-12.73,9.03-19.06,13.6-4.23,3.05-1.71,11.2,3.59,7.39s10.88-7.7,16.3-11.6c2.29-1.65,4.57-3.31,6.81-5.01s5.17-4.96,7.99-5.75c3.31-.92,5.92,1.75,8.37,3.67s5.06,3.88,7.64,5.76c5.63,4.12,11.38,8.07,17.04,12.15,3.36,2.42,6.65-3.88,6.15-6.49-1.28-6.55-2.83-13.03-4.74-19.43-.95-3.19-1.97-6.35-3.04-9.5-.57-1.66-2.9-5.88-2.15-7.56.82-1.83,4.79-3.53,6.39-4.65,2.56-1.79,5.1-3.61,7.63-5.45,5.63-4.1,11.21-8.28,16.84-12.39,2.32-1.69,3.66-8.23-.56-8.46-6.68-.36-13.34-.43-20.02-.47-4.07-.02-8.14-.02-12.22.06-2.35.05-5.93.8-8.06-.6-2.3-1.51-2.61-5.8-3.35-8.23-1.04-3.41-2.15-6.8-3.26-10.18-2.24-6.8-4.51-13.58-6.89-20.33-1.6-4.55-6.65.25-7.43,2.64-2.77,8.46-5.48,16.93-8.33,25.36-.91,2.7-1.79,5.39-2.62,8.12-.31,1.01-.6,2.04-.94,3.04s-.08.5-.1.48c.17.25.6-.48.67-.47-.38-.06-1.24.17-1.65.2-2.07.12-4.18-.05-6.26-.06-9.88-.05-19.76.05-29.64.05-3.61,0-7.39,5.73-4.25,8.65,5.15,4.81,10.51,9.37,16.13,13.63,2.4,1.82,4.83,3.6,7.3,5.33,2.15,1.51,6.38,3.23,6.74,6.09.28,2.21-1.9,5.92-2.63,8.03-.99,2.89-1.95,5.8-2.9,8.71-2.22,6.84-4.36,13.71-6.57,20.55-2.02,6.25,5.93,6.16,7.66.8Z"/>
      <path class="cls-2" d="m484.87,74.04c3.18,9.63,6.46,19.23,9.55,28.89,1.29,4.04,2.15,9.35,5.83,12.02,3.24,2.36,7.91,1.66,11.65,1.65,10.42-.02,20.89.05,31.25,1.32l-3.13-9.12c-6.64,4.86-13.14,9.92-19.9,14.63-4.88,3.4-11.12,6.15-12.84,12.35s1.71,12.12,3.56,17.62c2.6,7.68,4.64,15.52,6.28,23.45l5.21-4.12c-6.15-4.42-12.31-8.82-18.46-13.25-4.75-3.42-11.14-10.59-17.41-10.19-3,.19-5.29,2.19-7.6,3.91-2.87,2.14-5.77,4.26-8.7,6.32-6.26,4.4-12.68,8.55-19.29,12.39l6.16,6.72c2.92-9.11,5.94-18.19,8.74-27.33,1.45-4.72,3-9.87,1.36-14.75s-5.97-8.09-9.93-11.04c-7.4-5.51-14.95-10.71-21.56-17.2l-1.62,8.32c8.59-.01,17.18-.16,25.78-.06,5.27.06,11.98,1.44,16.38-2.28s5.13-10.82,6.75-15.9c2.46-7.72,5.1-15.37,7.64-23.07l-3.03,2.4,1.5-.02c5.34-.07,3.54-9.83-1.25-9.77l-1.5.02c-1.5.02-2.58,1.02-3.03,2.4-2.14,6.51-4.37,12.99-6.49,19.51-.96,2.96-1.91,5.93-2.81,8.91-.66,2.18-1.04,5.43-2.81,7.05-1.52,1.39-3.75,1.16-5.65,1.12-3.63-.07-7.26-.16-10.9-.17-7.27-.03-14.54.08-21.81.09-4.18,0-3.8,6.18-1.62,8.32,5.72,5.61,12.02,10.49,18.48,15.2,2.66,1.94,9.3,5.19,10.45,8.64.76,2.28-1.67,7.47-2.46,9.94-2.62,8.24-5.28,16.47-7.92,24.7-1.14,3.56,2.17,9.04,6.16,6.72,5.31-3.09,10.51-6.36,15.59-9.82,2.48-1.69,4.93-3.42,7.36-5.18s5.51-5.12,8.36-5.87c3.08-.81,6.12,2.65,8.64,4.51s5.06,3.69,7.6,5.51c5.39,3.86,10.78,7.74,16.17,11.61,2.91,2.09,5.84-1.09,5.21-4.12-1.34-6.47-2.86-12.9-4.74-19.24-.93-3.14-1.94-6.25-3.03-9.33-.76-2.14-2.75-5.43-2.4-7.8.31-2.13,2.55-3.42,4.16-4.53,3.13-2.15,6.32-4.19,9.41-6.4,5.66-4.06,11.18-8.32,16.8-12.43,3.45-2.52.48-8.68-3.13-9.12-8.88-1.08-17.77-1.21-26.7-1.29-3.23-.03-9.49.6-11.9-.08.34.1.69.91.22.1.12.21-.5-1.56-.62-1.93-.88-2.71-1.7-5.43-2.6-8.14-2.79-8.4-5.56-16.81-8.34-25.22-1.96-5.92-9.05-3.48-7.09,2.44Z"/>
    </g>
  </g>
</svg>