<?xml version="1.0" encoding="UTF-8"?>
<svg id="Calque_2" xmlns="http://www.w3.org/2000/svg" viewBox="0 0 437.11 655.37">
  <defs>
    <style>
      .cls-1 {
        fill: #aeccba;
      }

      .cls-2 {
        fill: #111827;
      }
    </style>
  </defs>
  <g id="Fermentation">
    <g>
      <path class="cls-2" d="M429,162.96c0,33.92,0,67.83,0,101.75v14.39l4.48-5.34c-54.31,11.36-110.28,13.56-165.28,6.14-19.7-2.66-39.41-5.6-58.97-9.15-22.15-4.02-44.27-7.61-66.75-9.3-2.88-.22-5.34,2.6-5.5,5.35-1.09,18.76-16.6,33.23-35.63,32.24-18.65-.97-32.94-15.8-34.23-34.19-.14-1.92-1.83-3.03-3.6-2.88-19.87,1.75-39.47,4.89-59.04,8.69l3.63,4.05v-97.57c0-6.93-.46-14.1.3-21.01,2.54-23.03,22.7-38.81,45.22-39.12,2.3-.03,4.48-3.3,4.48-5.34v-51.5l-5.5,5.35h328l-2.6-4.05v51.5c0,1.49.58,4.05,2.6,4.05,25.65,0,48.04,19.61,48.4,45.95.09,6.5,8.18,3.94,8.11-1.3-.41-29.69-23.47-54.05-53.6-54.05l2.6,4.05v-51.5c0-1.49-.58-4.05-2.6-4.05H55.5c-2.76,0-5.5,2.42-5.5,5.35v51.5l4.48-5.34c-20.45.28-39.46,12.39-48.54,30.73-5.12,10.35-5.93,21.03-5.93,32.26v105.4c0,2.08,1.05,4.55,3.63,4.05,19.57-3.8,39.17-6.94,59.04-8.69l-3.6-2.88c1.6,22.68,20.33,40.58,43.28,40,23.28-.59,41.41-20.26,42.74-42.99l-5.5,5.35c29.31,2.19,57.82,8.27,86.79,12.64,37.52,5.66,74.73,10.72,112.83,10.13,31.4-.48,62.69-4.05,93.43-10.48,2.3-.48,4.48-2.93,4.48-5.34v-116.14c0-6.51-8.11-3.93-8.11,1.3Z"/>
      <path class="cls-2" d="M386.49,57.06H65.42c-5.14,0-10.28.11-15.42,0-21.54-.44-31.73-27.59-16.62-42.68,6.53-6.52,14.29-6.82,22.66-6.82h116.14c36.01,0,72.02,0,108.04,0h104.01c14.68,0,26.51,10.96,25.79,26.22-.6,12.65-10.87,22.98-23.53,23.28-6.22.15-6.12,7.65.13,7.5,12.69-.3,24.49-6.93,30.21-18.47,5.36-10.81,3.8-24.09-3.7-33.5S394.04.06,382.25.06H103.65C85.85.06,68.05-.07,50.25.06,31.09.2,13.87,15.77,16.27,35.81c2.13,17.79,17.68,28.68,34.82,28.75,18.97.07,37.95,0,56.92,0h278.62c6.24,0,6.1-7.5-.13-7.5Z"/>
      <g>
        <path class="cls-1" d="M259.11,283.51l-41.08-6.2-2.75-.5-22.62-4.11c-17.1-3.1-34.34-5.29-51.63-6.55-.13,3.71-.77,7.28-1.86,10.66-5.06,15.67-19.77,27-37.12,27s-32.06-11.33-37.12-27c-1.04-3.22-1.67-6.62-1.84-10.14-16.99,1.46-33.91,3.82-50.7,7.07l-8.34,1.62v324.95c0,27.61,22.39,50,50,50h329c27.61,0,50-22.39,50-50v-321.86c-57.13,12.07-116.11,13.79-173.94,5.06ZM70.05,389.81c-4.42,0-8-3.58-8-8s3.58-8,8-8,8,3.58,8,8-3.58,8-8,8ZM117.05,548.81c-13.25,0-24-10.75-24-24s10.75-24,24-24,24,10.75,24,24-10.75,24-24,24ZM261.05,436.81c-15.46,0-28-12.54-28-28s12.54-28,28-28,28,12.54,28,28-12.54,28-28,28ZM364.05,579.81c-5.52,0-10-4.48-10-10s4.48-10,10-10,10,4.48,10,10-4.48,10-10,10Z"/>
        <g>
          <path class="cls-2" d="M260.54,278.72c-22.2-3.35-44.3-6.82-66.4-10.8-17.44-3.14-35.02-5.35-52.69-6.67-2.41-.18-4.16,3.22-4.27,5.14-1.09,18.82-16.59,32.85-35.43,32.5s-33.55-15.33-34.84-33.71c-.12-1.7-1.54-3.58-3.4-3.41-19.87,1.75-39.47,4.89-59.04,8.69-2.33.45-4.27,2.68-4.27,5.14,0,26.13,0,52.26,0,78.39v150.25c0,31.52-.05,63.04,0,94.56.04,26.08,16.22,50.22,42.84,55.39,9.22,1.79,19.19,1.03,28.53,1.03,41.88,0,83.75,0,125.63,0,47.34,0,94.67,0,142.01,0,12.9,0,25.8,0,38.7,0,3.42,0,6.85.07,10.26-.3,17.04-1.86,32.17-12.04,40.92-26.68,7.58-12.68,7.81-26.07,7.81-40.13v-48.6c0-49.23,0-98.47,0-147.7v-113.58c0-1.78-.82-5.21-3.42-4.67-56.83,11.89-115.49,13.73-172.93,5.17-4.96-.74-7.69,8.86-2.86,9.58,58.15,8.66,117.38,7.1,174.95-4.95l-3.42-4.67v76.86c0,49.31,0,98.62,0,147.93,0,31.65,0,63.3,0,94.94,0,8-1.22,15.73-5,22.9-7.98,15.11-23.85,23.88-40.73,24.08-7.34.09-14.68,0-22.01,0-42.17,0-84.35,0-126.52,0-46.26,0-92.53,0-138.79,0-12.49,0-24.98,0-37.47,0-3.83,0-7.64.06-11.45-.56-17.44-2.84-32.2-15.46-37.41-32.37-2.84-9.21-1.93-19.56-1.93-29.09v-51.49c0-48.8,0-97.6,0-146.39,0-35.02,0-70.03,0-105.05v-5.32l-4.27,5.14c19.57-3.8,39.17-6.94,59.04-8.69l-3.4-3.41c1.59,22.61,20.03,40.96,43.08,40.54s41.21-20.12,42.53-42.79l-4.27,5.14c33.46,2.51,66.32,9.59,99.46,14.59l17.62,2.66c4.96.75,7.69-8.85,2.86-9.58Z"/>
          <path class="cls-2" d="M70.48,384.9c-4.48-.24-6.5-6.39-.85-6.19,1.88.07,4.27,1.4,4.51,3.45s-2.01,2.65-3.66,2.74c-4.77.26-6.18,10.1-.85,9.81,6.94-.37,11.97-6.36,12.27-13.14s-4.58-12.71-11.42-12.67-11.78,6.33-12.25,12.71c-.51,7.06,4.4,12.73,11.4,13.1,4.73.25,6.23-9.52.85-9.81Z"/>
          <path class="cls-2" d="M117.48,543.9c-10.51-.29-20.18-8.31-20.56-19.22s9.25-18.98,19.71-18.97,20.2,8.52,20.56,19.22-9.26,18.67-19.71,18.97c-4.77.13-6.2,9.96-.85,9.81,25.49-.71,37.98-33.95,18.8-51.08-8.92-7.97-22.32-8.74-32.38-2.48-10,6.22-15.39,18.59-13.48,30.16,2.22,13.53,13.5,23.01,27.06,23.39,4.75.13,6.23-9.66.85-9.81Z"/>
          <path class="cls-2" d="M261.48,431.9c-12.71-.31-24.11-10.09-24.57-23.19-.45-13.09,11.1-23.03,23.72-23s24.18,10.3,24.57,23.19c.4,13.35-11.07,22.69-23.72,23-4.77.12-6.21,9.94-.85,9.81,29.31-.72,43.4-39,21.13-58.37-10.07-8.76-25.03-9.67-36.36-2.86-11.64,7-18.06,21.24-15.75,34.62,2.66,15.37,15.47,26.23,30.98,26.61,4.75.12,6.23-9.68.85-9.81Z"/>
          <path class="cls-2" d="M364.48,574.9c-7.11-.38-9.05-10.38-.85-10.19,2.86.07,5.94,2.08,6.45,5.03.59,3.42-2.68,5-5.6,5.16-4.77.26-6.18,10.1-.85,9.81,8.04-.43,13.96-7.22,14.27-15.14s-5.5-14.76-13.42-14.67-13.73,7.14-14.24,14.6c-.57,8.23,5.26,14.77,13.39,15.21,4.73.26,6.23-9.52.85-9.81Z"/>
        </g>
      </g>
      <path class="cls-2" d="M136.14,264.57c-.23,15.12-9.95,29.04-24.44,33.77s-28.78-.72-37.18-12.39c-18.17-25.23,5.11-63.11,36.11-55.34,15.56,3.9,25.24,18.37,25.51,33.97.08,4.75,9.93,5.85,9.84.47-.31-17.61-11.42-33.35-27.78-39.83-16.52-6.54-35.94-2.85-48.33,10.05s-15.37,33.76-6.28,49.75,27.1,24.54,45.09,22.25c21.33-2.72,36.98-20.91,37.3-42.21.07-4.74-9.76-5.86-9.84-.47Z"/>
      <path class="cls-2" d="M345.86,227.19c-.67,16.54-25.86,12.54-25.61-2.77.12-7.16,6.74-11.88,13.62-10.86s11.71,6.79,11.98,13.64c.25,6.22,8.59,2.05,8.39-2.77-.47-11.57-9.73-21.11-21.68-20.18s-20.83,11.46-20.72,22.95,9.99,21.13,21.68,20.18,20.25-11.41,20.72-22.95c.1-2.4-2.27-3.64-4.35-3.03-2.48.73-3.94,3.38-4.04,5.8Z"/>
      <path class="cls-2" d="M284.13,408.67c-.31,12.56-9.1,24.19-22.4,24.34-13.24.15-23.72-11.7-23.72-24.58,0-12.63,10.05-24.14,23.07-23.82,13.54.33,22.74,12.21,23.05,25.07.12,4.86,9.97,3.27,9.84-1.76-.73-29.84-39.86-41.13-58.42-18.98-8.5,10.15-9.95,25.01-2.91,36.37,7.17,11.57,21.27,17.27,34.54,14.64,14.92-2.96,26.41-15.68,26.79-31.02.13-5.37-9.73-5-9.84-.27Z"/>
      <path class="cls-2" d="M370.3,569.87c-.35,6.54-12.68,6.49-12.5-.13.17-6.58,12.15-6.46,12.5.13.33,6.18,7.84,6.13,7.5-.13-.41-7.64-5.55-14.93-13.83-14.94s-13.68,7.45-13.66,15.06c.01,7.48,5.55,14.56,13.29,14.91,8.6.38,13.79-7.24,14.21-15.03.11-2.13-1.46-4.98-3.83-4.94-2.61.04-3.55,2.96-3.66,5.06Z"/>
      <path class="cls-2" d="M136.44,525.77c-.3,10.7-8.28,19.49-19.4,18.79-10.72-.67-19.28-10.05-19.37-20.71s8.58-19.5,19.4-18.79c10.87.7,19.07,10.03,19.37,20.71.16,5.79,9.36,2.81,9.23-1.92-.33-11.84-7.48-22.35-18.98-25.97-11.29-3.55-24,.65-31.47,9.68s-9.01,22.34-2.74,32.62,18.45,14.69,29.72,12.14c13.34-3.02,23.1-14.83,23.48-28.47.16-5.76-9.1-2.8-9.23,1.92Z"/>
      <path class="cls-2" d="M73.07,381.41c-.09,1.72-.95,4.6-3.18,4.64-1.79.03-2.78-2.38-2.85-3.84-.09-1.7.98-4.41,2.96-4.6s2.98,2.19,3.07,3.8c.27,5.01,10.23,5.69,9.97.8-.37-6.9-5.75-11.89-12.68-12.14-6.55-.23-13.16,4.39-13.28,11.34-.28,15.29,25.14,16.16,25.97.8.27-4.99-9.7-5.78-9.97-.8Z"/>
    </g>
  </g>
</svg>