<?xml version="1.0" encoding="UTF-8"?>
<svg xmlns="http://www.w3.org/2000/svg" viewBox="0 0 977.95 979.65">
  <defs>
    <style>
      .cls-1 {
        fill: #e6e6e6;
      }

      .cls-1, .cls-2 {
        stroke-width: 0px;
      }
    </style>
  </defs>
  <g id="Cercle">
    <path class="cls-2" d="m970,490.85c-.07,50.32-7.77,100.64-23.43,148.49-15.1,46.14-37.2,89.86-65.42,129.37-27.94,39.12-61.74,73.93-99.93,103.12-38.54,29.45-81.72,53.03-127.34,69.52-46.93,16.97-96.45,26.56-146.32,28.34-50.63,1.8-101.56-4.17-150.28-18.11-46.78-13.39-91.48-33.91-132.15-60.62-40.22-26.42-76.42-59.03-107.1-96.09-30.86-37.28-56.02-79.3-74.4-124.07s-30.52-95.25-34.28-144.92.24-101.88,12.3-151.27c11.52-47.18,30.35-92.6,55.61-134.07,25.03-41.09,56.17-78.33,92.18-110.24,36.15-32.03,77.12-58.52,121.14-78.41,45.15-20.39,93.53-33.57,142.74-39.19,50.64-5.79,102.31-3.43,152.24,6.76,48.08,9.82,94.61,27.24,137.45,51.15,42.1,23.5,80.56,53.39,113.86,88.25,33.36,34.91,61.38,74.79,82.94,118,22.02,44.15,37.07,91.65,44.61,140.4,3.77,24.35,5.55,48.96,5.59,73.59,0,6.54,7.96,3.11,7.95-2.05-.07-51.36-7.98-102.68-23.9-151.53-15.29-46.92-37.65-91.46-66.28-131.66-28.45-39.95-62.78-75.63-101.76-105.42-39.09-29.87-82.65-53.88-128.88-70.74S558.53,2.13,507.56.31c-51.52-1.84-103.38,4.38-152.93,18.64-47.51,13.67-92.94,34.64-134.16,61.94-40.76,27-77.35,60.01-108.48,97.71-31.45,38.1-57.11,81.04-75.76,126.78S5.36,402.4,1.45,453.08c-3.96,51.44.19,103.57,12.35,153.71,11.74,48.42,31.01,95.04,56.87,137.63,25.35,41.74,56.97,79.7,93.48,112.13,36.79,32.68,78.56,59.84,123.41,80.1s94.82,34.13,144.73,39.84c51.56,5.89,104.11,3.56,154.95-6.9s96.35-27.83,139.93-52.3c42.64-23.95,81.71-54.36,115.4-89.81,33.95-35.73,62.48-76.44,84.42-120.58,22.3-44.87,37.62-93.25,45.21-142.78,3.82-24.92,5.71-50.11,5.75-75.32,0-6.54-7.94-3.11-7.95,2.05Z"/>
  </g>
  <g id="Gélules_végétales" data-name="Gélules végétales">
    <path class="cls-1" d="m513.03,780.22l-246.78-246.78c-58.58-58.58-64.57-147.56-13.39-198.74h0c51.18-51.18,140.16-45.19,198.74,13.39l123.39,123.39,123.39,123.39c58.58,58.58,64.57,147.56,13.39,198.74h0c-51.18,51.18-140.16,45.19-198.74-13.39Z"/>
    <path class="cls-2" d="m522.27,702l-56.78-56.78c-36.86-36.86-73.73-73.73-110.59-110.59-25.36-25.36-50.72-50.72-76.08-76.08-17.28-17.28-31.65-36.96-40.44-59.94-13.11-34.24-13.9-73.46,2.78-106.65,16.18-32.18,47.8-53.67,82.98-59.63,37.53-6.35,76.96,4.63,107.91,26.18,15.15,10.55,27.73,23.97,40.72,36.95,17.56,17.56,35.13,35.13,52.69,52.69,20.84,20.84,41.68,41.68,62.51,62.51,33.21,33.21,66.41,66.41,99.62,99.62,14.09,14.09,28.08,27.84,38.62,44.99,19.7,32.05,28.27,71.39,19.25,108.32-8.48,34.72-33.56,63.86-66.83,77.06s-74.28,10.43-108-4.92c-18.07-8.22-34.29-19.8-48.37-33.75-3.76-3.72-8.93,4.77-5.53,8.15,28.43,28.18,66.42,46.83,106.68,48.77,36.56,1.77,73.26-11.13,98.74-37.83,25.57-26.78,37.22-64.01,34.4-100.67-3.02-39.31-21.35-75.97-48.97-103.8-29.15-29.36-58.51-58.51-87.77-87.77-19.95-19.95-39.91-39.91-59.86-59.86-32.36-32.36-64.72-64.72-97.09-97.09-22.55-22.55-50.15-39.6-81.4-46.89-35.83-8.37-74.77-3.85-105.74,16.87s-50.33,54.43-54.27,91.07c-4.17,38.74,7.66,78.06,30.53,109.38,8.42,11.53,18.37,21.44,28.41,31.48,12.69,12.69,25.38,25.38,38.06,38.06,37.49,37.49,74.99,74.99,112.48,112.48,27.16,27.16,54.32,54.32,81.49,81.49l4.3,4.3c3.74,3.74,8.92-4.76,5.53-8.15Z"/>
    <path class="cls-2" d="m399.09,585.88c20.92-20.92,41.84-41.84,62.76-62.76,33.37-33.37,66.74-66.74,100.12-100.12l23.09-23.09c4.4-4.4-3.73-8.6-7.18-5.15-20.92,20.92-41.84,41.84-62.76,62.76-33.37,33.37-66.74,66.74-100.12,100.12l-23.09,23.09c-4.4,4.4,3.73,8.6,7.18,5.15h0Z"/>
    <path class="cls-2" d="m251.78,361.95c13.37-22.31,33.24-42.99,55.66-56.12,18.26-10.7,39.65-15.74,60.55-10.86,26.63,6.22,46.18,25.25,64.42,44.4,22.62,23.75,45.61,49.74,75.98,63.64l-.5-4.56c-22.13,15.13-49.95,25.39-76.51,28.05-22.3,2.24-45.05-1.66-64.17-13.74-12.06-7.62-23.14-17.58-33-27.85-6.77-7.06-13.05-14.67-18.24-22.97-4.23-6.77-9.53-17.05-9.74-24.2l-1.35,2.43c-1.1.21,1.09-.15,1.42-.2,1.61-.2,3.22-.35,4.84-.46,6.12-.4,12.28-.24,18.39.27,21.86,1.85,43.19,8.55,62.89,18.05,16.93,8.17,32.66,18.57,47.34,30.27,2.16,1.73,3.46-2.48,2.23-3.95-11.66-13.87-26.04-26.05-40.9-36.3-26.79-18.48-59.51-31.5-92.45-25.15-23.54,4.54-43.39,18.49-59.54,35.74-1.03,1.1-.49,3,.43,3.92h0c1.98,1.99,3.48-2.7,1.84-4.33h0c.14,1.3.28,2.61.43,3.92,14.45-15.43,32.12-28.1,52.85-33.31,16.58-4.17,34.02-3.06,50.34,1.72,27.05,7.93,51.11,24.71,71.41,43.91,4.52,4.27,8.98,8.69,12.98,13.45l2.23-3.95c-35.84-28.58-81.75-51.63-128.81-49.35-2.99.14-6.01.37-8.96.94-.93.18-1.37,1.64-1.35,2.43.22,7.21,3.67,14.7,6.95,20.92,10.47,19.88,27.2,36.21,44.57,50.1,19.26,15.41,41.77,23.63,66.53,23.32,20.4-.25,40.59-5.61,59.29-13.54,10.34-4.38,20.71-9.48,30.02-15.84,1.51-1.03,1.06-3.85-.5-4.56-28.8-13.18-50.93-37.77-72.37-60.33-18.16-19.11-37.09-38.56-63.08-46.39-40.75-12.28-78.76,11.68-105.12,41.06-7.2,8.03-14.13,16.65-19.68,25.93-1.22,2.03,1.11,6.14,2.69,3.5Z"/>
  </g>
</svg>