<?xml version="1.0" encoding="UTF-8"?>
<svg id="Calque_2" xmlns="http://www.w3.org/2000/svg" viewBox="0 0 714.48 377.59">
  <defs>
    <style>
      .cls-1 {
        fill: #aeccba;
      }

      .cls-2 {
        fill: #111827;
      }
    </style>
  </defs>
  <g id="Halal">
    <g>
      <path class="cls-2" d="M186.81,361.91c28.71-8.33,57.39-16.14,84.13-29.83,23.01-11.78,44.14-26.97,62.36-45.33s33.12-39.81,44.56-62.93c14.76-29.84,23.98-62.43,34.07-94.04,5.57-17.44,10.68-35.12,17-52.31.8-2.19,1.63-4.37,2.54-6.51.2-.46,1.11-1.92,1.06-2.4-.24-2.12-.37.6-.88-.56.79,1.81,2.45,3.47,3.29,5.4.97,2.24,1.71,4.57,2.17,6.97,1.73,9.08,1.36,18.99,1.87,28.22,2.03,37.05,2.2,74.19,4.35,111.22,1.05,18.08,3.19,36.03,7.04,53.74,2.75,12.65,6.57,25.47,16.18,34.71,8.83,8.48,20.42,12.61,32.42,14.05,18.2,2.18,36.58,1.23,54.71-1.12,9.11-1.18,18.18-2.67,27.23-4.27,5.51-.97,11.17-2.15,15.29-6.26s5.91-10.53,3.23-15.82c-2.52-4.96-8.3-8.06-12.64-11.25-25.92-19.02-57.72-22.22-87.91-12.29-7.47,2.46-14.76,5.49-22.09,8.31l5.61,3.56c7.18-22.25,20.76-46.75,44.85-53.78,25.28-7.37,45.73,9.93,64.62,23.98,18.55,13.8,39.54,24.55,62.11,29.92,11.26,2.68,22.88,4.01,34.46,4.06,2.78.01,5.55-.06,8.33-.19,1.95-.09,4.86-.78,6.77-.22,1.08.32.97-.2,1.52.69.71,1.15-.03,4.33-.14,5.49-.66,6.94-2.08,13.78-3.25,20.65-.42,2.46-.27,5.99-1.51,8.16-1.18,2.06-2.88,1.88-5.17,1.91-13.97.17-27.89-.24-41.87.23-13.07.44-27.14-.27-39.68,3.94-11.88,3.99-22.08,11.47-33.1,17.24-35.46,18.54-86.27,32.46-121.62,6.12-16.37-12.2-25.34-31.4-29.39-50.98-3.27-15.79-4.26-31.96-5.58-47.99-.63-7.67-1.41-15.33-1.77-23.02-.32-6.62.99-15.02-3.9-20.17-2.26-2.37-6.77-.75-7.92,2.1-7.7,19.14-14.03,38.71-23.36,57.17-8.84,17.48-19.76,33.77-33.03,48.21-24.3,26.45-56.41,44.16-92.27,48.44-24.15,2.88-49.7,0-71.5-11.08-4.25-2.16-11.03,5.15-6.35,7.53,37.87,19.24,85.2,16.28,123.24-1.12,34.76-15.9,62.27-44.97,81.23-77.71,12.78-22.06,20.55-45.94,30.01-69.46l-7.92,2.1c2.79,2.94,2.21,6.73,2.38,10.57s.32,7.71.57,11.56c.54,8.31,1.41,16.61,2.08,24.91,1.19,14.63,2.43,29.37,5.56,43.74,4.15,19.06,13.05,37.17,28.07,49.95,35.05,29.83,88.53,18.16,126.16.3,12.96-6.15,24.85-15.54,38.44-20.19,6.52-2.23,13.13-2.58,19.95-2.91,8.38-.41,16.77-.7,25.15-.95,6.99-.2,13.97-.38,20.96-.28,6.47.09,13.95,1.45,20.18-.75,4.1-1.44,7.22-4.48,8.84-8.49,2.68-6.67,3.08-15.13,4.2-22.23.96-6.08,5.02-19.6-3.87-21.86-4.67-1.19-10.11-.04-14.84.04-6.68.12-13.39-.18-20.03-1-25.57-3.16-49.41-13.46-70.46-28.11-12.76-8.88-24.12-19.67-38.66-25.71-11.72-4.86-24.66-6.39-37-2.99-28.82,7.95-45.71,35.67-54.32,62.38-1.23,3.82,3.02,4.56,5.61,3.56,14.77-5.67,29.37-11.6,45.34-12.69,14.79-1.01,29.51,1.87,42.71,8.65,6.53,3.35,12.31,7.65,18.25,11.91,4.06,2.91,10.05,9.64,2.36,12.4-6.64,2.38-14.49,2.85-21.41,3.94-8.93,1.4-17.91,2.54-26.93,3.22-25.52,1.91-59.53,2.97-73.33-23.27-7.23-13.76-9.32-31.25-11.26-46.45-2.23-17.42-2.97-34.98-3.46-52.52-1-35.82-2.41-71.58-4.57-107.34-.48-7.94-5.68-34.12-18.72-22.99-5.13,4.38-7.13,13.17-9.26,19.3-2.85,8.18-5.42,16.47-8.06,24.72-18.09,56.48-32.5,116.74-71.48,163.13-15.63,18.61-34.38,34.57-55.18,47.14-22.95,13.86-47.72,23.25-73.38,30.72-7.99,2.33-16,4.58-23.99,6.9-4.93,1.43-6.24,10.03.03,8.21Z"/>
      <path class="cls-2" d="M39.63,218.37c-4.67,33.04-16.46,80.41,16.68,103.09,14.22,9.73,32.91,10.97,49.6,9.87,18.9-1.25,37.29-7.1,53.82-16.26,7.52-4.17,16.24-8.82,21.63-15.69s6-15.01,6.03-23.49c.08-23.16.18-46.32.31-69.48s.28-46.98.44-70.47c.08-11.58.16-23.16.24-34.74.07-9.85.79-19.99-2.37-29.48-1.44-4.32-3.6-7.93-6.01-11.74-2.61-4.12-4.7-8.57-7.14-12.79-3.32-5.74-2.78-9.58,1.01-14.9,3.45-4.84,6.9-9.69,10.33-14.54,1.42-2,2.74-4.27,4.38-6.1,2.54-2.85,3.66-.83,5.5,1.5,3.56,4.52,6.92,9.21,10.38,13.81,6.91,9.2,13.85,18.4,20.4,27.87.82,1.19,2.87,3.42,2.54,4.98-.39,1.84-3.29,3.28-4.62,4.2-3.37,2.32-6.34,5.01-8.74,8.35-4.37,6.07-6.13,13.6-6.56,20.97-.63,10.94-.07,22.02-.05,32.97s0,22.57-.04,33.86c-.1,23.57-.34,47.13-.68,70.7-.29,19.67.32,39.15-5.93,58.06-10.71,32.4-35.87,60.37-68.26,71.99-36.55,13.11-84.43,7.56-110.23-23.96-22.76-27.81-16.66-66.07,3.62-93.4,5.59-7.53,12.29-14.09,19.62-19.93,3.69-2.94.14-11.96-4.4-8.34C12.95,237.74-5.74,274.49,1.6,310.94c7.42,36.83,40.58,60.08,76.26,65.41,38.51,5.75,77.85-8.83,103.62-37.85,11.77-13.25,20.88-28.85,26.35-45.72,6.1-18.85,5.99-37.89,6.29-57.49.37-24.56.64-49.12.75-73.69.05-11.95.07-23.9.05-35.85-.02-11.11-1.03-22.65.26-33.7,1.06-9.07,5.28-14.95,12.63-20.14,6.68-4.71,8.95-11.87,5.16-19.37-2.33-4.61-5.9-8.79-8.91-12.97-3.56-4.93-7.17-9.81-10.8-14.68-3.25-4.36-6.52-8.7-9.79-13.05-2.85-3.79-5.93-10.04-10.8-11.54-3.56-1.1-6.64.88-8.9,3.46-3.61,4.11-6.55,8.98-9.7,13.45-5.86,8.31-13.11,16.25-10.78,27.17,1,4.69,3.68,8.38,5.92,12.52,2.57,4.76,5.67,9.3,8.12,14.09,4.82,9.43,3.63,20.52,3.56,30.74-.34,48.63-.67,97.27-.88,145.9-.02,5.62-.05,11.25-.07,16.87-.02,6.2.61,12.81-.32,18.95-1.48,9.87-10.36,14.89-18.22,19.6-17.62,10.57-37.28,17.31-57.87,18.38-16.93.89-36.59-.62-49.36-13.18-14.16-13.92-13.88-35.56-11.92-53.94,1.21-11.33,3.18-22.56,4.78-33.84.8-5.63-6.49-8.63-7.4-2.13Z"/>
      <g>
        <path class="cls-1" d="M251.17,83.34c48.22,22.92,90.41,78.74,89.07,149.32-3.68-6.19-6.68-11.41-9.84-16.52-18.5-29.97-43.37-53.22-74.29-69.98-3.49-1.89-5.14-3.71-5.07-7.99.3-17.91.13-35.84.13-54.82Z"/>
        <path class="cls-2" d="M248.1,86.52c55.38,26.64,88.06,86.41,87.2,146.93l9.54-2.54c-7.84-13.21-15.6-26.28-25.3-38.24s-20.19-22.13-32.04-31.26c-5.74-4.42-11.71-8.56-17.87-12.37-3.2-1.98-6.46-3.84-9.75-5.67s-3.9-3.22-3.9-6.92c0-17.96.12-35.93.11-53.89,0-4.85-9.88-3.44-9.87,1.58,0,18.2-.89,36.65-.13,54.82.27,6.5,4.56,9.02,9.77,11.95,6.88,3.86,13.56,8.1,19.92,12.76,12.06,8.85,23.09,19.07,32.79,30.46,10.58,12.42,18.76,26.3,27.05,40.28,2.34,3.95,9.48,1.91,9.54-2.54.71-50-20.87-99.06-59.37-131.27-9.64-8.06-20.23-14.99-31.56-20.44-4.31-2.08-11.74,3.66-6.14,6.35Z"/>
      </g>
    </g>
  </g>
</svg>