<?xml version="1.0" encoding="UTF-8"?>
<svg xmlns="http://www.w3.org/2000/svg" viewBox="0 0 977.95 979.65">
  <defs>
    <style>
      .cls-1 {
        fill: #e6e6e6;
      }

      .cls-1, .cls-2 {
        stroke-width: 0px;
      }
    </style>
  </defs>
  <g id="Cercle">
    <path class="cls-2" d="m970,490.85c-.07,50.32-7.77,100.64-23.43,148.49-15.1,46.14-37.2,89.86-65.42,129.37-27.94,39.12-61.74,73.93-99.93,103.12-38.54,29.45-81.72,53.03-127.34,69.52-46.93,16.97-96.45,26.56-146.32,28.34-50.63,1.8-101.56-4.17-150.28-18.11-46.78-13.39-91.48-33.91-132.15-60.62-40.22-26.42-76.42-59.03-107.1-96.09-30.86-37.28-56.02-79.3-74.4-124.07s-30.52-95.25-34.28-144.92.24-101.88,12.3-151.27c11.52-47.18,30.35-92.6,55.61-134.07,25.03-41.09,56.17-78.33,92.18-110.24,36.15-32.03,77.12-58.52,121.14-78.41,45.15-20.39,93.53-33.57,142.74-39.19,50.64-5.79,102.31-3.43,152.24,6.76,48.08,9.82,94.61,27.24,137.45,51.15,42.1,23.5,80.56,53.39,113.86,88.25,33.36,34.91,61.38,74.79,82.94,118,22.02,44.15,37.07,91.65,44.61,140.4,3.77,24.35,5.55,48.96,5.59,73.59,0,6.54,7.96,3.11,7.95-2.05-.07-51.36-7.98-102.68-23.9-151.53-15.29-46.92-37.65-91.46-66.28-131.66-28.45-39.95-62.78-75.63-101.76-105.42-39.09-29.87-82.65-53.88-128.88-70.74S558.53,2.13,507.56.31c-51.52-1.84-103.38,4.38-152.93,18.64-47.51,13.67-92.94,34.64-134.16,61.94-40.76,27-77.35,60.01-108.48,97.71-31.45,38.1-57.11,81.04-75.76,126.78S5.36,402.4,1.45,453.08c-3.96,51.44.19,103.57,12.35,153.71,11.74,48.42,31.01,95.04,56.87,137.63,25.35,41.74,56.97,79.7,93.48,112.13,36.79,32.68,78.56,59.84,123.41,80.1s94.82,34.13,144.73,39.84c51.56,5.89,104.11,3.56,154.95-6.9s96.35-27.83,139.93-52.3c42.64-23.95,81.71-54.36,115.4-89.81,33.95-35.73,62.48-76.44,84.42-120.58,22.3-44.87,37.62-93.25,45.21-142.78,3.82-24.92,5.71-50.11,5.75-75.32,0-6.54-7.94-3.11-7.95,2.05Z"/>
  </g>
  <g id="Halal">
    <g>
      <path class="cls-1" d="m330.57,661.33c13.12-3.82,24.93-7.06,36.62-10.68,79.66-24.68,135-75.42,163.14-154.3,12.67-35.52,23.52-71.69,35.28-107.54,1.88-5.74,3.97-11.43,6.35-16.98,2.49-5.81,6.17-6.38,9.26-.94,2.49,4.38,4.3,9.69,4.61,14.69,1.68,27.3,3.12,54.63,4.02,81.97,1.12,33.81.67,67.72,7.39,101.11,1.19,5.93,2.45,11.86,4.14,17.66,6.22,21.3,20.51,32.7,43.57,35.36,26.9,3.1,53.36-.67,79.7-5.35,5.93-1.05,13.42-2.05,15.02-9.39,1.64-7.53-5.36-10.74-10.14-14.44-28.88-22.32-60.34-24.01-93.49-11.21-4.44,1.72-8.89,3.42-14.31,5.5,4.52-14.24,10.37-26.99,19.75-37.77,21.98-25.24,49.04-28.97,77.23-10.79,5.6,3.61,10.86,7.78,16.13,11.89,31.9,24.9,67.44,38.68,108.5,36.2,10.11-.61,10.88.2,9.75,10.49-.96,8.69-2.86,17.28-4.16,25.94-1,6.67-5.04,9.04-11.34,8.88-8.15-.2-16.31-.46-24.45-.26-14.19.34-28.39.8-42.57,1.6-11.09.63-20.85,5.16-30.27,10.93-23.72,14.52-48.95,25.13-76.85,28.6-50.44,6.28-85.37-17.98-95.07-67.78-3.78-19.39-4.57-39.37-6.46-59.1-.8-8.31-.9-16.69-1.41-25.03-.09-1.51-.67-2.99-2.62-4.77-1.57,3.96-3.3,7.86-4.68,11.88-9.55,27.75-21.15,54.47-38.86,78.15-25.59,34.21-58.08,57.91-100.84,65.66-25.15,4.56-49.92,2.76-74.07-5.82-2.67-.95-5.12-2.49-8.87-4.36Z"/>
      <path class="cls-1" d="m187.11,522.95c-1.84,13.16-4.25,26.28-5.31,39.5-.73,9.08-.63,18.5.93,27.45,3.89,22.23,19.53,36.32,42.93,39.23,33.51,4.18,63.55-5.07,90.89-24.34,7.42-5.23,10.83-11.92,10.86-21.15.2-63.52.65-127.04,1.09-190.57.06-9.18-1.39-17.74-6.87-25.49-3.11-4.41-5.08-9.61-8.04-14.14-4.59-7.02-4.31-13.55.6-20.23,5.19-7.06,10.1-14.32,15.26-21.4,2.92-4,6.4-4.75,9.64-.41,11.12,14.85,22.41,29.58,33.02,44.78,4.43,6.35,3.75,10.96-2.73,15.07-12.35,7.84-14.66,18.52-14.56,32.38.38,52.44-.12,104.89-1.03,157.33-.85,48.48-34.29,94.55-78.84,109.09-26.68,8.7-53.45,8.33-79.59-2.71-40.69-17.17-57.95-58.14-41.99-99.27,7.12-18.34,18.67-33.28,33.73-45.13Z"/>
      <path class="cls-1" d="m394.95,386.86c48.22,22.92,90.41,78.74,89.07,149.32-3.68-6.19-6.68-11.41-9.84-16.52-18.5-29.97-43.37-53.22-74.29-69.98-3.49-1.89-5.14-3.71-5.07-7.99.3-17.91.13-35.84.13-54.82Z"/>
    </g>
    <g>
      <path class="cls-2" d="m308.86,643.69c28.68-8.32,57.19-16.16,83.87-29.85,22.74-11.67,43.57-26.7,61.53-44.9,18.13-18.38,32.95-39.9,44.33-63.05,14.58-29.68,23.73-62.09,33.75-93.5,5.62-17.61,10.71-35.52,17.2-52.83.66-1.75,3.18-10.19,5.03-9.51,2.85,1.05,4.39,9.03,4.79,11.69,1.42,9.31,1.29,19.1,1.8,28.5,2,36.84,2.14,73.78,4.32,110.6,1.09,18.35,3.23,36.55,7.27,54.5,2.84,12.62,6.79,24.87,16.08,34.28,8.32,8.44,19.74,12.64,31.27,14.29,18.1,2.58,36.73,1.46,54.8-.83,8.74-1.11,17.44-2.51,26.11-4.03,5.64-.99,11.93-1.72,16.06-6.13s5.19-10.92,3-16.27-7.86-8.59-12.41-11.96c-25.61-19-56.44-23.14-86.66-13.64-7.65,2.41-15.09,5.52-22.57,8.4l4.35,6.34c7.35-22.8,21.43-46.96,45.82-54.41s45.55,8.33,64.29,22.51c18.46,13.97,39.27,25.07,61.82,30.69,11.75,2.92,23.78,4.49,35.89,4.54,4.87.02,9.79-.65,14.65-.43.7.03,1.37.08,2.06.21,1.16.21-.01.21-.14-.6.29,1.86-.14,4.01-.34,5.87-.71,6.4-1.98,12.72-3.07,19.06s-.97,10.8-8.48,10.93c-13.96.23-27.89-.24-41.87.23-13.01.44-27.05-.29-39.53,3.92-12.03,4.05-22.41,11.87-33.61,17.66-35.16,18.15-86.42,32.08-121.44,5.98-17-12.67-25.88-32.35-29.66-52.75-2.92-15.73-3.93-31.73-5.26-47.66-.66-7.88-1.36-15.73-1.71-23.63-.31-7.03.35-13.41-4.77-18.8-1.64-1.72-4.45-.29-5.2,1.57-7.81,19.42-14.23,39.25-23.76,57.95-9,17.65-20.2,34.07-33.72,48.58-25.02,26.83-58.19,44.53-94.85,48.45-24,2.56-49.05-.6-70.66-11.58-4.68-2.38-6.67,7.38-2.4,9.55,37.38,18.99,84.79,16.01,122.2-1.55,34.59-16.24,61.59-45.25,80.31-78.13,12.31-21.63,19.9-44.98,29.14-67.95l-5.2,1.57c2.29,2.41,1.36,8.75,1.51,11.94.17,3.66.34,7.31.61,10.96.59,7.99,1.38,15.96,2.03,23.94,1.2,14.65,2.41,29.46,5.79,43.8,4.5,19.08,13.47,37.46,28.83,50.12,35.77,29.48,89.12,17.48,126.89-1.19,12.24-6.05,23.56-14.75,36.52-19.13,6.6-2.23,13.2-2.6,20.11-2.94,8.38-.41,16.77-.7,25.15-.95,6.99-.2,13.97-.38,20.96-.28,6.27.09,14.02,1.62,20.02-.72,3.88-1.52,6.43-4.87,7.64-8.78,2.23-7.22,2.91-15.49,4.04-22.97.95-6.34,4.31-19.49-4.32-22.21-4.01-1.27-8.99-.22-13.08-.11-7.07.2-14.16-.08-21.19-.88-25.7-2.92-49.99-13.2-71.13-27.93-12.57-8.76-23.85-19.49-38.07-25.64-11.73-5.07-24.83-6.77-37.26-3.34-28.17,7.77-44.32,35.6-52.69,61.55-.78,2.43.9,7.67,4.35,6.34,14.68-5.64,29.23-11.69,45.07-13.04,14.59-1.25,29.09,1.14,42.37,7.35,7.19,3.36,13.45,7.88,19.87,12.49,4.35,3.12,9.9,7.91,2.09,11.13-6.26,2.59-13.97,2.95-20.59,4.02-9.3,1.49-18.65,2.74-28.04,3.48-25.17,1.97-60.05,3.59-74.16-22.14-7.23-13.19-9.14-30.15-11.11-44.83-2.41-17.94-3.17-36.03-3.66-54.1-.97-35.28-2.39-70.51-4.5-105.75-.48-8.02-1.5-15.8-5.83-22.79-2.73-4.4-7.47-7.35-11.9-3.23-4.92,4.57-6.79,13.47-8.91,19.65-2.93,8.52-5.61,17.14-8.36,25.72-17.97,56.18-32.5,115.71-71.39,161.74-15.91,18.83-34.96,34.78-56.05,47.52-22.99,13.9-47.93,23.21-73.64,30.7-7.99,2.33-16,4.58-23.99,6.9-4.58,1.33-3.56,11.21,1.58,9.72Z"/>
      <path class="cls-2" d="m159.63,499.98c-4.7,33.24-16.37,79.76,17.74,101.73,14.63,9.42,33.55,10.49,50.43,9.39,18.82-1.23,37.11-7,53.66-15.96,7.87-4.26,17.23-9.09,22.81-16.29s5.61-14.78,5.64-23.17c.08-23.49.19-46.98.32-70.47s.28-46.98.44-70.47c.08-11.25.15-22.5.23-33.75.07-9.86.71-20.04-3.03-29.38-3.51-8.77-9.96-16.21-13.79-24.85-2.54-5.73-.6-10.46,2.83-15.25s6.52-9.18,9.78-13.78c1.47-2.08,2.96-5.08,4.87-6.71,1.29-1.1-1.02-1.44.93-.08,1.02.71,1.75,2.29,2.49,3.28,3.65,4.86,7.31,9.71,10.95,14.58,6.64,8.87,13.71,17.67,19.63,27.04,2.71,4.29,2.08,7-1.95,9.95-3.36,2.46-6.59,4.77-9.16,8.1-4.53,5.88-6.44,13.03-6.94,20.34-.73,10.7-.08,21.6-.05,32.33.02,11.95,0,23.9-.05,35.85-.1,23.24-.35,46.47-.69,69.7-.29,19.57.36,39.11-5.74,57.95-10.54,32.54-35.44,61.44-68.06,73.12-36.3,13-84.27,7.4-108.93-25.08-21.62-28.48-16-67.05,4.4-94.59,5.56-7.51,12.16-14.26,19.46-20.08,4.87-3.88-2.72-9-6.53-5.96-27.88,22.23-47.5,58.39-39.58,94.73s42.23,58.73,77.67,64.02c38.5,5.74,78.21-8.82,104.29-37.5,11.95-13.14,21.21-28.86,26.69-45.75,6.15-18.99,5.97-38.15,6.26-57.91.37-24.56.62-49.12.73-73.69.05-11.95.06-23.9.04-35.85-.03-10.91-.96-22.19.3-33.04,1.06-9.04,5-15.53,12.43-20.74,6.79-4.77,9.16-10.67,4.82-18.18-5.79-10.01-13.72-19.22-20.64-28.47-3.26-4.35-6.53-8.69-9.8-13.04-2.92-3.89-5.56-8.46-10.66-9.54-9.76-2.07-15.18,10.29-19.74,16.76-5.61,7.95-13.61,16.1-10.57,26.64,2.8,9.7,10.66,17.53,14.52,26.75,4.11,9.81,2.91,20.97,2.84,31.33-.34,48.63-.67,97.27-.88,145.9-.02,5.62-.05,11.25-.07,16.87-.02,6.02.5,12.33-.35,18.3-1.42,10-9.46,15-17.42,19.9-17.6,10.82-37.31,17.68-58.01,18.76-16.89.88-35.94-.93-48.21-13.88-13.66-14.42-13.14-36.67-11.18-55.08,1.21-11.33,3.18-22.56,4.78-33.84.7-4.91-9.25-5.93-9.95-.96Z"/>
      <path class="cls-2" d="m371.46,368.97c54.37,26.15,87.09,84.55,86.24,144.13l6.47-2.55c-7.93-13.36-15.75-26.64-25.66-38.66-9.09-11.03-19.31-21.12-30.57-29.94-5.49-4.3-11.2-8.31-17.09-12.05-3.16-2.01-6.39-3.93-9.66-5.77-3.65-2.05-5.04-2-5.05-6.23-.03-17.65.1-35.31.1-52.97,0-5.68-7.62-7.72-7.62-1.15,0,18.23-.68,36.61-.13,54.82.21,7.06,3.43,10.66,9.31,13.96,6.9,3.87,13.63,8,20.04,12.63,12.44,8.97,23.9,19.4,33.8,31.12,10.58,12.53,18.84,26.43,27.18,40.48,2.25,3.79,6.42.98,6.47-2.55.72-51.01-21-101.19-60.32-134.08-9.64-8.06-20.25-14.98-31.57-20.43-5.19-2.5-6.23,7.17-1.97,9.22Z"/>
    </g>
  </g>
</svg>