<?xml version="1.0" encoding="UTF-8"?>
<svg xmlns="http://www.w3.org/2000/svg" viewBox="0 0 977.95 979.65">
  <defs>
    <style>
      .cls-1 {
        fill: #e6e6e6;
      }

      .cls-1, .cls-2 {
        stroke-width: 0px;
      }
    </style>
  </defs>
  <g id="Cercle">
    <path class="cls-2" d="m970,490.85c-.07,50.32-7.77,100.64-23.43,148.49-15.1,46.14-37.2,89.86-65.42,129.37-27.94,39.12-61.74,73.93-99.93,103.12-38.54,29.45-81.72,53.03-127.34,69.52-46.93,16.97-96.45,26.56-146.32,28.34-50.63,1.8-101.56-4.17-150.28-18.11-46.78-13.39-91.48-33.91-132.15-60.62-40.22-26.42-76.42-59.03-107.1-96.09-30.86-37.28-56.02-79.3-74.4-124.07s-30.52-95.25-34.28-144.92.24-101.88,12.3-151.27c11.52-47.18,30.35-92.6,55.61-134.07,25.03-41.09,56.17-78.33,92.18-110.24,36.15-32.03,77.12-58.52,121.14-78.41,45.15-20.39,93.53-33.57,142.74-39.19,50.64-5.79,102.31-3.43,152.24,6.76,48.08,9.82,94.61,27.24,137.45,51.15,42.1,23.5,80.56,53.39,113.86,88.25,33.36,34.91,61.38,74.79,82.94,118,22.02,44.15,37.07,91.65,44.61,140.4,3.77,24.35,5.55,48.96,5.59,73.59,0,6.54,7.96,3.11,7.95-2.05-.07-51.36-7.98-102.68-23.9-151.53-15.29-46.92-37.65-91.46-66.28-131.66-28.45-39.95-62.78-75.63-101.76-105.42-39.09-29.87-82.65-53.88-128.88-70.74S558.53,2.13,507.56.31c-51.52-1.84-103.38,4.38-152.93,18.64-47.51,13.67-92.94,34.64-134.16,61.94-40.76,27-77.35,60.01-108.48,97.71-31.45,38.1-57.11,81.04-75.76,126.78S5.36,402.4,1.45,453.08c-3.96,51.44.19,103.57,12.35,153.71,11.74,48.42,31.01,95.04,56.87,137.63,25.35,41.74,56.97,79.7,93.48,112.13,36.79,32.68,78.56,59.84,123.41,80.1s94.82,34.13,144.73,39.84c51.56,5.89,104.11,3.56,154.95-6.9s96.35-27.83,139.93-52.3c42.64-23.95,81.71-54.36,115.4-89.81,33.95-35.73,62.48-76.44,84.42-120.58,22.3-44.87,37.62-93.25,45.21-142.78,3.82-24.92,5.71-50.11,5.75-75.32,0-6.54-7.94-3.11-7.95,2.05Z"/>
  </g>
  <g id="Haute_concentration" data-name="Haute concentration">
    <g>
      <path class="cls-1" d="m814.37,298.75c-48.06,37.08-95.22,73.46-143.12,110.42,9.57,8.96,18.78,17.58,27.98,26.19-.22.72-.44,1.44-.65,2.17-40.53,11-81.07,22-123.22,33.44,11.2-42.26,22.05-83.23,32.93-124.27,9.34,9.47,18.17,18.42,27.64,28.03,36.98-48.95,73.04-96.68,108.83-144.06,23.17,22.66,46.09,45.09,69.6,68.09Z"/>
      <path class="cls-1" d="m636.62,673.23c-9.5,9.44-18.33,18.21-27.94,27.75-10.94-41.21-21.81-82.16-33.04-124.46,41.79,11.32,82.24,22.28,123.26,33.39-9.78,9.18-19.05,17.88-28.94,27.16,49.29,38.03,96.52,74.47,144.33,111.36-23.43,22.65-46.4,44.86-69.83,67.51-35.05-46.39-71.11-94.11-107.84-142.72Z"/>
      <path class="cls-1" d="m301.7,816.72c-23.29-22.73-46.17-45.06-69.65-67.98,47.91-36.96,95.14-73.39,143.6-110.78-9.65-9.05-18.92-17.75-29.41-27.59,42.4-11.5,82.87-22.48,124.83-33.86-11.14,42.06-21.99,83.05-32.79,123.81-9.31-9.22-18.34-18.15-27.82-27.54-36.96,48.92-73.04,96.67-108.76,143.95Z"/>
      <path class="cls-1" d="m232.97,298.71c23.1-22.41,45.63-44.28,68.67-66.64,35.35,46.6,71.32,94,107.43,141.6,8.94-9.14,17.71-18.09,26.47-27.05.66.17,1.31.35,1.97.52,10.87,40.95,21.74,81.9,33.03,124.43-41.9-11.34-82.47-22.31-124.62-33.72,10.63-9.82,20.23-18.7,30.41-28.11-48.56-37.61-95.48-73.95-143.36-111.03Z"/>
    </g>
    <g>
      <g>
        <path class="cls-2" d="m783.61,260.92c-23.2-22.7-46.4-45.39-69.6-68.09-2.18-2.13-5.57-.57-7.13,1.51-36.28,48.02-72.56,96.04-108.83,144.06l7.13-1.51c-9.21-9.34-18.43-18.68-27.64-28.03-2.88-2.92-7.33.62-8.14,3.69-10.98,41.42-21.95,82.85-32.93,124.27-.81,3.06,2.22,4.39,4.67,3.73,22.91-6.22,45.81-12.43,68.72-18.65,11.1-3.01,22.2-6.02,33.3-9.04,5.53-1.5,11.06-3,16.59-4.5s7.75-2.42,9.4-7.88c.26-.85,0-2.32-.67-2.95-9.33-8.73-18.66-17.46-27.98-26.19l-1.24,6.13c47.71-36.81,95.41-73.61,143.12-110.42,4.96-3.83-.1-9.37-4.99-5.6-47.71,36.81-95.41,73.61-143.12,110.42-1.54,1.19-2.99,4.49-1.24,6.13,9.33,8.73,18.66,17.46,27.98,26.19l-.67-2.95-.65,2.17,4.14-4.47c-41.07,11.15-82.14,22.29-123.22,33.44l4.67,3.73c10.98-41.42,21.95-82.85,32.93-124.27l-8.14,3.69c9.21,9.34,18.43,18.68,27.64,28.03,2.14,2.17,5.59.53,7.13-1.51,36.28-48.02,72.56-96.04,108.83-144.06l-7.13,1.51c23.2,22.7,46.4,45.39,69.6,68.09,3.58,3.51,11.02-3.18,7.47-6.65Z"/>
        <path class="cls-2" d="m598.39,642.05c35.95,47.57,71.89,95.15,107.84,142.72,1.46,1.94,4.84.82,6.23-.52,23.28-22.5,46.55-45.01,69.83-67.51,2.01-1.95,2.92-4.84.45-6.75-48.11-37.12-96.22-74.24-144.33-111.36l-.45,6.75c9.65-9.05,19.3-18.11,28.94-27.16,2.17-2.04,3.13-6.09-.52-7.09-41.09-11.13-82.18-22.26-123.26-33.39-3.61-.98-7.1,3.47-6.23,6.74,11.01,41.49,22.03,82.97,33.04,124.46.8,3.02,5.27,1.82,6.76.34,9.31-9.25,18.62-18.5,27.94-27.75,4.38-4.35-.53-10.03-4.99-5.6-9.31,9.25-18.62,18.5-27.94,27.75l6.76.34c-11.01-41.49-22.03-82.97-33.04-124.46l-6.23,6.74c41.09,11.13,82.18,22.26,123.26,33.39l-.52-7.09c-9.65,9.05-19.3,18.11-28.94,27.16-2.04,1.92-2.9,4.86-.45,6.75,48.11,37.12,96.22,74.24,144.33,111.36l.45-6.75c-23.28,22.5-46.55,45.01-69.83,67.51l6.23-.52c-35.95-47.57-71.89-95.15-107.84-142.72-2.98-3.94-10.5,2.64-7.47,6.65Z"/>
        <path class="cls-2" d="m270.59,784.03c36.25-47.98,72.5-95.96,108.76-143.95l-7.13,1.51c9.27,9.18,18.55,18.36,27.82,27.54,2.9,2.87,7.32-.59,8.14-3.69,10.93-41.27,21.86-82.54,32.79-123.81.81-3.06-2.22-4.39-4.67-3.73-41.61,11.29-83.22,22.57-124.83,33.86-2.46.67-6.05,5-3.47,7.42,9.8,9.2,19.61,18.39,29.41,27.59l1.24-6.13c-47.87,36.93-95.73,73.85-143.6,110.78-1.57,1.21-2.95,4.46-1.24,6.13,23.22,22.66,46.43,45.32,69.65,67.98,3.59,3.5,11.02-3.18,7.47-6.65-23.22-22.66-46.43-45.32-69.65-67.98l-1.24,6.13c47.87-36.93,95.73-73.85,143.6-110.78,1.55-1.19,2.98-4.49,1.24-6.13-9.8-9.2-19.61-18.39-29.41-27.59l-3.47,7.42c41.61-11.29,83.22-22.57,124.83-33.86l-4.67-3.73c-10.93,41.27-21.86,82.54-32.79,123.81l8.14-3.69c-9.27-9.18-18.55-18.36-27.82-27.54-2.16-2.14-5.58-.56-7.13,1.51-36.25,47.98-72.5,95.96-108.76,143.95-3.95,5.23,3.36,8.18,6.79,3.64Z"/>
        <path class="cls-2" d="m195.53,268.16c47.79,37.01,95.57,74.02,143.36,111.03l.45-6.75c-10.14,9.37-20.27,18.74-30.41,28.11-2.19,2.03-3.12,6.1.52,7.09,41.54,11.24,83.08,22.48,124.62,33.72,3.61.98,7.1-3.47,6.23-6.74-11.01-41.48-22.02-82.95-33.03-124.43-.27-1.01-1.4-1.59-2.3-1.82-.66-.17-1.31-.35-1.97-.52-1.46-.39-3.45.45-4.46,1.48-8.82,9.02-17.65,18.03-26.47,27.05l6.23-.52c-35.81-47.2-71.62-94.4-107.43-141.6-1.47-1.93-4.84-.83-6.23.52-22.89,22.21-45.78,44.42-68.67,66.64-4.44,4.31.48,9.97,4.99,5.6,22.89-22.21,45.78-44.42,68.67-66.64l-6.23.52c35.81,47.2,71.62,94.4,107.43,141.6,1.44,1.9,4.87.87,6.23-.52,8.82-9.02,17.65-18.03,26.47-27.05l-4.46,1.48c.66.17,1.31.35,1.97.52l-2.3-1.82c11.01,41.48,22.02,82.95,33.03,124.43l6.23-6.74c-41.54-11.24-83.08-22.48-124.62-33.72l.52,7.09c10.14-9.37,20.27-18.74,30.41-28.11,2.06-1.91,2.88-4.87.45-6.75-47.79-37.01-95.57-74.02-143.36-111.03-3.72-2.88-10.14,4.6-5.88,7.9Z"/>
      </g>
      <path class="cls-2" d="m776.5,261.39c-47.71,36.81-95.41,73.61-143.12,110.42-1.89,1.46-2.11,3.61-.31,5.29,9.33,8.73,18.66,17.46,27.98,26.19l-1.07-3.72-.65,2.17,2.43-2.1c-41.07,11.15-82.14,22.29-123.22,33.44l7.08,4.66c10.98-41.42,21.95-82.85,32.93-124.27l-8.44,1.16c9.21,9.34,18.43,18.68,27.64,28.03,1.81,1.84,6.27,1.84,7.88-.3,36.28-48.02,72.56-96.04,108.83-144.06l-7.88.3c23.2,22.7,46.4,45.39,69.6,68.09,3.47,3.4,11.83-.52,7.37-4.88-23.2-22.7-46.4-45.39-69.6-68.09-1.84-1.8-6.25-1.87-7.88.3-36.28,48.02-72.56,96.04-108.83,144.06l7.88-.3c-9.21-9.34-18.43-18.68-27.64-28.03-1.86-1.88-7.6-2-8.44,1.16-10.98,41.42-21.95,82.85-32.93,124.27-1.11,4.2,3.91,5.52,7.08,4.66,22.29-6.05,44.58-12.1,66.86-18.15,10.8-2.93,21.59-5.86,32.39-8.79,5.22-1.42,10.45-2.84,15.67-4.25,4.75-1.29,9.8-1.32,11.37-6.52.45-1.5.07-2.65-1.07-3.72-9.33-8.73-18.66-17.46-27.98-26.19l-.31,5.29c47.71-36.81,95.41-73.61,143.12-110.42,4.94-3.81-2.9-8.68-6.75-5.71Z"/>
      <path class="cls-2" d="m600.01,634.51c-9.31,9.25-18.62,18.5-27.94,27.75l5.66,2.7c-11.01-41.49-22.03-82.97-33.04-124.46l-4.28,6.38c41.09,11.13,82.18,22.26,123.26,33.39l-1.37-9.08c-9.65,9.05-19.3,18.11-28.94,27.16-2.39,2.25-2.13,6.63.45,8.62,48.11,37.12,96.22,74.24,144.33,111.36l-.45-8.62c-23.28,22.5-46.55,45.01-69.83,67.51l4.58.54c-35.95-47.57-71.89-95.15-107.84-142.72-3.73-4.94-7.81,3.52-4.92,7.34,35.95,47.57,71.89,95.15,107.84,142.72,1.04,1.38,3.26,1.81,4.58.54,23.28-22.5,46.55-45.01,69.83-67.51,2.36-2.28,2.16-6.61-.45-8.62-48.11-37.12-96.22-74.24-144.33-111.36l.45,8.62c9.65-9.05,19.3-18.11,28.94-27.16,2.36-2.21,2.3-8.08-1.37-9.08-41.09-11.13-82.18-22.26-123.26-33.39-3.59-.97-4.99,3.72-4.28,6.38,11.01,41.49,22.03,82.97,33.04,124.46.59,2.23,3.39,4.95,5.66,2.7,9.31-9.25,18.62-18.5,27.94-27.75,3.31-3.29-.19-12.45-4.23-8.42Z"/>
      <path class="cls-2" d="m271.09,779.56c-23.22-22.66-46.43-45.32-69.65-67.98l-.81,5.37c47.87-36.93,95.73-73.85,143.6-110.78,1.75-1.35,2.68-3.63.81-5.37-9.8-9.2-19.61-18.39-29.41-27.59l-3.2,6.34c41.61-11.29,83.22-22.57,124.83-33.86l-5.62-3.77c-10.93,41.27-21.86,82.54-32.79,123.81,2.94-.86,5.88-1.72,8.81-2.57-9.27-9.18-18.55-18.36-27.82-27.54-1.9-1.88-6.28-1.38-7.86.71-36.25,47.98-72.5,95.96-108.76,143.95-3.76,4.97,4.99,7.79,7.93,3.9,36.25-47.98,72.5-95.96,108.76-143.95l-7.86.71c9.27,9.18,18.55,18.36,27.82,27.54,2.6,2.58,7.93.78,8.81-2.57,10.93-41.27,21.86-82.54,32.79-123.81.78-2.96-3.52-4.34-5.62-3.77-41.61,11.29-83.22,22.57-124.83,33.86-2.66.72-6.09,3.63-3.2,6.34,9.8,9.2,19.61,18.39,29.41,27.59l.81-5.37c-47.87,36.93-95.73,73.85-143.6,110.78-1.78,1.38-2.64,3.59-.81,5.37,23.22,22.66,46.43,45.32,69.65,67.98,3.37,3.29,11.93-1.27,7.78-5.32Z"/>
      <path class="cls-2" d="m201.09,268.13c22.89-22.21,45.78-44.42,68.67-66.64l-5.37-.86c35.81,47.2,71.62,94.4,107.43,141.6,1.35,1.78,3.58,2.69,5.37.86,8.82-9.02,17.65-18.03,26.47-27.05l-2.76,1c.66.17,1.31.35,1.97.52l-3.56-4.26c11.01,41.48,22.02,82.95,33.03,124.43l3.83-5.58c-41.54-11.24-83.08-22.48-124.62-33.72l2.49,8.84c10.14-9.37,20.27-18.74,30.41-28.11,1.97-1.82,1.38-6.31-.63-7.86-47.79-37.01-95.57-74.02-143.36-111.03-4.93-3.82-7.83,4.91-3.98,7.89,47.79,37.01,95.57,74.02,143.36,111.03l-.63-7.86c-10.14,9.37-20.27,18.74-30.41,28.11-2.7,2.5-.79,7.95,2.49,8.84,41.54,11.24,83.08,22.48,124.62,33.72,2.95.8,4.39-3.47,3.83-5.58-11.01-41.48-22.02-82.95-33.03-124.43-.52-1.97-1.48-3.71-3.56-4.26-.66-.17-1.31-.35-1.97-.52-.99-.26-2.09.33-2.76,1-8.82,9.02-17.65,18.03-26.47,27.05l5.37.86c-35.81-47.2-71.62-94.4-107.43-141.6-1.38-1.82-3.54-2.64-5.37-.86-22.89,22.21-45.78,44.42-68.67,66.64-3.38,3.28,1.08,11.88,5.24,7.84Z"/>
    </g>
  </g>
</svg>