<?xml version="1.0" encoding="UTF-8"?>
<svg xmlns="http://www.w3.org/2000/svg" viewBox="0 0 977.95 979.65">
  <defs>
    <style>
      .cls-1 {
        fill: #e6e6e6;
      }

      .cls-1, .cls-2 {
        stroke-width: 0px;
      }
    </style>
  </defs>
  <g id="Cercle">
    <path class="cls-2" d="m970,490.85c-.07,50.32-7.77,100.64-23.43,148.49-15.1,46.14-37.2,89.86-65.42,129.37-27.94,39.12-61.74,73.93-99.93,103.12-38.54,29.45-81.72,53.03-127.34,69.52-46.93,16.97-96.45,26.56-146.32,28.34-50.63,1.8-101.56-4.17-150.28-18.11-46.78-13.39-91.48-33.91-132.15-60.62-40.22-26.42-76.42-59.03-107.1-96.09-30.86-37.28-56.02-79.3-74.4-124.07s-30.52-95.25-34.28-144.92.24-101.88,12.3-151.27c11.52-47.18,30.35-92.6,55.61-134.07,25.03-41.09,56.17-78.33,92.18-110.24,36.15-32.03,77.12-58.52,121.14-78.41,45.15-20.39,93.53-33.57,142.74-39.19,50.64-5.79,102.31-3.43,152.24,6.76,48.08,9.82,94.61,27.24,137.45,51.15,42.1,23.5,80.56,53.39,113.86,88.25,33.36,34.91,61.38,74.79,82.94,118,22.02,44.15,37.07,91.65,44.61,140.4,3.77,24.35,5.55,48.96,5.59,73.59,0,6.54,7.96,3.11,7.95-2.05-.07-51.36-7.98-102.68-23.9-151.53-15.29-46.92-37.65-91.46-66.28-131.66-28.45-39.95-62.78-75.63-101.76-105.42-39.09-29.87-82.65-53.88-128.88-70.74S558.53,2.13,507.56.31c-51.52-1.84-103.38,4.38-152.93,18.64-47.51,13.67-92.94,34.64-134.16,61.94-40.76,27-77.35,60.01-108.48,97.71-31.45,38.1-57.11,81.04-75.76,126.78S5.36,402.4,1.45,453.08c-3.96,51.44.19,103.57,12.35,153.71,11.74,48.42,31.01,95.04,56.87,137.63,25.35,41.74,56.97,79.7,93.48,112.13,36.79,32.68,78.56,59.84,123.41,80.1s94.82,34.13,144.73,39.84c51.56,5.89,104.11,3.56,154.95-6.9s96.35-27.83,139.93-52.3c42.64-23.95,81.71-54.36,115.4-89.81,33.95-35.73,62.48-76.44,84.42-120.58,22.3-44.87,37.62-93.25,45.21-142.78,3.82-24.92,5.71-50.11,5.75-75.32,0-6.54-7.94-3.11-7.95,2.05Z"/>
  </g>
  <g id="Haute_biodisponibilité" data-name="Haute biodisponibilité">
    <g>
      <path class="cls-1" d="m702.98,497.19v-39.67c-37.62,22.14-74.17,43.64-111.75,65.76,37.92,21.47,74.47,42.18,112.3,63.6v-39.69c3.07.27,5.48.4,7.87.7,19.76,2.46,39.52,4.97,59.28,7.43,34.91,4.34,69.83,8.62,104.73,13,6.4.8,6.72.72,6.73-5.68.02-28.52.02-57.03,0-85.55,0-1.63-.22-3.25-.41-5.73-59.45,8.59-118.48,17.12-178.75,25.83Zm111.39-198.44c-23.51-23-46.43-45.42-69.6-68.09-35.79,47.38-71.85,95.11-108.83,144.06-9.48-9.61-18.3-18.56-27.64-28.03-10.88,41.05-21.73,82.01-32.93,124.27,42.15-11.44,82.68-22.44,123.22-33.44.22-.72.44-1.44.65-2.17-9.21-8.62-18.41-17.24-27.98-26.19,47.9-36.96,95.06-73.34,143.12-110.42Zm-226.56,405.2c-21.94-37.75-43.04-74.05-64.75-111.41-21.87,38.13-42.92,74.82-64.5,112.44h39.6c-7.97,59.56-15.88,118.61-23.75,177.43h97.45c-8.03-59.92-15.93-118.81-23.93-178.46h39.88Zm48.81-30.72c36.73,48.61,72.79,96.34,107.84,142.72,23.43-22.66,46.4-44.86,69.83-67.51-47.81-36.89-95.03-73.33-144.33-111.36,9.89-9.28,19.16-17.98,28.94-27.16-41.02-11.11-81.48-22.07-123.26-33.39,11.23,42.3,22.1,83.25,33.04,124.46,9.61-9.54,18.44-18.31,27.94-27.75Zm-334.93,143.49c35.72-47.27,71.8-95.03,108.76-143.95,9.49,9.39,18.51,18.32,27.82,27.54,10.79-40.76,21.65-81.75,32.79-123.81-41.96,11.38-82.42,22.36-124.83,33.86,10.49,9.84,19.76,18.54,29.41,27.59-48.46,37.39-95.69,73.82-143.6,110.78,23.48,22.92,46.36,45.25,69.65,67.98Zm152.92-292.08c-37.75-21.39-74.24-42.07-112.01-63.48v39.77c-59.74-7.37-118.62-14.63-177.83-21.94v97.45c59.4-8.61,118.27-17.14,178.14-25.81v39.69c37.63-22.13,74.13-43.6,111.71-65.69Zm92.69-181.5c7.83-59.46,15.58-118.32,23.29-176.86-1.32-.62-1.65-.91-1.97-.91-30,.1-60,.23-90,.32-3.41.01-3.92,1.69-3.47,4.7,1.42,9.38,2.63,18.8,3.89,28.21,4.74,35.42,9.5,70.83,14.19,106.25,1.68,12.68,3.18,25.38,4.9,39.15h-40.87c21.98,37.84,43.1,74.21,64.8,111.56,21.74-37.89,42.86-74.7,64.5-112.42h-39.24Zm-314.34-44.43c47.87,37.08,94.8,73.42,143.36,111.03-10.18,9.41-19.78,18.29-30.41,28.11,42.16,11.41,82.72,22.38,124.62,33.72-11.29-42.53-22.16-83.48-33.03-124.43-.66-.17-1.31-.35-1.97-.52-8.77,8.96-17.53,17.92-26.47,27.05-36.11-47.6-72.08-95-107.43-141.6-23.04,22.36-45.57,44.22-68.67,66.64Z"/>
      <path class="cls-1" d="m702.98,497.19c60.27-8.71,119.3-17.24,178.75-25.83.18,2.48.4,4.11.41,5.73.02,28.52.03,57.03,0,85.55,0,6.39-.32,6.48-6.73,5.68-34.91-4.38-69.82-8.66-104.73-13-19.76-2.46-39.52-4.97-59.28-7.43-2.39-.3-4.81-.43-7.87-.7v39.69c-37.82-21.42-74.38-42.12-112.3-63.6,37.58-22.11,74.13-43.62,111.75-65.76v39.67Z"/>
      <path class="cls-1" d="m814.37,298.75c-48.06,37.08-95.22,73.46-143.12,110.42,9.57,8.96,18.78,17.58,27.98,26.19-.22.72-.44,1.44-.65,2.17-40.53,11-81.07,22-123.22,33.44,11.2-42.26,22.05-83.23,32.93-124.27,9.34,9.47,18.17,18.42,27.64,28.03,36.98-48.95,73.04-96.68,108.83-144.06,23.17,22.66,46.09,45.09,69.6,68.09Z"/>
      <path class="cls-1" d="m587.81,703.95h-39.88c8,59.65,15.89,118.55,23.93,178.46h-97.45c7.87-58.82,15.78-117.87,23.75-177.43h-39.6c21.58-37.63,42.63-74.31,64.5-112.44,21.71,37.36,42.81,73.66,64.75,111.41Z"/>
      <path class="cls-1" d="m636.62,673.23c-9.5,9.44-18.33,18.21-27.94,27.75-10.94-41.21-21.81-82.16-33.04-124.46,41.79,11.32,82.24,22.28,123.26,33.39-9.78,9.18-19.05,17.88-28.94,27.16,49.29,38.03,96.52,74.47,144.33,111.36-23.43,22.65-46.4,44.86-69.83,67.51-35.05-46.39-71.11-94.11-107.84-142.72Z"/>
      <path class="cls-1" d="m301.7,816.72c-23.29-22.73-46.17-45.06-69.65-67.98,47.91-36.96,95.14-73.39,143.6-110.78-9.65-9.05-18.92-17.75-29.41-27.59,42.4-11.5,82.87-22.48,124.83-33.86-11.14,42.06-21.99,83.05-32.79,123.81-9.31-9.22-18.34-18.15-27.82-27.54-36.96,48.92-73.04,96.67-108.76,143.95Z"/>
      <path class="cls-1" d="m454.62,524.64c-37.57,22.1-74.07,43.56-111.71,65.69v-39.69c-59.87,8.68-118.73,17.2-178.14,25.81v-97.45c59.21,7.3,118.09,14.57,177.83,21.94v-39.77c37.77,21.41,74.27,42.09,112.01,63.48Z"/>
      <path class="cls-1" d="m547.31,343.14h39.24c-21.64,37.71-42.76,74.53-64.5,112.42-21.69-37.35-42.82-73.72-64.8-111.56h40.87c-1.72-13.77-3.22-26.47-4.9-39.15-4.69-35.42-9.45-70.84-14.19-106.25-1.26-9.41-2.47-18.82-3.89-28.21-.45-3.01.06-4.69,3.47-4.7,30-.09,60-.22,90-.32.32,0,.65.29,1.97.91-7.71,58.54-15.46,117.4-23.29,176.86Z"/>
      <path class="cls-1" d="m232.97,298.71c23.1-22.41,45.63-44.28,68.67-66.64,35.35,46.6,71.32,94,107.43,141.6,8.94-9.14,17.71-18.09,26.47-27.05.66.17,1.31.35,1.97.52,10.87,40.95,21.74,81.9,33.03,124.43-41.9-11.34-82.47-22.31-124.62-33.72,10.63-9.82,20.23-18.7,30.41-28.11-48.56-37.61-95.48-73.95-143.36-111.03Z"/>
    </g>
    <g>
      <g>
        <path class="cls-2" d="m672.97,461.23v-39.67c0-3.17-3.89-3.31-5.89-2.13-37.25,21.92-74.5,43.84-111.75,65.76-2.34,1.38-4.8,5.68-1.53,7.53,37.43,21.2,74.86,42.4,112.3,63.6,3.36,1.9,7.42-2.15,7.42-5.41v-39.69l-6.45,5.74c19.47,1.63,38.87,4.6,58.26,7.02,20.09,2.51,40.18,4.99,60.27,7.47,10.21,1.26,20.42,2.53,30.63,3.8,8.82,1.1,18.25,3.37,27.15,3.23,5.09-.08,8.23-3.6,8.65-8.51.77-8.94.11-18.19.11-27.17,0-11.61,0-23.21,0-34.82,0-10.84.46-21.79-.42-32.59-.15-1.8-1.79-3.14-3.6-2.88-59.58,8.61-119.17,17.22-178.75,25.83-4.72.68-7.88,9.55-1.76,8.66,59.58-8.61,119.17-17.22,178.75-25.83l-3.6-2.88c1.42,17.34.42,35.09.42,52.49,0,9.28,0,18.57,0,27.85,0,3.94-.61,8.33-.01,12.22.03.21-.21,1.62-.13,1.7-.38-.39,3.2-2.03,2.58-2.75-.52-.6-5.15-.59-5.68-.66-36.22-4.54-72.46-8.97-108.68-13.49-20.05-2.5-40.11-5.58-60.24-7.27-3.3-.28-6.45,2.34-6.45,5.74v39.69l7.42-5.41c-37.43-21.2-74.86-42.4-112.3-63.6l-1.53,7.53c37.25-21.92,74.5-43.84,111.75-65.76l-5.89-2.13v39.67c0,5.69,8.97,1.77,8.97-2.91Z"/>
        <path class="cls-2" d="m783.61,260.92c-23.2-22.7-46.4-45.39-69.6-68.09-2.18-2.13-5.57-.57-7.13,1.51-36.28,48.02-72.56,96.04-108.83,144.06l7.13-1.51c-9.21-9.34-18.43-18.68-27.64-28.03-2.88-2.92-7.33.62-8.14,3.69-10.98,41.42-21.95,82.85-32.93,124.27-.81,3.06,2.22,4.39,4.67,3.73,22.91-6.22,45.81-12.43,68.72-18.65,11.1-3.01,22.2-6.02,33.3-9.04,5.53-1.5,11.06-3,16.59-4.5s7.75-2.42,9.4-7.88c.26-.85,0-2.32-.67-2.95-9.33-8.73-18.66-17.46-27.98-26.19l-1.24,6.13c47.71-36.81,95.41-73.61,143.12-110.42,4.96-3.83-.1-9.37-4.99-5.6-47.71,36.81-95.41,73.61-143.12,110.42-1.54,1.19-2.99,4.49-1.24,6.13,9.33,8.73,18.66,17.46,27.98,26.19l-.67-2.95-.65,2.17,4.14-4.47c-41.07,11.15-82.14,22.29-123.22,33.44l4.67,3.73c10.98-41.42,21.95-82.85,32.93-124.27l-8.14,3.69c9.21,9.34,18.43,18.68,27.64,28.03,2.14,2.17,5.59.53,7.13-1.51,36.28-48.02,72.56-96.04,108.83-144.06l-7.13,1.51c23.2,22.7,46.4,45.39,69.6,68.09,3.58,3.51,11.02-3.18,7.47-6.65Z"/>
        <path class="cls-2" d="m557.58,666.99c-21.58-37.14-43.17-74.27-64.75-111.41-2.19-3.76-6.67-1.13-8.3,1.72-21.5,37.48-43,74.96-64.5,112.44-1.51,2.64.47,5.07,3.16,5.07h39.6l-3.52-3.96c-7.92,59.14-15.84,118.29-23.75,177.43-.32,2.43,1.08,3.96,3.52,3.96h97.45c2.59,0,5.72-3.12,5.36-5.79-7.98-59.49-15.95-118.98-23.93-178.46l-5.36,5.79h39.88c4.86,0,8-8.66,1.76-8.66h-39.88c-2.59,0-5.72,3.12-5.36,5.79,7.98,59.49,15.95,118.98,23.93,178.46l5.36-5.79h-97.45l3.52,3.96c7.92-59.14,15.84-118.29,23.75-177.43.32-2.43-1.08-3.96-3.52-3.96h-39.6l3.16,5.07c21.5-37.48,43-74.96,64.5-112.44l-8.3,1.72c21.58,37.14,43.17,74.27,64.75,111.41,2.7,4.65,10.91-.83,8.53-4.92Z"/>
        <path class="cls-2" d="m598.39,642.05c35.95,47.57,71.89,95.15,107.84,142.72,1.46,1.94,4.84.82,6.23-.52,23.28-22.5,46.55-45.01,69.83-67.51,2.01-1.95,2.92-4.84.45-6.75-48.11-37.12-96.22-74.24-144.33-111.36l-.45,6.75c9.65-9.05,19.3-18.11,28.94-27.16,2.17-2.04,3.13-6.09-.52-7.09-41.09-11.13-82.18-22.26-123.26-33.39-3.61-.98-7.1,3.47-6.23,6.74,11.01,41.49,22.03,82.97,33.04,124.46.8,3.02,5.27,1.82,6.76.34,9.31-9.25,18.62-18.5,27.94-27.75,4.38-4.35-.53-10.03-4.99-5.6-9.31,9.25-18.62,18.5-27.94,27.75l6.76.34c-11.01-41.49-22.03-82.97-33.04-124.46l-6.23,6.74c41.09,11.13,82.18,22.26,123.26,33.39l-.52-7.09c-9.65,9.05-19.3,18.11-28.94,27.16-2.04,1.92-2.9,4.86-.45,6.75,48.11,37.12,96.22,74.24,144.33,111.36l.45-6.75c-23.28,22.5-46.55,45.01-69.83,67.51l6.23-.52c-35.95-47.57-71.89-95.15-107.84-142.72-2.98-3.94-10.5,2.64-7.47,6.65Z"/>
        <path class="cls-2" d="m270.59,784.03c36.25-47.98,72.5-95.96,108.76-143.95l-7.13,1.51c9.27,9.18,18.55,18.36,27.82,27.54,2.9,2.87,7.32-.59,8.14-3.69,10.93-41.27,21.86-82.54,32.79-123.81.81-3.06-2.22-4.39-4.67-3.73-41.61,11.29-83.22,22.57-124.83,33.86-2.46.67-6.05,5-3.47,7.42,9.8,9.2,19.61,18.39,29.41,27.59l1.24-6.13c-47.87,36.93-95.73,73.85-143.6,110.78-1.57,1.21-2.95,4.46-1.24,6.13,23.22,22.66,46.43,45.32,69.65,67.98,3.59,3.5,11.02-3.18,7.47-6.65-23.22-22.66-46.43-45.32-69.65-67.98l-1.24,6.13c47.87-36.93,95.73-73.85,143.6-110.78,1.55-1.19,2.98-4.49,1.24-6.13-9.8-9.2-19.61-18.39-29.41-27.59l-3.47,7.42c41.61-11.29,83.22-22.57,124.83-33.86l-4.67-3.73c-10.93,41.27-21.86,82.54-32.79,123.81l8.14-3.69c-9.27-9.18-18.55-18.36-27.82-27.54-2.16-2.14-5.58-.56-7.13,1.51-36.25,47.98-72.5,95.96-108.76,143.95-3.95,5.23,3.36,8.18,6.79,3.64Z"/>
        <path class="cls-2" d="m423.06,486.19c-37.34-21.16-74.67-42.32-112.01-63.48-3.36-1.9-7.42,2.15-7.42,5.41v39.77l6.45-5.74c-59.28-7.31-118.55-14.62-177.83-21.94-3.3-.41-6.45,2.43-6.45,5.74v97.45c0,1.81,1.9,3.12,3.6,2.88,59.38-8.6,118.76-17.21,178.14-25.81l-3.6-2.88v39.69c0,3.17,3.89,3.31,5.89,2.13,37.24-21.9,74.47-43.8,111.71-65.69,4.89-2.88,2.84-10.5-2.82-7.17-37.24,21.9-74.47,43.8-111.71,65.69l5.89,2.13v-39.69c0-1.81-1.9-3.12-3.6-2.88-59.38,8.6-118.76,17.21-178.14,25.81l3.6,2.88v-97.45l-6.45,5.74c59.28,7.31,118.55,14.62,177.83,21.94,3.3.41,6.45-2.43,6.45-5.74v-39.77l-7.42,5.41c37.34,21.16,74.67,42.32,112.01,63.48,4.15,2.35,10.53-5.26,5.88-7.9Z"/>
        <path class="cls-2" d="m517.21,308.27c7.76-58.95,15.52-117.91,23.29-176.86.18-1.38-.08-2.89-1.46-3.58-3.03-1.5-5.51-1.28-8.93-1.27-4.89.02-9.78.03-14.67.05-9.78.04-19.57.07-29.35.11s-20.22.07-30.33.11c-6.31.02-16.47-1.9-19.23,5.77-1.09,3.03-.11,6.39.33,9.45.72,5.01,1.4,10.03,2.07,15.05,1.29,9.71,2.59,19.42,3.89,29.13,2.68,20,5.36,40.01,8.02,60.01,2.87,21.56,5.61,43.14,8.3,64.73l5.36-5.79h-40.87c-2.64,0-6.79,3.96-5.14,6.79,21.6,37.19,43.2,74.37,64.8,111.56,2.18,3.76,6.67,1.13,8.3-1.72,21.5-37.47,43-74.94,64.5-112.42,1.51-2.64-.47-5.07-3.16-5.07h-39.24c-4.86,0-8,8.66-1.76,8.66h39.24l-3.16-5.07c-21.5,37.47-43,74.94-64.5,112.42l8.3-1.72c-21.6-37.19-43.2-74.37-64.8-111.56l-5.14,6.79h40.87c2.61,0,5.7-3.11,5.36-5.79-4.32-34.72-8.91-69.4-13.55-104.08-2.35-17.54-4.69-35.07-7.04-52.61-.55-4.08-1.1-8.15-1.69-12.22-.06-.44-.32-5.64-.82-5.9l-.88,1.15c-1.27,1.02-1.24,1.41.1,1.14.76.41,3.03,0,3.91-.01,8.8-.03,17.61-.06,26.41-.09,10.11-.04,20.22-.08,30.33-.11,4.89-.02,9.78-.04,14.67-.05,3.95-.01,10.09-1.27,13.61.48l-1.46-3.58c-7.76,58.95-15.53,117.91-23.29,176.86-.81,6.18,8.17,4.08,8.81-.74Z"/>
        <path class="cls-2" d="m195.53,268.16c47.79,37.01,95.57,74.02,143.36,111.03l.45-6.75c-10.14,9.37-20.27,18.74-30.41,28.11-2.19,2.03-3.12,6.1.52,7.09,41.54,11.24,83.08,22.48,124.62,33.72,3.61.98,7.1-3.47,6.23-6.74-11.01-41.48-22.02-82.95-33.03-124.43-.27-1.01-1.4-1.59-2.3-1.82-.66-.17-1.31-.35-1.97-.52-1.46-.39-3.45.45-4.46,1.48-8.82,9.02-17.65,18.03-26.47,27.05l6.23-.52c-35.81-47.2-71.62-94.4-107.43-141.6-1.47-1.93-4.84-.83-6.23.52-22.89,22.21-45.78,44.42-68.67,66.64-4.44,4.31.48,9.97,4.99,5.6,22.89-22.21,45.78-44.42,68.67-66.64l-6.23.52c35.81,47.2,71.62,94.4,107.43,141.6,1.44,1.9,4.87.87,6.23-.52,8.82-9.02,17.65-18.03,26.47-27.05l-4.46,1.48c.66.17,1.31.35,1.97.52l-2.3-1.82c11.01,41.48,22.02,82.95,33.03,124.43l6.23-6.74c-41.54-11.24-83.08-22.48-124.62-33.72l.52,7.09c10.14-9.37,20.27-18.74,30.41-28.11,2.06-1.91,2.88-4.87.45-6.75-47.79-37.01-95.57-74.02-143.36-111.03-3.72-2.88-10.14,4.6-5.88,7.9Z"/>
      </g>
      <path class="cls-2" d="m668.55,467.61c59.58-8.61,119.17-17.22,178.75-25.83l-3.87-4.3c1.44,17.67.42,35.76.42,53.48,0,9.28,0,18.57,0,27.85,0,1.99,0,3.98,0,5.97,0,1.32-.75,4.74-.03,5.8-.07-.1-.07.91-.07.91l.95-1.16c1.27-1,1.37-1.36.29-1.09-.62-.5-3.32-.36-4.11-.45-36.89-4.58-73.78-9.13-110.66-13.74-20.05-2.5-40.11-5.58-60.24-7.27-3.03-.25-4.75,2.83-4.75,5.53v39.69l5.7-5.16c-37.43-21.2-74.86-42.4-112.3-63.6l-.86,9.14c37.25-21.92,74.5-43.84,111.75-65.76l-4.84-3.98v39.67c0,6.56,7.61,4.45,7.61-1.24v-39.67c0-2.34-2.12-5.58-4.84-3.98-37.25,21.92-74.5,43.84-111.75,65.76-2.78,1.64-4.21,7.24-.86,9.14,37.43,21.2,74.86,42.4,112.3,63.6,3.27,1.85,5.7-2.44,5.7-5.16v-39.69l-4.75,5.53c19.47,1.63,38.87,4.6,58.26,7.02,20.09,2.51,40.18,4.99,60.27,7.47,9.88,1.22,19.76,2.45,29.64,3.68,8.93,1.11,18.06,2.93,27.04,3.3,5.46.23,7.74-3.63,8.07-8.71.6-9.16.08-18.52.08-27.7,0-11.27,0-22.55,0-33.82s.46-21.79-.42-32.59c-.17-2.1-1.28-4.68-3.87-4.3-59.58,8.61-119.17,17.22-178.75,25.83-4.73.68-5.16,10.61.13,9.85Z"/>
      <path class="cls-2" d="m776.5,261.39c-47.71,36.81-95.41,73.61-143.12,110.42-1.89,1.46-2.11,3.61-.31,5.29,9.33,8.73,18.66,17.46,27.98,26.19l-1.07-3.72-.65,2.17,2.43-2.1c-41.07,11.15-82.14,22.29-123.22,33.44l7.08,4.66c10.98-41.42,21.95-82.85,32.93-124.27l-8.44,1.16c9.21,9.34,18.43,18.68,27.64,28.03,1.81,1.84,6.27,1.84,7.88-.3,36.28-48.02,72.56-96.04,108.83-144.06l-7.88.3c23.2,22.7,46.4,45.39,69.6,68.09,3.47,3.4,11.83-.52,7.37-4.88-23.2-22.7-46.4-45.39-69.6-68.09-1.84-1.8-6.25-1.87-7.88.3-36.28,48.02-72.56,96.04-108.83,144.06l7.88-.3c-9.21-9.34-18.43-18.68-27.64-28.03-1.86-1.88-7.6-2-8.44,1.16-10.98,41.42-21.95,82.85-32.93,124.27-1.11,4.2,3.91,5.52,7.08,4.66,22.29-6.05,44.58-12.1,66.86-18.15,10.8-2.93,21.59-5.86,32.39-8.79,5.22-1.42,10.45-2.84,15.67-4.25,4.75-1.29,9.8-1.32,11.37-6.52.45-1.5.07-2.65-1.07-3.72-9.33-8.73-18.66-17.46-27.98-26.19l-.31,5.29c47.71-36.81,95.41-73.61,143.12-110.42,4.94-3.81-2.9-8.68-6.75-5.71Z"/>
      <path class="cls-2" d="m553.45,664.45h-39.88c-3.12,0-4.11,3.78-3.79,6.23,7.98,59.49,15.95,118.98,23.93,178.46l3.79-6.23h-97.45l3.44,6.42c7.92-59.14,15.84-118.29,23.75-177.43.31-2.29-.22-6.42-3.44-6.42h-39.6l3.03,7.61c21.5-37.48,43-74.96,64.5-112.44l-5.91.85c21.58,37.14,43.17,74.27,64.75,111.41,1.21,2.08,3.91,1.78,5.3.14,1.69-1.99,1.41-4.96.19-7.07-21.58-37.14-43.17-74.27-64.75-111.41-1.64-2.82-4.71-1.25-5.91.85-21.5,37.48-43,74.96-64.5,112.44-1.36,2.38-.4,7.61,3.03,7.61h39.6l-3.44-6.42c-7.92,59.14-15.84,118.29-23.75,177.43-.31,2.29.22,6.42,3.44,6.42h97.45c3.12,0,4.11-3.78,3.79-6.23-7.98-59.49-15.95-118.98-23.93-178.46l-3.79,6.23h39.88c5,0,5.26-10,.27-10Z"/>
      <path class="cls-2" d="m600.01,634.51c-9.31,9.25-18.62,18.5-27.94,27.75l5.66,2.7c-11.01-41.49-22.03-82.97-33.04-124.46l-4.28,6.38c41.09,11.13,82.18,22.26,123.26,33.39l-1.37-9.08c-9.65,9.05-19.3,18.11-28.94,27.16-2.39,2.25-2.13,6.63.45,8.62,48.11,37.12,96.22,74.24,144.33,111.36l-.45-8.62c-23.28,22.5-46.55,45.01-69.83,67.51l4.58.54c-35.95-47.57-71.89-95.15-107.84-142.72-3.73-4.94-7.81,3.52-4.92,7.34,35.95,47.57,71.89,95.15,107.84,142.72,1.04,1.38,3.26,1.81,4.58.54,23.28-22.5,46.55-45.01,69.83-67.51,2.36-2.28,2.16-6.61-.45-8.62-48.11-37.12-96.22-74.24-144.33-111.36l.45,8.62c9.65-9.05,19.3-18.11,28.94-27.16,2.36-2.21,2.3-8.08-1.37-9.08-41.09-11.13-82.18-22.26-123.26-33.39-3.59-.97-4.99,3.72-4.28,6.38,11.01,41.49,22.03,82.97,33.04,124.46.59,2.23,3.39,4.95,5.66,2.7,9.31-9.25,18.62-18.5,27.94-27.75,3.31-3.29-.19-12.45-4.23-8.42Z"/>
      <path class="cls-2" d="m271.09,779.56c-23.22-22.66-46.43-45.32-69.65-67.98l-.81,5.37c47.87-36.93,95.73-73.85,143.6-110.78,1.75-1.35,2.68-3.63.81-5.37-9.8-9.2-19.61-18.39-29.41-27.59l-3.2,6.34c41.61-11.29,83.22-22.57,124.83-33.86l-5.62-3.77c-10.93,41.27-21.86,82.54-32.79,123.81,2.94-.86,5.88-1.72,8.81-2.57-9.27-9.18-18.55-18.36-27.82-27.54-1.9-1.88-6.28-1.38-7.86.71-36.25,47.98-72.5,95.96-108.76,143.95-3.76,4.97,4.99,7.79,7.93,3.9,36.25-47.98,72.5-95.96,108.76-143.95l-7.86.71c9.27,9.18,18.55,18.36,27.82,27.54,2.6,2.58,7.93.78,8.81-2.57,10.93-41.27,21.86-82.54,32.79-123.81.78-2.96-3.52-4.34-5.62-3.77-41.61,11.29-83.22,22.57-124.83,33.86-2.66.72-6.09,3.63-3.2,6.34,9.8,9.2,19.61,18.39,29.41,27.59l.81-5.37c-47.87,36.93-95.73,73.85-143.6,110.78-1.78,1.38-2.64,3.59-.81,5.37,23.22,22.66,46.43,45.32,69.65,67.98,3.37,3.29,11.93-1.27,7.78-5.32Z"/>
      <path class="cls-2" d="m417.3,487.15c-37.24,21.9-74.47,43.8-111.71,65.69l7.8,2.51v-39.69c0-2.42-3.45-3.53-5.33-3.26-59.38,8.6-118.76,17.21-178.14,25.81l5.33,3.26v-97.45l-5.96,4.2c59.28,7.31,118.55,14.62,177.83,21.94,2.65.33,5.96-1.2,5.96-4.2v-39.77l-8.25,3.45c37.34,21.16,74.67,42.32,112.01,63.48,4.17,2.36,11.94-2.89,6.54-5.95-37.34-21.16-74.67-42.32-112.01-63.48-2.9-1.64-8.25-.54-8.25,3.45v39.77l5.96-4.2c-59.28-7.31-118.55-14.62-177.83-21.94-2.65-.33-5.96,1.2-5.96,4.2v97.45c0,2.42,3.45,3.53,5.33,3.26,59.38-8.6,118.76-17.21,178.14-25.81l-5.33-3.26v39.69c0,3.59,5.63,3.78,7.8,2.51,37.24-21.9,74.47-43.8,111.71-65.69,5.63-3.31-1.17-8.6-5.64-5.97Z"/>
      <path class="cls-2" d="m512.12,313h39.24l-2.78-6.04c-21.5,37.47-43,74.94-64.5,112.42l7.63-.97c-21.6-37.19-43.2-74.37-64.8-111.56l-4.85,7h40.87c2.71,0,5.43-3.43,5.11-6.01-4.32-34.72-8.91-69.4-13.55-104.08-2.35-17.54-4.69-35.07-7.04-52.61-.55-4.08-1.1-8.15-1.69-12.22-.06-.43-.33-5.65-.82-5.9l-.76,1.26c-1.16,1.12-1.09,1.54.22,1.25.75.41,3.04,0,3.91-.01,8.8-.03,17.61-.06,26.41-.09,10.11-.04,20.22-.08,30.33-.11,4.89-.02,9.78-.04,14.67-.05,4.02-.01,9.99-1.23,13.59.57l-1.62-3.52c-7.76,58.95-15.53,117.91-23.29,176.86-.81,6.18,8.14,3.69,8.77-1.11,7.76-58.95,15.52-117.91,23.29-176.86.19-1.42-.26-2.84-1.62-3.52-2.99-1.49-5.57-1.2-8.94-1.18-4.89.02-9.78.03-14.67.05-9.78.04-19.57.07-29.35.11s-20.22.07-30.33.11c-6.35.02-16.48-1.9-19.05,5.98-.99,3.05-.04,6.39.4,9.46.72,5.01,1.4,10.03,2.07,15.05,1.29,9.71,2.59,19.42,3.89,29.13,2.68,20,5.36,40.01,8.02,60.01,2.87,21.56,5.61,43.14,8.3,64.73l5.11-6.01h-40.87c-2.77,0-6.44,4.26-4.85,7,21.6,37.19,43.2,74.37,64.8,111.56,1.75,3.02,6.11,1.67,7.63-.97,21.5-37.47,43-74.94,64.5-112.42,1.66-2.9.96-6.04-2.78-6.04h-39.24c-4.87,0-7.62,8.73-1.39,8.73Z"/>
      <path class="cls-2" d="m201.09,268.13c22.89-22.21,45.78-44.42,68.67-66.64l-5.37-.86c35.81,47.2,71.62,94.4,107.43,141.6,1.35,1.78,3.58,2.69,5.37.86,8.82-9.02,17.65-18.03,26.47-27.05l-2.76,1c.66.17,1.31.35,1.97.52l-3.56-4.26c11.01,41.48,22.02,82.95,33.03,124.43l3.83-5.58c-41.54-11.24-83.08-22.48-124.62-33.72l2.49,8.84c10.14-9.37,20.27-18.74,30.41-28.11,1.97-1.82,1.38-6.31-.63-7.86-47.79-37.01-95.57-74.02-143.36-111.03-4.93-3.82-7.83,4.91-3.98,7.89,47.79,37.01,95.57,74.02,143.36,111.03l-.63-7.86c-10.14,9.37-20.27,18.74-30.41,28.11-2.7,2.5-.79,7.95,2.49,8.84,41.54,11.24,83.08,22.48,124.62,33.72,2.95.8,4.39-3.47,3.83-5.58-11.01-41.48-22.02-82.95-33.03-124.43-.52-1.97-1.48-3.71-3.56-4.26-.66-.17-1.31-.35-1.97-.52-.99-.26-2.09.33-2.76,1-8.82,9.02-17.65,18.03-26.47,27.05l5.37.86c-35.81-47.2-71.62-94.4-107.43-141.6-1.38-1.82-3.54-2.64-5.37-.86-22.89,22.21-45.78,44.42-68.67,66.64-3.38,3.28,1.08,11.88,5.24,7.84Z"/>
    </g>
  </g>
</svg>