<?xml version="1.0" encoding="UTF-8"?>
<svg id="Calque_2" xmlns="http://www.w3.org/2000/svg" viewBox="0 0 739.56 739.02">
  <defs>
    <style>
      .cls-1 {
        fill: #aeccba;
      }

      .cls-2 {
        fill: #111827;
      }
    </style>
  </defs>
  <g id="Haute_concentration">
    <g>
      <g>
        <g>
          <g>
            <path class="cls-2" d="M664.63,139.93c-23.2-22.7-46.4-45.39-69.6-68.09-2.19-2.14-6.04.26-7.4,2.06-36.28,48.02-72.56,96.04-108.83,144.06l7.4-2.06c-9.21-9.34-18.43-18.68-27.64-28.03-2.28-2.31-7.25.51-7.94,3.1-10.98,41.42-21.95,82.85-32.93,124.27-.98,3.7,2.11,4.95,5.23,4.1,22.6-6.13,45.19-12.27,67.79-18.4,10.79-2.93,21.59-5.86,32.38-8.79,5.53-1.5,11.06-3,16.59-4.5s9-1.76,10.69-7.34c.45-1.48.28-2.69-.88-3.77-9.33-8.73-18.66-17.46-27.98-26.19l-1.51,6.59c47.71-36.81,95.41-73.61,143.12-110.42,4.85-3.74.95-10.17-4.03-6.32-47.71,36.81-95.41,73.61-143.12,110.42-2.06,1.59-3.88,4.37-1.51,6.59,9.33,8.73,18.66,17.46,27.98,26.19l-.88-3.77-.65,2.17,3.58-3.43c-41.07,11.15-82.14,22.29-123.22,33.44l5.23,4.1c10.98-41.42,21.95-82.85,32.93-124.27l-7.94,3.1c9.21,9.34,18.43,18.68,27.64,28.03,2.15,2.18,6.07-.3,7.4-2.06,36.28-48.02,72.56-96.04,108.83-144.06l-7.4,2.06c23.2,22.7,46.4,45.39,69.6,68.09,3.38,3.31,10.91-3.1,7.06-6.87Z"/>
            <path class="cls-2" d="M479.14,520.54c35.95,47.57,71.89,95.15,107.84,142.72,1.83,2.42,5.39,1.47,7.28-.35,23.28-22.5,46.55-45.01,69.83-67.51,1.51-1.46,2.44-4.24.46-5.77-48.11-37.12-96.22-74.24-144.33-111.36l-.46,5.77c9.65-9.05,19.3-18.11,28.94-27.16,1.68-1.57,2.62-5.42-.44-6.25-41.09-11.13-82.18-22.26-123.26-33.39-3.06-.83-8.22,1.9-7.22,5.67,11.01,41.49,22.03,82.97,33.04,124.46.95,3.57,5.68,2.55,7.67.58,9.31-9.25,18.62-18.5,27.94-27.75,4.65-4.62-2.08-8.69-6.13-4.67-9.31,9.25-18.62,18.5-27.94,27.75l7.67.58c-11.01-41.49-22.03-82.97-33.04-124.46l-7.22,5.67c41.09,11.13,82.18,22.26,123.26,33.39l-.44-6.25c-9.65,9.05-19.3,18.11-28.94,27.16-1.53,1.44-2.42,4.26-.46,5.77,48.11,37.12,96.22,74.24,144.33,111.36l.46-5.77c-23.28,22.5-46.55,45.01-69.83,67.51l7.28-.35c-35.95-47.57-71.89-95.15-107.84-142.72-3.02-4-11.42,1.43-8.43,5.38Z"/>
            <path class="cls-2" d="M152.29,662.71c36.25-47.98,72.5-95.96,108.76-143.95l-7.4,2.06c9.27,9.18,18.55,18.36,27.82,27.54,2.3,2.27,7.24-.48,7.94-3.1,10.93-41.27,21.86-82.54,32.79-123.81.98-3.7-2.11-4.95-5.23-4.1-41.61,11.29-83.22,22.57-124.83,33.86-2.93.8-5.22,4.84-2.71,7.2,9.8,9.2,19.61,18.39,29.41,27.59l1.51-6.59c-47.87,36.93-95.73,73.85-143.6,110.78-2.11,1.63-3.83,4.33-1.51,6.59,23.22,22.66,46.43,45.32,69.65,67.98,3.39,3.31,10.91-3.1,7.06-6.87-23.22-22.66-46.43-45.32-69.65-67.98l-1.51,6.59c47.87-36.93,95.73-73.85,143.6-110.78,2.06-1.59,3.88-4.37,1.51-6.59-9.8-9.2-19.61-18.39-29.41-27.59l-2.71,7.2c41.61-11.29,83.22-22.57,124.83-33.86l-5.23-4.1c-10.93,41.27-21.86,82.54-32.79,123.81l7.94-3.1c-9.27-9.18-18.55-18.36-27.82-27.54-2.18-2.15-6.05.28-7.4,2.06-36.25,47.98-72.5,95.96-108.76,143.95-3.93,5.21,4.66,6.82,7.74,2.75Z"/>
            <path class="cls-2" d="M76.17,146.77c47.79,37.01,95.57,74.02,143.36,111.03l.46-5.77c-10.14,9.37-20.27,18.74-30.41,28.11-1.69,1.57-2.6,5.43.44,6.25,41.54,11.24,83.08,22.48,124.62,33.72,3.06.83,8.22-1.9,7.22-5.67-11.01-41.48-22.02-82.95-33.03-124.43-.25-.93-1-1.9-1.98-2.17-.66-.17-1.31-.35-1.97-.52-1.99-.53-4.23.09-5.69,1.58-8.82,9.02-17.65,18.03-26.47,27.05l7.28-.35c-35.81-47.2-71.62-94.4-107.43-141.6-1.83-2.41-5.39-1.48-7.28.35-22.89,22.21-45.78,44.42-68.67,66.64-4.7,4.56,2.04,8.63,6.13,4.67,22.89-22.21,45.78-44.42,68.67-66.64l-7.28.35c35.81,47.2,71.62,94.4,107.43,141.6,1.8,2.37,5.44,1.53,7.28-.35,8.82-9.02,17.65-18.03,26.47-27.05l-5.69,1.58c.66.17,1.31.35,1.97.52l-1.98-2.17c11.01,41.48,22.02,82.95,33.03,124.43l7.22-5.67c-41.54-11.24-83.08-22.48-124.62-33.72l.44,6.25c10.14-9.37,20.27-18.74,30.41-28.11,1.55-1.43,2.41-4.26.46-5.77-47.79-37.01-95.57-74.02-143.36-111.03-3.78-2.93-11.28,3.6-7.06,6.87Z"/>
          </g>
          <path class="cls-2" d="M659.27,139.02c-47.71,36.81-95.41,73.61-143.12,110.42-2.66,2.05-2.44,6.46-.12,8.63,9.33,8.73,18.66,17.46,27.98,26.19l-1.64-5.67-.65,2.17,2.67-3.45c-41.07,11.15-82.14,22.29-123.22,33.44l4.52,6.22c10.98-41.42,21.95-82.85,32.93-124.27l-5.55,2.91c9.21,9.34,18.43,18.68,27.64,28.03,1.33,1.34,3.56.6,4.56-.72,36.28-48.02,72.56-96.04,108.83-144.06l-4.56.72c23.2,22.7,46.4,45.39,69.6,68.09,4.04,3.95,7.24-5.32,3.91-8.58-23.2-22.7-46.4-45.39-69.6-68.09-1.35-1.32-3.55-.62-4.56.72-36.28,48.02-72.56,96.04-108.83,144.06l4.56-.72c-9.21-9.34-18.43-18.68-27.64-28.03-2.33-2.36-5,.85-5.55,2.91-10.98,41.42-21.95,82.85-32.93,124.27-.74,2.81,1.04,7.16,4.52,6.22,22.6-6.13,45.19-12.27,67.79-18.4,10.79-2.93,21.59-5.86,32.38-8.79,5.53-1.5,11.06-3,16.59-4.5,2.23-.61,5.5-.8,7.35-2.24,1.55-1.21,1.88-3.35,2.42-5.13.6-1.97-.18-4.3-1.64-5.67-9.33-8.73-18.66-17.46-27.98-26.19-.04,2.88-.08,5.76-.12,8.63,47.71-36.81,95.41-73.61,143.12-110.42,3.72-2.87.9-12.21-3.66-8.69Z"/>
          <path class="cls-2" d="M481.15,514.01c-9.31,9.25-18.62,18.5-27.94,27.75l5.72,1.73c-11.01-41.49-22.03-82.97-33.04-124.46l-4.14,7.07c41.09,11.13,82.18,22.26,123.26,33.39l-1.59-8.8c-9.65,9.05-19.3,18.11-28.94,27.16-1.79,1.68-2.4,6.2-.21,7.89,48.11,37.12,96.22,74.24,144.33,111.36l.21-7.89c-23.28,22.5-46.55,45.01-69.83,67.51l5.26.65c-35.95-47.57-71.89-95.15-107.84-142.72-3.75-4.97-9.07,2.48-6.13,6.37,35.95,47.57,71.89,95.15,107.84,142.72,1.41,1.87,3.41,2.44,5.26.65,23.28-22.5,46.55-45.01,69.83-67.51,1.76-1.7,2.42-6.18.21-7.89-48.11-37.12-96.22-74.24-144.33-111.36l-.21,7.89c9.65-9.05,19.3-18.11,28.94-27.16,2.59-2.43,2.03-7.82-1.59-8.8-41.09-11.13-82.18-22.26-123.26-33.39-3.58-.97-4.74,4.81-4.14,7.07,11.01,41.49,22.03,82.97,33.04,124.46.73,2.74,3.66,3.77,5.72,1.73,9.31-9.25,18.62-18.5,27.94-27.75,3.43-3.41.02-12.06-4.4-7.67Z"/>
          <path class="cls-2" d="M152.18,658.49c-23.22-22.66-46.43-45.32-69.65-67.98l-.54,5.41c47.87-36.93,95.73-73.85,143.6-110.78,1.84-1.42,2.33-3.73.54-5.41-9.8-9.2-19.61-18.39-29.41-27.59l-2.88,6.5c41.61-11.29,83.22-22.57,124.83-33.86l-5.8-3.49c-10.93,41.27-21.86,82.54-32.79,123.81l8.68-3.01c-9.27-9.18-18.55-18.36-27.82-27.54-1.97-1.95-6.31-.89-7.81,1.1-36.25,47.98-72.5,95.96-108.76,143.95-3.76,4.97,5.19,7.37,8.12,3.5,36.25-47.98,72.5-95.96,108.76-143.95l-7.81,1.1c9.27,9.18,18.55,18.36,27.82,27.54,2.72,2.69,7.83.18,8.68-3.01,10.93-41.27,21.86-82.54,32.79-123.81.82-3.08-3.87-4.01-5.8-3.49-41.61,11.29-83.22,22.57-124.83,33.86-2.87.78-5.65,3.9-2.88,6.5,9.8,9.2,19.61,18.39,29.41,27.59l.54-5.41c-47.87,36.93-95.73,73.85-143.6,110.78-1.87,1.44-2.29,3.7-.54,5.41,23.22,22.66,46.43,45.32,69.65,67.98,3.37,3.29,11.67-1.64,7.51-5.7Z"/>
          <path class="cls-2" d="M82.24,146.95c22.89-22.21,45.78-44.42,68.67-66.64l-5.3-.17c35.81,47.2,71.62,94.4,107.43,141.6,1.5,1.98,3.64,1.87,5.3.17,8.82-9.02,17.65-18.03,26.47-27.05l-3.69,1.17c.66.17,1.31.35,1.97.52l-2.51-3.57c11.01,41.48,22.02,82.95,33.03,124.43l4.81-6c-41.54-11.24-83.08-22.48-124.62-33.72l.61,9.16c10.14-9.37,20.27-18.74,30.41-28.11,2.24-2.07,3.01-6.51.27-8.63-47.79-37.01-95.57-74.02-143.36-111.03-4.57-3.54-7.79,5.62-4.06,8.51,47.79,37.01,95.57,74.02,143.36,111.03l.27-8.63c-10.14,9.37-20.27,18.74-30.41,28.11-2.14,1.98-3.29,8.11.61,9.16,41.54,11.24,83.08,22.48,124.62,33.72,3.34.9,5.6-3.03,4.81-6-11.01-41.48-22.02-82.95-33.03-124.43-.35-1.31-.98-3.17-2.51-3.57-.66-.17-1.31-.35-1.97-.52-1.57-.42-2.58.04-3.69,1.17-8.82,9.02-17.65,18.03-26.47,27.05l5.3.17c-35.81-47.2-71.62-94.4-107.43-141.6-1.53-2.02-3.6-1.82-5.3-.17-22.89,22.21-45.78,44.42-68.67,66.64-3.5,3.39.61,11.57,5.08,7.24Z"/>
        </g>
        <g>
          <g>
            <path class="cls-2" d="M739.55,414.6c-.36-32.45-.71-64.9-1.07-97.36-.02-1.9-2.6-2.74-4.1-2.53-59.61,8.3-119.21,16.61-178.82,24.91l4.11,3.55c.09-13.12.18-26.24.27-39.36.03-3.66-3.81-4.33-6.56-2.74-37.05,21.53-74.11,43.06-111.16,64.59-2.73,1.59-4.12,5.22-.93,7.04,20.32,11.64,40.63,23.28,60.95,34.93,9.7,5.56,19.41,11.12,29.11,16.68,4.97,2.85,9.94,5.7,14.92,8.55s7.09,4.59,12.46,1.71c1.82-.98,2.87-2.77,2.81-4.79-.42-12.77-.84-25.54-1.27-38.31l-6.42,5.6c59.76,7.71,119.52,15.41,179.28,23.12,4.78.62,9.66-7.33,3.49-8.12-59.76-7.71-119.52-15.41-179.28-23.12-3.29-.42-6.53,2.3-6.42,5.6.42,12.77.84,25.54,1.27,38.31l2.81-4.79-1.99,1.07,4.67-.54c-36.92-21.16-73.85-42.32-110.77-63.48l-.93,7.04c37.05-21.53,74.11-43.06,111.16-64.59l-6.56-2.74c-.09,13.12-.18,26.24-.27,39.36-.02,2.34,1.67,3.89,4.11,3.55,59.61-8.3,119.21-16.61,178.82-24.91l-4.1-2.53c.36,32.45.71,64.9,1.07,97.36.06,5.13,9.41,1.67,9.35-3.08Z"/>
            <path class="cls-2" d="M339.71,555.76c-8.22,59.06-16.45,118.12-24.67,177.17-.24,1.72,1.13,3.52,2.94,3.55,32.37.55,64.74,1.09,97.12,1.64,3.03.05,6.88-2.04,6.42-5.6-7.77-60.27-15.54-120.53-23.31-180.8l-6.42,5.6c13.22.42,26.45.84,39.67,1.26,2.98.09,8.17-2.91,6.08-6.55-21.18-36.92-42.36-73.85-63.55-110.77-1.67-2.91-6.72-1.51-8.14.94-21.55,37.12-43.1,74.25-64.64,111.37-1.8,3.11-.36,5.6,3.23,5.61,13.13.04,26.25.09,39.38.13,5.23.02,7.65-8.11,1.15-8.13-13.13-.04-26.25-.09-39.38-.13l3.23,5.61c21.55-37.12,43.1-74.25,64.64-111.37l-8.14.94c21.18,36.92,42.36,73.85,63.55,110.77,2.03-2.18,4.05-4.37,6.08-6.55-13.22-.42-26.45-.84-39.67-1.26-3.03-.1-6.87,2.07-6.42,5.6,7.77,60.27,15.54,120.53,23.31,180.8l6.42-5.6c-32.37-.55-64.74-1.09-97.12-1.64l2.94,3.55c8.22-59.06,16.45-118.12,24.67-177.17.79-5.7-8.72-3.65-9.37,1.02Z"/>
            <path class="cls-2" d="M5.53,423.94c59.56-8.29,119.13-16.59,178.69-24.88l-4.11-3.55c.07,13.05.13,26.1.2,39.14.02,3.64,3.78,4.35,6.56,2.74,36.91-21.45,73.82-42.91,110.73-64.36,2.73-1.59,4.12-5.21.93-7.04-37.4-21.44-74.81-42.88-112.21-64.32-3.32-1.91-7.58,2.1-7.48,5.33.43,13.44.86,26.87,1.29,40.31l6.42-5.6c-59.96-7.74-119.92-15.47-179.88-23.21-3.34-.43-6.46,2.31-6.42,5.6.39,32.44.79,64.88,1.18,97.32.06,5.13,9.41,1.67,9.35-3.08-.39-32.44-.79-64.88-1.18-97.32l-6.42,5.6c59.96,7.74,119.92,15.47,179.88,23.21,3.29.42,6.53-2.3,6.42-5.6-.43-13.44-.86-26.87-1.29-40.31l-7.48,5.33c37.4,21.44,74.81,42.88,112.21,64.32l.93-7.04c-36.91,21.45-73.82,42.91-110.73,64.36l6.56,2.74c-.07-13.05-.13-26.1-.2-39.14-.01-2.34-1.65-3.9-4.11-3.55-59.56,8.29-119.13,16.59-178.69,24.88-5.08.71-7.62,9.03-1.15,8.13Z"/>
            <path class="cls-2" d="M319.11,6.54c7.62,59.96,15.24,119.92,22.86,179.88l6.42-5.6c-13.79-.54-27.59-1.08-41.38-1.62-2.99-.12-8.16,2.93-6.08,6.55,21.43,37.32,42.85,74.64,64.28,111.96,1.67,2.91,6.71,1.51,8.14-.94,21.54-37.11,43.09-74.23,64.63-111.34.73-1.25,1.35-2.64.53-4.04-.34-.59-.68-1.17-1.02-1.76-.81-1.4-2.31-1.59-3.76-1.57-12.62.14-25.23.27-37.85.41l4.11,3.55c8.05-58.7,16.11-117.39,24.16-176.09.24-1.72-1.12-3.52-2.94-3.55-31.89-.48-63.78-.96-95.68-1.44-2.44-.04-5.17,1.07-6.13,3.52-.77,1.97.19,4.56,2.64,4.6,31.89.48,63.78.96,95.68,1.44l-2.94-3.55c-8.05,58.7-16.11,117.39-24.16,176.09-.35,2.57,1.96,3.58,4.11,3.55,12.62-.14,25.23-.27,37.85-.41l-3.76-1.57c.34.59.68,1.17,1.02,1.76l.53-4.04c-21.54,37.11-43.09,74.23-64.63,111.34l8.14-.94c-21.43-37.32-42.85-74.64-64.28-111.96l-6.08,6.55c13.79.54,27.59,1.08,41.38,1.62,3.04.12,6.87-2.09,6.42-5.6-7.62-59.96-15.24-119.92-22.86-179.88-.67-5.24-9.96-1.68-9.35,3.08Z"/>
          </g>
          <path class="cls-2" d="M734.95,411.13c-59.76-7.71-119.52-15.41-179.28-23.12-2.4-.31-3.88,3.08-3.82,4.95.42,12.77.84,25.54,1.27,38.31l2.82-4.78c-2.5,1.34-10.05-4.66-12.43-6.02-4.42-2.53-8.85-5.07-13.27-7.6-9.44-5.41-18.88-10.82-28.31-16.23-18.92-10.84-37.84-21.69-56.77-32.53l.77,9.15c37.05-21.53,74.11-43.06,111.16-64.59l-5.58-4.4c-.09,13.12-.18,26.24-.27,39.36-.01,1.82,1.2,5.4,3.68,5.05,59.61-8.3,119.21-16.61,178.82-24.91l-3.68-5.05c.36,32.45.71,64.9,1.07,97.36.07,6.2,7.57,6.37,7.5.11-.36-32.45-.71-64.9-1.07-97.36-.02-1.82-1.18-5.4-3.68-5.05-59.61,8.3-119.21,16.61-178.82,24.91l3.68,5.05c.09-13.12.18-26.24.27-39.36.02-3.12-2.38-6.26-5.58-4.4-37.05,21.53-74.11,43.06-111.16,64.59-3.34,1.94-2.05,7.54.77,9.15,19.76,11.32,39.52,22.65,59.27,33.97,9.43,5.41,18.86,10.81,28.29,16.22,4.97,2.85,9.95,5.7,14.92,8.55,4,2.29,7.8,6.1,12.27,3.71,1.76-.94,2.89-2.72,2.82-4.78-.42-12.77-.84-25.54-1.27-38.31l-3.82,4.95c59.76,7.71,119.52,15.41,179.28,23.12,4.86.63,5.13-9.36.14-10Z"/>
          <path class="cls-2" d="M345.01,550.28c-13.13-.04-26.25-.09-39.38-.13l2.29,7.86c21.55-37.12,43.1-74.25,64.64-111.37l-5.97.28c21.18,36.92,42.36,73.85,63.55,110.77l3.68-8.15c-13.22-.42-26.45-.84-39.67-1.26-2.93-.09-4.71,3.19-4.36,5.84,7.77,60.27,15.54,120.53,23.31,180.8l4.36-5.84c-32.37-.55-64.74-1.09-97.12-1.64l3.11,5.42c8.22-59.06,16.45-118.12,24.67-177.17.86-6.18-6.58-7.09-7.44-.92-8.22,59.06-16.45,118.12-24.67,177.17-.26,1.9.64,5.38,3.11,5.42,32.37.55,64.74,1.09,97.12,1.64,2.93.05,4.71-3.15,4.36-5.84-7.77-60.27-15.54-120.53-23.31-180.8l-4.36,5.84c13.22.42,26.45.84,39.67,1.26,3.91.12,5.34-5.24,3.68-8.15-21.18-36.92-42.36-73.85-63.55-110.77-1.48-2.58-4.58-2.1-5.97.28-21.55,37.12-43.1,74.25-64.64,111.37-1.21,2.09-1.37,7.85,2.29,7.86,13.13.04,26.25.09,39.38.13,5.01.02,6.14-9.91,1.23-9.92Z"/>
          <path class="cls-2" d="M11.02,419.72c-.39-32.44-.79-64.88-1.18-97.32l-6.62,3.9c59.96,7.74,119.92,15.47,179.88,23.21,2.17.28,6.71-.85,6.62-3.9-.43-13.44-.86-26.87-1.29-40.31l-7.74,3.56c37.4,21.44,74.81,42.88,112.21,64.32l.68-6.61c-36.91,21.45-73.82,42.91-110.73,64.36l7.06,3.05c-.07-13.05-.13-26.1-.2-39.14-.02-3.26-3.17-3.85-5.8-3.49-59.56,8.29-119.13,16.59-178.69,24.88-2.11.29-4.53,2.54-3.98,4.82.62,2.58,3.65,2.77,5.74,2.48,59.56-8.29,119.13-16.59,178.69-24.88l-5.8-3.49c.07,13.05.13,26.1.2,39.14.02,3.46,4.39,4.6,7.06,3.05,36.91-21.45,73.82-42.91,110.73-64.36,2.84-1.65,3.96-4.73.68-6.61-37.4-21.44-74.81-42.88-112.21-64.32-2.32-1.33-7.84.35-7.74,3.56.43,13.44.86,26.87,1.29,40.31l6.62-3.9c-59.96-7.74-119.92-15.47-179.88-23.21-2.22-.29-6.65.85-6.62,3.9.39,32.44.79,64.88,1.18,97.32.07,5.37,9.9,4.43,9.84-.32Z"/>
          <path class="cls-2" d="M323.63,10c31.89.48,63.78.96,95.68,1.44l-3.41-6.44c-8.05,58.7-16.11,117.39-24.16,176.09-.31,2.25.18,6.48,3.41,6.44,12.62-.14,25.23-.27,37.85-.41l-2.6-1.55c.34.59.68,1.17,1.02,1.76l-.39-6.07c-21.54,37.11-43.09,74.23-64.63,111.34l5.92-.83c-21.43-37.32-42.85-74.64-64.28-111.96l-2.92,8.45c13.79.54,27.59,1.08,41.38,1.62,3.13.12,4.11-3.85,3.81-6.21-7.62-59.96-15.24-119.92-22.86-179.88-.83-6.51-8.02-3.17-7.31,2.43,7.62,59.96,15.24,119.92,22.86,179.88l3.81-6.21c-13.79-.54-27.59-1.08-41.38-1.62-4.22-.17-4.4,5.88-2.92,8.45,21.43,37.32,42.85,74.64,64.28,111.96,1.63,2.83,4.7,1.27,5.92-.83,21.54-37.11,43.09-74.23,64.63-111.34,1.08-1.86.62-4.33-.39-6.07-.34-.59-.68-1.17-1.02-1.76-.47-.81-1.65-1.56-2.6-1.55-12.62.14-25.23.27-37.85.41l3.41,6.44c8.05-58.7,16.11-117.39,24.16-176.09.32-2.32-.19-6.39-3.41-6.44C387.73.96,355.84.48,323.95,0c-5-.08-5.31,9.92-.32,9.99Z"/>
        </g>
      </g>
      <g>
        <circle class="cls-1" cx="368.71" cy="369.44" r="54"/>
        <path class="cls-2" d="M417.71,369.34c-.26,20.76-12.65,39.84-32.27,47.3s-42.01.68-54.85-15.66c-12.84-16.33-14.44-39.67-3.78-57.56,10.45-17.54,31.22-27.42,51.38-23.3,23.22,4.75,39.23,25.87,39.52,49.21.06,5,10.06,5.19,10,.21-.31-24.23-15.59-45.99-38.47-54.23s-49.57-1.74-65.64,16.81-18.19,46.13-5.43,67.12,38.19,31.43,62.01,26.87c27.14-5.2,47.17-28.94,47.52-56.57.06-4.99-9.93-5.21-10-.21Z"/>
      </g>
    </g>
  </g>
</svg>