<?xml version="1.0" encoding="UTF-8"?>
<svg xmlns="http://www.w3.org/2000/svg" viewBox="0 0 977.95 979.65">
  <defs>
    <style>
      .cls-1 {
        fill: #e6e6e6;
      }

      .cls-1, .cls-2 {
        stroke-width: 0px;
      }
    </style>
  </defs>
  <g id="Cercle">
    <path class="cls-2" d="m970,490.85c-.07,50.32-7.77,100.64-23.43,148.49-15.1,46.14-37.2,89.86-65.42,129.37-27.94,39.12-61.74,73.93-99.93,103.12-38.54,29.45-81.72,53.03-127.34,69.52-46.93,16.97-96.45,26.56-146.32,28.34-50.63,1.8-101.56-4.17-150.28-18.11-46.78-13.39-91.48-33.91-132.15-60.62-40.22-26.42-76.42-59.03-107.1-96.09-30.86-37.28-56.02-79.3-74.4-124.07s-30.52-95.25-34.28-144.92.24-101.88,12.3-151.27c11.52-47.18,30.35-92.6,55.61-134.07,25.03-41.09,56.17-78.33,92.18-110.24,36.15-32.03,77.12-58.52,121.14-78.41,45.15-20.39,93.53-33.57,142.74-39.19,50.64-5.79,102.31-3.43,152.24,6.76,48.08,9.82,94.61,27.24,137.45,51.15,42.1,23.5,80.56,53.39,113.86,88.25,33.36,34.91,61.38,74.79,82.94,118,22.02,44.15,37.07,91.65,44.61,140.4,3.77,24.35,5.55,48.96,5.59,73.59,0,6.54,7.96,3.11,7.95-2.05-.07-51.36-7.98-102.68-23.9-151.53-15.29-46.92-37.65-91.46-66.28-131.66-28.45-39.95-62.78-75.63-101.76-105.42-39.09-29.87-82.65-53.88-128.88-70.74S558.53,2.13,507.56.31c-51.52-1.84-103.38,4.38-152.93,18.64-47.51,13.67-92.94,34.64-134.16,61.94-40.76,27-77.35,60.01-108.48,97.71-31.45,38.1-57.11,81.04-75.76,126.78S5.36,402.4,1.45,453.08c-3.96,51.44.19,103.57,12.35,153.71,11.74,48.42,31.01,95.04,56.87,137.63,25.35,41.74,56.97,79.7,93.48,112.13,36.79,32.68,78.56,59.84,123.41,80.1,45.78,20.68,94.82,34.13,144.73,39.84,51.56,5.89,104.11,3.56,154.95-6.9s96.35-27.83,139.93-52.3c42.64-23.95,81.71-54.36,115.4-89.81,33.95-35.73,62.48-76.44,84.42-120.58,22.3-44.87,37.62-93.25,45.21-142.78,3.82-24.92,5.71-50.11,5.75-75.32,0-6.54-7.94-3.11-7.95,2.05Z"/>
  </g>
  <g id="Haut_dosage" data-name="Haut dosage">
    <path class="cls-1" d="m513.98,151.65l-182.44,425.19c-56.22,131.01,39.88,276.81,182.44,276.81h0c142.56,0,238.66-145.8,182.44-276.81l-182.44-425.19Z"/>
    <path class="cls-2" d="m475.12,137.42c-12,27.96-23.99,55.91-35.99,83.87-24.61,57.35-49.21,114.7-73.82,172.05-20.6,48.01-41.2,96.02-61.8,144.03-3.6,8.39-7.23,16.78-10.81,25.18-16.12,37.86-21.12,79.61-13.07,120.06,16.45,82.61,84.61,147.99,167.94,160.38,42.49,6.32,86.81-1,124.82-21.08,36.53-19.3,66.67-49.89,85.89-86.43,19.22-36.55,27-78.51,21.91-119.49-2.75-22.11-9.84-42.82-18.56-63.16-17.19-40.06-34.38-80.12-51.57-120.18-25.16-58.64-50.32-117.28-75.48-175.92-16.51-38.49-33.03-76.97-49.54-115.46-.83-1.93-1.66-3.87-2.49-5.8-2.03-4.74-9.44,1.93-7.56,6.3,11.57,26.96,23.14,53.93,34.71,80.89,24.13,56.23,48.26,112.47,72.39,168.7,20.82,48.51,41.63,97.02,62.45,145.53,4.2,9.8,8.42,19.6,12.61,29.4,14.16,33.1,19.38,69.72,14.01,105.39-12.4,82.47-78.52,149.29-160.95,162.12-42.29,6.58-86.82-.9-124.33-21.61-35.49-19.59-64.25-50.21-81.99-86.62-18.06-37.06-24.03-79.79-16.22-120.31,3.44-17.82,9.83-34.45,16.94-51.01,17.62-41.07,35.25-82.15,52.87-123.22,24.78-57.76,49.57-115.51,74.35-173.27,16.07-37.45,32.14-74.9,48.21-112.35.8-1.86,1.59-3.71,2.39-5.57,2.57-5.99-5.05-7.7-7.31-2.42Z"/>
  </g>
</svg>