<?xml version="1.0" encoding="UTF-8"?>
<svg id="Calque_2" xmlns="http://www.w3.org/2000/svg" viewBox="0 0 499.45 676.68">
  <defs>
    <style>
      .cls-1 {
        fill: #f46035;
      }

      .cls-2 {
        fill: #f13826;
      }

      .cls-3 {
        fill: #f2432d;
      }

      .cls-4 {
        fill: #ee2126;
      }

      .cls-5 {
        fill: #f24930;
      }

      .cls-6 {
        fill: #f13a27;
      }

      .cls-7 {
        fill: #f24e34;
      }

      .cls-8 {
        fill: #f24b32;
      }

      .cls-9 {
        fill: #f77c4c;
      }

      .cls-10 {
        fill: #fca466;
      }

      .cls-11 {
        fill: #f67043;
      }

      .cls-12 {
        fill: #f35239;
      }

      .cls-13 {
        fill: #f2402b;
      }

      .cls-14 {
        fill: #f78152;
      }

      .cls-15 {
        fill: #ed0224;
      }

      .cls-16 {
        fill: #fca668;
      }

      .cls-17 {
        fill: #f2472f;
      }

      .cls-18 {
        fill: #f77e4e;
      }
    </style>
  </defs>
  <g id="Hydrocurc">
    <g>
      <path class="cls-17" d="M21.89,534.21c-5-13.43-11.24-26.32-13.93-40.7-2.02-10.79-5.92-21.22-5.57-32.43-3.38-7.23-1.46-14.92-1.95-22.39,7.65,1.74,14.49,5.66,22.67,6.47,9.15.91,16.69,1.44,27.69-.49,13.12-2.29,24.07-8.21,33.82-16.94.78-.7,2.35-.51,3.55-.74,0,.96-.41,2.27.06,2.83,6.59,7.79,12.23,16.67,21.57,21.55,4.95,2.59,8.77,8,15.41,6.81-.24,2.82.1,5.5,1.95,7.8-1.88.9-4.07,1.44-5.58,2.76-13.33,11.64-22.33,25.48-21.71,44.02,0,2.51-.59,5.21.13,7.5,1.25,3.99.53,8.64,3.77,11.99v1.95c-1.61,0-4.06-.66-4.68.12-2.34,2.98-5.85,3.16-8.75,4.72-5.47,2.93-11.41,3.7-17.29,4.92-6.22,1.29-12.44,3.77-18.66,0-9.15.42-17.03-3.51-25.07-7.08-1.62-.72-3.65-.51-5.49-.72-.65-.65-1.3-1.3-1.95-1.95Z"/>
      <path class="cls-2" d="M88.17,426.99c-1.2.23-2.77.04-3.55.74-9.75,8.73-20.71,14.65-33.82,16.94-10.99,1.92-18.54,1.39-27.69.49-8.18-.81-15.02-4.73-22.67-6.47v-9.75c1.43-.46,3.22-.53,4.23-1.46,2.06-1.9,3.56-4.41,5.56-6.4,2.11-2.1,4.65-3.76,6.78-5.83,9.37-9.11,21.24-12.83,33.55-15.48,3.28-.71,6.57-.31,10.04-1.66,2.94-1.14,7.11.98,10.75,1.55.88.14,1.82-.16,3.18-.3,0-6.27.26-12.4-.06-18.49-.63-12.07,3.77-22.88,7.85-33.81,4.55-6.51,9.11-13.01,13.61-19.56.3-.43.04-1.25.04-1.88,1.2-.23,2.67-.09,3.57-.75,5.52-4.01,10.48-9,16.44-12.14,7.97-4.19,16.2-8.35,25.64-8.65,1.7-.05,3.36-1.21,5.04-1.86,13.68-.71,27.02.49,39.91,5.75,6.05,2.46,14.15,6.93,18.57,11.8-2.18,3.48-6.25,4.58-9.48,5.59-8.64,2.7-16.15,7.24-23.66,11.95-4.17-.9-8.35-1.43-9.92-6.68-.6-1.99-3.11-3.42-4.93-5.29-4.75,11.75-12.31,18.65-21.36,23.97-2.97,1.75-5.91,2.79-9.16,3.82-6.56,2.07-13.1,1.56-19.69,1.77-.35.01-.68.73-1.12,1.24,1.21.45,2.33.87,3.66,1.36.69,5.1,1.88,10.3,1.95,15.51.06,4.59-.78,9.28-1.88,13.76-1.97,8.04-3.75,16.26-9.67,22.65-4.62.31-7.37-4.05-11.56-4.7-3.96-.61-7.31-4.7-12.27-2.28,3.01,7.77,5.9,15.26,8.73,22.57h3.4v1.95Z"/>
      <path class="cls-10" d="M82.32,347.06c-4.09,10.93-8.48,21.74-7.85,33.81.32,6.1.06,12.22.06,18.49-1.36.14-2.3.44-3.18.3-3.64-.57-7.81-2.69-10.75-1.55-3.47,1.35-6.76.95-10.04,1.66-12.3,2.65-24.17,6.36-33.55,15.48-2.13,2.07-4.67,3.73-6.78,5.83-2,1.99-3.5,4.49-5.56,6.4-1,.93-2.79,1-4.23,1.46,0-2.26.3-4.58-.05-6.78-1.39-8.65,1.29-16.97,2.26-25.36.93-8.02,3.3-15.96,5.26-23.88,2.69-10.9,6.25-21.3,10.82-31.47,3.06-6.82,5.51-13.96,9.19-20.42,2.62-4.6,4.5-10.05,9.58-12.95,9.84,8.37,17.47,11.07,29.24,11.7h1.95c-.17,6.26,3.05,11.02,6.79,15.6,2.88,3.52,6.25,6.81,6.85,11.69Z"/>
      <path class="cls-5" d="M175.9,666.77h-4.63c-7.44-3.56-13.71-7.2-20.41-9.62-10.52-3.79-20.14-9.11-29.74-14.72-6.69-3.91-13.33-7.76-19.3-12.7,0-.32-.11-.88.02-.93,11.36-5.32,20.15-13.38,26.3-24.35,1.34-2.38,3.95-4.29,4.59-6.78,2.55-9.99,6.54-19.73,6.14-30.33,10.96-.32,21.98,1.24,32.71-2.11,1.6,9.2-.09,17.6,2.02,26.2,3.24,13.17,9.28,24.14,19.44,32.6,2.76,2.29,5.55,6.07,10.16,5.69v1.95c.35,5.17-3.72,8.27-5.97,12.11-5.96,10.14-10.95,14.42-21.32,20.06v2.92Z"/>
      <path class="cls-3" d="M138.86,567.35c.4,10.6-3.58,20.34-6.14,30.33-.63,2.48-3.25,4.39-4.59,6.78-6.15,10.97-14.94,19.02-26.3,24.35-.12.06-.02.61-.02.93-1.3-.65-2.6-1.3-3.9-1.95,0-4.54.38-9.13-.08-13.63-1.08-10.71,2.44-20.04,7.87-28.92,3.53-5.77,6.57-11.79,13.35-14.86,3.18-1.44,5.74-4.28,8.78-6.64-1.04-1.32-1.45-2.36-2.18-2.7-5.65-2.66-9.77-7.25-13.47-11.88-3.53-4.42-7.97-8.66-8.41-14.96v-1.95c.87-1.19,1.49-3.03,2.64-3.46,4.19-1.58,6.88-4.56,9.05-8.24,10.78-10.01,17.17-22.1,17.55-37.04.32,0,.93-.01.93,0,.43,9.08,6.75,15.44,11.17,22.42,4.34,6.84,10.27,12.85,16.28,18.38,5.61,5.17,12.23,9.23,18.41,13.79.24,3.75.2,7.64-2.07,10.7-2.84,3.82-2.88,8.48-4.8,12.95-5.39-.72-10.85-1.76-16.37-2.12-5.71-.37-11.46-.08-17.02-.08-.55,1.57-.95,2.69-1.25,3.56-1.65-.63-3.14-1.21-5.59-2.15.44,2.34.65,3.44.84,4.45h3.36c.65.65,1.3,1.3,1.95,1.95Z"/>
      <path class="cls-8" d="M318.21,530.31c.23-.55.35-1.49.7-1.59,1.2-.32,2.48-.33,4.41-.54,5.03-6.62,12.35-11.1,20.37-14.58,5.88-2.55,11.86-4.43,18.39-4.83,11.74-.71,22.29,2.43,32.88,7.34,10.52,4.88,17.13,12.97,22.63,22.44,3.78,6.52,7.9,13,7.84,20.99-7.33-.07-13.93,2.93-19.34,7.08-5.27,4.05-11.27,8.46-11.85,16.31-.65.65-1.3,1.3-1.95,1.95-1.99.65-3.97,1.8-5.98,1.86-7.1.23-14.21.09-21.31.09-.5-3.6-1-7.2-1.53-11.03.46-.64,1.17-1.61,1.76-2.42-1.55-2.45-3.27-4.35-4.05-6.57-2.77-7.88-6.62-14.84-12.54-21.01-5.52-5.75-12.22-9.14-18.92-12.9-3.7-2.08-7.4-2.96-11.51-2.61Z"/>
      <path class="cls-10" d="M103.77,534.21c.44,6.29,4.88,10.54,8.41,14.96,3.7,4.63,7.83,9.22,13.47,11.88.74.35,1.15,1.38,2.18,2.7-3.04,2.36-5.59,5.2-8.78,6.64-6.77,3.06-9.82,9.09-13.35,14.86-5.43,8.88-8.95,18.2-7.87,28.92.45,4.5.08,9.08.08,13.63-6.01-4.51-12.17-8.81-17.4-14.33-2.75-2.9-6.68-4.71-9.35-7.67-13.33-14.78-26.78-29.61-36.86-46.83-4.16-7.11-8.71-14.41-10.48-22.79,1.84.22,3.87,0,5.49.72,8.03,3.57,15.92,7.5,25.07,7.08,6.22,3.78,12.43,1.3,18.66,0,5.88-1.22,11.81-1.98,17.29-4.92,2.9-1.56,6.42-1.74,8.75-4.72.61-.78,3.07-.12,4.68-.12Z"/>
      <path class="cls-8" d="M195.39,545.91c3.59.66,7.47.67,10.7,2.11,9.14,4.09,18.62,5.76,28.53,5.7,8.36-.05,16.73-.01,25.09-.01-.45,1.42-.69,2.95-1.37,4.25-7.17,13.68-8.84,28.09-4.19,42.69,1.22,3.83.96,9.08,5.56,11.55v1.95c-.65,0-1.4-.22-1.92.03-6.89,3.42-12.33,8.72-17.15,14.48-1.48,1.77-1.72,4.54-4.74,5.05-8.94-7.36-19.15-10.84-30.78-9.82h-5.93c3.36-1.59,4.55-2.15,5.74-2.72,1.62-24.83-2.62-30.51-10.77-41.98-4.78-6.74-11.19-12.71-20.35-14.53,4.36-2.44,8.94-4.19,12.44-7.2,3.67-3.15,8.86-5.54,9.12-11.54Z"/>
      <path class="cls-11" d="M269.47,195c6.9-.31,13.33,2.21,20,3.22,8.78,1.34,17.05,4.28,25.59,6.21,4.04.92,7.22,3.05,10.95,4.21,0,.97-.42,2.38.06,2.86,5.69,5.58,6.14,13.44,7.35,20.28,1.68,9.54-1.69,18.87-7.68,26.77-2.97,3.91-6.76,7.26-7.53,12.48h-7.8c-3.39.1-6.97-.83-9.54,2.15-2.18-1.1-4.05-2.03-5.91-2.97-.12-1.53-.24-3.06-.27-3.49-5.99-3.27-11.23-6.13-16.23-8.87-3.77-.59-7.37-1.15-11.74-1.84-2.64,2.51-6.91,1.09-10.89,1.37-.86-3.17,1.66-4.54,3.39-6.3,9.46-9.6,13.36-21.48,14.13-34.59.44-7.44-2.85-14.28-3.87-21.5Z"/>
      <path class="cls-5" d="M105.72,237.89c4.75-6.26,11.85-9.53,18.34-13.14,10.45-5.81,21.57-10.48,32.58-15.21,4.16-1.79,8.58-3.62,13.41-2.84,0,4.2-.07,8.4.03,12.6.05,2.18-.04,4.5.66,6.5,2.38,6.75,5.08,13.38,7.59,19.89h3.42v3.9c-4.12-.36-8.45-.24-11.38,2.8-4.35,4.51-9.46,8.24-12.69,14.03-1.52,2.72-3.01,6.75-7.12,7.57v4.84c-.53.21-1.46.32-1.53.63-.86,3.67-1.6,7.37-2.37,11.06v1.95c-7.07,1.32-13.26-2.19-19.59-4.15-3.33-1.03-7.41-2.1-9.66-5.6,0-6.34.07-12.68-.09-19.02-.02-.82-1.21-1.62-1.86-2.43.27-4-.07-7.78-2.44-11.3-2.63-3.9-4.89-8.05-7.3-12.1Z"/>
      <path class="cls-13" d="M423.48,306.12c1.33,6.09-1.67,11.69-2.03,17.6-.09,1.38-1.05,2.82-1.89,4.03-8.25,11.81-17.4,22.94-31.34,28.06-13.02,4.78-22.59,7.42-35.94,2.95-3.98,1.39-7.17-1.52-10.78-2.17-3.38-.6-6.45-3.02-9.63-4.64v-2.94c.65-.5,1.59-.87,1.91-1.53,4.91-10.25,9.47-17.07,15.64-21.86l1.95,1.95c2.37,1.85,4.75,3.71,7.13,5.56,3.34-4.89,4.92-12.49,3.56-17.25-.02-.09-.61-.01-.94-.01v-1.95c1.85-.23,4.08.12,5.5-.78,9.02-5.73,18.67-9.07,29.43-8.97,4.55.04,9.11-.25,13.64.08,4.63.33,9.21,1.23,13.81,1.88Z"/>
      <path class="cls-7" d="M149.56,181.03c-2.05-1.17-4.02-2.83-6.28-3.49-8.27-2.41-12.2-8.85-15.4-15.97-6.12-13.6-1.18-27,7.13-35.64,9.49-9.87,28.15-12.41,39.26-4.82,8.89,6.08,16.21,13.99,15.33,26.28-.27,3.86-.04,7.75-.04,10.42-7.79,18.71-21.21,25.94-39.99,23.22Z"/>
      <path class="cls-9" d="M285.07,549.81c2.39-3.42,6.86-2.5,9.92-4.86,3.51-2.7,7.65-4.59,11.52-6.84-.04,3.42-.13,6.78,1.92,9.89,6.49,9.85,12.63,20.05,23.34,26,5.75,3.19,10.67,8.12,17.63,8.95.65.65,1.3,1.3,1.95,1.95-1.36,2.33-2.33,5.05-4.16,6.93-4.18,4.3-5.65,9.36-5.6,15.11.04,4.14,0,8.28,0,12.71-2.81.81-5.62,1.13-7.9,2.39-2.77,1.53-6.76,1.69-7.69,5.74h-1.95c-3.97-5.34-8.41-10.08-14.14-13.73-7.09-4.52-14.61-6.44-22.9-5.77,1.3-3.32,2.26-6.82,3.98-9.9,2.27-4.07,3.1-8.65,3.6-12.91,1.46-12.43-.98-24.42-6.48-35.67h-3.05Z"/>
      <path class="cls-10" d="M187.6,200.85c1.34-.65,2.65-1.8,4.02-1.87,10.82-.58,21.1-5.4,32.15-3.98,8.83-3.82,18.16-.91,27.16-2.07,5.22-.67,9.62,2.57,14.65,2.07-.46.78-.73,1.98-1.4,2.28-6.01,2.67-9.66,7.73-12.85,13.03-6.57,10.91-10.22,22.35-5.27,35.09,1.52,3.91,2.63,7.98,3.93,11.98-1,4.09-5.27,3.81-7.8,5.85-1.83-2.15-3.55-4.4-5.5-6.44-9.65-10.06-21.89-14.11-35.44-15.01.3-3.78-2.13-6.88-2.19-10.84-.14-9.65-2.71-18.75-10.03-25.88-.95-.92-.98-2.79-1.43-4.22Z"/>
      <path class="cls-9" d="M146.66,292.48v-1.95c3.11,0,6.24.13,9.33-.09.83-.06,1.58-1.21,2.36-1.86,6.29,1.01,11.18-2.32,16.05-5.39,8.8-5.53,15.78-12.89,20.99-21.91,4.55,2.92,10.48,2.38,14.82,5.85,5.1-1.32,9.97,3.52,14.39,1.66,4.69-1.97,9.13-1.25,13.68-1.66-6.43,8.95-10.56,18.49-9.96,29.97.24,4.5,1.62,8.51,3.01,12.44.78,2.2.81,4.21,1.1,6.33-4.18,0-9.18-1.44-12.31.37-3.69,2.13-8.17.11-11.23,3.43-.59.64-2.47.09-3.75.09-4.42-4.87-12.52-9.34-18.57-11.8-12.89-5.25-26.23-6.46-39.91-5.75v-9.75Z"/>
      <path class="cls-16" d="M115.41,188.31c.1,9.85,1,19.22-5.75,27.27-4.85,5.78-11.05,9.46-18.01,10.41-14.94,2.03-28.17-4.04-34.03-21.65-4.16-12.49,4.17-30.13,16.72-34.55,13.3-4.68,30.61-3.91,41.07,18.53Z"/>
      <path class="cls-18" d="M280.24,177.46c-30.1-14.43-23.77-42.46-1.77-54.59,2.71,0,5.91-.05,9.11.01,3.51.07,7.22-.43,10.48.54,3.37,1,6.85,2.95,9.29,5.44,2.69,2.74,4.3,6.55,6.31,9.93,5.36,9.06,2.31,21.21-4.41,29.02-1.84,2.14-4.05,4.08-6.39,5.66-2.22,1.5-4.83,2.42-8.04,3.97h-14.58Z"/>
      <path class="cls-10" d="M314.31,664.82c-1.21,1.3-2.29,3.58-3.65,3.75-11.56,1.45-22.47,6.64-34.37,6-8.54,3.72-17.55,1.24-26.32,1.95.05-4.05,3.16-7.52,2-11.87-1.11-4.15-1.81-8.4-2.8-13.19-2.13-4.23-4.56-9.08-6.99-13.93,5.75-.46,14.55-4.41,19.66-6.62,3.39-1.46,5.07-6.04,9.58-5.08.45,1.43.45,3.48,1.42,4.18,9.27,6.65,19.28,11.49,31.06,11.42,2.9-.02,5.81-.05,8.71.04.53.02,1.06.53,2.05,1.07-.67,1.29-1.34,2.58-2.3,4.42,0,2.55-.25,5.8.07,8.99.31,2.99,1.23,5.92,1.88,8.88Z"/>
      <path class="cls-7" d="M99.87,409.44c5.92-6.39,7.69-14.61,9.67-22.65,1.1-4.48,1.94-9.18,1.88-13.76-.06-5.21-1.26-10.41-1.95-15.51-1.32-.49-2.45-.91-3.66-1.36.44-.5.77-1.23,1.12-1.24,6.59-.21,13.13.29,19.69-1.77,3.26-1.02,6.19-2.07,9.16-3.82,9.05-5.32,16.61-12.22,21.36-23.97,1.82,1.88,4.33,3.3,4.93,5.29,1.57,5.25,5.74,5.77,9.92,6.68-3,4.48-7.55,7.3-11.34,10.87-6.76,6.37-12.52,14-17.77,21.72-6.61,9.73-11.81,20.35-14.73,31.83-1.2,4.72-3.13,9.29-3.03,14.38.11,4.97-3.12,9.6-1.87,14.77-2.36-2.03-4.41-4.87-7.15-5.88-3.14-1.16-.95-5.44-5.04-6.14-2.6-.44-4.54-4.15-7.02-6.08-1.09-.85-2.78-.95-4.19-1.39v-1.95Z"/>
      <path class="cls-10" d="M318.21,271.03c.77-5.22,4.56-8.57,7.53-12.48,6-7.9,9.37-17.23,7.68-26.77-1.21-6.84-1.67-14.69-7.35-20.28-.49-.48-.06-1.88-.06-2.86,2.94.66,6.49.49,8.7,2.13,7.79,5.8,18.06,6.36,25.52,13.16,4.24,3.86,10.47,5.5,15.66,8.39,1.21.68,1.86,2.38,2.76,3.61-1.3,1.21-3.19,2.19-3.79,3.68-2.28,5.67-4.24,11.49-4,17.76-2.11,1.13-4.12,2.51-6.34,3.36-9.64,3.67-15.9,10.72-19.71,19.35-8.3-5.28-16.44-9.91-26.58-9.07Z"/>
      <path class="cls-4" d="M285.07,549.81h3.05c5.5,11.25,7.93,23.24,6.48,35.67-.5,4.27-1.33,8.84-3.6,12.91-1.72,3.08-2.68,6.59-3.98,9.9-1.3.65-2.6,1.3-3.9,1.95,0-.31.08-.88-.01-.91-4.72-1.49-9.33-1.8-14.09.27-2.92,1.27-6.18,1.75-9.29,2.59-4.6-2.46-4.34-7.72-5.56-11.55-4.65-14.6-2.98-29.01,4.19-42.69.68-1.3.92-2.83,1.37-4.25,3.74.23,7.2-.76,10.8-1.76,3.44-.96,7.37.32,10.76-2.05.86-.6,2.5-.09,3.79-.09Z"/>
      <path class="cls-1" d="M66.73,319.77c-11.77-.63-19.4-3.32-29.24-11.7.8-3.26,4.58-8.92,7.8-11.7,7.38-.92,13.93,3.99,21.21,3.77.62-7.89,2.24-14.61,7.56-19.95,1.04-1.04,1.46-2.69,2.44-3.81,5.78-6.58,11.94-12.58,21.42-13.16h1.95c1.49,3.77,3.8,6.9,6.72,9.74,3.14,3.06,5.93,6.49,8.87,9.75-.65,2.6-.81,5.47-2.04,7.76-3.57,6.6-6.74,13.45-13.65,17.71-3.92,2.41-8.31,4.25-11.6,7.67h-1.95c-4.98-6.29-11.84-9.91-19.49-13.61v17.51Z"/>
      <path class="cls-9" d="M349.4,325.62c-6.17,4.79-10.73,11.62-15.64,21.86-.32.66-1.26,1.03-1.91,1.53-3.91-.15-7.05-1.94-9.61-4.75-6.31-6.93-15.52-9.91-22.2-16.33-1.45-1.4-4.78,1.4-5.23-2.31,0-.65-.24-1.43.04-1.92,3.14-5.5,6.36-10.96,9.44-16.22.27-3.05-.24-6.26.97-8.58,1.36-2.61,1.26-4.26.12-6.81-.97-2.16-.6-4.92-.82-7.42.78.45,1.7.77,2.32,1.38,9.62,9.53,20.97,14.8,34.72,14.21-.86,6.41,1.49,12.12,3.9,17.81,1.09,2.57,2.86,4.09,5.84,3.64v3.9h-1.95Z"/>
      <path class="cls-4" d="M195.39,545.91c-.26,6-5.45,8.39-9.12,11.54-3.5,3.01-8.09,4.76-12.44,7.2,9.16,1.82,15.57,7.8,20.35,14.53,8.15,11.48,12.39,17.15,10.77,41.98-1.19.56-2.38,1.13-5.74,2.72h5.93c-.74,1.92,1.81,4.93-1.95,5.85-4.61.38-7.4-3.4-10.16-5.69-10.16-8.46-16.2-19.43-19.44-32.6-2.11-8.6-.43-16.99-2.02-26.2-10.72,3.35-21.75,1.79-32.71,2.11-.65-.65-1.3-1.3-1.95-1.95h-3.36c-.19-1.01-.4-2.11-.84-4.45,2.45.94,3.94,1.52,5.59,2.15.3-.86.7-1.98,1.25-3.56,5.56,0,11.31-.29,17.02.08,5.51.36,10.98,1.4,16.37,2.12,1.91-4.47,1.96-9.13,4.8-12.95,2.27-3.06,2.31-6.94,2.07-10.7.65,0,1.42-.23,1.92.04,2.39,1.28,5.72,2.15,6.82,4.18,1.72,3.2,6.29-.6,6.86,3.57Z"/>
      <path class="cls-6" d="M304.56,284.68c.22,2.5-.15,5.26.82,7.42,1.14,2.55,1.24,4.19-.12,6.81-1.21,2.32-.7,5.53-.97,8.58-3.08,5.26-6.3,10.71-9.44,16.22-.28.49-.04,1.27-.04,1.92-1.29,0-2.77.42-3.83-.07-6.03-2.77-11.92-5.75-18.77-6.14-.98-.06-1.83-2.3-2.74-3.54.29-15.34,8.55-26.49,19.54-35.99-4.64-3.89-9.8-2.86-13.38-2.97-5.2-2.42-9.65-3.78-13.23-6.37-3.93-2.83-7.04-6.79-10.09-9.84.79-1.69,1.17-2.5,1.56-3.32h1.95c3.98-.28,8.25,1.14,10.89-1.37,4.37.68,7.97,1.25,11.74,1.84,5.01,2.74,10.25,5.6,16.23,8.87.03.43.15,1.96.27,3.49,1.87.94,3.73,1.88,5.91,2.97,2.56-2.97,6.15-2.05,9.54-2.15-1.92,4.08-6.66,2.83-9.75,4.87.43.43.81.63.87.9.4,1.78.58,3.63,1.15,5.36.31.95,1.24,1.69,1.89,2.52Z"/>
      <path class="cls-4" d="M349.4,582.95c-6.96-.83-11.88-5.76-17.63-8.95-10.72-5.95-16.86-16.15-23.34-26-2.05-3.11-1.96-6.46-1.92-9.89,3.48-3.23,7.22-6.07,11.7-7.8,4.11-.35,7.81.53,11.51,2.61,6.69,3.76,13.39,7.15,18.92,12.9,5.92,6.17,9.77,13.13,12.54,21.01.78,2.23,2.5,4.12,4.05,6.57-.59.81-1.3,1.78-1.76,2.42.53,3.82,1.03,7.42,1.53,11.03-4.55-.65-9.1-1.3-13.65-1.95-.65-.65-1.3-1.3-1.95-1.95Z"/>
      <path class="cls-9" d="M423.48,306.12c-4.6-.65-9.19-1.55-13.81-1.88-4.52-.32-9.09-.04-13.64-.08-10.76-.1-20.42,3.24-29.43,8.97-1.42.91-3.65.55-5.5.78,0-2.89.31-5.82-.09-8.65-.37-2.63-1.5-5.16-2.26-7.6,4.59-2.54,9.25-4.26,12.8-7.28,5.34-4.54,11.67-8.9,10.99-17.41h1.95c5.23,6.3,12.36,3.05,17.64,3.85,3.32-1.58,5.72-2.7,8.11-3.86,2.44-1.18,3.97-2.92,3.49-5.85h3.5c2.4,6.41,5.28,12.91,7.25,19.68,1.84,6.3,1.67,12.88-.09,19.3-.02.08-.6.01-.92.01Z"/>
      <path class="cls-1" d="M283.12,610.24c1.3-.65,2.6-1.3,3.9-1.95,8.29-.68,15.81,1.25,22.9,5.77,5.73,3.65,10.17,8.39,14.14,13.73-1.99,4.69-8.7,6.99-7.26,13.96,4.66-1.5,8.88-2.86,13.1-4.22.65.48,1.64.82,1.9,1.45,2.32,5.78,2.93,11.96,3.95,18.04-1.86,1.3-3.61,3.48-5.6,3.73-5.5.68-9.81,5.79-15.84,4.07-.65-2.96-1.57-5.89-1.88-8.88-.33-3.19-.07-6.44-.07-8.99.95-1.83,1.63-3.13,2.3-4.42-.99-.54-1.51-1.05-2.05-1.07-2.9-.08-5.81-.05-8.71-.04-11.78.07-21.79-4.76-31.06-11.42-.97-.7-.97-2.75-1.42-4.18v-1.95c5.35-3.3,9.35-7.76,11.7-13.65Z"/>
      <path class="cls-18" d="M175.9,666.77v-2.92c10.37-5.64,15.36-9.92,21.32-20.06,2.25-3.83,6.33-6.94,5.97-12.11.64,0,1.38-.21,1.91.03,9.31,4.22,18.91,6.96,29.28,5.82-.52,2.69.43,5.34-1.1,8.24-1.76,3.35-3.63,8.19-2.45,11.2,2.59,6.6.86,13.09,1.6,19.55-4.22-.65-8.42-1.45-12.66-1.91-4.26-.46-8.8,1.08-12.65-1.99-8.08.42-15.62-2.42-23.38-3.92-2.64-.51-5.23-1.28-7.85-1.93Z"/>
      <path class="cls-16" d="M236.04,86.24c17.96-4.19,21.03-4,33.41,10.37v16.72c-2.82,6.21-6.56,10.66-13.76,13.27h-15c-3.43-2.79-7.55-6.13-10.97-8.91-2.99-6.1-3.59-11.6-3.01-17.75,3.06-4.49,6.36-9.33,9.33-13.7Z"/>
      <path class="cls-7" d="M466,527.48c-2.86,6.24-7.76,10.89-14.58,14.38h-13.08c-11.61-5.64-17.36-14.68-14.49-28.21,2.86-6.24,7.76-10.89,14.58-14.38h13.08c11.61,5.64,17.36,14.68,14.49,28.21Z"/>
      <path class="cls-16" d="M447.24,369.16c12.36-13.39,12.57-10.33,27.1-10.21,3.46,3.04,7.47,6.56,11.14,9.8.85,3.76,2.16,7.02,2.17,10.28,0,3.28-1.28,6.56-1.94,9.6-6.35,9.64-15.18,13.17-26.95,10.44-4.32-3.19-9.49-6.04-12.18-12.54-2.56-6.19-.87-11.35.66-17.36Z"/>
      <path class="cls-9" d="M365,586.85c7.11,0,14.22.14,21.31-.09,2.01-.07,3.99-1.21,5.98-1.86-.65,2.91-1.87,5.83-1.84,8.73.08,8.57,1.06,16.98,7.63,23.55.48.48.06,1.85.06,2.8-1.85,5.5-7.94,6.26-11.38,10.14-2.7,3.05-6.66,4.98-10.07,7.41.07-3.66-1.56-7.13-4.22-8.82-6.02-3.82-11.71-8.55-19.44-9.39,5.2-5.25,6.05-12.34,10.01-18.28,0-2.07-.25-4.69.07-7.22.3-2.37,1.23-4.65,1.88-6.98Z"/>
      <path class="cls-1" d="M365,586.85c-.65,2.32-1.57,4.61-1.88,6.98-.33,2.54-.07,5.15-.07,7.22-3.95,5.94-4.81,13.03-10.01,18.28,7.72.84,13.41,5.57,19.44,9.39,2.66,1.69,4.29,5.16,4.22,8.82-2.29,1.32-5.01,2.22-6.76,4.05-2.14,2.24-4.48,1.68-6.88,1.8-4.51-4-10.65-5.95-14.15-11.22-1.06-1.6-2.09-3.21-3.41-5.24-4.84,4.7-8.79,9.45-15.58,8.67-2.55-1.97-4.05-4.47-3.9-7.8.93-4.05,4.92-4.21,7.69-5.74,2.28-1.27,5.09-1.59,7.9-2.39,0-4.43.03-8.57,0-12.71-.06-5.76,1.42-10.82,5.6-15.11,1.83-1.88,2.8-4.59,4.16-6.93,4.55.65,9.1,1.3,13.65,1.95Z"/>
      <path class="cls-7" d="M253.88,257.39c-.38.81-.76,1.63-1.56,3.32,3.04,3.04,6.16,7,10.09,9.84,3.58,2.58,8.03,3.94,13.23,6.37,3.58.1,8.74-.92,13.38,2.97-10.99,9.51-19.25,20.65-19.54,35.99-3.54,0-7.11.25-10.63-.08-2.99-.28-5.91-1.22-8.87-1.87.65-3.6,1.59-7.18,1.87-10.8.33-4.16.1-8.37.07-12.57-.02-3.4-.06-6.6-1.78-9.91-2.04-3.92-2.7-8.53-4.37-12.68-.49-1.21-2.35-1.87-3.59-2.78v-1.95c2.53-2.04,6.8-1.76,7.8-5.85h3.9Z"/>
      <path class="cls-7" d="M418.56,493.27c-5.32,0-10.19,0-15.06,0-4.19-3.73-10.42-5.55-11.27-12.42-.33-2.69-2.49-5.81-1.66-7.87,2.48-6.18,4.1-13.21,10.92-16.45,6.18-3.07,12.46-3.07,18.74-.06,4.08,2.8,6.49,7.08,9.28,11.25,3.7,5.52.47,10.15-.5,14.97-1.06,5.24-6.83,6.67-10.45,10.58Z"/>
      <path class="cls-1" d="M253.88,257.39h-3.9c-1.3-4-2.41-8.07-3.93-11.98-4.94-12.74-1.3-24.18,5.27-35.09,3.2-5.3,6.84-10.36,12.85-13.03.67-.3.94-1.5,1.4-2.28h3.9c1.02,7.22,4.31,14.05,3.87,21.5-.77,13.11-4.67,24.99-14.13,34.59-1.73,1.75-4.25,3.13-3.39,6.3h-1.95Z"/>
      <path class="cls-4" d="M133.01,483.52c-.37,14.94-6.77,27.03-17.55,37.04-.94,0-2.33.4-2.75-.06-3.52-3.9-8.5-5.27-12.84-7.73-.62-18.55,8.38-32.39,21.71-44.02,1.51-1.32,3.7-1.86,5.58-2.76,1.6,5.97,6.07,10.97,5.85,17.55Z"/>
      <path class="cls-16" d="M429.33,205.92v12.09c-3.47,8.93-10.39,13.5-18.32,13.65-8.03.15-15.13-4.22-18.72-12.37v-13.57c6.1-9.54,11.84-12.71,22.6-12.5q10.46,6.06,14.44,12.68Z"/>
      <path class="cls-6" d="M187.6,200.85c.45,1.43.48,3.3,1.43,4.22,7.31,7.13,9.89,16.24,10.03,25.88.06,3.96,2.49,7.05,2.19,10.84-.65.65-1.3,1.3-1.95,1.95-6.07-1.32-11.65,1.76-17.55,1.95h-3.42c-2.51-6.51-5.22-13.14-7.59-19.89-.7-2-.61-4.32-.66-6.5-.09-4.2-.03-8.4-.03-12.6,4.94-4.69,11.01-5.95,17.55-5.85Z"/>
      <path class="cls-7" d="M408.04,428.77c-1.84-15.82,3.09-25.21,24.22-23.22,10.53,6.72,10.84,7.38,10.58,22.98-2.5,3.14-5.22,6.55-7.66,9.62q-10.05,2.16-19.01.37c-2.57-3.09-5.55-6.66-8.13-9.75Z"/>
      <path class="cls-14" d="M491.71,457.98c-3.07,3.57-6.54,7.6-10.04,11.67h-14.61c-9.88-6.05-10.44-7.22-10.44-21.57,2.66-5.8,6.45-10.51,14.5-13.43,2.62.47,7.13,1.29,12.35,2.23,2.61,3.17,5.57,6.77,8.24,10.02v11.09Z"/>
      <path class="cls-4" d="M99.87,411.39c1.42.44,3.1.54,4.19,1.39,2.48,1.94,4.42,5.64,7.02,6.08,4.09.7,1.9,4.97,5.04,6.14,2.73,1.01,4.79,3.85,7.15,5.88,0,5.17,0,10.34,0,15.5,0,4.04,3.3,7.53,1.95,11.79-6.64,1.19-10.46-4.22-15.41-6.81-9.33-4.88-14.98-13.76-21.57-21.55-.47-.56-.06-1.87-.06-2.83v-1.95c2.02-2.34,4.04-4.68,6.05-7.03,1.89-2.2,3.77-4.41,5.65-6.62Z"/>
      <path class="cls-6" d="M242.18,265.18c1.23.91,3.1,1.57,3.59,2.78,1.66,4.15,2.33,8.76,4.37,12.68,1.72,3.31,1.76,6.52,1.78,9.91.03,4.19.26,8.4-.07,12.57-.29,3.63-1.22,7.2-1.87,10.8-.8.65-1.59,1.83-2.41,1.86-5.04.17-10.09.09-15.14.09-.29-2.11-.32-4.12-1.1-6.33-1.39-3.93-2.77-7.95-3.01-12.44-.61-11.48,3.53-21.02,9.96-29.97l1.95-1.95h1.95Z"/>
      <path class="cls-14" d="M469.25,265.14c2.86,2.86,5.61,5.61,8.35,8.35,1.07,5.2,5.35,10.3.81,16.09-3.56,2.98-7.12,5.97-10.35,8.68h-12.07c-1.99-1.5-3.93-2.95-6.92-5.2-.84-1.65-2.35-4.59-4.12-8.07-1.19-5.99,1.59-11.79,5.6-16.33,4.95-5.61,12.36-3.06,18.7-3.52Z"/>
      <path class="cls-13" d="M413.73,267.13c.48,2.93-1.05,4.67-3.49,5.85-2.39,1.15-4.79,2.28-8.11,3.86-5.29-.8-12.41,2.44-17.64-3.85.23-1.2.37-2.43.7-3.6,1.26-4.54,4.78-8.69,2.25-14.4-4.9.81-9.77,1.61-14.65,2.41h-1.95c-.24-6.27,1.72-12.09,4-17.76.6-1.49,2.49-2.47,3.79-3.68,4.21.77,7.94,1.61,9.93,6.51,1.65,4.06,6.01,5.89,10.25,7.16,2.77,4.84,6.26,9.04,11.34,11.65,2.44,1.25,4.02,2.91,3.56,5.86Z"/>
      <path class="cls-16" d="M187.6,98.78c5.31-6.91,11.76-10.81,22.37-8.28,2.23,2.24,5.63,5.65,8.65,8.68v12.83c-2.02,6.72-7.63,9.64-14.22,10.78-7.59,1.32-12.29-3.67-16.8-8.88v-15.13Z"/>
      <path class="cls-18" d="M97.92,263.23c-9.48.57-15.64,6.58-21.42,13.16-.98,1.12-1.4,2.76-2.44,3.81-5.33,5.34-6.95,12.06-7.56,19.95-7.29.22-13.83-4.69-21.21-3.77,4.51-6.01,8.86-12.11,14.32-17.39,4.04-3.91,7.26-8.65,11.07-12.81,6.4-7,13.39-13.37,21.4-18.53.65,1,1.92,2.04,1.84,2.98-.35,4.04.71,7.27,3.94,9.85.46.37.06,1.82.06,2.76Z"/>
      <path class="cls-12" d="M355.25,144.62v9.5c-3.16,3.14-6.1,6.07-9.56,9.51q-14.13.41-19.55-8.54v-14.09c2.39-1.81,5.31-4.01,8.27-6.25h12.46c2.48,2.93,5.46,6.45,8.37,9.88Z"/>
      <path class="cls-1" d="M232.43,676.52c-.74-6.46.98-12.95-1.6-19.55-1.18-3.01.7-7.85,2.45-11.2,1.52-2.9.57-5.54,1.1-8.24h7.8c2.43,4.85,4.87,9.69,6.99,13.93,1,4.79,1.7,9.05,2.8,13.19,1.16,4.35-1.95,7.82-2,11.87h-17.55Z"/>
      <path class="cls-14" d="M268.46,70.24h-11.95c-2.66-3.15-5.63-6.68-8.36-9.92v-7.74c4.02-8.97,11.02-11.25,20.49-9.13,12.49,9.46,10.82,17.37-.17,26.78Z"/>
      <path class="cls-7" d="M365,160.55c.06-4.31-.58-9.02,1.95-13.34,2.64-4.51,7.69-4.7,11.6-6.75,2.3.85,4.54,1.67,7.66,2.82,1.53,1.48,3.83,3.71,6.08,5.88v12.56c-2.49,2.48-5.4,5.4-7.94,7.93h-10.59c-2.82-2.93-5.71-5.93-8.76-9.11Z"/>
      <path class="cls-12" d="M425.43,569.3c.8,9.69-.39,19.05-5.94,27.24-2.83,4.17-4.35,9.57-9.66,11.75-3.36-3.69-2.26-8.84-4.66-13.44-2.26-2.26-5.1-4.85-7.6-7.73-.89-1.02-.95-2.76-1.39-4.18,1.62,0,3.52.56,4.8-.1,4.81-2.48,9.23-5.8,14.17-7.94,3.64-1.58,5.67-5.99,10.27-5.61Z"/>
      <path class="cls-18" d="M329.91,635.58c6.8.79,10.75-3.97,15.58-8.67,1.32,2.03,2.36,3.64,3.41,5.24,3.49,5.28,9.64,7.22,14.15,11.22-6.29,5.45-14.38,7.58-21.43,11.64-1.76,1.01-3.9,1.35-5.86,2-1.02-6.08-1.63-12.26-3.95-18.04-.25-.64-1.25-.98-1.9-1.45v-1.95Z"/>
      <path class="cls-14" d="M142.55,183.29c2.9,3.94,5.79,7.86,8.4,11.4-1.66,7.91-6.12,11.94-12.66,13.98-9.83-3.59-14.15-8.64-13.09-15.26,1.11-6.91,5.98-9.97,17.34-10.12Z"/>
      <path class="cls-14" d="M92.12,149.21c-.15-6.06-.65-11.49,4.05-15.79,2.31-.76,4.86-1.59,7.74-2.54,4.01,1.96,10.39,1.46,11.46,8.38v9.75c-6.67,9.12-15.75,9.4-23.25.2Z"/>
      <path class="cls-6" d="M396.19,582.95c.44,1.41.5,3.15,1.39,4.18,2.5,2.88,5.34,5.47,7.6,7.73,2.4,4.6,1.3,9.74,4.66,13.44.88,3.62-2.12,5.08-4.1,6.91-2.19,2.03-3.55,5.64-7.6,4.78,0-.95.41-2.32-.06-2.8-6.57-6.58-7.55-14.98-7.63-23.55-.03-2.91,1.19-5.82,1.84-8.73.65-.65,1.3-1.3,1.95-1.95h1.95Z"/>
      <path class="cls-6" d="M97.92,263.23c0-.95.4-2.4-.06-2.76-3.23-2.59-4.29-5.82-3.94-9.85.08-.93-1.19-1.98-1.84-2.98,2.99-5.43,7.99-8.05,13.65-9.75,2.42,4.04,4.67,8.2,7.3,12.1,2.37,3.52,2.71,7.3,2.44,11.3-2.89,0-5.84.33-8.67-.09-2.79-.42-4.73,1.02-6.93,2.04h-1.95Z"/>
      <path class="cls-14" d="M298.72,94.6c-1.61,1.61-3.21,3.21-4.85,4.85h-11.66c-8.09-10.26-6.5-16.26,6.62-21.81,3.09,2.04,6.65,4.38,9.88,6.51,0,3.96,0,7.2,0,10.45Z"/>
      <path class="cls-14" d="M457.25,329.17c-.67-2.29-1.34-4.59-2.41-8.23,1.42-2.18,3.57-5.51,5.67-8.75h11.02c1.08,1.29,2.69,3.22,4.49,5.38v11.08c-10,6.81-9.91,6.37-18.78.52Z"/>
      <path class="cls-12" d="M214.28,173.19c-1.46,1.46-3.52,3.52-5.9,5.9h-8.2c-2.16-2.07-4.49-4.3-6.71-6.44v-7.54c2.42-2.56,4.63-4.9,7.24-7.67,3.72.75,7.62,1.53,11.15,2.24,2.83,4.24,3.95,8.35,2.41,13.52Z"/>
      <path class="cls-14" d="M365.29,200.76h-7.27c-1.91-2.12-4.07-4.51-6.6-7.32v-7.34c2.15-1.97,4.52-4.14,7.68-7.04,2.99.56,6.9,1.29,11.35,2.12,1.01,4.13,2.02,8.24,3.02,12.32-2.87,2.55-5.27,4.68-8.17,7.26Z"/>
      <path class="cls-14" d="M335.76,116.05c-2.06,2.06-4.12,4.12-6.56,6.56-3.97.76-8.18.7-12.97-3.01-1.86-2.55-2.32-6.81-1.8-11.48,2.14-2.08,4.47-4.32,6.84-6.63,6.25-1.03,10.56,2.47,14.48,6.8,0,2.59,0,5.18,0,7.77Z"/>
      <path class="cls-14" d="M364.11,116.93h-7.98c-2.15-2.15-4.2-4.2-6.5-6.5v-8.27c2-2,4.06-4.06,6.35-6.35h8.27c2,2,4.06,4.06,6.35,6.35v8.27c-2,2-4.06,4.06-6.5,6.5Z"/>
      <path class="cls-12" d="M212.53,76.74c-10.01-5.13-10.83-6.31-11.31-15.33,2.23-2.05,4.61-4.22,7.33-6.72h9.42c1.3,1.46,2.8,3.14,4.61,5.18v10.04c-2.97,2.02-6.46,4.39-10.05,6.83Z"/>
      <path class="cls-14" d="M468.35,498.59c2.48-2.67,4.67-5.04,6.68-7.21h9.74c1.79,1.71,3.42,3.27,4.98,4.75v10.55c-3.25,2.12-6.8,4.45-9.84,6.43-8.63-2.28-12.37-7.02-11.56-14.52Z"/>
      <path class="cls-4" d="M396.19,582.95h-1.95c.58-7.85,6.58-12.27,11.85-16.31,5.41-4.15,12.01-7.15,19.34-7.08v9.75c-4.61-.38-6.63,4.03-10.27,5.61-4.94,2.14-9.36,5.46-14.17,7.94-1.28.66-3.18.1-4.8.1Z"/>
      <path class="cls-12" d="M304.59,24.07c0,.09-.03-.23-.03-.54,0-2.27,0-4.54,0-6.95,1.57-1.5,3.21-3.06,5-4.77h9.8c1.3,1.49,2.78,3.19,4.61,5.28v7.47c-2.13,1.94-4.52,4.12-7.27,6.62h-5.41c-2.06-2.19-4.27-4.54-6.69-7.12Z"/>
      <path class="cls-14" d="M220.06,148.4c-2.54-2.5-4.85-4.76-7.6-7.46.79-2.99,1.64-6.23,2.61-9.92,3.31-.94,6.79-1.93,10.59-3.01,2.59,3.64,4.89,6.88,7.04,9.92q-4.51,8.32-12.65,10.47Z"/>
      <path class="cls-14" d="M482.06,410.91v-6.43c1.46-1.46,2.83-2.83,4.37-4.37,4.61-1.48,8.88-.07,13.02,2.43v12.45c-3.78.93-7.83,1.93-12.33,3.04-1.51-2.12-2.81-3.94-5.07-7.12Z"/>
      <path class="cls-16" d="M333.47,89.09c-1.66,1.66-3.02,3.02-4.46,4.46h-8.09c-1.15-1.38-2.57-3.1-4.5-5.41v-7.57c1.17-.83,2.98-2.13,5.93-4.24h6.83c1.24,1.24,2.6,2.6,4.29,4.29v8.46Z"/>
      <path class="cls-14" d="M301.64,56.59c-1.37-1.37-2.05-2.05-2.83-2.83v-9.81c.67-.71,1.53-1.63,2.56-2.74h8.5c.73,1.08,1.99,2.94,4.17,6.18,0-.19,0,1.67,0,4.61-1.28.91-3.35,2.37-6.5,4.6h-5.91Z"/>
      <path class="cls-11" d="M354.28,62.44c1.59,1.59,3.17,3.17,4.82,4.82v6.08c-1.43,1.24-3.11,2.69-5.23,4.53h-5.6c-1.53-1.53-2.89-2.89-4.48-4.48v-6.34c1.32-.98,3.34-2.47,6.21-4.61.44,0,2.36,0,4.28,0Z"/>
      <path class="cls-12" d="M336.11,42.6c-3.03-4-3.75-7.59.47-11.18h8.16c1.03,1.08,1.91,2,3.15,3.31-.86,2.42-1.77,4.97-2.81,7.87h-8.97Z"/>
      <path class="cls-16" d="M357.37,5.33c-1,2.21-1.86,4.11-2.81,6.22h-8.28c-.93-1.91-1.84-3.79-2.8-5.77,1.9-1.92,3.81-3.86,5.62-5.69,4.6-.7,5.91,3.05,8.28,5.24Z"/>
      <path class="cls-10" d="M21.89,534.21c.65.65,1.3,1.3,1.95,1.95-.65-.65-1.3-1.3-1.95-1.95Z"/>
      <path class="cls-15" d="M99.87,512.77c4.34,2.46,9.33,3.83,12.84,7.73.42.47,1.81.06,2.75.06-2.17,3.67-4.86,6.66-9.05,8.24-1.15.43-1.78,2.27-2.64,3.46-3.24-3.35-2.52-8-3.77-11.99-.72-2.29-.13-4.99-.13-7.5Z"/>
      <path class="cls-10" d="M88.17,315.87c3.28-3.42,7.68-5.26,11.6-7.67,6.92-4.26,10.08-11.12,13.65-17.71,1.24-2.28,1.39-5.16,2.04-7.76h1.95c2.25,3.5,6.33,4.57,9.66,5.6,6.33,1.96,12.51,5.47,19.59,4.15v9.75c-1.68.65-3.34,1.81-5.04,1.86-9.44.3-17.68,4.45-25.64,8.65-5.95,3.13-10.92,8.12-16.44,12.14-.9.65-2.36.52-3.57.75-2.6-3.25-5.2-6.5-7.8-9.75Z"/>
      <path class="cls-11" d="M88.17,315.87c2.6,3.25,5.2,6.5,7.8,9.75,0,.64.26,1.45-.04,1.88-4.49,6.55-9.06,13.05-13.61,19.56-.6-4.88-3.97-8.16-6.85-11.69-3.75-4.58-6.97-9.34-6.79-15.6,6.2.27,11.53-3.37,17.55-3.9h1.95Z"/>
      <path class="cls-15" d="M99.87,411.39c-1.88,2.21-3.76,4.42-5.65,6.62-2.01,2.35-4.03,4.68-6.05,7.03h-3.4c-2.83-7.31-5.72-14.8-8.73-22.57,4.96-2.42,8.3,1.67,12.27,2.28,4.19.65,6.94,5,11.56,4.7v1.95Z"/>
      <path class="cls-6" d="M86.22,315.87c-6.02.53-11.35,4.17-17.55,3.9h-1.95v-17.51c7.66,3.7,14.52,7.32,19.49,13.61Z"/>
      <path class="cls-6" d="M242.18,637.53h-7.8c-10.38,1.15-19.97-1.6-29.28-5.82-.53-.24-1.27-.03-1.91-.03v-1.95c3.76-.91,1.21-3.93,1.95-5.85,11.63-1.02,21.84,2.47,30.78,9.82,3.02-.51,3.26-3.28,4.74-5.05,4.81-5.77,10.25-11.07,17.15-14.48.52-.26,1.28-.03,1.92-.03.65.48,1.53.82,1.91,1.46,2.32,3.91,4.42,8.01,9.79,8.29v1.95c-4.51-.96-6.19,3.62-9.58,5.08-5.11,2.21-13.91,6.16-19.66,6.62Z"/>
      <path class="cls-5" d="M136.91,565.4c.65.65,1.3,1.3,1.95,1.95-.65-.65-1.3-1.3-1.95-1.95Z"/>
      <path class="cls-15" d="M271.42,623.89c-5.37-.28-7.47-4.38-9.79-8.29-.38-.64-1.26-.98-1.91-1.46v-1.95c3.11-.84,6.37-1.32,9.29-2.59,4.76-2.07,9.37-1.76,14.09-.27.09.03.01.59.01.91-2.34,5.88-6.35,10.34-11.7,13.65Z"/>
      <path class="cls-1" d="M370.85,257.39h1.95v4.4c3.34,3.83,6.54,7.51,9.75,11.19.68,8.51-5.65,12.87-10.99,17.41-3.56,3.02-8.22,4.74-12.8,7.28.76,2.44,1.88,4.97,2.26,7.6.4,2.83.09,5.76.09,8.65v1.95c-1.64,1.31-3.5,2.44-4.86,4-1.4,1.61-2.94,2.09-4.89,1.85-2.99.46-4.75-1.07-5.84-3.64-2.42-5.69-4.77-11.4-4.25-17.43,5.53-.69,10.59-1.61,15.78-2.55.08-1.62.14-2.85.24-4.73-4.32-3.13-7.02-8.73-13.21-10.97-1.08,6.38-2.05,12.07-2.81,18.25-13.41.21-24.75-5.07-34.38-14.59-.62-.61-1.54-.93-2.32-1.38-.65-.83-1.58-1.58-1.89-2.52-.57-1.72-.75-3.57-1.15-5.36-.06-.27-.43-.46-.87-.9,3.09-2.04,7.84-.79,9.75-4.87h7.8c10.14-.84,18.29,3.78,26.58,9.07,3.81-8.63,10.07-15.68,19.71-19.35,2.22-.84,4.23-2.23,6.34-3.36Z"/>
      <path class="cls-6" d="M195.39,261.29c-5.2,9.02-12.19,16.37-20.99,21.91-4.87,3.06-9.76,6.4-16.05,5.39-.65-.8-1.27-1.62-1.95-2.38-2.09-2.34-1.88-6.51-5.84-7.37v-4.84c4.12-.83,5.6-4.85,7.12-7.57,3.23-5.78,8.35-9.51,12.69-14.03,2.93-3.04,7.26-3.16,11.38-2.8,2.81,4.57,7.93,6.36,11.76,9.71.36.32,1.24.04,1.88.04v1.95Z"/>
      <path class="cls-4" d="M117.41,282.73h-1.95c-2.94-3.27-5.73-6.7-8.87-9.75-2.92-2.84-5.24-5.97-6.72-9.74,2.2-1.03,4.14-2.46,6.93-2.04,2.83.42,5.78.09,8.67.09.65.81,1.84,1.6,1.86,2.43.16,6.34.09,12.68.09,19.02Z"/>
      <path class="cls-4" d="M195.39,259.34c-.64,0-1.52.28-1.88-.04-3.83-3.35-8.95-5.14-11.76-9.71v-3.9c5.9-.19,11.48-3.27,17.55-1.95-1.3,5.2-2.6,10.4-3.9,15.6Z"/>
      <path class="cls-15" d="M150.56,278.83c3.96.85,3.75,5.02,5.84,7.37.68.77,1.3,1.59,1.95,2.38-.79.65-1.54,1.8-2.36,1.86-3.1.22-6.22.09-9.33.09.77-3.69,1.5-7.39,2.37-11.06.07-.31,1-.43,1.53-.63Z"/>
      <path class="cls-4" d="M351.35,321.72c1.95.24,3.49-.24,4.89-1.85,1.36-1.56,3.22-2.68,4.86-4,.32,0,.91-.08.94.01,1.36,4.76-.21,12.36-3.56,17.25-2.38-1.86-4.75-3.71-7.13-5.56v-5.85Z"/>
      <path class="cls-1" d="M351.35,325.62v1.95l-1.95-1.95h1.95Z"/>
      <path class="cls-6" d="M329.91,635.58v1.95c-4.22,1.36-8.44,2.72-13.1,4.22-1.45-6.98,5.27-9.28,7.26-13.96h1.95c-.15,3.33,1.35,5.82,3.9,7.8Z"/>
      <path class="cls-1" d="M349.4,582.95c.65.65,1.3,1.3,1.95,1.95-.65-.65-1.3-1.3-1.95-1.95Z"/>
      <path class="cls-1" d="M195.39,259.34c1.3-5.2,2.6-10.4,3.9-15.6.65-.65,1.3-1.3,1.95-1.95,13.55.9,25.79,4.94,35.44,15.01,1.95,2.03,3.67,4.28,5.5,6.44v1.95h-1.95l-1.95,1.95c-4.55.41-8.99-.31-13.68,1.66-4.42,1.86-9.29-2.98-14.39-1.66-4.34-3.47-10.26-2.93-14.82-5.85v-1.95Z"/>
      <path class="cls-4" d="M382.54,272.98c-3.2-3.68-6.41-7.36-9.75-11.19v-4.4c4.87-.8,9.74-1.6,14.65-2.41,2.52,5.71-.99,9.86-2.25,14.4-.33,1.17-.47,2.4-.7,3.6h-1.95Z"/>
      <path class="cls-9" d="M238.28,267.13l1.95-1.95-1.95,1.95Z"/>
      <path class="cls-6" d="M340.91,301.04c1.11-6.56,2.08-12.25,3.16-18.63,6.19,2.24,8.9,7.84,13.21,10.97-.09,1.88-.16,3.12-.24,4.73-5.19.94-10.26,1.86-16.13,2.93Z"/>
    </g>
  </g>
</svg>