<?xml version="1.0" encoding="UTF-8"?>
<svg xmlns="http://www.w3.org/2000/svg" viewBox="0 0 977.95 979.65">
  <defs>
    <style>
      .cls-1 {
        fill: #e6e6e6;
      }

      .cls-1, .cls-2 {
        stroke-width: 0px;
      }
    </style>
  </defs>
  <g id="Cercle">
    <path class="cls-2" d="m970,490.85c-.07,50.32-7.77,100.64-23.43,148.49-15.1,46.14-37.2,89.86-65.42,129.37-27.94,39.12-61.74,73.93-99.93,103.12-38.54,29.45-81.72,53.03-127.34,69.52-46.93,16.97-96.45,26.56-146.32,28.34-50.63,1.8-101.56-4.17-150.28-18.11-46.78-13.39-91.48-33.91-132.15-60.62-40.22-26.42-76.42-59.03-107.1-96.09-30.86-37.28-56.02-79.3-74.4-124.07s-30.52-95.25-34.28-144.92.24-101.88,12.3-151.27c11.52-47.18,30.35-92.6,55.61-134.07,25.03-41.09,56.17-78.33,92.18-110.24,36.15-32.03,77.12-58.52,121.14-78.41,45.15-20.39,93.53-33.57,142.74-39.19,50.64-5.79,102.31-3.43,152.24,6.76,48.08,9.82,94.61,27.24,137.45,51.15,42.1,23.5,80.56,53.39,113.86,88.25,33.36,34.91,61.38,74.79,82.94,118,22.02,44.15,37.07,91.65,44.61,140.4,3.77,24.35,5.55,48.96,5.59,73.59,0,6.54,7.96,3.11,7.95-2.05-.07-51.36-7.98-102.68-23.9-151.53-15.29-46.92-37.65-91.46-66.28-131.66-28.45-39.95-62.78-75.63-101.76-105.42-39.09-29.87-82.65-53.88-128.88-70.74S558.53,2.13,507.56.31c-51.52-1.84-103.38,4.38-152.93,18.64-47.51,13.67-92.94,34.64-134.16,61.94-40.76,27-77.35,60.01-108.48,97.71-31.45,38.1-57.11,81.04-75.76,126.78S5.36,402.4,1.45,453.08c-3.96,51.44.19,103.57,12.35,153.71,11.74,48.42,31.01,95.04,56.87,137.63,25.35,41.74,56.97,79.7,93.48,112.13,36.79,32.68,78.56,59.84,123.41,80.1s94.82,34.13,144.73,39.84c51.56,5.89,104.11,3.56,154.95-6.9s96.35-27.83,139.93-52.3c42.64-23.95,81.71-54.36,115.4-89.81,33.95-35.73,62.48-76.44,84.42-120.58,22.3-44.87,37.62-93.25,45.21-142.78,3.82-24.92,5.71-50.11,5.75-75.32,0-6.54-7.94-3.11-7.95,2.05Z"/>
  </g>
  <g id="Kasher">
    <g>
      <path class="cls-1" d="m521.7,136.82c1.52,0,3.04,0,4.56,0,35.81,59.8,71.76,119.52,107.23,179.52,4.28,7.24,8.92,9.47,17.07,9.43,66.73-.32,133.45-.22,200.18-.03,5.11.01,10.22,1.73,15.34,2.66v4.56c-.77.82-1.73,1.54-2.3,2.48-35.43,59.26-70.92,118.48-105.94,177.98-1.85,3.13-1.08,9.49.91,12.93,16.13,27.92,32.73,55.57,49.4,83.17,19.2,31.79,38.61,63.46,57.93,95.18v4.56c-5.11.98-10.22,2.79-15.33,2.8-66.51.2-133.02.38-199.52-.08-9.32-.06-14.07,3.15-18.62,10.82-35.21,59.48-70.84,118.72-106.34,178.03h-4.56c-35.71-59.59-71.57-119.11-106.97-178.89-4.47-7.54-9.35-10.14-18.06-10.09-66.48.38-132.96.26-199.44.07-5.12-.01-10.23-1.74-15.35-2.67,0-1.52,0-3.04,0-4.56.76-.84,1.69-1.59,2.26-2.54,35.47-59.19,71.01-118.35,106.06-177.79,1.81-3.07.7-9.42-1.33-12.93-14.94-25.96-30.37-51.63-45.81-77.3-20.32-33.77-40.78-67.45-61.18-101.18,0-1.52,0-3.04,0-4.56,5.13-.93,10.25-2.66,15.38-2.67,66.49-.17,132.98-.26,199.47.1,8.65.05,13.54-2.46,18.05-10.09,35.35-59.81,71.21-119.31,106.92-178.91Zm2.64,249.63c-23.54,0-47.1-.39-70.62.34-4.61.14-11.01,3.44-13.34,7.26-23.71,38.88-46.66,78.23-70.09,117.28-3.32,5.52-3.56,9.63-.09,15.36,23.39,38.63,46.5,77.45,69.34,116.41,3.52,6,7.39,8.36,14.4,8.32,46.32-.27,92.65-.28,138.98.1,7.54.06,11.6-2.64,15.3-8.89,22.79-38.55,45.79-76.98,69.11-115.22,3.65-5.98,3.78-10.26.13-16.32-23.34-38.66-46.37-77.52-69.15-116.51-3.54-6.05-7.52-8.37-14.47-8.25-23.16.38-46.32.15-69.49.13Zm-194.56,72.11c14.68-24.86,28.15-47.66,42.07-71.23h-84.66c14.32,23.96,27.87,46.62,42.59,71.23Zm388.32-.01c14.75-24.72,28.37-47.56,42.65-71.49h-84.99c14.13,23.87,27.57,46.56,42.34,71.49Zm-194.19,325.85c14.67-24.56,28.29-47.36,42.78-71.61h-85.54c14.51,24.31,28.14,47.12,42.76,71.61Zm194.19-204.68c-14.54,24.38-28.1,47.12-42.15,70.7h84.73c-14.37-23.87-27.96-46.43-42.58-70.7Zm-236.92-254.86h85.4c-14.48-24.27-28.1-47.1-42.66-71.51-14.64,24.49-28.18,47.16-42.74,71.51Zm-193.92,325.36h84.57c-14.32-23.94-27.83-46.53-42.12-70.42-14.61,24.24-28.11,46.62-42.46,70.42Z"/>
      <g>
        <path class="cls-2" d="m487.28,112.79c1.52,0,3.04,0,4.56,0l-3.51-2.08c31.37,52.4,62.86,104.73,94.03,157.24,3.73,6.28,7.45,12.56,11.17,18.85,2.72,4.59,5.43,9.43,10.18,12.23,3.8,2.24,8.1,2.65,12.42,2.71,7.92.11,15.86-.07,23.78-.1,29.73-.1,59.46-.13,89.19-.1,17.18.01,34.35.04,51.53.08,8.59.02,17.18.04,25.77.06,4.08.01,8.26-.25,12.31.2s7.96,1.64,11.93,2.42l-3.32-5.8v4.56l1.36-3.17c-4.33,4.25-7.02,10.14-10.11,15.31-4.09,6.84-8.18,13.67-12.27,20.51-7.5,12.53-14.99,25.07-22.48,37.61-14.97,25.08-29.92,50.17-44.81,75.31-3.72,6.28-7.44,12.57-11.15,18.86-3.15,5.35-7.79,10.98-9.36,17.02-3.13,12.02,7.1,24.04,12.73,33.64,14.83,25.29,29.96,50.4,45.15,75.47,17.18,28.36,34.5,56.64,51.75,84.96l-.83-3.78v4.56l3.16-4.07c-6.57,1.36-12.57,2.79-19.32,2.81-7.98.02-15.96.05-23.94.07-15.3.04-30.59.08-45.89.1-30.59.05-61.19.04-91.78-.08-7.32-.03-14.63-.06-21.95-.11-6.4-.04-13.32-.9-19.57.88-10.72,3.06-15.33,14.76-20.53,23.53-15.45,26.05-30.97,52.05-46.52,78.03-17.58,29.37-35.19,58.73-52.77,88.1l2.46-1.76h-4.56l3.51,2.08c-31.29-52.22-62.69-104.37-93.8-156.69-3.72-6.26-7.43-12.52-11.14-18.78-2.74-4.62-5.45-9.36-10.07-12.37-3.61-2.35-7.87-3.07-12.1-3.2-7.77-.23-15.58.06-23.35.09-29.92.12-59.83.16-89.75.14-17.28-.01-34.57-.04-51.85-.08-8.64-.02-17.28-.04-25.93-.06-4.1-.01-8.3.26-12.37-.2s-7.97-1.65-11.94-2.43l3.32,5.8c0-1.52,0-3.04,0-4.56l-1.36,3.17c4.68-4.78,7.68-11.35,11.11-17.07,4.09-6.83,8.19-13.66,12.28-20.49,7.5-12.52,15.01-25.04,22.5-37.57,14.99-25.05,29.96-50.12,44.85-75.23,3.72-6.28,7.44-12.56,11.16-18.84,2.99-5.06,7.7-10.55,8.53-16.49.7-4.97-.62-10.13-2.9-14.53-3.44-6.62-7.52-12.99-11.29-19.42-14.69-25.04-29.69-49.9-44.69-74.76-16.97-28.12-34.01-56.2-51.01-84.3l.83,3.78c0-1.52,0-3.04,0-4.56l-3.16,4.07c6.57-1.29,12.63-2.67,19.37-2.68,7.98-.02,15.96-.04,23.94-.06,15.29-.03,30.58-.06,45.88-.07,30.58-.03,61.17,0,91.75.09,7.31.02,14.63.05,21.94.09,6.35.03,13.3.87,19.49-.84,11.02-3.05,15.79-15.7,21.08-24.62,15.18-25.61,30.45-51.18,45.75-76.72,17.68-29.52,35.4-59.01,53.08-88.53,2.48-4.14-2.89-11.75-6.09-6.4-30.44,50.8-60.99,101.53-91.23,152.44-3.55,5.97-7.09,11.95-10.63,17.93-2.96,4.99-5.72,11.99-11.03,15-4.35,2.46-9.81,1.87-14.59,1.84-7.65-.04-15.29-.07-22.94-.1-29.92-.11-59.84-.14-89.76-.12-16.29,0-32.58.03-48.87.07-8.31.02-16.62.04-24.93.06-3.79,0-7.63-.19-11.4.26-4.04.47-7.98,1.65-11.96,2.44-1.81.36-3.16,2.22-3.16,4.07,0,2.84-.36,5.7.83,8.34,1.31,2.92,3.45,5.7,5.1,8.43,4.08,6.74,8.17,13.49,12.25,20.23,7.49,12.36,14.97,24.72,22.45,37.09,14.89,24.62,29.76,49.25,44.47,73.97,7.32,12.3,14.81,24.54,21.74,37.07,1.42,2.56,2.96,5.5,2.18,8.54-.74,2.85-3.56,6.04-5.06,8.57-3.88,6.57-7.77,13.14-11.66,19.7-15.06,25.4-30.19,50.75-45.35,76.09-8.52,14.23-17.04,28.46-25.57,42.69-4.09,6.83-8.19,13.66-12.28,20.49-2.12,3.53-4.03,7.42-6.54,10.69s-2.56,4.84-2.56,8.96c0,2.17.75,5.3,3.32,5.8,6.19,1.22,12.01,2.66,18.35,2.73,7.98.09,15.96.04,23.93.06,15.29.04,30.58.07,45.87.09,30.58.04,61.16.03,91.74-.07,7.31-.02,14.63-.05,21.94-.09,6.5-.03,14.25-1.25,20.51.78,5.09,1.65,7.46,6.23,10.03,10.57,4.05,6.83,8.1,13.66,12.16,20.48,15.22,25.59,30.51,51.14,45.82,76.68,7.82,13.05,15.66,26.1,23.49,39.15,3.74,6.24,7.49,12.48,11.23,18.72,3.94,6.57,7.47,14.45,12.25,20.43,1.73,2.17,3.12,2.08,5.79,2.08,3.35,0,4-.67,5.76-3.46,4.21-6.67,8.12-13.56,12.18-20.33,7.78-12.99,15.57-25.98,23.35-38.96,15.22-25.41,30.44-50.83,45.6-76.28,7.75-13.01,15.44-26.05,23.2-39.05,2.39-4.01,4.88-8.05,9.47-9.73,5.91-2.17,13.5-.99,19.66-.95,33.92.2,67.84.24,101.76.21,17.29-.02,34.58-.05,51.88-.1,8.65-.02,17.29-.05,25.94-.07,3.78-.01,7.63.2,11.39-.27,4.03-.5,7.95-1.73,11.92-2.55,1.81-.37,3.16-2.21,3.16-4.07,0-2.84.37-5.71-.83-8.34-1.33-2.94-3.5-5.75-5.18-8.5-4.14-6.8-8.29-13.59-12.43-20.38-7.6-12.45-15.2-24.91-22.78-37.38-15.09-24.81-30.13-49.66-44.96-74.63-3.7-6.22-7.38-12.45-11.04-18.7-3.61-6.15-8-12.27-10.93-18.76s2.11-11.76,5.28-17.14c3.88-6.58,7.76-13.15,11.65-19.72,15.05-25.42,30.16-50.8,45.31-76.17,8.51-14.25,17.02-28.49,25.54-42.74,4.09-6.84,8.18-13.67,12.27-20.51,1.89-3.15,3.58-6.56,5.93-9.37s2.18-4.93,2.18-8.53c0-2.17-.75-5.3-3.32-5.8-6.18-1.21-12-2.65-18.33-2.72-7.93-.09-15.86-.04-23.78-.06-15.2-.04-30.39-.07-45.59-.09-30.39-.04-60.78-.03-91.17.05-7.27.02-14.53.04-21.8.07-6.78.03-14.56,1.18-21.2-.49-5.33-1.35-7.64-5.81-10.24-10.21-4.06-6.86-8.12-13.71-12.18-20.56-15.59-26.26-31.26-52.47-46.95-78.66-8.87-14.81-17.74-29.61-26.62-44.41-4.44-7.4-8.87-14.8-13.31-22.21-2-3.33-3.73-7.23-6.14-10.25-2.17-2.72-4.83-2.08-8.07-2.08-4.9,0-3.86,9.93,1.17,9.93Z"/>
        <path class="cls-2" d="m488.76,352.48c-16.35,0-32.7-.19-49.05-.06-12.2.1-28.88-2.57-37.04,8.95-9.37,13.24-17.05,28.1-25.36,42.03s-17.2,28.94-25.79,43.41c-4.21,7.09-8.43,14.18-12.66,21.27-3.48,5.83-8.61,12.08-9.68,18.96s2.29,12.18,5.64,17.73c4.4,7.28,8.8,14.57,13.18,21.86,17.03,28.33,33.9,56.76,50.64,85.27,2.91,4.96,5.64,10.55,10.92,13.39s12,2.08,17.91,2.04c16.54-.09,33.09-.14,49.63-.15,16.88-.01,33.75.02,50.63.1,8.27.04,16.54.09,24.82.15,5.88.04,11.86.49,16.95-2.96s7.77-9.35,10.79-14.45c4.36-7.37,8.73-14.73,13.11-22.09,8.42-14.15,16.87-28.28,25.36-42.39,8.66-14.39,17.5-28.67,26.1-43.1,3.25-5.45,5.11-11.19,3.18-17.47-2.19-7.12-7.47-13.73-11.28-20.07-17.03-28.33-33.89-56.76-50.62-85.27-3.84-6.54-7.27-13.71-11.82-19.78-3.05-4.08-7.15-6.74-12.26-7.33-7.72-.89-15.9,0-23.67.03-8.27.04-16.54.02-24.82,0s-16.55-.06-24.82-.06c-4.9,0-3.86,9.93,1.17,9.93,15.22.01,30.44.12,45.67.08,7.28-.02,14.56-.14,21.84-.18s10.35,1.77,13.94,7.83c15.34,25.91,30.49,51.93,45.92,77.78,3.69,6.18,7.39,12.36,11.09,18.53,3.96,6.59,8.82,13.15,12.04,20.12,2.89,6.23-4.23,13.66-7.32,18.75-4.1,6.75-8.2,13.51-12.29,20.28-15.32,25.37-30.52,50.81-45.63,76.32-2.76,4.66-5.26,11.33-10.24,14.12-5.37,3.01-13.63,1.46-19.54,1.42-15.22-.1-30.44-.17-45.66-.19-15.22-.03-30.44-.02-45.66.03-7.28.02-14.56.05-21.84.08-6.14.03-14.96,1.82-20.45-1.36-4.93-2.86-7.55-10.27-10.31-14.96-3.81-6.49-7.64-12.97-11.47-19.46-7.49-12.68-15.01-25.34-22.56-37.99-7.72-12.93-15.47-25.83-23.25-38.72-3.14-5.19-9.49-11.59-6.71-17.88,3.09-6.97,8.09-13.61,12-20.17,17.23-28.92,34.3-57.93,51.72-86.74,3.78-6.25,6.66-13.95,14.05-16.54,3.45-1.21,7.28-.9,10.88-.98,4.25-.09,8.5-.16,12.75-.2,17-.16,34.01.04,51.01.04,4.9,0,3.86-9.93-1.17-9.93Z"/>
        <path class="cls-2" d="m297.83,432.76c14.02-23.74,28.05-47.49,42.07-71.23,1.75-2.96.24-8.17-3.63-8.17h-84.66c-3.63,0-3.59,5.76-2.34,7.85,14.2,23.74,28.39,47.49,42.59,71.23,3.35,5.61,8.5-1.33,5.84-5.77-14.2-23.74-28.39-47.49-42.59-71.23l-2.34,7.85h84.66l-3.63-8.17c-14.02,23.74-28.05,47.49-42.07,71.23-2.45,4.15,2.93,11.76,6.09,6.4Z"/>
        <path class="cls-2" d="m686.15,432.75c14.22-23.83,28.43-47.66,42.65-71.49,1.76-2.96.23-8.17-3.63-8.17h-84.99c-3.64,0-3.58,5.75-2.34,7.85,14.11,23.83,28.23,47.66,42.34,71.49,3.33,5.62,8.48-1.32,5.84-5.77-14.11-23.83-28.23-47.66-42.34-71.49l-2.34,7.85h84.99l-3.63-8.17c-14.22,23.83-28.43,47.66-42.65,71.49-2.47,4.14,2.9,11.75,6.09,6.4Z"/>
        <path class="cls-2" d="m491.96,758.6c14.26-23.87,28.52-47.74,42.78-71.61,1.77-2.95.23-8.17-3.63-8.17h-85.54c-3.63,0-3.59,5.76-2.34,7.85,14.25,23.87,28.51,47.74,42.76,71.61,3.35,5.61,8.49-1.33,5.84-5.77-14.25-23.87-28.51-47.74-42.76-71.61l-2.34,7.85h85.54l-3.63-8.17c-14.26,23.87-28.52,47.74-42.78,71.61-2.47,4.14,2.9,11.75,6.09,6.4Z"/>
        <path class="cls-2" d="m680.05,547.51c-14.05,23.57-28.1,47.13-42.15,70.7-1.76,2.96-.23,8.17,3.63,8.17h84.73c3.62,0,3.6-5.76,2.34-7.85-14.19-23.57-28.39-47.13-42.58-70.7-3.37-5.6-8.51,1.33-5.84,5.77,14.19,23.57,28.39,47.13,42.58,70.7l2.34-7.85h-84.73l3.63,8.17c14.05-23.57,28.1-47.13,42.15-70.7,2.47-4.14-2.9-11.75-6.09-6.4Z"/>
        <path class="cls-2" d="m446.76,300.82h85.4c3.63,0,3.59-5.76,2.34-7.85-14.22-23.84-28.44-47.68-42.66-71.51-1.42-2.38-4.43-2.89-5.97-.32-14.25,23.84-28.49,47.68-42.74,71.51-2.48,4.14,2.9,11.75,6.09,6.4,14.25-23.84,28.49-47.68,42.74-71.51l-5.97-.32c14.22,23.84,28.44,47.68,42.66,71.51l2.34-7.85h-85.4c-4.9,0-3.86,9.93,1.17,9.93Z"/>
        <path class="cls-2" d="m252.84,626.18h84.57c3.63,0,3.59-5.76,2.34-7.85-14.04-23.47-28.08-46.95-42.12-70.42-1.43-2.39-4.42-2.89-5.97-.32-14.15,23.47-28.3,46.95-42.46,70.42-2.49,4.13,2.88,11.74,6.09,6.4,14.15-23.47,28.3-46.95,42.46-70.42l-5.97-.32c14.04,23.47,28.08,46.95,42.12,70.42l2.34-7.85h-84.57c-4.9,0-3.86,9.93,1.17,9.93Z"/>
      </g>
    </g>
  </g>
</svg>