<?xml version="1.0" encoding="UTF-8"?>
<svg id="Calque_2" xmlns="http://www.w3.org/2000/svg" viewBox="0 0 621.22 577.85">
  <defs>
    <style>
      .cls-1 {
        fill: #a86968;
      }

      .cls-1, .cls-2 {
        stroke: #111827;
        stroke-miterlimit: 10;
      }

      .cls-2 {
        fill: #6f9974;
      }

      .cls-3 {
        fill: #111827;
      }
    </style>
  </defs>
  <g id="Fait_au_Maroc">
    <g>
      <path class="cls-1" d="M14.5,570.3c-7.7-.26-12.78-8.08-9.91-15.23.05-.13.1-.26.16-.39,5.19-13.17,59.1-6.16,78.14-31.16s16.25-24.61,35.65-35.81c19.4-11.2,32.83-49.63,47.11-61.91,14.29-12.28,13.43-34.76,4.36-51.02s-11.52-53.19,5.36-78.12c32.57-48.14,6.95-42.5,31.57-71.14,22.24-25.85,11.7-37.44,93.22-74.43,60.78-27.57,37.92-136.82,85.26-145.79,30.52-5.78-3.4,50.04,68.06,47.63s63.45-15.05,106.95,15.77,8.2,92.57,32.35,133.7,34.81,58.41,12.48,69.27c-22.33,10.86-46.14-19.11-84.74,6.87s-49.11,48.16-30.85,64.57-29.76,21.48-49.75,42.94c-19.99,21.47-47.34,25.28-46.67,47.87s-28.15,5.69-68.24,13.64c-40.09,7.95-98.89,30.03-98.99,73.49s-5.06,41.62-30.08,48.54c-19.8,5.48-134.46,2.29-181.45.72Z"/>
      <g>
        <path class="cls-2" d="M254.13,256.12c5.8.06,11.59.16,17.39.17,14.03.02,28.06-.07,42.09.07,3.01.03,4.42-.9,5.31-3.87,5.54-18.45,11.28-36.84,16.99-55.23.37-1.18.39-2.59,1.6-3.49,1.17.93,1.22,2.32,1.59,3.52,5.82,18.66,11.62,37.32,17.35,56,.63,2.05,1.46,3.14,3.83,3.13,19.64-.08,39.28-.06,58.93-.08.83,0,1.66-.18,2.5-.27v1.12c-1.41-.2-2.2.88-3.13,1.59-15.31,11.7-30.57,23.47-45.93,35.09-2.23,1.68-2.76,3.2-1.91,5.87,5.42,17.12,10.69,34.28,15.97,51.44.9,2.94,2.09,5.81,2.5,8.89-.98-.71-1.98-1.41-2.94-2.14-15.37-11.72-30.77-23.41-46.08-35.2-1.97-1.51-3.34-1.69-5.33-.07-4.41,3.6-9.01,6.97-13.54,10.42-11.81,8.99-23.64,17.96-35.46,26.95.29-1.18.53-2.37.89-3.53,5.88-19.12,11.75-38.25,17.72-57.35.7-2.25.25-3.57-1.6-4.98-15.65-11.87-31.22-23.83-46.83-35.74-.79-.6-1.5-1.47-2.69-1.24,0-.19,0-.37,0-.56.27-.17.54-.33.82-.5ZM364.48,323.96l-.04.04c-1.27-6.02-3.47-11.77-5.21-17.65-.34-1.16-1.04-1.48-2.07-.68-2.43,1.88-4.88,3.73-7.31,5.62-.85.66-.9,1.38.01,2.03,4.91,3.5,9.32,7.7,14.63,10.64ZM337.5,270.01c-2.71,0-5.42.05-8.13-.02-1.65-.05-2.57.57-3.05,2.19-1.65,5.55-3.34,11.09-5.13,16.6-.52,1.61-.13,2.58,1.18,3.56,4.49,3.35,8.95,6.75,13.34,10.23,1.36,1.07,2.37.99,3.68-.04,4.34-3.4,8.72-6.74,13.15-10.02,1.39-1.03,1.86-2.05,1.29-3.78-1.78-5.41-3.47-10.85-5.04-16.33-.55-1.91-1.6-2.49-3.45-2.42-2.61.1-5.23.02-7.85.03ZM310.84,323.42c.38.03.62.13.73.05,4.56-3.39,9.12-6.79,13.66-10.22,1.19-.9.37-1.6-.4-2.2-2.21-1.71-4.47-3.38-6.66-5.12-1.44-1.14-2.1-.57-2.55.94-.82,2.77-1.76,5.51-2.54,8.3-.76,2.73-2,5.35-2.24,8.26ZM380.66,270.89c-.1-.28-.2-.56-.3-.83-5.65,0-11.3-.01-16.95.01-1.36,0-1.48.93-1.17,1.95.86,2.85,1.76,5.69,2.65,8.53.35,1.11,1.02,1.61,2.07.82,4.58-3.47,9.13-6.98,13.69-10.47ZM294.61,270c-.05.31-.11.62-.16.93,3.47,2.67,6.92,5.36,10.41,8,4.92,3.72,4.49,4.36,6.45-2.11q2.08-6.83-5.08-6.82c-3.88,0-7.75,0-11.63,0ZM337.95,237.63c-.31,0-.62-.02-.94-.03-1.71,5.6-3.43,11.19-5.12,16.79-.35,1.16.21,1.82,1.4,1.83,2.8.03,5.6.03,8.4,0,1.42-.01,1.77-.85,1.39-2.07-1.7-5.51-3.42-11.02-5.14-16.53ZM346.35,256.2c-.08.07-.17.13-.25.2h8.62c0-.07,0-.13,0-.2h-8.37Z"/>
        <path class="cls-2" d="M402,376.2s.07-.06.07-.06c0,0-.07.06-.07.06Z"/>
      </g>
      <path class="cls-3" d="M14.73,565.38c-3.94-.36-9.02-3.4-6.63-8.06.72-1.4,2.92-2.47,4.64-3.19,6.29-2.61,13.51-3.37,20.16-4.52,16.02-2.77,33.7-5.6,46.67-16.19,12.25-10,17.65-26.38,31.05-35.29,7.28-4.84,14.68-8.5,20.62-15.11,6.49-7.23,11.64-15.65,16.62-23.95s9.26-16.37,15.07-23.69c2.49-3.14,5.58-5.56,8.21-8.55,3.47-3.95,5.95-8.67,7.46-13.7,2.91-9.71,2.09-20.28-.83-29.87-2.7-8.87-7.85-16.31-9.6-25.55-1.99-10.44-2.01-21.39-.03-31.84,2.21-11.67,7.17-21.03,13.52-30.89,8.39-13.02,14.96-26.31,16.36-41.85.36-4.02.74-7.28,2.65-11.16,3.04-6.16,7.82-11.06,12.01-16.42,5.47-6.99,9.72-14.79,15.03-21.88,6.87-9.18,15.73-16.32,25.32-22.49,8.46-5.45,17.34-10.24,26.32-14.77,10.12-5.1,21.22-8.99,30.7-15.23,26.56-17.49,34.79-51.03,41.85-80.02,3.34-13.72,6.22-28.02,12.28-40.87,4.71-9.98,12.21-19.18,23.92-20.36,1.61-.16,3.25-.19,4.8.37.63.23,2.05,1.48,2.03,1.46,1.48,2.15,2.55,5.99,3.23,8.65,2.46,9.61,5.3,19.2,12.84,26.15,12.21,11.24,30.31,11.81,45.95,11.21,17.9-.69,35.59-3.08,53.43-4.28,10.31-.7,19.11,1.18,28.16,6.22,14.9,8.3,31.02,18.41,37.22,35.06,6.6,17.74,4.12,37.75,3.82,56.25-.32,19.65,1.28,38.79,11.38,56.07,5.96,10.21,12.26,20.33,17.38,31,2.61,5.45,6.62,13.02,5.11,19.33-1.38,5.76-8.26,9.56-13.52,10.97-6.99,1.87-14.31.04-21.14-1.62-8.49-2.06-16.91-4.1-25.7-4.11-11.08,0-21.78,3.54-31.2,9.27-10.42,6.34-20.57,14.18-29.11,22.9-6.13,6.26-11.85,13.62-14.37,22.15-2.01,6.8-1.5,14.05,1.7,20.39,1.54,3.05,3.6,5.78,6,8.2,1.11,1.12,2.27,2.49,3.45,3.5.59.51.22,1.06.4.34-1.03,4.08-10.38,7.6-13.96,9.33-7.71,3.72-15.58,7.12-22.99,11.43-8.72,5.07-14.92,12-22.51,18.44-8.22,6.98-17.81,11.99-26.37,18.49-6.44,4.89-12.15,10.84-13.95,18.99-1.17,5.27,1.28,12.52-5.23,14.47-7.15,2.13-15.88.42-23.16.06-10.83-.54-21.7-.54-32.45,1.09-18.68,2.84-37.46,8.63-54.67,16.37s-33.22,17.94-43.55,33.46c-4.58,6.88-7.48,14.74-8.5,22.94-1.22,9.85-.1,19.89-1.46,29.77-.65,4.75-1.74,10.07-5.68,13.23-3.63,2.91-8.68,4-13.05,5.19-10.61,2.89-20.84,3.95-31.84,4.4-36.46,1.51-73.07.53-109.53-.36-15.44-.38-30.88-.83-46.31-1.34-5.37-.18-5.19,9.68-.47,9.84,36.3,1.21,72.62,2.16,108.95,2.36,27.8.15,56.96,1.95,83.92-5.88,4.93-1.43,10-3.05,13.84-6.62,4.24-3.93,6.14-9.71,7.12-15.24,1.72-9.67,1.41-19.44,1.72-29.21.28-8.64,3.27-16.82,8.28-23.85,11.08-15.56,29.28-25.25,46.59-32.25,19.05-7.7,40.03-13.48,60.63-14.25,9.99-.37,19.91.63,29.89.9,5.83.16,13.04.39,17.59-3.96,5.86-5.6,2.67-13.43,5.45-20.12,3.45-8.3,12.81-13.35,19.95-18.01,9.45-6.16,17.74-12.84,25.82-20.67,6.56-6.36,14.96-10.66,23.11-14.62,7.19-3.49,14.82-6.44,21.56-10.78,5.02-3.23,9.61-7.72,8.71-14.23-.99-7.12-7.9-10.14-10.99-16.06s-1.19-12.49,2.02-18.05c5.51-9.55,14.45-17.23,23.09-23.86,10.61-8.15,21.97-15.88,35.51-17.77,9.19-1.28,18.2.37,27.12,2.53,7.43,1.8,14.99,3.97,22.72,3.42,13.91-1,25.66-11.76,24.24-26.1-.85-8.62-5.01-16.81-8.94-24.38-5.7-11-12.96-21.28-18.36-32.41-8.53-17.58-6.82-38.28-6.32-57.23.51-19.09.62-39.34-9-56.48-4.87-8.68-12.06-14.93-20.11-20.56-6.32-4.42-12.72-8.84-19.56-12.41-9.88-5.15-19.7-6.58-30.73-5.78-18.5,1.35-36.82,3.79-55.39,4.33-13.87.4-32.14-.59-40.99-13.13-5.31-7.52-5.35-15.87-8.61-24.17-3.5-8.87-10.71-12.26-19.94-10.02-12.14,2.94-20.17,12.58-25.3,23.47-13.3,28.2-14.17,60.66-27.66,88.88-6.72,14.05-16.55,26.16-30.8,33.01-19.53,9.38-39.58,18.13-57.17,30.98-8.82,6.44-16.33,13.85-22.51,22.86-5.53,8.05-10.68,16.02-16.91,23.58-4.37,5.29-8.5,11.03-10.58,17.65-1.34,4.24-1.51,8.67-1.97,13.06-1.91,18.16-14.77,31.35-22.48,47.1-9.43,19.27-11.12,43-5.61,63.66,2.45,9.16,8.13,16.96,9.91,26.33,2.02,10.63.15,21.94-7.91,29.66-13.98,13.39-21.21,31.9-32.5,47.39-5.75,7.88-11.97,13.01-20.23,17.99-5.53,3.33-10.71,7.01-14.92,11.95-6.24,7.31-11.16,15.7-17.46,22.95-5.62,6.46-13.73,10.29-21.76,12.85-15.19,4.86-31.75,4.85-46.67,10.4-4.88,1.81-8.63,4.74-10.03,9.93-2.55,9.48,3.66,19.95,13.69,20.88,5.35.49,5.21-9.4.47-9.84Z"/>
    </g>
  </g>
</svg>