<?xml version="1.0" encoding="UTF-8"?>
<svg id="Calque_2" xmlns="http://www.w3.org/2000/svg" viewBox="0 0 850.37 843.77">
  <defs>
    <style>
      .cls-1 {
        fill: #7eb5d0;
      }

      .cls-2 {
        fill: #111827;
      }

      .cls-3 {
        fill: #fff9c1;
      }
    </style>
  </defs>
  <g id="Fait_en_Europe">
    <g>
      <g>
        <path class="cls-1" d="M243.9,422.2c1.79,0,3.28-.39,3.14-2.74-.49-7.95-.82-15.92-1.43-23.86-.36-4.73-.55-4.72,3.86-6.56.36-.15.68-.45,1.04-.52,1.89-.36,3.79-.68,5.79-1.03q-.3,11.63,7.99,14.49c-.82,2.36-1.52,4.79-2.49,7.09-2.52,5.95-3.67,11.82.41,17.57.95,1.33,2.13,2.5,3.05,3.85,2.23,3.26,4.04,6.89,6.64,9.81,2.98,3.34,6.64,6.07,10.03,9.04.4.35.94.59,1.46.71,3.25.76,4.42,3.12,4.77,6.11.09.78.13,1.56.23,2.33.43,3.46-.75,4.81-4.06,5.93-4.62,1.57-9.23,3.31-13.63,5.41-4.18,1.99-8.1,4.53-12.13,6.83,1.13-2.62,2.37-5.03,3.99-7.15,2.61-3.41.31-5.81-1.39-8.37-1.39-2.09-3.58-1.56-5.52-1.35-1.11.12-2.18.78-3.22,1.28l-9.1-2.96c3.77-5.55,7.6-11.06,11.42-16.58.81-1.17.9-2.18-.13-3.36-1.01-1.17-1.87-2.5-2.62-3.85-.68-1.21-2.01-2.38-.82-4.01l-7.28-8.14Z"/>
        <path class="cls-2" d="M244.92,427.09c8.85-.5,5.58-13.38,5.26-19.01-.26-4.75-.75-9.5-.92-14.25-.96,1.13-.95,1.35.04.65.7-.33,1.41-.64,2.13-.93,1.88-.64,3.95-.83,5.9-1.16l-4.83-5.46c-.11,4.44-.67,9.66,1.63,13.68,2.01,3.53,5.57,4.72,9.21,5.98l-2.34-7.53c-2.73,8.12-7.04,16.18-4.28,24.89,1.38,4.36,4.4,7.37,6.85,11.1,2.58,3.93,4.86,7.74,8.24,11.08,2.86,2.83,6.3,6.38,9.92,8.19,1.9.95,2.55.81,2.83,3.05.26,2.12-.09,1.71-2.08,2.49-9.11,3.53-17.38,7.42-25.84,12.32l5.27,7.44c3.09-6.9,7.97-11.16,3.72-18.84-3.55-6.43-8.73-7.35-15.14-4.18l2.93-.1c-3.03-.99-6.07-1.97-9.1-2.96l1.76,8.45c2.06-3.02,4.13-6.04,6.21-9.05,1.95-2.83,4.72-5.85,6.06-9.01,1.04-2.44,1-4.74-.09-7.17-.59-1.32-1.57-2.37-2.37-3.55-.49-.72-1.66-3.4-1.5-2.49l-.35,3.69.46-1.14c.72-1.77.71-4.52-.66-6.05l-7.28-8.14c-4.33-4.85-8.8,2.35-5.31,6.26l7.28,8.14-.66-6.05c-2.49,6.12,1.85,10.07,4.78,15.05l-1.16-3.69c.02,1.38-4.29,5.93-5.19,7.23-1.91,2.76-3.8,5.53-5.69,8.3-1.57,2.3-1.53,7.38,1.76,8.45,2.97.96,5.95,2.21,8.99,2.92,2.5.58,6.23-2.45,7.93-.28,1.08,1.38.08,1.38-.95,2.54-1.38,1.56-2.22,3.96-3.06,5.84-1.35,3.01,1.06,9.88,5.27,7.44s8.47-5.13,12.96-7.22c4.51-2.1,9.51-3.26,13.95-5.46,6.18-3.06,5.71-11.8,3.24-17.3-1.82-4.04-4.86-4.56-8.14-6.99-3.89-2.88-7.8-6.41-10.51-10.42-1.27-1.88-2.36-3.87-3.64-5.75-1.45-2.13-3.76-4.14-4.64-6.62-1.81-5.12,2.25-11.76,3.86-16.56.78-2.31.57-6.53-2.34-7.53-1.11-.38-4.72-1.26-5.2-1.95-.66-.94,0-5.93.05-7.36.06-2.52-1.88-5.97-4.83-5.46-5.82,1-13.23,2.1-13.65,9.27-.25,4.28.56,8.81.81,13.09.17,2.98.32,5.97.49,8.95.06,1.05-.21,3.04.23,3.98-.07,1.27.06,1.32.4.17.65-.88.42-1.14-.69-.76-4.85.28-2.98,10.08,2.04,9.79Z"/>
      </g>
      <g>
        <path class="cls-1" d="M237.95,427.78c1.09.27,2.3,1.55,2.74,2.66,2.31,5.93,3,11.89-.14,17.86-3.25,6.18-6.77,12.17-12.43,16.45-4.33,3.28-9.27,4.78-14.76,3.45-3.74-.91-5.38-3.54-4.66-7.31.53-2.79,1.88-5.07,4.03-6.93,3.7-3.21,3.76-4.04,1.77-8.13-2.42-5,0-8.63,3.46-11.53,3.27-2.75,6.4-5.67,9.57-8.54.46-.41.85-.91,1.24-1.4,1.24-1.53,2.56-2.58,4.53-1.03l4.66,4.45Z"/>
        <path class="cls-2" d="M235.74,430.93c2.9,1.49,2.04,10.45,1.31,12.83-1.29,4.19-4.1,8.42-6.7,11.91s-6.14,7.27-10.47,8.61c-1.64.51-5.3,1.38-6.37-.55-.72-1.28.71-4.03,1.37-5.05,1.59-2.46,4.72-3.88,5.59-6.84.99-3.35-1.66-5.51-1.96-8.61-.43-4.36,4.47-7.13,7.28-9.64,1.81-1.62,3.72-3.2,5.43-4.92.48-.48,1.64-2.25,2.33-2.29l-3.82-.61c1.86.97,3.43,3.03,4.96,4.49,3.78,3.61,11.24-.48,6.53-4.98-3.16-3.02-6.07-6.74-10.9-6.44-3.14.19-4.52,1.98-6.55,4.05-3.28,3.35-7.12,6.13-10.51,9.36-2.01,1.92-3.78,4.15-4.42,6.91-.8,3.43.96,5.56,1.59,8.64.4,1.96.2,1.61-1.4,3.22-1.22,1.23-2.43,2.35-3.33,3.85-1.47,2.44-2.36,5.5-2.01,8.35.85,7.01,8.82,9.39,14.84,9.27,6.96-.14,12.97-3.81,17.61-8.77,4.97-5.31,10.32-13.28,11.27-20.66.86-6.63-.89-15.18-7.24-18.44-5.07-2.6-10.25,3.32-4.41,6.32Z"/>
      </g>
      <g>
        <path class="cls-1" d="M385.22,604.83c-.79,1.11-2.11,2.69-3.14,2.64-4.49-.19-8.99-.73-13.42-1.48-2.56-.43-5.12-1.56-5.4-4.67-.29-3.24,2.55-3.86,4.73-4.63,2.48-.88,5.12-1.57,7.72-1.72,1.02-.06,2.14,1.59,3.38,2.6l6.13,7.25ZM566.44,291.37l10.67-2.1c1.37-.06,1.65.69,1.72,1.9.16,2.96.37,5.93.74,8.87,1.06,8.44,6.03,13.5,13.9,16.2,9.73,3.35,19.79,3.51,29.88,3.49,7.28-.01,14.54-.13,21.62,1.99,9.2,2.77,15.79,7.88,18.01,17.95,1.24,5.62,1.9,11.21,2.15,16.91.35,8.11.84,16.21,1.25,24.32.46,9.1-3.16,16.35-9.99,22.19-4.34,3.7-8.88,7.23-12.81,11.33-7.16,7.47-11.97,16.35-13.71,26.67-1.75,10.39-6.15,19.42-13.5,26.94-6.95,7.11-7.99,15.56-6.6,24.94.64,4.29,2.78,7.28,5.61,10.15,1.53,1.55,2.95,3.24,4.23,5,2.68,3.72,2.55,7.22-.54,10.65-1.56,1.73-3.45,3.15-5.23,4.68-2.5,2.16-5.06,4.33-5.63,7.79-.18,1.08.23,2.43.78,3.42,2.16,3.86,4.73,7.5,6.7,11.45,2.12,4.24.29,7.83-4.32,9.29-6.26,1.97-12.59,1.44-19.01.81-12.11-1.2-23.76-4.43-35.45-7.46-5.77-1.49-11.13-3.89-14.09-9.55-.81-1.55-1.42-3.36-1.56-5.09-.47-5.89-.68-11.79-1.01-17.98-2.04-.31-2.8.11-2.72,2.56.1,2.92.46,5.87,1.01,8.74.43,2.21-.31,3.84-1.73,5.29-5.86,6.01-13.14,8.17-21.32,7.65-2.85-.18-5.04-1.63-6.15-4.36-1.2-2.94-1.61-5.86.54-8.64,1.47-1.89,2.85-3.84,4.24-5.78.16-.22.16-.56.32-1.18-4.99-1.1-9.72-3.31-14.86-1.53-1.24.43-2.43,1.42-3.31,2.44-4.14,4.75-5.18,10.45-5.07,16.56.06,3.35-.37,6.7-.49,10.06-.13,3.43-1.97,5.61-4.88,7.14-3.17,1.67-6.35,3.33-9.43,5.15-.81.48-1.29,1.52-1.92,2.31-.66.83-6.38,7.02-6.89,6.94l-.69.48c-3.71.38-7.42.75-11.14.94-4.52.23-9.06.13-13.57.46-3.29.23-4.63,2.96-3.22,5.65,2.54,4.83,5.03,9.68,7.39,14.59.62,1.28,1.41,3.36.83,4.18-1.86,2.65-1.71,5.61-2.24,8.49-.37,2.02-2.38,3.39-4.14,2.44-5.21-2.82-10.47-5.69-12.86-11.67-1.13-2.82-2.37-5.61-3.33-8.49-.38-1.13-.28-2.48-.12-3.7.47-3.53,1.3-7.03,1.53-10.58.09-1.38-.69-3.21-1.7-4.19-4.17-4.08-8.37-8.19-12.96-11.77-6.38-4.98-13.65-8.83-18.97-15.11-3.61-4.26-7.77-8.18-9.25-13.85-.74-2.85-2.14-5.13-5.19-5.65-4.35-.74-5.96.16-8.17,3.78l-.43,11.69.36.91c7.06,7.5,14.14,14.97,21.23,22.43,3.45,3.63,7.37,6.41,12.53,7.14,3.99.57,7.42,2.27,9.9,5.62,1.79,2.42,1.64,4.38-.9,5.92-1.82,1.1-3.88,1.96-5.95,2.47-3.45.85-3.81,1.2-4.23,5.42-.08.75-.06,1.5-.02,2.26.21,4.55-4.37,6.35-8.89,7.39-2.76.63-5.17-1.95-4.37-4.66l1.15-5.3c-.91-6.67-8.72-9.46-12.22-15.02-2.79-4.43-7.42-6.26-12.26-6.97-7.33-1.07-11.79-5.6-15.3-11.5-1.03-1.73-1.8-3.63-2.49-5.52-.43-1.18-.98-1.81-2.29-1.82-3.27-.03-6.54-.17-9.81-.22-.45,0-1.01.05-1.34.31-2.99,2.34-6.54,2.24-10.04,2.4-2.5.12-5,.21-7.49.42-3.08.26-4.9,1.65-5.16,4.72-.6,7.21-5.16,11.93-10.11,16.23-3.54,3.07-6.17,6.52-7.9,10.81-1.58,3.9-3.38,7.72-5.01,11.6-2.21,5.28-6.02,9.16-10.36,12.76-11.71,9.73-25.31,13.72-40.28,13.82-2.74.02-5.48.06-8.21-.02-4.19-.12-7.43-2.02-9.83-5.46-3.74-5.37-5.16-11.45-5.62-17.85-.7-9.83-1.74-19.73.23-29.45,1.97-9.73,6.39-18.04,16.47-22.03,6.47-2.56,13.13-3.99,20.02-4.45,3.98-.27,7.97-.34,11.95-.41,1.3-.02,2.04-.39,2.2-1.78.6-5.1,1.33-10.19,1.83-15.3.3-2.99-1.32-5.2-3.58-6.98-2.92-2.29-5.83-4.6-8.79-6.83-.5-.38-1.29-.35-1.86-.67-1.73-.98-3.7-1.79-4.99-3.21-.5-.55.84-3.77.84-3.77l-4.89-1.46c-.52-1.53-.53-2.93,1.4-3.6,4.41-1.54,8.86-3.01,13.21-4.72,3.69-1.45,7.3-3.11,10.87-4.82,5.33-2.56,10.62-5.21,15.87-7.93,0,0,14.48-4.53,18.6-15.24,1.14-4.84,1.88-9.87,3.78-14.4,2.77-6.62,7.56-11.19,15.47-11.22,4.12-.02,8.25-.43,12.86-.69-.97-3.6-1.71-7.09-2.84-10.44-3.2-9.45-2.01-18.23,4.04-26.11,1.58-2.06,4.06-3.74,6.47-4.78,4.5-1.93,8.26.36,8.88,5.52.75,6.27.98,12.61,1.31,18.92.15,2.84.43,5.51,2.02,8.04,1.41,2.24,3.35,3.19,5.77,3.42,2.26.21,4.55.08,6.79.41,5.5.82,10.15-1.34,14.46-4.22,8.19-5.47,17.35-7.16,26.92-7.44,2.41-.07,4.5,2.08,4.8,4.58.1.83.3,1.64.75,2.45,2.32-4.24,3.3-8.7,3.48-13.4.32-8.04,7.84-17.27,15.68-19,1.89-.42,3.99.06,5.99.21,1.08.08,2.15.34,3.26.52.85-1.42.22-2.04-1.04-2.41-3.63-1.06-6.43-2.88-7.38-6.95-1.08-4.62-.6-8.9,2.32-12.65,2.14-2.75,5.49-3.25,8.67-3.47,4.75-.32,9.53-.35,14.3-.35,3.14,0,5.65,1.5,7.71,3.84,4.9,5.58,11.31,4.74,14.57-2,1.21-2.51,2.05-5.21,2.95-7.87.53-1.57-1.73-4.17-4.14-4.97-4.65-1.53-9.42-1.01-14.17-.85-6.71.23-13.43.83-20.13.72-10.47-.17-16.83-4.21-18.88-15.02-1.71-9.02-2.59-17.98,1.56-26.62,2.26-4.71,4.68-9.35,7.03-14.01,3.5-6.95,7.86-13.54,9.09-21.43.2-1.26.31-3.09-.4-3.8-1.29-1.3-3.23-1.83-5.17-.75-4.57,2.54-7.79,6.19-9.14,11.3-.94,3.54-1.81,7.11-2.55,10.7-1.92,9.36-7,17.14-12.47,24.66-3.2,4.4-5.95,8.98-5.77,14.5.13,4.32,1.08,8.63,1.83,12.92,1.05,6.07,2.41,12.1,3.34,18.19.66,4.34-.44,8.48-2.14,12.53-3.77,8.95-8.56,17.35-13.85,25.43-4.84,7.39-11.91,7.33-19.57,11.55-2.38,1.31-4.03-.52-5.6-1.63l-5.95-11.83s-8.91-16.53-11.91-24.15c-.29-.73-.56-1.46-.9-2.16-1-2.08-2.17-2.23-3.64-.48-2.81,3.33-5.47,6.8-8.49,9.93-1.34,1.39-3.23.74-5.1,1.34-4.6,1.48-7.48,1.22-10.46-4.28-.74-1.36-1.03-2.95-1.65-4.37-1.37-3.12-2.69-6.28-4.29-9.29-2.13-3.98-2.33-8.38-3.18-12.64-1.08-5.42-2.16-10.85-3.12-16.3-1.2-6.82,2.64-11.4,6.84-16.09,4.75-5.3,11.02-8.4,16.55-12.54,8.64-6.46,15.15-14.65,19.88-24.2,2.16-4.36,3.02-9.37,5.09-13.79,4.83-10.33,7.28-21.36,10.37-32.23,1.58-5.57,1.36-11.06,1.34-16.62,0-2.99,1.23-4.92,3.29-7.06,5.6-5.81,12.67-9.62,18.79-14.66,3.99-3.29,7.24-7.49,10.87-11.22,5.45-5.59,10.55-11.61,16.53-16.57,7.79-6.45,17.17-9.86,27.32-10.5,7.64-.48,15.32-.84,22.95-.51,7.05.3,13.82,2.38,20.02,5.94,6.43,3.7,7.94,11.94,5.25,18.35-.69,1.64-1.58,3.18-2.56,5.11,2.41,0,4.62.05,6.83,0,8.59-.22,16.11,2.29,22.33,8.43,6.38,6.3,13.75,11.16,21.73,15.3,5.95,3.09,11.27,7.3,14.75,13.23,4.24,7.23,4.18,16.95-2.69,25-6.73,7.89-15.07,9.79-24.88,8.16-6.05-1.01-11.86-2.33-17-6.01.49.63.91,1.35,1.5,1.88,3.93,3.54,4.94,8.2,5.02,13.17.06,4.14-.02,8.29-.14,12.43-.06,2.07-.12,4.06,1.54,5.65,3,2.87,6.22,5.37,10.59,6.68.23-3.09.44-6.01.67-8.92.24-3.14,1.41-4.56,4.47-5.07,4.64-.77,9.33-.17,13.02,2.5,3.54,2.57,7.14,3.14,11.17,2.98"/>
        <g>
          <path class="cls-2" d="M381.51,603.08c-.97,1.26-.3.34-1.68.14-1.11-.16-2.25-.22-3.36-.35-1.94-.23-5.16-.17-6.95-1.1-.32-.17-2.08-2.22-1.92-1.28.11.7-.86.34.86.01s4-1.78,5.46-1.14,2.94,3.16,3.87,4.26l3.6,4.26c3.06,3.62,11.17-2.04,7.69-6.15-2.3-2.72-4.48-5.63-7.04-8.1-5.01-4.83-14.98-2.12-20.15,1.8-5.89,4.46-3.3,12.21,3.22,14.11,4.42,1.29,9.36,1.55,13.93,1.82s7.25-1.34,9.9-4.81c3.97-5.19-4.28-7.61-7.43-3.48Z"/>
          <path class="cls-2" d="M566.89,295.2c2.69-.53,7.82-.46,10.03-1.98.09-.06.46-.02.54-.11l-1.69-.32c-1.45-.84-2-.65-1.64.57-.57,1.21.33,4.76.48,6.21.36,3.29,1,6.59,2.54,9.55,6.78,13.01,25.01,14.24,37.85,14.58,13.58.36,34.11-2.35,41.49,12.44,3.63,7.26,3.63,16.62,4,24.56.4,8.45,2.2,17.91.88,26.28-1.2,7.56-6.17,12.12-11.76,16.81-6.02,5.05-11.77,10.31-16.14,16.9-4.03,6.06-6.77,12.74-8.17,19.88-1.49,7.64-3.83,14.77-8.6,21.05-4.28,5.64-9.13,9.87-11.12,16.95-1.77,6.28-1.77,14.29.75,20.37s14.35,12.71,8.19,18.89c-4.31,4.33-11.96,8.63-11.07,15.89.46,3.76,3.48,7.2,5.36,10.36.89,1.5,2.34,3.34,2.68,5.08.51,2.67-.98,2.68-3.38,3.14-9.55,1.85-20.48-.63-29.82-2.66-4.97-1.08-9.9-2.35-14.82-3.62-4.01-1.04-8.28-1.85-11.77-4.2-8.18-5.48-6.26-18.32-6.7-26.96-.07-1.37-1.49-2.56-2.8-2.67-3.87-.32-8,.83-9.15,5.04-1.55,5.68,3.25,11.86-2.5,15.87-3.22,2.24-10.79,5.05-14.68,3.04-7.2-3.73,2.07-11.51,3.29-15.98.52-1.92-1.11-3.3-2.76-3.7-7.95-1.92-16.26-4.3-22.87,2.15-5.7,5.56-6.9,13-7.08,20.59-.09,3.81.74,9.92-2.32,12.56-3.31,2.86-8.2,3.65-11.45,6.75-1.81,1.73-3.31,3.9-5.06,5.74-.74.78-1.48,1.56-2.29,2.27,1.43-1.24-.84.56-1.26.85l3.61-1.41c-7.6.77-15.17.74-22.77,1.28-4.82.34-10.55,2.1-11.2,7.81-.56,4.93,4.52,11.34,6.61,15.58.57,1.15,1.97,3.04,2.06,4.35s-.84,2.65-1.18,3.84c-.1.36-1.04,4.13-.73,4.31,2.45-.31,2.7-.8.74-1.46l-1.28-.74c-5.55-3.47-9.98-10.17-10.79-16.83-.71-5.82,3.68-11.76.36-17.37-2.75-4.64-8.76-8.99-12.91-12.36-5.06-4.11-10.75-7.4-15.72-11.63-4.55-3.88-9.71-9.19-12.21-14.69-2.13-4.7-2.82-9.12-8.76-10.28-4.32-.84-8.56.08-11.7,3.25-2.73,2.75-3.14,5.24-3.28,8.83-.1,2.7-.77,6-.32,8.66.3,1.76,1.42,2.81,2.58,4.09,3.01,3.34,6.19,6.55,9.28,9.82,4.46,4.71,8.77,10.19,13.89,14.21,2.18,1.71,4.55,3.12,7.18,4.03,2.79.96,5.87.96,8.47,2.44.45.25,4.05,2.85,3.64,3.65-.05.11-3.16.97-3.57,1.12-1.92.67-3.81,1.05-5.41,2.43-1.27,1.09-2.04,2.42-2.55,4-.7,2.16.2,5.79-1.28,7.38-1.72,1.85-2.82.8-2.89-.87-.05-1.34.77-2.76.89-4.1.37-4.42-2.9-8.13-5.96-10.91-1.87-1.7-3.93-3.21-5.59-5.13-1.9-2.21-3.16-4.42-5.62-6.13-4.73-3.3-10.62-2.72-15.44-5.52-4.56-2.65-7.3-7.39-9.34-12.08-2.67-6.13-8.35-5.29-14.36-5.19-3.55.06-5.39,1.46-8.64,2.35s-7.05.34-10.32.6c-4.99.4-10.01,1.74-11.96,6.91-.83,2.21-.71,4.62-1.61,6.83-1.08,2.67-3.05,4.89-5.09,6.88-4.23,4.09-8.3,7.75-10.91,13.14-2.94,6.07-4.64,13.12-8.89,18.45-3.99,5.01-9.66,9.03-15.33,11.91-5.36,2.72-11.19,4.45-17.13,5.29-3.24.45-6.5.61-9.77.66-2.98.05-6.82.56-9.7-.3-6.57-1.96-8.89-11.23-9.67-17.12-1.12-8.47-1.78-17.6-.94-26.11.6-6.11,1.99-12.65,5.75-17.65,4.06-5.41,10.78-7.39,17.13-8.78,7.31-1.59,14.75-.53,22-1.8,7.62-1.34,7.03-9.36,7.77-15.47.41-3.35,1.38-7.21.1-10.48-1.06-2.71-3.16-4.42-5.36-6.19-2.87-2.31-5.78-4.99-9.09-6.61-1.03-.5-2.85-.85-3.62-1.75-.73.66-.86.5-.38-.48.08-.22.17-.44.26-.65.94-2.33-.06-4.03-2.4-4.73l-4.89-1.46,2.8,2.67-.1-.92-2.65,2.58c5-2.86,11.33-4.08,16.67-6.32,5.9-2.47,11.64-5.34,17.35-8.21s11.92-5.17,17.24-8.75c3.21-2.16,6.16-4.77,8.4-7.95,3.01-4.25,3.55-8.92,4.77-13.86,1.05-4.25,2.67-9.75,6.81-12.07,2.39-1.34,5.18-1.1,7.82-1.2,3.4-.13,6.8-.42,10.2-.63,2.23-.14,6.28-2.45,5.53-5.33-1.57-6.03-4.15-12.37-4.52-18.6-.34-5.65,1.9-14.79,7.69-17.39,5.44-2.44,4.56,10.01,4.75,13.17.34,5.86-.35,12.84,3.06,17.95,3.02,4.52,7.61,4.63,12.54,4.94,5.93.37,10.85.34,16.34-2.32s10.23-6.24,16.48-7.71c2.78-.66,5.72-1.13,8.58-1.21,2.3-.06,3.1-.42,4.19,1.68.5.96.61,2.39,1.05,3.42,1.59,3.78,7.51,1.06,8.81-1.51,1.75-3.46,3.02-7.1,3.54-10.95.45-3.33.37-6.4,1.88-9.52,1.37-2.84,3.55-5.58,6.22-7.31,3.34-2.16,6.74-1.38,10.47-.69,2.99.55,5.75-1.52,6.66-4.24,2.08-6.26-6.73-5.49-8.38-10.39-.98-2.92-.93-8.16,1.95-10.01s8.41-1.04,11.55-1.09c3.93-.06,7.31-.52,10.37,2.3,2.29,2.12,4.31,4.07,7.47,4.82,5.39,1.28,10.8-1.34,14.03-5.67,2.78-3.72,6.89-11.62,4.21-16.11-3.47-5.82-11.92-5.63-17.79-5.44-7.87.26-15.82,1.17-23.69.87-5.05-.19-9.99-1.53-12.73-6.13-3.41-5.74-4.08-14.73-3.51-21.25.74-8.43,5.72-16.1,9.51-23.49,3.09-6.03,18.59-31.77,2.08-31.29-5.6.16-11.01,5.1-13.9,9.58-3.75,5.81-4.22,13.13-6,19.67-2.05,7.5-6.46,13.94-10.9,20.21-3.77,5.32-6.93,10.82-6.81,17.54.14,7.95,2.42,16.04,3.89,23.83.79,4.18,1.85,8.38,1.11,12.63s-2.79,8.03-4.6,11.75-3.6,6.98-5.58,10.36-4.08,7.86-7.21,10.49c-2.12,1.78-4.88,2.68-7.43,3.65-1.42.54-5.74,3.25-7.08,2.52-.74-.4-1.63-3.24-1.99-3.95l-2.75-5.46c-.86-1.71-1.75-3.4-2.64-5.09-2.35-4.45-4.66-8.93-6.85-13.46-1.76-3.63-3.24-10.31-6.67-12.54-5.91-3.85-11.23,4.71-14.33,8.37-1.96,2.31-3.97,3.98-7.26,3.88-3.07-.09-4-3.57-4.96-6.08-1.3-3.41-2.84-6.72-4.45-9.99-1.85-3.77-2.38-7.53-3.13-11.63-.65-3.59-1.42-7.17-2.1-10.75-.73-3.82-2.12-7.99-.74-11.79,2.24-6.19,8.56-10.81,13.8-14.32,5.71-3.83,11.1-7.7,15.9-12.66,10.29-10.65,14.65-23.63,19.97-37.07,5.53-13.97,9.86-29.07,10-44.11.07-7.44,10.02-12.16,15.41-16.05,6.06-4.37,10.79-9.67,15.9-15.07,10.39-10.99,20.04-22.59,35.83-24.97,8.18-1.23,16.91-1.28,25.17-1.01,6.93.23,17.19,1.95,21.96,7.57s1.86,11.73-.91,17.11c-1.45,2.8.94,4.78,3.57,4.79,5.58.02,11.33-.46,16.68,1.44,5.65,2,9.3,6.22,13.75,9.96,4.08,3.42,8.52,6.43,13.11,9.11,4.99,2.91,10.12,5.25,14.27,9.38,8.25,8.2,9.18,20.85-.21,28.72-8.4,7.03-23.48,4.02-31.9-1.6-2.93-1.95-11.33,1.18-8.3,5.34,2.35,3.23,5.06,5.59,5.85,9.71.87,4.55.41,9.53.31,14.13-.1,4.23-.17,7.45,2.94,10.62s6.86,5.34,10.87,6.72c2.69.93,7.44-.47,7.7-3.91.13-1.8.27-3.61.4-5.41.04-.59-.07-4.23.43-4.75.84-.87,6.84,1.02,7.7,1.44,2.42,1.19,4.38,2.79,7.01,3.59s5.48.98,8.31.93c5.19-.08,8.1-8.16,1.56-8.06-5.14.08-7.81-2.6-12.26-4.35-3.93-1.54-8.42-1.84-12.56-1.04-9.74,1.87-9.4,9.96-10.01,18.18l7.7-3.91c-3.27-1.12-8.32-3.29-10.07-6.56-.93-1.74-.25-5.09-.21-6.97.04-2.07.07-4.14.07-6.21,0-3.5-.1-6.92-1.23-10.26-1.2-3.54-3.47-5.5-5.6-8.41l-8.3,5.34c10.83,7.23,27.22,10.42,39.34,4.52s19.97-20.11,15.28-33.22c-5.25-14.65-21.42-18.84-32.57-27.63-5.76-4.54-10.34-10.05-17.39-12.68s-13.91-2.18-21.1-2.21l3.57,4.79c4.94-9.57,6.74-21.42-4.06-27.87-13.31-7.94-29.36-6.84-44.22-5.87-13.39.87-25.39,5.76-35.24,14.93-5.55,5.17-10.71,10.81-15.85,16.38s-10.24,10.13-16.39,14.5c-5.03,3.57-11.18,7.57-14.21,13.12-3.24,5.93-1.04,13.71-2.43,20.19-3.17,14.79-8.99,28.62-13.94,42.82-4.59,13.14-14.56,22.9-25.9,30.42-9.43,6.25-21.05,15.83-19.4,28.49,1.05,8.01,2.63,16.47,4.58,24.31.9,3.64,2.7,6.81,4.24,10.19s2.53,7.28,4.52,10.43c3.48,5.5,8.14,5.78,13.96,4.65,3.24-.63,5.93-.9,8.52-3.16,1.54-1.34,2.85-3.06,4.17-4.61.54-.64,3.28-4.81,3.5-4.86l-3.44-.18c1.13.63,2.27,5.31,2.84,6.56,1.34,2.93,2.77,5.81,4.21,8.68,1.9,3.77,3.9,7.48,5.85,11.23,3.19,6.14,6.08,17.38,15.19,15.6,3.26-.64,6.52-2.8,9.63-4,3.38-1.3,6.74-2.65,9.63-4.87,6.48-4.96,10.61-13.91,14.34-20.97s8.4-15.7,7.7-24.32c-.78-9.53-3.87-18.83-4.96-28.33s4.98-15.37,9.74-22.88,7.07-14.34,8.95-22.53c.91-3.95,1.49-8.5,4.15-11.71.77-.93,2.07-2.91,2.91-1.61.76,1.17-1.87,6.73-2.31,7.76-3.52,8.21-8.21,15.99-12.16,24s-5.37,16.65-4.14,25.92c.83,6.29,2.09,13.11,6.9,17.68,4.15,3.94,9.96,5.2,15.5,5.43,9.25.39,18.47-1.04,27.71-.88,2.11.04,6.32-.12,7.62,1.92.75,1.18-.56,3.81-1.37,5.65-.69,1.57-1.39,3.9-3.33,3.87s-4.02-3.11-5.36-4.22c-3.26-2.71-6.81-3.2-10.92-3.23-4.82-.04-9.78-.07-14.57.55-8.05,1.05-14.21,6.67-14.91,14.99-.3,3.56.21,7.58,2.26,10.59.83,1.22,1.85,2.14,3.06,2.96.65.44,1.27.82,1.97,1.16l1.11.45c1.4.72,1.56.52.5-.58l6.66-4.24c-9.81-1.79-17.71,0-24.62,7.55-2.87,3.13-5.16,6.99-6.3,11.09-1.55,5.58-1.08,10.86-3.79,16.23l8.81-1.51c-1.19-2.84-1.21-5.29-3.91-7.23s-5.64-1.61-8.67-1.39c-6.92.49-13.75,1.86-20.1,4.7-3.5,1.56-6.47,3.98-9.92,5.6-3.8,1.79-7.34,1.13-11.38.95-5.8-.26-6.81-3.34-7.22-8.89-.3-4.1-.39-8.22-.69-12.32-.42-5.64-.48-12.7-6.76-14.97-5.65-2.05-12.29,1.65-16.19,5.55-4.78,4.77-7.74,11.73-8.21,18.43-.55,7.8,2.55,15.35,4.49,22.79l5.53-5.33c-7.04.43-15.33-.36-21.88,2.67-4.94,2.28-8.72,6.42-11.04,11.3-2.78,5.84-2.39,13.62-6.01,18.85-2.63,3.8-6.83,6.25-10.94,8.12-9.78,4.46-22.44,11.35-33.73,15.41-4.8,1.73-13.88,2.96-14.2,9.47-.24,4.87,4.22,5.17,7.91,6.27l-2.4-4.73c-.76,1.89-1.84,4.28-1.09,6.32,1.26,3.42,6.32,4.53,9.09,6.29,2.98,1.9,9.29,5.77,9.99,9.48.51,2.69-.62,6.31-.96,9.01-.32,2.55-.38,5.32-1.18,7.76l1.88-2.89-.74.54,3.61-1.41c-6.98,1.02-14.1.35-21.12,1.57-6.44,1.12-13.21,2.94-18.84,6.37-10.47,6.4-14.98,18.02-15.98,29.82-.62,7.41-.08,14.83.48,22.23.51,6.7,1.57,13.48,5.16,19.31,6.9,11.22,21.72,9.48,33.16,7.82,13.5-1.96,26.17-7.6,36.17-16.97,4.83-4.52,7.83-9.41,10.46-15.42,3.03-6.92,5.35-12.99,11.01-18.16,4.28-3.92,8.27-8.22,10.04-13.88.36-1.15.31-3.36.9-4.31.69-1.13-2.53,1.28.6-.48.56-.32,2.16-.14,2.81-.18,3.39-.19,6.85-.11,10.19-.78,1.41-.29,2.77-.69,4.08-1.32,1.83-.89,2.68-.84,4.78-.69,1.02.07,3.68-.44,4.5.19.88.67,1.55,3.79,2.13,4.86,2.6,4.79,6.34,9.19,11.26,11.69,5.74,2.91,12.38,1.88,16.66,7.44,3.21,4.17,8.41,7.15,11.05,11.64,1.85,3.15-1.16,6.73-.11,10.27,1.72,5.79,8.16,5.27,12.73,3.67,5.28-1.85,9.43-5.21,9.85-11.03.04-.55.46-3.18.23-3.52-.79-1.15-.01.9-1.28.73.45.06,1.4-.4,1.81-.49,3.11-.71,6.8-2.44,9.06-4.69,4.11-4.09,2.3-9.1-1.63-12.58-4.99-4.42-11.97-3.56-17.14-7.54-6.13-4.72-11.23-11.4-16.54-17.01-2.09-2.21-6.37-5.26-7.52-8.07.28.7.22-2.28.24-2.97l.2-5.59c.02-.46-.18-1.78.08-2.22-.03.04.45.73.8.99,1.24.93,1.91.71,2.78,2.31.65,1.2.84,2.68,1.35,3.95,1.18,2.9,3.11,5.43,5.1,7.83,9.21,11.15,21.79,17.91,32.16,27.83,3.06,2.92,4.76,4.16,4.22,8.59-.4,3.28-1.5,6.62-1.3,9.95.34,5.79,4.11,13.56,8.23,17.65,3.45,3.43,9.8,8.26,14.89,7.09,7-1.61,6.12-7.49,8.01-12.88.98-2.78,1.71-3.94.71-6.88-1.15-3.39-3.08-6.63-4.71-9.81-.82-1.61-1.59-3.29-2.51-4.84-1.14-1.93-1.31-1.26,1.01-1.16,4.42.19,9-.17,13.41-.51,3.19-.25,6.93-.12,9.9-1.38.43-.18,2.2-1.46.9-.57.82-.56,1.53-1.07,2.28-1.72,3.05-2.66,5.38-6.56,8.66-8.78,5.18-3.49,11.91-4.93,14.29-11.41,2.18-5.93.59-13.01,1.53-19.18.47-3.1,1.65-7.75,4.83-9s8.1.91,11.41,1.71l-2.76-3.7c-.86,3.17-4.5,5.46-5.58,8.75-.94,2.88-.57,6.1.72,8.84,2.91,6.22,9.71,6.67,15.79,6,6.6-.74,12.91-3.37,17.85-7.85,2.3-2.08,4.45-4.5,4.83-7.71.17-1.47-.19-2.87-.38-4.31-.19-1.16-.35-2.33-.46-3.5.36-2.69-1.05-2.96-4.22-.81l-2.8-2.67c.44,8.48-.86,19.23,4.39,26.44,4.49,6.16,11.76,8,18.76,9.82,9.54,2.48,19.11,4.95,28.9,6.17,8.43,1.05,18.18,2.21,26.2-1.36,6.47-2.88,9.23-8.91,6.02-15.37-1.76-3.54-5.12-6.97-6.32-10.71-1.36-4.25,4.53-7.23,7.22-9.76,6.15-5.8,7.14-12.16,1.8-18.9-2.44-3.08-5.74-5.62-7.21-9.37-1.58-4.01-1.61-9.39-.89-13.59,1.4-8.19,8.34-13.09,12.59-19.8,4.47-7.06,6.32-14.53,8.09-22.58,1.94-8.83,6.63-16.66,13.01-23,5.79-5.75,13.08-10.1,17.77-16.89,4.37-6.32,5.54-13.23,5.2-20.77-.46-9.96-.61-20.09-1.75-30-.88-7.69-2.25-15.61-7.58-21.56-4.46-4.98-11.07-7.66-17.45-9.11-10.52-2.38-21.49-.89-32.15-1.64-8.68-.61-20.88-1.9-25.75-10.31-2.35-4.07-2.29-8.92-2.67-13.47-.32-3.78-1.43-6.55-5.79-6.41-3.91.12-8.08,1.55-11.91,2.31-5.63,1.11-5.49,8.91.91,7.65h0Z"/>
        </g>
      </g>
      <path class="cls-2" d="M243.35,426.47c9.49-.54,7.22-12.02,6.88-18.35-.26-4.76.42-11-.97-15.55-.27-.89.51-2.64-.74-.01-1.15,2.42-.41.91.85.65,2.13-.44,4.22-1.07,6.4-1.44l-3.76-3.93c-.1,3.98-.77,9.05,1.16,12.74,1.7,3.26,5.36,4.3,8.59,5.42l-1.55-4.91c-2.69,8.01-7.17,16.45-3.63,24.96,1.72,4.14,5.13,7.55,7.52,11.32,2.17,3.44,4.45,6.55,7.45,9.32s5.89,5.52,9.33,7.39c2.03,1.1,2.6,1.16,3.07,3.61.07.78.15,1.56.23,2.33.6-1.02.32-1.14-.85-.36-2.01.01-5.03,1.77-6.9,2.51-2.27.89-4.53,1.84-6.73,2.9-4.19,2.02-8.11,4.51-12.13,6.83l4.1,6.06c2.72-6.07,8.16-11.16,4.38-18.03-3.37-6.12-8.6-6.6-14.63-3.62l3.03-.1c-3.03-.99-6.07-1.97-9.1-2.96l.35,7.28c3.97-5.83,8.73-11.53,12.14-17.7,1.16-2.1,1.72-4.6.85-6.91-.92-2.44-3.8-4.18-4.26-6.81l-.63,3.65.46-1.14c.72-1.77,1.15-3.97-.26-5.55l-7.28-8.14c-3.54-3.95-9.35,4.11-6.16,7.68,2.43,2.71,4.85,5.43,7.28,8.14l-.26-5.55c-2.33,5.73.68,7.24,2.75,12.19l.51-.59c-.52.75-1.04,1.5-1.56,2.26-.87,1.25-1.74,2.51-2.6,3.76-2.08,3.01-4.15,6.03-6.21,9.05-1.1,1.62-2.72,6.29.35,7.28s6,2.27,9.05,2.94,5.86-2.57,8.37.02c1.56,1.61.89,2.06-.17,3.59-1.26,1.8-2.17,3.84-3.06,5.84-1.22,2.73,0,8.43,4.1,6.06,4.55-2.63,8.99-5.43,13.79-7.6,4.4-1.99,9.32-3.11,13.59-5.31,6.36-3.28,7.2-11.79,4.34-17.84-1.76-3.72-5.58-4.58-8.61-6.97-4.2-3.32-7.93-6.94-10.8-11.48-2.4-3.81-6.74-8.02-7.77-12.38-1.29-5.47,2.53-11.91,4.24-17.01.48-1.44.21-4.3-1.55-4.91-1.53-.53-4.79-1.1-5.84-2.48-1.39-1.83-.44-6.27-.39-8.33.05-2.2-1.28-4.36-3.76-3.93-6.12,1.06-14.3,2.56-15.12,10.09-.44,4.08.47,8.54.71,12.61.16,2.65.3,5.3.44,7.96.04.81-.22,4.17.28,4.97-.18,1.38.21,1.38,1.18,0,1.51-.91,1.54-1.22.1-.93-4.7.27-6.35,9.74-.55,9.41Z"/>
      <path class="cls-2" d="M566.87,287.17c-4.85.07-7.65-2.82-11.92-4.41-4.04-1.51-8.72-1.79-12.94-.96-9.45,1.86-8.59,10.06-9.18,17.99l7.26-3.8c-3.54-1.22-8.75-3.63-9.43-7.75s.23-8.9.16-13.07c-.05-3.29-.37-6.55-1.58-9.64-1.28-3.27-3.75-5.37-5.76-8.13-2.5,1.71-4.99,3.42-7.49,5.12,10.84,7.23,27.83,10.28,39.88,4.38,12.1-5.92,19.41-20.44,14-33.31-5.92-14.07-21.77-18.31-32.87-27.07-5.86-4.63-10.38-9.97-17.59-12.62s-14.18-2.12-21.45-2.14l4.73,5.3c2.54-4.91,4.92-9.63,4.23-15.34s-3.92-10.24-8.83-13.03c-13.23-7.51-28.24-6.83-42.93-6-13.77.78-26.04,5-36.33,14.38-11.11,10.13-19.84,22.26-32.2,31-5.07,3.58-11.38,7.51-14.43,13.12-3.2,5.89-.87,14.03-2.41,20.47-3.51,14.61-8.99,28.28-13.87,42.41-4.7,13.61-15.19,23.46-26.83,31.27-9.36,6.28-20.23,15.51-18.21,28.01,1.3,8.04,2.53,16.53,4.67,24.39,1.04,3.79,3.06,7.2,4.64,10.78,1.44,3.24,2.34,6.81,4.4,9.73,3.79,5.36,8.87,5.51,14.81,4.38,3.33-.63,5.9-.91,8.47-3.33,1.38-1.3,2.59-2.86,3.81-4.31.7-.83,3.06-4.79,3.91-5l-4.92-.59c1.25.69,2.28,5.01,2.9,6.38,1.34,2.93,2.77,5.81,4.21,8.68,1.9,3.77,3.91,7.48,5.85,11.23,3.26,6.3,6.16,17.28,15.29,16.42,3.55-.33,6.99-2.73,10.28-3.99s6.59-2.55,9.49-4.65c6.47-4.68,10.44-13.41,14.09-20.31,4.07-7.7,8.72-16.14,7.75-25.12s-3.82-18.19-4.87-27.41c-1.14-9.91,5.12-15.86,10.04-23.69,4.51-7.18,6.89-14.45,8.81-22.64.91-3.86,1.54-8.2,4.08-11.39.85-1.07,3.07-2.57,2.88-3.11.12.34-1.75,5.57-2.18,6.76-3.09,8.47-8.23,16.43-12.23,24.5s-5.96,16.35-4.83,25.78c.77,6.4,1.89,13.44,6.57,18.26,10.23,10.55,29.4,5.92,42.28,5.55,1.99-.06,7.33-.62,8.7,1.17,1.22,1.61-.52,4.87-1.37,6.77-.68,1.53-1.77,3.99-3.64,3.96-1.55-.03-3.28-2.82-4.47-3.81-6.7-5.56-18.54-4.09-26.61-3.02s-13.71,6.52-14.12,14.8c-.18,3.52.55,7.62,2.84,10.43s5.54,3.76,8.76,5.26l-2.46-2.06-.13-.05,5.94-3.08c-9.54-1.74-17.5-.23-24.22,7.19-2.67,2.95-4.85,6.46-5.98,10.3-1.63,5.52-1.01,10.99-3.71,16.33l9.18.2c-1.16-2.76-1.29-5.26-3.77-7.25s-5.35-2.21-8.48-2.09c-7.44.28-14.97,1.75-21.78,4.81-3.26,1.47-6.08,3.62-9.24,5.24-3.64,1.87-6.78,1.56-10.72,1.32-2.79-.17-4.97.22-6.3-2.77-.76-1.72-.82-3.69-.96-5.53-.33-4.42-.41-8.85-.76-13.26-.46-5.8-.87-12.23-7.17-14.55-5.75-2.11-12.25.95-16.4,4.95-4.92,4.74-7.72,12-8.04,18.73-.36,7.71,2.87,15.39,4.79,22.74l4.45-5.1c-6.85.42-14.86-.3-21.29,2.44-5.15,2.2-8.8,6.33-11.09,11.36-2.72,5.95-2.32,13.65-6.21,18.9-2.73,3.68-6.8,6.22-10.92,8.09-10.46,4.76-21.41,10.88-32.51,14.98-4.47,1.65-14.39,2.83-14.93,8.84-.45,4.98,4.15,5.53,7.82,6.63l-2.61-4.05c-.7,1.74-1.52,3.93-.69,5.76,1.45,3.24,6.35,4.4,9.07,6.06,3.51,2.14,9.66,6.03,9.85,10.38.11,2.57-.53,5.32-.85,7.86-.15,1.16-.32,6.23-.76,6.56l3.44-1.36c-4.84.71-9.9.26-14.79.71-5.26.48-10.52,1.49-15.55,3.1-8.08,2.58-15.27,6.8-19.52,14.4-4.37,7.81-5.55,16.98-5.54,25.8,0,9.89.05,21.35,4.07,30.57,3.73,8.56,9.95,12.63,19.19,12.75s19.25-.39,28.49-3.31c8.91-2.82,17.2-7.57,24.1-13.89,7.67-7.04,10.22-15.92,14.65-25.02s14.53-13.08,17.1-23.19c.71-2.79-.17-4.21,2.92-4.69,2.82-.44,5.77-.17,8.62-.42,6.25-.56,11.43-3.47,17.94-2.17l-3.11-1.49c1.85,1.59,2.51,5.29,3.85,7.44,1.11,1.77,2.33,3.52,3.75,5.06,3.36,3.64,7.64,6.14,12.47,7.22,2.72.61,5.51.84,7.9,2.41,2.26,1.49,3.44,3.96,5.23,5.91,3.15,3.44,8.75,6.16,9.77,11.06s10.97,4.04,9.97-.75c-1.13-5.41-4.61-8.53-8.59-12.07-4.21-3.74-6.77-8.69-12.02-11.2s-11.52-2.01-15.97-6.55c-2.17-2.21-3.88-4.85-5.14-7.67-1.1-2.46-1.67-4.94-4.27-6.24-2.8-1.4-6.7-.84-9.7-.91-3.81-.1-6,.36-9.41,1.77-5.93,2.46-13.16-.45-19,2.72-5.35,2.9-3.97,8.85-6.73,13.5-3.07,5.16-8.51,8.31-12.06,13.12-4.01,5.44-5.87,12.33-8.73,18.39s-8.54,11.06-14.25,14.74c-5.93,3.83-12.58,6.39-19.52,7.67-6.18,1.14-14.28,2.18-20.5.97s-8.9-10.39-9.72-15.92c-1.08-7.3-1.47-15.03-1.32-22.41.26-13.06,4.08-25.81,17.45-30.33,8.08-2.73,16.39-3.21,24.84-3.39,2.9-.06,6.2-.07,8.22-2.52,2.18-2.65,1.82-7.75,2.22-11.01.43-3.46,1.5-7.51.44-10.94-.92-2.99-3.19-4.96-5.55-6.85-3.04-2.44-6.09-5.2-9.56-6.94-.34-.17-4.19-1.7-3.79-.87-.21-.44.65-2.08.85-2.55.7-1.74-1.08-3.59-2.61-4.05l-4.89-1.46,2.71,3.04c-.33-1.35-1.04-.36,1.32-.87,1.4-.3,2.8-.97,4.14-1.44,2.59-.92,5.16-1.88,7.7-2.92,5.84-2.38,11.51-5.16,17.16-7.97,6-2.99,12.73-5.49,18.33-9.21,3.2-2.12,6.14-4.64,8.41-7.76,3.07-4.22,3.48-9.15,4.76-14.07,1.19-4.57,3.03-10.07,7.48-12.47,2.18-1.17,4.54-1.07,6.93-1.15,3.7-.13,7.39-.43,11.09-.66,2.83-.17,5.21-2.19,4.45-5.1-2.89-11.09-9.1-27.63,3.35-35.66,3.42-2.2,3.29.28,3.69,3.48s.54,6.31.71,9.46c.32,5.69-.33,12.59,3.23,17.46,3.28,4.5,7.99,4.81,13.13,5.11,5.51.33,10.24.55,15.44-1.71,5.67-2.47,10.26-6.28,16.35-7.95,2.76-.76,5.58-1.2,8.43-1.46,1.78-.16,3.37-.76,4.55.92.52.74.65,2.57,1.01,3.43,1.32,3.15,7.64,3.25,9.18.2,1.76-3.48,3.06-6.98,3.62-10.85.52-3.61.43-6.89,2.1-10.25,1.53-3.07,3.99-6,6.91-7.81,3.28-2.04,6.66-1.28,10.28-.61,2.27.41,5.18-.79,5.94-3.08,2.16-6.51-6.33-5.48-8.19-10.07-1.25-3.07-.99-7.96,1.34-10.49,2.45-2.66,7.73-2,11.07-2.08,3.61-.09,7.73-.84,10.63,1.58,2.49,2.08,4.39,4.25,7.62,5.26,5.21,1.63,10.84-.14,14.31-4.31,2.97-3.58,7.1-11.44,4.58-15.96-3.29-5.89-11.49-6.26-17.4-6.17-7.89.12-15.76,1-23.65.94-5.11-.04-10.32-.81-13.21-5.52-3.42-5.57-3.92-14.11-3.62-20.49.41-8.81,5.52-16.69,9.45-24.35,3.61-7.05,18.51-30.24,2.28-31.78-5.64-.54-11.18,4.04-14.23,8.42-3.95,5.69-4.39,13.1-6.15,19.62-1.99,7.38-6.1,13.79-10.49,19.96-3.85,5.41-7.34,10.87-7.27,17.77.07,7.93,2.42,16.06,3.89,23.83.79,4.16,1.87,8.41,1.17,12.65s-2.7,8.12-4.52,11.84c-3.33,6.83-7.14,15.25-12.42,20.78-2.06,2.16-4.78,3.27-7.52,4.33-1.52.59-3.05,1.15-4.55,1.78-.26.11-3.46,1.56-2.59,1.59.03,0,.42.26-.24-.52-.5-.59-.85-1.68-1.19-2.36l-2.79-5.55c-.87-1.73-1.75-3.45-2.66-5.16-2.28-4.31-4.53-8.64-6.67-13.03-1.87-3.83-3.3-10.11-6.31-13.12-5.11-5.12-10.54.24-13.85,4.24-2.57,3.11-4.65,6.25-8.96,6.62-1.36.12-1.02.39-2.05-.22-1.47-.86-2.02-3.53-2.58-5-1.3-3.41-2.84-6.72-4.45-9.99-1.85-3.77-2.42-7.52-3.17-11.62-.65-3.59-1.42-7.17-2.1-10.75-.72-3.78-2.08-7.91-.88-11.71,1.97-6.28,8.25-11.23,13.46-14.79,5.7-3.88,11.33-7.58,16.15-12.56s8.93-10.6,12.12-16.76,5.02-13.02,7.7-19.43c5.9-14.13,9.91-29.46,10.38-44.72.24-7.74,8.95-12.15,14.69-16.23,6.26-4.44,11.14-9.63,16.39-15.18,10.26-10.85,19.93-22.75,35.37-25.65,7.98-1.5,16.67-1.45,24.77-1.3,7.11.13,17.44,1.39,22.49,7.04,4.65,5.2,2.06,11.85-.69,17.17-1.78,3.45,1.72,5.29,4.73,5.3,5.48.02,11.1-.44,16.34,1.5,5.57,2.07,9.31,6.53,13.77,10.21,4.21,3.47,8.74,6.5,13.49,9.18,4.98,2.81,9.98,5.23,13.9,9.53,7.9,8.64,7.42,21.16-1.86,28.71-8.62,7.02-22.96,4.03-31.52-1.68-3.34-2.23-10.74.66-7.49,5.12,2.55,3.5,4.96,5.72,5.52,10.27s.16,9.71.06,14.48c-.09,4.32.73,7.04,4.06,9.93s6.69,4.92,10.76,6.32c3,1.03,7-.32,7.26-3.8.16-2.15-.54-8.68,1.03-10.13,1.43-1.32,7.04.88,8.19,1.53,5.16,2.91,9.39,4.31,15.42,4.22s5.62-7.57-.57-7.48h0Z"/>
      <path class="cls-2" d="M466.75,574.28c3.64-1.44,6.76-5.33,9.42-8.08,4.66-4.8,12.54-6.08,16.1-12.02s1.85-14.11,2.54-20.77c.34-3.3,1.51-8.01,4.63-9.85,4-2.36,10.06.39,14.11,1.37l-2.81-6.73c-.99,3.61-4.86,6.01-5.93,9.78-.91,3.21-.47,6.62.72,9.69,2.54,6.5,8.21,7.67,14.58,7.17,6.53-.52,12.71-3.13,17.5-7.64,2.35-2.21,4.16-4.89,4.48-8.19.15-1.57-.19-3.07-.39-4.62-.19-1.16-.35-2.33-.46-3.5.28-2.32-.35-2.4-1.89-.23l-3.14-4.09c.44,8.53-.73,19.11,3.98,26.63,3.99,6.38,10.74,8.75,17.66,10.56,9.83,2.57,19.71,5.18,29.8,6.53,8.07,1.08,18.5,2.6,26.08-1.3,6.04-3.11,7.58-9.99,4.97-15.95-1.57-3.58-4.93-6.88-6.1-10.55-.7-2.19-.96-1.65,1.04-3.75,1.65-1.74,3.69-3.12,5.46-4.73,6.08-5.57,7.74-13.22,2.79-20.15-2.22-3.11-5.48-5.58-7.36-8.89-2.01-3.54-2.13-8.48-1.64-12.46,1.05-8.55,8.44-13.51,12.74-20.45,4.38-7.07,6.19-14.55,7.97-22.56,1.97-8.85,6.69-16.55,13.08-22.89,5.93-5.88,13.36-10.33,18.05-17.37,4.11-6.17,5.38-13.28,5.06-20.58-.43-9.96-.65-20.08-1.7-30-.83-7.82-2.02-16.18-7.01-22.54-4.18-5.32-10.26-8.31-16.68-10.05-10.41-2.82-21.41-1.37-32.05-1.97-8.75-.49-21.49-1.38-27.06-9.33-2.67-3.82-2.53-8.71-2.9-13.16-.28-3.3-.79-7.49-4.96-7.77-3.7-.25-8.07,1.45-11.69,2.16-4.68.92-4.47,10.85.79,9.81l5.34-1.05c1.16-.23,2.33-.41,3.48-.69.35-.08.89-.07,1.22-.24.98-.52.19.92-.61-.13l-1.34-3.18c1.06,6.51.45,13.01,3.64,19.04,2.57,4.85,6.99,8.4,12.05,10.4,15.73,6.23,32.22,2.38,48.41,5.05,6.14,1.01,12.83,3.32,16.86,8.35,4.65,5.8,4.96,14.63,5.4,21.74.5,8.11.88,16.23,1.25,24.35.33,7.12-1.5,12.82-6.71,17.86s-11.68,9.46-16.62,15.23c-4.51,5.26-8.11,11.22-10.49,17.74s-2.82,13.84-5.66,20.4-8.02,11.18-12.14,17.04c-6.97,9.9-7.98,26.44-.36,36.24,1.73,2.22,6.41,5.49,6.86,8.29.54,3.37-5.82,6.78-7.88,8.81-4.08,4.03-6.44,9.72-4.1,15.26,1.66,3.93,4.61,7.22,6.43,11.07,1.03,2.19.61,2.14-1.73,2.9s-5.08,1.03-7.58,1.08c-9.17.2-18.55-1.6-27.45-3.62-7.84-1.78-17.82-2.92-24.7-7.33-7.86-5.04-5.98-17.44-6.4-25.62-.09-1.68-1.23-3.93-3.14-4.09-3.89-.32-6.39,1.95-7,5.82-.4,2.53.03,5.32.36,7.84.5,3.8.6,4.42-2.8,6.77-4.16,2.88-9.5,4.22-14.55,3.84-9.36-.7-.14-9.08,1-13.27.71-2.61.24-5.99-2.81-6.73-7.35-1.78-15.1-4.26-20.99,2.04-5,5.35-6.49,12.69-6.63,19.75-.06,3.09.77,8.71-.7,11.57-.85,1.67-3.91,2.62-5.43,3.43-2.04,1.09-4.41,2.09-6.26,3.48s-2.96,3.24-4.53,4.8c-.98.98-1.98,1.94-3,2.88-.44.4-3.14,2.22-1.3,1.49-4.4,1.74-4.01,11.72.79,9.81h0Z"/>
      <path class="cls-2" d="M373.03,535.56c.14-3.9.28-7.79.43-11.69l-1.04,3.73c2.15-3.32,5.47-1.42,6.72,1.66,1.55,3.82,3.03,7,5.67,10.24,5.04,6.19,10.52,11.21,17.06,15.78,3.66,2.56,7.24,5.14,10.6,8.09,1.32,1.16,2.61,2.34,3.88,3.55s4.38,3.28,5.1,4.96c1.52,3.56-1.27,9.16-1.27,12.98s1.92,7.64,3.41,11.25c2.75,6.64,8.26,12.29,15.14,14.84,2.51.93,5.01.23,6.94-1.58,2.94-2.76,2.49-6.26,3.48-9.79,1.04-3.73,2.5-5.7,1.15-9.67-1.19-3.53-3.25-6.92-4.94-10.22-.55-1.08-1.11-2.16-1.67-3.23-.81-1.92-1.04-2.18-.67-.79,1.12-.89,6.27-.16,7.76-.21,5.02-.14,10.01-.57,15.01-1.07,4.73-.48,6.8-10.24,1.62-9.71-4.35.44-8.7.86-13.07,1.02s-9.68-.59-13.94.77c-6.94,2.21-6.88,9.72-4.2,15.07,1.87,3.74,3.61,7.76,5.76,11.35,1.44,2.4,1.16.86.16,3.86-.61,1.83-.61,3.76-1.09,5.59.45-1.73,2.74.95,0-1.42-.56-.48-1.49-.84-2.12-1.22-1.51-.92-3.01-1.92-4.3-3.14-2.97-2.81-6.01-8.66-6.52-12.77-.89-7.21,4.35-13.91-1.37-20.27s-12.6-11.66-19.53-16.51-12.85-9.88-17.62-16.59c-3.69-5.2-3.57-12.74-11.08-14-6.32-1.06-12.37,3.43-12.91,9.93-.32,3.84-.28,7.74-.42,11.59-.08,2.27,1.92,4.1,4.14,3.52,2.53-.66,3.64-3.58,3.72-5.89h0Z"/>
      <path class="cls-2" d="M234.76,430.67c3.87,1.99,2.83,11.54,1.65,14.61-1.55,4.04-4.21,8.2-6.9,11.56-2.39,2.98-5.56,6.25-9.4,7.26-5.11,1.34-8.79-1.45-5.68-6.51,1.7-2.76,5.05-4.07,5.84-7.46.64-2.78-1.13-4.68-1.76-7.24-1.17-4.76,3.32-7.22,6.43-10.01,2.79-2.49,5.52-6.03,8.66-7.99l-3.69,1.17c-.8.05-.54-.6,0,.29.32.52,1.17,1.12,1.58,1.51l2.33,2.23c3.41,3.26,11.86-1.49,7.66-5.49-3.05-2.91-5.8-6.56-10.47-6.16-3.27.28-5.02,2.14-7.15,4.35-3.22,3.35-6.95,6.17-10.35,9.32-4.77,4.4-6.2,9.18-3.83,15.26.96,2.45,1.05,1.62-.4,3.51-1.02,1.32-2.39,2.27-3.36,3.69-1.64,2.44-2.71,5.3-2.58,8.28.31,7.18,7.81,9.39,13.95,9.19,7.08-.23,13.33-4.1,18.13-9.08s10.1-12.94,11.51-20c1.28-6.43-.08-15.71-6.37-18.94-4.31-2.21-11.37,3.81-5.82,6.65Z"/>
      <g>
        <path class="cls-2" d="M382.37,601.52c-1.75,2.29-10.25-.59-13.2-.83-.39-.04-.74-.16-1.07-.37-.87-.6-1.61-.19-2.22,1.24.11.07,1.5-.59,1.69-.66,1.17-.43,4.97-2.09,6.34-1.67,1.27.38,3.2,3.39,4.03,4.38l3.87,4.58c3.42,4.04,9.37-3.93,6.27-7.59-2.17-2.57-4.25-5.27-6.59-7.67-3.06-3.15-5.3-3.48-9.62-2.49-3.13.72-6.92,1.65-9.46,3.75-5.45,4.51-4.28,13.33,2.54,15.57,4.06,1.34,8.7,1.58,12.95,1.87s6.88-.78,9.61-4.36c1.34-1.75,2.31-4.82.56-6.66s-4.41-.78-5.71.93Z"/>
        <path class="cls-2" d="M366.32,541.45c7.22,7.66,14.29,15.54,21.76,22.96,2.85,2.82,6.04,5.23,9.85,6.56,1.77.61,3.59.78,5.39,1.25,1.07.28,2.12.66,3.08,1.19,1.14.63,2.19,2.45,3.18,2.79.57,1.04.75,1,.56-.14.25-.98,0-1.17-.75-.55-.6-.14-2.61.94-3.29,1.15-1.23.39-2.44.68-3.55,1.36-2.56,1.56-3.74,4.2-4.25,7.06-.58,3.27,0,6.78-4.83,6.51-1.22-.07-.7.14-.3-1.47.25-.99.58-1.97.87-2.95,1.85-6.29-6.03-6.49-7.64-1.03-.92,3.14-2.48,6.66-1.48,9.94,1.7,5.54,6.96,5.5,11.58,3.85s8.46-4.85,9.38-9.84c.2-1.09.38-2.49.18-3.59.02-.61.07-1.22.17-1.83-1.67,1.33-1.94,1.8-.82,1.4,1.84.46,6.62-2.34,8-3.25,3.88-2.56,6.25-7.21,4.14-11.73-2.42-5.18-7.74-7.44-12.94-8.59-7.13-1.58-11.24-6.7-16.09-11.8-5.32-5.6-10.62-11.21-15.92-16.83-3.66-3.88-9.56,4.1-6.27,7.59h0Z"/>
      </g>
      <g>
        <g>
          <path class="cls-3" d="M368.59,772.79c11.69,0,23.39-.2,35.07.1,4.66.12,6.85-1.52,8.18-5.97,3.29-11.04,7.05-21.93,11.25-34.81,1.58,4.43,2.65,7.22,3.58,10.05,2.73,8.32,5.58,16.61,8.02,25.02,1.21,4.17,3.28,5.83,7.73,5.7,10.04-.3,20.1-.11,30.15-.08,1.82,0,3.63.17,7.15.34-10.75,7.86-20.01,14.97-29.65,21.52-4.16,2.82-4.83,5.44-3.17,10.07,3.87,10.78,7.14,21.78,9.62,33.63-8.19-5.94-16.33-11.96-24.59-17.78-10.45-7.37-6.86-7.39-17.13-.14-8.34,5.88-16.54,11.97-25.95,17.18,3.5-10.86,6.76-21.81,10.6-32.55,1.7-4.76,1.23-7.62-3.23-10.6-9.55-6.4-18.68-13.44-27.98-20.21.12-.48.24-.97.37-1.45Z"/>
          <path class="cls-2" d="M367.73,777.72c9.09,0,18.19-.12,27.28-.03,5.46.05,12.38,1.47,16.73-2.77s5.14-11.73,6.88-17.13c2.55-7.93,5.21-15.82,7.8-23.74h-6.96c2.68,7.47,5.23,14.98,7.69,22.53,1.36,4.16,2.54,8.38,3.9,12.54.79,2.41,1.69,4.76,3.67,6.46,4.94,4.23,14.07,2.07,20.01,2.07,8.04,0,16.08,0,24.11.42l-1.15-8.86c-7.2,5.28-14.32,10.67-21.58,15.86-4.62,3.3-11.13,6.31-13.17,12.03-2.17,6.09,1.39,12.45,3.24,18.14,2.67,8.23,4.88,16.59,6.69,25.06,1.81-2.17,3.62-4.34,5.43-6.51-7.17-5.2-14.29-10.45-21.5-15.59-3.42-2.44-8.97-8.46-13.69-8.09-1.84.15-3.36,1.29-4.81,2.32-3.04,2.16-6.03,4.4-9.07,6.56-7.01,4.97-14.05,9.84-21.54,14.06l4.46,6.51c2.52-7.85,4.93-15.73,7.51-23.56,1.9-5.74,5.7-12.59,4.07-18.82s-8.85-9.35-13.61-12.75c-6.77-4.83-13.39-9.85-20.1-14.75l1.88,5.22.37-1.45c1.53-6.08-5.88-7.27-7.39-1.29l-.37,1.45c-.49,1.93.31,4.07,1.88,5.22,5.16,3.77,10.28,7.61,15.44,11.38,2.58,1.88,5.17,3.75,7.79,5.58,1.59,1.11,6.33,3.24,6.89,5.35.5,1.87-1.71,5.6-2.32,7.38-.92,2.7-1.81,5.41-2.68,8.13-2.04,6.34-4.01,12.7-6.04,19.04-.86,2.67.37,8.81,4.46,6.51,6.7-3.78,13.06-8.05,19.33-12.49,2.99-2.11,5.99-4.21,8.94-6.37.97-.71,3.41-3.4,4.7-3.35.84.04,2.66,1.85,3.33,2.34,2.8,2.08,5.65,4.09,8.49,6.12,6.68,4.79,13.3,9.66,19.96,14.49,3.65,2.64,5.97-4,5.43-6.51-1.42-6.68-3.09-13.3-5.06-19.84-.96-3.19-1.98-6.36-3.06-9.51-.53-1.54-2.52-5.24-2.03-6.78.53-1.66,5.5-4.02,6.96-5.05,2.71-1.92,5.4-3.88,8.08-5.84,5.58-4.09,11.12-8.23,16.7-12.32,2.34-1.71,2.72-8.66-1.15-8.86-6.47-.34-12.92-.37-19.4-.41-3.79-.02-7.58-.02-11.38.01-2.68.03-7.4,1.1-9.86-.26-2.26-1.25-2.54-5.43-3.24-7.69-1.11-3.59-2.28-7.15-3.45-10.72-2.1-6.35-4.26-12.67-6.52-18.96-1.3-3.61-5.65-4-6.96,0-2.06,6.31-4.17,12.6-6.23,18.91-.96,2.93-1.91,5.86-2.84,8.8-.79,2.52-1.22,6.1-2.6,8.35-1.25,2.03-3.24,1.71-5.51,1.68-3.9-.06-7.79-.11-11.69-.12-7.15-.01-14.29.06-21.44.06-5,0-6.56,9.86-1.72,9.85Z"/>
        </g>
        <g>
          <path class="cls-3" d="M274.1,789.57c-8.91-6.45-18.12-12.54-26.62-19.5-5.17-4.23-8.77-3.88-13.76.15-8.44,6.8-17.46,12.87-27.43,18.49,3.31-10.26,6.22-20.67,10.09-30.72,2.42-6.27,1.51-9.95-4.32-13.66-9.13-5.81-17.64-12.58-26.05-20.44,10.54,0,21.12-.56,31.61.19,7.64.55,10.99-2.09,12.85-9.4,2.6-10.24,6.4-20.17,10.2-31.8,4.13,12.61,8.01,23.63,11.28,34.83,1.38,4.73,3.59,6.44,8.54,6.29,11.67-.34,23.36-.11,35.54,1.15-9.38,6.84-18.6,13.92-28.22,20.4-4.35,2.93-5.2,5.69-3.44,10.56,3.9,10.76,7.19,21.74,10.73,32.63l-1.01.83Z"/>
          <path class="cls-2" d="M277.43,787.18c-6.94-5.01-14.03-9.81-20.86-14.98-5.09-3.86-10.07-9.16-16.95-8.96s-11.35,5.54-16.29,9.17c-6.6,4.85-13.52,9.22-20.64,13.26l8.4,4.45c2.52-7.85,4.82-15.77,7.5-23.57,1.92-5.59,5.59-11.95,3.01-17.92s-9.28-8.59-13.98-11.99c-6.42-4.64-12.46-9.76-18.27-15.15l-3.08,6.24c9.22-.03,18.46-.44,27.67-.04,5.68.25,11.95,1.07,16.61-2.95s5.31-11.22,7-16.71c2.46-7.97,5.31-15.82,7.92-23.74l-9.47-.82c2.71,8.25,5.53,16.47,8.18,24.75,1.76,5.51,2.56,13.01,7.38,16.83,5.13,4.07,12.37,2.65,18.41,2.64,8.79,0,17.56.42,26.31,1.29l-3.86-6.88c-6.51,4.76-12.95,9.61-19.5,14.32-4.44,3.19-12.16,6.55-13.92,12.26s2.17,12.08,3.82,17.03c2.62,7.84,5.06,15.75,7.6,23.62l1.07-3.63-1.01.83c-4.46,3.69,3.57,9.09,7.21,6.07l1.01-.83c1.18-.97,1.54-2.17,1.07-3.63-2.06-6.36-4.04-12.74-6.11-19.09-.98-3.02-1.99-6.04-3.03-9.05-.81-2.35-2.92-5.93-2.05-8.5.79-2.32,4.16-3.83,6.01-5.11,2.65-1.83,5.27-3.71,7.88-5.6,5.74-4.17,11.42-8.43,17.14-12.62,3.68-2.69-.89-6.59-3.86-6.88-6.9-.68-13.82-1.11-20.75-1.24-3.7-.07-7.4-.06-11.1,0-1.66.03-4.98.76-6.25-.36-1.55-1.38-1.97-5.71-2.56-7.62-.96-3.1-1.95-6.2-2.96-9.28-2.24-6.85-4.56-13.67-6.81-20.51-1.15-3.51-8.15-4.83-9.47-.82-2.16,6.58-4.49,13.1-6.63,19.69-.96,2.94-1.88,5.9-2.71,8.88-.71,2.57-1.08,5.64-2.67,7.85-2.98,4.15-10.1,2.09-14.38,2-7.91-.16-15.82.13-23.73.16-3.77.01-6.3,3.26-3.08,6.24,4.75,4.41,9.66,8.64,14.81,12.58,2.73,2.08,5.53,4.07,8.38,5.99,1.98,1.33,5.25,2.75,6.35,4.98s.14,4.57-.62,6.74c-1.15,3.29-2.4,6.54-3.5,9.85-2.3,6.92-4.36,13.92-6.59,20.87-1.44,4.49,5.58,6.05,8.4,4.45,5.37-3.05,10.63-6.28,15.72-9.77,2.37-1.62,4.69-3.3,6.98-5.03,2.16-1.63,4.96-4.86,7.59-5.63s4.77,1.85,6.81,3.45c2.4,1.89,4.85,3.71,7.32,5.51,5.44,3.96,10.98,7.77,16.44,11.7,1.89,1.36,4.89,2.24,6.94.64,1.82-1.42,1.59-4.09-.27-5.43Z"/>
        </g>
        <g>
          <path class="cls-3" d="M639.31,789.66c-10.05-7.29-19.64-14.04-28.97-21.13-3.28-2.49-5.7-2.54-8.99-.05-9.51,7.19-19.24,14.07-29.99,20.38,3.41-10.62,6.49-21.37,10.37-31.82,2.04-5.52,1.39-8.72-3.77-12.09-9.43-6.15-18.31-13.15-27.16-21.07,11.18,0,22.38-.39,33.54.15,6.27.31,9.07-1.9,10.72-7.82,2.97-10.66,6.7-21.1,10.69-33.44,4.05,12.42,7.88,23.1,10.95,33.99,1.55,5.48,4.08,7.47,9.84,7.24,11.23-.46,22.5-.14,34.37,1.28-7.13,5.19-14.25,10.4-21.39,15.58q-11.95,8.67-7.4,22.77c2.56,7.92,5.12,15.85,7.64,23.78.11.34-.14.8-.44,2.23Z"/>
          <path class="cls-2" d="M641.53,785.5c-6.42-4.65-12.89-9.26-19.29-13.94-4.51-3.3-10.57-10.06-16.62-9.88-5.7.17-11.56,6.66-15.93,9.77-6.45,4.59-13.08,8.92-19.89,12.96l5.06,6.05c2.64-8.27,5.1-16.6,7.89-24.82,1.88-5.54,5.16-11.74,3.21-17.73s-8.39-8.75-13.14-12.16c-6.91-4.97-13.47-10.39-19.82-16.04l-2.6,9.15c9.21-.02,18.42-.27,27.63-.06,5.7.13,12.11,1.27,16.49-3.27s5.11-11.66,6.89-17.31c2.51-7.98,5.24-15.89,7.82-23.84l-6.93.67c2.65,8.07,5.43,16.1,8,24.19,1.69,5.33,2.52,12.75,6.77,16.82s11.07,2.8,16.57,2.75c8.98-.08,17.94.45,26.87,1.47l-1.18-9.43c-7.92,5.77-15.88,11.49-23.77,17.31-3.77,2.78-8.01,5.76-9.46,10.46s.23,9.89,1.67,14.48,2.96,9.19,4.44,13.79c.78,2.44,1.57,4.88,2.35,7.32.39,1.22.78,2.44,1.17,3.66.43-1.33.45-1.26.06.2-1.28,5.48,5.51,9.61,7.01,3.2,1.64-7.01-2.2-14.1-4.34-20.74-1.28-3.99-2.6-7.96-3.85-11.96-.52-1.66-1.84-4.26-1.57-6.03.45-2.87,5.68-5.51,8.01-7.21,7.13-5.19,14.26-10.38,21.39-15.58,2.87-2.09,3.27-8.93-1.18-9.43-7.36-.84-14.74-1.36-22.16-1.45-3.45-.04-6.89.01-10.34.11-2.27.06-5.51.63-7.27-1.22-1.58-1.67-1.96-5.19-2.59-7.31-.9-3.02-1.85-6.02-2.83-9.02-2.27-6.98-4.65-13.92-6.94-20.9-1.36-4.15-5.8-2.81-6.93.67-2.06,6.34-4.2,12.65-6.26,18.99-1.05,3.21-2.07,6.43-3.04,9.66-.66,2.21-1.01,5.73-2.54,7.53s-3.55,1.7-5.69,1.69c-3.61-.02-7.23-.25-10.84-.28-7.57-.05-15.13.11-22.7.12-4.27,0-5.4,6.65-2.6,9.15,5.02,4.46,10.15,8.79,15.5,12.85,2.61,1.98,5.26,3.9,7.96,5.75,1.82,1.25,5.84,2.93,6.73,5.04.72,1.7-.6,3.87-1.19,5.5-1.24,3.5-2.44,7.02-3.59,10.56-2.1,6.49-4.07,13.02-6.14,19.52-.97,3.05,1.3,8.28,5.06,6.05,5.52-3.27,10.92-6.73,16.2-10.38,2.47-1.7,4.91-3.44,7.33-5.21,2.28-1.66,5.15-4.8,7.82-5.71,3.06-1.04,6.01,2.31,8.3,4.01,2.49,1.85,4.99,3.68,7.5,5.5,5.66,4.11,11.36,8.18,17.03,12.29,4.7,3.4,8.26-5.55,4.43-8.32Z"/>
        </g>
        <g>
          <path class="cls-3" d="M107.06,549.43c4.12,12.56,8.01,23.59,11.29,34.8,1.39,4.76,3.65,6.38,8.57,6.23,11.67-.34,23.35-.11,35.46,1.1-8.54,6.23-17.08,12.46-25.62,18.69-9.93,7.26-8.09,4.63-4.86,15.36,2.99,9.95,6.38,19.78,8.6,30.42-9.28-6.73-18.69-13.3-27.77-20.27-3.96-3.04-6.85-3.56-11.1-.19-9.02,7.15-18.57,13.64-29.13,19.87,1.78-5.47,3.58-10.93,5.35-16.41,1.91-5.9,3.57-11.88,5.77-17.67,1.47-3.87.68-6.27-2.71-8.65-9.79-6.86-19.37-14.02-28.92-22.38,6.59,0,13.17.12,19.76-.03,7.2-.17,16.13,1.88,21.08-1.61,4.69-3.3,5.25-12.51,7.54-19.15,2.13-6.19,4.15-12.43,6.71-20.13Z"/>
          <path class="cls-2" d="M102.15,550.34c2.71,8.24,5.53,16.45,8.18,24.71,1.7,5.3,2.47,13.08,7.1,16.77,4.86,3.88,12.36,2.3,18.07,2.3,8.76,0,17.51.41,26.24,1.24l-2.42-6.52c-8.01,5.84-16.01,11.68-24.02,17.52-3.33,2.43-9.68,5.52-10.74,9.96-.96,4.01,2.39,10.06,3.51,13.72,2.74,8.91,5.56,17.79,7.53,26.91,2.94-1.18,5.88-2.37,8.82-3.55-6.71-4.86-13.47-9.63-20.14-14.54-5.11-3.76-10.68-9.8-17.58-9.33-6.63.46-12.01,6.44-17.11,10.1-6.51,4.68-13.26,9-20.15,13.1,2.66.94,5.33,1.89,7.99,2.83,2.46-7.53,4.95-15.05,7.29-22.62,1.59-5.12,6.19-12.84,3.93-18.3s-9.67-8.66-14.04-11.9c-6.43-4.77-12.67-9.77-18.71-15.02l-4.55,6.44c9.1.01,18.23-.22,27.32.25,6.35.33,14.11.52,18.96-4.41,4.56-4.65,5.21-11.76,6.88-17.73,2.14-7.66,4.99-15.18,7.49-22.72,1.62-4.88-8.35-4.72-9.84-.21-2.12,6.39-4.23,12.78-6.37,19.16-1.69,5.01-2.03,11.11-4.7,15.7s-11.1,2.51-15.72,2.37c-7.55-.24-15.16.01-22.71,0-2.93,0-8,3.45-4.55,6.44,5.13,4.46,10.4,8.74,15.82,12.85,2.64,2,5.3,3.96,7.99,5.89,1.99,1.43,6.11,3.29,7.2,5.61,1,2.15-.96,5.41-1.65,7.42-1.2,3.52-2.27,7.08-3.38,10.63-2.09,6.67-4.3,13.31-6.47,19.95-1.43,4.38,5.94,4.05,7.99,2.83,5.14-3.05,10.2-6.23,15.14-9.59,2.4-1.64,4.77-3.31,7.12-5.03s4.92-4.57,7.56-5.74,5.15,1.91,7.25,3.48c2.55,1.91,5.11,3.79,7.69,5.66,5.41,3.93,10.86,7.8,16.28,11.73,2.63,1.91,9.81,1.04,8.82-3.55-1.71-7.93-4.04-15.67-6.44-23.41-1-3.21-1.92-6.44-3-9.63-.48-1.43-1.74-3.63-1.68-5.18.03-.87-.57,1.01-.04.2.45-.68,1.5-1.2,2.13-1.66,2.74-2,5.49-3.98,8.23-5.99,6.94-5.07,13.88-10.12,20.82-15.19,3.55-2.59,1.3-6.17-2.42-6.52-6.88-.66-13.77-1.07-20.68-1.19-3.7-.07-7.4-.06-11.09,0-1.98.04-5.1.77-6.69-.65-1.78-1.58-2.15-5.47-2.82-7.64-.96-3.11-1.96-6.2-2.97-9.29-2.24-6.83-4.56-13.64-6.8-20.47-1.57-4.76-11.36-2.83-9.83,1.82Z"/>
        </g>
        <g>
          <path class="cls-3" d="M704.95,655.18c3.68-11.33,7.2-22.72,11.13-33.96,1.38-3.95.49-6.22-2.83-8.55-9.78-6.85-19.37-13.98-28.82-22.32,10.31,0,20.62.09,30.93-.02,12.55-.13,9.91,1.69,13.89-10.11,3.27-9.68,6.38-19.42,10.13-30.85,3.99,12.16,7.83,22.62,10.77,33.34,1.66,6.05,4.52,8.08,10.74,7.79,11.09-.52,22.22-.15,35.33-.15-6.51,4.81-11.71,8.52-16.77,12.42-5.88,4.53-14.56,8.21-16.59,14.13-1.91,5.58,3.18,13.6,5.28,20.52,1.84,6.06,3.81,12.08,6.23,19.7-10.88-7.88-20.53-14.52-29.77-21.71-4-3.11-6.75-2.77-10.57.17-9.11,7.02-18.56,13.6-27.88,20.36-.4-.25-.8-.5-1.2-.76Z"/>
          <path class="cls-2" d="M709.83,655.86c2.42-7.46,4.77-14.93,7.22-22.38,1.68-5.11,6.26-12.94,4.13-18.45-2-5.19-9.12-8.42-13.32-11.5-6.62-4.86-13.06-9.94-19.24-15.35l-3.95,5.91c10.54,0,21.08,0,31.62-.03,4.24-.01,9.79.89,13.23-2.27,3.41-3.13,4.25-9.82,5.63-13.95,3.09-9.25,6.07-18.53,9.1-27.79l-9.62.62c2.78,8.45,5.76,16.83,8.41,25.32,1.72,5.54,2.48,12.69,7.79,16.1s12.7,1.99,18.66,1.9c8.99-.13,17.98.08,26.97.1l-3.94-6.16c-6.43,4.74-12.73,9.77-19.34,14.25-5.25,3.55-12.07,6.79-14.74,12.95-2.78,6.42,1.08,13.41,3.41,19.33,3.07,7.78,5.24,15.98,7.77,23.95l8.11-4.18c-6.32-4.56-12.69-9.05-18.99-13.63-5.14-3.74-11.17-10.36-17.77-11.03-7.01-.71-12.34,4.94-17.53,8.77-6.94,5.13-14,10.11-20.99,15.17l7.06-.45-1.2-.76c-4.06-2.56-11.98,2.43-6.72,5.75l1.2.76c2.21,1.39,5.01,1.03,7.06-.45,5.18-3.75,10.39-7.45,15.57-11.21,2.59-1.88,5.17-3.76,7.73-5.68,1.39-1.04,3.05-2.68,4.58-3.48,1.94-1.01,2.53-.43,4.17.8,9.63,7.17,19.38,14.16,29.11,21.2,2.97,2.14,9.49.19,8.11-4.18-2.23-7.02-4.28-14.13-6.68-21.09-1.76-5.11-7.21-12.97-4.09-18.32,2.93-5.02,10.26-7.84,14.8-11.2,5.59-4.14,11.17-8.29,16.77-12.42,3.86-2.85-.99-6.16-3.94-6.16-7.29,0-14.59-.14-21.88-.13-3.37,0-6.75.04-10.12.15-2.15.07-5.29.79-7.06-.79-1.67-1.48-2.13-4.86-2.7-6.84-.93-3.23-1.93-6.45-2.97-9.65-2.31-7.12-4.78-14.18-7.12-21.28-1.29-3.93-8.49-2.84-9.62.62-2.53,7.72-5.02,15.45-7.57,23.17-1.12,3.39-2.29,6.77-3.38,10.17-.23.71-1.9,4.25-1.64,5.04s-.07-.31.86-.43c.55-.07-1.66-.02-1.95-.02-3.19.03-6.38-.02-9.58,0-9.02.06-18.04,0-27.06,0-2.48,0-6.85,3.37-3.95,5.91,4.91,4.3,9.94,8.45,15.12,12.42,2.62,2.01,5.28,3.98,7.96,5.92,2.17,1.57,6.34,3.45,7.78,5.73s-.36,5.25-1.12,7.49c-1.22,3.56-2.4,7.13-3.56,10.71-2.14,6.56-4.22,13.14-6.34,19.7-1.63,5.04,8.27,5.93,9.75,1.37Z"/>
        </g>
        <g>
          <path class="cls-3" d="M58.1,366.83c4.19,12.79,8.07,23.83,11.37,35.04,1.39,4.73,3.65,6.41,8.58,6.27,11.63-.33,23.28-.11,36.92-.11-11.08,8.06-20.39,15.11-30.02,21.69-4.11,2.81-4.78,5.6-3.16,10.14,3.85,10.84,7.23,21.85,9.93,33.8-3.29-2.38-6.57-4.77-9.86-7.15-6.4-4.64-12.92-9.12-19.15-13.97-3.23-2.52-5.72-2.57-9.01-.06-7.8,5.97-15.85,11.61-23.83,17.36-1.5,1.08-3.1,2.01-6.42,4.14,2.85-9.04,5.11-16.26,7.41-23.46q5.48-17.16-9.15-27.67c-6.14-4.42-12.23-8.9-17.84-14.8,11.22,0,22.46-.28,33.67.12,5.42.2,8-1.56,9.5-6.83,3.16-11.04,6.98-21.89,11.07-34.5Z"/>
          <path class="cls-2" d="M54.39,369.23c2.61,7.94,5.32,15.86,7.88,23.81,1.76,5.44,2.72,14.19,7.56,17.95s12.91,1.88,18.34,1.85c8.69-.05,17.37.06,26.06.06l-.52-9.1c-6.82,4.96-13.58,10.01-20.42,14.93-5.08,3.66-12.64,7.1-15.21,13.16s.98,12.98,2.93,18.97c2.71,8.29,5.03,16.69,6.99,25.19l6.32-6.57c-6.24-4.53-12.49-9.03-18.75-13.53-4.75-3.41-11.35-10.87-17.73-10.09-3.27.4-5.81,2.7-8.33,4.6-3.19,2.4-6.42,4.74-9.66,7.08-5.82,4.19-11.61,8.34-17.65,12.19l4.78,5.54c2.7-8.54,5.4-17.09,8.1-25.63,1.65-5.22,4.08-11.36,2.71-16.92-1.18-4.8-5.1-7.91-8.89-10.74-7.73-5.79-15.63-11.17-22.41-18.12l-3.34,9.04c9.24-.01,18.49-.2,27.73-.03,5.45.1,11.52,1.05,15.77-3.18s5.18-11.44,6.93-16.99c2.6-8.22,5.39-16.37,8.06-24.56,1.92-5.88-5.09-8.56-7.03-2.6-2.12,6.52-4.32,13.02-6.44,19.53-1,3.05-1.97,6.11-2.91,9.18-.66,2.16-1.01,6.15-2.49,7.9-1.11,1.32-2.86,1.14-4.48,1.15-3.96,0-7.92-.2-11.88-.22-7.26-.03-14.53.08-21.79.09-4.18,0-6,6.32-3.34,9.04,5.81,5.95,12.38,10.84,19.1,15.7,2.83,2.05,8.87,5.2,9.84,8.97s-1.99,9.59-3.09,13.04c-2.42,7.57-4.79,15.16-7.18,22.74-.98,3.09.88,8.02,4.78,5.54,4.75-3.03,9.33-6.22,13.91-9.5,3-2.15,5.99-4.3,8.96-6.47,2.53-1.85,5.36-4.81,8.22-6.04,3.34-1.44,6.05,1.89,8.66,3.83s5.4,3.94,8.13,5.88c5.53,3.95,11.03,7.94,16.53,11.94,3.98,2.89,7.07-3.3,6.32-6.57-1.54-6.71-3.31-13.37-5.33-19.96-.98-3.2-2.02-6.38-3.1-9.55-.54-1.58-2.52-5.31-1.94-6.85.61-1.62,5.22-3.76,6.65-4.76,2.78-1.96,5.53-3.96,8.28-5.96,5.43-3.96,10.83-7.96,16.26-11.91,2.52-1.83,4.49-9.1-.52-9.1-7.27,0-14.53-.07-21.8-.07-3.38,0-6.75.02-10.13.07-2.39.04-6.64.88-8.74-.57s-2.4-5-3.05-7.12c-.99-3.23-2.02-6.45-3.07-9.66-2.33-7.14-4.75-14.25-7.09-21.38-1.95-5.92-8.94.19-7.43,4.79Z"/>
        </g>
        <g>
          <path class="cls-3" d="M733.77,408.03c11.76,0,23.52-.19,35.27.1,4.44.11,6.43-1.5,7.7-5.67,3.46-11.38,7.35-22.64,11.61-35.6,4.17,12.82,8.02,23.9,11.32,35.13,1.4,4.78,3.83,6.28,8.69,6.14,11.53-.33,23.08-.11,36.81-.11-4.09,2.97-6.69,4.84-9.28,6.73-6.57,4.79-12.94,9.88-19.77,14.26-4.76,3.05-6.05,6.16-3.93,11.58,3.18,8.15,5.59,16.6,8.29,24.93.69,2.15,1.24,4.34.6,7.48-7.52-5.43-14.97-10.95-22.56-16.27-12.39-8.68-7.85-8.78-20.31-.02-7.84,5.51-15.53,11.23-24.94,18.05,3.92-12.19,6.77-22.79,10.79-32.93,2.56-6.47,1.16-9.96-4.45-13.61-9.08-5.9-17.64-12.61-26.41-18.98.2-.41.39-.82.59-1.22Z"/>
          <path class="cls-2" d="M734.48,411.82c9.14,0,18.29-.12,27.43-.03,5.43.05,12.47,1.35,16.79-2.91,4.02-3.97,4.89-11.83,6.57-16.99,2.62-8.08,5.35-16.12,8-24.19l-9.85-.65c2.78,8.5,5.66,16.97,8.37,25.5,1.78,5.61,2.65,13.57,7.91,17.13s13.24,2.13,19.3,2.09c8.96-.06,17.92.05,26.87.06l-4.65-6.37c-5.63,4.08-11.24,8.17-16.81,12.33-3.72,2.78-7.5,5.43-11.34,8.04-2.17,1.47-4.33,3-5.62,5.35-3.11,5.64.86,12.18,2.68,17.55,1.3,3.86,2.5,7.74,3.72,11.62s2.88,7.66,2.3,11.84l7.96-1.94c-8.02-5.8-16.07-11.55-24.09-17.35-4.06-2.94-8.35-7.36-13.84-6.3-5.19,1.01-10.39,6.45-14.53,9.39-7.5,5.33-14.89,10.8-22.33,16.2l8.87,3.42c2.51-7.87,4.8-15.82,7.43-23.65,1.8-5.35,5.7-11.79,4.34-17.65s-7.56-8.91-12.1-12.04c-7.36-5.07-14.43-10.53-21.65-15.79l1.56,4.56.59-1.22c2.32-4.83-7.11-7.88-9.18-3.57l-.59,1.22c-.87,1.82.06,3.46,1.56,4.56,5.93,4.32,11.77,8.77,17.74,13.04,3.83,2.74,12.78,6.3,12.36,11.91-.39,5.26-3.92,11.47-5.54,16.5-2.19,6.8-4.21,13.66-6.38,20.47-1.47,4.61,6.53,5.12,8.87,3.42,5.92-4.3,11.81-8.63,17.74-12.91,2.9-2.09,5.84-4.13,8.73-6.23.62-.45,5.82-3.5,5.83-4.23,0-.34-1.6.03-1.59,0,0,.02,2.44,1.77,2.46,1.78,2.68,2,5.41,3.95,8.14,5.88,6.55,4.65,13.02,9.42,19.53,14.13,2.19,1.59,7.48,1.53,7.96-1.94.92-6.67-2.02-12.99-4.01-19.24-1.14-3.58-2.31-7.14-3.58-10.68-.97-2.71-3.11-6.3-1.8-9.16,1.16-2.54,5.14-4.24,7.33-5.76,3.08-2.14,6.09-4.37,9.1-6.62,5.31-3.98,10.68-7.87,16.05-11.77,3.86-2.8-2.08-6.37-4.65-6.37-7.27,0-14.54-.07-21.81-.07-3.08,0-6.15.01-9.23.06-1.68.02-6.2.92-7.69-.14-1.69-1.2-2.03-5.26-2.59-7.09-1-3.24-2.03-6.47-3.08-9.7-2.24-6.88-4.55-13.74-6.8-20.62-1.34-4.11-8.35-5.21-9.85-.65-2.11,6.41-4.26,12.81-6.38,19.22-.99,3.01-1.98,6.03-2.94,9.05-.83,2.62-1.3,6.25-2.8,8.56-1.25,1.93-2.7,1.45-4.92,1.42-3.92-.05-7.83-.11-11.75-.11-7.18-.01-14.37.05-21.55.06-6.57,0-4.24,7.58,1.42,7.57Z"/>
        </g>
        <g>
          <path class="cls-3" d="M52.81,225.65c11.23,0,22.47-.29,33.68.12,5.5.2,7.97-1.79,9.47-6.96,3.17-10.97,6.94-21.77,11.07-34.48,4.17,12.76,8.02,23.57,11.18,34.58,1.52,5.27,4.12,7.03,9.52,6.85,11.29-.39,22.6-.12,35.95-.12-10.17,7.43-18.6,14.15-27.6,19.97-5.8,3.75-7.32,7.39-4.7,14.02,3.97,10.05,6.83,20.53,10.77,32.66-10.51-7.63-19.73-13.99-28.55-20.87-4.54-3.54-7.92-4.16-12.78-.21-8.53,6.93-17.73,13.03-26.66,19.48-.47-.32-.93-.63-1.4-.95,2.94-9.03,6.02-18.01,8.8-27.09,4.29-14.03,5.38-10.1-6.24-18.86-7.57-5.71-15.32-11.19-22.98-16.77.16-.46.32-.93.48-1.39Z"/>
          <path class="cls-2" d="M51.28,229.8c9.25-.01,18.5-.2,27.74-.03,6.13.11,12.72.98,17.49-3.76,4.45-4.43,5.39-12.15,7.22-17.88,2.51-7.85,5.16-15.65,7.7-23.49l-9,1.48c2.75,8.39,5.64,16.73,8.31,25.14,1.68,5.3,2.41,13.05,7.26,16.58s12.33,1.92,17.92,1.88c8.74-.07,17.48.07,26.22.08l-.51-7.29c-7.33,5.38-14.51,10.98-21.97,16.18-4.94,3.44-11.35,6.5-13.51,12.57s1.5,12.21,3.43,17.81c2.85,8.28,5.28,16.7,7.96,25.03l8.09-5.24c-6.36-4.6-12.77-9.13-19.11-13.76-4.98-3.64-10.67-9.9-17.09-10.63-6.91-.78-12.14,4.9-17.19,8.68-6.61,4.95-13.44,9.6-20.14,14.42l5.54-.31-1.4-.95.91,3.76c3.11-9.5,6.21-19,9.25-28.52,1.1-3.47,3.69-8.32,2.58-12.06s-6.06-6.1-8.97-8.24c-8.05-5.9-16.11-11.79-24.18-17.66l.91,3.76.48-1.39c2.03-5.89-7.24-5.18-8.82-.61l-.48,1.39c-.46,1.32-.31,2.88.91,3.76,7.16,5.2,14.37,10.34,21.47,15.63,2.18,1.62,4.37,3.21,6.58,4.79.9.64,2.81,1.55,3.16,2.67.43,1.38-2.77,8.38-3.45,10.59-2.64,8.46-5.49,16.85-8.24,25.27-.42,1.29-.34,2.92.91,3.76l1.4.95c1.61,1.09,4,.8,5.54-.31,5.46-3.93,11.01-7.75,16.45-11.71,2.47-1.8,4.93-3.62,7.33-5.5s4.68-4.84,7.97-3.19c5.09,2.56,9.74,7.21,14.37,10.56,5.43,3.93,10.89,7.8,16.32,11.73,2.98,2.16,9.35-1.35,8.09-5.24-2.18-6.76-4.2-13.57-6.4-20.32-1.01-3.12-2.07-6.24-3.21-9.31-.89-2.39-2.71-5.46-2.31-8.1s2.78-3.64,4.72-4.94c2.84-1.9,5.65-3.85,8.42-5.86,5.97-4.33,11.82-8.82,17.77-13.18,2.41-1.76,4.24-7.29-.51-7.29-7.37,0-14.73-.1-22.1-.09-3.54,0-7.08.03-10.63.11-2.25.05-5.43.71-7.47-.6s-2.48-4.75-3.14-6.94c-.95-3.17-1.95-6.32-2.97-9.47-2.38-7.34-4.88-14.64-7.29-21.97-1.44-4.4-7.89-1.94-9,1.48-2.03,6.24-4.12,12.46-6.15,18.7-1.77,5.42-2.79,11.92-5.31,17.01-.92,1.85-.97,1.81-3.14,1.89-3.93.13-7.94-.2-11.88-.22-7.27-.03-14.53.08-21.8.09-4.75,0-9.23,8.3-3.05,8.3Z"/>
        </g>
        <g>
          <path class="cls-3" d="M685.35,225.65c10.79,0,21.59-.35,32.36.13,6.14.27,9.2-1.65,10.87-7.73,2.92-10.67,6.7-21.11,10.77-33.66,3.61,10.95,6.53,20.1,9.63,29.2,4.79,14.03,1.42,11.86,16.44,12.04,9.37.11,18.75.02,28.79,1.34-5.71,4.18-11.47,8.3-17.11,12.57-5.08,3.85-12.64,7.01-14.29,12.05-1.65,5.04,2.55,12.06,4.39,18.16,2.02,6.66,4.27,13.25,6.43,19.87-.44.35-.88.7-1.32,1.05-7.33-5.3-14.57-10.72-22-15.86-13.44-9.31-8.13-9.62-21.82.03-7.64,5.38-15.16,10.94-24.18,17.46,4.14-12.77,7.47-23.95,11.45-34.9,1.82-4.99.63-7.64-3.61-10.51-9.28-6.28-18.18-13.11-27.24-19.71l.44-1.53Z"/>
          <path class="cls-2" d="M684.91,229.48c8.88-.02,17.77-.24,26.65-.05,5.95.13,12.34.96,17.23-3.2,4.78-4.07,5.49-11.29,7.27-16.96,2.53-8.05,5.31-16.03,7.92-24.05l-9.5.35c3.03,9.23,6.01,18.48,9.12,27.68,1.4,4.14,2.22,11.07,5.71,14.14,3.22,2.84,8.46,2.07,12.39,2.06,10.27-.05,20.61,0,30.82,1.26l-1.52-6.29c-6.45,4.72-12.78,9.74-19.41,14.19-4.74,3.18-10.83,6.06-13.19,11.64s.67,11.8,2.68,17.08c2.92,7.67,5.15,15.67,7.7,23.47l1.65-3.73-1.32,1.05,6.97-.3c-8.24-5.97-16.58-11.83-24.78-17.85-3.74-2.74-7.45-6.65-12.48-5.95-5.5.76-10.57,6.17-14.87,9.23-7.65,5.44-15.23,11-22.83,16.51l7.86,3.38c2.39-7.4,4.69-14.82,7.1-22.21,1.82-5.56,6.22-13.18,5.34-19.16s-7.85-9.27-12.39-12.51c-6.85-4.88-13.56-9.95-20.34-14.91l.89,3.68.44-1.53c1.62-5.57-7.97-6.18-9.28-1.65l-.44,1.53c-.4,1.36-.39,2.74.89,3.68,5.53,4.04,11.01,8.16,16.55,12.19,3.02,2.2,6.08,4.34,9.14,6.48,2.11,1.47,4.63,2.67,4.74,5.49s-1.82,6.11-2.7,8.67c-1,2.94-1.97,5.88-2.92,8.84-2.13,6.58-4.18,13.19-6.31,19.77-1.56,4.83,4.97,5.47,7.86,3.38,2.62-1.89,32-24.18,32.58-23.58-.2-.21-1.77.19-1.82.31,0,.02,2.22,1.62,2.35,1.71,2.49,1.86,4.99,3.69,7.53,5.47,6.87,4.83,13.61,9.83,20.41,14.76,2,1.45,5.05,1.22,6.97-.3l1.32-1.05c1.04-.82,2.11-2.3,1.65-3.73-2.16-6.62-4.25-13.26-6.43-19.87-1.45-4.41-6.18-11.89-4.39-16.58,1.67-4.37,8.5-6.93,12.08-9.49,5.94-4.25,11.77-8.67,17.67-12.98,2.69-1.96,1.92-5.87-1.52-6.29-8.81-1.09-17.65-1.31-26.52-1.39-3.45-.03-6.91.05-10.36,0-.67-.01-1.47.11-2.13-.07-1.13-.3-.01-.03.15.14-.61-.61-1.07-2.8-1.4-3.88-.98-3.15-2.03-6.27-3.08-9.4-2.84-8.45-5.56-16.93-8.35-25.4-1.26-3.82-8.29-3.35-9.5.35-2.09,6.4-4.26,12.78-6.35,19.18-1.05,3.22-2.08,6.44-3.04,9.68-.71,2.39-1.1,5.77-2.51,7.84-1.29,1.9-2.39,1.7-4.65,1.68-3.49-.03-6.97-.22-10.46-.25-7.3-.05-14.6.1-21.9.11-5.71.01-7.43,7.67-.88,7.65Z"/>
        </g>
        <g>
          <path class="cls-3" d="M206.48,156.02c3.52-10.93,6.8-21.95,10.67-32.76,1.62-4.52.49-6.96-3.24-9.54-9.43-6.52-18.6-13.41-27.53-21.6,10.97,0,21.96-.33,32.91.13,5.92.25,8.81-1.6,10.43-7.46,3-10.82,6.84-21.41,10.93-33.94,4.16,12.66,7.99,23.45,11.17,34.43,1.51,5.2,3.98,7.15,9.46,6.96,11.28-.4,22.58-.12,34.4,1.05-8.86,6.46-17.48,13.3-26.68,19.25-5.53,3.58-6.46,7.03-4.13,13.08,3.96,10.27,6.93,20.91,10.85,33.07-9.81-7.1-18.2-13.21-26.62-19.27q-8.49-6.12-17.18.22c-8.06,5.87-16.14,11.73-24.21,17.6-.42-.4-.83-.81-1.25-1.21Z"/>
          <path class="cls-2" d="M211.13,156.82c2.44-7.6,4.77-15.23,7.26-22.8,1.7-5.17,5.94-12.38,3.8-17.95-2.02-5.24-9.16-8.42-13.39-11.54-6.48-4.79-12.71-9.87-18.67-15.28l-4.16,6.7c9.04-.01,18.07-.23,27.11-.04,5.86.12,12.19.96,17-3.16s5.43-11.28,7.21-16.89c2.57-8.1,5.37-16.13,8.02-24.2l-9.5.4c2.7,8.19,5.51,16.34,8.14,24.55,1.65,5.16,2.48,12.58,6.68,16.45s10.57,2.96,15.88,2.88c9.19-.14,18.36.24,27.51,1.11l-1.56-6.29c-6.88,5.04-13.63,10.28-20.62,15.16-4.73,3.3-11.27,6.28-12.75,12.41s2.45,12.37,4.29,17.87c2.63,7.86,4.97,15.81,7.51,23.7l8.59-4.08c-6.65-4.82-13.3-9.64-19.95-14.46-4.73-3.42-10.48-9.2-16.49-10.17s-10.74,3.31-15.12,6.51c-7.8,5.67-15.6,11.34-23.4,17.01l6.96-.34-1.25-1.21c-3.39-3.28-11.65,1.71-7.47,5.75l1.25,1.21c1.79,1.73,5.23.92,6.96-.34,5.92-4.3,11.84-8.6,17.76-12.9,3.05-2.22,6.06-4.54,9.18-6.66.62-.43,1.51-1.28,2.25-1.43-.44.09-.03-.18.94.56,10.09,7.65,20.65,14.8,30.91,22.23,2.64,1.91,9.99.29,8.59-4.08-2.19-6.82-4.25-13.68-6.46-20.49-.94-2.91-1.92-5.82-2.96-8.7-.89-2.46-2.62-5.56-2.53-8.26.09-2.51,1.63-3.58,3.59-4.95,2.99-2.09,6.07-4.07,9.03-6.2,5.94-4.27,11.74-8.73,17.64-13.05,2.64-1.94,1.92-5.96-1.56-6.29-7.15-.68-14.32-1.13-21.5-1.26-3.46-.06-6.92-.06-10.38.02-2.33.05-5.47.83-7.29-.99-1.65-1.64-2.07-5.21-2.72-7.35-.93-3.05-1.9-6.08-2.89-9.1-2.32-7.08-4.73-14.14-7.06-21.22-1.27-3.85-8.29-3.28-9.5.4-2.11,6.43-4.31,12.84-6.42,19.27-1.07,3.26-2.12,6.52-3.1,9.81-.68,2.28-1.04,5.85-2.49,7.77-1.28,1.7-2.07,1.53-4.28,1.52-3.55-.02-7.09-.21-10.64-.24-7.42-.05-14.85.09-22.27.1-3.28,0-7.36,3.8-4.16,6.7,4.83,4.39,9.84,8.57,15.03,12.54,2.41,1.84,4.85,3.64,7.32,5.41,2.15,1.54,5.9,3.22,7.34,5.52s-.3,5.33-1.09,7.61c-1.04,3.01-2.05,6.04-3.03,9.08-2.16,6.68-4.23,13.39-6.37,20.07-1.77,5.52,7.85,6.1,9.29,1.6Z"/>
        </g>
        <g>
          <path class="cls-3" d="M570.65,158.76c4.17-12.86,7.46-23.89,11.38-34.69,1.74-4.81,1.17-7.62-3.26-10.58-9.34-6.25-18.25-13.13-27-21.38,8.6,0,17.2.12,25.8-.03,17.94-.31,13.47,2.81,19.31-14.23,2.83-8.26,5.47-16.58,8.83-26.82,1.47,4.19,2.42,6.77,3.27,9.39,2.77,8.52,5.74,16.99,8.16,25.61,1.35,4.8,3.92,6.33,8.74,6.17,9.39-.32,18.79-.11,28.19-.08,2.03,0,4.05.19,7.8.38-10.43,7.59-19.33,14.45-28.64,20.7-4.51,3.03-5.55,5.92-3.66,11.08,3.85,10.52,7.01,21.3,9.21,32.9-8.73-6.32-17.74-12.29-26.09-19.08-5.04-4.09-8.6-4.23-13.72-.06-8.57,6.98-17.83,13.11-28.33,20.71Z"/>
          <path class="cls-2" d="M574.24,160.14c2.56-7.91,5-15.86,7.61-23.76,1.93-5.85,5.82-12.74,4.58-19.06-1.3-6.63-8.04-9.59-13.02-13.2-6.91-5.02-13.47-10.47-19.72-16.3l-2.02,9.29c10.59.01,21.2-.16,31.79-.02,3.9.05,8.45.62,11.28-2.65,3-3.46,3.69-9.14,5.08-13.35,3.16-9.56,6.31-19.11,9.44-28.68l-6.87,1.1c2.58,7.36,5.07,14.74,7.49,22.15,1.94,5.94,2.84,15.59,8.35,19.58,5.13,3.73,13.93,1.77,19.76,1.78,7.94,0,15.86.05,23.78.48-.59-3.11-1.18-6.23-1.77-9.34-6.78,4.95-13.49,10.01-20.32,14.91-4.8,3.44-11.62,6.5-13.9,12.32-2.4,6.13.9,12.28,2.82,18.06,2.73,8.19,4.86,16.54,6.51,25.01l5.58-5.57c-6.69-4.82-13.51-9.45-20.1-14.41-4.78-3.6-9.92-9.39-16.51-8.31-6.08,1-11.44,7.12-16.26,10.65-6.3,4.61-12.73,9.03-19.06,13.6-3.82,2.75-1.02,12.07,3.67,8.68,5.41-3.9,10.88-7.7,16.3-11.6,4.61-3.32,9.34-8.33,14.46-10.73,5.55-2.6,12.33,5.47,16.55,8.56,5.63,4.12,11.38,8.07,17.04,12.15,3.61,2.6,6.19-2.48,5.58-5.57-1.28-6.55-2.84-13.03-4.74-19.43-.96-3.24-1.98-6.46-3.07-9.66-.63-1.84-2.65-5.32-1.97-7.15.74-1.98,4.93-3.81,6.59-4.96,2.56-1.79,5.1-3.61,7.63-5.45,5.63-4.1,11.21-8.28,16.84-12.39,2.96-2.16,2.54-9.11-1.77-9.34-6.37-.34-12.71-.42-19.08-.46-3.76-.02-7.52-.03-11.28.02-2.4.04-7.28,1.02-9.43-.45s-2.41-5.43-3.09-7.67c-1.12-3.67-2.3-7.33-3.5-10.97-2.14-6.49-4.32-12.97-6.59-19.42-1.54-4.37-5.82-2.11-6.87,1.1-2.8,8.55-5.56,17.11-8.43,25.63-.97,2.89-1.86,5.8-2.78,8.7-.3.94-1.02,2.94-1.08,3.02-.26.29.9-.28,0-.08-.47.1-.81.13-1.45.18-2.26.21-4.62-.03-6.89-.04-9.88-.05-19.76.05-29.64.05-4.59,0-4.51,6.96-2.02,9.29,4.93,4.6,10.06,8.99,15.41,13.09,2.83,2.17,5.72,4.26,8.65,6.29,1.83,1.27,5.02,2.59,5.15,4.88s-2.14,6.3-2.92,8.61c-.94,2.78-1.85,5.57-2.75,8.36-2.12,6.57-4.18,13.17-6.31,19.74-1.77,5.47,5.2,8.94,7.2,2.75Z"/>
        </g>
        <g>
          <path class="cls-3" d="M423.95,4.35c2.98,9.01,5.94,18.02,8.94,27.02,4.58,13.74,1.65,11.73,16.59,11.89,9.34.1,18.69.02,28.57,1.31-8.7,6.33-17.14,13.08-26.21,18.84-5.85,3.71-6.7,7.43-4.33,13.63,3.8,9.92,6.71,20.18,8.99,31.42-2.59-1.86-5.19-3.72-7.78-5.59-7.1-5.13-14.3-10.13-21.24-15.47-3.06-2.35-5.32-2.4-8.44-.04-9.5,7.18-19.24,14.05-30.13,20.32,2.48-7.75,4.97-15.51,7.45-23.26q5.08-15.88-8.44-25.7c-6.48-4.71-12.97-9.41-18.99-15.44,11.24,0,22.48-.27,33.7.12,5.5.19,7.95-1.85,9.45-7.02,3.12-10.76,6.87-21.34,10.36-32,.5,0,1-.01,1.5-.02Z"/>
          <path class="cls-2" d="M419.53,6.52c3.12,9.43,6.31,18.84,9.36,28.3,1.14,3.53,1.81,8.84,5.05,11.2s8.09,1.5,11.7,1.49c10.05-.02,20.18-.02,30.16,1.2l-.05-7.1c-6.64,4.86-13.14,9.93-19.9,14.63-5.1,3.55-11.81,6.63-13.66,13.13-1.68,5.9,1.78,11.92,3.58,17.36,2.61,7.83,4.63,15.83,6.31,23.91l7.62-5.91c-6.15-4.42-12.31-8.82-18.46-13.25-4.8-3.46-11.02-10.46-17.37-10.04s-11.72,6.45-16.5,9.86c-6.36,4.53-12.88,8.8-19.63,12.72l5.58,3.6c2.92-9.11,5.94-18.19,8.74-27.33,1.25-4.09,2.87-8.89,1.47-13.15s-5.57-7.09-8.97-9.63c-7.44-5.54-15.05-10.77-21.69-17.29l-5.12,7.33c8.59-.01,17.18-.16,25.78-.06,6.1.07,12.88,1.27,17.96-2.93,4.75-3.93,5.69-10.74,7.44-16.29,2.53-8.02,5.29-15.97,7.92-23.96l-5.59,4.33,1.5-.02c4.82-.06,8.56-8.6,2.34-8.52l-1.5.02c-2.54.03-4.82,1.99-5.59,4.33-1.95,5.92-3.96,11.81-5.91,17.73-.97,2.96-1.93,5.92-2.85,8.9-.56,1.8-1.01,6.55-2.61,7.72-1.23.91-4.48.28-5.83.25-3.3-.08-6.61-.11-9.91-.12-6.94-.01-13.88.08-20.82.09-2.72,0-8.04,4.46-5.12,7.33,5.69,5.58,11.92,10.43,18.35,15.11,3.35,2.44,9.3,5.42,11.14,9.42,1.62,3.52-1.02,8.87-2.07,12.18-2.62,8.24-5.28,16.47-7.92,24.7-1.11,3.45,2.95,5.13,5.58,3.6,5.43-3.16,10.76-6.5,15.97-10.02,2.49-1.68,4.95-3.41,7.38-5.16,2.08-1.5,5.46-5.23,7.91-5.84s5.52,2.79,7.43,4.21c2.51,1.86,5.05,3.69,7.59,5.52,5.65,4.05,11.29,8.1,16.93,12.15,3.49,2.51,8.35-2.39,7.62-5.91-1.37-6.62-2.97-13.19-4.95-19.66-.87-2.84-1.8-5.65-2.81-8.44-.83-2.29-2.64-5.41-2.3-7.93.31-2.29,2.25-3.2,4.07-4.4,2.9-1.92,5.78-3.86,8.61-5.89,5.66-4.06,11.18-8.32,16.8-12.43,1.96-1.43,3.86-6.63-.05-7.1-9.25-1.13-18.48-1.33-27.79-1.41-2.78-.02-10.03,1.08-11.85-.24-1.52-1.1-2.59-7.23-3.36-9.57-2.95-9.01-5.96-18.01-8.94-27.02-1.67-5.06-10.35-.22-8.84,4.33Z"/>
        </g>
      </g>
      <g>
        <path class="cls-2" d="M368.19,778.28c9.09,0,18.19-.12,27.28-.03,5.42.05,12.47,1.45,16.6-3.08s4.9-11.82,6.65-17.27c2.55-7.93,5.21-15.82,7.8-23.74l-6.91.78c2.68,7.47,5.23,14.98,7.69,22.53,1.9,5.84,2.7,14.77,7.79,18.87,1.99,1.61,4.45,1.97,6.93,2.03,4.38.11,8.8-.17,13.19-.17,8.05,0,16.08,0,24.11.42-.44-3.14-.88-6.28-1.32-9.42-7.02,5.14-13.97,10.39-21.03,15.47-4.68,3.37-11.52,6.49-13.84,12.12-2.44,5.9.8,12,2.65,17.59,2.78,8.4,5.1,16.92,6.95,25.57l5.84-5.3c-7.17-5.2-14.29-10.45-21.5-15.59-3.39-2.42-9.18-8.59-13.83-8.52-4.77.08-10.32,6.05-13.85,8.56-7.25,5.15-14.52,10.21-22.28,14.58l5.16,5.97c2.52-7.85,4.92-15.73,7.51-23.56,1.87-5.66,5.4-12.11,3.79-18.22s-8.39-9.15-13.19-12.58c-6.77-4.83-13.39-9.85-20.1-14.75l1.38,5.74.37-1.45c1.38-5.49-5.45-9.47-7.06-3.09l-.37,1.45c-.44,1.75-.26,4.54,1.38,5.74,5.16,3.77,10.28,7.61,15.44,11.38,2.58,1.88,5.17,3.75,7.79,5.58,1.79,1.25,6.36,3.22,7.15,5.37.61,1.67-1.58,5.65-2.12,7.23-1.03,3-2.02,6.01-2.99,9.03-2.04,6.34-4.01,12.7-6.04,19.04-1.02,3.19,1.43,8.07,5.16,5.97,6.44-3.63,12.56-7.72,18.6-11.97,2.94-2.07,5.89-4.13,8.8-6.25.89-.65,3.93-3.68,5.11-3.77,1.04-.07,2.73,1.73,3.51,2.31,2.87,2.13,5.8,4.17,8.7,6.26,6.42,4.61,12.79,9.29,19.19,13.93,3.41,2.47,6.55-1.98,5.84-5.3-1.38-6.49-2.98-12.94-4.84-19.31-.94-3.2-1.94-6.39-3-9.55-.46-1.39-3.05-6.24-2.6-7.58.6-1.8,4.8-3.68,6.26-4.71,2.9-2.04,5.77-4.12,8.63-6.21,5.58-4.09,11.12-8.23,16.7-12.32,2.77-2.03,3.17-9.18-1.32-9.42-6.47-.34-12.92-.37-19.4-.41-4.08-.02-8.17-.03-12.25.03-2.36.03-6.83,1.06-8.96-.39-1.96-1.34-2.3-5.77-2.96-7.91-1.11-3.59-2.28-7.15-3.45-10.72-2.1-6.35-4.26-12.67-6.52-18.96-1.48-4.14-5.78-2.7-6.91.78-2.06,6.31-4.17,12.6-6.23,18.91-.96,2.93-1.91,5.86-2.84,8.8-.74,2.35-1.15,6.29-2.64,8.27-1.36,1.8-3.81,1.34-5.83,1.31-3.9-.05-7.79-.11-11.69-.12-7.15-.01-14.29.06-21.44.06-5.01,0-5.57,9.99-.61,9.98Z"/>
        <path class="cls-2" d="M277.29,787.13c-6.45-4.65-13.02-9.12-19.39-13.88-5.36-4-10.55-9.79-17.79-9.42-6.53.34-11.4,5.58-16.34,9.25-6.5,4.81-13.34,9.11-20.37,13.1l7.67,3.6c2.52-7.85,4.83-15.77,7.5-23.57,1.82-5.32,5.55-11.69,3.19-17.41s-8.98-8.41-13.59-11.71c-6.39-4.57-12.37-9.63-18.12-14.96l-3.83,5.98c9.44-.03,18.88-.43,28.31.04,5.64.28,11.6.5,16.06-3.61s5.24-11.29,6.95-16.85c2.46-7.97,5.31-15.82,7.92-23.74l-9.61.81c2.71,8.25,5.53,16.47,8.18,24.75,1.66,5.18,2.45,12.77,7.1,16.3,4.72,3.59,11.45,2.31,16.95,2.27,8.96-.06,17.91.38,26.83,1.26l-2.72-6.06c-6.51,4.76-12.95,9.61-19.5,14.32-4.42,3.18-12.17,6.61-13.88,12.4-1.61,5.45,2.2,12.03,3.87,17.01,2.62,7.84,5.06,15.75,7.6,23.62l.98-3.74-1.01.83c-4.78,3.95,3.79,7.75,7.49,4.69l1.01-.83c1.19-.98,1.43-2.35.98-3.74-2.06-6.36-4.04-12.74-6.11-19.09-.98-3.02-1.99-6.04-3.03-9.05-.8-2.31-2.95-5.99-2-8.52.89-2.38,4.74-4.05,6.69-5.41,2.43-1.7,4.85-3.42,7.25-5.17,5.74-4.17,11.42-8.43,17.14-12.62,3.08-2.25.08-5.78-2.72-6.06-7.13-.7-14.26-1.12-21.42-1.25-3.31-.06-6.62-.08-9.92-.04-2.24.03-5.95.99-7.68-.67-1.56-1.48-2.01-5.4-2.61-7.36-.95-3.1-1.93-6.19-2.94-9.27-2.33-7.13-4.74-14.23-7.09-21.36-1.31-4-8.5-2.56-9.61.81-2.16,6.58-4.49,13.1-6.63,19.69-.96,2.94-1.88,5.9-2.71,8.88-.69,2.49-1.02,5.75-2.7,7.82-2.8,3.47-10.5,1.38-14.32,1.31-7.91-.13-15.82.13-23.73.16-2.64,0-6.59,3.42-3.83,5.98,4.81,4.46,9.78,8.74,14.97,12.74,2.5,1.93,5.04,3.79,7.65,5.56,2.41,1.64,5.97,3.11,7.49,5.7,2.49,4.24-2.34,12.2-3.68,16.2-2.42,7.22-4.57,14.52-6.89,21.77-1.32,4.12,5.22,5,7.67,3.6,5.62-3.19,11.11-6.59,16.43-10.26,2.21-1.52,4.4-3.08,6.55-4.69s5.15-5.09,7.69-5.65,4.75,2.17,6.57,3.62c2.63,2.09,5.32,4.1,8.04,6.07,5.44,3.96,10.98,7.77,16.44,11.7,3.94,2.84,11.66-2.23,6.6-5.88Z"/>
        <path class="cls-2" d="M642.77,786.77c-6.68-4.84-13.39-9.62-20.05-14.49-4.76-3.48-10.23-9.57-16.58-9.21-6.33.36-12.07,6.66-16.99,10.15-6.46,4.59-13.08,8.92-19.89,12.96l6.38,3.57c2.45-7.68,4.75-15.41,7.3-23.05,1.81-5.43,5.77-12.28,3.93-18.17-1.79-5.72-9.07-8.78-13.53-12.02-6.65-4.82-12.97-10.06-19.1-15.52l-5.17,7.51c9.21-.02,18.42-.27,27.63-.06,6.22.15,13.01,1.14,18.03-3.42,4.76-4.33,5.64-11.69,7.48-17.51,2.51-7.98,5.24-15.89,7.82-23.84-3.01.44-6.02.88-9.02,1.32,2.65,8.07,5.43,16.1,8,24.19,1.64,5.15,2.42,12.74,6.62,16.62,4.44,4.1,11.23,2.7,16.7,2.65,8.98-.08,17.94.45,26.87,1.47l-.38-7.3c-7.92,5.77-15.88,11.49-23.77,17.31-3.76,2.78-8.31,5.78-9.93,10.41s.4,9.67,1.8,14.05c1.52,4.76,3.07,9.51,4.6,14.26,1.17,3.63,3.9,8.48,3.03,12.19-.57,2.44,2.3,3.64,4.23,3.41,2.59-.31,4.53-2.32,5.1-4.76.76-3.24-.35-5.59-1.36-8.75-1.37-4.27-2.74-8.54-4.12-12.8s-4.98-11.13-4.53-15.93c.32-3.42,5.02-5.62,7.53-7.44,7.13-5.19,14.26-10.38,21.39-15.58,2.64-1.92,4.23-6.78-.38-7.3-7.36-.84-14.74-1.36-22.16-1.45-3.45-.04-6.89.01-10.34.11-2.42.06-5.26.58-7.11-1.33-1.7-1.75-2.1-5.26-2.77-7.5-.9-3.02-1.85-6.02-2.83-9.02-2.27-6.98-4.65-13.92-6.94-20.9-1.42-4.33-7.88-2.19-9.02,1.32-2.06,6.34-4.2,12.65-6.26,18.99-.96,2.95-1.9,5.9-2.8,8.86-.72,2.38-1.06,5.98-2.48,8.06-1.13,1.66-1.71,1.58-3.87,1.61-3.93.06-7.89-.27-11.83-.28-7.24-.04-14.48.12-21.71.13-3.27,0-8.91,4.19-5.17,7.51,5.02,4.46,10.15,8.79,15.5,12.85,2.84,2.16,5.74,4.25,8.7,6.25,1.95,1.33,5.23,2.79,6.26,5.07s-.2,4.73-.99,6.96c-1.14,3.21-2.25,6.43-3.3,9.67-2.21,6.78-4.26,13.61-6.43,20.4-1.36,4.25,3.4,5.34,6.38,3.57,5.26-3.12,10.42-6.4,15.46-9.86,2.47-1.7,4.92-3.43,7.34-5.19,2.15-1.56,5.45-5.18,8.04-5.72s5.7,3,7.78,4.54c2.49,1.85,5,3.68,7.51,5.5,5.41,3.93,10.85,7.82,16.27,11.74,3.87,2.8,11.43-3.67,7.14-6.79Z"/>
        <path class="cls-2" d="M102.88,552.29c2.71,8.24,5.53,16.45,8.18,24.71,1.61,5.02,2.44,12.86,6.84,16.43s11.88,1.99,17.12,1.98c8.76-.01,17.51.41,26.24,1.24l-.1-8.55c-8.01,5.84-16.01,11.68-24.02,17.52-3.98,2.91-10.2,5.93-11.75,11.03-1.38,4.55,1.83,10.21,3.13,14.45,2.82,9.21,5.77,18.36,7.8,27.79l7.03-6.4c-6.71-4.86-13.47-9.63-20.14-14.54-4.61-3.39-9.95-9.33-16.19-8.7s-11.52,6.73-16.32,10.15c-6.29,4.49-12.8,8.64-19.45,12.59l5.22,3.83c2.55-7.83,5.12-15.65,7.57-23.51,1.67-5.36,5.92-12.5,3.77-18.2s-9.79-8.94-14.29-12.28c-6.43-4.78-12.67-9.77-18.71-15.02l-3.98,8.64c9.1.01,18.23-.22,27.32.25,6.53.34,13.46.34,18.25-4.78s5.39-12.13,7.14-18.39c2.15-7.66,4.99-15.18,7.49-22.72.72-2.16-.82-4.46-3.08-4.48-2.65-.02-4.4,2.52-5.13,4.72-2.1,6.32-4.19,12.63-6.31,18.94-.87,2.61-1.57,5.24-2.22,7.91-.58,2.39-.91,5.82-2.49,7.79-3.07,3.83-11.95,1.69-16.23,1.56-7.55-.24-15.16.01-22.71,0-3.81,0-7.16,5.87-3.98,8.64,5.13,4.46,10.4,8.74,15.82,12.85,2.4,1.82,4.82,3.6,7.26,5.37,2.12,1.53,6.17,3.35,7.45,5.65,1.19,2.14-.85,5.38-1.6,7.61-1.08,3.23-2.07,6.5-3.09,9.75-2.08,6.67-4.3,13.31-6.47,19.95-1.1,3.38,2.47,5.46,5.22,3.83,5.64-3.35,11.19-6.85,16.59-10.59,2.25-1.56,4.48-3.16,6.68-4.78s5.32-5.07,8.01-5.83,5.07,1.75,7.16,3.33c2.79,2.11,5.61,4.19,8.44,6.25,5.66,4.12,11.38,8.18,17.05,12.29,3.7,2.68,7.75-3.07,7.03-6.4-1.58-7.33-3.68-14.5-5.89-21.65-1.05-3.38-2.04-6.79-3.14-10.15-.2-.63-1.4-5.59-1.97-5.85.09.04-.89,1.87-.66,1.88.36.02,1.68-1.32,2.03-1.58,2.83-2.09,5.69-4.13,8.53-6.21,6.67-4.87,13.34-9.73,20.02-14.6,2.78-2.03,5.16-8.05-.1-8.55-7.19-.69-14.39-1.1-21.61-1.21-3.39-.05-6.78-.04-10.16.02-2.29.04-5.85.82-7.72-.9-1.69-1.55-2.1-5.12-2.74-7.2-.95-3.1-1.94-6.19-2.95-9.28-2.33-7.12-4.74-14.21-7.08-21.33-1.81-5.49-9.63.24-8.16,4.73Z"/>
        <path class="cls-2" d="M708.59,656.58c2.51-7.75,4.96-15.53,7.51-23.27,1.81-5.49,6.21-13.09,4.19-19.01s-10.05-9.27-14.57-12.62c-6.4-4.75-12.62-9.73-18.62-14.98l-3.61,8.8c10.54,0,21.08,0,31.62-.03,4.33-.01,9.46.88,12.87-2.47s4.44-9.96,5.93-14.43c3.09-9.25,6.07-18.53,9.1-27.79l-7.72,1.63c2.78,8.45,5.76,16.83,8.41,25.32,1.63,5.24,2.33,12.49,7.21,15.92s11.9,1.83,17.39,1.76c8.99-.13,17.98.08,26.97.1l-.46-8.54c-6.74,4.96-13.34,10.28-20.31,14.9-5.53,3.67-12.2,7.19-15.05,13.56s-.03,13.17,2.47,19.34c3.33,8.24,5.67,16.93,8.36,25.4l6.75-6.69c-6.32-4.56-12.69-9.05-18.99-13.63-4.72-3.43-10.39-9.75-16.32-10.61-6.46-.94-12.03,5.24-16.76,8.72-6.69,4.93-13.48,9.73-20.22,14.6l4.07-.26-1.2-.76c-4.23-2.67-9.78,5.65-5.56,8.31l1.2.76c1.23.77,2.91.58,4.07-.26,5.7-4.13,11.43-8.19,17.12-12.34,2.58-1.88,5.16-3.78,7.71-5.7,2.98-2.25,5.11-4.97,8.82-2.74,5,3,9.55,7.18,14.29,10.59,5.39,3.89,10.82,7.73,16.2,11.62,3.64,2.63,7.78-3.47,6.75-6.69-2.16-6.79-4.2-13.63-6.46-20.4-1.44-4.31-7.03-12.75-4.86-17.32,2.1-4.39,9.95-7.42,13.7-10.2,5.59-4.14,11.17-8.29,16.77-12.42,2.68-1.97,4.81-8.53-.46-8.54-7.58-.01-15.16-.15-22.73-.13-3.65,0-7.29.08-10.93.2-2.23.07-4.87.46-6.8-.96s-2.31-4.17-2.91-6.26c-.93-3.23-1.91-6.44-2.94-9.64-2.38-7.39-4.95-14.72-7.38-22.1-1.37-4.15-6.76-1.31-7.72,1.63-2.53,7.72-5.02,15.45-7.57,23.17-.35,1.06-5.86,15.18-5.22,15.68-1.19-.94,4.67-1.64-.95-1.6-3.19.03-6.38-.02-9.58,0-9.02.06-18.04,0-27.06,0-4,0-6.64,6.15-3.61,8.8,4.86,4.26,9.87,8.35,15.01,12.27,2.39,1.82,4.81,3.61,7.24,5.37,2.19,1.59,6.38,3.47,7.88,5.74s-.48,5.42-1.27,7.76c-1,2.97-1.99,5.95-2.96,8.93-2.13,6.56-4.22,13.14-6.34,19.7-2.01,6.19,5.72,7.28,7.49,1.81Z"/>
        <path class="cls-2" d="M54.42,368.75c2.79,8.48,5.68,16.92,8.4,25.43,1.75,5.48,2.57,13.39,7.36,17.23s12.31,2.11,17.9,2.07c8.97-.06,17.93.05,26.9.06l-2.12-9.27c-6.82,4.96-13.58,10.01-20.42,14.93-4.82,3.48-12.1,6.72-14.44,12.53-2.51,6.21,1.12,12.81,3.03,18.66,2.71,8.29,5.03,16.69,6.99,25.19l5.37-5.78c-6.24-4.53-12.49-9.03-18.75-13.53-4.75-3.41-11.36-10.88-17.76-10.01-3.2.43-5.74,2.82-8.22,4.68-3.19,2.4-6.42,4.74-9.66,7.08-5.82,4.19-11.61,8.34-17.65,12.19l5.3,6.71c2.7-8.54,5.4-17.09,8.1-25.63,1.69-5.34,4.05-11.39,2.8-17.08-1.08-4.93-4.77-8.23-8.62-11.18-7.68-5.89-15.8-11.11-22.6-18.08l-2.44,8.6c8.58-.01,17.17-.17,25.75-.06,5.69.07,12.6,1.5,17.09-2.9,4.22-4.14,5.07-11.7,6.78-17.07,2.53-7.93,5.22-15.81,7.8-23.73.72-2.21.63-5.34-1.51-6.81-1.91-1.3-4.38-.25-5.09,1.92-2.12,6.52-4.32,13.02-6.44,19.53-1.08,3.33-2.15,6.66-3.17,10-.65,2.15-1.08,5.98-2.57,7.7-1.39,1.59-3.21,1.53-5.22,1.54-3.62.02-7.26-.19-10.89-.21-7.59-.04-15.19.08-22.78.09-3.79,0-4.64,6.35-2.44,8.6,5.7,5.85,12.01,10.79,18.62,15.56,2.78,2.01,9.4,5.33,10.5,9,1,3.32-2.12,9.52-3.09,12.58-2.42,7.57-4.79,15.16-7.18,22.74-1.04,3.31.89,9.52,5.3,6.71,4.75-3.03,9.33-6.22,13.91-9.5,3-2.15,5.99-4.3,8.96-6.47,2.51-1.84,5.39-4.87,8.27-6.01,3.35-1.34,6.09,2.02,8.69,3.96s5.4,3.94,8.13,5.88c5.53,3.95,11.03,7.94,16.53,11.94,3.66,2.66,6.04-2.85,5.37-5.78-1.54-6.71-3.31-13.37-5.33-19.96-1.07-3.49-2.21-6.96-3.4-10.41-.69-2.01-2.39-4.74-1.22-6.57,1.33-2.07,5.08-3.71,7.08-5.12,2.54-1.8,5.07-3.62,7.58-5.45,5.66-4.12,11.29-8.3,16.95-12.42,2.97-2.16,2.11-9.26-2.12-9.27-7.27,0-14.53-.07-21.8-.07-3.38,0-6.75.02-10.13.07-2.36.04-6.28.95-8.39-.37-1.9-1.18-2.33-5.1-2.92-7.02-1-3.23-2.04-6.46-3.09-9.67-2.25-6.86-4.57-13.7-6.83-20.57-2.03-6.16-8.96-2.64-7.16,2.83Z"/>
        <path class="cls-2" d="M732.28,413.04c9.14,0,18.29-.12,27.43-.03,5.99.06,12.61,1.27,17.3-3.31s5.45-12.18,7.32-17.94c2.62-8.08,5.35-16.12,8-24.19l-8.35,1.83c2.6,7.96,5.29,15.9,7.85,23.88,1.73,5.4,2.67,14.23,7.52,17.91s12.88,1.82,18.28,1.79c8.68-.05,17.36.06,26.03.06l-.49-7.87c-6.13,4.45-12.23,8.94-18.31,13.45-5.37,3.98-13.23,7.44-16.55,13.49-3.37,6.13.02,12.12,2.06,18.08,1.42,4.14,2.71,8.33,4.02,12.51,1.24,3.93,2.83,7.58,2.25,11.76l7.58-4.73c-7.51-5.44-15.01-10.89-22.56-16.27-3.74-2.66-8.51-8.04-13.62-7.11-5.39.98-10.83,6.78-15.1,9.83-7.27,5.18-14.45,10.49-21.68,15.74l5.97,3.57c2.51-7.87,4.8-15.82,7.43-23.65,1.83-5.46,5.63-11.88,4.7-17.83-.97-6.19-6.7-9.01-11.39-12.24-7.36-5.07-14.43-10.53-21.65-15.79l.34,5.14.59-1.22c2.81-5.88-4.73-7.89-7.21-2.71l-.59,1.22c-.7,1.47-1.28,3.96.34,5.14,5.93,4.32,11.77,8.77,17.74,13.04,3.52,2.51,12.88,6.52,13.31,11.5.22,2.52-1.62,5.58-2.47,7.89-1.05,2.86-2.02,5.74-2.95,8.63-2.19,6.8-4.21,13.66-6.38,20.47-1.32,4.13,2.98,5.74,5.97,3.57,6.14-4.46,12.25-8.96,18.4-13.39,2.68-1.93,5.39-3.82,8.07-5.75,1.25-.91,4.34-4.14,5.96-4.33,1-.12-.9-.13-.06.24.94.42,1.82,1.26,2.64,1.88,2.69,2,5.41,3.95,8.14,5.88,6.55,4.65,13.02,9.42,19.53,14.13,3.32,2.4,7.13-1.5,7.58-4.73.92-6.66-2.08-13.07-4.06-19.32-1.04-3.28-2.11-6.55-3.26-9.79-.72-2.01-3.38-6.56-2.38-8.67s5.09-3.73,6.96-5.03c3.07-2.15,6.07-4.4,9.08-6.65,5.06-3.79,10.18-7.49,15.3-11.2,2.34-1.7,4.03-7.87-.49-7.87-7.27,0-14.54-.07-21.81-.07-3.35,0-6.7.02-10.06.07-2.39.04-6.55.86-8.71-.47s-2.58-4.87-3.26-7.1c-.99-3.24-2.02-6.46-3.06-9.68-2.32-7.16-4.73-14.29-7.06-21.44-1.57-4.8-7.23-1.58-8.35,1.83-2.11,6.41-4.26,12.81-6.38,19.22-.9,2.74-1.8,5.49-2.68,8.24-.76,2.36-1.22,6.74-2.73,8.66-1.09,1.4-2.95.81-4.97.78-3.59-.07-7.18-.09-10.77-.1-7.18-.01-14.37.05-21.55.06-4.68,0-8.49,9.02-2.77,9.01Z"/>
        <path class="cls-2" d="M52.39,229.89c9.25-.01,18.5-.2,27.74-.03,5.66.1,12.48,1.22,16.98-3.1s5.07-11.56,6.82-17.03c2.51-7.85,5.16-15.65,7.7-23.49l-9.61-.81c2.75,8.39,5.64,16.73,8.31,25.14,1.78,5.61,2.64,13.35,7.79,17s12.84,2.3,18.9,2.25c8.74-.07,17.48.07,26.22.08l-2.98-6.68c-6.87,5.04-13.61,10.27-20.57,15.19-4.89,3.46-12.05,6.61-14.09,12.73s1.97,12.52,3.84,18.01c2.73,8.03,5.1,16.18,7.7,24.25l8.64-2.93c-6.82-4.94-13.71-9.78-20.48-14.77-4.95-3.65-10.22-9.27-16.56-10.24-7.09-1.08-11.89,3.89-17.11,7.84-6.84,5.16-13.93,9.97-20.88,14.97l6.09-.07-1.4-.95,1.93,4.41c3.11-9.5,6.21-19,9.25-28.52,1.09-3.43,3.71-8.26,2.57-11.95s-6.06-6.14-9.03-8.32c-8.05-5.9-16.11-11.79-24.18-17.66l.97,3.74.48-1.39c1.75-5.08-7.89-7.3-9.44-2.8l-.48,1.39c-.45,1.32-.24,2.86.97,3.74,7.16,5.2,14.37,10.34,21.47,15.63,1.83,1.36,8.88,5.32,9.46,6.84.88,2.33-2.45,8.71-3.24,11.23-2.64,8.46-5.49,16.85-8.24,25.27-.66,2,.32,3.32,1.93,4.41l1.4.95c1.56,1.05,4.54,1.04,6.09-.07,5.21-3.75,10.5-7.41,15.71-11.17,2.48-1.79,4.94-3.61,7.35-5.47,2.11-1.63,4.93-5.03,7.68-4.32,2.29.59,5.1,3.76,7,5.17,2.28,1.71,4.58,3.39,6.89,5.06,5.43,3.93,10.89,7.8,16.32,11.73,2.33,1.69,10.22,2,8.64-2.93-2.18-6.76-4.2-13.57-6.4-20.32-1.01-3.12-2.07-6.24-3.21-9.31-.95-2.55-2.79-5.81-2.21-8.63.53-2.6,2.8-3.98,4.87-5.36,2.84-1.9,5.65-3.82,8.42-5.82,6.21-4.48,12.29-9.16,18.47-13.69,3.35-2.46.71-6.67-2.98-6.68-7.09,0-14.18-.09-21.26-.09-3.18,0-6.37.02-9.55.07-2.11.04-6.51.91-8.36-.24s-2.34-5.45-2.88-7.25c-.96-3.17-1.97-6.33-2.99-9.49-2.31-7.07-4.71-14.1-7.03-21.17-1.11-3.37-8.31-4.82-9.61-.81-2.03,6.24-4.12,12.46-6.15,18.7-1.86,5.7-3.06,12.11-5.53,17.56-2.29,5.04-10.07,2.66-14.7,2.63-7.6-.04-15.19.08-22.79.09-6.13,0-6.92,7.48-.63,7.47Z"/>
        <path class="cls-2" d="M684.39,230.79c8.88-.02,17.77-.24,26.65-.05,5.91.13,12,.97,16.68-3.43s5.5-11.59,7.34-17.43c2.53-8.05,5.31-16.03,7.92-24.05l-7.73,1.58c3.03,9.23,6.01,18.48,9.12,27.68,1.37,4.07,2.12,10.29,5.2,13.53,2.87,3.01,7.86,2.17,11.61,2.15,10.34-.05,20.77,0,31.04,1.26l.62-8.46c-6.83,5-13.53,10.37-20.63,14.98-4.94,3.2-10.66,6.36-13.02,12.1-2.48,6.02.2,12.12,2.37,17.79,3.03,7.91,5.35,16.15,7.98,24.2l1.75-5.64-1.32,1.05,5.05-1.01c-7.81-5.66-15.64-11.28-23.47-16.9-3.48-2.5-7.58-7.19-12.31-6.41-5.09.83-10.13,6.3-14.14,9.14-7.43,5.28-14.78,10.69-22.16,16.03l5,4.84c2.56-7.93,5.02-15.91,7.63-23.82,1.85-5.61,5.67-12.41,5-18.47s-7.32-9.23-11.85-12.44c-7.11-5.04-14.07-10.31-21.1-15.46l1.29,3.87.44-1.53c.63-2.18-.98-4.43-3.24-4.37-2.65.07-4.31,2.67-4.96,4.9l-.44,1.53c-.4,1.37.15,3.03,1.29,3.87,5.53,4.04,11.01,8.16,16.55,12.19,2.77,2.01,5.56,4,8.37,5.95,1.97,1.36,5.14,2.8,5.36,5.49.19,2.23-1.87,5.72-2.59,7.82-1.1,3.21-2.15,6.43-3.19,9.65-2.03,6.31-4.01,12.64-6.05,18.96-1.05,3.24,1.3,7.52,5,4.84,6.27-4.54,12.5-9.11,18.79-13.62,3.15-2.26,6.33-4.47,9.43-6.78,1.24-.93,3.42-3.32,4.93-3.53-.91.13,1.13,1.03,2.01,1.68,2.53,1.85,5,3.75,7.57,5.55,7.14,5.01,14.14,10.19,21.2,15.31,1.69,1.22,3.7.07,5.05-1.01l1.32-1.05c1.49-1.19,2.34-3.81,1.75-5.64-2.16-6.62-4.27-13.25-6.43-19.87-1.26-3.87-5.84-11.09-4.4-15.16,1.3-3.67,8.55-6.44,11.57-8.63,5.72-4.16,11.4-8.4,17.11-12.57,1.97-1.44,5.15-7.9.62-8.46-9.32-1.15-18.67-1.32-28.05-1.41-2.87-.03-5.74.02-8.61,0-.82,0-3.31-.33-2.98-.05-1.06-.87-1.32-3.08-1.69-4.28-.9-2.89-1.85-5.77-2.82-8.64-2.93-8.7-5.74-17.44-8.6-26.16-1.36-4.12-6.76-1.4-7.73,1.58-2.09,6.4-4.26,12.78-6.35,19.18-1.05,3.22-2.07,6.44-3.04,9.68-.59,1.98-1.02,6.27-2.48,7.71-1.36,1.34-3.3,1.12-5.16,1.11-3.49-.03-6.97-.22-10.46-.25-7.3-.05-14.6.1-21.9.11-4.72,0-7.52,9.28-1.72,9.27Z"/>
        <path class="cls-2" d="M209.96,159.12c2.53-7.9,4.96-15.84,7.56-23.71,1.94-5.86,5.67-12.5,3.3-18.74s-9.47-9.31-14.37-12.93c-6.48-4.79-12.71-9.87-18.67-15.28l-1.03,9.06c9.04-.01,18.07-.23,27.11-.04,5.27.11,11.39,1.17,15.6-2.78s4.98-11.27,6.65-16.54c2.57-8.1,5.37-16.13,8.02-24.2l-7.16-1.5c2.7,8.19,5.51,16.34,8.14,24.55,1.82,5.69,2.73,13.11,7.23,17.43s11.09,3.09,16.84,3.04c8.98-.07,17.94.36,26.87,1.22l-2.84-9.22c-6.88,5.04-13.63,10.28-20.62,15.16-4.93,3.44-11.54,6.46-12.66,13.03s2.64,13.02,4.61,18.92c2.63,7.86,4.97,15.81,7.51,23.7l5.08-5.26c-6.65-4.82-13.3-9.64-19.95-14.46-4.56-3.3-9.84-8.66-15.5-9.87-5.26-1.13-9.92,3.46-13.82,6.3-7.53,5.48-15.06,10.95-22.6,16.42l4.72.95-1.25-1.21c-4.68-4.53-8.46,3.09-4.7,6.73l1.25,1.21c1.29,1.25,3.06,2.16,4.72.95,6.46-4.69,12.92-9.38,19.37-14.08,2.89-2.1,8.97-8.55,12.93-7.37,2.32.69,4.63,3.05,6.54,4.43,2.68,1.93,5.36,3.87,8.04,5.81,5.75,4.17,11.5,8.34,17.25,12.5,3.63,2.63,6.1-2.09,5.08-5.26-2.1-6.55-4.09-13.14-6.2-19.68-.94-2.92-1.91-5.84-2.94-8.73-.83-2.33-2.89-5.56-2.64-8.07.23-2.23,2.95-3.64,4.6-4.74,2.78-1.87,5.55-3.74,8.27-5.7,5.94-4.27,11.74-8.73,17.64-13.05,3.29-2.41.97-8.85-2.84-9.22-7.05-.67-14.12-1.1-21.2-1.2-3.77-.05-7.54,0-11.32.09-1.86.04-4.79.58-6.3-.84s-1.86-5.25-2.46-7.2c-.94-3.05-1.92-6.09-2.91-9.12-2.23-6.8-4.55-13.58-6.79-20.38-1-3.03-5.73-5.87-7.16-1.5-2.2,6.71-4.5,13.39-6.69,20.1-.98,2.98-1.93,5.97-2.83,8.98-.76,2.54-1.08,6.12-2.82,8.22-3.01,3.62-11.58,1.61-15.58,1.57-7.75-.07-15.49.09-23.24.1-5.07,0-3.39,6.92-1.03,9.06,4.61,4.19,9.37,8.18,14.3,11.98,2.4,1.85,4.84,3.66,7.31,5.44,1.63,1.18,6.1,3.22,7.07,5.04.89,1.67-1.22,5.41-1.88,7.35-.93,2.72-1.82,5.45-2.7,8.18-2.06,6.38-4.03,12.78-6.08,19.16-1.46,4.56,5.25,11.11,7.15,5.2Z"/>
        <path class="cls-2" d="M574.12,160.38c2.56-7.91,5.01-15.86,7.61-23.76,1.91-5.78,5.82-12.72,4.81-18.96-1.07-6.58-7.91-9.51-12.79-13.05-6.91-5.02-13.47-10.47-19.72-16.3l-2.87,9.21c10.59.01,21.2-.16,31.79-.02,4.03.05,8.45.52,11.43-2.74,3.14-3.44,3.91-9.09,5.31-13.36,3.14-9.58,6.33-19.15,9.47-28.74l-7.16,1.47c2.58,7.36,5.07,14.74,7.49,22.15,1.89,5.79,2.82,15.64,8.22,19.49,5.1,3.63,14.03,1.66,19.78,1.66,7.94,0,15.86.05,23.78.48l-1-9.06c-6.78,4.95-13.49,10.01-20.32,14.91-4.93,3.53-11.69,6.63-14.21,12.5-2.6,6.06.54,12.04,2.46,17.81,2.74,8.22,4.96,16.57,6.62,25.07l6.23-5.75c-6.69-4.82-13.51-9.45-20.1-14.41-4.84-3.64-9.88-9.32-16.53-8.17-6.11,1.05-11.47,7.15-16.32,10.7-6.3,4.61-12.73,9.03-19.06,13.6-3.91,2.82-2.09,11.97,2.96,8.33,5.41-3.9,10.88-7.7,16.3-11.6,4.58-3.29,9.34-8.39,14.44-10.72,5.41-2.47,12.37,5.71,16.5,8.73,5.63,4.12,11.38,8.07,17.04,12.15,3.33,2.4,6.82-2.69,6.23-5.75-1.24-6.34-2.7-12.64-4.49-18.85-.98-3.42-2.06-6.81-3.21-10.18-.53-1.56-2.96-5.94-2.33-7.54.72-1.84,4.72-3.56,6.28-4.65,2.56-1.79,5.1-3.61,7.63-5.45,5.63-4.1,11.21-8.28,16.84-12.39,2.87-2.1,3.72-8.81-1-9.06-6.37-.34-12.71-.42-19.08-.46-3.76-.02-7.52-.03-11.28.02-2.5.04-7.19.99-9.42-.54s-2.52-5.51-3.21-7.78c-1.11-3.68-2.3-7.33-3.5-10.97-2.14-6.49-4.32-12.97-6.59-19.42-1.51-4.3-6.15-1.63-7.16,1.47-2.77,8.46-5.48,16.93-8.33,25.36-1.01,2.98-1.95,5.97-2.88,8.97-.28.91-.7,1.86-.89,2.79-.11.51-.24.6-.19.5.57-1.04.77-.46-1.05-.33-2.28.17-4.61-.03-6.89-.04-9.88-.05-19.76.05-29.64.05-4.27,0-5.53,6.72-2.87,9.21,4.93,4.6,10.06,8.99,15.41,13.09,2.83,2.17,5.72,4.26,8.65,6.29,1.89,1.31,5.31,2.79,5.54,5.27.21,2.27-1.98,5.94-2.71,8.09-.99,2.9-1.95,5.82-2.89,8.74-2.12,6.57-4.18,13.17-6.31,19.74-1.92,5.93,5.24,8.16,7.16,2.23Z"/>
        <path class="cls-2" d="M420.09,7.19c3.12,9.43,6.3,18.85,9.36,28.3,1.17,3.62,1.89,9.02,5.07,11.55s8.34,1.57,12,1.57c10.21,0,20.45.08,30.61,1.32l-.36-9.11c-7.15,5.23-14.14,10.71-21.46,15.71-4.99,3.4-10.56,6.25-12.44,12.41s1.27,11.92,3.19,17.61c2.74,8.1,4.85,16.38,6.59,24.75l6.43-6.46c-6.15-4.42-12.31-8.82-18.46-13.25-4.68-3.37-11.12-10.61-17.29-10.23s-11.81,6.94-16.42,10.18c-6.26,4.4-12.68,8.55-19.29,12.39l4.68,5.62c2.92-9.11,5.94-18.19,8.74-27.33,1.42-4.64,3.23-9.89,1.73-14.75s-6.07-7.83-9.89-10.64c-7.39-5.44-14.8-10.73-21.37-17.17l-3.5,8.98c8.59-.01,17.18-.16,25.78-.06,5.66.07,12.4,1.38,17.07-2.65s5.58-11.08,7.34-16.62c2.46-7.72,5.11-15.37,7.64-23.07l-4.32,3.49,1.5-.02c4.78-.06,6.95-9.78,1.64-9.71l-1.5.02c-1.93.02-3.73,1.71-4.32,3.49-2.05,6.21-4.16,12.4-6.2,18.62-.97,2.96-1.92,5.92-2.83,8.9-.53,1.72-.98,5.94-2.46,7.21s-4.19.77-5.98.74c-3.3-.07-6.6-.13-9.91-.14-7.27-.03-14.54.08-21.81.09-4.05,0-6.3,6.24-3.5,8.98,5.86,5.75,12.37,10.62,18.99,15.44,2.85,2.07,8.68,5.04,10.04,8.61,1.14,2.99-1.05,7.33-1.95,10.16-2.62,8.24-5.28,16.47-7.92,24.7-1.01,3.14.7,7.94,4.68,5.62,5.31-3.09,10.51-6.36,15.59-9.82,2.48-1.69,4.93-3.42,7.36-5.18s5.47-5.08,8.3-5.89c3.11-.89,6.17,2.56,8.7,4.44s5.06,3.69,7.6,5.51c5.39,3.86,10.78,7.74,16.17,11.61,3.97,2.85,7.13-3.1,6.43-6.46-1.31-6.33-2.83-12.61-4.69-18.8-.86-2.84-1.78-5.67-2.77-8.47-.72-2.04-2.99-5.83-2.58-8.09.38-2.07,2.75-3.04,4.4-4.13,2.64-1.75,5.24-3.53,7.81-5.38,5.66-4.07,11.18-8.32,16.8-12.43,2.76-2.02,4.51-8.52-.36-9.11-8.88-1.08-17.77-1.21-26.7-1.29-2.66-.02-10.41,1.11-12.44-.32-1.41-.99-2.67-7.79-3.39-9.97-2.88-8.7-5.76-17.41-8.64-26.12-1.96-5.92-9.03.05-7.51,4.66Z"/>
      </g>
    </g>
  </g>
</svg>