<?xml version="1.0" encoding="UTF-8"?>
<svg id="Calque_2" xmlns="http://www.w3.org/2000/svg" viewBox="0 0 744.86 568.97">
  <defs>
    <style>
      .cls-1 {
        fill: #a86968;
      }

      .cls-1, .cls-2, .cls-3 {
        stroke: #111827;
        stroke-miterlimit: 10;
      }

      .cls-2 {
        fill: #fff9c1;
      }

      .cls-4 {
        fill: #111827;
      }

      .cls-3 {
        fill: #4d4d4d;
      }
    </style>
  </defs>
  <g id="Fait_en_Belgique">
    <g>
      <path class="cls-3" d="M249.65,67.81v266.26c-2.28.44-4.54.95-6.81,1.5-2.63.64-4.93,2.71-7.32,4.22-2.38,1.5-4.69,3.11-7.63,5.08-1.75-7.1-3.47-13.78-5.04-20.49-1.18-5.05-1.65-10.32-3.36-15.16-1.82-5.13-4.08-9.91-9.61-13-5.81-3.24-11.61-4.71-18.05-4.79-3.77-.04-7.55-.62-11.29-.43-6.93.33-13.13-2.13-19.41-4.41-.7-.25-1.34-.96-1.79-1.61-3.38-4.87-7.08-9.58-9.92-14.76-2.12-3.9-3.22-8.38-4.57-12.66-3.47-10.99-6.75-22.05-10.32-33-.55-1.68-2.13-3.14-3.49-4.43-3.95-3.73-8.01-7.36-12.08-10.95-.56-.49-1.46-.81-2.22-.83-7.19-.21-14.4-.59-21.59-.36-2.51.08-5.01,1.63-7.43,2.7-3.43,1.52-6.66,3.58-10.2,4.75-3.75,1.23-7.74,1.82-11.67,2.45-3.14.5-6.32.71-9.5.89-.8.05-1.85-.28-2.43-.81-7.46-6.96-15.04-13.81-22.17-21.1-2.44-2.49-3.7-6.12-5.5-9.23-7.81-13.49-13-28.01-16.46-43.14-2.27-9.93-4.02-19.98-6.04-29.97-.31-1.54.12-2.35,1.55-3.15,16.13-8.98,32.22-18.06,48.32-27.1,21.64-12.15,43.22-24.42,64.98-36.33,4.86-2.66,10.37-4.16,15.64-6.02,8.75-3.09,17.54-6.03,26.32-9.02.7-.24,1.42-.42,2.34-.68,1.38,5.49,2.69,10.9,4.1,16.28.87,3.31,1.84,6.6,2.89,9.86.19.58.91,1.15,1.52,1.43,5.1,2.31,10.22,4.58,15.37,6.77.89.37,1.96.44,2.94.42,14.14-.38,28.29-1.14,42.43-1.06,5.84.03,11.67,1.06,17.5,1.88Z"/>
      <path class="cls-1" d="M740.52,318.15c-.33,6.44-.31,12.89-.55,19.33-.04,1.06-.5,2.29-1.17,3.11-9.09,11.08-19.39,20.96-29.91,30.67-2.34,2.16-3.33,5.86-4.67,8.97-2.52,5.82-4.84,11.72-7.33,17.81-6.82-2.7-13.48-5.35-20.14-7.99-.08-.03-.16-.06-.23-.1-2.9-1.65-5.21-1.51-7.88,1.05-5.97,5.72-12.63,10.75-18.46,16.6-2.72,2.74-4.35,6.65-6.2,10.17-3.77,7.17-7.44,14.4-10.99,21.68-1.19,2.45-2.15,5.07-2.77,7.72-1.96,8.3-3.71,16.65-5.5,24.99-.17.77-.17,1.65.03,2.41,1.73,6.54,3.25,13.16,5.38,19.57,1.39,4.17,3.32,8.25,5.63,11.99,5.71,9.24,8,19.52,10.33,29.91.87,3.84.13,6.63-1.82,9.73-3.21,5.09-6.11,10.37-9.13,15.58-.76,1.33-1.45,2.37-3.39,2.36-13.89-.06-27.79.04-41.69.02-1.46-.01-2.93-.49-4.38-.81-10.99-2.47-19.32-9.58-28.03-16.05-12.68-9.42-25.21-19.06-38.19-28.05-7.72-5.35-15.75-10.27-23.81-15.11V27.64c.87,2.38,2.3,4.49,4.08,6.48,3.84,4.3,7.71,8.58,11.3,13.08,5.54,6.94,12.11,12.72,20.54,15.42,5.4,1.73,11.29,1.47,17.06-.1,7.31-2,14.59-4.57,22.38-3.84,1.59.15,3.35.5,4.68,1.32,7.96,4.89,15.78,10,23.72,14.92,9.02,5.58,18.09,11.06,27.17,16.52,1.54.93,2.39,2.06,2.79,3.86,1.71,7.75,3.56,15.47,5.42,23.19.45,1.86.32,3.47-.52,5.26-3.42,7.35-6.43,14.9-10.03,22.15-4.34,8.75-9.14,17.27-13.7,25.92-.45.84-.81,1.87-.78,2.81.21,7.44.02,14.95,1.02,22.3.5,3.72,2.44,7.94,5.11,10.47,2.58,2.45,6.85,3.3,10.52,4.36,8.72,2.52,17.77,1.74,26.7,2.18,6.19.3,12.39.34,18.58.61.88.04,1.94.49,2.57,1.1,13.07,12.59,26.09,25.24,39.12,37.87,2.16,2.08,4.33,4.14,6.6,6.31-3.14,4.71-6.11,9.34-9.27,13.84-1.08,1.52-1.22,2.71-.21,4.26,1.38,2.1,2.72,4.24,3.82,6.48,1.63,3.32,4.48,5.43,7.33,7.4,6.83,4.71,11.63,11.13,16.33,17.78,1.91,2.69,2.71,5.31,2.54,8.56Z"/>
      <path class="cls-2" d="M495.65,27.64v476.07c-2.4-1.44-4.81-2.88-7.21-4.32-7.47-4.48-15.96-6.24-24.29-8.45-5.48-1.45-10.13-4.47-11.77-10.36-2.27-8.21-4.3-16.48-6.38-24.74-.95-3.8-1.53-7.72-2.7-11.45-1.8-5.71-.52-11.32.14-16.92.99-8.47,2.32-16.9,3.55-25.33.28-1.89.73-3.75,1.12-5.7-3.36-1.37-5.64-.71-8.2,1.51-15.26,13.29-30.71,26.36-46.1,39.5-.76.65-1.59,1.25-2.25,1.99-5.15,5.73-12.51,7.09-19.19,9.79-1.01.41-2.1.63-3.06,1.12-4.21,2.19-8.41,2.22-12.95.85-6.39-1.93-12.97-3.26-19.38-5.13-2.33-.68-4.47-2.1-6.61-3.35-1.58-.92-2.93-2.24-4.52-3.15-3.4-1.93-5.51-4.61-6.98-8.36-1.38-3.5-.53-6.62.02-9.8,2.15-12.57,4.09-25.2,2.72-37.93-1-9.26-3.08-18.19-8.42-26.42-4.19-6.47-10.24-10.15-16.04-14.35-8.33-6.04-17.97-8.32-28.05-9.65-6.66-.88-13.09-.22-19.45,1.01V67.81c1.37.2,2.75.38,4.12.54,5.81.66,11.61,1.39,17.44,1.8s11.68.51,17.53.6c1.53.02,3.2-.2,4.6-.81,7.26-3.15,14.48-6.41,21.66-9.76,1.02-.48,1.98-1.52,2.52-2.53,4.82-9.26,9.53-18.57,14.36-28.02,6.66,2.94,13.23,5.75,19.71,8.75,1.55.71,2.38.56,3.69-.55,4.02-3.39,6.73-7.37,6.93-12.76.19-5.1,3.2-8.59,6.71-11.79.13-.11.27-.21.39-.32,2.03-1.97,3.48-4.59,7.1-4.29,2.91.24,5.78.04,8.47,1.63,2.86,1.69,5.79,3.29,8.84,4.6,4.52,1.94,9.1.64,13.56-.41,7.3-1.7,14.54-3.65,22-5.55-.42-1.46-.69-2.39-1.22-4.27,4.5,1.92,8.63,3.19,12.26,5.31,7.28,4.24,14.12,9.21,22.03,12.39,4.64,1.87,8.63,1.22,11.79-2.58,2.3-2.77,4.49-5.62,6.85-8.34.95-1.09,2.07-2.3,3.36-2.78,1.9-.7,4.05-2.49,6,.25,1.22,1.72,3.25,2.79,3.35,5.35.13,2.99.84,5.96,1.03,8.96.09,1.58.41,3.04.92,4.41Z"/>
      <path class="cls-4" d="M450.71,392.1c-10.24-3.46-17.78,6.99-24.82,13.03-9.41,8.08-18.86,16.12-28.3,24.16-4.02,3.43-8.06,7.99-12.7,10.56s-9.72,3.7-14.51,5.59c-6,2.37-9.8,1.77-15.89.1-5.77-1.57-12.24-2.33-17.64-4.93-3.68-1.77-8-4.42-10.94-7.26-4.83-4.66-3.09-10.51-2.13-16.34,1.92-11.68,3.28-23.49,2.05-35.33-1.06-10.21-3.77-20.51-9.72-29.01-5.3-7.57-14.62-14.18-22.85-18.18-10.55-5.13-23.34-7.29-34.98-6.25-5.93.53-13.03,1.31-18.41,4.04-4.69,2.39-9.05,5.93-13.41,8.86l5.66,1.92c-2.25-9.07-4.63-18.1-6.36-27.29-1.3-6.85-3.13-14.35-7.95-19.67-12.23-13.51-31.83-6.85-47.18-11.46-1.98-.59-4.29-1.14-6.12-2.12s-2.67-2.54-3.84-4.17c-2.86-4.01-5.97-7.99-8.07-12.47-3.79-8.08-5.75-17.34-8.38-25.85-2.42-7.84-3.73-17.75-9.8-23.62-3.04-2.94-6.21-5.74-9.37-8.55-3.74-3.33-5.58-4.14-10.61-4.31-8.63-.29-17.69-1.59-25.7,2.12-3.4,1.58-6.68,3.52-10.16,4.88-4.39,1.71-9.36,2.36-14.02,2.95-2.39.3-4.91.81-7.18-.03s-3.9-2.79-5.69-4.44c-3.51-3.25-7.01-6.51-10.45-9.83s-6.72-6.17-8.91-10.26c-2-3.74-4.07-7.46-5.97-11.25-8.36-16.69-12.49-34.56-16.01-52.78-.42-2.19-.84-4.38-1.27-6.57-.22-1.15-.36-2.61-.74-3.75l-.19-.94c-.25-1.63-.34-1.24-.28,1.17.57.5,11.75-6.57,12.95-7.24,8.63-4.84,17.25-9.69,25.88-14.53,19.1-10.73,38.16-21.53,57.31-32.18,9.15-5.09,17.94-10.11,27.89-13.46s20.39-7.54,30.81-10.46l-3.62-2.85c1.21,4.83,2.38,9.67,3.63,14.49,1.04,4.01,1.76,9,3.65,12.7,1.77,3.47,6.37,4.53,9.67,5.99s7.19,3.83,10.95,4.4c4.49.67,9.58-.17,14.1-.32,5.14-.18,10.29-.37,15.43-.5,9.73-.25,19.17-.13,28.82,1.27s18.99,2.53,28.53,3.01c4.84.24,9.82.58,14.66.36,4.46-.21,8.31-2.28,12.34-4.07,6.66-2.96,16.19-5.38,20.14-11.94,5.37-8.92,9.63-18.74,14.36-28.01l-5.68,2.61c5.69,2.5,11.4,4.96,17.05,7.53,4.66,2.12,7.38,2.62,11.43-.9,3.17-2.75,5.72-6.32,7.11-10.29,1.57-4.48.82-8.58,4.35-12.23,1.09-1.13,2.39-2.76,3.67-3.6,2.07-1.37,4.53-1.31,7.05-.71,5.22,1.23,9.27,5.55,14.69,6.54s10.64-.81,15.69-2.04c6.13-1.49,12.23-3.12,18.35-4.68,3.37-.86,5.04-4.36,4.12-7.59-.41-1.42-.81-2.84-1.22-4.27l-6.11,7.29c7.42,3.06,14.04,6.38,20.89,10.59,5.67,3.49,12.68,8.49,19.61,8.43s10.96-6.02,15.05-10.98c1.17-1.42,2.52-3.58,4.26-4.26s1.19-.59,2.5.82c2.68,2.88,2.25,7.65,2.73,11.41,1,7.93,5.87,12.77,10.95,18.56s9.52,12.01,15.57,16.8c5.6,4.43,12.35,7.73,19.58,8.07,8.14.39,15.45-2.87,23.28-4.4,3.89-.76,8.34-1.46,12.16-.09,4.21,1.52,8.35,4.94,12.13,7.34,7.56,4.8,15.15,9.55,22.8,14.21,3.68,2.24,7.36,4.47,11.05,6.69,1.73,1.04,4.52,2.13,5.96,3.59,1.81,1.84,1.9,4.65,2.46,7.11.96,4.19,1.95,8.38,2.95,12.56.42,1.76,1.61,4.44,1.35,6.31-.31,2.25-2.15,4.91-3.06,6.97-3.58,8.13-7.27,16.15-11.43,24.01-1.98,3.74-4.01,7.46-6.01,11.2-1.89,3.52-4.45,7.2-4.76,11.31-.57,7.73-.36,17.31,1.3,24.89,1.41,6.42,5.06,11.95,11.34,14.3,8.17,3.06,16.63,3.84,25.28,3.97,4.86.07,9.7.29,14.55.43,4.43.13,10.75-.99,14.3,1.87,7.97,6.41,15.02,14.51,22.36,21.63s14.59,14.17,21.95,21.2l-.12-5.55c-2.06,3.1-4.08,6.22-6.16,9.3-1.89,2.81-4.44,5.59-4.66,9.12s1.79,5.54,3.4,8.36,2.78,5.35,5.1,7.55c4.86,4.6,10.31,7.94,14.63,13.21,2.02,2.46,4.14,5.06,5.81,7.77,2.19,3.55,1.56,7.3,1.45,11.27s.19,7.81-.27,11.6c-.42,3.51-3.43,5.89-5.82,8.54-5.13,5.69-10.55,11.1-16.1,16.37-4.77,4.53-9.41,8.19-11.99,14.39-3.04,7.3-6.01,14.64-8.99,21.97l6.2-3.84c-7.26-2.88-14.46-6.07-21.78-8.76s-12.71,4.5-17.77,8.87c-5.68,4.91-12.03,9.65-15.9,16.2-4.14,7.01-7.62,14.55-11.25,21.84-4,8.03-6.43,15.66-8.37,24.42-1.75,7.95-4.63,15.74-2.56,23.78,2.01,7.81,3.77,15.87,7.22,23.2s7.75,14.02,10.1,22.04c1.2,4.07,2.47,8.45,3.09,12.65.64,4.35-1.8,7.14-3.92,10.73-1.07,1.81-2.12,3.64-3.17,5.47-.53.92-2.08,4.98-3.14,5.49,1.01-.48-5.85-.8-2.64-.58-.98-.07-2,0-2.98,0-2.65,0-5.29,0-7.94,0-9.02.01-18.57.93-27.53-.04-7.67-.83-14.71-4.86-20.92-9.2-14.2-9.93-27.69-20.89-41.79-30.96-7.29-5.2-14.74-10.14-22.36-14.83s-14.59-9.61-22.62-12.65c-4.07-1.54-8.27-2.69-12.48-3.78-3.77-.98-7.96-1.67-11.04-4.26-3.49-2.92-4.09-7.98-5.17-12.13-1.32-5.07-2.6-10.15-3.86-15.24-1.06-4.26-1.88-8.56-3.01-12.8-1.41-5.26-.8-10.05-.12-15.38,1.31-10.25,2.46-20.61,4.55-30.73,1.31-6.35-6.46-6.75-7.62-1.11-1.74,8.41-2.89,16.93-4.04,25.43s-2.99,17.38-.68,25.97c2.45,9.12,4.37,18.4,6.76,27.55,1.77,6.79,2.92,13.53,9.1,17.72,6.1,4.13,14.4,4.61,21.25,6.97,8.39,2.89,15.89,8.12,23.41,12.73,15.74,9.65,30.54,20.58,45.31,31.65,12.49,9.36,25.69,22.09,41.78,24.41,9.06,1.3,19.11.12,28.26.11,4.63,0,9.27.03,13.9.02,3.18,0,5.68-.66,7.77-3.25,2.35-2.91,3.96-6.64,5.82-9.87,2.08-3.6,4.69-7.11,6.26-10.97,2.9-7.15-.05-15.1-1.98-22.15-2.25-8.21-5.85-15.06-9.77-22.54s-6.53-16.65-8.2-25.13c-1.02-5.15,1.28-11.12,2.4-16.23,1.05-4.81,1.86-9.86,3.57-14.49,3.45-9.3,8.92-18.11,13.43-26.93,4.27-8.33,12.24-13.52,19.04-19.69,2.28-2.07,3.4-3.7,6.45-2.83,2.05.59,4.09,1.63,6.06,2.42,4.77,1.89,9.54,3.78,14.31,5.67,2.98,1.18,5.17-1.32,6.2-3.84,2.9-7.11,5.61-14.33,8.76-21.33,1.48-3.29,4.63-5.53,7.21-7.97s5.1-4.86,7.61-7.34c5.51-5.43,11.02-11.01,15.87-17.04,4.42-5.51,3.96-10.95,4.11-17.78.14-6.33,1.43-13.28-1.7-19.1-2.86-5.32-7.25-10.52-11.51-14.77-4.75-4.74-10.39-7.54-13.87-13.42-.55-.93-2.67-3.34-2.68-4.45s1.35-2.61,2.1-3.73c2.25-3.34,4.45-6.71,6.67-10.06.92-1.39,1.23-4.26-.12-5.55-12.98-12.39-25.81-24.95-38.72-37.42-2.63-2.54-5.61-6.55-8.98-8.15s-8.03-.85-11.63-.94c-8.44-.23-16.97-.18-25.39-.77-6.53-.46-17.21-1.41-21.22-7.32-2.39-3.53-2.68-7.79-2.97-11.91-.31-4.49-.66-9.23-.39-13.74s3.41-8.62,5.52-12.55c2.32-4.3,4.63-8.61,6.85-12.96,3.97-7.82,7.39-15.9,10.95-23.91s.45-14.55-1.36-22.3c-.9-3.86-1.48-7.92-2.72-11.69-1.17-3.57-3.56-5.02-6.68-6.89-15.44-9.29-30.65-18.93-45.95-28.44s-31.1,5.75-46.91.97c-7.18-2.17-13.06-7.19-17.85-12.8-2.79-3.27-5.47-6.63-8.32-9.87-2.69-3.05-6.1-6.02-7.67-9.84-3.05-7.42.14-16.42-7.56-21.71-5.86-4.03-12.7,3.47-16.01,7.49-2.63,3.19-4.89,7.96-9.66,7.16-4.24-.71-8.61-3.7-12.27-5.86s-7.13-4.49-10.78-6.6c-4.12-2.39-8.6-3.92-12.99-5.73s-7.11,3.8-6.11,7.29c.41,1.42.81,2.84,1.22,4.27l4.12-7.59c-5.51,1.41-11.01,2.87-16.53,4.23-5.22,1.29-11.72,3.87-17.04,2.03-4.58-1.58-8.3-5.18-13.11-6.11-4.22-.82-8.84-.89-12.36,1.83-5.96,4.6-11.47,11.15-12.4,18.79-.27,2.17-.42,4.07-1.69,5.96-.44.66-1.11,1.58-1.75,2.06-1.73,1.28-1.64.67-3.47-.26-5.52-2.8-11.39-5.04-17.05-7.53-2.24-.99-4.64.58-5.68,2.61-4.03,7.89-8.04,15.8-12.11,23.67-1.17,2.26-1.75,3.66-3.77,5.07-1.43.99-3.41,1.58-4.98,2.3-3.88,1.77-7.77,3.52-11.67,5.23-7.62,3.34-17.17,1.84-25.35,1.18-8.2-.66-16.36-1.74-24.51-2.9-15.96-2.27-32.3-.87-48.36-.34-2.28.08-4.71.39-6.99.17-2.46-.24-4.55-1.28-6.81-2.27-1.71-.75-3.42-1.5-5.12-2.26-1.28-.57-4.12-1.22-5.11-2.29-2.31-2.52-2.85-9-3.7-12.33-1.08-4.23-2.12-8.46-3.17-12.69-.39-1.58-1.69-3.4-3.62-2.85-9.08,2.54-17.99,5.93-26.89,9.04s-17.07,6.23-25.32,10.78c-17.73,9.78-35.34,19.76-52.99,29.68-9.18,5.16-18.36,10.32-27.55,15.48s-18.06,9.29-26.4,14.8c-7.27,4.8-3.58,13.25-2.22,20.31,1.81,9.35,3.61,18.72,6.18,27.9,2.45,8.74,5.51,17.31,9.42,25.51,3.53,7.41,7.21,15.79,13.06,21.64,3.38,3.38,6.85,6.68,10.34,9.94,3.31,3.1,6.75,7.34,10.61,9.75,3.2,2,7.55,1,11.08.6,4.59-.52,9.27-1.26,13.69-2.58,3.76-1.12,7.08-2.94,10.59-4.64,1.98-.96,4.22-2.27,6.34-2.85,2.58-.69,5.65-.28,8.32-.24,4.23.06,10.87-.83,14.66.95,4.14,1.94,8.35,7.11,11.63,10.29s3.99,6.77,5.28,10.87c1.54,4.88,3.04,9.78,4.55,14.68,2.77,8.99,4.83,18.65,9.79,26.72,2.5,4.07,5.3,8.02,8.16,11.85,2.54,3.4,6.41,4.26,10.33,5.52,9.98,3.19,20.19,1.45,30.39,3.13,10.54,1.74,17.34,7.41,20.08,17.68s4.76,21.64,7.42,32.36c.74,2.98,3.22,3.56,5.66,1.92,3.72-2.5,7.45-5.56,11.42-7.64,4.84-2.54,11.87-3.08,17.27-3.46,10.66-.76,22.9,1.64,32.27,6.86,8.76,4.88,17.45,11.56,21.87,20.74,4.77,9.91,6.03,21.49,5.55,32.36-.24,5.4-.89,10.76-1.69,16.1s-2.6,10.84-2.1,16.07c.87,9.12,8.49,14.39,15.79,18.59,4.23,2.43,8.87,3.45,13.57,4.63,5.32,1.33,10.95,3.63,16.43,3.94,4.76.26,8.74-1.6,13.09-3.22s8.87-2.91,12.96-5.06c5.02-2.64,8.92-6.85,13.2-10.51,5.22-4.45,10.44-8.89,15.65-13.34s9.93-8.48,14.88-12.73c2.47-2.13,4.95-4.26,7.41-6.4,2.33-2.02,5.18-5.89,8.61-4.73,4.74,1.6,9.36-7.24,4.77-8.79Z"/>
    </g>
  </g>
</svg>