<?xml version="1.0" encoding="UTF-8"?>
<svg id="Calque_2" xmlns="http://www.w3.org/2000/svg" viewBox="0 0 689.76 685.5">
  <defs>
    <style>
      .cls-1 {
        fill: #a86968;
      }

      .cls-2 {
        fill: #7eb5d0;
      }

      .cls-3 {
        fill: #111827;
      }

      .cls-4 {
        fill: #e6e6e6;
      }
    </style>
  </defs>
  <g id="Fait_in_France">
    <g>
      <g>
        <g>
          <path class="cls-2" d="M231.76,643.5c-18.58-7.43-36.77-16.03-55.1-24.14-8.24-3.64-9.85-9.03-4.12-17.39,5.63-8.21,11.98-17.49,13.18-26.92,5.83-46.19,11.77-92.49,14.17-138.93,1.38-26.63-9.68-49.59-34.15-65.73-8.81-5.81-12.38-19.85-17.83-30.4-6.02-11.65-8.68-26.89-17.82-34.65-13.69-11.62-31.19-19.48-48.14-26.32-15.5-6.26-32.61-8.45-48.61-13.64-6.5-2.11-11.95-7.42-17.88-11.27,4.59-4.92,9.22-9.8,13.71-14.79.68-.75.75-2.05,1.21-3.41-8.46-3.84-16.92-7.68-25.38-11.52v-10.14c7.73-3.71,15.15-8.53,23.27-10.9,15.3-4.45,30.9-8.26,46.62-10.79,7.12-1.14,15.02.68,22.26,2.44,14.5,3.5,28.85,11.22,43.14,10.95,14-.26,31.59-4.58,40.81-13.86,11.85-11.94-2.33-25.54-9.1-37.45-6.11-10.74-11.15-23.2.09-32,11.57-9.06,19.05,3.14,26.41,10.31,10,9.74,21.08,15.53,33.03,17.33l.23,493.22Z"/>
          <path class="cls-3" d="M234.22,640.21c-18.48-7.43-37.32-15.16-55.1-24.14-8.85-4.47-2.96-11.07,1.1-17.2,4.52-6.85,8.86-14.16,10.26-22.35,3.39-19.85,5.14-40.18,7.42-60.18,2.3-20.2,4.33-40.43,5.78-60.7,1.14-15.97,2.71-31.89-2.25-47.41-4.38-13.68-13.1-25.43-24.09-34.56-2.92-2.43-6.17-4.39-9.14-6.74s-5.09-5.75-6.84-9.09c-3.55-6.78-6.33-14.01-9.61-20.93s-5.47-14.54-8.86-21.54c-3.19-6.59-7.44-11.51-13.25-15.94-15.61-11.9-34.99-20.83-53.66-26.72-9.6-3.03-19.45-5.08-29.2-7.55-5.28-1.34-10.94-2.46-15.69-5.24-4.26-2.5-8.03-5.8-12.13-8.55l.87,4.53c5.14-5.5,13.35-11.68,15.41-19.11.53-1.92-.7-3.43-2.38-4.19-8.46-3.84-16.92-7.68-25.38-11.52l2.54,3.19v-10.14l-2.41,3.29c5.16-2.53,10.13-5.43,15.35-7.85,6.25-2.89,13.01-4.49,19.66-6.23,6.18-1.62,12.4-3.1,18.65-4.42s12.54-3.04,18.76-2.99c12.78.09,25.23,5.7,37.2,9.5,10.86,3.44,21.21,4.95,32.56,3.52,15.22-1.92,44.75-10.36,40.42-31.11-2.96-14.22-31.33-38.08-15.12-52.12,4.81-4.16,8.22-1.96,12.21,1.91,3.71,3.6,6.99,7.53,10.9,10.93,9.13,7.96,20.12,13.37,32.09,15.34l-3.74-3.54c0,16.36.02,32.72.02,49.08.02,39.28.04,78.56.05,117.85l.07,142.55c.02,41.06.04,82.12.06,123.18l.02,40.45c0,6.32-.57,12.95,0,19.25.03.28,0,.58,0,.86,0,4.98,10,4.82,10-.2,0-16.36-.02-32.72-.02-49.08-.02-39.28-.04-78.56-.05-117.85l-.07-142.55c-.02-41.06-.04-82.12-.06-123.18l-.02-40.45c0-6.29.64-12.98,0-19.25-.03-.28,0-.58,0-.86,0-1.92-2.04-3.26-3.74-3.54-11.7-1.93-22.04-7.78-30.43-16.09-5.86-5.8-11.14-13.46-19.92-14.7-9.23-1.3-19.07,6.02-21.38,14.89s2.33,18.52,6.84,26.18,14.43,17.33,12.61,26.92c-1.91,10.1-16.9,14.65-25.37,16.54-12.06,2.7-23.05,1.76-34.75-2.07s-23.39-8.34-35.77-9.57c-14.11-1.41-29.43,3.48-42.98,6.96-6.95,1.79-14.09,3.45-20.76,6.14s-12.3,6.19-18.47,9.21c-1.3.64-2.41,1.75-2.41,3.29v10.14c0,1.53,1.26,2.61,2.54,3.19,8.46,3.84,16.92,7.68,25.38,11.52l-2.38-4.19c-1.01,3.62-3.75,5.85-6.29,8.58-2.7,2.91-5.43,5.81-8.14,8.71-1.27,1.36-.51,3.6.87,4.53,7.07,4.74,13.2,10.12,21.48,12.64,8.77,2.67,17.73,4.61,26.63,6.83,17.79,4.43,35.44,11.64,51.23,21,7.15,4.24,15.18,9.03,19.74,16.18,4.19,6.58,6.32,14.37,9.28,21.53s6.29,14.07,9.48,21.03c2.88,6.28,6.28,12.51,11.92,16.71,12.43,9.24,22.99,19.05,28.73,33.85,6.07,15.63,4.43,31.91,3.28,48.26-1.46,20.6-3.51,41.16-5.85,61.68-1.11,9.78-2.29,19.55-3.5,29.32-1.28,10.33-1.7,21.3-4.1,31.43-2.32,9.77-9.01,17.01-13.75,25.56-3.35,6.03-3.18,12.5,2.6,16.9,3.81,2.91,8.7,4.51,13.03,6.46,5.02,2.25,10.03,4.53,15.05,6.78,10.62,4.77,21.27,9.46,32.07,13.8,4.78,1.92,10.99-4.13,4.92-6.57Z"/>
        </g>
        <g>
          <path class="cls-1" d="M684.38,190.59c-16.11,25.09-27.44,51.38-23.45,82.36,1.62,12.58-3.69,19.54-18,20.55-6.62.47-14.88,6.15-18.77,11.91-15.69,23.29-30.27,47.36-44.53,71.58-3.15,5.34-3.3,12.45-4.83,18.74,2.53,1.63,5.07,3.26,7.61,4.89,5.9-9.94,11.81-19.87,17.19-28.92,22.19,16.16,28.24,33.87,23.15,51.88-1.18,4.17,1.21,10.79,4.2,14.43,12.84,15.6,13.15,17.45-3.91,29.78-7.81,5.64-8.63,10.99-5.4,20.01,3.58,9.97,5.38,21.03,5.55,31.65.25,15.86,8.1,24.86,24.01,26.24,6.47.56,12.7,4.06,19.03,6.22-2.85,7-3.87,15.99-8.9,20.61-17.36,15.94-35.52,31.18-54.53,45.1-15.72,11.5-32.24,10.67-50.77,2.21-21.7-9.89-45.01-17.77-68.44-22.01-8.99-1.63-17.62-.84-25.39,1.85l-.26-544.76c9.53,7.26,17.71,16.4,24.77,26.92,3.31,4.94,13.7,10.08,18.28,8.35,16.99-6.41,23.82,1.6,32.23,14.56,6.48,9.99,16.91,19.85,27.8,24.11,38.7,15.16,78.36,27.88,117.63,41.6,2.04.72,3.83,2.15,5.73,3.24v16.9Z"/>
          <path class="cls-3" d="M681.39,187.77c-8.74,13.71-16.49,28.27-20.91,43.99-2.25,8-3.68,16.3-4.01,24.61-.15,3.82-.11,7.67.15,11.49s1.19,7.57.73,11.28c-.68,5.51-5.14,7.8-10.18,8.83-3.36.69-6.71.65-9.96,1.88s-6.44,3.13-9.21,5.38c-6.34,5.16-10.35,12.57-14.76,19.33-5.4,8.29-10.68,16.67-15.88,25.1-5.53,8.98-10.96,18.01-16.34,27.08-2.47,4.17-5.23,8.24-6.74,12.88-1.52,4.68-1.89,9.66-2.96,14.44-.55,2.45-.21,4.92,2.04,6.37,2.54,1.63,5.07,3.26,7.61,4.89,1.66,1.07,3.63-.56,4.43-1.9,5.72-9.64,11.46-19.28,17.19-28.92l-5.27,1.31c13.04,9.68,25.21,23.12,23.09,40.52-.41,3.39-1.67,6.62-1.69,10.05-.03,4.18,1.38,8.37,3.37,12.01,1.86,3.41,4.71,6.2,7,9.31.92,1.25,3.49,4.03,3.42,5.73-.06,1.51-2.57,3.36-3.59,4.25-3.35,2.94-7.27,5.18-10.54,8.21-5.14,4.76-7.08,11.17-5.85,18.02.74,4.13,2.41,8,3.54,12.02,1.43,5.09,2.35,10.31,2.88,15.58.8,7.92.15,15.89,3.43,23.36,2.81,6.41,7.96,11.34,14.58,13.71,3.75,1.34,7.52,1.62,11.39,2.28,5.73.98,11.01,3.81,16.44,5.75l-2.04-6.37c-2.23,5.79-2.95,13.35-7.29,18.04-5.34,5.79-11.88,10.8-17.84,15.94-12.6,10.85-25.66,22.64-39.9,31.31-13.46,8.19-28.67,6.33-42.58.33-15.06-6.49-30.09-12.63-45.89-17.11-16.85-4.78-34.38-9.62-51.6-3.98l4.28,5.24c0-18.12-.02-36.25-.03-54.37l-.06-130.03-.08-157.22-.07-136.3-.02-44.62v-13.99c0-2.31.37-4.98-.01-7.27-.05-.3,0-.65,0-.96l-6.02,3.78c7.15,5.54,13.58,11.95,19.1,19.12,4.67,6.06,8,11.7,15.18,15.06,2.7,1.26,5.85,2.37,8.87,2.28,3.37-.1,6.46-1.88,9.8-2.37,6.65-.99,11.74,1.94,15.95,6.88,5.01,5.87,8.57,12.72,13.87,18.4,5.74,6.16,12.66,11.57,20.45,14.86,19.04,8.05,38.86,14.56,58.39,21.31,11.06,3.82,22.14,7.59,33.21,11.37,10.8,3.69,22.71,6.47,32.47,12.45l-2.29-5.06v16.9c0,6.12,7.47,6.99,7.47.69v-13.88c0-1.71.3-3.97-.28-5.58-1.62-4.54-9.29-6.28-13.27-7.66-23.34-8.1-46.78-15.89-70.07-24.12-11.33-4-22.63-8.11-33.86-12.4-10.72-4.1-19.71-8.63-27.65-17.15-10.13-10.88-16.2-29.13-34.21-26.99-4.8.57-8.76,3.22-13.57,1.62-4.33-1.43-7.85-4.01-10.5-7.66-7.13-9.84-14.84-18.86-24.48-26.34-2.77-2.15-6.02.63-6.02,3.78,0,18.12.02,36.25.03,54.37l.06,130.03.08,157.22.07,136.3c.01,21.96-.02,43.92.03,65.88,0,.32,0,.64,0,.96,0,2.15,1.12,6.28,4.28,5.24,16.66-5.45,34.05-.39,50.3,4.38,8.6,2.53,17.08,5.47,25.42,8.75s15.56,7.06,23.59,9.86c13.79,4.81,28.21,5.07,41.19-2.22,7.61-4.27,14.49-10.25,21.33-15.65,6.62-5.23,13.13-10.61,19.55-16.1,6.89-5.9,15.02-11.74,20.82-18.72,4.98-6,6.03-14.22,8.76-21.3.73-1.9.18-5.57-2.04-6.37-4.24-1.52-8.33-3.47-12.63-4.84s-8.44-1.45-12.66-2.45c-5.88-1.4-11.08-4.79-13.53-10.48-3.3-7.69-1.9-17.11-3.14-25.26-.7-4.55-1.68-9.09-2.97-13.52-1.04-3.57-3.38-7.77-3.12-11.6s3.63-5.82,6.33-7.82c3.16-2.34,6.46-4.68,9.21-7.52,3.6-3.72,5.66-8.44,4.47-13.63-1.5-6.56-6.84-11.08-10.51-16.41-4.82-7.02-1.01-13.89-.95-21.62.14-18.86-11.78-33.7-26.28-44.47-1.97-1.46-4.04-.77-5.27,1.31-5.73,9.64-11.47,19.28-17.19,28.92l4.43-1.9c-2.54-1.63-5.07-3.26-7.61-4.89l2.04,6.37c.84-3.75,1.3-7.58,2.14-11.33,1.07-4.8,3.62-8.67,6.1-12.86,4.88-8.25,9.81-16.47,14.82-24.64,5-8.17,10.09-16.29,15.28-24.35,4.54-7.04,8.77-15.8,15.54-20.96,9.78-7.45,24.64-3.25,30.7-16.06,2.55-5.4,2.21-11.21,1.59-16.98-.91-8.48-.67-16.99.76-25.39,3.16-18.63,12.11-35.65,22.17-51.42,2.8-4.39-2.47-11.13-5.98-5.63Z"/>
        </g>
        <g>
          <path class="cls-4" d="M458.2,599.67c-19.24,6.69-33.15,25.1-33.89,47.53-.53,15.85-6.39,26.75-20.47,33.49h-27.04c-14.72-7.83-31.24-13.52-43.7-24.03-15.28-12.88-29.56-15.7-47.97-9.49-10.26,3.46-23.04,7.22-32.42,4.08-7.06-2.36-14.03-4.97-20.95-7.75l-.23-493.22c8.72,1.32,17.9.52,27.45-2.41,4.71-1.45,10.72-9.92,10.3-14.63-1.06-11.63,3.48-18.47,12.9-22.96,8.09-3.86,16.58-6.93,24.96-10.14,30.58-11.73,39.49-21.45,36.89-53.89-1.81-22.74,6.05-34.75,26.01-41.56h16.9c9.08,20.75,26.61,29.94,46.99,37.17,8.84,3.13,16.81,7.55,24.01,13.05l.26,544.76Z"/>
          <path class="cls-3" d="M457.65,595.28c-17.84,6.48-31.3,22.01-35.71,40.43-2.18,9.11-.8,19.03-4.89,27.65-2.46,5.18-8.69,12.64-14.81,12.64h-18.08c-1.73,0-4.47.5-6.15,0-.2-.06-.47.07-.67,0,1.37.47-1.14-1.28-1.03-1.19-2.38-1.9-6.31-3.09-9.08-4.4-10.51-4.96-21.22-9.79-30.39-17.06-7.97-6.32-16.13-11.87-26.4-13.53-12.28-1.97-22.96,2.56-34.56,5.65-6.49,1.73-13.55,3.15-20.21,1.51-7.29-1.8-14.47-5.05-21.43-7.83l1.58,3.76c0-16.36-.02-32.72-.02-49.08-.02-39.28-.04-78.56-.05-117.85-.02-47.52-.04-95.03-.07-142.55-.02-41.06-.04-82.12-.06-123.18,0-13.48-.01-26.97-.02-40.45,0-6.15.94-13.15,0-19.25-.04-.27,0-.58,0-.86l-5.59,5.26c5.71.77,11.48.85,17.2.09,5.11-.68,11.28-1.53,15.61-4.55,3.27-2.28,5.98-5.61,7.89-9.08,2.48-4.51,2.37-8.13,2.51-13.07.31-10.75,9.66-13.99,18.31-17.56,9.81-4.04,19.99-7.27,29.52-11.99,12.52-6.2,22.72-15.16,25.99-29.23,1.8-7.74,1.7-15.76,1.16-23.64s-.77-16.54,3.39-23.69c3.53-6.06,11.61-11.84,18.57-12.87,5.19-.76,11.02,0,16.28,0l-3.29-1.88c6,13.25,15.96,23.32,28.67,30.24,6.28,3.43,12.93,5.99,19.63,8.46,8.66,3.19,16.62,7.51,24.01,13.05l-1.58-3.76c0,18.12.02,36.25.03,54.37.02,43.34.04,86.69.06,130.03l.08,157.22c.02,45.43.04,90.86.07,136.3.01,21.96,0,43.92.03,65.88,0,.32,0,.64,0,.96,0,6.5,8.13,4.07,8.13-1.17,0-20.71-.02-41.42-.03-62.13-.02-48.62-.05-97.24-.07-145.87-.03-56.12-.05-112.25-.08-168.37-.02-43.65-.04-87.3-.06-130.96l-.02-32.67c0-1.57.09-3.18,0-4.75-.24-3.99-4.03-5.66-7.13-7.69-5.53-3.61-11.45-6.54-17.64-8.83-9.54-3.53-19.02-7.23-27.45-13.04-8.42-5.81-14.85-13.59-19.06-22.9-.66-1.47-1.77-1.88-3.29-1.88h-14.62c-6.12,0-12.67,3.88-17.54,7.38-14.22,10.21-16.23,26.5-15.16,42.76.9,13.69-.31,26.87-12.27,35.29-6.71,4.72-14.55,7.75-22.16,10.67-10.34,3.96-22.82,7.16-31.44,14.42-3.34,2.82-5.95,6.38-7.49,10.48-1.8,4.78-.89,9.17-1.54,13.99-1.75,12.85-23.19,11.82-32.16,10.61-2.72-.37-5.59,2.6-5.59,5.26,0,16.36.02,32.72.02,49.08.02,39.28.04,78.56.05,117.85.02,47.52.04,95.03.07,142.55.02,41.06.04,82.12.06,123.18,0,19.9-.01,39.8.03,59.7,0,.29,0,.57,0,.86,0,1.27.13,3.18,1.58,3.76,10.97,4.38,22.53,10.18,34.61,9.09,11.69-1.06,22.23-6.88,33.85-8.02,11.24-1.1,21.4,3.16,30.19,9.92,9.45,7.27,18.97,13.01,29.76,18.11,6.69,3.16,13.82,8.44,21.3,8.44h18.76c1.72,0,3.72.29,5.41,0,3.62-.63,7.52-3.63,10.34-5.92,6.91-5.61,11.49-13.27,13.48-21.92,1.28-5.57,1.13-11.18,1.91-16.8s2.61-11.18,5.4-16.17c5.43-9.72,14.06-16.73,24.47-20.51,4.56-1.66,4.77-10.9-1.09-8.77Z"/>
        </g>
      </g>
      <path class="cls-3" d="M679.46,173.44c0,4.68.98,10.48,0,15.02-.84,3.9-4.47,7.93-6.43,11.4-4.19,7.41-7.93,15.11-10.9,23.09-6.12,16.41-7.72,33.05-6.04,50.39.54,5.57-.16,11.44-5.61,14.28-2.88,1.5-6.03,1.68-9.18,2.1-3.67.49-7.03,1.68-10.25,3.49-7.62,4.28-11.91,10.86-16.6,17.98-5.62,8.53-11.1,17.16-16.49,25.84-6.06,9.77-11.99,19.62-17.86,29.51-2.44,4.12-5.29,8.18-6.9,12.72-1.74,4.88-2.1,10.16-3.23,15.2-.31,1.38.39,2.99,1.59,3.76,2.54,1.63,5.07,3.26,7.61,4.89,2.01,1.29,6.07,2.36,7.67-.33,5.73-9.64,11.46-19.28,17.19-28.92l-7.67.33c13.48,10,25.22,24.01,22.88,41.86-.43,3.26-1.74,6.45-1.7,9.76.05,3.87,1.53,7.87,3.5,11.16,2.63,4.37,10.64,10.4,10.3,16.06s-9.63,9.83-13.23,12.78c-5.58,4.57-8.18,10.34-6.64,17.52.93,4.34,2.75,8.44,3.84,12.75,1.32,5.24,2.16,10.61,2.62,15.99.64,7.61.11,15.32,3.74,22.32,3.22,6.2,8.64,10.53,15.17,12.88,4.17,1.5,8.37,1.66,12.65,2.55,5.46,1.14,10.59,3.85,15.82,5.72l-3.9-4.88c-3.07,7.92-3.98,15.51-10.52,21.46-7.35,6.69-14.84,13.23-22.47,19.6-7.39,6.17-14.92,12.17-22.6,17.98-7.28,5.5-14.4,10.88-23.67,12.29s-18.03-1.05-26.24-4.58c-8.91-3.83-17.73-7.7-26.85-11.01s-18.15-6.13-27.44-8.49c-8.44-2.15-17.25-4.45-26-4.74-28.01-.93-52.4,20.07-55.77,47.91-.85,7.02-.61,13.98-3.37,20.65-2.36,5.7-7.92,12.93-14.1,14.86-3.91,1.22-9.31.26-13.4.26-5.1,0-9.84.67-14.44-1.63-7.78-3.88-15.78-7.3-23.44-11.39-14.56-7.77-25.48-20.68-42.55-23.17-7.73-1.13-15.48-.15-22.95,2.04-8.81,2.58-17.88,6.53-27.26,5.81-4.41-.34-8.68-2.25-12.8-3.75-4.98-1.81-9.92-3.75-14.82-5.75-9.18-3.75-18.26-7.75-27.31-11.82-4.68-2.1-9.34-4.21-14.02-6.32-4.14-1.87-9.33-3.34-13.02-6.01-6.55-4.75,3.5-14.81,6.26-19.28,4.77-7.73,7.43-15.2,8.56-24.18,1.32-10.41,2.63-20.83,3.9-31.25,2.5-20.51,4.84-41.05,6.69-61.63.91-10.13,1.71-20.26,2.36-30.41.54-8.4,1.25-16.83.27-25.22-1.65-14.14-7.41-27.58-16.6-38.46-5.08-6.01-11.04-11.18-17.48-15.67-6.46-4.5-9.5-10.96-12.56-18.03-3.16-7.3-6.78-14.39-9.64-21.81-2.68-6.95-5.15-14.11-9.46-20.27-4.63-6.61-11.98-11.27-18.73-15.47-7.86-4.89-16.15-8.98-24.62-12.68s-16.52-6.96-25.16-9.41c-9.28-2.64-18.76-4.53-28.07-7.06-4.39-1.19-8.71-2.33-12.59-4.76s-7.1-5.23-10.76-7.68l1.16,4.68c5.18-5.54,13.27-11.65,15.33-19.12.51-1.84-1.08-3.71-2.65-4.42-8.46-3.84-16.92-7.68-25.38-11.52l2.72,3.41c0-3.38,0-6.76,0-10.14l-2.16,3.21c5.16-2.53,10.13-5.44,15.35-7.84,5.72-2.64,11.79-4.21,17.86-5.83,12.02-3.2,24.77-6.92,37.21-7.91s24.36,4.21,35.37,7.96,21.23,6.31,32.68,5.44c9.57-.72,19.45-2.93,28.05-7.27,7.39-3.73,15.48-9.55,16.21-18.51s-5.71-17.46-10.55-24.71-11.54-17.22-9.2-26.14c1.03-3.93,5.26-9.49,9.75-9.59,3.88-.09,7.22,4.24,9.63,6.81,6.7,7.16,13.91,13.57,22.73,18.03s17.88,6.58,27.32,6.58c8.12,0,19.71-.62,26.16-6.18,3.07-2.64,5.6-6.18,7.01-9.99s.29-8.13,1.07-12.24c1.97-10.33,12.48-13.72,21.1-17.19,15.22-6.13,33.73-10.73,45-23.59s7.95-30.19,8.19-46.1c.13-8.28,2.36-16.75,8.5-22.62,3.07-2.94,6.78-5.1,10.66-6.79,6-2.61,13.02-1.52,19.46-1.52l-5.03-3.08c9.05,19.99,26.76,31.17,46.69,38.59,11.15,4.15,21.22,9.26,30.28,17.1,4.33,3.74,8.26,7.89,11.89,12.31,3.32,4.04,5.92,8.89,9.65,12.54,3.34,3.26,7.61,5.68,12.03,7.15,5.44,1.81,8.86.82,14.18-.58,9.58-2.51,14.75,3.06,19.86,10.47,6.92,10.05,14.34,19.1,24.96,25.48,11.3,6.78,25.09,10.47,37.44,14.95,15.28,5.53,30.64,10.82,46.02,16.07,8,2.73,16,5.45,24,8.19s15.87,4.82,22.91,9.15c4.9,3.01,9.92-2.93,4.39-6.34-11.4-7.01-25.7-10.18-38.33-14.49-13.54-4.62-27.08-9.22-40.57-13.96s-27.31-9.74-40.83-14.98c-11.94-4.62-21.38-12.14-28.67-22.73-4.9-7.12-9.6-14.96-17.96-18.45-3.59-1.5-7.44-2.01-11.31-1.73-4.77.35-9.54,3.42-14.15,1.68s-7.13-4.59-9.77-8.33c-3.57-5.07-7.49-9.89-11.8-14.35-7.4-7.65-15.78-14.23-25.18-19.25-10.55-5.63-22.28-8.46-32.72-14.37s-18.69-14.56-23.7-25.63c-.82-1.81-3.07-3.08-5.03-3.08-5.78,0-12.46-.95-18.15.07-3.91.7-7.99,2.96-11.4,4.91-6.27,3.58-11.45,8.57-14.52,15.17-7.06,15.21-.42,31.87-4.32,47.63-3.5,14.13-16.01,20.78-28.54,25.96-10.8,4.47-22.32,7.75-32.56,13.46-7.06,3.93-11.85,10.12-12.68,18.29-.46,4.5.48,8.11-2.02,12.16-2.85,4.62-6.13,6.13-11.28,7.22-9.94,2.12-20.3,1.75-29.79-2.06s-16.89-10.49-23.87-17.84c-5.46-5.75-12.17-11.48-20.71-10-8.54,1.48-15.6,9.5-16.15,18.05s4.22,17.57,8.79,24.85,13.92,16.91,10.82,26.02-16.81,13.59-25.25,15.47c-12.6,2.81-23.83,1.77-36.04-2.24s-25.79-9.51-39.33-9.6c-13.21-.09-27.29,4.32-39.99,7.63-6.29,1.64-12.8,3.14-18.84,5.58-6.38,2.58-12.3,6.19-18.47,9.21-1.39.68-2.16,1.63-2.16,3.21,0,3.38,0,6.76,0,10.14,0,1.47,1.51,2.86,2.72,3.41,8.46,3.84,16.92,7.68,25.38,11.52l-2.65-4.42c-.99,3.59-3.85,5.88-6.35,8.57-2.7,2.91-5.42,5.8-8.14,8.71-1.26,1.35-.11,3.82,1.16,4.68,7.21,4.84,13.48,10.28,21.91,12.94,9.49,3,19.29,4.92,28.92,7.4,18.04,4.65,36.17,12.33,51.96,22.26,7.61,4.79,14.42,9.78,18.42,18.02,3.51,7.21,5.69,14.98,9.17,22.2s6.17,14.63,9.98,21.54,8.78,10.79,15.04,15.56c12.43,9.46,21.89,22.46,25.53,37.79,4.21,17.69,1.05,37.02-.46,54.87-1.8,21.24-4.15,42.44-6.7,63.6-1.26,10.42-2.56,20.84-3.88,31.25s-2.87,18.38-8.33,27.22c-3.63,5.88-10.27,12.47-9.5,19.96s8.67,10.62,14.58,13.26c18.7,8.35,37.25,17.06,56.37,24.42,8.64,3.33,17.64,7.57,27.07,7.34,8.84-.22,17.26-2.93,25.6-5.62,7.86-2.53,16.09-3.79,24.19-1.59,8.56,2.32,14.65,8.08,21.62,13.15s14.89,9.12,22.76,12.87,15.99,9.48,24.59,9.48h15.45c4.81,0,8.83.44,13.12-1.96,5.8-3.25,10.95-7.72,14.26-13.55,7.34-12.93,3.87-28.38,10.3-41.72,6-12.44,17.37-22.25,30.94-25.35,7.75-1.77,15.23-1.02,22.94.56,9.66,1.98,19.2,4.54,28.58,7.56,9.86,3.18,19.53,6.9,29.01,11.07,8.28,3.64,16.43,7.13,25.46,8.4,7.96,1.12,16.07.39,23.6-2.47,8.85-3.36,16.3-9.75,23.7-15.48,7.86-6.09,15.56-12.38,23.12-18.83,7.01-5.99,15.13-11.93,21.13-18.96,4.85-5.69,5.81-13.84,8.43-20.61.94-2.43-2.17-4.26-3.9-4.88-4.25-1.52-8.33-3.48-12.63-4.84-4.04-1.27-8.21-1.33-12.29-2.33-6.11-1.5-10.51-5.3-12.6-11.27-2.77-7.93-1.55-17.08-2.89-25.33-.73-4.48-1.77-8.91-3.08-13.25-1.19-3.94-3.36-8.17-2.85-12.41.87-7.26,10.59-11.02,15.33-15.62,3.5-3.39,5.93-7.32,4.53-12.3-1.75-6.21-7.05-10.44-10.45-15.66-4.84-7.45-.98-14.64-.89-22.7.21-18.38-12.54-33.01-26.5-43.37-1.92-1.43-6.14-2.26-7.67.33-5.73,9.64-11.46,19.28-17.19,28.92l7.67-.33c-2.54-1.63-5.07-3.26-7.61-4.89l1.59,3.76c.96-4.28,1.39-8.68,2.52-12.91,1.29-4.8,4.25-8.94,6.76-13.17,5.22-8.79,10.48-17.55,15.85-26.25,5.36-8.7,10.81-17.34,16.4-25.9,4.97-7.62,9.38-16,18.01-20,6.15-2.85,13.16-1.67,19.13-5.5,4.6-2.95,7.15-7.68,7.67-13.05.77-7.95-1.22-16.04-.83-24.07.43-8.87,2.29-17.67,5.05-26.09,3.04-9.27,7.24-18.08,12.07-26.55,2.09-3.67,6.11-8.06,6.98-12.16,1.12-5.25.04-12.04.04-17.4,0-4.75-9.83-5.87-9.83-.48Z"/>
    </g>
  </g>
</svg>