<?xml version="1.0" encoding="UTF-8"?>
<svg xmlns="http://www.w3.org/2000/svg" viewBox="0 0 977.95 979.65">
  <defs>
    <style>
      .cls-1 {
        fill: #e6e6e6;
      }

      .cls-1, .cls-2 {
        stroke-width: 0px;
      }
    </style>
  </defs>
  <g id="Cercle">
    <path class="cls-2" d="m970,490.85c-.07,50.32-7.77,100.64-23.43,148.49-15.1,46.14-37.2,89.86-65.42,129.37-27.94,39.12-61.74,73.93-99.93,103.12-38.54,29.45-81.72,53.03-127.34,69.52-46.93,16.97-96.45,26.56-146.32,28.34-50.63,1.8-101.56-4.17-150.28-18.11-46.78-13.39-91.48-33.91-132.15-60.62-40.22-26.42-76.42-59.03-107.1-96.09-30.86-37.28-56.02-79.3-74.4-124.07-18.93-46.08-30.52-95.25-34.28-144.92-3.83-50.69.24-101.88,12.3-151.27,11.52-47.18,30.35-92.6,55.61-134.07,25.03-41.09,56.17-78.33,92.18-110.24,36.15-32.03,77.12-58.52,121.14-78.41,45.15-20.39,93.53-33.57,142.74-39.19,50.64-5.79,102.31-3.43,152.24,6.76,48.08,9.82,94.61,27.24,137.45,51.15,42.1,23.5,80.56,53.39,113.86,88.25,33.36,34.91,61.38,74.79,82.94,118,22.02,44.15,37.07,91.65,44.61,140.4,3.77,24.35,5.55,48.96,5.59,73.59,0,6.54,7.96,3.11,7.95-2.05-.07-51.36-7.98-102.68-23.9-151.53-15.29-46.92-37.65-91.46-66.28-131.66-28.45-39.95-62.78-75.63-101.76-105.42-39.09-29.87-82.65-53.88-128.88-70.74S558.53,2.13,507.56.31c-51.52-1.84-103.38,4.38-152.93,18.64s-92.94,34.64-134.16,61.94c-40.76,27-77.35,60.01-108.48,97.71-31.45,38.1-57.11,81.04-75.76,126.78S5.36,402.4,1.45,453.08c-3.96,51.44.19,103.57,12.35,153.71,11.74,48.42,31.01,95.04,56.87,137.63,25.35,41.74,56.97,79.7,93.48,112.13,36.79,32.68,78.56,59.84,123.41,80.1s94.82,34.13,144.73,39.84c51.56,5.89,104.11,3.56,154.95-6.9,48.96-10.07,96.35-27.83,139.93-52.3,42.64-23.95,81.71-54.36,115.4-89.81,33.95-35.73,62.48-76.44,84.42-120.58,22.3-44.87,37.62-93.25,45.21-142.78,3.82-24.92,5.71-50.11,5.75-75.32,0-6.54-7.94-3.11-7.95,2.05Z"/>
  </g>
  <g id="Pour_hommes" data-name="Pour hommes">
    <path class="cls-1" d="m573.06,481.53c-73.55-60.39-182.36-56.24-251.07,12.46-73.13,73.13-73.13,191.69,0,264.82,73.13,73.13,191.69,73.13,264.82,0,68.71-68.71,72.86-177.52,12.46-251.07l158.51-158.51-16.59,70.35,27.92,27.16,33.7-168.76-168.05,34.41,25.52,26.25,71.28-15.62-158.51,158.51Zm-12.46,251.07c-58.65,58.65-153.75,58.65-212.4,0-58.65-58.65-58.65-153.75,0-212.4s153.75-58.65,212.4,0c58.65,58.65,58.65,153.75,0,212.4Z"/>
    <g>
      <path class="cls-2" d="m530.79,423.17c-60-48.87-145.31-57.42-213.7-21.04-68.61,36.51-108.42,113.15-99.63,190.18,8.77,76.84,65.73,142.19,140.26,162.34,74.24,20.08,155.65-6.48,202.92-67.38,47.31-60.96,52.81-146.76,13.7-213.28-4.91-8.36-10.5-16.28-16.62-23.79l-.3,3.77c17.86-17.86,35.71-35.71,53.57-53.57,28.46-28.46,56.91-56.91,85.37-85.37,6.52-6.52,13.05-13.05,19.57-19.57l-9.14-2.62c-3.7,15.69-7.4,31.38-11.1,47.06-1.71,7.26-3.9,14.57-5.17,21.93-.82,4.75,5.95,9,9.02,11.99,6.61,6.43,13.22,12.86,19.83,19.29,2.49,2.43,7.98,1.73,8.72-1.97,3.79-18.99,7.58-37.98,11.38-56.97,6.05-30.29,12.1-60.57,18.14-90.86,1.39-6.97,2.79-13.95,4.18-20.92.58-2.91-3.92-4.53-6.02-4.1-18.88,3.86-37.76,7.73-56.63,11.59-30.14,6.17-60.29,12.34-90.43,18.52-6.99,1.43-13.99,2.86-20.98,4.3-3.13.64-5.34,3.35-2.69,6.07,5.51,5.67,11.03,11.34,16.54,17.01,3.79,3.9,8.43,11.38,14.59,10.4,17.32-2.73,34.55-7.57,51.68-11.33,6.26-1.37,12.51-2.74,18.77-4.11l-5.19-5.94c-17.86,17.86-35.71,35.71-53.57,53.57-28.46,28.46-56.91,56.91-85.37,85.37-6.52,6.52-13.05,13.05-19.57,19.57-4.04,4.04,4.99,7.78,8.31,4.45,17.86-17.86,35.71-35.71,53.57-53.57,28.46-28.46,56.91-56.91,85.37-85.37,6.52-6.52,13.05-13.05,19.57-19.57,3.1-3.1-2.26-6.58-5.19-5.94-23.76,5.21-47.52,10.41-71.28,15.62l4.77,1.34c-8.51-8.75-17.02-17.5-25.52-26.25l-2.69,6.07c18.88-3.86,37.76-7.73,56.63-11.59,30.14-6.17,60.29-12.34,90.43-18.52,6.99-1.43,13.99-2.86,20.98-4.3l-6.02-4.1c-3.79,18.99-7.58,37.98-11.38,56.97-6.05,30.29-12.1,60.57-18.14,90.86-1.39,6.97-2.79,13.95-4.18,20.92l8.72-1.97c-9.31-9.05-18.62-18.11-27.92-27.16l1.25,2.76c5.53-23.45,11.06-46.9,16.59-70.35,1.07-4.54-7-4.76-9.14-2.62-17.86,17.86-35.71,35.71-53.57,53.57-28.46,28.46-56.91,56.91-85.37,85.37-6.52,6.52-13.05,13.05-19.57,19.57-.94.94-1.17,2.7-.3,3.77,46.61,57.22,54.97,138.45,20.21,203.73-34.88,65.49-107.91,104.08-181.62,95.7-73.38-8.35-135.63-62.73-154.87-133.86-19.23-71.1,6.66-149.06,65.12-194.07,58.15-44.77,139.53-50.1,202.84-12.85,8.02,4.72,15.61,10.08,22.83,15.96,3.71,3.02,12.28-.81,7.47-4.73Z"/>
      <path class="cls-2" d="m510.44,674.38c-42.92,42.51-109.32,54.72-164.1,28.52-55.31-26.46-88.5-86.3-82.39-147.18,6.11-60.95,51.05-113.09,110.62-127.69,59.33-14.54,122.53,11.38,155.6,62.48,32.65,50.44,30.75,118.38-4.99,166.76-4.48,6.07-9.43,11.75-14.73,17.11-4.03,4.06,5,7.79,8.31,4.45,45.24-45.68,57.5-116,29.92-174.16-27.91-58.85-91.88-93.85-156.4-87.4-64.4,6.44-119.19,53.83-134.67,116.66s11.86,129.99,65.98,165.35c53.18,34.75,125.36,32.95,176.64-4.58,6.57-4.81,12.74-10.13,18.52-15.86,4.06-4.02-4.97-7.76-8.31-4.45Z"/>
    </g>
  </g>
</svg>