<?xml version="1.0" encoding="UTF-8"?>
<svg xmlns="http://www.w3.org/2000/svg" viewBox="0 0 977.95 979.65">
  <defs>
    <style>
      .cls-1 {
        fill: #e6e6e6;
      }

      .cls-1, .cls-2 {
        stroke-width: 0px;
      }
    </style>
  </defs>
  <g id="Cercle">
    <path class="cls-2" d="m970,490.85c-.07,50.32-7.77,100.64-23.43,148.49-15.1,46.14-37.2,89.86-65.42,129.37-27.94,39.12-61.74,73.93-99.93,103.12-38.54,29.45-81.72,53.03-127.34,69.52-46.93,16.97-96.45,26.56-146.32,28.34-50.63,1.8-101.56-4.17-150.28-18.11-46.78-13.39-91.48-33.91-132.15-60.62-40.22-26.42-76.42-59.03-107.1-96.09-30.86-37.28-56.02-79.3-74.4-124.07-18.93-46.08-30.52-95.25-34.28-144.92-3.83-50.69.24-101.88,12.3-151.27,11.52-47.18,30.35-92.6,55.61-134.07,25.03-41.09,56.17-78.33,92.18-110.24,36.15-32.03,77.12-58.52,121.14-78.41,45.15-20.39,93.53-33.57,142.74-39.19,50.64-5.79,102.31-3.43,152.24,6.76,48.08,9.82,94.61,27.24,137.45,51.15,42.1,23.5,80.56,53.39,113.86,88.25,33.36,34.91,61.38,74.79,82.94,118,22.02,44.15,37.07,91.65,44.61,140.4,3.77,24.35,5.55,48.96,5.59,73.59,0,6.54,7.96,3.11,7.95-2.05-.07-51.36-7.98-102.68-23.9-151.53-15.29-46.92-37.65-91.46-66.28-131.66-28.45-39.95-62.78-75.63-101.76-105.42-39.09-29.87-82.65-53.88-128.88-70.74S558.53,2.13,507.56.31c-51.52-1.84-103.38,4.38-152.93,18.64s-92.94,34.64-134.16,61.94c-40.76,27-77.35,60.01-108.48,97.71-31.45,38.1-57.11,81.04-75.76,126.78S5.36,402.4,1.45,453.08c-3.96,51.44.19,103.57,12.35,153.71,11.74,48.42,31.01,95.04,56.87,137.63,25.35,41.74,56.97,79.7,93.48,112.13,36.79,32.68,78.56,59.84,123.41,80.1s94.82,34.13,144.73,39.84c51.56,5.89,104.11,3.56,154.95-6.9,48.96-10.07,96.35-27.83,139.93-52.3,42.64-23.95,81.71-54.36,115.4-89.81,33.95-35.73,62.48-76.44,84.42-120.58,22.3-44.87,37.62-93.25,45.21-142.78,3.82-24.92,5.71-50.11,5.75-75.32,0-6.54-7.94-3.11-7.95,2.05Z"/>
  </g>
  <g id="Pour_femmes" data-name="Pour femmes">
    <path class="cls-1" d="m551.51,560.42c94.71-9.31,168.72-89.18,168.72-186.35,0-103.42-83.84-187.26-187.26-187.26s-187.26,83.84-187.26,187.26c0,97.17,74.01,177.04,168.72,186.35v126.17h-121.43v37.07h121.43v143.16h37.07v-143.16h121.43v-37.07h-121.43v-126.17Zm-168.72-186.35c0-82.94,67.25-150.19,150.19-150.19s150.19,67.25,150.19,150.19-67.25,150.19-150.19,150.19-150.19-67.25-150.19-150.19Z"/>
    <g>
      <path class="cls-2" d="m508.55,527.13c76.65-7.82,143.54-62.21,165.05-136.53,21.54-74.41-4.9-156.31-66.12-203.87-61.22-47.55-147.52-53.73-214.81-15.16-66.94,38.37-104.42,115.03-94.14,191.39,10.28,76.37,68.52,140.51,143.1,159.23,9.37,2.35,18.92,3.98,28.52,4.96l-4.69-4.13v126.17l5.28-3.34h-121.43c-1.96,0-5.28.74-5.28,3.34v37.07c0,2.37,2.42,4.13,4.69,4.13h121.43l-4.69-4.13v143.16c0,2.37,2.42,4.13,4.69,4.13h37.07c1.96,0,5.28-.74,5.28-3.34v-143.16l-5.28,3.34h121.43c1.96,0,5.28-.74,5.28-3.34v-37.07c0-2.37-2.42-4.13-4.69-4.13h-121.43l4.69,4.13v-126.17c0-5.01-9.97-5.74-9.97-.79v126.17c0,2.37,2.42,4.13,4.69,4.13h121.43l-4.69-4.13v37.07l5.28-3.34h-121.43c-1.96,0-5.28.74-5.28,3.34,0,41.88,0,83.75,0,125.63v17.53l5.28-3.34h-37.07l4.69,4.13c0-41.88,0-83.75,0-125.63v-17.53c0-2.37-2.42-4.13-4.69-4.13h-121.43l4.69,4.13v-37.07l-5.28,3.34h121.43c1.96,0,5.28-.74,5.28-3.34v-126.17c0-2.53-2.43-3.9-4.69-4.13-73.36-7.48-136.28-60.25-156.77-131.07-20.56-71.05,4.34-149.94,62.52-195.78,58.03-45.73,139.9-51.9,203.85-14.64,63.71,37.12,99.06,110.87,89.22,183.77-9.85,73.01-64.49,134.49-135.77,152.98-8.96,2.32-18.11,3.84-27.31,4.78-6.53.67-3.56,7.99,2.08,7.42Z"/>
      <path class="cls-2" d="m343.78,337.47c.28-60.62,38.06-116.57,95.2-137.81,57.17-21.25,123.25-3.26,161.86,43.94,38.76,47.39,43.99,115.53,12.88,168.28-30.92,52.43-93.55,81.05-153.39,68.83-58.95-12.04-105.09-60.74-114.7-120.03-1.25-7.69-1.81-15.43-1.85-23.22-.02-5.01-9.99-5.73-9.97-.79.3,64.32,41,122.35,101.3,144.74,60.69,22.53,131.44,3.99,173.08-45.58,41.81-49.78,47.49-122.6,13.69-178.19s-100.22-84.22-163.53-71.56c-62.5,12.49-112.35,63.26-122.59,126.36-1.3,8.02-1.91,16.11-1.95,24.22-.02,5.01,9.95,5.74,9.97.79Z"/>
    </g>
  </g>
</svg>