<?xml version="1.0" encoding="UTF-8"?>
<svg id="Calque_2" xmlns="http://www.w3.org/2000/svg" xmlns:xlink="http://www.w3.org/1999/xlink" viewBox="0 0 800.37 694">
  <defs>
    <style>
      .cls-1 {
        fill: none;
      }

      .cls-2 {
        fill: #098842;
      }

      .cls-3 {
        fill: #3fa344;
      }

      .cls-4 {
        fill: #086635;
      }

      .cls-5 {
        clip-path: url(#clippath);
      }
    </style>
    <clipPath id="clippath">
      <rect class="cls-1" width="800.37" height="694"/>
    </clipPath>
  </defs>
  <g id="Quatrefolic">
    <g class="cls-5">
      <path class="cls-3" d="M162.91,88.39s50.17-161.86,167.23-45.39c0,0,107.5,108.7,56.74,268.16L162.91,88.39Z"/>
      <path class="cls-2" d="M163.5,87.79S1.05,137.96,118.11,255.02c0,0,109.3,106.91,268.76,56.14L163.5,87.79Z"/>
      <path class="cls-2" d="M680.13,604.42s-50.17,162.45-167.23,45.39c0,0-107.5-108.7-56.74-268.16l223.97,222.77Z"/>
      <path class="cls-3" d="M678.93,605.01s162.45-50.17,45.39-167.23c0,0-109.3-106.91-268.76-56.14l223.37,223.37Z"/>
      <path class="cls-2" d="M674.75,87.2s162.45,50.17,45.39,167.23c0,0-108.7,107.5-268.17,56.74l222.78-223.97Z"/>
      <path class="cls-4" d="M675.35,87.79s-50.17-162.45-167.23-45.39c0,0-106.91,109.3-56.14,268.76l223.37-223.37Z"/>
      <path class="cls-2" d="M173.06,606.8s-162.45-50.17-45.39-167.23c0,0,108.7-107.5,268.17-56.74l-222.78,223.97Z"/>
      <path class="cls-4" d="M172.46,606.21s50.77,162.45,167.23,45.39c0,0,106.91-109.3,56.14-268.76l-223.37,223.37Z"/>
    </g>
  </g>
</svg>