<?xml version="1.0" encoding="UTF-8"?>
<svg xmlns="http://www.w3.org/2000/svg" xmlns:xlink="http://www.w3.org/1999/xlink" viewBox="0 0 977.95 979.65">
  <defs>
    <style>
      .cls-1 {
        fill: #211f21;
      }

      .cls-1, .cls-2, .cls-3, .cls-4, .cls-5, .cls-6, .cls-7, .cls-8, .cls-9 {
        stroke-width: 0px;
      }

      .cls-2 {
        fill: #086635;
      }

      .cls-4 {
        fill: #f9f7e1;
      }

      .cls-5, .cls-10 {
        fill: none;
      }

      .cls-6 {
        fill: #ab7f4e;
      }

      .cls-11 {
        clip-path: url(#clippath-1);
      }

      .cls-10 {
        stroke: #f9f6dc;
        stroke-miterlimit: 10;
        stroke-width: 7px;
      }

      .cls-7 {
        fill: #3fa344;
      }

      .cls-8 {
        fill: #098842;
      }

      .cls-12 {
        clip-path: url(#clippath);
      }

      .cls-9 {
        fill: #f9f6dc;
      }
    </style>
    <clipPath id="clippath">
      <rect class="cls-5" x="63.07" y="147.82" width="800.37" height="694"/>
    </clipPath>
    <clipPath id="clippath-1">
      <rect class="cls-5" x="863.1" y="439.33" width="26.87" height="26.31"/>
    </clipPath>
  </defs>
  <g id="Cercle">
    <path class="cls-3" d="m970,490.85c-.07,50.32-7.77,100.64-23.43,148.49-15.1,46.14-37.2,89.86-65.42,129.37-27.94,39.12-61.74,73.93-99.93,103.12-38.54,29.45-81.72,53.03-127.34,69.52-46.93,16.97-96.45,26.56-146.32,28.34-50.63,1.8-101.56-4.17-150.28-18.11-46.78-13.39-91.48-33.91-132.15-60.62-40.22-26.42-76.42-59.03-107.1-96.09-30.86-37.28-56.02-79.3-74.4-124.07s-30.52-95.25-34.28-144.92.24-101.88,12.3-151.27c11.52-47.18,30.35-92.6,55.61-134.07,25.03-41.09,56.17-78.33,92.18-110.24,36.15-32.03,77.12-58.52,121.14-78.41,45.15-20.39,93.53-33.57,142.74-39.19,50.64-5.79,102.31-3.43,152.24,6.76,48.08,9.82,94.61,27.24,137.45,51.15,42.1,23.5,80.56,53.39,113.86,88.25,33.36,34.91,61.38,74.79,82.94,118,22.02,44.15,37.07,91.65,44.61,140.4,3.77,24.35,5.55,48.96,5.59,73.59,0,6.54,7.96,3.11,7.95-2.05-.07-51.36-7.98-102.68-23.9-151.53-15.29-46.92-37.65-91.46-66.28-131.66-28.45-39.95-62.78-75.63-101.76-105.42-39.09-29.87-82.65-53.88-128.88-70.74S558.53,2.13,507.56.31c-51.52-1.84-103.38,4.38-152.93,18.64-47.51,13.67-92.94,34.64-134.16,61.94-40.76,27-77.35,60.01-108.48,97.71-31.45,38.1-57.11,81.04-75.76,126.78S5.36,402.4,1.45,453.08c-3.96,51.44.19,103.57,12.35,153.71,11.74,48.42,31.01,95.04,56.87,137.63,25.35,41.74,56.97,79.7,93.48,112.13,36.79,32.68,78.56,59.84,123.41,80.1s94.82,34.13,144.73,39.84c51.56,5.89,104.11,3.56,154.95-6.9s96.35-27.83,139.93-52.3c42.64-23.95,81.71-54.36,115.4-89.81,33.95-35.73,62.48-76.44,84.42-120.58,22.3-44.87,37.62-93.25,45.21-142.78,3.82-24.92,5.71-50.11,5.75-75.32,0-6.54-7.94-3.11-7.95,2.05Z"/>
  </g>
  <g id="Quatrefolic">
    <g class="cls-12">
      <path class="cls-7" d="m225.98,236.21s50.17-161.86,167.23-45.39c0,0,107.5,108.7,56.74,268.16l-223.97-222.77Z"/>
      <path class="cls-8" d="m226.57,235.61s-162.45,50.17-45.39,167.23c0,0,109.3,106.91,268.76,56.14l-223.37-223.37Z"/>
      <path class="cls-8" d="m743.2,752.24s-50.17,162.45-167.23,45.39c0,0-107.5-108.7-56.74-268.16l223.97,222.77Z"/>
      <path class="cls-7" d="m742,752.83s162.45-50.17,45.39-167.23c0,0-109.3-106.91-268.76-56.14l223.37,223.37Z"/>
      <path class="cls-8" d="m737.82,235.02s162.45,50.17,45.39,167.23c0,0-108.7,107.5-268.17,56.74l222.78-223.97Z"/>
      <path class="cls-2" d="m738.42,235.61s-50.17-162.45-167.23-45.39c0,0-106.91,109.3-56.14,268.76l223.37-223.37Z"/>
      <path class="cls-8" d="m236.13,754.62s-162.45-50.17-45.39-167.23c0,0,108.7-107.5,268.17-56.74l-222.78,223.97Z"/>
      <path class="cls-2" d="m235.53,754.03s50.77,162.45,167.23,45.39c0,0,106.91-109.3,56.14-268.76l-223.37,223.37Z"/>
      <path class="cls-6" d="m67.48,488.51c0-13.5,5.26-26.65,14.73-37l.18-.18c9.47-9.47,22.97-15.08,37-15.08s27.18,5.26,37.17,14.9l.18.18c10,10.7,15.43,23.85,15.43,37,0,13.85-5.44,27-15.43,37.17-7.54,7.54-17.53,12.63-28.23,14.73v5.61c-.18,5.61-3.68,9.12-9.12,9.12-5.09,0-8.94-3.86-8.94-8.94v-5.61c-24.9-4.74-42.96-26.3-42.96-51.9"/>
      <path class="cls-10" d="m67.48,488.51c0-13.5,5.26-26.65,14.73-37l.18-.18c9.47-9.47,22.97-15.08,37-15.08s27.18,5.26,37.17,14.9l.18.18c10,10.7,15.43,23.85,15.43,37,0,13.85-5.44,27-15.43,37.17-7.54,7.54-17.53,12.63-28.23,14.73v5.61c-.18,5.61-3.68,9.12-9.12,9.12-5.09,0-8.94-3.86-8.94-8.94v-5.61c-24.9-4.74-42.96-26.3-42.96-51.9"/>
      <path class="cls-4" d="m119.38,500.78c5.09,0,9.12,3.86,9.12,9.12v11.57c5.61-1.4,10.7-4.21,14.9-8.42,6.49-6.49,10-15.08,10-24.55s-3.51-17.54-10-24.02l-.18-.18c-5.79-6.14-14.55-9.82-23.85-9.82s-17.36,3.51-24.02,10c-6.31,6.49-10,15.08-10,24.02,0,15.78,10.35,28.93,24.9,32.97v-11.4c0-5.09,4.21-9.29,9.12-9.29"/>
      <path class="cls-6" d="m223.89,545.52c-24.4,0-43.51-18.88-43.51-42.99v-29.98c0-7.33,6.19-13.53,13.53-13.53s14.05,6.2,14.05,13.53v29.98c0,8.84,6.92,15.76,15.76,15.76s15.76-6.92,15.76-15.76l.53-30.59c0-7.51,5.94-13.45,13.53-13.45s13.53,6.07,13.53,13.53v30.51c.19,11.38-4.07,22.12-11.99,30.17-8.13,8.27-19.2,12.82-31.17,12.82"/>
      <path class="cls-9" d="m253.53,462.91c5.09,0,9.12,4.21,9.12,9.12v30.51c.35,21.57-16.83,38.58-38.75,38.58s-39.1-17.01-39.1-38.58v-29.99c0-4.91,4.21-9.12,9.12-9.12,5.26,0,9.65,4.21,9.65,9.12v29.99c0,11.4,8.94,20.17,20.16,20.17s20.17-8.94,20.17-20.17l.53-30.51c0-5.09,3.86-9.12,9.12-9.12m0-8.82c-10.03,0-17.89,7.83-17.94,17.85l-.53,30.45v.08s0,.08,0,.08c0,6.36-4.98,11.35-11.35,11.35s-11.35-4.88-11.35-11.35v-29.99c0-9.89-8.28-17.94-18.46-17.94s-17.94,8.21-17.94,17.94v29.99c0,26.58,21.05,47.39,47.92,47.39,13.16,0,25.34-5.02,34.31-14.13,8.74-8.88,13.44-20.71,13.26-33.33v-30.44c0-9.89-8.05-17.94-17.94-17.94"/>
      <path class="cls-6" d="m341.2,546.4c-4.14,0-8.08-2.04-10.67-5.25-6.01,2.95-12.66,4.54-19.14,4.54-24.5,0-43.69-19.19-43.69-43.69s19.6-42.99,43.69-42.99,43.69,19.28,43.69,42.99v30.34c0,8.01-5.97,14.05-13.88,14.05m-29.81-60.32c-8.93,0-15.93,7-15.93,15.93s7.15,16.63,15.93,16.63c8.2,0,15.32-6.73,15.93-15.03v-1.6c0-8.78-7.15-15.93-15.93-15.93"/>
      <path class="cls-9" d="m311.39,463.43c21.57,0,39.28,17.18,39.28,38.58v30.34c0,5.61-4.03,9.64-9.47,9.64-3.68,0-7.72-2.63-8.94-6.84-6.14,3.86-13.5,6.14-20.87,6.14-22.09,0-39.28-17.36-39.28-39.28s17.71-38.58,39.28-38.58m0,59.62c10.52,0,19.64-8.59,20.34-19.29v-1.75c0-11.22-9.12-20.34-20.34-20.34s-20.34,8.94-20.34,20.34,9.12,21.04,20.34,21.04m0-68.44c-26.52,0-48.1,21.26-48.1,47.39s21.13,48.1,48.1,48.1c6.11,0,12.35-1.28,18.17-3.68,3.23,2.74,7.35,4.39,11.64,4.39,10.42,0,18.29-7.94,18.29-18.46v-30.34c0-26.13-21.58-47.39-48.1-47.39m0,59.62c-6.35,0-11.52-5.48-11.52-12.23s4.95-11.52,11.52-11.52,11.52,5.17,11.52,11.52v1.42c-.52,5.88-5.74,10.8-11.52,10.8"/>
      <path class="cls-6" d="m402.57,545.7c-23.21,0-42.81-19.6-42.81-42.81v-56.99c0-7.71,6.04-13.53,14.05-13.53,7.46,0,13.53,6.07,13.53,13.53v13.48h16.46c7.71,0,13.53,6.04,13.53,14.05,0,7.49-5.94,13.35-13.53,13.35h-16.46v16.63c0,8.11,7.12,15.23,15.23,15.23s14.05,6.07,14.05,13.53-6.44,13.53-14.05,13.53"/>
      <path class="cls-9" d="m373.82,436.78c5.09,0,9.12,4.03,9.12,9.12v17.89h20.87c5.26,0,9.12,4.03,9.12,9.64,0,5.09-4.03,8.94-9.12,8.94h-20.87v21.04c0,10.7,9.12,19.64,19.64,19.64,5.26,0,9.64,4.03,9.64,9.12s-4.38,9.12-9.64,9.12c-20.87,0-38.4-17.54-38.4-38.4v-56.99c0-5.26,4.03-9.12,9.64-9.12m17.94,18.19v-9.07c0-9.89-8.05-17.94-17.94-17.94m0,0c-10.52,0-18.46,7.71-18.46,17.94v56.99c0,12.45,4.96,24.26,13.96,33.26,9,9,20.81,13.96,33.26,13.96,10.18,0,18.46-8.05,18.46-17.94s-8.28-17.94-18.46-17.94c-5.77,0-10.82-5.06-10.82-10.82v-12.23h12.05c10.06,0,17.94-7.8,17.94-17.76"/>
      <path class="cls-6" d="m435.72,545.7c-7.71,0-14.23-6.27-14.23-13.7v-59.62c0-7.33,6.51-13.53,14.23-13.53,3.87,0,7.55,1.76,10.09,4.6,5.97-3.02,12.76-4.6,19.9-4.6,5.87,0,11.14,1.01,16.11,3.08l4.35,1.45,2.84,1.42,1.18.98c1.8,1.13,5.89,4.46,5.89,11.5,0,1.31,0,4.36-2.36,7.77-2.46,3.69-6.78,5.93-11.52,5.93-2.37,0-4.68-.64-7.05-1.96l-2.35-1.4-.49-.49-.32-.19c-2.32-.74-4.22-1.05-6.45-1.05-9.23,0-16.46,7.31-16.46,16.63v29.39c.1,3.51-1.29,7.01-3.81,9.63-2.54,2.63-6.02,4.14-9.54,4.14"/>
      <path class="cls-9" d="m465.7,463.26c5.26,0,10,.88,14.55,2.81l4.21,1.4,2.1,1.05,1.05.88c1.58.88,4.03,3.16,4.03,7.89,0,1.05,0,2.98-1.58,5.26-1.75,2.63-4.73,4.03-7.89,4.03-1.75,0-3.33-.53-4.91-1.4l-1.75-1.05-.53-.53-1.23-.7c-3.16-1.05-5.61-1.4-8.24-1.4-11.75,0-20.87,9.29-20.87,21.04v29.46c.18,4.91-4.03,9.29-8.94,9.29-5.26,0-9.82-4.21-9.82-9.29v-59.62c0-4.91,4.56-9.12,9.82-9.12,3.86,0,7.37,2.63,8.59,6.14,6.14-4.03,13.5-6.14,21.39-6.14m0-8.82c-6.74,0-13.22,1.29-19.1,3.78-3.09-2.38-6.91-3.78-10.89-3.78-10.1,0-18.64,8.21-18.64,17.94v59.62c0,9.99,8.36,18.11,18.64,18.11,4.71,0,9.35-2,12.71-5.49,3.33-3.45,5.16-8.09,5.05-12.75v-29.33c0-6.97,5.18-12.23,12.05-12.23,1.29,0,2.57.11,4.31.6l.22.22.93.56,1.75,1.05.13.08.13.07c3.04,1.69,6.05,2.51,9.19,2.51,6.18,0,11.85-2.95,15.18-7.89,3.1-4.52,3.1-8.66,3.1-10.22,0-6.42-2.86-11.98-7.72-15.09l-.54-.45-.79-.66-.92-.46-2.1-1.05-.56-.28-.59-.2-3.9-1.3c-5.47-2.26-11.25-3.36-17.65-3.36"/>
      <path class="cls-6" d="m533.56,545.7c-9.92,0-19.43-3.43-27.49-9.92-8.43-6.86-13.92-16.9-15.46-28.27l-.04-.29v-.51c-.74-12.11,2.8-23.17,9.96-31.18,6.88-8.96,17.07-14.43,28.72-15.42,1.67-.2,3.35-.3,4.99-.3,9.26,0,18.13,3.17,26.36,9.42l.24.18,1.61,1.61.77.76c1.45,1.42,3.1,3.04,4.52,5.18l.41.61.14.23c.69,1.14,2.13,3.5,2.13,7.22,0,3.45-1.78,6.64-2.84,8.23l-.84,1.26-1.04.69c-1.21,1.04-5.97,5.05-26.7,22.44,2.45-.91,4.72-2.4,6.59-4.39,2.37-3.21,6.24-5.12,10.43-5.12,2.94,0,5.76.88,8.14,2.55l.97.73.14.13c4.88,4.37,6.1,12.19,2.79,17.8l-.13.21-.59.88-.57.58c-8.42,9.35-20.51,14.7-33.19,14.7m-12.08-52.99l-.34.4c-1.65,1.94-2.67,3.89-3.16,6.1,4.06-3.45,8.88-7.5,14.15-11.8.18-.15.35-.3.53-.46h-1.38c-3.36.29-7.15,2.41-9.59,5.35l-.2.4Z"/>
      <path class="cls-9" d="m534.24,464.2c8.33,0,16.26,2.88,23.69,8.52l.53.53.88.88c1.58,1.58,3.33,3.16,4.73,5.26l.35.53c.53.88,1.58,2.46,1.58,5.09,0,2.28-1.4,4.73-2.1,5.79l-.35.53-.53.35c-.35.35-24.2,20.34-36.12,30.34,2.1.7,4.21,1.05,6.49,1.05,5.96,0,11.57-2.63,15.61-7.01,1.58-2.28,4.21-3.51,7.01-3.51,1.93,0,3.86.53,5.61,1.75l.7.53c3.33,2.98,4.21,8.42,1.93,12.27l-.35.53-.35.35c-7.54,8.42-18.59,13.33-29.99,13.33-9.12,0-17.54-3.16-24.72-8.94-7.54-6.14-12.45-15.08-13.85-25.43v-.35c-.7-11.05,2.46-21.04,8.94-28.23,6.14-8.07,15.26-12.98,25.78-13.85,1.53-.19,3.04-.28,4.54-.28m-20.15,44.12c4.91-4.21,12.27-10.52,20.87-17.53,2.63-2.28,5.26-4.38,7.37-6.14-2.63-1.4-5.61-2.1-9.12-2.1h-2.1c-4.91.35-10,3.33-13.15,7.37l-.18.35c-2.98,3.51-4.56,7.37-4.56,12.27,0,1.93.35,3.86.88,5.79m20.15-52.94c-1.8,0-3.63.11-5.44.33-12.81,1.11-24.04,7.14-31.67,16.99-7.85,8.86-11.74,20.95-10.97,34.13v.68l.08.59c1.69,12.48,7.74,23.52,17.02,31.08,8.89,7.16,19.35,10.92,30.29,10.92,13.89,0,27.13-5.85,36.38-16.07l.19-.19.62-.62.48-.73.35-.53.13-.2.12-.21c4.42-7.49,2.86-17.52-3.64-23.33l-.28-.25-.3-.23-.7-.53-.12-.09-.12-.08c-1.61-1.12-3.36-1.98-5.22-2.54,4.12-3.46,5.98-5.04,6.88-5.8l.1-.07,1.47-.98.98-1.47.35-.53c1.34-2.01,3.59-6.07,3.59-10.68,0-4.95-1.94-8.14-2.76-9.5l-.07-.12-.11-.18-.12-.18-.35-.53c-1.68-2.52-3.57-4.38-5.1-5.88-.25-.24-.5-.49-.74-.73l-.88-.88-.53-.53-.42-.42-.48-.36c-9.01-6.85-18.78-10.32-29.03-10.32"/>
      <path class="cls-6" d="m585.99,545.52c-6.55,0-13.88-5.79-13.88-13.53v-57.87c0-22.83,19.77-42.11,43.16-42.11,7.08,0,13.53,6.36,13.53,13.35s-6.27,13.47-13.43,13.53c6.92.6,12.38,6.57,12.38,13.83s-6.07,13.7-13.53,13.7h-14.53v45.54c-.25,7.6-6.27,13.56-13.7,13.56"/>
      <path class="cls-9" d="m615.27,436.43c4.74,0,9.12,4.38,9.12,8.94s-4.38,9.12-9.12,9.12c-7.37,0-13.5,3.33-16.66,8.77h15.61c5.09,0,9.12,4.21,9.12,9.47s-4.03,9.29-9.12,9.29h-18.94v49.8c-.18,5.26-4.21,9.29-9.29,9.29-4.21,0-9.47-4.03-9.47-9.12v-57.87c0-20.34,17.71-37.7,38.75-37.7m0-8.82c-25.79,0-47.57,21.3-47.57,46.52v57.87c0,10.27,9.65,17.94,18.29,17.94,9.82,0,17.77-7.83,18.11-17.82v-.15s0-.15,0-.15v-40.98h10.12c9.89,0,17.94-8.12,17.94-18.11,0-5.32-2.24-10.12-5.81-13.47,4.13-3.35,6.87-8.43,6.87-13.89,0-9.46-8.38-17.76-17.94-17.76"/>
      <path class="cls-6" d="m665.78,545.7c-24.38,0-44.21-19.75-44.21-44.04s19.83-43.51,44.21-43.51c12.09,0,22.87,4.39,31.17,12.69l.31.32c8.21,8.99,12.55,19.54,12.55,30.5-.19,24.3-19.95,44.04-44.04,44.04m0-60.32c-8.98,0-16.28,7.3-16.28,16.28,0,9.43,7.15,16.81,16.28,16.81s16.81-7.85,16.81-16.81c0-3.68-1.97-8.04-5.02-11.09l-.42-.42-.07-.08c-2.71-2.98-6.83-4.69-11.29-4.69"/>
      <path class="cls-9" d="m665.78,462.56c10.87,0,20.52,3.86,28.06,11.4l.18.18c7.37,8.07,11.4,17.54,11.4,27.53-.18,21.92-17.89,39.63-39.63,39.63s-39.8-17.71-39.8-39.63,17.88-39.1,39.8-39.1m0,60.32c11.4,0,21.22-9.82,21.22-21.22,0-4.91-2.46-10.35-6.31-14.2l-.35-.35c-3.51-3.86-8.77-6.14-14.55-6.14-11.4,0-20.69,9.29-20.69,20.69s9.12,21.22,20.69,21.22m0-69.14c-26.81,0-48.62,21.5-48.62,47.92s21.81,48.45,48.62,48.45,48.23-21.7,48.45-48.38v-.07c0-12.08-4.74-23.66-13.7-33.48l-.13-.15-.14-.14-.18-.18c-9.15-9.15-21-13.98-34.29-13.98m0,60.32c-6.77,0-11.87-5.33-11.87-12.4,0-6.55,5.33-11.87,11.87-11.87,3.22,0,6.15,1.19,8.03,3.25l.14.15.15.15.35.35c2.23,2.23,3.73,5.43,3.73,7.97,0,6.49-5.91,12.4-12.4,12.4"/>
      <path class="cls-6" d="m726.27,545.17c-7.68,0-13.7-5.94-13.7-13.53v-86.27c0-7.96,5.64-13.53,13.7-13.53s13.7,5.94,13.7,13.53v86.27c0,7.33-6.28,13.53-13.7,13.53"/>
      <path class="cls-9" d="m726.27,436.25c5.26,0,9.29,3.86,9.29,9.12v86.27c0,4.91-4.38,9.12-9.29,9.12-5.26,0-9.29-4.03-9.29-9.12v-86.27c0-5.44,3.68-9.12,9.29-9.12m0-8.82c-10.49,0-18.11,7.54-18.11,17.94v86.27c0,10.06,7.96,17.94,18.11,17.94s18.11-8.21,18.11-17.94v-86.27c0-10.06-7.96-17.94-18.11-17.94"/>
      <path class="cls-6" d="m760.46,546.05c-7.78,0-13.88-6.02-13.88-13.7v-60.5c0-8.04,5.84-13.88,13.88-13.88,6.51,0,13.53,5.31,13.53,13.88v60.5c0,7.3-6.32,13.7-13.53,13.7"/>
      <path class="cls-9" d="m760.47,462.38c4.38,0,9.12,3.51,9.12,9.47v60.5c0,4.91-4.38,9.29-9.12,9.29-5.26,0-9.47-4.03-9.47-9.29v-60.5c0-5.61,3.86-9.47,9.47-9.47m0-8.82c-10.42,0-18.29,7.86-18.29,18.29v60.5c0,10.16,8.03,18.11,18.29,18.11,9.72,0,17.94-8.29,17.94-18.11v-60.5c0-11.3-9.31-18.29-17.94-18.29"/>
      <path class="cls-6" d="m819.56,545.7c-23.9,0-43.34-19.44-43.34-43.34s19.44-43.34,43.34-43.34c14,0,26.92,6.63,34.59,17.75,2.18,2.78,3.19,5.92,2.95,9.09-.28,3.94-2.32,7.55-5.46,9.64l-.23.15-.45.23c-2.58,1.52-5.24,2.29-7.9,2.29-4.55,0-8.5-2.03-11.13-5.7-2.85-4.07-7.64-6.57-12.54-6.57-8.77,0-16.46,7.61-16.46,16.28s7.38,15.58,16.46,15.58c6.2,0,11.14-2.91,13.55-8l.14-.29.53-.79c2.46-3.94,6.87-6.35,11.74-6.35,2.46,0,4.69.59,6.65,1.75,2.85,1.38,5.18,3.96,6.26,6.94,1.38,3.87.93,8.18-1.2,11.61-7.68,14.45-21.68,23.07-37.49,23.07"/>
      <path class="cls-9" d="m819.56,463.43c12.63,0,24.2,5.96,31.04,15.96,1.4,1.75,2.28,3.86,2.1,6.14-.18,2.46-1.4,4.91-3.51,6.31l-.35.18c-1.75,1.05-3.68,1.75-5.79,1.75-3.16,0-5.79-1.4-7.54-3.86-3.68-5.26-9.82-8.42-16.13-8.42-11.22,0-20.87,9.47-20.87,20.69s9.29,19.99,20.87,19.99c7.89,0,14.38-3.86,17.53-10.52l.35-.53c1.75-2.81,4.73-4.38,8.07-4.38,1.58,0,3.16.35,4.56,1.23,1.93.88,3.51,2.63,4.21,4.56.88,2.46.7,5.44-.88,7.89-6.84,12.98-19.46,20.87-33.67,20.87-21.57,0-38.93-17.53-38.93-38.93s17.53-38.93,38.93-38.93m0-8.82c-26.33,0-47.75,21.42-47.75,47.75s21.42,47.74,47.75,47.74c17.42,0,32.84-9.44,41.31-25.28,2.76-4.54,3.34-10.21,1.54-15.26-1.47-4.03-4.55-7.47-8.33-9.37-.3-.17-.6-.33-.91-.49l.46-.23.46-.3c4.26-2.84,7.03-7.71,7.41-13.02.32-4.21-.99-8.36-3.79-11.99-8.5-12.25-22.74-19.55-38.14-19.55m-.18,58.74c-6.64,0-12.05-5.01-12.05-11.17s5.63-11.87,12.05-11.87c3.48,0,6.9,1.78,8.91,4.66l.02.03.03.03c1.83,2.56,4.21,4.54,6.94,5.83-2.14,1.39-3.99,3.23-5.41,5.46l-.29.44-.36.54-.28.58c-2.26,4.77-6.96,5.48-9.57,5.48"/>
    </g>
    <g class="cls-11">
      <path class="cls-1" d="m889.97,452.42c0,7.38-5.85,13.22-13.36,13.22s-13.5-5.85-13.5-13.22,5.99-13.09,13.5-13.09c7.38.14,13.36,5.99,13.36,13.09m-23.25.14c0,5.57,4.18,10.02,9.74,10.02s9.74-4.45,9.74-10.02-4.18-10.02-9.74-10.02-9.74,4.45-9.74,10.02m7.93,6.4h-3.34v-12.53c.98-.14,2.92-.42,5.15-.42,2.64,0,3.76.42,4.59.98.84.56,1.39,1.53,1.39,2.65,0,1.25-1.11,2.37-2.78,2.92v.14c1.25.42,1.95,1.53,2.37,3.2.42,1.81.7,2.51.97,3.06h-3.76c-.42-.42-.56-1.53-.97-2.92-.28-1.25-.97-1.81-2.37-1.81h-1.25v4.73Zm0-7.1h1.25c1.53,0,2.51-.56,2.51-1.67s-.84-1.67-2.37-1.67c-.56,0-1.11.14-1.53.14l.14,3.2Z"/>
    </g>
  </g>
</svg>