<?xml version="1.0" encoding="UTF-8"?>
<svg xmlns="http://www.w3.org/2000/svg" viewBox="0 0 977.95 979.65">
  <defs>
    <style>
      .cls-1 {
        fill: #e6e6e6;
      }

      .cls-1, .cls-2 {
        stroke-width: 0px;
      }
    </style>
  </defs>
  <g id="Cercle">
    <path class="cls-2" d="m970,490.85c-.07,50.32-7.77,100.64-23.43,148.49-15.1,46.14-37.2,89.86-65.42,129.37-27.94,39.12-61.74,73.93-99.93,103.12-38.54,29.45-81.72,53.03-127.34,69.52-46.93,16.97-96.45,26.56-146.32,28.34-50.63,1.8-101.56-4.17-150.28-18.11-46.78-13.39-91.48-33.91-132.15-60.62-40.22-26.42-76.42-59.03-107.1-96.09-30.86-37.28-56.02-79.3-74.4-124.07s-30.52-95.25-34.28-144.92.24-101.88,12.3-151.27c11.52-47.18,30.35-92.6,55.61-134.07,25.03-41.09,56.17-78.33,92.18-110.24,36.15-32.03,77.12-58.52,121.14-78.41,45.15-20.39,93.53-33.57,142.74-39.19,50.64-5.79,102.31-3.43,152.24,6.76,48.08,9.82,94.61,27.24,137.45,51.15,42.1,23.5,80.56,53.39,113.86,88.25,33.36,34.91,61.38,74.79,82.94,118,22.02,44.15,37.07,91.65,44.61,140.4,3.77,24.35,5.55,48.96,5.59,73.59,0,6.54,7.96,3.11,7.95-2.05-.07-51.36-7.98-102.68-23.9-151.53-15.29-46.92-37.65-91.46-66.28-131.66-28.45-39.95-62.78-75.63-101.76-105.42-39.09-29.87-82.65-53.88-128.88-70.74S558.53,2.13,507.56.31c-51.52-1.84-103.38,4.38-152.93,18.64-47.51,13.67-92.94,34.64-134.16,61.94-40.76,27-77.35,60.01-108.48,97.71-31.45,38.1-57.11,81.04-75.76,126.78S5.36,402.4,1.45,453.08c-3.96,51.44.19,103.57,12.35,153.71,11.74,48.42,31.01,95.04,56.87,137.63,25.35,41.74,56.97,79.7,93.48,112.13,36.79,32.68,78.56,59.84,123.41,80.1s94.82,34.13,144.73,39.84c51.56,5.89,104.11,3.56,154.95-6.9s96.35-27.83,139.93-52.3c42.64-23.95,81.71-54.36,115.4-89.81,33.95-35.73,62.48-76.44,84.42-120.58,22.3-44.87,37.62-93.25,45.21-142.78,3.82-24.92,5.71-50.11,5.75-75.32,0-6.54-7.94-3.11-7.95,2.05Z"/>
  </g>
  <g id="Sans_OGM" data-name="Sans OGM">
    <path class="cls-1" d="m793.8,762.05c-65.76-65.76-173.95-11.31-246.07-83.44-72.12-72.12-26.97-189.61-90.56-253.2-63.59-63.59-183.44-20.8-250.44-87.81,0,0,39.86-6.2,58.11-24.44s24.62-56.17,24.62-56.17c65.76,65.76,11.31,173.95,83.44,246.07,72.12,72.12,189.61,26.97,253.2,90.56s20.8,183.44,87.81,250.44c0,0,9.58-39.75,28.08-58.25s51.82-23.77,51.82-23.77Z"/>
    <path class="cls-2" d="m273.4,198.98c39.38,39.88,34.77,98.64,41.42,150.08,3.47,26.82,10.37,53.61,25.7,76.26s38.65,40.74,64.64,51.16c49.48,19.83,104.02,15.27,154.57,30.46,24.28,7.3,46.37,20.64,61.21,41.58,14.87,20.97,21.42,46.22,25.57,71.24,8.41,50.68,7.14,107.65,38.47,151.13,3.88,5.38,8.19,10.44,12.85,15.16,3.31,3.35,11.95-1.06,7.87-5.19-38.79-39.25-40.16-97.53-47.25-148.9-3.48-25.2-8.32-50.88-20.19-73.64-11.66-22.34-30.31-39.9-53.13-50.53-47.64-22.19-102.62-17.5-152.65-30.81-26.91-7.16-51.85-19.93-71.01-40.46s-29.73-47.34-34.66-75.04c-8.98-50.46-1.72-108.04-32.56-152.19-3.87-5.54-8.24-10.71-12.99-15.51-3.31-3.35-11.95,1.06-7.87,5.19h0Z"/>
    <path class="cls-2" d="m784.49,697.39c-39.7-39.2-96.74-36.6-148.26-42.54-27.12-3.13-54.35-9.22-77.51-24.33-23.97-15.63-41.55-39.29-51.55-65.93-18.64-49.67-13.46-104.41-30.12-154.51-7.9-23.76-21.41-45.28-41.88-60.15-20.55-14.93-45.13-22.08-69.83-26.53-50.7-9.15-108.56-6.56-152.49-37.48-5.51-3.88-10.64-8.24-15.43-12.97-3.77-3.72-9.03,4.72-5.62,8.09,39.01,38.56,95.83,41.58,147.15,48.3,25.52,3.34,51.53,7.65,74.8,19.2,22.99,11.42,40.52,30.19,50.9,53.6,10.32,23.3,13.79,49.14,16.93,74.2,3.33,26.58,5.96,53.46,13.5,79.27,7.69,26.33,20.86,50.8,41.06,69.64,20.47,19.09,46.11,29.95,73.29,35.42,50.48,10.17,108.97,1.49,153.64,31.69,5.69,3.84,10.93,8.28,15.81,13.1,3.77,3.72,9.03-4.72,5.62-8.09h0Z"/>
    <path class="cls-2" d="m212.75,288.05c21.33-21.33,42.65-42.65,63.98-63.98,3.05-3.05,6.1-6.1,9.15-9.15,3.42-3.42-.13-11.99-4.54-7.59-21.33,21.33-42.65,42.65-63.98,63.98-3.05,3.05-6.1,6.1-9.15,9.15-3.42,3.42.13,11.99,4.54,7.59h0Z"/>
    <path class="cls-2" d="m290.23,219.81c-19.99,19.99-39.99,39.99-59.98,59.98l-8.7,8.7c-3.3,3.3.17,12.47,4.2,8.44,19.99-19.99,39.99-39.99,59.98-59.98l8.7-8.7c3.3-3.3-.17-12.47-4.2-8.44h0Z"/>
    <path class="cls-2" d="m259.33,309.5l50.04-50.04c4.38-4.38-4.55-7.29-7.93-3.9l-50.04,50.04c-4.38,4.38,4.55,7.29,7.93,3.9h0Z"/>
    <path class="cls-2" d="m307.09,272.44c-12.66,12.66-25.32,25.32-37.99,37.99-4.64,4.64,2.45,8.23,6.43,4.24,12.66-12.66,25.32-25.32,37.99-37.99,4.64-4.64-2.45-8.23-6.43-4.24h0Z"/>
    <path class="cls-2" d="m328.65,374.92c13.45-13.45,26.91-26.91,40.36-40.36,3.44-3.44-.42-11.81-4.83-7.4-13.45,13.45-26.91,26.91-40.36,40.36-3.44,3.44.42,11.81,4.83,7.4h0Z"/>
    <path class="cls-2" d="m379.02,332.82l-52.37,52.37c-4.06,4.06,4.81,8.09,8.14,4.75l52.37-52.37c4.06-4.06-4.81-8.09-8.14-4.75h0Z"/>
    <path class="cls-2" d="m349.44,421.87c20.13-20.13,40.25-40.25,60.38-60.38l8.63-8.63c3.43-3.43-.26-11.91-4.67-7.5-20.13,20.13-40.25,40.25-60.38,60.38l-8.63,8.63c-3.43,3.43.26,11.91,4.67,7.5h0Z"/>
    <path class="cls-2" d="m424.92,354.92l-63.72,63.72-8.96,8.96c-4.08,4.08,4.59,8.44,7.93,5.09l63.72-63.72,8.96-8.96c4.08-4.08-4.59-8.44-7.93-5.09h0Z"/>
    <path class="cls-2" d="m384.46,455.26c20.91-20.91,41.82-41.82,62.73-62.73l8.91-8.91c4.4-4.4-4.2-7.9-7.62-4.47-20.91,20.91-41.82,41.82-62.73,62.73l-8.91,8.91c-4.4,4.4,4.2,7.9,7.62,4.47h0Z"/>
    <path class="cls-2" d="m456.88,391.35c-19.69,19.69-39.39,39.39-59.08,59.08l-8.53,8.53c-4.41,4.41,4.11,8.04,7.54,4.61,19.69-19.69,39.39-39.39,59.08-59.08l8.53-8.53c4.41-4.41-4.11-8.04-7.54-4.61h0Z"/>
    <path class="cls-2" d="m427.58,480.45l48.95-48.95c1.76-1.76,2.36-4.55,1.25-6.86-.85-1.76-3.36-3.52-5.16-1.72l-48.95,48.95c-1.76,1.76-2.36,4.55-1.25,6.86.85,1.76,3.36,3.52,5.16,1.72h0Z"/>
    <path class="cls-2" d="m475.1,441.03c-12.62,12.62-25.24,25.24-37.86,37.86-4.62,4.62,3.61,7.52,7.23,3.89,12.62-12.62,25.24-25.24,37.86-37.86,4.62-4.62-3.61-7.52-7.23-3.89h0Z"/>
    <path class="cls-2" d="m500.16,542.31c13.45-13.45,26.91-26.91,40.36-40.36,4.01-4.01-5.2-7.37-8.5-4.07-13.45,13.45-26.91,26.91-40.36,40.36-4.01,4.01,5.2,7.37,8.5,4.07h0Z"/>
    <path class="cls-2" d="m551.04,500.54c-17.46,17.46-34.91,34.91-52.37,52.37-1.65,1.65-3.14,4.34-1.93,6.7,1.03,2.01,3.76,2.38,5.38.75,17.46-17.46,34.91-34.91,52.37-52.37,1.65-1.65,3.14-4.34,1.93-6.7-1.03-2.01-3.76-2.38-5.38-.75h0Z"/>
    <path class="cls-2" d="m520.1,589.59c20.13-20.13,40.25-40.25,60.38-60.38,2.88-2.88,5.75-5.75,8.63-8.63,4.61-4.61-2.96-8.51-6.65-4.81-20.13,20.13-40.25,40.25-60.38,60.38-2.88,2.88-5.75,5.75-8.63,8.63-4.61,4.61,2.96,8.51,6.65,4.81h0Z"/>
    <path class="cls-2" d="m596.1,523.25l-63.72,63.72c-2.99,2.99-5.97,5.97-8.96,8.96-3.7,3.7.33,11.17,4.93,6.57l63.72-63.72c2.99-2.99,5.97-5.97,8.96-8.96,3.7-3.7-.33-11.17-4.93-6.57h0Z"/>
    <path class="cls-2" d="m552.25,626.39c20.91-20.91,41.82-41.82,62.73-62.73,2.97-2.97,5.94-5.94,8.91-8.91,1.76-1.76,2.4-4.53,1.29-6.85-.83-1.75-3.35-3.55-5.14-1.76-20.91,20.91-41.82,41.82-62.73,62.73-2.97,2.97-5.94,5.94-8.91,8.91-1.76,1.76-2.4,4.53-1.29,6.85.83,1.75,3.35,3.55,5.14,1.76h0Z"/>
    <path class="cls-2" d="m626.03,560.3c-20.56,20.56-41.12,41.12-61.68,61.68l-8.72,8.72c-3.66,3.66,5.21,8.2,8.58,4.83,20.56-20.56,41.12-41.12,61.68-61.68,2.91-2.91,5.82-5.82,8.72-8.72,3.66-3.66-5.21-8.2-8.58-4.83h0Z"/>
    <path class="cls-2" d="m595.25,650.65c17.37-17.37,34.73-34.73,52.1-52.1,4.64-4.64-2.18-8.59-6.21-4.56-17.37,17.37-34.73,34.73-52.1,52.1-4.64,4.64,2.18,8.59,6.21,4.56h0Z"/>
    <path class="cls-2" d="m646.18,607.87c-13.54,13.54-27.09,27.09-40.63,40.63-3.31,3.31.37,12.38,4.42,8.33,13.54-13.54,27.09-27.09,40.63-40.63,3.31-3.31-.37-12.38-4.42-8.33h0Z"/>
    <path class="cls-2" d="m646.18,607.87c-13.54,13.54-27.09,27.09-40.63,40.63-3.31,3.31.37,12.38,4.42,8.33,13.54-13.54,27.09-27.09,40.63-40.63,3.31-3.31-.37-12.38-4.42-8.33h0Z"/>
    <path class="cls-2" d="m667.24,713.89c13.45-13.45,26.91-26.91,40.36-40.36,3.7-3.7-.29-11.19-4.9-6.59-13.45,13.45-26.91,26.91-40.36,40.36-3.7,3.7.29,11.19,4.9,6.59h0Z"/>
    <path class="cls-2" d="m719.37,670.45l-52.37,52.37c-3.31,3.31.48,12.32,4.54,8.26l52.37-52.37c3.31-3.31-.48-12.32-4.54-8.26h0Z"/>
    <path class="cls-2" d="m689.97,759.4l64.23-64.23,9.34-9.34c1.77-1.77-.03-4.31-1.79-5.13-2.36-1.1-5.07-.43-6.84,1.34l-64.23,64.23-9.34,9.34c-1.77,1.77.03,4.31,1.79,5.13,2.36,1.1,5.07.43,6.84-1.34h0Z"/>
    <path class="cls-2" d="m765.38,693.3c-22.02,22.02-44.03,44.03-66.05,66.05l-9.39,9.39c-3.64,3.64-.5,11.72,4.12,7.1l66.05-66.05,9.39-9.39c3.64-3.64.5-11.72-4.12-7.1h0Z"/>
    <path class="cls-2" d="m421.38,550.37c-9.29,9.29-18.57,18.57-27.86,27.86-22.3,22.3-44.6,44.6-66.9,66.9-26.97,26.97-53.95,53.95-80.92,80.92-23.23,23.23-46.45,46.45-69.68,69.68-7.7,7.7-15.41,15.41-23.11,23.11-3.6,3.6-7.76,7.06-11,11-.15.18-.33.33-.49.49-4.04,4.04,4.99,7.76,8.32,4.44,9.29-9.29,18.57-18.57,27.86-27.86,22.3-22.3,44.6-44.6,66.9-66.9,26.97-26.97,53.95-53.95,80.92-80.92,23.23-23.23,46.45-46.45,69.68-69.68l23.11-23.11c3.6-3.6,7.76-7.06,11-11,.15-.18.33-.33.49-.49,4.04-4.04-4.99-7.76-8.32-4.44h0Z"/>
    <path class="cls-2" d="m826.23,145.52c-10.52,10.52-21.04,21.04-31.56,31.56-25.26,25.26-50.52,50.52-75.78,75.78-30.43,30.43-60.86,60.86-91.29,91.29-26.41,26.41-52.82,52.82-79.23,79.23l-26.02,26.02c-4.08,4.08-8.75,7.99-12.44,12.44-.16.19-.35.35-.53.53-4.04,4.04,4.99,7.76,8.32,4.44,10.52-10.52,21.04-21.04,31.56-31.56,25.26-25.26,50.52-50.52,75.78-75.78,30.43-30.43,60.86-60.86,91.29-91.29,26.41-26.41,52.82-52.82,79.23-79.23l26.02-26.02c4.08-4.08,8.75-7.99,12.44-12.44.16-.19.35-.35.53-.53,4.04-4.04-4.99-7.76-8.32-4.44h0Z"/>
  </g>
</svg>