<?xml version="1.0" encoding="UTF-8"?>
<svg xmlns="http://www.w3.org/2000/svg" viewBox="0 0 977.95 979.65">
  <defs>
    <style>
      .cls-1 {
        fill: #e6e6e6;
      }

      .cls-1, .cls-2 {
        stroke-width: 0px;
      }
    </style>
  </defs>
  <g id="Cercle">
    <path class="cls-2" d="m970,490.85c-.07,50.32-7.77,100.64-23.43,148.49-15.1,46.14-37.2,89.86-65.42,129.37-27.94,39.12-61.74,73.93-99.93,103.12-38.54,29.45-81.72,53.03-127.34,69.52-46.93,16.97-96.45,26.56-146.32,28.34-50.63,1.8-101.56-4.17-150.28-18.11-46.78-13.39-91.48-33.91-132.15-60.62-40.22-26.42-76.42-59.03-107.1-96.09-30.86-37.28-56.02-79.3-74.4-124.07s-30.52-95.25-34.28-144.92.24-101.88,12.3-151.27c11.52-47.18,30.35-92.6,55.61-134.07,25.03-41.09,56.17-78.33,92.18-110.24,36.15-32.03,77.12-58.52,121.14-78.41,45.15-20.39,93.53-33.57,142.74-39.19,50.64-5.79,102.31-3.43,152.24,6.76,48.08,9.82,94.61,27.24,137.45,51.15,42.1,23.5,80.56,53.39,113.86,88.25,33.36,34.91,61.38,74.79,82.94,118,22.02,44.15,37.07,91.65,44.61,140.4,3.77,24.35,5.55,48.96,5.59,73.59,0,6.54,7.96,3.11,7.95-2.05-.07-51.36-7.98-102.68-23.9-151.53-15.29-46.92-37.65-91.46-66.28-131.66-28.45-39.95-62.78-75.63-101.76-105.42-39.09-29.87-82.65-53.88-128.88-70.74S558.53,2.13,507.56.31c-51.52-1.84-103.38,4.38-152.93,18.64-47.51,13.67-92.94,34.64-134.16,61.94-40.76,27-77.35,60.01-108.48,97.71-31.45,38.1-57.11,81.04-75.76,126.78S5.36,402.4,1.45,453.08c-3.96,51.44.19,103.57,12.35,153.71,11.74,48.42,31.01,95.04,56.87,137.63,25.35,41.74,56.97,79.7,93.48,112.13,36.79,32.68,78.56,59.84,123.41,80.1s94.82,34.13,144.73,39.84c51.56,5.89,104.11,3.56,154.95-6.9s96.35-27.83,139.93-52.3c42.64-23.95,81.71-54.36,115.4-89.81,33.95-35.73,62.48-76.44,84.42-120.58,22.3-44.87,37.62-93.25,45.21-142.78,3.82-24.92,5.71-50.11,5.75-75.32,0-6.54-7.94-3.11-7.95,2.05Z"/>
  </g>
  <g id="Sans_soja" data-name="Sans soja">
    <g id="Calque_19" data-name="Calque 19">
      <g>
        <path class="cls-1" d="m658.53,534.58c-55-29-71-90-90-119.01-40.88-53.05-134.95-60.67-151.05-120.25-17.41,27.13-25.07,60.69-24.34,94.31-9.01-6.15-90.67-58.99-190.61-25.05,0,0-49.86,148.42,71.64,227.11-4.96,12.62-7.74,27.25-7.64,43.88-.76,99.9,102.43,133.67,148.8,82.96,15.95,12.3,38.12,21.39,67.2,25.04,66.43-1.52,103.78-38.43,109.19-79.93,53.1,73.59,163.41,98.04,243.81,50.94-82.34-37.11-61.44-145.04-177-180Z"/>
        <path class="cls-1" d="m659.29,533.29c-23.45-12.48-41.41-32.06-55.25-54.47-11.27-18.25-19.4-38.1-29.86-56.77-10.61-18.94-29.2-32.18-47.54-43.01-20.13-11.89-41.63-21.27-61.73-33.22s-39.49-27.43-45.97-50.9c-.35-1.28-2.06-1.43-2.74-.36-17.94,28.2-25.17,61.91-24.54,95.07l2.26-1.3c-20.39-13.89-44.39-23.43-68.18-29.5-21-5.35-42.78-7.79-64.44-6.84-12.48.55-24.92,2.2-37.1,4.93-6.69,1.5-13.3,3.32-19.81,5.46-1.53.5-2.72.66-3.38,2.1-1.87,4.09-2.61,9.15-3.61,13.5-2.22,9.69-3.84,19.52-4.93,29.39-3.19,28.9-1.67,58.63,6.43,86.64,10.29,35.58,31.61,66.67,60.91,89.31,4.41,3.41,8.96,6.61,13.63,9.65l-.69-1.69c-8.7,22.46-9.92,48.28-5.09,71.81,3.6,17.53,11.33,34.16,23.07,47.72,20.24,23.38,52,36.39,82.81,31.53,16.4-2.59,31.6-10.54,42.87-22.76l-1.82.23c12.51,9.57,27.1,16.05,42.24,20.23,4.46,1.23,8.97,2.26,13.51,3.12s9.26,2,13.81,1.86c8.52-.27,17.03-1.14,25.41-2.73,27.05-5.11,53.08-18.45,69.18-41.35,7.69-10.94,12.66-23.66,14.44-36.91l-2.74.36c20.82,28.7,50.24,50.18,83.28,62.78,33.43,12.75,70.37,16.36,105.58,9.82,20.05-3.73,39.39-10.86,57.01-21.12.9-.52,1.05-2.11,0-2.59-14.89-6.77-27.82-16.7-38.43-29.14s-17.95-25.42-25.32-39.08c-15.51-28.74-30.03-58.45-55.02-80.37-16.92-14.84-37.14-25.02-58.59-31.57-1.85-.56-2.64,2.33-.8,2.89,19.64,5.99,38.34,15.06,54.22,28.2,13.1,10.84,23.9,24.04,33.04,38.33,16.83,26.29,28.12,56.09,47.76,80.58,11.23,14,25.25,25.3,41.63,32.75v-2.59c-30.62,17.83-66.2,25.61-101.49,23.6s-69.08-13.35-97.89-33.01c-16.33-11.14-30.77-24.99-42.38-41-.65-.89-2.55-1.07-2.74.36-3.2,23.79-16.87,44.62-36.56,58.16-11.76,8.08-25.14,13.5-38.99,16.75-7.82,1.83-15.78,2.97-23.79,3.54-4.7.33-9.06.37-13.74-.36s-9.39-1.63-14.03-2.74c-16.9-4.02-33.22-10.75-47.09-21.35-.5-.38-1.41-.21-1.82.23-20.05,21.75-51.31,27.58-79.03,19.06-31.45-9.67-54.66-36.04-63.11-67.48-6.67-24.81-5.8-52.96,3.49-76.95.25-.63-.17-1.36-.69-1.69-21.11-13.74-39.58-31.37-53.16-52.65-11.38-17.83-19.12-37.74-23.45-58.42-6.56-31.33-5.61-64.25.86-95.51,1.31-6.32,2.75-12.7,4.8-18.83l-1.05,1.05c33.93-11.42,70.16-14.14,105.41-7.88,23.78,4.22,46.97,12.17,68.32,23.47,5.38,2.85,10.69,5.88,15.72,9.31.95.65,2.28-.21,2.26-1.3-.62-32.66,6.46-65.77,24.14-93.55l-2.74-.36c5.6,20.28,20.59,35.13,37.62,46.56,19.41,13.03,40.96,22.45,61.42,33.65,10.37,5.67,20.56,11.76,29.99,18.91,8.87,6.72,18.07,14.67,23.92,24.26,10.92,17.89,18.59,37.59,29.15,55.7,14.6,25.04,33.76,47.3,59.65,61.08,1.7.91,3.22-1.68,1.51-2.59Z"/>
      </g>
      <path class="cls-1" d="m417.57,297.13c1.93,0,1.93-3,0-3s-1.93,3,0,3h0Z"/>
      <path class="cls-1" d="m758.31,360.06c.12,7.17-1.83,14.34-6.64,19.8-4.28,4.86-10.17,7.93-16.46,9.25-12.84,2.68-27.34-2.21-34.19-13.79-3-5.08-3.9-10.52-4.34-16.3-.17-2.18-.56-4.35-.99-6.49-1.53-7.58-3.89-15.01-6.73-22.19-4.13-10.47-9.35-20.51-15.64-29.86-7.69-11.43-16.92-21.83-27.5-30.66-12.59-10.52-26.91-18.75-42.21-24.63-19.05-7.32-39.39-10.89-59.72-11.84-23.76-1.1-48.11,3.26-69.97,12.71-18.89,8.16-35.8,20.64-48.93,36.51-3.04,3.68-5.88,7.51-8.52,11.48-1.07,1.61,1.52,3.12,2.59,1.51,11.27-16.94,26.4-31.02,44.19-40.92,20.73-11.54,44.26-17.13,67.83-18.48,5.89-.34,11.91.07,17.79.47,5.58.38,11.14.96,16.67,1.79,9.82,1.47,19.55,3.68,29,6.74,16.01,5.18,31.2,12.9,44.58,23.12,11.11,8.49,20.94,18.71,29.08,30.08,6.71,9.37,12.38,19.54,16.81,30.18,3.14,7.54,5.74,15.34,7.47,23.32.28,1.28.53,2.57.75,3.86.09.54.17,1.08.25,1.63.06.44-.02-.15,0,.06.01.11.03.21.04.32.03.22.05.44.08.66.52,5,.87,9.77,2.84,14.49,5.42,12.97,18.87,20.3,32.64,19.95s26.44-8.14,30.67-21.42c1.16-3.65,1.61-7.51,1.54-11.33-.03-1.93-3.03-1.93-3,0h0Z"/>
      <g>
        <path class="cls-1" d="m415.98,717.82c-.21.24-.43.48-.65.71"/>
        <path class="cls-1" d="m414.92,716.76c-.21.24-.43.48-.65.71-.15.14-.25.3-.31.48-.09.18-.14.37-.13.58,0,.21.04.4.13.58.06.19.16.35.31.48l.3.23c.23.14.49.2.76.2l.4-.05c.25-.07.47-.2.66-.39.22-.23.44-.47.65-.71.15-.14.25-.3.31-.48.09-.18.14-.37.13-.58,0-.21-.04-.4-.13-.58-.06-.19-.16-.35-.31-.48l-.3-.23c-.23-.14-.49-.2-.76-.2l-.4.05c-.25.07-.47.2-.66.39h0Z"/>
      </g>
      <g>
        <path class="cls-1" d="m274.55,591.94c-.13-.08-.26-.17-.38-.25"/>
        <path class="cls-1" d="m275.31,590.65c-.13-.08-.25-.17-.38-.25-.17-.11-.36-.17-.56-.18-.2-.04-.4-.04-.6.03-.2.05-.37.14-.51.27-.16.11-.29.25-.39.42l-.15.36c-.07.27-.07.53,0,.8l.15.36c.13.23.31.4.54.54.13.08.25.17.38.25.17.11.36.17.56.18.2.04.4.04.6-.03.2-.05.37-.14.51-.27.16-.11.29-.25.39-.42l.15-.36c.07-.27.07-.53,0-.8l-.15-.36c-.13-.23-.31-.4-.54-.54h0Z"/>
      </g>
      <g>
        <path class="cls-1" d="m393.97,390.21s-.28-.2-.83-.58"/>
        <path class="cls-1" d="m394.73,388.92c-.27-.2-.55-.39-.83-.58-.17-.11-.36-.17-.56-.18-.2-.04-.4-.04-.6.03-.2.05-.37.14-.51.27-.16.11-.29.25-.39.42l-.15.36c-.07.27-.07.53,0,.8l.15.36c.13.23.31.4.54.54.28.19.56.38.83.58.17.11.36.17.56.18.2.04.4.04.6-.03.2-.05.37-.14.51-.27.16-.11.29-.25.39-.42l.15-.36c.07-.27.07-.53,0-.8l-.15-.36c-.13-.23-.31-.4-.54-.54h0Z"/>
      </g>
      <g>
        <path class="cls-1" d="m417.57,295.63c-.03-.1-.06-.21-.09-.31"/>
        <path class="cls-1" d="m419.02,295.23c-.03-.1-.06-.21-.09-.31-.05-.2-.14-.37-.27-.51-.11-.16-.25-.29-.42-.39-.17-.11-.36-.17-.56-.18-.2-.04-.4-.04-.6.03l-.36.15c-.23.13-.4.31-.54.54l-.15.36c-.07.27-.07.53,0,.8.03.1.06.21.09.31.05.2.14.37.27.51.11.16.25.29.42.39.17.11.36.17.56.18.2.04.4.04.6-.03l.36-.15c.23-.13.4-.31.54-.54l.15-.36c.07-.27.07-.53,0-.8h0Z"/>
      </g>
      <g>
        <path class="cls-1" d="m591.72,663.64c-.09-.11-.16-.21-.24-.32"/>
        <path class="cls-1" d="m592.78,662.58s-.04-.05-.06-.08l.23.3c-.06-.08-.12-.16-.18-.24-.09-.17-.22-.32-.39-.42-.14-.13-.31-.22-.51-.27-.2-.06-.4-.07-.6-.03-.2,0-.39.07-.56.18l-.3.23c-.19.19-.31.41-.39.66l-.05.4c0,.27.07.52.2.76.04.05.08.11.12.16.02.03.04.05.06.08.1.13.2.26.3.38.14.15.3.25.48.31.18.09.37.14.58.13.21,0,.4-.04.58-.13.19-.06.35-.16.48-.31l.23-.3c.14-.23.2-.49.2-.76l-.05-.4c-.07-.25-.2-.47-.39-.66h0Z"/>
      </g>
    </g>
    <path class="cls-2" d="m721.05,330.75c-.07,1.63-.36,3.36-.88,5.66-.98,4.28-2.51,8.46-5.01,12.09-7.76,11.32-24.43,10.95-35.37,4.52-8.82-5.18-13.08-14.48-13.67-24.35-.2-3.36-.89-6.67-1.63-9.95-7.43-32.74-26.92-63.18-53.27-83.86-20.91-16.41-45.97-26.58-72.06-31.17-29.91-5.26-61.91-5.16-90.93,4.49-43.13,14.34-71.08,50.97-83.94,93.31-5.14,16.92-8.07,34.47-9.51,52.08-.88,10.7-1.83,22.02-.59,32.74,2.38,20.59,10.12,41.04,19.26,59.49,12.26,24.76,29.12,47.83,51.62,64.19,23.99,17.44,54.14,20.99,79.56,35.85,24.27,14.2,40.98,36.27,46.04,64.17,2.59,14.26,3.86,30.01-1.17,43.87-4.4,12.11-13.36,22.17-23.53,29.83-19.4,14.62-44.05,23.36-68.09,26.11-20.71,2.37-41.95-4.21-59.82-14.43-24.03-13.75-42.18-36.51-45.12-64.61-3.14-29.99,9.57-57.6,34.62-74.35,22.28-14.89,49.89-20.81,76.41-19.98,9.62.3,20.15.81,29.32,4.1l-2.6-2.87c.28,2.65-.06,4.31-1.13,7.16-2.18,5.78-7.31,9.67-13.03,11.91-11.78,4.63-26.68,4.45-38.93,2.06-6.56-1.28-14.49-3.72-17.94-10.02-1.17-2.15-1.33-3.38-1.48-5.58-.04-.6.05-2.19,0-1.05.01-.25.08-.53.14-.77,1.42-5.59-8.26-4.73-9.43-.16-3.2,12.57,9.36,21.2,19.76,24.14,14.33,4.06,31.65,4.05,45.95-.11,9-2.61,17.84-7.61,22.5-16.07,2.15-3.9,3.73-8.88,3.25-13.41-.17-1.6-1.18-2.36-2.6-2.87-9.85-3.53-21.32-4.07-31.64-4.4-14.01-.44-28.04.87-41.66,4.22-26.92,6.62-53.34,20.76-68.72,44.55-16.24,25.12-17.29,59.63-3.29,85.97,12.48,23.48,35.24,39.61,59.88,48.43,20.84,7.46,41.44,7.89,62.86,2.77,25.4-6.07,51.69-17.6,69.5-37.28,8.82-9.74,15.27-21.69,17.1-34.8,2.11-15.16-.02-31.71-4.28-46.34-7.95-27.31-27.74-47.49-52.56-60.44-13.49-7.04-27.84-11.9-42.3-16.48-14.47-4.59-27.79-12.51-39.21-22.47-21.07-18.39-36.36-42.79-47.02-68.45-6.66-16.04-13-33.9-12.97-51.5.02-12.66.69-25.33,2.36-37.89,5.27-39.7,19.77-81.64,52.78-106.72,21.52-16.35,48.16-23.22,74.89-23.78,30.96-.65,62.69,4.72,90.16,19.51,33.99,18.3,59.06,50.52,69.77,87.49,1.34,4.63,2.22,7.95,2.82,12.65.83,6.46,1.13,12.49,4.3,18.44,12.75,23.93,51.89,26,64.94,1.34,3.04-5.74,4.95-12.38,5.25-18.89.24-5.22-9.45-2.89-9.66,1.88h0Z"/>
    <path class="cls-2" d="m376.14,686.66c-4.46,5.46-10.96,9.68-17.16,13-14.64,7.86-32.8,11.39-49.28,9.07-31.58-4.45-56.02-31.68-66.81-60.22-12.94-34.21-9.9-76.15,12.45-105.84,19.29-25.62,51.73-40.29,83.75-35.13,22.97,3.7,45.44,19.54,56.55,40.18,1.14,2.12,3.88,1.86,5.3.26,1.75-1.97,1.51-4.92.35-7.06-10.4-19.32-30.74-35.11-51.61-41.11-33.56-9.65-70.02,2.93-93.25,28.26-27.09,29.53-34.2,73.43-24.51,111.53,8.48,33.3,31.76,65.91,65.74,76.5,18.86,5.88,40.41,3.48,58.32-4.51,9.1-4.06,18.67-9.77,25.09-17.61,3.05-3.72-1-12.14-4.94-7.33h0Z"/>
    <path class="cls-2" d="m361.08,357.76c-17.3-12.54-38.22-21.12-58.49-27.37s-41.01-9.68-61.99-10.14c-12.45-.27-24.95.54-37.26,2.39-6.12.92-12.19,2.12-18.21,3.57-3.24.78-6.46,1.65-9.67,2.58s-8.63,1.61-11.32,3.78-3.38,8.39-4.2,11.59c-2.39,9.33-4.22,18.81-5.54,28.35-4.09,29.5-3.26,59.97,4.33,88.86,11.36,43.21,38.81,79.25,76.13,103.51,2.04,1.33,4.99,1.77,7.07.19,1.71-1.3,2.19-3.97.14-5.3-39.21-25.48-66.25-63.64-75.86-109.49-6.52-31.16-5.39-64.16,1.27-95.21,1.34-6.25,2.82-12.56,4.9-18.61l-2.36,2.18c57.33-19.21,120.84-12,173.29,17.68,3.91,2.21,6.85,3.9,10.54,6.57,3.87,2.81,12.23-1.47,7.21-5.11h0Z"/>
    <path class="cls-2" d="m243.72,417.15c25.26,25.48,50.52,50.96,75.77,76.44,3.63,3.66,7.25,7.32,10.88,10.98,3.36,3.39,12.04-1.51,8.33-5.25-25.26-25.48-50.52-50.96-75.77-76.44-3.63-3.66-7.25-7.32-10.88-10.98-3.36-3.39-12.04,1.51-8.33,5.25h0Z"/>
    <path class="cls-2" d="m379.64,269.58c6.95,17.06,18.01,34.97,33.27,45.66,6.43,4.51,13.69,7.92,20.72,11.39,10.14,5,20.36,9.82,30.44,14.92,20.72,10.47,43.33,21.93,59.18,39.35,12.96,14.25,19.82,33.98,28.55,50.88,11.3,21.87,24.73,42.86,43.32,59.28,17.01,15.02,37.85,24.1,58.44,33.06,12.71,5.53,24.68,11.49,34.11,21.95,16.97,18.82,27.68,42.82,39.55,64.9,10.28,19.11,21.07,39.2,36.41,54.81,7.65,7.79,16.73,12.68,26.1,18.04,2.44,1.39,4.83,2.86,7.17,4.41l1.5-6.08c-8.89,4.96-18.57,8.78-28.18,12.09-22.46,7.72-46.1,12.24-69.9,12.1-24.92-.14-48.63-6.29-70.61-17.96-17.27-9.17-33.06-21.19-47.31-34.54-7.21-6.76-14.3-13.9-20.39-21.71-2.94-3.76-12.08.19-8.83,4.36,17.29,22.17,40.44,41.37,64.72,55.31,21.64,12.42,45.1,20.18,70.08,21.79,25.62,1.65,51.41-1.98,75.92-9.43,13.25-4.03,26.75-8.9,38.9-15.67,1.97-1.1,4.25-4.27,1.5-6.08-8.74-5.79-18.25-9.75-26.44-16.25-13.7-10.88-23.18-26.86-31.87-41.74-14.12-24.16-25.26-50.26-41.73-73-8.88-12.27-19.49-21.9-33.07-28.67-16.65-8.29-34.38-14.33-50.36-24-22.16-13.42-38.67-33.51-51.64-55.64-10.52-17.96-18.21-37.45-28.89-55.3-11.07-18.49-30.09-30.74-48.4-41.21-19.6-11.21-40.25-20.29-60.28-30.65-8.54-4.42-16.13-9.43-22.53-16.77-7.11-8.16-12.86-17.55-17.59-27.27-.78-1.59-1.53-3.2-2.2-4.84-1.89-4.64-11.52-2.02-9.68,2.52h0Z"/>
    <path class="cls-2" d="m680.44,607.94c.82-23.08-9.86-48-30.83-59.07-10.92-5.76-23.54-7.4-35.74-6.99-5.64.19-7.73,7.84-1.16,7.62,17.66-.59,35.26,4.23,46.04,19.1,6.82,9.4,10.28,20.8,11.47,32.26.2,1.88.33,3.78.38,5.67-.02-.95,0,.89-.02,1.4-.19,5.37,9.68,4.77,9.85.02h0Z"/>
    <path class="cls-2" d="m517.88,445.18c.49-22.31-11.35-45.85-30.85-56.98-10.72-6.12-22.76-8.72-35-9.39-4.71-.26-8.14,8.81-2.35,9.13,22.42,1.23,42.86,10.83,53.06,31.58,4.24,8.63,6.81,18.83,6.61,27.94-.14,6.22,8.43,2.54,8.54-2.29h0Z"/>
    <path class="cls-2" d="m253.6,717.45c-32.2,32.2-64.4,64.4-96.6,96.6-4.56,4.56-9.12,9.12-13.67,13.67-4.1,4.1,3.97,9.29,7.31,5.96,32.2-32.2,64.4-64.4,96.6-96.6,4.56-4.56,9.12-9.12,13.67-13.67,4.1-4.1-3.97-9.29-7.31-5.96h0Z"/>
    <path class="cls-2" d="m636.21,334.84c-18.66,18.66-37.32,37.32-55.98,55.98-2.65,2.65-5.31,5.31-7.96,7.96-4.1,4.1,3.97,9.29,7.31,5.96,18.66-18.66,37.32-37.32,55.98-55.98,2.65-2.65,5.31-5.31,7.96-7.96,4.1-4.1-3.97-9.29-7.31-5.96h0Z"/>
    <path class="cls-2" d="m827.21,143.84c-16.28,16.28-32.56,32.56-48.84,48.84-25.99,25.99-51.98,51.98-77.98,77.98-6.02,6.02-12.05,12.05-18.07,18.07-4.1,4.1,3.97,9.29,7.31,5.96,16.28-16.28,32.56-32.56,48.84-48.84,25.99-25.99,51.98-51.98,77.98-77.98,6.02-6.02,12.05-12.05,18.07-18.07,4.1-4.1-3.97-9.29-7.31-5.96h0Z"/>
  </g>
</svg>