<?xml version="1.0" encoding="UTF-8"?>
<svg id="Calque_2" xmlns="http://www.w3.org/2000/svg" viewBox="0 0 717.03 701.87">
  <defs>
    <style>
      .cls-1 {
        fill: #aeccba;
      }

      .cls-2 {
        fill: #111827;
      }
    </style>
  </defs>
  <g id="_x31_00_x25__Actifs">
    <g>
      <g>
        <circle class="cls-1" cx="358.17" cy="535.66" r="44"/>
        <path class="cls-2" d="M397.26,535.95c-.26,16.38-9.68,31.8-25.4,37.58s-33.61.11-43.85-12.87c-10.19-12.92-11.8-31.17-3.7-45.57s24.86-22.11,41.14-18.76c18.53,3.81,31.52,21.01,31.81,39.61.08,5.37,9.9,4.17,9.83-.59-.31-20.15-12.84-38.4-32.16-44.9-19.42-6.53-41.44-.4-54.6,15.32-12.91,15.41-14.59,37.91-4.09,55.05,10.58,17.27,31.48,25.5,51.12,21.68,22.49-4.38,39.37-24.23,39.73-47.15.08-5.36-9.75-4.19-9.83.59Z"/>
      </g>
      <g>
        <circle class="cls-1" cx="292.17" cy="451.66" r="34"/>
        <path class="cls-2" d="M321.81,452.38c-.25,12.25-7.03,23.14-18.86,27.26s-25.6-.23-33.55-9.97-9.18-23.78-2.6-34.38,19.48-15.23,31.42-12.32c14.14,3.45,23.32,16.25,23.6,30.5.05,2.51,3.13,2.96,4.94,2.26,2.43-.94,3.81-3.36,3.76-5.87-.32-15.95-10.83-30.45-26.27-35.03-15.33-4.54-32,1.19-41.85,13.65-9.78,12.37-11.65,30.28-3.2,43.89,8.32,13.4,24.49,20.33,39.94,16.85,17.81-4.02,31.01-19.99,31.38-38.26.13-6.23-8.62-3.44-8.72,1.43Z"/>
      </g>
      <g>
        <path class="cls-1" d="M448.61,427.96c-6.6,7.77-16.45,12.7-27.44,12.7-19.88,0-36-16.12-36-36,0-10.99,4.93-20.84,12.7-27.44l50.74,50.74Z"/>
        <path class="cls-2" d="M445.77,424.19c-12,13.57-33.24,15.51-46.89,3.19-13.69-12.36-12.47-33.73,1.07-45.71l-3.85-.41,50.74,50.74c1.7,1.7,4.24.72,5.16-1.22,1.12-2.36.09-5.16-1.63-6.88l-50.74-50.74c-.88-.88-2.82-1.31-3.85-.41-17.55,15.52-19.27,42.84-3.09,60.1,16.12,17.21,43.23,16.41,58.75-1.13,3.12-3.53-1.83-11.87-5.67-7.53Z"/>
      </g>
      <path class="cls-2" d="M462.61,227.67c-26.51,26.51-53.02,53.02-79.53,79.53-42.17,42.17-84.35,84.35-126.52,126.52-9.57,9.57-19.14,19.14-28.71,28.71l5.76-.53c-11.5-11.5-22.99-22.99-34.49-34.49-23.82-23.82-47.64-47.64-71.45-71.46-20.08-20.08-40.15-40.15-60.23-60.23-3.74-3.74-7.5-7.48-11.23-11.23-16.41-16.53-29.35-36.15-37.56-57.97C1.14,180.02,6.12,126.69,32.54,84.53,62.87,36.15,117.99,7.39,174.96,9.37c43.36,1.51,82.4,20.68,112.77,51.05,16.77,16.77,33.54,33.54,50.31,50.31l73.19,73.19c15.98,15.98,31.96,31.96,47.94,47.94.81.81,1.61,1.61,2.42,2.42,3.8,3.8,10.14-3.78,6.78-7.14-11.98-11.98-23.95-23.95-35.93-35.93-24.38-24.38-48.75-48.75-73.13-73.13-19.85-19.85-39.71-39.71-59.56-59.56-4.35-4.35-8.63-8.78-13.12-12.97-21.31-19.87-47.42-34.1-75.78-40.93-56.48-13.61-117.06,3.41-158.67,43.79C15.41,84.1-3.79,135.54.62,186.59c3.53,40.84,21.94,78.18,50.8,107.04,16.2,16.2,32.41,32.41,48.61,48.61,24.83,24.83,49.67,49.67,74.5,74.5,16.6,16.6,33.19,33.19,49.79,49.79.84.84,1.67,1.67,2.51,2.51,1.77,1.77,4.11,1.12,5.76-.53,26.51-26.51,53.02-53.02,79.53-79.53,42.17-42.17,84.35-84.35,126.52-126.52,9.57-9.57,19.14-19.14,28.71-28.71,4.03-4.03-.11-10.71-4.74-6.07Z"/>
      <path class="cls-2" d="M401.79,374.6c-10.4-10.4-20.8-20.8-31.2-31.2-3.33-3.33-11.94,1.14-7.84,5.24,10.4,10.4,20.8,20.8,31.2,31.2,3.33,3.33,11.94-1.14,7.84-5.24h0Z"/>
      <path class="cls-2" d="M370.14,117.59c14.28-14.28,28.55-28.55,42.83-42.83,17.81-17.81,34.91-35.56,57.44-47.63,33.81-18.11,74.17-23.18,111.48-14.42,39.73,9.33,74.74,33.69,97.65,67.44,24.95,36.75,33.67,83.58,23.89,126.88-7.08,31.35-23.28,58.76-45.89,81.38l-88.61,88.61c-28.27,28.27-56.55,56.55-84.82,84.82l-1.45,1.45,7.67-.38-37.51-37.51c-3.37-3.37-12.11,1.43-8.39,5.15l37.51,37.51c2.05,2.05,5.7,1.59,7.67-.38,25.24-25.24,50.48-50.48,75.72-75.72,32.28-32.28,64.56-64.56,96.84-96.84,19.71-19.71,35.73-41.93,45.17-68.41,14.97-42,12.57-89.56-6.77-129.76-18.54-38.54-51.56-69.08-91.38-84.63-36.32-14.18-77.16-15.24-114.3-3.52-29.64,9.35-54.05,26.81-75.8,48.55-17.22,17.22-34.44,34.44-51.66,51.66-1.41,1.41-2.81,2.81-4.22,4.22-4.62,4.62,3.27,8.05,6.94,4.38h0Z"/>
      <g>
        <circle class="cls-1" cx="473.17" cy="510.66" r="25"/>
        <path class="cls-2" d="M494.13,511.4c-.31,11.4-9.46,20.03-20.99,19.48-11.11-.53-20.7-9.68-20.93-20.97-.23-11.44,9.88-19.99,20.99-19.48,11.17.51,20.63,9.7,20.93,20.97.18,6.51,8.22,3.74,8.07-1.49-.33-12.14-7-23.31-18.83-27.42s-24.51.1-32.2,9.53c-7.72,9.48-9.47,23.48-3.27,34.2,6.07,10.51,18.38,16.13,30.31,13.55,13.93-3.02,23.61-15.86,23.99-29.87.18-6.53-7.93-3.71-8.07,1.49Z"/>
      </g>
      <g>
        <circle class="cls-1" cx="343.17" cy="666.66" r="31"/>
        <path class="cls-2" d="M369.6,667.8c-.32,14.58-11.77,26.33-26.64,25.56s-26.22-13.4-26.22-27.85,11.96-26.32,26.64-25.56,25.9,13.4,26.22,27.85c.13,5.77,9.25,2.43,9.15-2.29-.32-14.69-9.35-27.64-23.4-32.36-14.08-4.74-30.23.51-39.51,11.93s-10.92,27.7-3.27,40.47,23.03,18.65,37.33,15.48c16.59-3.68,28.48-18.69,28.85-35.52.13-5.74-9.04-2.42-9.15,2.29Z"/>
      </g>
      <g>
        <circle class="cls-1" cx="488.17" cy="608.66" r="36"/>
        <path class="cls-2" d="M520.43,608.46c-.54,28.85-37.4,41.57-56.54,20.44-8.91-9.83-10.49-24.53-3.59-35.9s20.2-16.92,33.04-14.94c14.89,2.3,26.8,15.23,27.08,30.4.12,6.15,7.61,6.69,7.49.4-.32-16.86-9.77-32.72-26-38.73-15.72-5.82-33.72-.76-44.23,12.27-10.79,13.38-12.16,32.56-3.65,47.44s25.26,22.16,41.64,19.05c18.96-3.61,31.89-21.2,32.25-40.03.12-6.19-7.37-6.67-7.49-.4Z"/>
      </g>
    </g>
  </g>
</svg>