<?xml version="1.0" encoding="UTF-8"?>
<svg xmlns="http://www.w3.org/2000/svg" viewBox="0 0 977.95 979.65">
  <defs>
    <style>
      .cls-1 {
        stroke-width: 0px;
      }
    </style>
  </defs>
  <g id="Cercle">
    <path class="cls-1" d="m970,490.85c-.07,50.32-7.77,100.64-23.43,148.49-15.1,46.14-37.2,89.86-65.42,129.37-27.94,39.12-61.74,73.93-99.93,103.12-38.54,29.45-81.72,53.03-127.34,69.52-46.93,16.97-96.45,26.56-146.32,28.34-50.63,1.8-101.56-4.17-150.28-18.11-46.78-13.39-91.48-33.91-132.15-60.62-40.22-26.42-76.42-59.03-107.1-96.09-30.86-37.28-56.02-79.3-74.4-124.07-18.93-46.08-30.52-95.25-34.28-144.92-3.83-50.69.24-101.88,12.3-151.27,11.52-47.18,30.35-92.6,55.61-134.07,25.03-41.09,56.17-78.33,92.18-110.24,36.15-32.03,77.12-58.52,121.14-78.41,45.15-20.39,93.53-33.57,142.74-39.19,50.64-5.79,102.31-3.43,152.24,6.76,48.08,9.82,94.61,27.24,137.45,51.15,42.1,23.5,80.56,53.39,113.86,88.25,33.36,34.91,61.38,74.79,82.94,118,22.02,44.15,37.07,91.65,44.61,140.4,3.77,24.35,5.55,48.96,5.59,73.59,0,6.54,7.96,3.11,7.95-2.05-.07-51.36-7.98-102.68-23.9-151.53-15.29-46.92-37.65-91.46-66.28-131.66-28.45-39.95-62.78-75.63-101.76-105.42-39.09-29.87-82.65-53.88-128.88-70.74S558.53,2.13,507.56.31c-51.52-1.84-103.38,4.38-152.93,18.64s-92.94,34.64-134.16,61.94c-40.76,27-77.35,60.01-108.48,97.71-31.45,38.1-57.11,81.04-75.76,126.78S5.36,402.4,1.45,453.08c-3.96,51.44.19,103.57,12.35,153.71,11.74,48.42,31.01,95.04,56.87,137.63,25.35,41.74,56.97,79.7,93.48,112.13,36.79,32.68,78.56,59.84,123.41,80.1s94.82,34.13,144.73,39.84c51.56,5.89,104.11,3.56,154.95-6.9,48.96-10.07,96.35-27.83,139.93-52.3,42.64-23.95,81.71-54.36,115.4-89.81,33.95-35.73,62.48-76.44,84.42-120.58,22.3-44.87,37.62-93.25,45.21-142.78,3.82-24.92,5.71-50.11,5.75-75.32,0-6.54-7.94-3.11-7.95,2.05Z"/>
  </g>
  <g id="Sans_poisson" data-name="Sans poisson">
    <g>
      <path class="cls-1" d="m496,270.71c5.33,10.14,8.27,22.14,9.95,33.95,3.75,26.37-1.6,53.37-15.79,76.01-24.44,39-68.93,62.95-111.15,77.81-35.38,12.45-74.1,17.81-111.04,9.4-15.23-3.47-32-9.15-44.09-18.82l1.06,2.74c.25-1.14.54-2.28.83-3.41.39-1.54-.16.53.27-1.01.21-.75.41-1.51.63-2.26.53-1.86,1.08-3.72,1.66-5.56,3.56-11.45,7.87-22.66,12.72-33.62,15.75-35.55,37.55-68.61,64.57-96.61,37.84-39.22,85.36-67.43,137.44-83.25,33.71-10.24,68.85-15.32,104.01-16.63,34.98-1.3,70.43,1.06,104.48,9.55,52.63,13.12,100.73,41.21,135.01,83.63,29.68,36.72,48.2,81.4,56.56,127.68,7.15,39.55,7.61,81.31-1.9,120.52-4.48,18.47-11.98,34.82-22.04,50.51-21.14,32.95-49.26,61.08-80.91,83.97-26.02,18.82-54.33,34.51-83.89,47.02-13.39,5.67-27.21,10.22-40.6,15.89-16.88,7.15-33.25,15.67-48.03,26.57s-27.54,23.67-37.64,38.76c-5.31,7.94-9.87,16.43-13.61,25.22-3.06,7.2-4.97,15.26-10.41,21.17-7.54,8.2-18.68,6.41-27.44,1.16-11.49-6.9-20.06-18.67-24.86-31.03-5.54-14.26-5.85-30.03-.05-44.23.61-1.48.17-3.86-1.67-4.3-12.99-3.08-26.86-8.1-37.48-16.32-4.81-3.72-12.34-11.39-9.37-18.1,1.82-4.11,11.08-6.22,15.96-7.41,11.32-2.76,22.94-4.35,34.41-6.34,14.89-2.59,29.72-5.54,44.34-9.42,29.24-7.75,57.39-19.74,82.89-36.07,39.66-25.4,69.68-62.08,81.8-108.03,6.6-25.02,9.49-52.83,5.53-78.52-3.55-23.03-13.83-44.34-29.26-61.74-31.82-35.88-81.22-52.97-127.98-56.58-6.11-.47-12.24-.69-18.37-.71-2.44,0-5.16,1.18-6.06,3.64-.74,2,.28,4.54,2.73,4.55,47.47.13,98.07,13.62,133.5,46.62,17.04,15.87,29.38,36.33,34.55,59.11,5.75,25.35,3.36,53.26-2.41,78.41-10.73,46.81-40.82,83.91-81.21,108.91-26.2,16.22-54.89,27.57-84.81,34.79-14.33,3.46-28.87,5.99-43.4,8.46-10.66,1.81-21.48,3.42-31.87,6.48-6.59,1.94-13.99,4.8-17.95,10.78s-2.15,14.3,1.94,19.97c9.62,13.31,28.03,19.89,43.24,24.2,1.27.36,2.54.71,3.82,1.02l-1.67-4.3c-11.41,27.92-1.4,62.65,23.01,80.52,9.42,6.9,21.64,10.98,33.04,6.69,15.52-5.83,19.37-21.59,25.49-35.22,16.03-35.72,46.21-60.54,81.09-76.85,14.58-6.82,29.85-11.81,44.74-17.88,13.9-5.67,27.55-12.02,40.84-18.99,32.41-17,62.99-38.01,89.49-63.32,24.13-23.05,47.2-50.69,60.59-81.55,15.19-35,18.12-75.42,15.81-113.08-2.89-46.96-15.73-93.85-39.27-134.72-26.48-45.97-66.77-82.34-115.32-103.77-63.98-28.24-138.32-31.13-206.64-20.53-60.81,9.43-119.04,32.86-167.1,71.66-35.03,28.28-63.64,63.95-84.89,103.55-11.55,21.54-21.29,44.44-27.38,68.16-.29,1.13-.58,2.27-.83,3.41-.2.95.32,2.15,1.06,2.74,11.12,8.9,25.85,14.42,39.37,18.18,35.75,9.94,73.67,7.17,109.05-2.96,26.22-7.5,51.79-18.89,75.04-33.12,18.78-11.49,36.19-25.59,49.81-42.98,18.73-23.9,28.23-53.39,26.32-83.7-.97-15.34-4.45-31.86-11.67-45.59-2.31-4.39-10.91.7-8.57,5.15h0Z"/>
      <path class="cls-1" d="m91.3,340.1c-3.71,13.13-3.93,27.97-1.76,41.33,4.6,28.36,23.99,49.59,50.91,59,26.1,9.13,54.77,8.89,81.94,6.06,2.2-.23,5.14-1.38,5.38-3.97.22-2.36-2.32-3.91-4.46-3.68-35.9,3.74-83.85,4.37-109.38-26.31-13.53-16.26-17.32-37.97-15.24-58.55.48-4.74,1.16-9.58,2.46-14.18,1.4-4.94-8.55-4.28-9.84.29h0Z"/>
      <path class="cls-1" d="m54.73,449.29c18.62,1.35,32.77,15.03,47.61,24.84,19.13,12.65,40.14,17.6,62.68,11.76,20.6-5.34,39.27-16.7,56.45-28.93,2.03-1.45,3.11-4.07,2.4-6.54-.53-1.87-2.71-4.05-4.79-2.58-24.24,17.25-55.18,36.16-86.33,29.4-18.93-4.11-33.12-17.57-49-27.66-8.33-5.29-17.5-9.45-27.45-10.17-5-.36-6.5,9.52-1.57,9.88h0Z"/>
      <path class="cls-1" d="m556.16,396.85c-2.02,11.47-5.65,22.82-9.75,33.69-8.57,22.72-20.95,44.41-38.78,61.13-4.76,4.47,3.34,7.66,7.08,4.16,18.37-17.23,31.22-39.48,40.29-62.79,4.49-11.54,8.43-23.63,10.58-35.85,1-5.71-8.6-4.99-9.42-.33h0Z"/>
      <path class="cls-1" d="m577.64,403.14c-1.17,13.86-2.17,27.74-3.06,41.62-1.28,19.93-3.06,40.24-1.96,60.22.31,5.67,8.03,7.3,7.67.74-1.08-19.54.65-39.38,1.91-58.87.87-13.5,1.85-26.99,2.98-40.47.2-2.32-.61-5.34-3.04-6.28-2.16-.83-4.32.76-4.51,3.04h0Z"/>
      <path class="cls-1" d="m578.74,573.53c12.38-7.81,23.99-17.13,34.89-26.86,20.18-18,38.86-39,49.22-64.28,1.85-4.5-7.8-7.08-9.7-2.43-10.1,24.64-29.02,45.19-48.78,62.54-10.38,9.11-21.38,17.87-33.08,25.25-4.78,3.02,3.52,8.26,7.46,5.77h0Z"/>
      <path class="cls-1" d="m588.89,621.42c25.68-23.99,47.63-54.39,62.29-86.23,6.56-14.24,11.62-29.1,14.28-44.57.85-4.94-8.86-7.33-9.7-2.45-7.83,45.47-35.43,86.64-66.63,119.71-2.5,2.64-5.03,5.27-7.69,7.75-4.24,3.96,3.99,9.01,7.44,5.78h0Z"/>
      <path class="cls-1" d="m643.28,623.5c8.99.7,17.94,2.96,25.58,7.89,5.72,3.69,10.31,8.63,15.01,13.49,4.96,5.12,10.18,10.1,16.45,13.6,8.28,4.62,17.48,6.53,26.88,7.07,18.52,1.08,37.24-2.84,55.11-7.24,4.86-1.2,3.8-11.12-.93-9.96-16.52,4.07-33.59,7.59-50.69,7.39-9.27-.11-18.9-1.56-27.13-6.07-12.34-6.77-19.78-19.41-31.48-27.07-8.93-5.84-19.2-8.24-29.73-9.06-4.82-.38-4.07,9.57.93,9.96h0Z"/>
      <path class="cls-1" d="m662.28,554.54c28.82,3.49,57.97,5.57,87.01,4.33,26.91-1.15,56.3-4.5,79.94-18.48,11.41-6.75,21.12-16.21,26.45-28.5,2.59-5.97-5.01-7.75-7.3-2.47-9.28,21.36-32.76,30.47-54.03,35.2-27.72,6.17-56.72,6.28-84.95,4.79-14.93-.79-29.81-2.17-44.65-3.97-4.68-.57-8.25,8.4-2.48,9.1h0Z"/>
      <path class="cls-1" d="m656.41,481.06c17.48-.81,35.15-5.31,51.53-11.19,33.77-12.12,64.33-33.88,83.37-64.68,14.45-23.37,21.73-50.01,23.99-77.26.41-4.94-9.58-5.3-10-.29-3.56,43.09-21.22,83.75-55.92,110.63-22.16,17.17-48.93,28.01-76.4,33.08-4.21.78-8.44,1.42-12.7,1.88-1.21.13-2.41.24-3.62.34.08,0,1.25-.07-.04,0-6.14.29-6.5,7.79-.22,7.5h0Z"/>
      <path class="cls-1" d="m604.35,418.04c13.28-7.1,25.3-17.74,35.56-28.6,23.27-24.61,38.9-55.81,43.59-89.45,3.76-26.94.8-54.23-6.31-80.38-1.31-4.84-11.2-3.46-9.92,1.25,11.14,41,11.52,85.05-7.22,123.92-11.16,23.15-28.52,44-48.82,59.09-4.05,3.01-8.24,5.98-12.7,8.36-5.76,3.08,1.31,8.2,5.82,5.79h0Z"/>
      <g>
        <circle class="cls-1" cx="403.8" cy="339.96" r="20.31"/>
        <path class="cls-1" d="m419.74,340.56c-.3,8.76-6.37,15.78-15.59,15.28s-16.18-8.15-16.22-17.03,7.4-15.5,16.22-14.66,15.28,8.65,15.57,17.51c.19,5.67,8.96,1.28,8.8-3.39-.46-13.52-11.89-23.98-25.46-22.94-13.13,1-23.91,12.65-23.96,25.79s10.9,23.85,24.06,23.54c13.57-.32,24.88-11.8,25.34-25.29.21-6.23-8.59-3.66-8.76,1.21Z"/>
      </g>
    </g>
    <path class="cls-1" d="m504.65,468.38c-11.9,11.9-23.81,23.81-35.71,35.71-28.71,28.71-57.42,57.42-86.13,86.13-34.62,34.62-69.23,69.23-103.85,103.85-29.92,29.92-59.85,59.85-89.77,89.77-14.56,14.56-29.14,29.09-43.67,43.67-.21.21-.42.42-.62.62-1.73,1.73-2.86,4.44-1.78,6.84.87,1.92,3.4,3.07,5.13,1.33,11.9-11.9,23.81-23.81,35.71-35.71,28.71-28.71,57.42-57.42,86.13-86.13,34.62-34.62,69.23-69.23,103.85-103.85,29.92-29.92,59.85-59.85,89.77-89.77,14.56-14.56,29.14-29.09,43.67-43.67.21-.21.42-.42.62-.62,1.73-1.73,2.86-4.44,1.78-6.84-.87-1.92-3.4-3.07-5.13-1.33h0Z"/>
    <path class="cls-1" d="m829.71,143.32c-23.9,23.9-47.8,47.8-71.7,71.7l-10.26,10.26c-1.73,1.73-2.86,4.44-1.78,6.84.87,1.92,3.4,3.07,5.13,1.33,23.9-23.9,47.8-47.8,71.7-71.7l10.26-10.26c1.73-1.73,2.86-4.44,1.78-6.84-.87-1.92-3.4-3.07-5.13-1.33h0Z"/>
  </g>
</svg>