<?xml version="1.0" encoding="UTF-8"?>
<svg xmlns="http://www.w3.org/2000/svg" viewBox="0 0 977.95 979.65">
  <defs>
    <style>
      .cls-1 {
        fill: #e6e6e6;
      }

      .cls-1, .cls-2 {
        stroke-width: 0px;
      }
    </style>
  </defs>
  <g id="Cercle">
    <path class="cls-2" d="m970,490.85c-.07,50.32-7.77,100.64-23.43,148.49-15.1,46.14-37.2,89.86-65.42,129.37-27.94,39.12-61.74,73.93-99.93,103.12-38.54,29.45-81.72,53.03-127.34,69.52-46.93,16.97-96.45,26.56-146.32,28.34-50.63,1.8-101.56-4.17-150.28-18.11-46.78-13.39-91.48-33.91-132.15-60.62-40.22-26.42-76.42-59.03-107.1-96.09-30.86-37.28-56.02-79.3-74.4-124.07s-30.52-95.25-34.28-144.92.24-101.88,12.3-151.27c11.52-47.18,30.35-92.6,55.61-134.07,25.03-41.09,56.17-78.33,92.18-110.24,36.15-32.03,77.12-58.52,121.14-78.41,45.15-20.39,93.53-33.57,142.74-39.19,50.64-5.79,102.31-3.43,152.24,6.76,48.08,9.82,94.61,27.24,137.45,51.15,42.1,23.5,80.56,53.39,113.86,88.25,33.36,34.91,61.38,74.79,82.94,118,22.02,44.15,37.07,91.65,44.61,140.4,3.77,24.35,5.55,48.96,5.59,73.59,0,6.54,7.96,3.11,7.95-2.05-.07-51.36-7.98-102.68-23.9-151.53-15.29-46.92-37.65-91.46-66.28-131.66-28.45-39.95-62.78-75.63-101.76-105.42-39.09-29.87-82.65-53.88-128.88-70.74S558.53,2.13,507.56.31c-51.52-1.84-103.38,4.38-152.93,18.64-47.51,13.67-92.94,34.64-134.16,61.94-40.76,27-77.35,60.01-108.48,97.71-31.45,38.1-57.11,81.04-75.76,126.78S5.36,402.4,1.45,453.08c-3.96,51.44.19,103.57,12.35,153.71,11.74,48.42,31.01,95.04,56.87,137.63,25.35,41.74,56.97,79.7,93.48,112.13,36.79,32.68,78.56,59.84,123.41,80.1s94.82,34.13,144.73,39.84c51.56,5.89,104.11,3.56,154.95-6.9s96.35-27.83,139.93-52.3c42.64-23.95,81.71-54.36,115.4-89.81,33.95-35.73,62.48-76.44,84.42-120.58,22.3-44.87,37.62-93.25,45.21-142.78,3.82-24.92,5.71-50.11,5.75-75.32,0-6.54-7.94-3.11-7.95,2.05Z"/>
  </g>
  <g id="Sans_additifs" data-name="Sans additifs">
    <path class="cls-1" d="m257.25,278.49c2.9-3.09,6.26-5.73,10.01-7.7,25.34-13.34,57.42-9.36,78.73,11.96l52.62,52.62c13.45,13.45,35.25,13.45,48.7,0h0c8.66-8.66,22.71-8.66,31.37,0l30.44,30.44c8.66,8.66,8.66,22.71,0,31.37l-26.31,26.31s216.55,216.55,241.05,241.05,28,43,28,61,41.5,36.5,16,62l.2-.19c-25.5,25.5-44-16-62-16s-36.5-3.5-61-28-241.05-241.05-241.05-241.05l-26.31,26.31c-8.66,8.66-22.7,8.65-31.35-.02l-30.49-30.58c-8.6-8.63-8.59-22.6.02-31.21h0c13.41-13.41,13.43-35.15.04-48.59-22.52-22.59-52.66-52.73-52.66-52.73-21.39-21.39-25.33-53.63-11.8-79.02,1.55-2.91,3.53-5.57,5.79-7.98h0Z"/>
    <path class="cls-2" d="m436.47,537.45c-9.64,9.64-19.28,19.28-28.92,28.92-23.15,23.15-46.3,46.3-69.44,69.44-27.88,27.88-55.77,55.77-83.65,83.65-24.22,24.22-48.45,48.45-72.67,72.67-11.74,11.74-24.21,23.08-35.38,35.38-.16.18-.34.34-.51.51-3.3,3.3.22,12.45,4.25,8.42,9.64-9.64,19.28-19.28,28.92-28.92,23.15-23.15,46.3-46.3,69.44-69.44,27.88-27.88,55.77-55.77,83.65-83.65,24.22-24.22,48.45-48.45,72.67-72.67,11.74-11.74,24.21-23.08,35.38-35.38.16-.18.34-.34.51-.51,3.3-3.3-.22-12.45-4.25-8.42h0Z"/>
    <path class="cls-2" d="m830.71,143.2l-28.79,28.79c-23.05,23.05-46.11,46.11-69.16,69.16-27.9,27.9-55.79,55.79-83.69,83.69-24.13,24.13-48.26,48.26-72.39,72.39-11.7,11.7-24.15,22.98-35.25,35.25-.16.18-.34.34-.51.51-3.3,3.3.22,12.45,4.25,8.42l28.79-28.79c23.05-23.05,46.11-46.11,69.16-69.16,27.9-27.9,55.79-55.79,83.69-83.69,24.13-24.13,48.26-48.26,72.39-72.39,11.7-11.7,24.15-22.98,35.25-35.25.16-.18.34-.34.51-.51,3.3-3.3-.22-12.45-4.25-8.42h0Z"/>
    <path class="cls-2" d="m245.75,248.91c13.01-13.33,34.54-16.55,52.17-12.81,13.2,2.8,24.3,9.92,33.73,19.34,14.49,14.49,28.98,28.98,43.47,43.47,5.99,5.99,11.63,12.27,19.73,15.46,7.39,2.91,15.69,3.46,23.38,1.45,3.9-1.02,7.69-2.66,11.08-4.85,3.63-2.34,6.41-5.79,10.08-8,7.48-4.5,16.87-2.66,23.01,3.15,2.24,2.12,4.37,4.37,6.56,6.56l22.27,22.27c4.79,4.79,8.16,10.69,6.66,17.75-1.08,5.09-4.66,8.24-8.14,11.72l-22.2,22.2c-1.82,1.82-3.22,5.44-1.05,7.61,11.05,11.05,22.1,22.1,33.15,33.15,25.07,25.07,50.14,50.14,75.21,75.21l80.93,80.93c16.77,16.77,33.54,33.54,50.31,50.31,8.3,8.3,16.07,17.18,21.41,27.73,5.04,9.95,6.58,20.18,6.97,31.18.31,8.73,5.46,15.3,10.78,21.82,5.36,6.56,13.04,14.25,13.5,23.24.26,5.09-2.77,9.38-6.16,12.88-1.62,1.67-2.93,4.51-1.65,6.77,1.17,2.07,3.77,2.09,5.41.52l.2-.19-3.76-7.3c-8.06,7.8-16.54,8.88-26.12,3.13-8.01-4.8-14.35-11.92-22.33-16.76-7.82-4.74-16.62-3.14-25.3-4.61-12.77-2.16-24.27-8.57-34.19-16.72-8.59-7.05-16.26-15.35-24.11-23.21l-28.66-28.66c-26.32-26.32-52.64-52.64-78.96-78.96-26.12-26.12-52.23-52.23-78.35-78.35-9.08-9.08-18.16-18.16-27.24-27.24-4.38-4.38-8.58-9.45-13.38-13.38-.21-.17-.4-.4-.59-.59-1.31-1.31-3.58-.92-4.81.31-5.32,5.32-10.64,10.64-15.96,15.96-5.82,5.82-12.04,14.29-20.67,15.52-10.52,1.5-16.83-6.1-23.41-12.71-6.78-6.8-13.57-13.61-20.35-20.41-2.25-2.26-4.61-4.4-6.15-7.25-3.68-6.83-2.39-14.21,2.68-19.84,9.86-10.96,14.5-25.75,9.89-40.18-2.33-7.3-6.64-12.81-11.98-18.17-5.95-5.97-11.9-11.93-17.85-17.89-9.48-9.5-18.97-18.99-28.46-28.48-9.4-9.4-17.01-19.67-20.33-32.81-4.04-16.04-2.27-37.61,9.59-50.25,1.6-1.7,2.94-4.49,1.65-6.77-1.12-1.98-3.84-2.2-5.41-.52-22.79,24.28-19.57,65.65.86,90.11,6.24,7.47,13.7,14.08,20.56,20.95,12.38,12.39,25.41,24.39,37.21,37.32,5.49,6.02,8.42,14.11,7.9,22.25s-4.65,13.67-9.73,19.66c-9.26,10.93-8.76,27.04,1.19,37.26,6.37,6.54,12.89,12.93,19.33,19.39,5.97,5.99,12.2,14.12,20.51,16.8s17.35.98,24.2-4.41c2.89-2.27,5.39-5.12,7.98-7.71,6.84-6.84,13.67-13.67,20.51-20.51l-4.81.31c11.5,11.5,22.99,22.99,34.49,34.49,25.74,25.74,51.48,51.48,77.22,77.22,27.32,27.32,54.64,54.64,81.96,81.96,16.48,16.48,32.71,33.27,49.49,49.45,10.05,9.7,21.69,18.48,35.07,22.95,5.08,1.7,10.36,2.82,15.68,3.37,4.33.44,9.19-.26,13.36.96,8.49,2.5,15.2,10.54,22.15,15.63s15.83,9.84,25.11,7.48c5.55-1.41,10.27-4.84,14.33-8.77,3.66-3.55.98-11.82-3.76-7.3l-.2.19,3.76,7.3c7.48-7.73,12.59-17.67,9.38-28.57-2.73-9.28-9.63-16.55-15.56-23.91-2.64-3.28-5.53-6.79-7-10.8s-.74-8.6-1.11-12.72c-1.04-11.66-4.73-22.74-10.9-32.7-7.67-12.37-18.21-22.35-28.42-32.56-9.16-9.16-18.32-18.32-27.49-27.49-26.53-26.53-53.07-53.07-79.6-79.6-26.88-26.88-53.76-53.76-80.64-80.64-9.44-9.44-18.88-18.88-28.32-28.32-4.4-4.4-8.71-10-13.72-13.72-.23-.17-.43-.43-.63-.63l-1.05,7.61,20.51-20.51c2.86-2.86,6.1-5.67,8.56-8.91,5.35-7.03,7.29-16.57,4.7-25.05-2.98-9.74-12.57-16.98-19.53-23.94-4.23-4.23-8.46-8.46-12.7-12.7-2.78-2.78-5.46-5.79-8.79-7.95-7.14-4.64-16.28-5.19-24.04-1.78-3.74,1.64-6.55,4.24-9.57,6.9-3.81,3.36-8.41,5.64-13.37,6.73-12.89,2.83-23.43-3.03-32.19-11.8-15.36-15.36-30.72-30.72-46.08-46.08-10.58-10.58-22.45-18.57-37.24-22.01-20.06-4.66-44.81-.35-59.58,14.79-1.63,1.67-2.93,4.51-1.65,6.77,1.14,2.02,3.81,2.16,5.41.52Z"/>
    <path class="cls-2" d="m564.07,643.74c8.17-7.98,17.9-13.31,29.13-15.5,9.52-1.86,19.33-1.59,28.98-1.88,9.8-.3,19.69-1.17,29.06-4.22,11.46-3.73,21.3-10.6,29.85-18.97,3.72-3.64.23-11.48-4.44-6.9-8.95,8.76-19.4,15.12-31.65,18.02-9.67,2.29-19.71,2.28-29.6,2.5s-19.01.71-28.16,3.31c-10.63,3.03-19.77,9.07-27.62,16.74-3.72,3.63-.23,11.47,4.44,6.9h0Z"/>
    <path class="cls-2" d="m474.96,358.03c-19.01,19.01-38.03,38.03-57.04,57.04-13.42,13.42-26.84,26.84-40.26,40.26-6.48,6.48-12.74,13.38-19.54,19.54-8.44,7.64-15.39-.75-21.24-6.6-5.23-5.23-15.28-12.24-16.29-20.12-1.24-9.69,11.34-18.46,17.38-24.5,26.36-26.36,52.73-52.73,79.09-79.09,7.72-7.72,15.35-15.54,23.17-23.17,5.99-5.85,12.24-3.6,17.51,1.67,5.6,5.6,11.51,11.02,16.86,16.86,4.78,5.22,5.25,12.76.35,18.12-4.21,4.6,4.39,7.99,7.67,4.4,5.03-5.5,7.24-12.74,4.73-19.96-1.45-4.17-4.35-7.07-7.37-10.1-5.98-5.98-11.69-13.02-18.48-18.11-8.89-6.67-21.11-4.89-28.82,2.61-2.9,2.81-5.71,5.71-8.57,8.57l-82.77,82.77c-8.21,8.21-16.65,16.25-24.66,24.66s-8.14,19.44-.45,27.69c5.73,6.15,11.89,11.98,17.88,17.88,8.89,8.76,22.25,9.54,31.61.89,2.12-1.96,4.1-4.1,6.14-6.14,11.85-11.85,23.69-23.69,35.54-35.54,24.6-24.6,49.48-48.95,73.81-73.81.46-.47.93-.93,1.4-1.4,4.4-4.4-4.24-7.82-7.67-4.4Z"/>
    <path class="cls-2" d="m313.32,266.68c14.55,14.55,29.1,29.1,43.65,43.65,5.48,5.48,12.13,10.76,16.89,16.89,3.23,4.16.5,6.82-2.27,9.6l-11.51,11.51-25.37,25.37c-2.68,2.68-4.61,3.81-8.26.63-2.16-1.88-4.1-4.1-6.13-6.13-16.89-16.89-33.79-33.79-50.68-50.68-2.67-2.67-5.34-5.24-7.48-8.39-6.35-9.33-7.92-21.39-3.95-31.97,8.75-23.4,38.1-26.85,55.12-10.47,3.41,3.28,10.86-3.21,6.98-6.94-16.2-15.6-41.86-15.43-58.66-.82-16.2,14.09-20,39.3-7.03,56.84,5.32,7.2,12.67,13.33,18.97,19.62l31.67,31.67,11.27,11.27c2.7,2.7,5.06,5.31,9.02,6.17,6.51,1.41,11.41-2.27,15.68-6.54l12.55-12.55c8.73-8.73,17.72-17.27,26.22-26.22,5.25-5.53,6.47-12.98.93-18.83-1.78-1.88-3.67-3.67-5.5-5.5-18.37-18.37-36.75-36.75-55.12-55.12-3.34-3.34-10.79,3.13-6.98,6.94Z"/>
  </g>
</svg>