<?xml version="1.0" encoding="UTF-8"?>
<svg xmlns="http://www.w3.org/2000/svg" xmlns:xlink="http://www.w3.org/1999/xlink" viewBox="0 0 977.95 979.65">
  <defs>
    <style>
      .cls-1 {
        fill: #e6e6e6;
      }

      .cls-1, .cls-2, .cls-3 {
        stroke-width: 0px;
      }

      .cls-3 {
        fill: none;
      }

      .cls-4 {
        clip-path: url(#clippath);
      }
    </style>
    <clipPath id="clippath">
      <rect class="cls-3" x="217.98" y="200.55" width="542" height="578.54"/>
    </clipPath>
  </defs>
  <g id="Cercle">
    <path class="cls-2" d="m970,490.85c-.07,50.32-7.77,100.64-23.43,148.49-15.1,46.14-37.2,89.86-65.42,129.37-27.94,39.12-61.74,73.93-99.93,103.12-38.54,29.45-81.72,53.03-127.34,69.52-46.93,16.97-96.45,26.56-146.32,28.34-50.63,1.8-101.56-4.17-150.28-18.11-46.78-13.39-91.48-33.91-132.15-60.62-40.22-26.42-76.42-59.03-107.1-96.09-30.86-37.28-56.02-79.3-74.4-124.07s-30.52-95.25-34.28-144.92.24-101.88,12.3-151.27c11.52-47.18,30.35-92.6,55.61-134.07,25.03-41.09,56.17-78.33,92.18-110.24,36.15-32.03,77.12-58.52,121.14-78.41,45.15-20.39,93.53-33.57,142.74-39.19,50.64-5.79,102.31-3.43,152.24,6.76,48.08,9.82,94.61,27.24,137.45,51.15,42.1,23.5,80.56,53.39,113.86,88.25,33.36,34.91,61.38,74.79,82.94,118,22.02,44.15,37.07,91.65,44.61,140.4,3.77,24.35,5.55,48.96,5.59,73.59,0,6.54,7.96,3.11,7.95-2.05-.07-51.36-7.98-102.68-23.9-151.53-15.29-46.92-37.65-91.46-66.28-131.66-28.45-39.95-62.78-75.63-101.76-105.42-39.09-29.87-82.65-53.88-128.88-70.74S558.53,2.13,507.56.31c-51.52-1.84-103.38,4.38-152.93,18.64-47.51,13.67-92.94,34.64-134.16,61.94-40.76,27-77.35,60.01-108.48,97.71-31.45,38.1-57.11,81.04-75.76,126.78S5.36,402.4,1.45,453.08c-3.96,51.44.19,103.57,12.35,153.71,11.74,48.42,31.01,95.04,56.87,137.63,25.35,41.74,56.97,79.7,93.48,112.13,36.79,32.68,78.56,59.84,123.41,80.1s94.82,34.13,144.73,39.84c51.56,5.89,104.11,3.56,154.95-6.9s96.35-27.83,139.93-52.3c42.64-23.95,81.71-54.36,115.4-89.81,33.95-35.73,62.48-76.44,84.42-120.58,22.3-44.87,37.62-93.25,45.21-142.78,3.82-24.92,5.71-50.11,5.75-75.32,0-6.54-7.94-3.11-7.95,2.05Z"/>
  </g>
  <g id="Sans_gluten" data-name="Sans gluten">
    <path class="cls-2" d="m402.24,571.67c-8.47,8.47-16.94,16.94-25.41,25.41-20.46,20.46-40.92,40.92-61.38,61.38-24.65,24.65-49.29,49.29-73.94,73.94-21.32,21.32-42.63,42.63-63.95,63.95-10.36,10.36-21.45,20.34-31.24,31.24-.14.15-.29.29-.43.43-3.3,3.3.22,12.45,4.25,8.42,8.47-8.47,16.94-16.94,25.41-25.41,20.46-20.46,40.92-40.92,61.38-61.38,24.65-24.65,49.29-49.29,73.94-73.94,21.32-21.32,42.63-42.63,63.95-63.95,10.36-10.36,21.45-20.34,31.24-31.24.14-.15.29-.29.43-.43,3.3-3.3-.22-12.45-4.25-8.42h0Z"/>
    <path class="cls-2" d="m830.71,143.2c-26.56,26.56-53.13,53.13-79.69,79.69-42,42-83.99,83.99-125.99,125.99-9.59,9.59-19.19,19.19-28.78,28.78-3.3,3.3.22,12.45,4.25,8.42,26.56-26.56,53.13-53.13,79.69-79.69,42-42,83.99-83.99,125.99-125.99,9.59-9.59,19.19-19.19,28.78-28.78,3.3-3.3-.22-12.45-4.25-8.42h0Z"/>
    <g>
      <path class="cls-1" d="m236.56,246.03c20.2-6.78,56.51,8.22,90.27,34.42,37.08,27.2,56.65,64.98,51.23,84.99-20.74,6.18-55.3-8.23-90.54-34.04-37-28.76-55.72-64.93-50.97-85.37"/>
      <path class="cls-1" d="m236.56,246.03c20.2-6.78,56.51,8.22,90.27,34.42,37.08,27.2,56.65,64.98,51.23,84.99-20.74,6.18-55.3-8.23-90.54-34.04-37-28.76-55.72-64.93-50.97-85.37Z"/>
      <path class="cls-1" d="m458.27,429.19c-22.05-4.58-48.55-34.29-68.4-74.18-19.65-39.82-28.07-78.23-16.52-95.47,23.65,1.46,59.21,31.57,79.32,74.02,20.3,42.37,20.11,81.09,5.59,95.62"/>
      <path class="cls-1" d="m458.27,429.19c-22.05-4.58-48.55-34.29-68.4-74.18-19.65-39.82-28.07-78.23-16.52-95.47,23.65,1.46,59.21,31.57,79.32,74.02,20.3,42.37,20.11,81.09,5.59,95.62Z"/>
      <path class="cls-1" d="m368.19,377.76c40.09,16.93,68.04,47.61,69.42,69.58-16.28,12.58-53.68,8.3-91.32-8.11-37.64-16.59-64.5-38.67-68.64-59.2,13.38-15.36,50.39-19.29,90.55-2.27"/>
      <path class="cls-1" d="m368.19,377.76c40.09,16.93,68.04,47.61,69.42,69.58-16.28,12.58-53.68,8.3-91.32-8.11-37.64-16.59-64.5-38.67-68.64-59.2,13.38-15.36,50.39-19.29,90.55-2.27Z"/>
      <path class="cls-1" d="m547.29,428.6c4.12,43.51-8.4,78.13-27.2,86.71-20.2-11.21-36.76-47.37-41.67-90.27-4.77-42.89,3.12-79.58,21.59-89.31,22.41,10.94,43.29,49.43,47.28,92.88"/>
      <path class="cls-1" d="m547.29,428.6c4.12,43.51-8.4,78.13-27.2,86.71-20.2-11.21-36.76-47.37-41.67-90.27-4.77-42.89,3.12-79.58,21.59-89.31,22.41,10.94,43.29,49.43,47.28,92.88Z"/>
      <path class="cls-1" d="m623.57,523.47c2.31,42.4-9.82,77.19-28.75,85.67-20.16-11.16-36.62-47.81-39.16-90.52-2.54-42.67,8.88-77.98,27.78-86.58,20.79,11.64,37.88,49.02,40.13,91.42"/>
      <path class="cls-1" d="m623.57,523.47c2.31,42.4-9.82,77.19-28.75,85.67-20.16-11.16-36.62-47.81-39.16-90.52-2.54-42.67,8.88-77.98,27.78-86.58,20.79,11.64,37.88,49.02,40.13,91.42Z"/>
      <path class="cls-1" d="m698.31,616.82c2.98,43.04-9.57,77.81-28.58,86.06-19.95-11.36-36.66-47.99-39.41-90.58-2.66-42.54,9.72-77.24,28.63-85.71,20.15,11.37,36.28,47.16,39.36,90.23"/>
      <path class="cls-1" d="m698.31,616.82c2.98,43.04-9.57,77.81-28.58,86.06-19.95-11.36-36.66-47.99-39.41-90.58-2.66-42.54,9.72-77.24,28.63-85.71,20.15,11.37,36.28,47.16,39.36,90.23Z"/>
      <path class="cls-1" d="m343.17,482.91c11.36-17.18,46.43-26.03,87.57-16.27,41.1,9.65,73.7,34.1,80.13,56.08-12.45,16.66-49.01,20.7-89.44,10.41-40.47-10.39-71.36-30.3-78.25-50.22"/>
      <path class="cls-1" d="m343.17,482.91c11.36-17.18,46.43-26.03,87.57-16.27,41.1,9.65,73.7,34.1,80.13,56.08-12.45,16.66-49.01,20.7-89.44,10.41-40.47-10.39-71.36-30.3-78.25-50.22Z"/>
      <path class="cls-1" d="m416.7,567.9c12.41-16.56,48.53-21.85,89.46-9.86,40.88,11.98,72.95,36.48,79.42,58.49-12.53,16.49-48.96,20.98-90.13,8.68-41.14-12.34-72.56-36.02-78.74-57.31"/>
      <path class="cls-1" d="m416.7,567.9c12.41-16.56,48.53-21.85,89.46-9.86,40.88,11.98,72.95,36.48,79.42,58.49-12.53,16.49-48.96,20.98-90.13,8.68-41.14-12.34-72.56-36.02-78.74-57.31Z"/>
      <path class="cls-1" d="m490.87,660.79c12.55-16.51,49.04-20.73,90.12-8.84,41.03,11.79,73.2,36.08,79.42,58.24-12.73,16.36-49.07,20.47-89.79,8.94-40.67-11.37-73.43-36.35-79.76-58.33"/>
      <path class="cls-1" d="m490.87,660.79c12.55-16.51,49.04-20.73,90.12-8.84,41.03,11.79,73.2,36.08,79.42,58.24-12.73,16.36-49.07,20.47-89.79,8.94-40.67-11.37-73.43-36.35-79.76-58.33Z"/>
      <path class="cls-1" d="m773.96,714.83c1.92,44.43-13.46,78.45-33.02,85.15-19.03-12.91-33.36-50.05-35.59-93.09-2.12-43.07,9.76-77.99,28.8-86.39,20.29,11.52,37.95,49.93,39.81,94.33"/>
      <path class="cls-1" d="m773.96,714.83c1.92,44.43-13.46,78.45-33.02,85.15-19.03-12.91-33.36-50.05-35.59-93.09-2.12-43.07,9.76-77.99,28.8-86.39,20.29,11.52,37.95,49.93,39.81,94.33Z"/>
      <path class="cls-1" d="m565.7,754.22c12.58-16.37,48.98-21.12,89.45-8.82,40.49,12.19,71.53,38.62,75.96,61.16-13.98,15.38-50.24,16.61-89.46,4.52-39.17-12.14-69.76-35.06-75.95-56.85"/>
      <path class="cls-1" d="m565.7,754.22c12.58-16.37,48.98-21.12,89.45-8.82,40.49,12.19,71.53,38.62,75.96,61.16-13.98,15.38-50.24,16.61-89.46,4.52-39.17-12.14-69.76-35.06-75.95-56.85Z"/>
    </g>
    <g class="cls-4">
      <path class="cls-2" d="m221.22,208.99c10.32-3.26,21.44-1.05,31.5,2.13,14.05,4.44,27.23,11.6,39.55,19.58,24.16,15.67,47.32,35.34,60.31,61.58,4.23,8.54,8.38,19.43,5.95,29.09l2.88-2.88c-10.31,2.89-21.15.84-31.16-2.29-14.14-4.42-27.41-11.56-39.91-19.41-24.42-15.33-47.26-35.62-60.16-61.9-4.17-8.5-8.14-19.16-6.07-28.77.49-2.28.05-5.38-2.24-6.6-2.05-1.1-4.37.22-4.85,2.45-4.91,22.78,9.87,46.47,23.54,63.32,21.05,25.95,50.87,46.46,82.03,58.32,12.43,4.73,26.94,8.5,40.14,4.8,1.46-.41,2.5-1.36,2.88-2.88,5.77-22.87-10.28-47.72-24.17-64.35-10.63-12.72-23.37-23.19-36.78-32.84s-28.54-18.55-44.39-24.63c-12.38-4.75-27.25-8.77-40.37-4.62-4.77,1.51-3.3,11.37,1.32,9.91h0Z"/>
      <path class="cls-2" d="m221.71,208.89c10.36-3.28,21.81-.93,31.86,2.38,14.08,4.65,27.39,11.79,39.74,19.93,23.82,15.71,46.86,35.23,59.48,61.4,4.24,8.8,8.02,19.29,5.54,29.13l2.58-3.16c-10.35,2.9-21.53.72-31.54-2.55-13.95-4.56-27.1-11.56-39.49-19.35-24.34-15.31-47.31-35.79-59.92-62.13-4.19-8.76-7.77-19.01-5.66-28.8,1.09-5.07-6.09-9.81-7.47-3.42-4.87,22.62,10.63,46.99,24.3,63.5,11.01,13.3,23.93,24.73,38.22,34.38s28.46,17.88,44.16,23.65c12.42,4.57,26.6,8.13,39.71,4.45,1.54-.43,2.21-1.71,2.58-3.16,2.49-9.85,0-20.34-3.49-29.62-4.81-12.78-12.62-24.53-21.44-34.87-10.84-12.71-23.65-23.29-37.25-32.93s-28.44-18.43-44.24-24.29c-12.38-4.59-26.93-8.4-39.97-4.28-4.78,1.51-2.42,11.22,2.31,9.73Z"/>
      <path class="cls-2" d="m444.48,383.36c-9.68-2.16-18.07-8.26-25.26-14.85-9.76-8.95-18.05-19.52-25.35-30.54-16.69-25.2-30.8-55.07-35.65-85.11-1.79-11.08-2.93-24.36,3.42-34.28l-5.34,2.92c9.82.74,19.09,6.08,26.99,11.61,11.06,7.75,20.65,17.67,28.96,28.27,19.6,25,34.17,57.35,35.45,89.4.46,11.53-.57,25.63-9.02,34.41-4.53,4.71,3.61,7.69,7.18,3.97,8.05-8.37,10.77-20.22,11.43-31.48.94-16.19-2.55-32.63-7.74-47.88-10.6-31.17-29.79-60.91-56.21-80.94-10.18-7.72-21.97-14.33-34.94-15.31-2.08-.16-4.25,1.22-5.34,2.92-5.72,8.93-6.35,20.22-5.47,30.51,1.3,15.16,5.81,30.1,11.24,44.24,11.25,29.3,27.47,59.08,50.31,81.03,8.68,8.34,18.95,16.08,30.91,18.75,4.69,1.05,10.49-6.3,4.42-7.65h0Z"/>
      <path class="cls-2" d="m442.74,382.5c-21.74-4.85-38.28-26.62-49.88-44.09-16.51-24.86-30.53-54.05-35.49-83.68-1.81-10.82-3.11-23.95,3.12-33.66l-2.59,1.37c9.73.73,18.8,5.61,26.68,11.07,11.06,7.65,20.62,17.35,28.94,27.87,19.37,24.48,33.68,56.11,35.14,87.58.52,11.23-.55,25.37-8.81,33.96-3.29,3.42,1.27,12.29,4.86,8.56,8.04-8.36,10.96-20.07,11.62-31.39.98-16.74-2.44-33.67-7.8-49.45-10.72-31.53-29.9-61.6-56.46-82.1-10.13-7.82-22.21-14.9-35.24-15.88-.98-.07-2.07.56-2.59,1.37-5.88,9.17-6.53,20.59-5.71,31.17,1.18,15.2,5.64,30.2,11.02,44.38,11.37,29.94,27.69,60.27,50.85,82.8,8.77,8.54,19.2,16.79,31.41,19.51,5.66,1.26,5.56-8.35.94-9.38Z"/>
      <path class="cls-2" d="m351.44,340.41c17.28,7.41,33.59,17.56,46.9,30.93,8.8,8.84,18.42,20.64,19.43,33.62l1.66-4.04c-10.41,7.71-25.01,7.5-37.28,6.16-18.57-2.03-36.71-7.96-53.66-15.64-15.22-6.9-30.03-15.17-42.86-25.96-8.83-7.43-17.81-16.75-20.36-28.39l-.71,4.65c8.24-9.11,22.31-11.74,34.02-12.12,18.19-.6,36.16,3.85,52.86,10.81,5.32,2.22,5.86-7.49,1.5-9.31-25.2-10.5-58.83-17.98-84.43-4.43-3.45,1.82-9.28,5.17-10.48,9.16-1.3,4.31,2.34,11.06,4.35,14.75,5.82,10.68,14.89,19.4,24.45,26.74,25.9,19.87,58.7,34.21,91.01,38.98,12.38,1.83,26.37,2.52,38.21-2.28,4.89-1.98,9.83-4.07,9.22-10.04-.51-4.92-2.08-9.7-4.1-14.19-12.38-27.6-41.39-47.16-68.24-58.67-5.29-2.27-5.84,7.45-1.5,9.31h0Z"/>
      <path class="cls-2" d="m349.19,339c17.71,7.59,34.29,18.01,47.83,31.8,9.32,9.49,18.6,21.69,19.67,35.43l1.86-3.63c-10.37,7.68-25.29,6.95-37.43,5.37-18.32-2.39-36.21-8.5-52.89-16.28-14.94-6.96-29.53-15.27-41.99-26.14-8.64-7.54-17.16-16.88-19.68-28.41l-.97,2.87c7.87-8.7,20.86-11.15,32.08-11.52,17.7-.58,35.26,3.74,51.51,10.51,2.24.93,5.27.68,6.96-1.26,1.44-1.65,1.3-4.28-.94-5.22-25.55-10.64-59.25-18.13-85.5-5.25-4.16,2.04-8.76,4.73-11.7,8.43s.6,9.93,2.48,13.58c5.49,10.66,14.72,19.37,24.12,26.58,25.9,19.87,58.76,34.38,91.09,39.15,12.84,1.9,26.5,2.51,38.96-1.74,3.89-1.33,11.65-4.03,11.87-8.82.2-4.4-1.84-9.39-3.53-13.36-11.73-27.61-41.31-47.21-67.81-58.57-4.38-1.88-11.7,4.04-6.01,6.48Z"/>
      <path class="cls-2" d="m527.48,386.01c1.61,18.02.99,36.56-4.47,53.94-3.55,11.29-9.69,23.5-20.86,28.83l2.93-.08c-19.74-11.32-28.94-38.32-34.08-59-6.8-27.36-9.48-58.33-1.84-85.82,2.74-9.85,7.42-20.47,16.77-25.63l-2.93.08c13.01,6.58,22.13,19.67,28.61,32.33,8.79,17.17,14,36.18,15.86,55.35.21,2.2,1.17,5.18,3.79,5.51,2.31.29,4.04-2.18,3.83-4.34-2.96-30.48-12.85-62.98-34.18-85.83-4-4.29-8.55-8.12-13.65-11.04-2.66-1.53-4.04-1.87-6.73-.24-1.98,1.2-3.78,2.78-5.42,4.41-8.3,8.27-12.36,20.46-14.75,31.64-6.89,32.22-2.82,67.81,7.26,98.91,4.36,13.45,10.32,26.91,19.07,38.11,3.52,4.51,7.49,8.73,12.16,12.06,1.69,1.2,4.01,3.28,6.22,3.01s4.62-2.35,6.24-3.6c10.38-7.96,16.08-20.7,19.63-32.95,5.09-17.58,5.77-36.34,4.15-54.48-.2-2.2-1.18-5.18-3.79-5.51-2.32-.29-4.02,2.18-3.83,4.34h0Z"/>
      <path class="cls-2" d="m527.31,388.52c1.58,17.61.84,35.8-4.45,52.78-3.31,10.62-8.95,22.6-19.51,27.65l3.03-.09c-19.8-11.36-29.31-37.94-34.66-58.73-7.07-27.44-10.05-58.62-2.74-86.33,2.5-9.51,6.65-20.68,15.77-25.72l-3.03.09c13.49,6.82,22.81,20.34,29.52,33.44,9.06,17.71,14.16,37.17,16.07,56.92.6,6.14,8.42.89,7.95-3.85-2.91-29.9-13.08-63.14-34.85-84.92-3.77-3.77-8.6-8.3-13.66-10.25-4.38-1.69-9.41,3.69-12.19,6.68-8.18,8.82-12.3,21.09-14.63,32.66-6.48,32.28-2.56,67.6,7.81,98.64,4.43,13.25,10.44,26.38,19.28,37.3,3.52,4.36,7.59,8.31,12.27,11.42,2.3,1.53,3.68,2.21,6.31,1.07,2.22-.96,4.36-2.53,6.22-4.06,10.33-8.45,16.18-21.67,19.64-34.25,4.85-17.64,5.42-36.18,3.8-54.31-.21-2.39-2.73-3.31-4.71-2.43-2.37,1.05-3.46,3.87-3.24,6.28Z"/>
      <path class="cls-2" d="m603.86,481.99c.87,17.54-.48,35.58-6.04,52.33-3.65,10.99-9.67,23.02-20.66,28.18l2.93.1c-20.13-11.53-29.03-39.17-33.34-60.43-5.46-26.91-6.06-57.26,3.62-83.33,3.55-9.57,9.16-19.59,18.73-24.16l-2.93-.1c12.18,7.05,20.07,20.23,25.49,32.83,7.43,17.27,11.11,35.87,12.2,54.58.36,6.26,7.78,5.1,7.43-1.04-1.71-29.45-9.65-62.54-29.93-85.04-3.32-3.68-7.91-8.54-12.64-10.4-3.94-1.55-9.38,3.79-11.97,6.37-8.36,8.32-13.12,20.06-16.16,31.25-8.44,31.04-6.37,65.95,2.86,96.55,4.04,13.39,9.81,26.67,18.42,37.78,3.45,4.45,7.31,8.49,11.89,11.79,1.82,1.32,3.9,3.12,6.24,2.68s4.62-2.44,6.36-3.78c10.3-7.95,16.03-20.88,19.62-33.04,5.17-17.52,6.22-36,5.31-54.16-.31-6.26-7.73-5.1-7.43,1.04h0Z"/>
      <path class="cls-2" d="m603.4,482.92c.86,17.34-.18,35.25-5.55,51.88-3.33,10.31-8.79,23-19.26,27.92l3.02.27c-20.12-11.52-29.16-38.29-33.89-59.53-6.02-27.02-6.94-58.1,2.39-84.52,3.22-9.13,8.29-20.05,17.56-24.48l-3.02-.27c12.42,7.18,20.52,20.41,26.13,33.23,7.66,17.51,11.51,36.47,12.62,55.49.36,6.21,8.63,1.92,8.35-2.9-1.69-29.05-9.28-62.64-29.81-84.56-3.04-3.24-8.06-9.01-12.63-9.97-4.02-.84-9.78,4.73-12.35,7.28-8.49,8.44-13.33,20.02-16.54,31.35-8.73,30.78-6.75,65.83,2.44,96.27,4.01,13.27,9.73,26.62,18.36,37.58,3.39,4.3,7.32,8.37,11.85,11.48,2.07,1.42,3.84,2.76,6.37,1.91,2.38-.79,4.66-2.51,6.61-4.03,10.43-8.14,16.39-20.97,20.1-33.36,5.22-17.43,6.49-35.85,5.59-53.96-.31-6.21-8.59-1.91-8.35,2.9Z"/>
      <path class="cls-2" d="m677.4,575.2c1.16,17.97.22,36.55-5.38,53.79-3.59,11.04-9.4,23.7-20.57,28.79l5.9.1c-19.97-11.75-29.14-38.38-34-59.65-6.32-27.65-7.27-59.21,3-86.08,3.66-9.57,9.19-19.89,18.87-24.44l-5.9-.1c12.02,7,19.79,19.81,25.19,32.26,7.57,17.45,11.46,36.43,12.89,55.34.41,5.36,10.18,3.97,9.82-.75-2.16-28.41-8.96-61.03-28.68-82.87-3.36-3.72-7.38-7.8-11.96-10-4.83-2.32-10.32,2.01-13.9,5.13-8.85,7.71-14.24,18.93-17.66,29.96-9.6,30.93-7.46,66.28,2.13,96.95,4.13,13.2,9.94,26.44,18.6,37.32,3.4,4.26,7.33,8.31,11.85,11.39,2.54,1.73,4.68,2.98,7.79,1.92,2.26-.77,4.41-2.21,6.34-3.59,10.51-7.54,16.61-20.32,20.26-32.38,5.26-17.39,6.4-35.77,5.24-53.82-.34-5.36-10.12-3.98-9.82.75h0Z"/>
      <path class="cls-2" d="m677.38,575.67c1.14,17.79.02,36.04-5.4,53.13-3.39,10.67-9.34,23.81-20.17,28.75l4.96.13c-8.77-5.16-15.03-13.9-19.89-22.63-6.56-11.8-10.89-24.76-13.77-37.92-5.94-27.18-6.88-58.08,3.15-84.47,3.54-9.33,9.1-20.25,18.61-24.72l-4.96-.13c11.94,6.96,19.48,20.17,24.82,32.48,7.57,17.45,11.22,36.5,12.65,55.39.37,4.91,10.24,3.32,9.86-1.69-2.17-28.54-9.37-60.83-29.13-82.71-3.23-3.58-7.57-8.03-12.13-9.89-4.89-1.99-10.45,2.65-13.92,5.73-8.77,7.77-13.88,19.04-17.29,30.02-9.62,30.99-7.17,66.87,2.73,97.47,4.25,13.12,10.03,26.01,18.77,36.78,3.46,4.26,7.33,8.1,11.91,11.15,5.15,3.43,9.4,1.37,14.01-2.07,10.48-7.84,16.34-20.43,20.04-32.64,5.25-17.35,6.17-35.83,5.01-53.83-.32-4.9-10.18-3.33-9.86,1.69Z"/>
      <path class="cls-2" d="m330.18,443.15c5.31-7.73,14.26-11.88,23.02-14.43,12.61-3.67,26.04-4.16,39.06-3,27.78,2.47,56.43,12.92,78.17,30.62,8.64,7.03,16.99,15.84,20.34,26.71l1.09-4.57c-7.75,9.96-22.76,12.51-34.54,13.37-17.94,1.31-36.08-1.38-53.36-6.12s-32.81-10.85-47.27-20.14c-10.2-6.56-21.14-15.21-25.43-27.01-1.98-5.45-9.82.21-8.2,4.66,8.41,23.12,35.22,36.52,56.62,44.81,28.3,10.96,62.35,18.05,92.39,10.34,8.8-2.26,22.45-7.43,26.48-16.57,1.8-4.09-2.1-10.18-4.16-13.62-2.9-4.86-6.61-9.19-10.59-13.2-20.92-21.05-51.59-33.23-80.55-37.41-25.49-3.69-62.7-2.79-79.1,21.08-3.5,5.1,2.46,9.65,6.01,4.48h0Z"/>
      <path class="cls-2" d="m331.18,442.76c12.5-18.2,40.99-19.58,60.74-17.9,27.57,2.35,56.1,12.65,77.67,30.22,8.62,7.01,17.04,15.82,20.38,26.68l.88-2.9c-7.53,9.67-20.98,12.61-32.57,13.65-18.02,1.61-36.35-1.08-53.73-5.78-16.6-4.48-33.14-10.89-47.62-20.28-9.96-6.46-20.68-15.04-24.88-26.59-1.71-4.71-11.45-2.51-9.78,2.08,8.5,23.36,35.72,36.99,57.38,45.27,28.3,10.82,61.84,17.88,91.92,10.73,5.66-1.35,11.2-3.27,16.28-6.14,3.88-2.19,9.24-5.53,11.32-9.68,1.85-3.69-2.29-9.92-4.24-13.11-2.96-4.85-6.72-9.22-10.75-13.22-21.23-21.05-52.04-33.23-81.23-37.45-16.26-2.35-33.34-2.44-49.29,1.92-11.51,3.15-23.56,8.64-30.52,18.78-3.53,5.13,5.26,7.73,8.02,3.71Z"/>
      <path class="cls-2" d="m403.56,529.64c5.86-7.53,15.21-11.17,24.28-13.17,12.89-2.83,26.35-2.46,39.35-.59,27.9,4.01,56.42,15.22,78.33,33.2,8.43,6.92,17.1,15.63,20.41,26.33l.78-4.63c-5.93,7.5-15.41,10.95-24.51,12.79-13.02,2.63-26.58,2.03-39.65,0-27.74-4.28-56.34-15.36-78.29-33.15-8.21-6.65-16.75-15.05-19.93-25.43-1.81-5.9-9.12-4.22-7.29,1.78,7.28,23.75,31.65,39.63,52.78,49.9,27.92,13.56,61.68,22.43,92.78,16.98,10.4-1.82,22.03-5.83,28.95-14.31,6.2-7.6-6.59-22.5-11.63-28.03-20.11-22.04-49.53-35.49-78.12-42.39-16.79-4.05-34.57-5.8-51.72-3.05-11.95,1.91-24.58,6.41-32.26,16.27-2.89,3.71,2.19,12.04,5.73,7.49h0Z"/>
      <path class="cls-2" d="m403.68,528.18c5.75-7.39,15.38-10.62,24.23-12.41,13.2-2.68,27.21-2.02,40.42.17,27.54,4.57,55.47,15.86,76.95,33.95,8.53,7.18,16.8,16.05,20.16,26.92l1.15-4.56c-5.81,7.35-15.61,10.38-24.47,12.02-13.34,2.47-27.45,1.58-40.73-.77-27.38-4.84-55.34-15.94-76.87-33.83-8.32-6.91-16.46-15.48-19.7-26.04-1.69-5.53-9.64.03-8.25,4.56,7.22,23.57,32.52,39.09,53.42,49.01,28,13.29,61.74,21.76,92.71,15.8,10.66-2.05,21.89-6.49,28.97-15.09,6.44-7.82-6-21.63-11.25-27.32-20.41-22.11-50.91-35.65-79.88-41.98-25.61-5.59-64.52-8.49-82.82,15.02-3.83,4.92,2.12,9.48,5.96,4.56Z"/>
      <path class="cls-2" d="m478.55,620.6c5.85-7.4,15.26-10.44,24.22-12.08,13.27-2.43,27.2-1.48,40.42.78,27.56,4.73,55.88,15.73,77.27,34.13,8.45,7.27,16.23,16.04,19.46,26.93l.82-3.99c-6.03,7.45-15.74,10.47-24.85,12.04-13.23,2.29-27.05,1.35-40.21-.9-27.44-4.69-55.27-15.6-76.56-33.89-8.5-7.3-16.42-16.1-19.74-27.02-1.41-4.64-10.46-.44-9,4.36,7.32,24.05,34.05,40.51,55.46,50.32,28.06,12.86,62.07,20.58,92.81,14.42,10.48-2.1,21.89-6.46,28.87-14.98,3.33-4.07-.11-9.59-2.37-13.58-2.76-4.87-6.3-9.34-10.16-13.38-20.69-21.66-50.97-34.43-79.76-40.76-16.7-3.67-34.24-5.22-51.2-2.5-12.12,1.95-24.97,6.53-32.82,16.47-4.05,5.13,4.14,7.7,7.37,3.62h0Z"/>
      <path class="cls-2" d="m478.97,620.42c5.84-7.39,15.44-10.53,24.4-12.12,12.96-2.3,26.47-1.44,39.38.71,27.46,4.56,55.4,15.47,76.89,33.48,8.55,7.16,16.71,16.08,19.95,26.99l.72-2.94c-5.89,7.28-15.45,10.38-24.36,11.97-13.1,2.34-26.77,1.46-39.83-.7-27.54-4.56-55.27-15.5-76.71-33.69-8.38-7.11-16.45-15.91-19.72-26.64-1.46-4.79-11.11-2.17-9.65,2.6,7.32,24.06,33.23,40.35,54.62,50.4,28.16,13.24,62.24,20.97,93.25,15.26,10.74-1.98,22.47-6.21,29.7-14.84,3.37-4.01-.11-9.34-2.32-13.33-2.75-4.97-6.35-9.41-10.28-13.49-20.98-21.78-51.15-34.55-80.24-40.94-16.73-3.68-34.38-5.24-51.37-2.43-12.12,2-24.79,6.48-32.65,16.43-3.85,4.88,5.22,7.06,8.21,3.28Z"/>
      <path class="cls-2" d="m754.22,672.99c.69,18.08-1.08,36.64-7.8,53.57-4.29,10.79-11.19,22.48-22.67,26.65l2.91.38c-19.03-13.3-26.48-40.66-30.47-62.19-5.04-27.19-5.72-57.87,4.33-84.07,3.64-9.48,9.24-19.6,18.85-24.06l-2.91-.38c12.24,7.18,19.91,20.43,25.39,33.1,7.77,17.94,11.47,37.53,12.37,57,.29,6.22,7.78,5.92,7.49-.32-1.39-29.84-8.75-63.3-28.4-86.78-3.5-4.18-7.56-8.18-12.22-11.04-4.4-2.7-8.85,1.15-12.25,4.18-8.84,7.87-14.07,19.42-17.4,30.56-9.48,31.71-7.63,67.55.89,99.26,3.69,13.73,8.93,27.32,17.01,39.09,3.23,4.71,7.03,9.1,11.51,12.67,2.09,1.67,3.43,2.68,6.1,1.85,2.24-.69,4.41-2.1,6.33-3.42,10.77-7.36,17.34-20.16,21.46-32.18,5.95-17.37,7.67-35.94,6.97-54.2-.24-6.22-7.73-5.92-7.49.32h0Z"/>
      <path class="cls-2" d="m754.13,673.22c.68,17.99-.87,36.65-7.55,53.53-4.25,10.75-10.95,22.42-22.4,26.57l2.92.23c-19.07-13.33-26.72-40.74-30.72-62.32-5.04-27.18-5.97-57.84,3.96-84.1,3.56-9.41,9.05-19.56,18.58-23.98l-2.92-.23c12.26,7.19,20.04,20.49,25.53,33.18,7.78,17.97,11.69,37.6,12.6,57.12.3,6.48,7.93,4.97,7.67-.79-1.39-29.76-8.45-63.16-28.08-86.62-3.47-4.14-7.51-8.2-12.17-11-4.35-2.62-8.99,1.39-12.32,4.36-8.93,7.95-14.15,19.33-17.67,30.54-9.86,31.47-7.9,67.75.57,99.29,3.67,13.68,8.75,27.25,16.81,39,3.22,4.69,7,9.07,11.46,12.64,2.14,1.71,3.41,2.58,6.11,1.7,2.27-.74,4.43-2.12,6.39-3.44,10.88-7.37,17.4-20.15,21.68-32.19,6.14-17.3,7.91-36.02,7.22-54.28-.25-6.49-7.88-4.97-7.67.79Z"/>
      <path class="cls-2" d="m554.01,714.15c6.05-7.58,15.79-10.9,25.03-12.57,13.11-2.37,26.78-1.54,39.83.83,26.9,4.88,53.93,16.37,73.96,35.34,7.97,7.54,15.13,16.84,17.46,27.76l.53-2.89c-8.72,9.23-23.45,10.79-35.43,10.85-18.25.09-36.72-3.83-53.89-9.85-15.77-5.52-31.1-13.01-44.33-23.3-9.71-7.55-19.01-17.02-22.62-29.07-1.37-4.57-11.2-3.22-9.66,1.92,7.17,23.88,32.88,39.85,54.07,49.79,27.85,13.06,61.87,21.84,92.7,16.71,5.6-.93,11.26-2.45,16.38-4.93,3.5-1.7,10.55-5.12,11.9-9.15,1.23-3.65-2.59-10.25-4.25-13.34-2.69-5.02-6.06-9.61-9.89-13.82-19.85-21.88-48.67-35.3-77.1-41.78-16.56-3.77-34.06-5.32-50.9-2.56-11.95,1.96-24.59,6.45-32.39,16.2-3.59,4.49,5.66,7.54,8.6,3.85h0Z"/>
      <path class="cls-2" d="m553.56,713.65c5.89-7.38,16.18-10.38,25.09-11.84,13.23-2.17,26.84-1.26,39.97,1.12,26.97,4.89,54.1,16.64,74.19,35.59,7.95,7.5,15.36,16.82,17.68,27.73l1.59-4.07c-8.7,9.21-23.12,10.85-35.12,10.93-18.51.12-37.09-3.84-54.52-9.86-15.91-5.49-31.31-12.97-44.7-23.25-9.86-7.57-19.74-17.24-23.41-29.48-1.54-5.14-10.62-1.18-9.25,3.39,7.19,23.97,32.43,39.73,53.74,49.72,27.56,12.92,61.89,21.91,92.4,16.27,5.6-1.04,11.08-2.64,16.19-5.18,3.83-1.9,10.58-5.43,12.11-9.77,1.33-3.78-2.22-10.14-3.91-13.42-2.6-5.03-6.04-9.57-9.81-13.78-19.72-22.03-48.77-35.4-77.22-41.7-25.71-5.69-64.15-8.5-82.72,14.74-1.41,1.77-.95,4.43,1.18,5.31,2.4.99,5.08-.65,6.52-2.46Z"/>
    </g>
  </g>
</svg>