<?xml version="1.0" encoding="UTF-8"?>
<svg xmlns="http://www.w3.org/2000/svg" viewBox="0 0 977.95 979.65">
  <defs>
    <style>
      .cls-1 {
        fill: #e6e6e6;
      }

      .cls-1, .cls-2 {
        stroke-width: 0px;
      }
    </style>
  </defs>
  <g id="Cercle">
    <path class="cls-2" d="m970,490.85c-.07,50.32-7.77,100.64-23.43,148.49-15.1,46.14-37.2,89.86-65.42,129.37-27.94,39.12-61.74,73.93-99.93,103.12-38.54,29.45-81.72,53.03-127.34,69.52-46.93,16.97-96.45,26.56-146.32,28.34-50.63,1.8-101.56-4.17-150.28-18.11-46.78-13.39-91.48-33.91-132.15-60.62-40.22-26.42-76.42-59.03-107.1-96.09-30.86-37.28-56.02-79.3-74.4-124.07s-30.52-95.25-34.28-144.92.24-101.88,12.3-151.27c11.52-47.18,30.35-92.6,55.61-134.07,25.03-41.09,56.17-78.33,92.18-110.24,36.15-32.03,77.12-58.52,121.14-78.41,45.15-20.39,93.53-33.57,142.74-39.19,50.64-5.79,102.31-3.43,152.24,6.76,48.08,9.82,94.61,27.24,137.45,51.15,42.1,23.5,80.56,53.39,113.86,88.25,33.36,34.91,61.38,74.79,82.94,118,22.02,44.15,37.07,91.65,44.61,140.4,3.77,24.35,5.55,48.96,5.59,73.59,0,6.54,7.96,3.11,7.95-2.05-.07-51.36-7.98-102.68-23.9-151.53-15.29-46.92-37.65-91.46-66.28-131.66-28.45-39.95-62.78-75.63-101.76-105.42-39.09-29.87-82.65-53.88-128.88-70.74S558.53,2.13,507.56.31c-51.52-1.84-103.38,4.38-152.93,18.64-47.51,13.67-92.94,34.64-134.16,61.94-40.76,27-77.35,60.01-108.48,97.71-31.45,38.1-57.11,81.04-75.76,126.78S5.36,402.4,1.45,453.08c-3.96,51.44.19,103.57,12.35,153.71,11.74,48.42,31.01,95.04,56.87,137.63,25.35,41.74,56.97,79.7,93.48,112.13,36.79,32.68,78.56,59.84,123.41,80.1s94.82,34.13,144.73,39.84c51.56,5.89,104.11,3.56,154.95-6.9s96.35-27.83,139.93-52.3c42.64-23.95,81.71-54.36,115.4-89.81,33.95-35.73,62.48-76.44,84.42-120.58,22.3-44.87,37.62-93.25,45.21-142.78,3.82-24.92,5.71-50.11,5.75-75.32,0-6.54-7.94-3.11-7.95,2.05Z"/>
  </g>
  <g id="Sans_lactose" data-name="Sans lactose">
    <path class="cls-1" d="m677.46,497.88v313.82c0,22.88-18.55,41.44-41.44,41.44h-222.13c-22.88,0-41.44-18.55-41.44-41.44v-313.82c0-22.3,4.18-44.4,12.32-65.16l37.76-96.29c6.88-17.37,10.42-35.89,10.42-54.58v-5.72h-3c-7.18,0-13-5.82-13-13v-29c0-7.18,5.82-13,13-13h190c7.18,0,13,5.82,13,13v29c0,7.18-5.82,13-13,13h-3v5.72c0,18.69,3.53,37.21,10.42,54.58l37.76,96.29c8.14,20.76,12.32,42.86,12.32,65.16Z"/>
    <path class="cls-2" d="m637.53,474.7c0,26.82,0,53.65,0,80.47,0,49.77,0,99.54,0,149.31,0,27.98.44,56,0,83.97-.26,16.16-11.23,30.03-26.84,34.23-5.09,1.37-10.15,1.29-15.34,1.29h-49.98c-47.36,0-94.72,0-142.08,0-11.36,0-25.25,1.75-36.25-1.79-15.72-5.06-26.4-19.49-26.64-35.98-.03-2.33,0-4.67,0-7v-112.71c0-48.28,0-96.57,0-144.85v-42.82c0-23.78,3.24-46.92,11.93-69.22,13.15-33.76,27.59-67.19,39.65-101.35,6.6-18.7,8.92-37.85,8.92-57.58,0-1.7-1.18-3.71-3.07-3.71-6.93,0-12.79-2.5-12.93-10.33-.1-5.63,0-11.26,0-16.89,0-3.91-1.1-9.86.56-13.6s5.41-4.43,8.96-4.49c16.26-.28,32.56,0,48.82,0,45.34,0,90.69,0,136.03,0,1.26,0,2.55-.07,3.81,0,5.4.31,9.53,3.77,9.93,9.29.11,1.49,0,3.04,0,4.53,0,7,0,13.99,0,20.99,0,1.94.25,4.18-.56,6.01-1.91,4.29-6.59,4.49-10.63,4.49-3.01,0-4.82,3.33-4.82,5.98,0,21.29,2.91,41.82,10.7,61.74,3,7.68,6.02,15.36,9.04,23.04,9.17,23.37,18.33,46.75,27.5,70.12,8.42,21.48,13.14,43.71,13.26,66.83.03,6.53,7.92,2.87,7.89-2.27-.12-22.98-4.42-45.65-12.78-67.05-3.26-8.36-6.55-16.7-9.83-25.06-8.97-22.87-17.94-45.74-26.91-68.6-7.78-19.83-10.99-39.79-10.99-61.03l-4.82,5.98c8.96,0,16.63-3.55,19.77-12.58,1.81-5.2,1.05-11.57,1.05-16.99,0-12.59,3.05-33.27-14.74-35.05-4.61-.46-9.42-.07-14.04-.07h-33.03c-47.83,0-95.75-.85-143.57,0-6.64.12-12.43,3.25-15.85,9.07-3.59,6.11-2.65,13.7-2.65,20.5,0,6.11-.29,12.3,0,18.41.52,11.1,8.64,16.71,19.07,16.71l-3.07-3.71c0,20.01-2.71,39.13-9.99,57.87-2.21,5.7-4.46,11.38-6.7,17.07-8.73,22.25-17.45,44.5-26.18,66.74-2.63,6.71-5.4,13.39-7.71,20.21-6.56,19.34-9.87,39.58-9.92,60-.02,8.94,0,17.88,0,26.82,0,45.81,0,91.62,0,137.43v130.68c0,9.76-.98,20.5,1.42,30.04,4.21,16.7,17.98,29.8,34.9,33.03,4.81.92,9.59.81,14.44.81h128.59c21.98,0,43.96,0,65.95,0,13.37,0,27.96,1.53,40.39-4.23,15.96-7.39,26.36-23.64,27.15-41.1.12-2.62.06-5.26.06-7.89v-308.02c0-6.53-7.89-2.87-7.89,2.27Z"/>
    <path class="cls-2" d="m623.18,481.6v76.19c0,46.93,0,93.86,0,140.79,0,25.24.39,50.51,0,75.74-.26,17.29-13.64,31.69-30.95,32.98-3.25.24-6.56.1-9.82.1-17.26,0-34.53,0-51.79,0-42.79,0-85.59,0-128.38,0-4.16,0-8.33.08-12.48,0-12.42-.23-23.87-6.82-29.89-17.79-5.38-9.8-4.25-21.13-4.25-31.9,0-39.53,0-79.05,0-118.58,0-43.21,0-86.43,0-129.64,0-9.49-.02-18.99,0-28.48.03-15.05,1.95-30,5.93-44.52.77-2.8,1.62-5.57,2.55-8.32.2-.58,1.82-5.51.83-4.05.2-.29.66-.48.91-.73,1.55-1.51,3.54-2.75,5.26-4.05,46.21-34.77,100-63.88,156.47-77.28,17.81-4.23,36-6.7,54.32-6.77l-3.35-1.93c11.28,29.74,22.61,59.45,33.84,89.21,7.13,18.91,10.69,38.85,10.8,59.04.03,6.56,7.63,4.4,7.6-1.29-.11-21.3-3.92-42.3-11.34-62.27-1.7-4.57-3.46-9.13-5.19-13.69-7.62-20.08-15.23-40.16-22.85-60.25-2.12-5.58-4.23-11.16-6.35-16.73-.56-1.47-1.95-1.94-3.35-1.93-37.79.15-74.86,10.53-109.47,25.12-29.04,12.24-56.75,27.68-82.92,45.2-7.78,5.21-15.44,10.6-22.9,16.24-1.58,1.2-3.32,2.34-4.78,3.69-3.67,3.42-4.68,9.95-6.08,14.62-5.89,19.72-7.52,39.79-7.52,60.21,0,37.86,0,75.72,0,113.58s0,90.56,0,135.84c0,10.93-.03,21.85,0,32.78.06,23.72,16.78,44.37,41.44,44.52,35.01.21,70.02,0,105.02,0,22.46,0,44.92,0,67.37,0,10.97,0,22.99,1.33,33.89-.51,16.35-2.76,29.07-15.72,33.39-31.45,1.43-5.19,1.63-10.46,1.63-15.78v-176.01c0-35.83,0-71.65,0-107.48v-5.71c0-6.56-7.6-4.39-7.6,1.29Z"/>
    <path class="cls-2" d="m318.47,654.69c-19.86,19.86-39.72,39.72-59.59,59.59-31.37,31.37-62.75,62.75-94.12,94.12-7.23,7.23-14.47,14.47-21.7,21.7-4.62,4.62,3.36,7.92,7.02,4.26,19.86-19.86,39.72-39.72,59.59-59.59,31.37-31.37,62.75-62.75,94.12-94.12,7.23-7.23,14.47-14.47,21.7-21.7,4.62-4.62-3.36-7.92-7.02-4.26h0Z"/>
    <path class="cls-2" d="m827.88,145.28c-21.37,21.37-42.74,42.74-64.1,64.1-34.02,34.02-68.03,68.03-102.05,102.05-7.75,7.75-15.5,15.5-23.26,23.26-4.62,4.62,3.36,7.92,7.02,4.26,21.37-21.37,42.74-42.74,64.1-64.1,34.02-34.02,68.03-68.03,102.05-102.05,7.75-7.75,15.5-15.5,23.26-23.26,4.62-4.62-3.36-7.92-7.02-4.26h0Z"/>
  </g>
</svg>