<?xml version="1.0" encoding="UTF-8"?>
<svg xmlns="http://www.w3.org/2000/svg" viewBox="0 0 977.95 979.65">
  <defs>
    <style>
      .cls-1 {
        fill: #e6e6e6;
      }

      .cls-1, .cls-2 {
        stroke-width: 0px;
      }
    </style>
  </defs>
  <g id="Cercle">
    <path class="cls-2" d="m970,490.85c-.07,50.32-7.77,100.64-23.43,148.49-15.1,46.14-37.2,89.86-65.42,129.37-27.94,39.12-61.74,73.93-99.93,103.12-38.54,29.45-81.72,53.03-127.34,69.52-46.93,16.97-96.45,26.56-146.32,28.34-50.63,1.8-101.56-4.17-150.28-18.11-46.78-13.39-91.48-33.91-132.15-60.62-40.22-26.42-76.42-59.03-107.1-96.09-30.86-37.28-56.02-79.3-74.4-124.07s-30.52-95.25-34.28-144.92.24-101.88,12.3-151.27c11.52-47.18,30.35-92.6,55.61-134.07,25.03-41.09,56.17-78.33,92.18-110.24,36.15-32.03,77.12-58.52,121.14-78.41,45.15-20.39,93.53-33.57,142.74-39.19,50.64-5.79,102.31-3.43,152.24,6.76,48.08,9.82,94.61,27.24,137.45,51.15,42.1,23.5,80.56,53.39,113.86,88.25,33.36,34.91,61.38,74.79,82.94,118,22.02,44.15,37.07,91.65,44.61,140.4,3.77,24.35,5.55,48.96,5.59,73.59,0,6.54,7.96,3.11,7.95-2.05-.07-51.36-7.98-102.68-23.9-151.53-15.29-46.92-37.65-91.46-66.28-131.66-28.45-39.95-62.78-75.63-101.76-105.42-39.09-29.87-82.65-53.88-128.88-70.74S558.53,2.13,507.56.31c-51.52-1.84-103.38,4.38-152.93,18.64-47.51,13.67-92.94,34.64-134.16,61.94-40.76,27-77.35,60.01-108.48,97.71-31.45,38.1-57.11,81.04-75.76,126.78S5.36,402.4,1.45,453.08c-3.96,51.44.19,103.57,12.35,153.71,11.74,48.42,31.01,95.04,56.87,137.63,25.35,41.74,56.97,79.7,93.48,112.13,36.79,32.68,78.56,59.84,123.41,80.1s94.82,34.13,144.73,39.84c51.56,5.89,104.11,3.56,154.95-6.9s96.35-27.83,139.93-52.3c42.64-23.95,81.71-54.36,115.4-89.81,33.95-35.73,62.48-76.44,84.42-120.58,22.3-44.87,37.62-93.25,45.21-142.78,3.82-24.92,5.71-50.11,5.75-75.32,0-6.54-7.94-3.11-7.95,2.05Z"/>
  </g>
  <g id="Synergie">
    <path class="cls-1" d="m838.69,472c-5.71,3.21-10.59,5.96-17.38,9.78,2.49-23.51,4.79-45.33,7.33-69.27,18.53,10.85,35.68,20.9,54.34,31.82-5.53,3.55-9.28,6.37-13.4,8.5-4.71,2.43-5.9,5.14-4.7,10.71,12.34,57.31,2.58,110.51-34.81,156.11-46.95,57.26-108.07,74.78-179.44,57.23-38.41-9.45-71.11-30.11-101.03-55.09-21.47-17.93-41.67-37.37-62.43-56.14-2.06-1.87-4.09-3.77-6.73-6.2-9.54,10.76-18.62,21.01-27.71,31.23-22.94,25.79-47.6,49.48-76.85,68.35-83.89,54.12-226.63,18.61-256.66-107.44-15.23-63.95-2.95-122.7,40.58-173.08,27.46-31.78,63.66-47.95,104.9-53.08,52.94-6.58,98.89,11.72,141.6,40.83,29.76,20.28,56.03,44.58,80.71,70.68,4.06,4.29,7.78,8.9,12.49,14.3,5.05-5.62,8.82-9.74,12.51-13.93,22.26-25.3,44.36-50.73,70.93-71.8,28.12-22.29,59.13-38.21,95.41-40.65,54.12-3.64,128.61,13.98,163.65,82.67,1.13,2.21,2.09,4.51,1.95,8.03-5.61-2.49-11.21-4.97-17.45-7.74-1.02,6.62-1.89,12.33-2.77,18.04-.56.28-1.13.56-1.69.84-3.17-4.2-6.61-8.21-9.45-12.62-30.83-47.86-106-61.83-147.7-47.15-28.38,9.99-51.61,27.36-71.19,49.36-20.33,22.83-39.1,47.06-58.54,70.69-.59.71-.94,1.61-1.77,3.06,10.62,11.31,21.25,22.71,31.96,34.03,25.3,26.77,51.4,52.6,82.49,72.88,22.22,14.49,46.29,23.37,72.86,22.85,28.16-.55,53.49-10.38,74.86-28.85,32.72-28.27,49.4-63.65,45.56-107.55-.21-2.36-.67-4.7-1.11-7.03-.22-1.14-.67-2.24-1.33-4.4Zm-558.94,174.21c29.52.23,56.93-9.47,82.02-29.41,33.06-26.27,58.08-59.77,82.97-93.32,1.13-1.53.3-5.95-1.17-7.76-11.24-13.77-22.39-27.68-34.49-40.69-24.96-26.84-51.95-51.35-83.95-69.81-18.18-10.49-37.5-17.33-58.59-17.54-24.59-.25-47.11,7.04-67.73,20.46-41.36,26.92-64.53,77.09-56.53,122.19,9.98,56.23,52.77,115.56,137.46,115.88Z"/>
    <g>
      <path class="cls-2" d="m818.02,439.53c-5.79,3.26-11.59,6.52-17.38,9.78l6.03,2.79c2.44-23.09,4.88-46.18,7.33-69.27l-7.01,4.84c18.11,10.61,36.23,21.22,54.34,31.82l.98-7.63c-4.09,2.65-8.06,5.5-12.3,7.9-3.41,1.93-6.53,4.03-8.07,7.81-1.4,3.44-.79,6.9-.09,10.42,1.1,5.49,2.09,10.99,2.84,16.55,2.61,19.45,2.52,39.22-1.04,58.55-7.15,38.85-29.18,73.59-58.81,99.33-26.12,22.69-58.75,35.73-93.29,37.39-39.19,1.88-78.63-9.18-112.45-28.63-20.72-11.92-39.41-26.81-57.35-42.51-19.28-16.88-38.02-34.41-56.85-51.79-1.78-1.64-4.74-.64-6.17.97-43.98,49.58-90.91,108.72-160.29,120.03-50.37,8.21-104.27-6.57-142.61-40.44-47.64-42.08-66.46-111.95-53.81-173.42,7.32-35.6,26.72-69.6,53.42-94.25s61.32-36.67,96.62-39.65c81.27-6.86,151.59,48.78,204.99,103.66,6.94,7.13,13.43,14.56,19.94,22.08,1.59,1.84,4.89.46,6.17-.97,41.26-45.85,82.65-100.12,144.19-118.9,23.37-7.13,48.54-7.49,72.61-4.12s45.3,10.4,65.24,22.21c11.75,6.96,22.48,15.61,31.76,25.64,5.04,5.45,9.66,11.3,13.74,17.5s9.79,13.65,9.86,21.17l7.01-5.93c-5.82-2.58-11.64-5.16-17.45-7.74-3.13-1.39-6.56,1.91-7.01,4.84-.92,6.01-1.84,12.02-2.77,18.04l3.8-4.75-1.69.84,4.05.48c-7.28-9.52-13.7-19.85-22.26-28.32-7.51-7.43-16.21-13.66-25.42-18.8-18.59-10.37-39.76-16.4-60.91-18.37-18.79-1.75-37.98-.29-55.73,6.38-25.15,9.46-47.37,25.4-65.77,44.86-11.99,12.68-23.01,26.34-34.02,39.85-5.64,6.92-11.24,13.88-16.85,20.81-4.94,6.1-10.92,12.03-14.68,18.93-.89,1.63-1.37,3.65.03,5.15,23.4,24.94,46.32,50.53,71.69,73.5,23.28,21.08,49.59,42.04,79.98,51.54,28.69,8.97,60.46,7.03,87.65-5.94,25.01-11.93,46.9-32.72,60.64-56.76,7.23-12.64,12.19-26.44,14.55-40.82s2.96-31.42-1.66-45.92c-1.57-4.92-9.59.99-8.15,5.53,3.89,12.22,3.26,26.32,1.51,38.9-1.71,12.33-5.47,24.42-11.25,35.46-11.87,22.69-31.72,42.9-54.64,54.44-25.61,12.9-55.99,15.38-83.37,6.82-28.46-8.9-52.98-27.9-75-47.44-26.71-23.71-50.59-50.46-75-76.47l.03,5.15c3.35-6.14,8.63-11.42,13.02-16.84,4.81-5.95,9.61-11.91,14.44-17.85,9.24-11.38,18.57-22.69,28.23-33.72,17.13-19.55,36.7-36.52,60.58-47.28,35.92-16.19,78.8-11.9,113.65,5.37,10.05,4.98,19.45,11.22,27.64,18.92,9.42,8.85,16.28,19.87,24.09,30.08.84,1.1,2.95,1.03,4.05.48,4.63-2.31,5.32-4.51,6.09-9.5.72-4.71,1.44-9.42,2.17-14.13l-7.01,4.84c5.82,2.58,11.64,5.16,17.45,7.74,3.66,1.62,7.04-2.66,7.01-5.93-.07-6.93-4.21-13.07-7.71-18.81s-7.46-11.38-11.74-16.65c-8.24-10.16-17.93-19.12-28.63-26.65-20.07-14.11-43.13-23.16-67.15-27.87-23.81-4.67-49.37-5.63-73.22-.75-31.22,6.39-59.2,22.81-83.51,42.98-29.53,24.49-53.96,54.17-79.54,82.59l6.17-.97c-28.13-32.51-59.69-62.45-95.44-86.5-32.56-21.91-69.29-38.61-108.91-41.13-37.26-2.37-76.63,6.67-108.18,26.9-31.39,20.14-55.53,52.58-69.15,87.05-24.72,62.59-13.6,141.56,30.35,193.12,35.39,41.52,90.22,63,144.28,60.62,25.84-1.13,51.37-8,73.97-20.64,35.11-19.63,64.02-49.6,90.47-79.38,7.59-8.54,15.16-17.1,22.75-25.65l-6.17.97c32.98,30.44,65.32,62.96,103.05,87.57,34.04,22.2,73.23,35.84,114.02,37.12,34.9,1.09,69.19-8.09,98.14-27.81,31.83-21.68,57.88-54.12,71.3-90.26,7.57-20.38,10.99-42.02,10.83-63.73-.09-11.74-1.24-23.45-3.26-35.01-.61-3.49-3.91-11.4-.98-13.93,1.68-1.45,4.22-2.36,6.1-3.56,2.86-1.83,5.65-3.76,8.5-5.61,2.52-1.63,4.1-5.8.98-7.63-18.11-10.61-36.23-21.22-54.34-31.82-2.91-1.71-6.73,2.16-7.01,4.84-2.44,23.09-4.88,46.18-7.33,69.27-.41,3.87,3.41,4.26,6.03,2.79,5.79-3.26,11.59-6.52,17.38-9.78,5-2.82,2.34-10.14-3.33-6.95Z"/>
      <path class="cls-2" d="m259.1,621.63c31.06.05,60.25-10.66,84.64-29.8,26-20.4,47.48-45.67,67.51-71.78,5.19-6.77,10.29-13.6,15.38-20.45,3.81-5.13,5.66-10.24,1.72-16.04-4.85-7.13-11.09-13.69-16.61-20.31-5.9-7.07-11.91-14.04-18.17-20.79-22.1-23.81-46.19-45.91-73.57-63.53-27.42-17.65-57.43-28.27-90.36-23.36-29.35,4.38-57,19.93-76.97,41.74-18.31,19.99-30.92,45.51-34.4,72.49-3.02,23.46,1.95,47.21,11.3,68.76,19.36,44.6,59.49,75.12,107.73,81.61,7.23.97,14.5,1.41,21.8,1.47,4.64.04,8.97-8.78,3.3-8.83-24.89-.2-49.51-5.49-71.18-18.06-18.27-10.61-33.55-26.14-44.47-44.19-10.23-16.9-17.34-36.21-19.84-55.84-3.18-24.92,3.29-50.54,16.12-71.97,13.92-23.25,35.21-41.5,60.39-51.58,28.36-11.36,59.29-10.25,86.98,2.45,27.46,12.59,51.86,32.37,73.6,53.08,11.21,10.68,21.96,21.89,32.12,33.57,5.42,6.23,10.69,12.59,15.92,18.98,2.41,2.95,4.85,5.88,7.23,8.86.98,1.23,2.47,2.68,2.47,4.38s-1.64,3.28-2.68,4.69c-18.28,24.61-36.93,49.12-59.03,70.47-21.52,20.79-46.15,38.14-76.19,43.36-7.09,1.23-14.25,1.81-21.44,1.8-4.63,0-8.96,8.82-3.3,8.83Z"/>
    </g>
  </g>
</svg>