<?xml version="1.0" encoding="UTF-8"?>
<svg id="Calque_2" xmlns="http://www.w3.org/2000/svg" viewBox="0 0 604.94 744.26">
  <defs>
    <style>
      .cls-1 {
        fill: #fead04;
      }

      .cls-2 {
        fill: #fefefe;
      }
    </style>
  </defs>
  <g id="Ubiqsome">
    <g>
      <path class="cls-2" d="M433.39,656.37c3.93-4.11,7.31-7.28,10.25-10.81,8.94-10.71,19.04-20.75,26.3-32.52,27.6-44.73,40.7-93.72,40.47-146.34-.32-74.32-.81-148.64-.36-222.95.24-40.15-9.46-77.88-24.37-114.53-10.39-25.54-24.55-49.04-45.67-67.21-29.76-25.61-64.22-42.74-102.14-52.75C307,1.11,275.43-.44,243.67.1c-47.5.81-92.3,11.8-133.86,35.16-27.4,15.4-51.64,34.4-68,61.82C16.07,140.23,1.18,187.06.48,237.29c-1.06,75.97.05,151.97-.47,227.96-.26,37.92,7.2,74.02,20.85,109.18,18.71,48.18,50.65,83.5,97.77,105.81,34.88,16.51,71.29,25.51,109.4,29.09,39.29,3.69,77.88-.63,115.77-10.88,13.41-3.63,26.33-9.23,39.19-14.61,7.06-2.95,6.72-3.5,12.55,2.26,7.1,7.01,13.73,14.7,21.66,20.62,30.4,22.71,64.78,35.72,102.68,37.38,23.82,1.04,47.25-3.08,68.71-14.4,19.96-10.53,21.64-26.31,4.98-41.41-4.32-3.92-9.02-5.54-14.65-4.18-3.23.78-6.45,1.68-9.59,2.78-28.68,10-57.39,10.48-86.22.59-18.51-6.35-35.21-15.5-49.74-31.11Z"/>
      <path class="cls-1" d="M433.39,656.37c14.52,15.62,31.23,24.76,49.74,31.11,28.83,9.9,57.54,9.41,86.22-.59,3.14-1.09,6.35-1.99,9.59-2.78,5.63-1.36,10.33.26,14.65,4.18,16.66,15.1,14.98,30.87-4.98,41.41-21.46,11.33-44.89,15.45-68.71,14.4-37.91-1.66-72.29-14.67-102.68-37.38-7.93-5.93-14.56-13.61-21.66-20.62-5.83-5.76-5.49-5.22-12.55-2.26-12.86,5.37-25.78,10.98-39.19,14.61-37.89,10.25-76.48,14.57-115.77,10.88-38.11-3.58-74.52-12.57-109.4-29.09-47.12-22.31-79.05-57.63-97.77-105.81C7.21,539.27-.24,503.17.01,465.25c.52-75.98-.6-151.98.47-227.96.7-50.24,15.59-97.06,41.34-140.22,16.35-27.42,40.6-46.42,68-61.82C151.38,11.89,196.17.9,243.67.1c31.76-.54,63.33,1.02,94.19,9.17,37.91,10.01,72.37,27.15,102.14,52.75,21.12,18.17,35.28,41.67,45.67,67.21,14.92,36.65,24.62,74.38,24.37,114.53-.45,74.31.04,148.63.36,222.95.23,52.63-12.87,101.61-40.47,146.34-7.26,11.77-17.36,21.8-26.3,32.52-2.94,3.53-6.33,6.69-10.25,10.81ZM426.79,257.69c2-13.99,1.26-15.12-10.34-18.32-18.87-5.2-38.07-6.41-57.41-3.98-48.84,6.12-89.7,26.85-118.67,67.58-9.99,14.06-18.56,29.22-26.8,44.41-10.02,18.47-20.1,36.82-33.08,53.42-19.4,24.81-43.13,43.35-74.28,51-6.12,1.5-12.36,2.54-18.58,3.59-3.36.57-5.99,1.82-5.46,5.64,1.22,8.76,2.75,17.48,4.36,27.45,3.98-1.63,6.97-2.79,9.9-4.08,7-3.08,13.84-6.57,20.97-9.3,30.09-11.52,61.57-16.91,93.47-19.66,25.86-2.23,51.84-2.93,77.73-4.86,17.24-1.28,34.56-2.62,51.58-5.53,26.73-4.57,52.55-12.3,74.64-29.02,4.19-3.17,8.34-6.83,11.2-11.14,1.94-2.93,3.1-7.97,1.91-11-1.75-4.42-6.91-2.86-10.7-1.95-25.55,6.17-51.51,5.86-77.47,4.82-15.78-.63-31.05-4.18-45.12-11.55-21.78-11.41-29.7-35.65-19.05-57.58,7.86-16.19,20.64-27.71,36.06-36.26,28.79-15.97,59.38-26.79,92.21-30.79,7.55-.92,15.1-1.91,22.93-2.9ZM112.36,144.71c8.06.78,14.66,1.16,21.18,2.09,32.45,4.63,56.57,20.65,69.21,51.72,6.04,14.85,6.15,29.76-.47,44.66-9.29,20.94-24.97,35.98-44.03,47.73-19.43,11.97-40.68,19.79-62.62,25.76-4.09,1.11-8.24,2.01-11.95,2.91-2.73,14.23-1.76,79.12,1.2,87.46,13.42-.49,25.14-5.73,35.68-13.65,16.57-12.44,28.3-29.06,38.61-46.67,8.58-14.65,16.44-29.73,24.71-44.57,22.31-40.05,52.94-71.65,94.3-92.16,39.51-19.6,81.17-27.29,125.1-22.04,4.72.56,9.63,2.11,15.16-.49-6.98-19.73-15.48-37.82-27.59-55.05-4.33,1.99-8.02,3.4-11.45,5.29-12.61,6.97-25.84,12.18-39.85,15.66-33.71,8.38-67.63,6.22-101.24.85-35.99-5.75-70.61-16.66-102.85-34.2-.8-.43-1.91-.29-3.79-.54-5.49,8.31-14.29,14.51-19.3,25.25ZM426.99,465.33c-5.26,2.26-8.18,3.66-11.19,4.79-14,5.23-27.79,11.14-42.08,15.43-34.05,10.22-69.23,12.7-104.55,14.38-26.58,1.26-53.18,2.85-79.64,5.59-27.29,2.83-53.64,9.77-78.06,22.9-15.18,8.16-15.43,8.35-7.34,23.15,6.67,12.2,4.38,13.28,19.58,7.6,28.85-10.77,58.46-18.16,89.16-20.6,60.75-4.82,115.57,9.22,161.22,51.7.42.39,1.23.38,3.11.91,34.6-33.64,47.56-76.2,49.78-125.86ZM148.4,600.1c48.13,35.91,139.83,39.93,180.62,16.22-1.78-1.62-3.24-3.45-5.12-4.58-25.17-15.23-52.14-24.91-81.79-26.39-24.88-1.25-49.16,1.9-72.99,9.05-6.27,1.88-12.62,3.49-20.72,5.71ZM83.2,269.35c2.35-.16,4.44.15,6.19-.48,12.78-4.62,25.88-8.62,38.12-14.41,10.9-5.15,19.37-14.03,26.64-23.68,6.58-8.74,6.08-15.07-1.42-23.06-6.54-6.96-14.42-12.32-23.94-13.39-10.87-1.21-21.9-.98-32.86-1.32-3.43-.11-5.65,1.53-6.49,4.95-.56,2.26-1.6,4.45-1.81,6.73-1.87,19.85-3.64,39.7-5.33,59.56-.13,1.52.53,3.11.9,5.09ZM189.06,92.07c5.33,1.86,9.35,3.36,13.43,4.68,26.82,8.67,54.45,12.66,82.53,13.56,19.04.61,38-.15,56.17-6.84,1.91-.7,3.58-2.03,5.73-3.29-35.8-23.92-130.95-29.23-157.86-8.11ZM427.26,305.68c-10.25,1.39-19.43,2.39-28.52,3.91-25.24,4.23-48.94,12.58-69.96,27.5-2.2,1.56-3.42,4.49-5.09,6.79,2.31,1.54,4.42,3.8,6.96,4.51,30.63,8.62,60.59,4.77,90.2-5.18,3.98-1.34,6.34-3.65,6.39-7.83.1-9.27.03-18.54.03-29.7Z"/>
    </g>
  </g>
</svg>