<?xml version="1.0" encoding="UTF-8"?>
<svg id="Calque_2" xmlns="http://www.w3.org/2000/svg" viewBox="0 0 414 857.4">
  <defs>
    <style>
      .cls-1 {
        fill: #49a924;
      }
    </style>
  </defs>
  <g id="_xB5_smin_plus">
    <path class="cls-1" d="M412.88,448.5c2.49,17.82-.04,35.64.48,53.46.33,11.11-.33,22.26-.94,33.37-.21,3.84-1.74,7.58-2.46,11.41-.99,5.32-1.79,10.68-2.65,16.02-.12.73.15,1.79-.25,2.17-4.56,4.27-2.91,10.23-4.3,15.35-.18.67-.64,1.26-.87,1.92-.92,2.54-1.82,5.09-2.67,7.66-.18.55.05,1.25-.16,1.77-2.4,5.95-4.88,11.87-7.28,17.82-2.07,5.12-3.95,10.31-6.12,15.39-1.85,4.34-3.94,8.58-6.03,12.81-2.46,4.97-5.02,9.88-7.55,14.82-1.5,2.93-2.8,6-4.56,8.77-3.86,6.04-7.98,11.91-11.95,17.87-1.86,2.8-3.57,5.7-5.46,8.48-4.1,6.06-8.06,12.22-12.46,18.06-7.58,10.05-15.12,20.18-23.3,29.74-8.26,9.65-17.16,18.75-25.98,27.91-8.32,8.63-16.7,17.23-25.43,25.44-7.03,6.62-14.59,12.68-21.99,18.91-8.43,7.09-16.81,14.24-25.44,21.08-6.31,5.01-13.17,9.32-19.39,14.43-3.21,2.64-7.51,4-9.62,8.08-.49.95-2.26,1.23-3.42,1.84-1.28.67-3.03,1.06-3.72,2.13-2.21,3.46-4.56,2.3-6.53.26-5.33-5.52-10.57-11.13-15.58-16.94-10.42-12.1-20.86-24.19-30.92-36.59-6.56-8.09-12.51-16.67-18.66-25.1-5.7-7.81-11.39-15.64-16.88-23.59-5.15-7.46-10.09-15.07-15.04-22.67-3.82-5.85-7.6-11.72-11.25-17.67-3.73-6.06-7.43-12.14-10.87-18.37-4.31-7.81-8.48-15.71-12.43-23.71-3.68-7.46-7.08-15.07-10.44-22.68-2.52-5.71-4.9-11.49-7.17-17.3-2.22-5.69-4.42-11.41-6.25-17.23-2.9-9.23-6.12-18.44-8.06-27.89-2.69-13.11-4.42-26.43-6.36-39.68-1.1-7.51-1.82-15.07-2.67-22.62-.17-1.48-.18-2.98-.18-4.48,0-14.52-.24-29.04.11-43.55.15-6.35,1.52-12.67,2.32-19,.41-3.25.86-6.49,1.16-9.75,1.79-19.49,7.69-37.97,14.43-56.15,3.08-8.3,7.29-16.25,11.62-24,6.08-10.89,12.38-21.7,19.29-32.08,6.18-9.28,13.21-18,20.04-26.83,9.06-11.73,18.64-23.09,27.36-35.07,8.74-12.02,16.89-24.48,24.93-36.99,5.86-9.12,11.51-18.42,16.55-28.01,3.93-7.49,6.96-15.47,10.06-23.37,4.01-10.23,8.26-20.42,11.36-30.93,2.8-9.52,4.29-19.44,6.17-29.21.93-4.82,1.7-9.7,2.1-14.58.67-8.38,1.07-16.79,1.42-25.19.21-5.16.58-10.37.06-15.48-1.21-11.98-2.16-24.06-4.62-35.81-2.27-10.88-6.35-21.38-9.9-32.93,1.43.12,3.05-.2,4.15.41,5.94,3.33,11.84,6.74,17.57,10.41,8.25,5.27,16.52,10.53,24.46,16.25,8.23,5.92,16.43,11.98,24.01,18.69,13.08,11.58,26.09,23.3,38.33,35.74,9.8,9.96,18.58,20.95,27.49,31.74,7.11,8.6,14.12,17.34,20.48,26.49,7.13,10.25,13.62,20.96,20.13,31.63,5.41,8.87,10.65,17.86,15.58,27,2.72,5.04,4.61,10.53,6.9,15.8,1.74,4.02,3.45,8.06,5.29,12.03,2.35,5.07,4.96,10.03,7.2,15.15,3.01,6.86,6.02,13.74,8.58,20.77,3.5,9.63,6.71,19.37,9.78,29.14,1.96,6.24,3.57,12.6,5.11,18.96,3.87,15.94,7.66,31.91,11.37,47.89,1.01,4.34,7.05,47.4,9.54,59.27M277.21,551.97c.29,1.31.72,3,1.02,4.71,1.36,7.77,3.62,15.19,6.8,22.49,8.36,19.17,24.45,26.29,43.55,28.49,5.83.67,11.94-.33,17.85-1.13,19.65-2.64,35.58-11.14,43.5-30.34,3.32-8.04,5.35-16.64,7.51-25.11,1.33-5.22,1.81-10.65,2.78-16.64-4.17,0-7.29-.04-10.41,0-7.04.1-7.01.12-8.13,7.03-1.33,8.21-4.29,15.8-9.07,22.63-3.91,5.59-12.45,9.58-17.86,8.22-7.37-1.86-10.53-7.35-11.79-14.27-.61-3.36-1.23-6.76-1.37-10.16-.49-11.96-1.05-23.92-1.08-35.89-.16-60.01-.16-120.02-.22-180.03,0-6.73-.06-13.47-.02-20.2.01-2.22-.33-3.76-3.12-3.73-18.7.24-37.41.44-56.11.57-2.66.02-3.63.96-3.6,3.72.09,8.68-.21,17.36-.17,26.04.26,56.42.59,112.83.82,169.25.02,5.82-.31,11.66-.77,17.46-.11,1.4-1.08,3.03-2.16,4-4.68,4.18-9.62,8.06-14.32,12.22-11.89,10.55-23.81,21.17-39.27,26.17-12.39,4-24.09,2.54-34.2-6.62-12.11-10.98-15.88-25.72-17.52-40.9-1.56-14.39-1.93-28.95-2.01-43.44-.27-46.84-.17-93.68-.22-140.52,0-7.78-.06-15.56-.04-23.34,0-2.57-.51-4.15-3.74-4.15-18.25.02-36.51-.08-54.76-.32-3.65-.05-5.03,1.17-5.04,4.86-.06,13.77-.48,27.53-.51,41.29-.18,75.11-.27,150.21-.45,225.32,0,2.94-.61,5.88-.87,8.83-.88,9.83-.78,19.86-2.82,29.44-3.11,14.65-7.46,29.06-11.7,43.44-4.56,15.48-7.35,31.13-5.93,47.31.69,7.84,3.57,15.13,10.32,19.24,7.46,4.54,16.15,6.13,25.02,5.53,20.75-1.41,34.89-17.02,33.36-35.81-.85-10.36-2.96-20.64-4.88-30.88-3.68-19.62-8.01-39.12-11.27-58.81-1.22-7.34-.2-15.05-.2-22.59,1.62.56,2.35,1.54,3.18,2.44,1.01,1.09,2,2.22,3.16,3.14,11.07,8.8,23.19,14.63,37.61,16.24,18.19,2.02,34.52-1.5,48.71-13.1,16.85-13.77,33.41-27.89,50.42-42.12Z"/>
  </g>
</svg>