<?xml version="1.0" encoding="UTF-8"?>
<svg xmlns="http://www.w3.org/2000/svg" viewBox="0 0 977.95 979.65">
  <defs>
    <style>
      .cls-1 {
        fill: #e6e6e6;
      }

      .cls-1, .cls-2 {
        stroke-width: 0px;
      }
    </style>
  </defs>
  <g id="Cercle">
    <path class="cls-2" d="m970,490.85c-.07,50.32-7.77,100.64-23.43,148.49-15.1,46.14-37.2,89.86-65.42,129.37-27.94,39.12-61.74,73.93-99.93,103.12-38.54,29.45-81.72,53.03-127.34,69.52-46.93,16.97-96.45,26.56-146.32,28.34-50.63,1.8-101.56-4.17-150.28-18.11-46.78-13.39-91.48-33.91-132.15-60.62-40.22-26.42-76.42-59.03-107.1-96.09-30.86-37.28-56.02-79.3-74.4-124.07s-30.52-95.25-34.28-144.92.24-101.88,12.3-151.27c11.52-47.18,30.35-92.6,55.61-134.07,25.03-41.09,56.17-78.33,92.18-110.24,36.15-32.03,77.12-58.52,121.14-78.41,45.15-20.39,93.53-33.57,142.74-39.19,50.64-5.79,102.31-3.43,152.24,6.76,48.08,9.82,94.61,27.24,137.45,51.15,42.1,23.5,80.56,53.39,113.86,88.25,33.36,34.91,61.38,74.79,82.94,118,22.02,44.15,37.07,91.65,44.61,140.4,3.77,24.35,5.55,48.96,5.59,73.59,0,6.54,7.96,3.11,7.95-2.05-.07-51.36-7.98-102.68-23.9-151.53-15.29-46.92-37.65-91.46-66.28-131.66-28.45-39.95-62.78-75.63-101.76-105.42-39.09-29.87-82.65-53.88-128.88-70.74S558.53,2.13,507.56.31c-51.52-1.84-103.38,4.38-152.93,18.64-47.51,13.67-92.94,34.64-134.16,61.94-40.76,27-77.35,60.01-108.48,97.71-31.45,38.1-57.11,81.04-75.76,126.78S5.36,402.4,1.45,453.08c-3.96,51.44.19,103.57,12.35,153.71,11.74,48.42,31.01,95.04,56.87,137.63,25.35,41.74,56.97,79.7,93.48,112.13,36.79,32.68,78.56,59.84,123.41,80.1s94.82,34.13,144.73,39.84c51.56,5.89,104.11,3.56,154.95-6.9s96.35-27.83,139.93-52.3c42.64-23.95,81.71-54.36,115.4-89.81,33.95-35.73,62.48-76.44,84.42-120.58,22.3-44.87,37.62-93.25,45.21-142.78,3.82-24.92,5.71-50.11,5.75-75.32,0-6.54-7.94-3.11-7.95,2.05Z"/>
  </g>
  <g id="Vegan">
    <g>
      <path class="cls-1" d="m213.34,272.74c181.5,76.58,326.86,222.69,296.39,491.77-4.78-5.18-54.37-122.55-80.41-176.22-27.74-57.19-67.12-106.63-117.51-147.12,77.65,104.64,121.46,225.49,171.63,349.49-90.4-20.76-160.31-67.58-213.48-134.69-91.11-114.99-100.14-244.88-56.62-383.23"/>
      <path class="cls-1" d="m712.19,544.89c-25.78,27.05-44.16,32.36-76.95,81.45-29.71,44.47-53.19,90.96-73.39,139.83-2.06,4.98-4.31,9.87-8.88,14.09-5.83-91.44,2.59-180.44,56.92-257.71,50.37-71.64,119.7-119.14,205.85-148.38,10.41,110.45-2.22,210.13-69.26,297.55-40.95,53.39-161.55,120.39-165.25,121.18-.87-.95-1.75-1.91-2.62-2.86,27.17-64.45,55.26-128.44,94.99-186.46,13.12-19.16,39.53-59.5,38.6-58.7"/>
    </g>
    <g>
      <path class="cls-2" d="m181.8,241.33c68.86,29.12,134.06,68.8,185.98,123.14,54.17,56.7,90,127.75,104.42,204.77,9.8,52.36,10.06,106.21,4.14,159.05l6.68-3.81c.73.84.06.26-.2-.4-.31-.79-.87-1.56-1.26-2.31-1.21-2.31-2.33-4.66-3.44-7.01-3.57-7.53-6.99-15.13-10.4-22.73-9.88-22.02-19.58-44.12-29.39-66.17-22.23-50-43.54-100.71-76.36-144.91-22.12-29.79-47.99-56.52-76.87-79.8-3.78-3.05-8.79,3.86-6.29,7.23,60.29,81.47,101.16,174.62,138.94,268.08,10.96,27.11,21.72,54.3,32.68,81.41l4.46-8.03c-41.11-9.52-80.75-25.32-116.56-47.73-33.89-21.21-63.91-48.33-89.37-79.1-28.2-34.07-51.25-72.75-66.05-114.5-14.1-39.79-20.67-81.85-20.38-124.02.35-50.17,10.14-99.77,25.1-147.53.65-2.06-.53-4.84-2.84-5.04-2.64-.22-4.2,2.51-4.85,4.6-26.6,84.94-35.83,176.78-9.16,262.93,25.32,81.79,80.66,155.86,151.48,203.94,39.66,26.92,84,45.29,130.62,56.09,3.97.92,5.51-5.42,4.46-8.03-38.06-94.13-73.55-190.03-124.78-278.06-14.33-24.63-29.9-48.52-46.85-71.43l-6.29,7.23c50.91,41.06,91.23,92.53,119.4,151.51,20.88,43.72,39.88,88.33,59.65,132.56,3.99,8.94,7.99,17.88,12.16,26.73,1.94,4.11,3.68,9.06,6.71,12.54,2.41,2.77,6.4-1.33,6.68-3.81,10.03-89.55,2.34-181.86-36.2-264.27-32.52-69.54-85.41-127.21-148.29-170.63-35.59-24.58-73.96-44.84-113.76-61.67-4.6-1.95-8.58,7.23-3.98,9.17h0Z"/>
      <path class="cls-2" d="m680.14,504.89c-9.23,9.63-19.42,18.11-29.49,26.83-11.09,9.61-21.38,19.96-30.57,31.42-27.19,33.86-48.72,73.04-67.66,111.98-5.34,10.99-10.45,22.1-15.34,33.3-4.58,10.47-7.82,23.67-16.16,31.85l6.21,3.45c-4.43-70.57-.26-143.65,30.06-208.65,27.88-59.77,75.83-110.07,131.17-145.31,31.05-19.77,64.71-35.09,99.51-46.96l-5.4-4.08c7.69,82.46,2.51,167.72-36.05,242.55-9.55,18.53-20.77,36.52-33.83,52.79-8.97,11.17-19.51,21.06-30.35,30.38-24.7,21.22-51.76,39.71-79.26,57.07-11.85,7.48-23.85,14.74-36.03,21.69-3.87,2.2-7.75,4.39-11.67,6.48-1.16.62-2.34,1.21-3.51,1.82-.59.31-2.44.89-.82.47l2.84,1.06c-.87-.95-1.75-1.91-2.62-2.86l1.03,7c17.37-41.19,35.14-82.29,56.14-121.8,17.93-33.73,39.37-64.98,60.34-96.82,4.05-6.15,8.09-12.31,12.09-18.5,1.67-2.59,4.83-5.99,5.47-9.14s-1.26-8.33-5.26-6.65h-.02c-4.38,1.85-1.59,11.35,3.38,9.26h.02c-1.75-2.23-3.51-4.44-5.26-6.66.4-1.97-.33.25-.89,1.15-1.06,1.71-2.16,3.4-3.25,5.1-3.47,5.38-6.97,10.73-10.49,16.08-8.11,12.34-16.3,24.61-24.6,36.82-24.82,36.52-45.32,75.77-63.78,115.83-10.52,22.83-20.4,45.94-30.17,69.1-1.01,2.39-.78,5.03,1.03,7,.87.95,1.75,1.91,2.62,2.86.6.65,1.91,1.3,2.84,1.06,4.96-1.29,9.79-4.82,14.19-7.28,10.52-5.91,20.9-12.09,31.17-18.43,27.95-17.26,55.33-35.71,80.83-56.46,12.15-9.89,23.98-20.36,34.38-32.12,12.66-14.33,23.36-30.76,32.83-47.32,20.85-36.46,34.4-76.67,41.25-118.06,7.91-47.78,7.35-96.44,2.86-144.54-.26-2.83-2.63-5.02-5.4-4.08-62.9,21.46-121.66,54.82-168.26,102.66-24.05,24.68-45.24,52.76-60.88,83.52-16.24,31.93-26.41,66.48-31.91,101.81-6.34,40.76-6.32,82.19-3.74,123.27.19,2.95,3.63,5.98,6.21,3.45,7.05-6.91,10.01-16.29,13.8-25.17,4.43-10.41,9.04-20.76,13.85-31,9.34-19.91,19.44-39.47,30.4-58.53,18.9-32.88,39.55-65.37,68.13-90.72,11.14-9.88,22.72-19.17,33.05-29.95,3.25-3.39-1.01-12.16-5-7.99h0Z"/>
    </g>
  </g>
</svg>