<?xml version="1.0" encoding="UTF-8"?>
<svg id="Calque_2" xmlns="http://www.w3.org/2000/svg" viewBox="0 0 640.46 527.87">
  <defs>
    <style>
      .cls-1 {
        fill: #aeccba;
      }

      .cls-2 {
        fill: #111827;
      }
    </style>
  </defs>
  <g id="Vegan">
    <g>
      <g>
        <path class="cls-1" d="M29.94,3.8c181.5,76.58,326.86,222.69,296.39,491.77-4.78-5.18-54.37-122.55-80.41-176.22-27.74-57.19-67.12-106.63-117.51-147.12,77.65,104.64,121.46,225.49,171.63,349.49-90.4-20.76-160.31-67.58-213.48-134.69C-4.56,272.04-13.59,142.15,29.94,3.8"/>
        <path class="cls-2" d="M27.64,7.2c68.79,29.09,134.04,68.91,185.75,123.34,54.04,56.87,89.85,128.13,104.05,205.25,9.65,52.42,9.93,106.24,4.01,159.11l9.06-1.52c-.71-.82.13.61-.33-.48-.32-.75-.82-1.47-1.2-2.2-1.21-2.31-2.33-4.66-3.44-7.01-3.57-7.53-6.99-15.13-10.4-22.73-9.88-22.02-19.58-44.12-29.39-66.17-22.26-50.08-43.66-100.78-76.43-145.11-22.23-30.07-48.48-56.88-77.57-80.35-3.21-2.59-10.72.76-7.52,5.07,60.25,81.42,100.97,174.65,138.72,268.06,10.84,26.83,21.5,53.75,32.34,80.58l5.82-5.03c-41.15-9.53-80.8-25.37-116.54-47.95-33.83-21.37-63.7-48.44-89.08-79.33-28.04-34.13-50.75-72.62-65.52-114.32-14.11-39.83-20.56-82-20.27-124.2.35-50.25,10.14-99.94,25.12-147.77,1.58-5.06-8.32-5.9-9.76-1.33C-1.54,88.08-10.64,179.51,16.03,265.64c25.32,81.79,81.11,155.63,151.87,203.67,39.71,26.96,84.39,45.3,131.06,56.11,2.78.64,7.15-1.74,5.82-5.03-38.17-94.4-73.75-190.59-125.22-278.82-14.38-24.65-29.99-48.59-46.97-71.53l-7.52,5.07c50.72,40.9,90.82,92.47,118.84,151.22,20.78,43.58,39.73,88.03,59.44,132.11,3.99,8.94,7.99,17.88,12.16,26.73,1.91,4.06,3.66,9.14,6.65,12.58,1.93,2.21,8.63,2.24,9.06-1.52,10.01-89.43,2.28-181.75-36.47-263.95-32.74-69.43-85.68-126.85-148.54-170.26C110.58,37.43,72.06,17.24,32.23.4c-4.79-2.03-10.61,4.26-4.59,6.81h0Z"/>
      </g>
      <path class="cls-2" d="M524.38,273.75c-9.1,9.5-19.24,17.82-29.16,26.43-11.01,9.56-21.25,19.88-30.42,31.22-27.33,33.82-48.84,73.23-67.77,112.24-5.17,10.66-10.13,21.43-14.89,32.29-2.55,5.81-5.04,11.65-7.48,17.51-2.26,5.44-4.5,10.75-8.78,14.95,2.87,1.07,5.74,2.13,8.61,3.2-4.44-70.76-.36-143.62,29.49-209,27.43-60.07,75.47-110.67,130.63-146.24,31.27-20.16,65.3-35.65,100.47-47.65l-7.66-3.73c7.74,82.98,2.7,168.95-36.11,244.28-9.44,18.31-20.55,35.88-33.24,52.12-9.02,11.55-19.77,21.67-30.86,31.2-24.67,21.19-51.64,39.71-79.09,57.08-11.96,7.57-24.07,14.91-36.35,21.93-3.77,2.15-7.55,4.28-11.39,6.32-1.16.62-2.35,1.2-3.51,1.82-.59.31-2.77,1.03-.66.48l5.71,2.11c-.87-.95-1.75-1.91-2.62-2.86l.74,2.94c17.36-41.17,35.12-82.23,56.15-121.69,17.82-33.44,39.11-64.42,59.91-96.01,4.05-6.15,8.09-12.31,12.09-18.5,1.62-2.51,4.85-5.94,5.47-8.97.78-3.84-4.56-6.01-7.58-4.74h-.02c-5.74,2.42,1.03,8.82,5.48,6.94h.02c-2.53-1.59-5.05-3.17-7.58-4.75.3-1.48-.43.57-.9,1.32-1.06,1.71-2.16,3.4-3.25,5.1-3.58,5.55-7.2,11.08-10.83,16.6-8.17,12.42-16.44,24.77-24.78,37.07-24.8,36.59-45.21,75.89-63.69,115.98-10.52,22.83-20.4,45.94-30.17,69.1-.36.85.17,2.31.74,2.94.87.95,1.75,1.91,2.62,2.86,1.32,1.44,3.68,2.64,5.71,2.11,5.05-1.31,9.86-4.75,14.35-7.27,10.37-5.82,20.6-11.88,30.72-18.11,27.97-17.21,55.4-35.58,80.91-56.29,12.06-9.79,23.74-20.15,34.17-31.68,13.07-14.44,23.97-31.15,33.61-48.02,20.57-35.97,34.1-75.53,40.98-116.34,8.05-47.73,7.55-96.47,3.07-144.53-.32-3.48-4.88-4.68-7.66-3.73-62.65,21.37-121.34,54.49-167.88,102.02-24.11,24.62-45.36,52.44-61.1,83.16-16.37,31.95-26.77,66.55-32.22,101.98-6.2,40.38-6.31,81.44-3.75,122.13.21,3.4,6.17,5.59,8.61,3.2,7.09-6.95,10.08-15.99,13.88-24.95,4.36-10.27,8.88-20.48,13.62-30.59,9.45-20.2,19.7-40.04,30.83-59.37,19.03-33.06,39.83-65.82,68.65-91.23,11.17-9.85,22.65-19.21,32.97-29.98,3.56-3.71-5.53-7.82-8.81-4.39h0Z"/>
    </g>
  </g>
</svg>