<?xml version="1.0" encoding="UTF-8"?>
<svg id="Calque_2" xmlns="http://www.w3.org/2000/svg" viewBox="0 0 453.78 543.21">
  <defs>
    <style>
      .cls-1 {
        fill: #aeccba;
      }

      .cls-2 {
        fill: #111827;
      }
    </style>
  </defs>
  <g id="Végétarien">
    <g>
      <g>
        <path class="cls-1" d="M313.89,248.21c2.16-.46,69.43-39.48,93.28-70.57,39.04-50.91,46.4-108.96,40.34-173.28-50.17,17.03-90.55,44.69-119.88,86.41-31.64,45-39.13,96.83-35.74,150.08"/>
        <path class="cls-2" d="M314.46,252.27c2.94-.85,5.88-3.11,8.5-4.63,6.02-3.51,11.95-7.19,17.81-10.96,16.3-10.47,32.2-21.67,46.98-34.21,34.49-29.29,55.05-71.34,62.45-115.63,4.65-27.82,4.26-56.26,1.67-84.27-.23-2.54-2.98-2.95-4.93-2.28-37.2,12.73-71.95,32.49-99.54,60.77-29.34,30.07-48.85,67.55-56.44,108.88-4.39,23.95-4.93,48.44-3.43,72.69.35,5.67,9.02,1.1,8.73-3.56-2.5-40.68,1.48-82.19,18.97-119.47,16.11-34.32,43.21-63.31,74.94-83.75,18.04-11.62,37.63-20.49,57.91-27.43l-4.93-2.28c4.35,46.98,1.74,95.64-19.72,138.53-9.17,18.32-20.99,34.79-36.28,48.43-13.94,12.45-29.34,23.31-44.95,33.55-6.6,4.33-13.29,8.54-20.08,12.58-2.15,1.28-4.32,2.54-6.51,3.77-1.25.7-.54.64-2.28,1.15-5.02,1.46-5.11,9.95,1.14,8.13h0Z"/>
      </g>
      <path class="cls-2" d="M2.94,375.89c14.72,3.14,28.65,9.52,41.99,16.44,33.15,17.21,62.33,41.97,85.2,71.47,18.18,23.44,32.4,49.66,43.17,77.26,1.6,4.1,8.53,1.62,9.51-1.6,10.54-34.49,23.46-68.36,36.72-101.87,32.11-81.16,69.21-160.45,111.57-236.76,29.32-52.82,61.28-104.2,96.36-153.4,1.46-2.04-.74-4.25-2.62-4.76-2.51-.69-5.07.42-6.52,2.46-60,84.11-110.93,174.53-154.98,267.92-29.42,62.38-55.96,126.22-78.77,191.32-4.03,11.51-8.03,23.06-11.6,34.73l9.51-1.6c-17.78-45.59-45.46-87.28-82.98-118.99-22.85-19.32-49-35-77.19-45.14-5.05-1.82-10.21-3.58-15.47-4.7s-10.3,5.86-3.91,7.22h0Z"/>
    </g>
  </g>
</svg>