<?xml version="1.0" encoding="UTF-8"?>
<svg id="Logo_2" xmlns="http://www.w3.org/2000/svg" version="1.1" viewBox="0 0 432.3 83.2">
  <!-- Generator: Adobe Illustrator 29.6.1, SVG Export Plug-In . SVG Version: 2.1.1 Build 9)  -->
  <path d="M372,47.6s-8.7-34.4,20.4-37.4c8.5-.9,23.4,1.7,34-2.3,0,0-4.9,26.3-25.7,29-17.3,2.2-23-3.2-23-3.2,0,0,9-13.4,33.6-16.1,0,0-40.6-3.6-39.3,30Z"/>
  <g>
    <path d="M31.8,74.8h-4.4l-18.2-27.9h-.2c.2,3.3.4,6.3.4,9v18.9h-3.6v-33.2h4.4l18.1,27.8h.2c0-.4,0-1.7-.2-3.9-.1-2.2-.1-3.8-.1-4.8v-19.1h3.6v33.2Z"/>
    <path d="M61.8,74.8l-4.1-10.6h-13.3l-4.1,10.6h-3.9l13.1-33.4h3.3l13.1,33.4h-4ZM56.5,60.7l-3.9-10.3c-.5-1.3-1-2.9-1.5-4.8-.3,1.5-.8,3.1-1.4,4.8l-3.9,10.3h10.8Z"/>
    <path d="M80.6,74.8h-3.9v-29.8h-10.5v-3.4h24.9v3.4h-10.5v29.8Z"/>
    <path d="M121.2,41.5v21.5c0,3.8-1.1,6.8-3.4,8.9-2.3,2.2-5.4,3.3-9.4,3.3s-7.1-1.1-9.3-3.3c-2.2-2.2-3.3-5.2-3.3-9v-21.4h3.9v21.7c0,2.8.8,4.9,2.3,6.4,1.5,1.5,3.7,2.2,6.7,2.2s5-.7,6.5-2.2c1.5-1.5,2.3-3.6,2.3-6.4v-21.6h3.9Z"/>
    <path d="M133.9,60.9v13.8h-3.9v-33.2h9.1c4.1,0,7.1.8,9,2.3,1.9,1.6,2.9,3.9,2.9,7s-2.2,7.4-6.7,8.9l9,14.9h-4.6l-8-13.8h-6.9ZM133.9,57.6h5.3c2.7,0,4.7-.5,6-1.6,1.3-1.1,1.9-2.7,1.9-4.9s-.6-3.8-1.9-4.8c-1.3-1-3.4-1.5-6.2-1.5h-5v12.7Z"/>
    <path d="M179.7,74.8l-4.1-10.6h-13.3l-4.1,10.6h-3.9l13.1-33.4h3.3l13.1,33.4h-4ZM174.4,60.7l-3.9-10.3c-.5-1.3-1-2.9-1.5-4.8-.3,1.5-.8,3.1-1.4,4.8l-3.9,10.3h10.8Z"/>
    <path d="M205,66.4l12.5-24.8h9.6l-7,33.2h-6.4l3.3-15.7c.8-3.7,1.6-7.1,2.4-10h-.1l-12.9,25.8h-6.4l-1.4-25.8h0c-.2,1.3-.5,3.1-.9,5.3-.4,2.2-1.8,9-4.3,20.5h-6.3l7-33.2h9.2l1.5,24.8h0Z"/>
    <path d="M239,75.2c-3.2,0-5.7-.9-7.4-2.6-1.8-1.7-2.6-4.1-2.6-7.3s.6-6,1.9-8.6c1.3-2.6,2.9-4.6,5.1-5.9,2.1-1.4,4.6-2,7.3-2s4.8.6,6.3,1.9,2.3,2.9,2.3,5.1-1.3,5-3.8,6.6c-2.5,1.5-6.1,2.3-10.8,2.3h-1.2v.5s0,.5,0,.5c0,1.4.4,2.5,1.2,3.3.8.8,1.9,1.2,3.4,1.2s2.5-.1,3.6-.4c1.1-.3,2.4-.8,3.9-1.5v5.2c-2.6,1.3-5.6,2-8.9,2ZM242.7,53.8c-1.3,0-2.6.6-3.8,1.8-1.2,1.2-2,2.7-2.3,4.4h1c2.3,0,4.2-.4,5.5-1.1,1.3-.7,2-1.7,2-3s-.8-2.2-2.4-2.2Z"/>
    <path d="M262,75.2c-2.2,0-4-.8-5.3-2.4-1.3-1.6-1.9-3.9-1.9-6.8s.5-5.8,1.6-8.5c1.1-2.7,2.5-4.8,4.3-6.3,1.8-1.5,3.7-2.3,5.9-2.3s2.3.3,3.2.8c.9.6,1.8,1.5,2.6,2.9h.2v-.6c.1-1.7.3-3.1.6-4.4l1.7-8.1h6.8l-7.5,35.4h-5.2l.3-3.3h0c-1.1,1.3-2.2,2.3-3.4,2.9-1.2.6-2.5.9-3.9.9ZM264.9,69.7c1,0,2-.5,2.9-1.6.9-1,1.7-2.4,2.3-4.1.6-1.7.9-3.6.9-5.6s-.3-2.2-.9-2.9c-.6-.7-1.3-1.1-2.3-1.1s-2,.5-2.9,1.6-1.7,2.5-2.2,4.3-.8,3.6-.8,5.3c0,2.7,1,4,3.1,4Z"/>
    <path d="M288.2,74.8h-6.8l5.4-25.4h6.8l-5.4,25.4ZM287.8,43.4c0-1.3.4-2.3,1.1-3,.7-.7,1.7-1,3.1-1s1.9.2,2.5.7c.6.5.9,1.1.9,2s-.3,2.2-1,2.9-1.7,1.1-3.1,1.1c-2.3,0-3.4-.9-3.4-2.8Z"/>
    <path d="M305.8,75.2c-3,0-5.4-.8-7-2.4-1.6-1.6-2.4-3.9-2.4-6.9s.6-6.1,1.7-8.8c1.1-2.6,2.7-4.7,4.8-6.1,2-1.4,4.4-2.1,7-2.1s5.2.5,7.5,1.6l-2.1,5.2c-.8-.3-1.6-.7-2.4-.9-.8-.3-1.7-.4-2.7-.4s-2.5.5-3.5,1.5c-1,1-1.8,2.3-2.4,4-.6,1.7-.9,3.5-.9,5.4s.3,2.6,1,3.3,1.6,1.1,2.9,1.1,2.2-.2,3.2-.5c1-.4,2-.8,3-1.3v5.6c-2.3,1.2-4.8,1.8-7.6,1.8Z"/>
    <path d="M326,75.2c-2.2,0-4-.8-5.3-2.4-1.3-1.6-1.9-3.9-1.9-6.8s.5-5.9,1.6-8.6c1.1-2.7,2.5-4.8,4.3-6.3,1.8-1.5,3.7-2.2,5.8-2.2s2.7.3,3.8,1c1.1.6,1.9,1.6,2.5,2.8h.2l1.3-3.3h5.3l-5.4,25.4h-5.2l.3-3.3h0c-2,2.5-4.4,3.8-7.3,3.8ZM328.7,69.7c1,0,2.1-.5,3-1.5,1-1,1.8-2.4,2.3-4.1s.9-3.7.9-5.9-.3-2-.9-2.7c-.6-.7-1.4-1.1-2.3-1.1s-2,.5-2.9,1.6-1.7,2.5-2.2,4.3c-.6,1.8-.8,3.6-.8,5.3s.3,2.3.8,3c.5.7,1.2,1,2.2,1Z"/>
    <path d="M356.1,69.7c1,0,2.2-.3,3.7-.8v5.1c-1.7.8-3.7,1.2-6,1.2s-3.9-.5-5-1.4c-1.1-1-1.6-2.4-1.6-4.4s0-1.6.3-2.5l2.6-12.3h-3.5l.7-3.3,4.5-1.9,3-5.4h4.4l-1.1,5.4h6.4l-1.1,5.2h-6.4l-2.6,12.3c0,.5-.1.9-.1,1.2,0,1.1.7,1.7,2,1.7Z"/>
    <path d="M382.7,48.9c.9,0,1.6,0,2.2.2l-1.5,6.6c-.7-.2-1.4-.4-2.3-.4-1.8,0-3.3.7-4.6,2.1s-2.3,3.4-2.8,6l-2.4,11.4h-6.8l5.4-25.4h5.2l-.5,4.7h.1c2.2-3.5,4.9-5.2,8-5.2Z"/>
    <path d="M390.8,74.8h-6.8l5.4-25.4h6.8l-5.4,25.4ZM390.5,43.4c0-1.3.4-2.3,1.1-3,.7-.7,1.7-1,3.1-1s1.9.2,2.5.7c.6.5.9,1.1.9,2s-.3,2.2-1,2.9-1.7,1.1-3.1,1.1c-2.3,0-3.4-.9-3.4-2.8Z"/>
    <path d="M405.6,61.7l-5.1-12.4h7.3l2.6,7.6,5.5-7.6h8l-10.6,12.8,5.5,12.7h-7.4l-2.8-7.8-6,7.8h-8l10.9-13Z"/>
  </g>
</svg>